<?xml version="1.0" encoding="UTF-8" ?>
<!DOCTYPE svg PUBLIC "-//W3C//DTD SVG 1.1//EN" "http://www.w3.org/Graphics/SVG/1.1/DTD/svg11.dtd">
<svg width="400pt" height="478pt" viewBox="0 0 400 478" version="1.1" xmlns="http://www.w3.org/2000/svg">
<g id="#393533ff">
<path fill="#393533" opacity="1.00" d=" M 0.00 0.00 L 400.00 0.00 L 400.00 255.16 C 399.61 257.75 399.27 260.35 399.12 262.97 C 395.45 307.40 377.88 350.36 350.27 385.27 C 326.43 415.49 295.80 440.27 261.41 457.53 C 243.97 466.16 225.51 473.05 206.28 476.38 C 204.41 476.74 202.61 477.36 200.82 478.00 L 200.29 478.00 C 195.78 475.93 190.81 475.36 186.08 474.01 C 158.93 466.71 133.11 454.72 109.65 439.29 C 78.71 418.91 51.88 391.97 32.99 360.01 C 16.70 332.61 6.52 301.71 2.70 270.09 C 1.49 261.41 1.56 252.59 0.00 243.96 L 0.00 0.00 M 2.25 1.33 C 2.27 80.22 2.25 159.11 2.26 238.00 C 1.93 286.64 16.19 335.66 44.74 375.26 C 65.16 403.95 92.16 427.70 122.48 445.49 C 145.85 459.19 171.27 469.59 197.80 475.26 C 201.63 476.13 205.51 475.00 209.28 474.33 C 230.45 470.07 250.66 461.87 269.56 451.54 C 301.64 433.83 330.17 409.54 352.22 380.23 C 376.41 348.22 392.25 309.85 396.94 269.96 C 399.29 252.73 398.53 235.33 398.62 218.00 C 398.45 145.78 398.49 73.56 398.18 1.35 C 266.21 1.34 134.23 1.37 2.25 1.33 Z" />
<path fill="#393533" opacity="1.00" d=" M 5.31 4.22 C 135.31 4.19 265.31 4.21 395.32 4.20 C 395.54 80.80 395.58 157.40 395.75 234.00 C 396.17 253.75 394.39 273.58 389.85 292.82 C 380.43 333.78 358.81 371.53 329.47 401.47 C 306.59 424.90 279.27 444.07 249.30 457.30 C 234.52 463.74 219.05 468.76 203.10 471.26 C 201.11 471.58 199.08 471.39 197.13 470.94 C 171.39 465.35 146.75 455.24 124.03 441.99 C 93.48 424.10 66.33 400.08 46.03 370.99 C 19.18 332.98 5.49 286.39 5.34 240.00 C 5.29 161.41 5.35 82.81 5.31 4.22 M 7.09 5.86 C 7.06 82.57 7.10 159.29 7.08 236.00 C 6.85 264.70 11.50 293.52 21.49 320.46 C 32.86 351.24 51.36 379.26 74.78 402.22 C 99.90 426.94 130.30 446.16 163.13 458.88 C 175.43 463.43 188.01 467.67 200.99 469.64 C 218.48 467.41 235.35 461.61 251.39 454.42 C 282.43 440.25 310.52 419.69 333.58 394.55 C 364.53 361.05 385.58 318.26 391.77 272.96 C 394.63 253.78 394.16 234.33 393.93 215.00 C 393.86 145.30 393.72 75.61 393.59 5.91 C 264.76 5.80 135.93 5.90 7.09 5.86 Z" />
<path fill="#393533" opacity="1.00" d=" M 11.61 9.91 C 137.34 9.90 263.08 9.88 388.81 9.91 C 389.01 87.61 389.28 165.30 389.30 242.99 C 388.85 277.44 380.40 311.82 364.31 342.32 C 339.92 388.66 299.45 425.92 252.25 448.25 C 235.71 455.77 218.26 462.19 200.10 464.07 C 176.99 459.74 154.85 450.93 134.18 439.84 C 101.96 422.35 73.30 397.94 52.05 367.97 C 33.10 341.35 20.48 310.34 15.07 278.13 C 12.65 263.89 11.52 249.44 11.58 235.00 C 11.61 159.97 11.55 84.94 11.61 9.91 M 16.05 14.18 C 15.90 17.46 15.90 20.73 15.91 24.00 C 15.94 94.67 15.86 165.33 15.95 236.00 C 16.01 268.62 22.20 301.43 35.87 331.15 C 52.29 367.40 79.36 398.36 111.89 421.08 C 137.47 438.91 166.33 452.30 196.81 459.12 C 199.56 459.87 202.43 459.80 205.20 459.22 C 231.33 454.56 255.96 443.47 278.25 429.29 C 314.03 406.38 344.16 374.21 363.03 336.03 C 377.52 306.93 385.01 274.47 385.34 241.99 C 385.27 166.05 385.08 90.11 384.86 14.17 C 261.92 14.18 138.99 14.16 16.05 14.18 Z" />
<path fill="#393533" opacity="1.00" d=" M 28.24 25.80 C 31.60 28.26 35.13 30.63 39.24 31.59 C 51.66 34.84 64.60 34.95 77.34 35.46 C 77.46 33.55 77.54 31.64 77.72 29.73 C 80.24 31.97 83.12 33.92 86.54 34.34 C 100.23 36.64 114.18 34.67 127.94 35.99 C 134.18 36.62 140.56 39.56 143.88 45.08 C 146.39 49.05 146.36 54.59 143.30 58.25 C 140.47 61.90 135.82 63.14 131.59 64.35 C 130.83 80.55 130.52 97.89 138.46 112.57 C 142.72 120.67 150.71 126.10 159.39 128.52 C 161.21 123.14 163.43 117.86 166.81 113.26 C 164.66 111.00 162.53 108.31 162.66 105.01 C 162.64 98.80 167.31 93.87 172.22 90.70 C 172.59 93.15 171.06 96.79 173.72 98.30 C 177.54 100.00 181.85 98.73 185.70 97.77 C 191.18 96.32 195.06 91.76 197.68 86.97 C 191.43 81.57 182.24 80.88 174.75 83.88 C 170.88 85.23 168.07 88.32 164.74 90.55 C 166.66 82.51 172.71 74.76 181.15 73.11 C 185.60 72.10 190.09 73.27 194.53 73.74 C 191.09 71.02 186.61 69.63 182.25 70.48 C 175.26 71.38 169.98 77.19 162.87 77.61 C 159.31 78.01 155.03 76.57 153.85 72.86 C 152.66 69.42 154.43 65.97 156.08 63.04 C 157.41 65.46 158.19 69.74 161.92 68.95 C 168.25 68.03 173.56 63.60 180.11 63.36 C 178.11 59.71 175.04 55.01 170.17 55.96 C 164.94 56.87 163.63 62.60 162.32 66.89 C 157.98 62.23 154.45 56.40 154.09 49.90 C 153.62 43.53 156.71 36.50 162.73 33.76 C 167.50 31.49 172.94 32.04 178.05 32.34 C 180.89 32.81 182.54 29.79 185.03 28.94 C 192.17 26.02 200.27 27.87 207.06 30.91 C 212.83 33.72 219.34 36.13 225.84 34.77 C 228.62 34.25 230.60 32.05 232.83 30.49 C 233.15 34.35 233.18 38.56 230.84 41.86 C 229.09 44.75 225.90 46.15 222.92 47.42 C 225.77 51.68 228.03 56.64 232.33 59.65 C 233.91 59.74 235.46 59.25 237.02 59.04 C 236.81 62.05 237.05 65.45 234.97 67.91 C 233.18 70.30 229.93 70.10 227.29 70.52 C 229.34 74.76 231.05 80.32 235.98 81.96 C 237.59 81.66 239.03 80.82 240.54 80.20 C 240.79 84.04 240.58 88.64 237.06 91.03 C 234.24 93.25 230.62 92.01 227.54 91.19 C 228.87 96.38 230.82 102.05 235.93 104.67 C 237.44 103.65 238.89 102.54 240.39 101.48 C 242.88 107.01 242.36 114.12 237.21 117.95 C 239.13 121.28 240.68 124.81 242.12 128.37 C 250.92 125.99 258.85 120.24 263.04 112.04 C 270.73 97.43 270.26 80.34 269.61 64.31 C 265.32 63.18 260.68 61.85 257.86 58.17 C 254.85 54.56 254.83 49.14 257.25 45.22 C 260.51 39.68 266.85 36.67 273.07 36.01 C 286.87 34.65 300.87 36.64 314.60 34.35 C 318.08 33.94 320.98 31.93 323.53 29.67 C 323.65 31.58 323.72 33.50 323.80 35.42 C 335.42 35.09 347.15 34.78 358.58 32.43 C 363.88 31.52 368.74 29.11 372.99 25.85 C 372.66 35.36 370.14 45.37 363.44 52.45 C 357.60 58.58 349.28 61.51 341.15 63.11 C 325.55 66.05 309.59 65.54 293.84 67.07 C 305.84 68.74 317.93 69.63 330.03 70.28 C 344.34 70.69 359.24 71.21 372.74 65.64 C 372.59 74.20 370.84 83.36 364.83 89.83 C 358.97 96.15 350.23 98.65 341.91 99.61 C 325.93 101.39 309.88 99.18 294.01 97.39 C 319.19 106.14 346.47 111.22 373.01 106.36 C 371.84 112.96 369.07 119.46 364.11 124.10 C 356.43 131.57 345.37 134.13 334.97 134.45 C 320.22 135.00 305.82 131.21 291.83 127.01 C 301.95 132.70 312.95 136.72 324.14 139.78 C 339.76 143.93 356.26 145.58 372.25 142.56 C 371.36 150.31 368.65 158.33 362.56 163.55 C 355.65 169.64 345.93 170.98 337.04 170.43 C 319.01 169.27 302.24 161.93 285.82 155.00 C 303.05 165.89 321.58 175.07 341.27 180.58 C 350.78 183.31 360.70 184.38 370.58 183.79 C 368.09 191.57 363.03 198.88 355.54 202.53 C 346.95 206.78 336.90 206.20 327.81 204.12 C 313.56 200.89 300.61 193.90 287.88 186.99 C 301.97 197.54 316.76 207.20 332.09 215.85 C 342.16 221.34 352.70 226.56 364.23 227.98 C 358.39 236.20 349.13 242.20 338.95 242.97 C 327.52 243.87 316.45 239.61 306.46 234.47 C 290.97 226.28 277.08 215.46 263.57 204.39 C 259.94 201.49 256.65 198.17 252.78 195.60 C 257.27 201.26 262.63 206.16 267.60 211.40 C 281.20 224.90 295.16 238.40 311.66 248.35 C 316.82 251.54 322.49 253.70 328.12 255.91 C 320.96 262.67 310.79 266.49 300.95 264.76 C 289.04 262.85 278.75 255.88 269.42 248.61 C 257.60 239.19 246.96 228.41 236.42 217.61 C 235.23 216.42 233.91 215.37 232.54 214.41 C 233.46 218.04 236.11 220.80 238.15 223.83 C 247.41 236.67 256.74 249.87 269.40 259.63 C 274.68 263.82 280.93 266.49 287.35 268.41 C 284.38 273.43 279.61 277.23 273.90 278.62 C 280.07 284.61 286.14 290.71 292.31 296.70 C 294.91 299.50 298.76 296.90 301.34 295.40 C 309.58 289.97 318.53 285.50 325.98 278.96 C 329.70 276.04 329.51 269.94 334.25 268.10 C 336.67 266.85 338.96 268.82 341.02 269.87 C 345.33 267.95 350.62 267.42 354.64 270.34 C 362.64 276.02 364.30 288.27 359.25 296.43 C 357.40 291.93 356.69 284.94 350.50 284.64 C 350.44 288.41 350.32 293.42 346.17 295.06 C 341.48 297.20 336.93 293.95 333.06 291.60 C 326.03 295.70 320.03 301.27 313.46 306.03 C 317.57 308.03 321.33 311.08 325.88 311.97 C 330.05 309.82 335.21 307.58 339.67 310.34 C 343.33 312.05 342.70 317.01 345.84 319.16 C 349.28 321.71 351.70 325.67 351.71 330.03 C 352.02 339.65 343.72 348.09 334.37 349.14 C 336.59 344.59 341.73 339.73 338.12 334.45 C 335.37 335.78 332.45 338.17 329.22 337.02 C 325.27 335.56 324.23 331.08 321.99 327.99 C 316.70 323.18 309.79 320.89 303.27 318.30 C 305.68 324.82 308.03 331.37 310.09 338.02 C 311.67 343.27 317.28 345.78 319.30 350.70 C 320.88 355.22 316.55 358.70 316.19 363.01 C 315.21 368.67 312.45 374.34 307.45 377.45 C 303.87 379.82 299.46 380.27 295.27 380.15 C 297.43 375.44 300.47 370.46 299.04 365.06 C 298.76 361.64 294.01 362.09 292.90 359.15 C 291.15 355.44 293.55 351.70 295.89 348.93 C 298.22 346.24 297.79 342.39 296.80 339.24 C 295.09 333.85 292.26 328.92 289.95 323.78 C 284.48 326.48 278.92 329.23 274.31 333.30 C 270.21 336.19 274.09 342.40 270.41 345.58 C 267.65 347.79 264.22 345.62 261.44 344.64 C 260.82 346.43 259.74 348.39 260.67 350.28 C 262.13 353.64 265.26 355.80 267.42 358.67 C 257.29 359.81 246.53 351.54 246.68 341.00 C 246.49 336.86 249.11 333.52 251.48 330.42 C 252.33 327.89 252.08 324.19 255.19 323.19 C 258.57 322.48 262.21 322.99 265.40 321.43 C 271.62 318.61 276.22 313.36 281.83 309.60 C 275.46 301.49 268.52 293.84 261.40 286.38 C 260.31 293.48 255.74 299.74 249.08 302.56 C 245.90 283.84 235.19 267.59 223.88 252.78 C 222.42 257.21 221.96 261.85 221.79 266.48 C 220.49 265.96 219.20 265.42 217.91 264.89 C 219.53 274.66 217.17 284.54 218.47 294.31 C 219.10 299.37 221.98 303.64 224.12 308.13 C 219.89 307.25 216.14 305.05 212.51 302.82 C 214.20 307.55 215.67 312.96 220.01 315.99 C 223.76 318.69 229.53 318.08 232.37 314.36 C 233.99 312.04 234.45 309.17 235.65 306.66 C 236.90 313.40 237.17 320.55 235.24 327.18 C 233.69 332.30 228.47 336.32 223.00 335.43 C 218.66 335.01 215.59 331.65 212.88 328.60 C 214.01 340.28 215.99 352.43 222.50 362.46 C 226.68 369.05 234.04 373.66 241.92 373.79 C 248.58 373.87 255.45 373.04 261.87 375.25 C 266.71 376.87 270.66 380.79 272.41 385.57 C 275.49 393.68 272.71 403.52 265.95 408.93 C 259.33 414.72 248.79 412.98 242.95 419.96 C 240.05 423.19 242.20 427.54 242.58 431.23 C 238.69 428.42 235.92 423.85 236.05 418.96 C 235.85 414.04 238.28 409.65 240.14 405.27 C 241.53 402.01 241.19 397.95 238.69 395.32 C 233.63 389.55 225.58 388.08 219.83 383.20 C 214.75 379.48 211.81 373.80 208.93 368.37 C 208.78 376.60 209.65 384.83 211.13 392.92 C 212.63 400.49 214.63 408.30 219.52 414.46 C 222.55 418.34 224.47 423.43 223.22 428.36 C 221.66 434.87 216.13 439.38 210.59 442.61 C 205.95 445.21 203.40 450.03 200.74 454.41 C 198.21 450.65 196.20 446.33 192.38 443.67 C 189.04 441.37 185.35 439.45 182.63 436.37 C 179.12 432.63 176.87 427.29 178.11 422.15 C 179.21 416.38 184.23 412.57 186.19 407.17 C 191.14 394.67 192.35 381.04 192.57 367.71 C 189.77 373.50 186.64 379.43 181.32 383.32 C 175.71 388.00 168.01 389.52 162.94 394.93 C 160.35 397.52 159.55 401.63 161.05 404.99 C 163.07 409.79 165.76 414.65 165.29 420.04 C 165.02 424.58 162.23 428.49 158.77 431.25 C 159.29 427.49 161.26 422.98 158.27 419.74 C 152.46 413.12 142.40 414.59 135.82 409.21 C 128.24 403.50 125.40 392.23 129.80 383.73 C 132.42 378.32 138.09 374.90 143.96 374.23 C 151.64 372.77 159.76 375.32 167.17 372.27 C 175.08 369.26 180.25 361.79 183.17 354.15 C 186.46 345.80 187.65 336.84 188.70 327.98 C 185.98 331.43 182.73 335.12 178.02 335.44 C 172.21 336.21 167.02 331.55 165.81 326.08 C 164.41 319.75 164.23 313.00 165.95 306.72 C 167.13 309.80 167.43 313.59 170.28 315.72 C 173.87 318.80 179.61 318.14 182.85 314.85 C 186.22 311.41 187.50 306.59 189.18 302.22 C 185.57 304.82 181.69 307.19 177.29 308.19 C 179.26 303.82 182.25 299.84 183.02 295.00 C 184.87 284.96 181.55 274.77 183.59 264.71 C 182.26 265.38 180.94 266.05 179.61 266.71 C 179.51 261.85 179.06 257.00 177.90 252.27 C 166.34 267.12 155.48 283.56 152.26 302.45 C 145.54 299.92 140.98 293.51 139.96 286.50 C 132.74 293.84 125.86 301.52 119.51 309.63 C 125.28 313.43 129.94 318.91 136.40 321.61 C 139.61 323.09 143.26 322.37 146.58 323.35 C 149.94 324.76 148.39 329.18 150.58 331.46 C 152.88 334.14 154.75 337.40 154.67 341.05 C 154.77 351.46 144.01 360.07 133.89 358.48 C 136.09 355.82 139.08 353.74 140.57 350.55 C 141.48 348.60 140.50 346.51 140.10 344.58 C 137.16 345.63 133.49 347.89 130.66 345.37 C 127.96 342.42 130.04 337.91 128.38 334.60 C 123.62 329.78 117.41 326.77 111.41 323.79 C 108.59 330.40 104.21 336.66 103.75 344.02 C 103.47 349.09 109.72 351.75 108.99 356.96 C 109.07 360.50 105.54 361.99 102.74 362.97 C 100.74 369.00 103.25 374.91 106.13 380.15 C 101.37 380.36 96.30 379.60 92.52 376.48 C 87.99 373.00 85.84 367.41 84.93 361.95 C 84.47 358.44 81.17 355.76 81.74 352.06 C 82.19 348.41 85.43 346.20 87.66 343.62 C 89.74 341.48 91.19 338.81 91.95 335.94 C 93.68 329.97 96.02 324.21 98.03 318.34 C 91.46 320.94 84.41 323.18 79.23 328.22 C 77.14 331.12 76.14 335.13 72.67 336.78 C 69.29 338.45 66.02 335.77 63.02 334.49 C 62.59 335.97 61.95 337.43 61.86 339.00 C 62.52 342.84 65.40 345.70 67.05 349.11 C 56.42 348.17 47.08 336.99 50.26 326.31 C 51.17 322.38 54.75 320.23 57.25 317.43 C 58.34 314.18 59.78 310.41 63.52 309.51 C 67.90 307.91 71.95 310.57 75.90 312.00 C 80.22 310.75 83.91 308.03 87.90 306.03 C 81.25 301.31 75.32 295.59 68.17 291.61 C 64.34 294.05 59.68 297.25 55.01 294.99 C 50.99 293.22 50.96 288.35 50.69 284.62 C 44.94 284.99 44.02 291.30 42.48 295.63 C 42.18 295.61 41.56 295.57 41.26 295.55 C 38.71 289.53 38.44 282.35 41.46 276.45 C 43.55 272.34 47.39 268.80 52.13 268.32 C 54.89 267.89 57.49 269.09 60.12 269.68 C 62.55 268.99 65.01 266.65 67.56 268.31 C 71.84 270.33 71.69 275.97 75.20 278.78 C 81.80 284.81 89.87 288.85 97.30 293.73 C 100.49 295.51 103.71 298.50 107.63 297.80 C 114.54 291.81 120.73 285.01 127.33 278.67 C 121.62 277.27 116.95 273.42 113.90 268.48 C 126.23 265.28 136.43 257.07 144.67 247.65 C 152.48 238.99 159.14 229.39 165.94 219.95 C 167.19 218.26 168.22 216.41 168.80 214.38 C 164.91 216.88 162.09 220.62 158.79 223.79 C 148.08 234.45 137.22 245.11 124.80 253.79 C 116.54 259.48 107.25 264.44 97.06 265.11 C 88.20 265.68 79.49 261.91 73.09 255.91 C 93.61 248.94 109.98 234.06 125.45 219.45 C 133.20 211.65 141.32 204.16 148.32 195.67 C 144.63 198.13 141.50 201.29 138.05 204.04 C 124.38 215.28 110.31 226.25 94.61 234.54 C 84.86 239.54 74.11 243.66 62.97 243.03 C 52.55 242.44 42.92 236.44 37.00 227.97 C 49.92 226.37 61.55 220.06 72.74 213.81 C 86.34 205.85 99.61 197.24 112.22 187.80 C 99.89 194.03 87.62 200.87 74.02 203.98 C 64.49 206.23 53.82 206.92 44.92 202.14 C 37.77 198.41 33.08 191.27 30.58 183.79 C 36.72 183.93 42.92 184.10 48.99 182.97 C 67.25 179.85 84.42 172.34 100.66 163.66 C 105.59 160.91 110.62 158.30 115.23 155.04 C 99.13 161.89 82.66 169.02 64.99 170.38 C 56.02 171.04 46.20 169.87 39.05 163.92 C 32.72 158.71 29.84 150.51 28.97 142.58 C 49.38 146.37 70.43 142.71 89.78 135.81 C 96.43 133.31 103.10 130.71 109.22 127.06 C 97.38 130.55 85.37 133.90 72.96 134.39 C 61.92 134.90 50.14 133.59 40.81 127.19 C 33.84 122.47 29.44 114.59 28.26 106.33 C 54.71 111.23 81.96 106.17 107.05 97.41 C 91.30 99.17 75.39 101.36 59.54 99.64 C 51.32 98.70 42.68 96.35 36.77 90.22 C 30.45 83.74 28.53 74.30 28.50 65.54 C 39.32 70.31 51.37 70.57 62.99 70.50 C 77.50 70.16 92.04 69.19 106.40 67.10 C 91.18 65.41 75.71 66.07 60.60 63.21 C 52.23 61.64 43.64 58.68 37.66 52.33 C 31.03 45.25 28.50 35.28 28.24 25.80 M 181.15 33.80 C 184.47 44.89 196.74 49.96 199.96 61.07 C 203.24 71.48 202.85 84.00 195.84 92.85 C 191.08 99.05 182.73 101.39 175.20 100.58 C 172.07 100.44 170.95 97.04 169.32 94.94 C 167.18 97.45 164.78 100.09 164.43 103.53 C 163.77 107.24 165.99 111.46 169.78 112.39 C 173.99 113.75 178.07 111.38 181.64 109.39 C 182.83 113.88 185.08 118.09 189.07 120.69 C 191.54 119.02 194.13 117.39 196.01 115.01 C 198.78 111.79 199.22 107.39 200.94 103.63 C 201.92 107.51 202.41 111.71 204.91 114.99 C 206.66 117.59 209.37 119.26 211.99 120.86 C 215.90 118.00 218.15 113.69 219.66 109.20 C 224.07 112.90 229.00 118.34 235.40 116.50 C 240.03 114.97 240.41 109.46 240.18 105.35 C 237.64 105.38 234.59 106.43 232.50 104.48 C 227.87 100.35 226.30 94.00 225.69 88.06 C 228.85 89.07 232.30 91.64 235.65 89.93 C 237.88 88.91 238.28 86.33 238.79 84.20 C 236.36 83.50 233.52 83.31 231.69 81.35 C 228.16 77.81 226.53 72.96 225.06 68.31 C 227.32 68.27 229.62 68.51 231.85 68.05 C 234.01 67.31 234.51 64.77 235.62 63.04 C 227.89 60.35 224.25 52.73 220.22 46.27 C 223.01 45.19 226.09 44.43 228.34 42.33 C 230.33 40.41 230.79 37.55 231.59 35.03 C 227.51 36.06 223.35 37.24 219.10 36.67 C 211.91 36.10 205.96 31.47 199.02 29.97 C 192.91 28.56 185.66 28.84 181.15 33.80 M 30.11 29.94 C 31.10 37.57 33.37 45.46 38.88 51.11 C 44.92 57.58 53.77 60.27 62.24 61.75 C 72.14 63.32 82.16 64.11 92.19 64.11 C 88.75 61.51 85.11 58.94 82.75 55.24 C 79.20 49.98 78.33 43.54 77.45 37.41 C 61.56 36.07 44.87 37.02 30.11 29.94 M 323.99 37.34 C 322.91 43.55 321.90 50.04 318.35 55.40 C 315.96 59.06 312.32 61.59 308.86 64.13 C 319.16 64.09 329.46 63.32 339.63 61.63 C 347.82 60.11 356.34 57.43 362.23 51.22 C 367.72 45.55 370.14 37.68 371.02 30.00 C 356.33 36.93 339.79 36.14 323.99 37.34 M 79.12 34.01 C 79.45 42.67 80.92 52.20 87.67 58.34 C 95.04 65.25 105.87 65.55 115.38 65.24 C 115.77 73.07 115.14 80.95 116.23 88.74 C 117.74 102.25 121.31 116.19 130.15 126.86 C 136.83 134.99 146.44 140.13 156.46 142.94 C 157.82 138.83 158.51 134.54 158.80 130.23 C 154.36 128.55 149.80 126.90 146.03 123.93 C 139.63 119.00 135.34 111.76 133.03 104.10 C 128.97 90.85 129.24 76.79 129.97 63.10 C 134.00 61.70 138.57 60.82 141.62 57.59 C 144.74 54.49 144.68 49.21 142.29 45.69 C 139.04 40.67 133.05 38.19 127.27 37.65 C 111.25 36.31 94.63 39.43 79.12 34.01 M 163.35 35.33 C 157.65 38.05 154.90 44.94 155.81 50.99 C 156.30 55.54 158.71 59.53 161.17 63.28 C 163.15 59.50 165.40 54.74 170.22 54.25 C 174.16 53.49 177.21 56.48 179.80 58.97 C 181.44 57.61 182.95 55.70 185.22 55.46 C 188.97 55.10 192.28 57.68 194.36 60.58 C 197.71 65.29 198.35 71.27 198.15 76.89 C 192.61 75.42 186.84 73.48 181.07 74.88 C 175.86 75.99 171.58 79.74 169.09 84.36 C 174.16 82.29 179.40 80.00 185.02 80.39 C 189.88 80.40 194.36 82.54 198.36 85.12 C 201.12 77.57 200.58 69.22 198.35 61.62 C 194.99 50.60 182.59 45.52 179.60 34.24 C 174.21 33.61 168.44 32.99 163.35 35.33 M 273.73 37.67 C 268.21 38.27 262.44 40.54 259.20 45.27 C 256.47 49.00 256.47 54.79 259.98 58.03 C 263.05 60.90 267.31 61.78 271.18 63.05 C 272.22 79.92 272.41 97.96 264.26 113.29 C 259.89 121.64 251.76 127.16 243.01 130.13 C 243.70 134.35 244.71 138.50 245.91 142.59 C 258.31 139.14 269.56 131.21 275.90 119.87 C 285.23 103.33 285.81 83.77 285.76 65.26 C 295.04 65.49 305.49 65.32 312.91 58.90 C 320.03 52.82 321.95 42.95 321.95 34.01 C 306.44 39.50 289.77 36.25 273.73 37.67 M 180.11 63.41 C 186.05 63.37 191.54 65.78 196.28 69.19 C 195.02 64.00 192.04 57.64 186.00 57.15 C 182.38 56.83 181.35 60.87 180.11 63.41 M 163.57 70.55 C 160.54 71.45 157.86 69.46 155.32 68.17 C 155.48 70.21 155.02 72.70 156.80 74.18 C 159.09 76.31 162.58 75.91 165.40 75.36 C 171.47 73.64 176.48 68.98 182.96 68.54 C 187.87 67.78 192.28 70.39 196.48 72.50 C 192.60 68.09 186.98 65.13 181.00 65.39 C 174.69 65.09 169.47 69.12 163.57 70.55 M 79.76 84.94 C 88.87 93.97 102.64 96.11 114.93 94.93 C 114.39 85.99 113.41 77.06 113.69 68.09 C 100.87 69.22 87.48 74.12 79.76 84.94 M 287.44 68.12 C 287.92 77.11 286.61 86.01 286.18 94.97 C 298.45 96.01 312.32 94.21 321.32 84.98 C 313.76 74.04 300.23 69.17 287.44 68.12 M 307.56 70.63 C 313.61 74.61 319.70 78.78 323.67 85.00 C 318.53 91.67 310.37 94.29 302.73 96.85 C 316.86 97.99 331.18 99.77 345.29 97.37 C 352.03 96.21 358.92 93.77 363.64 88.59 C 368.80 83.16 370.52 75.49 370.96 68.23 C 350.47 75.02 328.63 71.58 307.56 70.63 M 30.14 68.55 C 30.67 73.77 31.57 79.10 34.13 83.76 C 37.71 90.73 44.96 95.00 52.43 96.63 C 67.49 100.06 83.05 98.16 98.24 96.83 C 91.13 94.00 82.04 92.14 78.18 84.90 C 81.04 78.26 88.02 74.84 93.51 70.64 C 72.42 71.80 50.78 74.58 30.14 68.55 M 90.25 114.31 C 89.62 116.07 88.09 117.96 88.72 119.88 C 94.24 123.78 101.33 125.32 107.99 124.31 C 113.15 123.61 117.90 121.33 122.47 118.97 C 119.48 111.95 117.04 104.69 115.53 97.20 C 105.13 98.66 94.86 104.56 90.25 114.31 M 285.61 97.18 C 284.17 104.69 281.76 111.95 278.79 118.98 C 282.95 121.13 287.22 123.22 291.86 124.11 C 299.20 125.78 306.77 123.64 313.07 119.79 C 311.92 116.52 310.69 113.22 308.63 110.39 C 303.42 102.83 294.52 98.52 285.61 97.18 M 66.94 108.87 C 54.79 110.56 42.48 110.33 30.35 108.54 C 32.46 119.24 41.23 127.63 51.60 130.43 C 68.28 135.20 85.99 131.92 102.31 127.26 C 96.67 125.58 90.89 124.03 85.97 120.66 C 87.44 113.81 91.63 108.13 96.20 103.02 C 86.50 105.22 76.85 107.74 66.94 108.87 M 304.90 103.00 C 309.49 108.12 313.93 113.75 315.11 120.74 C 309.93 124.20 303.94 126.08 297.80 126.90 C 306.22 129.45 314.83 131.44 323.59 132.35 C 335.61 133.29 348.64 132.90 359.04 126.04 C 365.25 122.13 369.11 115.50 371.00 108.54 C 362.35 109.49 353.65 110.70 344.94 109.80 C 331.35 109.31 318.08 106.10 304.90 103.00 M 168.05 114.38 C 160.42 124.45 158.47 137.60 158.48 149.91 C 160.62 149.26 162.76 148.58 164.92 147.98 C 162.66 152.71 160.35 157.62 160.41 162.98 C 160.40 172.23 162.64 181.36 162.27 190.63 C 163.70 189.74 165.14 188.86 166.60 188.01 C 165.90 193.02 165.36 198.16 166.65 203.13 C 168.37 210.25 170.85 217.20 171.55 224.54 C 172.90 224.51 174.25 224.48 175.60 224.46 C 175.34 231.16 175.49 237.97 177.37 244.46 C 179.20 250.71 180.68 257.09 181.01 263.63 C 182.56 263.08 184.10 262.52 185.66 262.00 C 184.05 269.57 184.22 277.34 185.07 285.00 C 185.93 291.84 183.69 298.44 181.53 304.81 C 191.66 300.72 197.02 289.92 198.75 279.69 C 199.78 275.04 198.86 270.05 200.86 265.62 C 201.91 272.15 201.40 278.92 203.58 285.26 C 205.90 293.90 211.71 301.85 220.25 305.14 C 218.44 299.92 216.39 294.62 216.51 289.00 C 216.57 280.05 217.47 271.04 215.99 262.15 C 217.40 262.52 218.80 262.90 220.21 263.29 C 220.98 257.14 222.78 251.20 224.50 245.27 C 226.46 238.65 226.63 231.71 226.69 224.86 C 227.97 224.48 229.26 224.11 230.54 223.74 C 230.86 217.64 231.96 211.61 233.70 205.76 C 235.41 199.97 235.23 193.90 234.69 187.96 C 236.02 188.83 237.34 189.73 238.65 190.64 C 238.31 183.93 239.75 177.34 241.04 170.81 C 242.47 163.34 242.09 155.57 239.76 148.33 C 241.45 148.53 243.15 148.74 244.85 148.93 C 243.72 138.54 241.38 128.00 235.94 118.96 C 230.14 119.28 224.92 116.62 220.82 112.71 C 218.58 116.71 215.81 120.47 211.85 122.90 C 206.90 120.63 203.32 116.46 200.72 111.79 C 197.42 115.80 194.37 120.80 189.08 122.33 C 184.69 120.73 182.26 116.51 180.53 112.45 C 176.61 114.23 172.33 114.98 168.05 114.38 M 102.39 150.19 C 107.21 151.93 112.59 152.33 117.48 150.62 C 125.26 147.90 131.54 142.17 136.81 136.00 C 131.65 131.48 127.32 126.17 123.20 120.72 C 112.24 126.58 102.39 137.05 102.39 150.19 M 264.36 136.01 C 270.41 142.99 277.85 149.79 287.24 151.48 C 290.98 151.76 295.47 152.30 298.53 149.63 C 298.91 136.70 288.58 126.44 277.90 120.73 C 273.88 126.25 269.52 131.52 264.36 136.01 M 293.14 129.87 C 297.65 136.19 301.00 143.54 300.58 151.48 C 296.56 153.16 292.24 153.75 287.90 153.70 C 295.54 157.53 303.56 160.57 311.64 163.34 C 321.46 166.49 331.67 169.06 342.06 168.72 C 349.16 168.72 356.53 166.71 361.90 161.89 C 366.69 157.58 369.15 151.33 370.11 145.08 C 362.38 145.57 354.63 146.07 346.90 145.52 C 328.15 143.96 309.97 138.14 293.14 129.87 M 51.78 145.66 C 44.85 145.99 37.92 145.51 31.01 145.06 C 32.21 152.41 35.57 159.85 42.02 164.00 C 50.24 169.47 60.66 169.26 70.07 168.11 C 85.09 165.71 99.50 160.34 113.14 153.74 C 108.98 153.32 104.05 153.93 100.71 150.91 C 100.06 143.48 103.75 136.75 107.27 130.50 C 89.74 138.44 71.13 144.68 51.78 145.66 M 138.30 137.15 C 134.03 141.98 129.61 146.71 126.04 152.10 C 121.44 158.60 118.12 166.58 119.84 174.65 C 124.18 174.72 128.86 175.19 132.77 172.89 C 138.49 169.70 143.07 164.47 145.46 158.36 C 147.49 153.42 149.96 148.69 152.33 143.91 C 147.61 141.75 142.94 139.48 138.30 137.15 M 248.90 143.90 C 251.25 148.62 253.59 153.35 255.64 158.22 C 258.17 164.51 262.85 170.03 268.92 173.16 C 272.80 175.25 277.33 174.71 281.56 174.54 C 281.75 170.53 282.08 166.36 280.58 162.53 C 276.99 152.66 269.78 144.76 262.82 137.14 C 258.24 139.53 253.60 141.78 248.90 143.90 M 150.56 151.60 C 146.25 160.82 141.83 170.61 142.40 181.02 C 142.48 185.33 144.43 189.26 146.31 193.03 C 151.81 192.37 157.04 189.44 160.19 184.85 C 161.02 177.55 158.60 170.27 158.88 162.95 C 159.12 159.19 160.03 155.53 160.85 151.88 C 159.50 152.08 158.15 152.28 156.81 152.47 C 156.71 149.61 156.66 146.74 156.42 143.88 C 153.09 145.10 152.12 148.79 150.56 151.60 M 246.35 144.57 C 246.36 146.94 246.49 149.32 246.65 151.69 C 245.19 151.55 243.74 151.41 242.29 151.27 C 243.91 158.21 243.92 165.47 242.30 172.42 C 241.75 176.39 240.10 180.37 240.61 184.41 C 243.84 189.14 249.10 192.28 254.76 193.10 C 261.61 182.53 258.50 169.10 253.72 158.36 C 251.59 153.61 249.64 148.68 246.35 144.57 M 55.58 183.47 C 48.19 185.26 40.57 185.84 32.98 185.59 C 35.54 191.67 39.63 197.35 45.56 200.52 C 52.49 204.41 60.77 204.26 68.43 203.35 C 82.48 200.93 95.53 194.74 107.94 187.93 C 113.80 184.57 119.75 181.31 125.11 177.17 C 122.78 176.67 120.44 176.24 118.10 175.77 C 117.67 172.54 117.22 169.24 117.83 166.00 C 118.66 161.21 121.13 156.96 122.98 152.54 C 101.95 165.58 79.86 177.76 55.58 183.47 M 278.11 152.47 C 280.14 157.00 282.72 161.41 283.46 166.39 C 283.96 169.50 283.49 172.64 283.05 175.72 C 280.87 176.24 278.70 176.75 276.54 177.32 C 285.04 183.94 294.75 188.80 304.32 193.67 C 317.92 200.05 332.96 205.85 348.24 203.24 C 357.54 201.62 364.73 194.28 368.19 185.78 C 353.84 186.18 339.73 182.67 326.44 177.52 C 309.33 171.25 293.61 161.92 278.11 152.47 M 128.33 178.28 C 112.53 189.99 96.54 201.51 79.70 211.69 C 67.38 219.25 54.41 225.93 40.39 229.69 C 45.04 234.68 50.79 238.92 57.55 240.44 C 64.95 242.43 72.74 241.13 79.93 238.90 C 91.03 235.32 101.13 229.25 110.76 222.76 C 122.93 214.30 134.60 205.10 145.65 195.21 C 143.47 191.41 141.35 187.44 140.72 183.04 C 140.04 178.21 141.06 173.38 141.78 168.61 C 137.52 172.14 132.84 175.08 128.33 178.28 M 259.65 168.81 C 260.29 173.76 261.01 178.78 260.35 183.76 C 259.78 187.92 257.59 191.57 255.56 195.16 C 262.88 202.00 270.83 208.12 278.73 214.27 C 290.98 223.53 303.83 232.34 318.25 237.85 C 326.49 240.85 335.64 242.77 344.27 240.27 C 350.78 238.66 356.31 234.53 360.84 229.71 C 353.53 227.42 346.19 225.13 339.37 221.60 C 317.14 210.40 296.83 195.83 276.78 181.18 C 271.23 176.83 265.10 173.29 259.65 168.81 M 240.16 187.70 C 240.26 189.89 240.40 192.08 240.53 194.28 C 239.11 193.35 237.71 192.40 236.32 191.44 C 237.14 198.44 235.69 205.38 233.59 212.02 C 238.22 217.50 243.50 222.37 248.52 227.48 C 258.49 237.26 268.79 246.86 280.54 254.49 C 288.17 259.32 296.79 263.36 306.00 263.45 C 312.76 263.49 319.17 260.69 324.56 256.77 C 322.91 255.93 321.26 255.13 319.60 254.35 C 304.64 247.67 292.12 236.79 280.09 225.89 C 269.82 216.18 259.86 206.12 250.27 195.72 C 247.32 192.55 243.70 190.14 240.16 187.70 M 152.84 193.85 C 134.81 212.48 117.14 231.89 95.59 246.56 C 89.69 250.75 83.05 253.64 76.57 256.76 C 82.45 261.06 89.64 263.91 97.02 263.39 C 106.74 262.69 115.60 257.96 123.52 252.59 C 136.99 243.29 148.56 231.61 160.08 220.07 C 162.65 217.55 165.08 214.91 167.39 212.16 C 165.40 206.09 164.15 199.77 164.24 193.36 C 163.01 193.43 161.79 193.51 160.57 193.58 C 160.53 191.78 160.50 189.98 160.41 188.18 C 157.82 189.98 155.15 191.70 152.84 193.85 M 154.45 238.49 C 144.47 251.41 132.82 264.34 116.79 269.48 C 119.34 272.81 122.66 275.90 126.99 276.50 C 133.09 277.67 138.81 274.75 144.40 272.81 C 143.00 278.46 140.57 284.44 142.66 290.24 C 143.90 294.51 147.27 297.60 150.81 300.05 C 154.52 283.54 163.32 268.75 173.40 255.37 C 174.62 253.63 176.12 251.98 176.75 249.91 C 176.56 246.06 175.12 242.41 174.66 238.60 C 174.22 234.90 174.07 231.17 173.80 227.46 C 172.52 227.18 171.25 226.90 169.99 226.62 C 169.79 223.98 169.59 221.33 169.30 218.70 C 163.87 224.92 159.64 232.07 154.45 238.49 M 232.84 220.14 C 232.61 222.25 232.50 224.38 232.39 226.51 C 231.06 226.86 229.74 227.20 228.41 227.55 C 228.10 231.62 227.79 235.70 227.31 239.76 C 226.86 243.51 225.23 247.07 225.18 250.88 C 225.93 252.90 227.37 254.57 228.60 256.32 C 238.34 269.45 246.95 283.88 250.42 300.03 C 254.10 297.45 257.66 294.21 258.80 289.68 C 260.64 284.02 258.16 278.30 256.98 272.79 C 262.45 274.72 268.03 277.58 274.02 276.52 C 278.38 275.91 281.97 273.01 284.37 269.44 C 279.56 267.52 274.69 265.57 270.46 262.52 C 259.77 254.99 251.52 244.67 243.69 234.34 C 240.04 229.63 237.04 224.40 232.84 220.14 M 45.07 274.08 C 40.96 278.67 40.58 285.22 41.50 291.03 C 43.08 288.77 44.18 286.09 46.32 284.28 C 49.14 282.12 53.42 284.85 55.94 282.03 C 58.35 279.33 60.42 275.23 59.40 271.63 C 54.86 268.86 48.41 269.87 45.07 274.08 M 62.49 270.47 C 60.72 274.87 60.91 280.52 56.66 283.56 C 55.24 285.02 52.14 285.50 52.56 288.06 C 52.53 291.04 54.84 294.14 58.05 293.92 C 61.87 294.28 64.67 291.18 68.10 290.11 C 71.19 290.84 73.63 293.05 76.15 294.85 C 81.06 298.73 86.06 302.50 91.01 306.34 C 85.95 308.75 81.34 312.26 75.89 313.73 C 72.49 313.26 69.65 310.31 66.02 310.74 C 62.60 310.82 59.71 313.49 59.21 316.84 C 60.62 319.59 63.33 321.50 64.57 324.40 C 66.17 327.32 65.71 330.72 65.38 333.89 C 67.44 334.57 69.61 336.31 71.84 335.31 C 75.78 333.30 76.08 328.09 79.56 325.61 C 85.75 320.73 93.37 318.35 100.58 315.46 C 99.14 321.08 96.70 326.37 94.96 331.89 C 93.69 335.52 92.97 339.45 90.61 342.59 C 88.68 345.38 85.90 347.45 84.02 350.27 C 82.43 352.75 84.06 355.55 84.94 357.96 C 88.58 357.11 92.29 356.08 96.06 356.63 C 99.46 356.99 102.17 359.23 105.01 360.91 C 106.19 359.19 108.08 357.37 107.27 355.08 C 106.22 351.95 103.38 349.78 102.44 346.61 C 101.58 342.71 102.80 338.75 104.28 335.17 C 106.23 330.53 108.50 326.03 110.80 321.55 C 117.52 325.05 124.85 328.18 129.92 334.00 C 131.11 337.39 130.70 341.14 131.51 344.65 C 133.61 344.61 135.96 344.95 137.75 343.59 C 138.54 341.57 138.72 339.38 139.50 337.36 C 141.07 333.36 144.89 331.02 148.15 328.52 C 147.31 327.01 146.83 324.52 144.63 324.67 C 140.91 324.32 137.02 324.17 133.71 322.24 C 127.71 318.86 122.90 313.82 117.22 309.96 C 123.59 301.51 130.73 293.67 138.05 286.04 C 140.90 283.41 140.73 279.23 141.81 275.77 C 136.90 278.25 130.41 277.21 126.60 281.63 C 120.88 287.24 115.32 293.02 109.48 298.50 C 106.60 301.13 102.57 298.86 99.78 297.24 C 91.51 291.85 82.65 287.27 75.05 280.93 C 72.11 278.63 70.80 275.08 69.05 271.93 C 67.84 269.57 64.56 268.53 62.49 270.47 M 334.28 269.93 C 332.20 271.09 331.51 273.54 330.42 275.50 C 328.62 279.45 325.00 282.11 321.59 284.59 C 315.81 288.57 309.73 292.06 303.83 295.85 C 301.10 297.46 298.36 299.48 295.09 299.70 C 292.98 299.92 291.49 298.19 290.08 296.93 C 284.90 291.76 279.68 286.64 274.52 281.46 C 270.81 277.10 264.40 278.19 259.56 275.85 C 260.54 279.25 260.36 283.31 263.12 285.90 C 270.54 293.56 277.72 301.47 284.15 309.98 C 278.36 313.83 273.52 319.03 267.38 322.36 C 264.05 324.27 260.15 324.31 256.45 324.69 C 254.29 324.72 253.98 327.22 253.30 328.76 C 255.98 330.65 258.93 332.41 260.74 335.24 C 262.43 337.68 262.60 340.73 263.55 343.46 C 265.33 344.89 268.86 345.70 270.18 343.27 C 271.17 339.75 269.52 335.27 272.60 332.57 C 277.88 327.79 284.31 324.53 290.76 321.63 C 293.76 328.66 298.20 335.29 299.23 343.00 C 300.02 347.58 296.09 350.67 294.33 354.40 C 293.23 357.02 294.84 359.42 296.90 360.94 C 298.87 359.47 300.76 357.75 303.18 357.07 C 307.50 355.77 312.02 356.85 316.24 357.99 C 317.40 355.55 318.90 352.50 317.11 349.96 C 314.14 345.94 309.68 342.84 308.28 337.80 C 306.14 330.24 302.88 323.06 300.78 315.49 C 307.92 318.31 315.45 320.67 321.57 325.47 C 325.09 327.90 325.50 332.93 329.22 335.17 C 331.42 336.42 333.73 334.64 335.83 334.00 C 335.30 329.69 335.47 324.94 338.56 321.55 C 339.67 319.58 342.93 317.92 341.67 315.37 C 340.69 312.21 337.21 310.38 334.02 310.75 C 331.08 311.04 328.66 312.91 325.91 313.77 C 320.23 312.50 315.43 308.85 310.34 306.17 C 316.75 301.69 322.65 296.54 329.06 292.06 C 330.68 291.22 332.58 289.35 334.46 290.60 C 337.85 292.30 341.43 295.06 345.43 293.54 C 348.33 292.43 348.60 289.08 348.97 286.45 C 346.71 284.98 344.13 283.75 342.61 281.43 C 340.39 278.21 339.96 274.22 339.34 270.47 C 337.71 270.08 335.90 268.87 334.28 269.93 M 341.27 271.76 C 341.95 275.93 342.96 280.76 346.88 283.11 C 349.47 283.91 352.47 282.64 354.88 284.13 C 357.22 286.00 358.33 288.90 359.97 291.33 C 361.17 284.49 359.97 276.35 353.98 272.03 C 350.28 269.17 345.23 269.90 341.27 271.76 M 200.44 279.98 C 198.89 285.82 197.45 291.89 193.72 296.80 C 191.07 300.23 189.89 304.43 188.40 308.43 C 186.66 313.41 183.13 318.46 177.58 319.40 C 172.94 320.45 169.25 316.89 166.10 314.07 C 166.39 319.37 165.92 325.25 169.17 329.82 C 171.83 333.69 177.41 334.85 181.49 332.63 C 186.05 330.54 187.51 325.38 190.09 321.51 C 190.58 328.14 189.32 334.73 188.25 341.25 C 186.44 350.49 183.53 359.98 177.18 367.16 C 172.44 372.61 165.29 375.86 158.05 375.60 C 150.45 375.59 141.90 374.55 135.41 379.39 C 127.00 385.62 127.46 399.30 134.82 406.18 C 140.64 412.41 150.17 411.34 156.78 416.24 C 159.71 418.23 160.89 421.73 162.59 424.67 C 165.68 418.13 162.22 411.41 159.71 405.37 C 157.39 400.54 159.89 394.95 163.87 391.87 C 169.93 387.03 177.97 385.14 183.37 379.36 C 188.31 374.77 190.00 368.06 193.46 362.49 C 194.51 373.50 193.39 384.60 191.26 395.42 C 189.85 401.94 187.96 408.55 184.02 414.04 C 181.39 417.70 178.61 421.88 179.36 426.63 C 180.20 433.23 185.86 437.65 191.17 440.89 C 195.23 443.26 197.99 447.14 200.52 451.00 C 203.32 447.37 205.90 443.38 209.93 440.99 C 215.01 437.89 220.38 433.94 221.79 427.79 C 223.05 423.17 220.63 418.67 217.97 415.05 C 214.46 410.37 212.32 404.84 210.94 399.19 C 207.98 387.24 206.98 374.82 207.65 362.53 C 209.95 364.80 210.76 368.01 212.13 370.84 C 215.12 377.49 220.75 382.69 227.27 385.82 C 232.91 388.72 239.71 391.57 242.02 398.03 C 244.03 404.11 239.19 409.39 237.98 415.08 C 236.87 418.52 237.91 422.06 239.10 425.32 C 240.25 422.30 241.04 418.83 243.78 416.80 C 248.45 412.93 254.68 412.31 260.17 410.26 C 267.17 407.65 272.09 400.45 272.13 393.00 C 272.49 386.72 268.95 380.29 263.11 377.72 C 253.24 372.95 241.57 378.35 231.84 373.11 C 223.34 368.90 218.35 360.11 215.60 351.38 C 212.64 341.71 210.96 331.57 211.34 321.45 C 213.82 325.28 215.24 330.31 219.64 332.47 C 223.65 334.79 229.21 333.75 231.97 329.97 C 235.21 325.64 234.87 319.92 235.24 314.81 C 232.49 316.55 229.91 318.85 226.63 319.48 C 222.64 320.00 218.69 317.82 216.29 314.73 C 212.24 309.54 211.81 302.48 207.68 297.33 C 203.70 292.30 202.20 286.00 200.44 279.98 M 51.42 328.97 C 50.47 336.68 56.13 343.52 62.88 346.47 C 61.80 343.48 59.77 340.55 60.29 337.23 C 60.97 334.81 62.99 333.08 64.01 330.82 C 64.66 326.15 61.54 322.09 58.20 319.24 C 54.98 321.63 51.68 324.68 51.42 328.97 M 337.32 330.71 C 338.35 333.28 340.85 335.17 341.23 338.01 C 341.13 340.96 339.58 343.59 338.62 346.32 C 345.33 343.49 350.82 336.66 349.86 329.08 C 349.73 324.69 346.28 321.56 342.95 319.22 C 339.88 322.23 336.71 326.10 337.32 330.71 M 140.26 340.98 C 140.62 343.75 142.83 346.05 142.71 348.93 C 142.28 351.91 140.14 354.23 138.74 356.79 C 146.14 355.32 153.16 349.00 152.88 341.03 C 153.11 337.04 150.45 333.85 147.95 331.08 C 144.37 333.30 140.61 336.47 140.26 340.98 M 248.65 343.96 C 250.05 350.64 256.06 355.34 262.51 356.78 C 261.15 354.22 259.18 351.89 258.59 349.00 C 258.55 346.12 260.60 343.75 261.15 340.98 C 260.58 336.84 257.45 333.53 254.00 331.44 C 249.55 333.50 247.60 339.32 248.65 343.96 M 300.27 360.39 C 299.95 363.61 301.36 366.76 300.93 369.99 C 300.56 373.00 299.22 375.76 298.15 378.57 C 301.57 377.95 305.20 377.30 307.94 374.97 C 312.59 371.25 314.49 365.19 314.93 359.45 C 310.15 358.22 304.59 357.42 300.27 360.39 M 86.15 359.75 C 87.15 365.00 88.51 370.63 92.67 374.34 C 95.45 377.05 99.35 377.95 103.07 378.54 C 101.98 375.40 100.46 372.32 100.31 368.95 C 100.13 366.16 101.03 363.48 101.75 360.84 C 97.14 357.61 91.23 357.87 86.15 359.75 Z" />
<path fill="#393533" opacity="1.00" d=" M 187.57 41.51 C 189.08 37.31 193.99 36.09 198.01 36.59 C 204.11 37.41 209.45 40.79 214.27 44.43 C 212.66 44.40 211.05 44.34 209.45 44.30 C 206.82 47.16 203.23 50.95 198.94 49.15 C 194.96 47.97 193.63 43.76 192.65 40.19 C 190.96 40.64 189.27 41.11 187.57 41.51 M 197.71 38.26 C 197.45 39.80 197.06 41.34 197.10 42.92 C 197.30 45.99 200.99 47.98 203.75 46.81 C 206.03 46.20 207.32 44.08 208.43 42.18 C 206.86 42.72 205.35 43.38 203.82 44.02 C 203.37 42.54 203.03 41.02 202.43 39.59 C 200.89 39.02 199.29 38.67 197.71 38.26 Z" />
<path fill="#393533" opacity="1.00" d=" M 45.98 44.13 C 49.99 45.05 53.94 46.23 57.96 47.11 C 63.74 48.37 69.69 48.21 75.57 48.30 C 75.67 49.09 75.85 50.66 75.94 51.45 C 65.58 51.58 55.02 49.30 45.98 44.13 Z" />
<path fill="#393533" opacity="1.00" d=" M 343.93 46.94 C 347.64 46.06 351.32 44.99 355.06 44.22 C 346.07 49.38 335.47 51.58 325.16 51.41 C 325.24 50.64 325.41 49.11 325.50 48.34 C 331.65 48.16 337.90 48.42 343.93 46.94 Z" />
<path fill="#393533" opacity="1.00" d=" M 43.80 81.49 C 50.48 82.56 57.18 84.02 63.99 83.59 C 67.07 83.65 70.23 82.86 73.26 83.57 C 73.54 84.21 74.09 85.48 74.36 86.12 C 64.04 87.07 53.17 86.23 43.80 81.49 Z" />
<path fill="#393533" opacity="1.00" d=" M 327.45 83.24 C 337.42 84.00 347.43 83.66 357.22 81.50 C 348.02 86.28 337.33 86.94 327.17 86.23 C 327.24 85.49 327.38 83.99 327.45 83.24 Z" />
<path fill="#393533" opacity="1.00" d=" M 47.83 118.43 C 54.91 118.32 61.92 119.84 69.01 119.35 C 73.44 119.06 77.83 118.24 82.28 118.15 C 81.73 119.46 81.82 121.82 79.79 121.48 C 69.08 122.28 58.09 121.90 47.83 118.43 Z" />
<path fill="#393533" opacity="1.00" d=" M 319.93 117.88 C 324.93 118.62 329.94 119.43 335.01 119.44 C 341.07 119.59 347.07 118.43 353.13 118.40 C 342.22 122.24 330.33 122.50 318.96 121.02 C 319.29 119.98 319.61 118.93 319.93 117.88 Z" />
<path fill="#393533" opacity="1.00" d=" M 53.83 156.91 C 67.66 155.85 81.13 152.07 93.99 146.98 C 94.39 147.97 94.81 148.96 95.22 149.95 C 86.43 153.27 77.18 155.25 67.93 156.80 C 63.28 157.66 58.50 157.59 53.83 156.91 Z" />
<path fill="#393533" opacity="1.00" d=" M 306.59 147.10 C 311.85 148.37 316.77 150.68 321.97 152.13 C 330.49 154.55 339.22 156.47 348.10 156.81 C 338.87 158.54 329.60 156.31 320.63 154.29 C 315.68 153.18 310.81 151.78 306.06 150.04 C 306.19 149.30 306.46 147.84 306.59 147.10 Z" />
<path fill="#393533" opacity="1.00" d=" M 101.51 176.60 C 105.33 174.43 108.94 171.90 112.84 169.87 C 113.19 170.82 113.54 171.78 113.88 172.74 C 106.19 177.84 97.77 181.69 89.31 185.30 C 78.33 189.83 66.94 193.99 54.98 194.65 C 71.20 190.71 86.86 184.59 101.51 176.60 Z" />
<path fill="#393533" opacity="1.00" d=" M 288.03 169.86 C 292.09 171.70 295.72 174.31 299.58 176.53 C 314.19 184.60 329.87 190.60 346.04 194.66 C 334.86 194.00 324.17 190.27 313.87 186.11 C 304.81 182.40 295.88 178.26 287.59 173.02 C 287.70 172.23 287.92 170.65 288.03 169.86 Z" />
<path fill="#393533" opacity="1.00" d=" M 123.56 196.55 C 127.82 193.48 131.25 189.32 135.94 186.83 C 136.05 187.61 136.26 189.16 136.37 189.94 C 130.27 195.42 123.48 200.04 116.75 204.71 C 105.06 212.56 93.17 220.18 80.60 226.57 C 76.26 228.80 71.74 230.71 67.02 232.01 C 86.87 221.90 105.76 209.95 123.56 196.55 Z" />
<path fill="#393533" opacity="1.00" d=" M 266.19 186.88 C 280.93 200.24 297.75 211.03 314.69 221.36 C 320.93 225.25 327.62 228.32 333.98 232.00 C 330.23 230.93 326.58 229.53 323.08 227.81 C 308.49 220.63 294.80 211.77 281.40 202.60 C 275.54 198.38 269.37 194.48 264.39 189.20 C 264.84 188.62 265.74 187.46 266.19 186.88 Z" />
<path fill="#393533" opacity="1.00" d=" M 149.05 213.04 C 152.85 209.16 155.99 204.69 159.77 200.79 C 160.22 201.38 161.12 202.54 161.57 203.12 C 152.55 214.52 141.45 224.04 130.55 233.57 C 123.07 239.59 115.84 246.34 106.91 250.16 C 110.84 246.63 115.26 243.70 119.35 240.36 C 129.80 231.87 139.71 222.73 149.05 213.04 Z" />
<path fill="#393533" opacity="1.00" d=" M 239.49 201.72 C 240.57 201.91 242.08 201.17 242.91 202.12 C 257.39 220.64 275.79 235.60 294.11 250.13 C 290.68 248.66 287.48 246.71 284.48 244.50 C 271.90 235.26 260.26 224.80 249.16 213.84 C 245.58 210.11 241.51 206.60 239.49 201.72 Z" />
</g>
<g id="#fff112ff">
<path fill="#fff112" opacity="1.00" d=" M 2.25 1.33 C 134.23 1.37 266.21 1.34 398.18 1.35 C 398.49 73.56 398.45 145.78 398.62 218.00 C 398.53 235.33 399.29 252.73 396.94 269.96 C 392.25 309.85 376.41 348.22 352.22 380.23 C 330.17 409.54 301.64 433.83 269.56 451.54 C 250.66 461.87 230.45 470.07 209.28 474.33 C 205.51 475.00 201.63 476.13 197.80 475.26 C 171.27 469.59 145.85 459.19 122.48 445.49 C 92.16 427.70 65.16 403.95 44.74 375.26 C 16.19 335.66 1.93 286.64 2.26 238.00 C 2.25 159.11 2.27 80.22 2.25 1.33 M 5.31 4.22 C 5.35 82.81 5.29 161.41 5.34 240.00 C 5.49 286.39 19.18 332.98 46.03 370.99 C 66.33 400.08 93.48 424.10 124.03 441.99 C 146.75 455.24 171.39 465.35 197.13 470.94 C 199.08 471.39 201.11 471.58 203.10 471.26 C 219.05 468.76 234.52 463.74 249.30 457.30 C 279.27 444.07 306.59 424.90 329.47 401.47 C 358.81 371.53 380.43 333.78 389.85 292.82 C 394.39 273.58 396.17 253.75 395.75 234.00 C 395.58 157.40 395.54 80.80 395.32 4.20 C 265.31 4.21 135.31 4.19 5.31 4.22 Z" />
<path fill="#fff112" opacity="1.00" d=" M 163.35 35.33 C 168.44 32.99 174.21 33.61 179.60 34.24 C 182.59 45.52 194.99 50.60 198.35 61.62 C 200.58 69.22 201.12 77.57 198.36 85.12 C 194.36 82.54 189.88 80.40 185.02 80.39 C 179.40 80.00 174.16 82.29 169.09 84.36 C 171.58 79.74 175.86 75.99 181.07 74.88 C 186.84 73.48 192.61 75.42 198.15 76.89 C 198.35 71.27 197.71 65.29 194.36 60.58 C 192.28 57.68 188.97 55.10 185.22 55.46 C 182.95 55.70 181.44 57.61 179.80 58.97 C 177.21 56.48 174.16 53.49 170.22 54.25 C 165.40 54.74 163.15 59.50 161.17 63.28 C 158.71 59.53 156.30 55.54 155.81 50.99 C 154.90 44.94 157.65 38.05 163.35 35.33 Z" />
<path fill="#fff112" opacity="1.00" d=" M 45.07 274.08 C 48.41 269.87 54.86 268.86 59.40 271.63 C 60.42 275.23 58.35 279.33 55.94 282.03 C 53.42 284.85 49.14 282.12 46.32 284.28 C 44.18 286.09 43.08 288.77 41.50 291.03 C 40.58 285.22 40.96 278.67 45.07 274.08 Z" />
<path fill="#fff112" opacity="1.00" d=" M 62.49 270.47 C 64.56 268.53 67.84 269.57 69.05 271.93 C 70.80 275.08 72.11 278.63 75.05 280.93 C 82.65 287.27 91.51 291.85 99.78 297.24 C 102.57 298.86 106.60 301.13 109.48 298.50 C 115.32 293.02 120.88 287.24 126.60 281.63 C 130.41 277.21 136.90 278.25 141.81 275.77 C 140.73 279.23 140.90 283.41 138.05 286.04 C 130.73 293.67 123.59 301.51 117.22 309.96 C 122.90 313.82 127.71 318.86 133.71 322.24 C 137.02 324.17 140.91 324.32 144.63 324.67 C 146.83 324.52 147.31 327.01 148.15 328.52 C 144.89 331.02 141.07 333.36 139.50 337.36 C 138.72 339.38 138.54 341.57 137.75 343.59 C 135.96 344.95 133.61 344.61 131.51 344.65 C 130.70 341.14 131.11 337.39 129.92 334.00 C 124.85 328.18 117.52 325.05 110.80 321.55 C 108.50 326.03 106.23 330.53 104.28 335.17 C 102.80 338.75 101.58 342.71 102.44 346.61 C 103.38 349.78 106.22 351.95 107.27 355.08 C 108.08 357.37 106.19 359.19 105.01 360.91 C 102.17 359.23 99.46 356.99 96.06 356.63 C 92.29 356.08 88.58 357.11 84.94 357.96 C 84.06 355.55 82.43 352.75 84.02 350.27 C 85.90 347.45 88.68 345.38 90.61 342.59 C 92.97 339.45 93.69 335.52 94.96 331.89 C 96.70 326.37 99.14 321.08 100.58 315.46 C 93.37 318.35 85.75 320.73 79.56 325.61 C 76.08 328.09 75.78 333.30 71.84 335.31 C 69.61 336.31 67.44 334.57 65.38 333.89 C 65.71 330.72 66.17 327.32 64.57 324.40 C 63.33 321.50 60.62 319.59 59.21 316.84 C 59.71 313.49 62.60 310.82 66.02 310.74 C 69.65 310.31 72.49 313.26 75.89 313.73 C 81.34 312.26 85.95 308.75 91.01 306.34 C 86.06 302.50 81.06 298.73 76.15 294.85 C 73.63 293.05 71.19 290.84 68.10 290.11 C 64.67 291.18 61.87 294.28 58.05 293.92 C 54.84 294.14 52.53 291.04 52.56 288.06 C 52.14 285.50 55.24 285.02 56.66 283.56 C 60.91 280.52 60.72 274.87 62.49 270.47 Z" />
<path fill="#fff112" opacity="1.00" d=" M 334.28 269.93 C 335.90 268.87 337.71 270.08 339.34 270.47 C 339.96 274.22 340.39 278.21 342.61 281.43 C 344.13 283.75 346.71 284.98 348.97 286.45 C 348.60 289.08 348.33 292.43 345.43 293.54 C 341.43 295.06 337.85 292.30 334.46 290.60 C 332.58 289.35 330.68 291.22 329.06 292.06 C 322.65 296.54 316.75 301.69 310.34 306.17 C 315.43 308.85 320.23 312.50 325.91 313.77 C 328.66 312.91 331.08 311.04 334.02 310.75 C 337.21 310.38 340.69 312.21 341.67 315.37 C 342.93 317.92 339.67 319.58 338.56 321.55 C 335.47 324.94 335.30 329.69 335.83 334.00 C 333.73 334.64 331.42 336.42 329.22 335.17 C 325.50 332.93 325.09 327.90 321.57 325.47 C 315.45 320.67 307.92 318.31 300.78 315.49 C 302.88 323.06 306.14 330.24 308.28 337.80 C 309.68 342.84 314.14 345.94 317.11 349.96 C 318.90 352.50 317.40 355.55 316.24 357.99 C 312.02 356.85 307.50 355.77 303.18 357.07 C 300.76 357.75 298.87 359.47 296.90 360.94 C 294.84 359.42 293.23 357.02 294.33 354.40 C 296.09 350.67 300.02 347.58 299.23 343.00 C 298.20 335.29 293.76 328.66 290.76 321.63 C 284.31 324.53 277.88 327.79 272.60 332.57 C 269.52 335.27 271.17 339.75 270.18 343.27 C 268.86 345.70 265.33 344.89 263.55 343.46 C 262.60 340.73 262.43 337.68 260.74 335.24 C 258.93 332.41 255.98 330.65 253.30 328.76 C 253.98 327.22 254.29 324.72 256.45 324.69 C 260.15 324.31 264.05 324.27 267.38 322.36 C 273.52 319.03 278.36 313.83 284.15 309.98 C 277.72 301.47 270.54 293.56 263.12 285.90 C 260.36 283.31 260.54 279.25 259.56 275.85 C 264.40 278.19 270.81 277.10 274.52 281.46 C 279.68 286.64 284.90 291.76 290.08 296.93 C 291.49 298.19 292.98 299.92 295.09 299.70 C 298.36 299.48 301.10 297.46 303.83 295.85 C 309.73 292.06 315.81 288.57 321.59 284.59 C 325.00 282.11 328.62 279.45 330.42 275.50 C 331.51 273.54 332.20 271.09 334.28 269.93 Z" />
<path fill="#fff112" opacity="1.00" d=" M 341.27 271.76 C 345.23 269.90 350.28 269.17 353.98 272.03 C 359.97 276.35 361.17 284.49 359.97 291.33 C 358.33 288.90 357.22 286.00 354.88 284.13 C 352.47 282.64 349.47 283.91 346.88 283.11 C 342.96 280.76 341.95 275.93 341.27 271.76 Z" />
<path fill="#fff112" opacity="1.00" d=" M 51.42 328.97 C 51.68 324.68 54.98 321.63 58.20 319.24 C 61.54 322.09 64.66 326.15 64.01 330.82 C 62.99 333.08 60.97 334.81 60.29 337.23 C 59.77 340.55 61.80 343.48 62.88 346.47 C 56.13 343.52 50.47 336.68 51.42 328.97 Z" />
<path fill="#fff112" opacity="1.00" d=" M 337.32 330.71 C 336.71 326.10 339.88 322.23 342.95 319.22 C 346.28 321.56 349.73 324.69 349.86 329.08 C 350.82 336.66 345.33 343.49 338.62 346.32 C 339.58 343.59 341.13 340.96 341.23 338.01 C 340.85 335.17 338.35 333.28 337.32 330.71 Z" />
<path fill="#fff112" opacity="1.00" d=" M 140.26 340.98 C 140.61 336.47 144.37 333.30 147.95 331.08 C 150.45 333.85 153.11 337.04 152.88 341.03 C 153.16 349.00 146.14 355.32 138.74 356.79 C 140.14 354.23 142.28 351.91 142.71 348.93 C 142.83 346.05 140.62 343.75 140.26 340.98 Z" />
<path fill="#fff112" opacity="1.00" d=" M 248.65 343.96 C 247.60 339.32 249.55 333.50 254.00 331.44 C 257.45 333.53 260.58 336.84 261.15 340.98 C 260.60 343.75 258.55 346.12 258.59 349.00 C 259.18 351.89 261.15 354.22 262.51 356.78 C 256.06 355.34 250.05 350.64 248.65 343.96 Z" />
<path fill="#fff112" opacity="1.00" d=" M 300.27 360.39 C 304.59 357.42 310.15 358.22 314.93 359.45 C 314.49 365.19 312.59 371.25 307.94 374.97 C 305.20 377.30 301.57 377.95 298.15 378.57 C 299.22 375.76 300.56 373.00 300.93 369.99 C 301.36 366.76 299.95 363.61 300.27 360.39 Z" />
<path fill="#fff112" opacity="1.00" d=" M 86.15 359.75 C 91.23 357.87 97.14 357.61 101.75 360.84 C 101.03 363.48 100.13 366.16 100.31 368.95 C 100.46 372.32 101.98 375.40 103.07 378.54 C 99.35 377.95 95.45 377.05 92.67 374.34 C 88.51 370.63 87.15 365.00 86.15 359.75 Z" />
</g>
<g id="#fefefeff">
<path fill="#fefefe" opacity="1.00" d=" M 7.09 5.86 C 135.93 5.90 264.76 5.80 393.59 5.91 C 393.72 75.61 393.86 145.30 393.93 215.00 C 394.16 234.33 394.63 253.78 391.77 272.96 C 385.58 318.26 364.53 361.05 333.58 394.55 C 310.52 419.69 282.43 440.25 251.39 454.42 C 235.35 461.61 218.48 467.41 200.99 469.64 C 188.01 467.67 175.43 463.43 163.13 458.88 C 130.30 446.16 99.90 426.94 74.78 402.22 C 51.36 379.26 32.86 351.24 21.49 320.46 C 11.50 293.52 6.85 264.70 7.08 236.00 C 7.10 159.29 7.06 82.57 7.09 5.86 M 11.61 9.91 C 11.55 84.94 11.61 159.97 11.58 235.00 C 11.52 249.44 12.65 263.89 15.07 278.13 C 20.48 310.34 33.10 341.35 52.05 367.97 C 73.30 397.94 101.96 422.35 134.18 439.84 C 154.85 450.93 176.99 459.74 200.10 464.07 C 218.26 462.19 235.71 455.77 252.25 448.25 C 299.45 425.92 339.92 388.66 364.31 342.32 C 380.40 311.82 388.85 277.44 389.30 242.99 C 389.28 165.30 389.01 87.61 388.81 9.91 C 263.08 9.88 137.34 9.90 11.61 9.91 Z" />
<path fill="#fefefe" opacity="1.00" d=" M 16.05 14.18 C 138.99 14.16 261.92 14.18 384.86 14.17 C 385.08 90.11 385.27 166.05 385.34 241.99 C 385.01 274.47 377.52 306.93 363.03 336.03 C 344.16 374.21 314.03 406.38 278.25 429.29 C 255.96 443.47 231.33 454.56 205.20 459.22 C 202.43 459.80 199.56 459.87 196.81 459.12 C 166.33 452.30 137.47 438.91 111.89 421.08 C 79.36 398.36 52.29 367.40 35.87 331.15 C 22.20 301.43 16.01 268.62 15.95 236.00 C 15.86 165.33 15.94 94.67 15.91 24.00 C 15.90 20.73 15.90 17.46 16.05 14.18 M 28.24 25.80 C 28.50 35.28 31.03 45.25 37.66 52.33 C 43.64 58.68 52.23 61.64 60.60 63.21 C 75.71 66.07 91.18 65.41 106.40 67.10 C 92.04 69.19 77.50 70.16 62.99 70.50 C 51.37 70.57 39.32 70.31 28.50 65.54 C 28.53 74.30 30.45 83.74 36.77 90.22 C 42.68 96.35 51.32 98.70 59.54 99.64 C 75.39 101.36 91.30 99.17 107.05 97.41 C 81.96 106.17 54.71 111.23 28.26 106.33 C 29.44 114.59 33.84 122.47 40.81 127.19 C 50.14 133.59 61.92 134.90 72.96 134.39 C 85.37 133.90 97.38 130.55 109.22 127.06 C 103.10 130.71 96.43 133.31 89.78 135.81 C 70.43 142.71 49.38 146.37 28.97 142.58 C 29.84 150.51 32.72 158.71 39.05 163.92 C 46.20 169.87 56.02 171.04 64.99 170.38 C 82.66 169.02 99.13 161.89 115.23 155.04 C 110.62 158.30 105.59 160.91 100.66 163.66 C 84.42 172.34 67.25 179.85 48.99 182.97 C 42.92 184.10 36.72 183.93 30.58 183.79 C 33.08 191.27 37.77 198.41 44.92 202.14 C 53.82 206.92 64.49 206.23 74.02 203.98 C 87.62 200.87 99.89 194.03 112.22 187.80 C 99.61 197.24 86.34 205.85 72.74 213.81 C 61.55 220.06 49.92 226.37 37.00 227.97 C 42.92 236.44 52.55 242.44 62.97 243.03 C 74.11 243.66 84.86 239.54 94.61 234.54 C 110.31 226.25 124.38 215.28 138.05 204.04 C 141.50 201.29 144.63 198.13 148.32 195.67 C 141.32 204.16 133.20 211.65 125.45 219.45 C 109.98 234.06 93.61 248.94 73.09 255.91 C 79.49 261.91 88.20 265.68 97.06 265.11 C 107.25 264.44 116.54 259.48 124.80 253.79 C 137.22 245.11 148.08 234.45 158.79 223.79 C 162.09 220.62 164.91 216.88 168.80 214.38 C 168.22 216.41 167.19 218.26 165.94 219.95 C 159.14 229.39 152.48 238.99 144.67 247.65 C 136.43 257.07 126.23 265.28 113.90 268.48 C 116.95 273.42 121.62 277.27 127.33 278.67 C 120.73 285.01 114.54 291.81 107.63 297.80 C 103.71 298.50 100.49 295.51 97.30 293.73 C 89.87 288.85 81.80 284.81 75.20 278.78 C 71.69 275.97 71.84 270.33 67.56 268.31 C 65.01 266.65 62.55 268.99 60.12 269.68 C 57.49 269.09 54.89 267.89 52.13 268.32 C 47.39 268.80 43.55 272.34 41.46 276.45 C 38.44 282.35 38.71 289.53 41.26 295.55 C 41.56 295.57 42.18 295.61 42.48 295.63 C 44.02 291.30 44.94 284.99 50.69 284.62 C 50.96 288.35 50.99 293.22 55.01 294.99 C 59.68 297.25 64.34 294.05 68.17 291.61 C 75.32 295.59 81.25 301.31 87.90 306.03 C 83.91 308.03 80.22 310.75 75.90 312.00 C 71.95 310.57 67.90 307.91 63.52 309.51 C 59.78 310.41 58.34 314.18 57.25 317.43 C 54.75 320.23 51.17 322.38 50.26 326.31 C 47.08 336.99 56.42 348.17 67.05 349.11 C 65.40 345.70 62.52 342.84 61.86 339.00 C 61.95 337.43 62.59 335.97 63.02 334.49 C 66.02 335.77 69.29 338.45 72.67 336.78 C 76.14 335.13 77.14 331.12 79.23 328.22 C 84.41 323.18 91.46 320.94 98.03 318.34 C 96.02 324.21 93.68 329.97 91.95 335.94 C 91.19 338.81 89.74 341.48 87.66 343.62 C 85.43 346.20 82.19 348.41 81.74 352.06 C 81.17 355.76 84.47 358.44 84.93 361.95 C 85.84 367.41 87.99 373.00 92.52 376.48 C 96.30 379.60 101.37 380.36 106.13 380.15 C 103.25 374.91 100.74 369.00 102.74 362.97 C 105.54 361.99 109.07 360.50 108.99 356.96 C 109.72 351.75 103.47 349.09 103.75 344.02 C 104.21 336.66 108.59 330.40 111.41 323.79 C 117.41 326.77 123.62 329.78 128.38 334.60 C 130.04 337.91 127.96 342.42 130.66 345.37 C 133.49 347.89 137.16 345.63 140.10 344.58 C 140.50 346.51 141.48 348.60 140.57 350.55 C 139.08 353.74 136.09 355.82 133.89 358.48 C 144.01 360.07 154.77 351.46 154.67 341.05 C 154.75 337.40 152.88 334.14 150.58 331.46 C 148.39 329.18 149.94 324.76 146.58 323.35 C 143.26 322.37 139.61 323.09 136.40 321.61 C 129.94 318.91 125.28 313.43 119.51 309.63 C 125.86 301.52 132.74 293.84 139.96 286.50 C 140.98 293.51 145.54 299.92 152.26 302.45 C 155.48 283.56 166.34 267.12 177.90 252.27 C 179.06 257.00 179.51 261.85 179.61 266.71 C 180.94 266.05 182.26 265.38 183.59 264.71 C 181.55 274.77 184.87 284.96 183.02 295.00 C 182.25 299.84 179.26 303.82 177.29 308.19 C 181.69 307.19 185.57 304.82 189.18 302.22 C 187.50 306.59 186.22 311.41 182.85 314.85 C 179.61 318.14 173.87 318.80 170.28 315.72 C 167.43 313.59 167.13 309.80 165.95 306.72 C 164.23 313.00 164.41 319.75 165.81 326.08 C 167.02 331.55 172.21 336.21 178.02 335.44 C 182.73 335.12 185.98 331.43 188.70 327.98 C 187.65 336.84 186.46 345.80 183.17 354.15 C 180.25 361.79 175.08 369.26 167.17 372.27 C 159.76 375.32 151.64 372.77 143.96 374.23 C 138.09 374.90 132.42 378.32 129.80 383.73 C 125.40 392.23 128.24 403.50 135.82 409.21 C 142.40 414.59 152.46 413.12 158.27 419.74 C 161.26 422.98 159.29 427.49 158.77 431.25 C 162.23 428.49 165.02 424.58 165.29 420.04 C 165.76 414.65 163.07 409.79 161.05 404.99 C 159.55 401.63 160.35 397.52 162.94 394.93 C 168.01 389.52 175.71 388.00 181.32 383.32 C 186.64 379.43 189.77 373.50 192.57 367.71 C 192.35 381.04 191.14 394.67 186.19 407.17 C 184.23 412.57 179.21 416.38 178.11 422.15 C 176.87 427.29 179.12 432.63 182.63 436.37 C 185.35 439.45 189.04 441.37 192.38 443.67 C 196.20 446.33 198.21 450.65 200.74 454.41 C 203.40 450.03 205.95 445.21 210.59 442.61 C 216.13 439.38 221.66 434.87 223.22 428.36 C 224.47 423.43 222.55 418.34 219.52 414.46 C 214.63 408.30 212.63 400.49 211.13 392.92 C 209.65 384.83 208.78 376.60 208.93 368.37 C 211.81 373.80 214.75 379.48 219.83 383.20 C 225.58 388.08 233.63 389.55 238.69 395.32 C 241.19 397.95 241.53 402.01 240.14 405.27 C 238.28 409.65 235.85 414.04 236.05 418.96 C 235.92 423.85 238.69 428.42 242.58 431.23 C 242.20 427.54 240.05 423.19 242.95 419.96 C 248.79 412.98 259.33 414.72 265.95 408.93 C 272.71 403.52 275.49 393.68 272.41 385.57 C 270.66 380.79 266.71 376.87 261.87 375.25 C 255.45 373.04 248.58 373.87 241.92 373.79 C 234.04 373.66 226.68 369.05 222.50 362.46 C 215.99 352.43 214.01 340.28 212.88 328.60 C 215.59 331.65 218.66 335.01 223.00 335.43 C 228.47 336.32 233.69 332.30 235.24 327.18 C 237.17 320.55 236.90 313.40 235.65 306.66 C 234.45 309.17 233.99 312.04 232.37 314.36 C 229.53 318.08 223.76 318.69 220.01 315.99 C 215.67 312.96 214.20 307.55 212.51 302.82 C 216.14 305.05 219.89 307.25 224.12 308.13 C 221.98 303.64 219.10 299.37 218.47 294.31 C 217.17 284.54 219.53 274.66 217.91 264.89 C 219.20 265.42 220.49 265.96 221.79 266.48 C 221.96 261.85 222.42 257.21 223.88 252.78 C 235.19 267.59 245.90 283.84 249.08 302.56 C 255.74 299.74 260.31 293.48 261.40 286.38 C 268.52 293.84 275.46 301.49 281.83 309.60 C 276.22 313.36 271.62 318.61 265.40 321.43 C 262.21 322.99 258.57 322.48 255.19 323.19 C 252.08 324.19 252.33 327.89 251.48 330.42 C 249.11 333.52 246.49 336.86 246.68 341.00 C 246.53 351.54 257.29 359.81 267.42 358.67 C 265.26 355.80 262.13 353.64 260.67 350.28 C 259.74 348.39 260.82 346.43 261.44 344.64 C 264.22 345.62 267.65 347.79 270.41 345.58 C 274.09 342.40 270.21 336.19 274.31 333.30 C 278.92 329.23 284.48 326.48 289.95 323.78 C 292.26 328.92 295.09 333.85 296.80 339.24 C 297.79 342.39 298.22 346.24 295.89 348.93 C 293.55 351.70 291.15 355.44 292.90 359.15 C 294.01 362.09 298.76 361.64 299.04 365.06 C 300.47 370.46 297.43 375.44 295.27 380.15 C 299.46 380.27 303.87 379.82 307.45 377.45 C 312.45 374.34 315.21 368.67 316.19 363.01 C 316.55 358.70 320.88 355.22 319.30 350.70 C 317.28 345.78 311.67 343.27 310.09 338.02 C 308.03 331.37 305.68 324.82 303.27 318.30 C 309.79 320.89 316.70 323.18 321.99 327.99 C 324.23 331.08 325.27 335.56 329.22 337.02 C 332.45 338.17 335.37 335.78 338.12 334.45 C 341.73 339.73 336.59 344.59 334.37 349.14 C 343.72 348.09 352.02 339.65 351.71 330.03 C 351.70 325.67 349.28 321.71 345.84 319.16 C 342.70 317.01 343.33 312.05 339.67 310.34 C 335.21 307.58 330.05 309.82 325.88 311.97 C 321.33 311.08 317.57 308.03 313.46 306.03 C 320.03 301.27 326.03 295.70 333.06 291.60 C 336.93 293.95 341.48 297.20 346.17 295.06 C 350.32 293.42 350.44 288.41 350.50 284.64 C 356.69 284.94 357.40 291.93 359.25 296.43 C 364.30 288.27 362.64 276.02 354.64 270.34 C 350.62 267.42 345.33 267.95 341.02 269.87 C 338.96 268.82 336.67 266.85 334.25 268.10 C 329.51 269.94 329.70 276.04 325.98 278.96 C 318.53 285.50 309.58 289.97 301.34 295.40 C 298.76 296.90 294.91 299.50 292.31 296.70 C 286.14 290.71 280.07 284.61 273.90 278.62 C 279.61 277.23 284.38 273.43 287.35 268.41 C 280.93 266.49 274.68 263.82 269.40 259.63 C 256.74 249.87 247.41 236.67 238.15 223.83 C 236.11 220.80 233.46 218.04 232.54 214.41 C 233.91 215.37 235.23 216.42 236.42 217.61 C 246.96 228.41 257.60 239.19 269.42 248.61 C 278.75 255.88 289.04 262.85 300.95 264.76 C 310.79 266.49 320.96 262.67 328.12 255.91 C 322.49 253.70 316.82 251.54 311.66 248.35 C 295.16 238.40 281.20 224.90 267.60 211.40 C 262.63 206.16 257.27 201.26 252.78 195.60 C 256.65 198.17 259.94 201.49 263.57 204.39 C 277.08 215.46 290.97 226.28 306.46 234.47 C 316.45 239.61 327.52 243.87 338.95 242.97 C 349.13 242.20 358.39 236.20 364.23 227.98 C 352.70 226.56 342.16 221.34 332.09 215.85 C 316.76 207.20 301.97 197.54 287.88 186.99 C 300.61 193.90 313.56 200.89 327.81 204.12 C 336.90 206.20 346.95 206.78 355.54 202.53 C 363.03 198.88 368.09 191.57 370.58 183.79 C 360.70 184.38 350.78 183.31 341.27 180.58 C 321.58 175.07 303.05 165.89 285.82 155.00 C 302.24 161.93 319.01 169.27 337.04 170.43 C 345.93 170.98 355.65 169.64 362.56 163.55 C 368.65 158.33 371.36 150.31 372.25 142.56 C 356.26 145.58 339.76 143.93 324.14 139.78 C 312.95 136.72 301.95 132.70 291.83 127.01 C 305.82 131.21 320.22 135.00 334.97 134.45 C 345.37 134.13 356.43 131.57 364.11 124.10 C 369.07 119.46 371.84 112.96 373.01 106.36 C 346.47 111.22 319.19 106.14 294.01 97.39 C 309.88 99.18 325.93 101.39 341.91 99.61 C 350.23 98.65 358.97 96.15 364.83 89.83 C 370.84 83.36 372.59 74.20 372.74 65.64 C 359.24 71.21 344.34 70.69 330.03 70.28 C 317.93 69.63 305.84 68.74 293.84 67.07 C 309.59 65.54 325.55 66.05 341.15 63.11 C 349.28 61.51 357.60 58.58 363.44 52.45 C 370.14 45.37 372.66 35.36 372.99 25.85 C 368.74 29.11 363.88 31.52 358.58 32.43 C 347.15 34.78 335.42 35.09 323.80 35.42 C 323.72 33.50 323.65 31.58 323.53 29.67 C 320.98 31.93 318.08 33.94 314.60 34.35 C 300.87 36.64 286.87 34.65 273.07 36.01 C 266.85 36.67 260.51 39.68 257.25 45.22 C 254.83 49.14 254.85 54.56 257.86 58.17 C 260.68 61.85 265.32 63.18 269.61 64.31 C 270.26 80.34 270.73 97.43 263.04 112.04 C 258.85 120.24 250.92 125.99 242.12 128.37 C 240.68 124.81 239.13 121.28 237.21 117.95 C 242.36 114.12 242.88 107.01 240.39 101.48 C 238.89 102.54 237.44 103.65 235.93 104.67 C 230.82 102.05 228.87 96.38 227.54 91.19 C 230.62 92.01 234.24 93.25 237.06 91.03 C 240.58 88.64 240.79 84.04 240.54 80.20 C 239.03 80.82 237.59 81.66 235.98 81.96 C 231.05 80.32 229.34 74.76 227.29 70.52 C 229.93 70.10 233.18 70.30 234.97 67.91 C 237.05 65.45 236.81 62.05 237.02 59.04 C 235.46 59.25 233.91 59.74 232.33 59.65 C 228.03 56.64 225.77 51.68 222.92 47.42 C 225.90 46.15 229.09 44.75 230.84 41.86 C 233.18 38.56 233.15 34.35 232.83 30.49 C 230.60 32.05 228.62 34.25 225.84 34.77 C 219.34 36.13 212.83 33.72 207.06 30.91 C 200.27 27.87 192.17 26.02 185.03 28.94 C 182.54 29.79 180.89 32.81 178.05 32.34 C 172.94 32.04 167.50 31.49 162.73 33.76 C 156.71 36.50 153.62 43.53 154.09 49.90 C 154.45 56.40 157.98 62.23 162.32 66.89 C 163.63 62.60 164.94 56.87 170.17 55.96 C 175.04 55.01 178.11 59.71 180.11 63.36 C 173.56 63.60 168.25 68.03 161.92 68.95 C 158.19 69.74 157.41 65.46 156.08 63.04 C 154.43 65.97 152.66 69.42 153.85 72.86 C 155.03 76.57 159.31 78.01 162.87 77.61 C 169.98 77.19 175.26 71.38 182.25 70.48 C 186.61 69.63 191.09 71.02 194.53 73.74 C 190.09 73.27 185.60 72.10 181.15 73.11 C 172.71 74.76 166.66 82.51 164.74 90.55 C 168.07 88.32 170.88 85.23 174.75 83.88 C 182.24 80.88 191.43 81.57 197.68 86.97 C 195.06 91.76 191.18 96.32 185.70 97.77 C 181.85 98.73 177.54 100.00 173.72 98.30 C 171.06 96.79 172.59 93.15 172.22 90.70 C 167.31 93.87 162.64 98.80 162.66 105.01 C 162.53 108.31 164.66 111.00 166.81 113.26 C 163.43 117.86 161.21 123.14 159.39 128.52 C 150.71 126.10 142.72 120.67 138.46 112.57 C 130.52 97.89 130.83 80.55 131.59 64.35 C 135.82 63.14 140.47 61.90 143.30 58.25 C 146.36 54.59 146.39 49.05 143.88 45.08 C 140.56 39.56 134.18 36.62 127.94 35.99 C 114.18 34.67 100.23 36.64 86.54 34.34 C 83.12 33.92 80.24 31.97 77.72 29.73 C 77.54 31.64 77.46 33.55 77.34 35.46 C 64.60 34.95 51.66 34.84 39.24 31.59 C 35.13 30.63 31.60 28.26 28.24 25.80 Z" />
<path fill="#fefefe" opacity="1.00" d=" M 197.71 38.26 C 199.29 38.67 200.89 39.02 202.43 39.59 C 203.03 41.02 203.37 42.54 203.82 44.02 C 205.35 43.38 206.86 42.72 208.43 42.18 C 207.32 44.08 206.03 46.20 203.75 46.81 C 200.99 47.98 197.30 45.99 197.10 42.92 C 197.06 41.34 197.45 39.80 197.71 38.26 Z" />
<path fill="#fefefe" opacity="1.00" d=" M 180.11 63.41 C 181.35 60.87 182.38 56.83 186.00 57.15 C 192.04 57.64 195.02 64.00 196.28 69.19 C 191.54 65.78 186.05 63.37 180.11 63.41 Z" />
</g>
<g id="#ef494dff">
<path fill="#ef494d" opacity="1.00" d=" M 181.15 33.80 C 185.66 28.84 192.91 28.56 199.02 29.97 C 205.96 31.47 211.91 36.10 219.10 36.67 C 223.35 37.24 227.51 36.06 231.59 35.03 C 230.79 37.55 230.33 40.41 228.34 42.33 C 226.09 44.43 223.01 45.19 220.22 46.27 C 224.25 52.73 227.89 60.35 235.62 63.04 C 234.51 64.77 234.01 67.31 231.85 68.05 C 229.62 68.51 227.32 68.27 225.06 68.31 C 226.53 72.96 228.16 77.81 231.69 81.35 C 233.52 83.31 236.36 83.50 238.79 84.20 C 238.28 86.33 237.88 88.91 235.65 89.93 C 232.30 91.64 228.85 89.07 225.69 88.06 C 226.30 94.00 227.87 100.35 232.50 104.48 C 234.59 106.43 237.64 105.38 240.18 105.35 C 240.41 109.46 240.03 114.97 235.40 116.50 C 229.00 118.34 224.07 112.90 219.66 109.20 C 218.15 113.69 215.90 118.00 211.99 120.86 C 209.37 119.26 206.66 117.59 204.91 114.99 C 202.41 111.71 201.92 107.51 200.94 103.63 C 199.22 107.39 198.78 111.79 196.01 115.01 C 194.13 117.39 191.54 119.02 189.07 120.69 C 185.08 118.09 182.83 113.88 181.64 109.39 C 178.07 111.38 173.99 113.75 169.78 112.39 C 165.99 111.46 163.77 107.24 164.43 103.53 C 164.78 100.09 167.18 97.45 169.32 94.94 C 170.95 97.04 172.07 100.44 175.20 100.58 C 182.73 101.39 191.08 99.05 195.84 92.85 C 202.85 84.00 203.24 71.48 199.96 61.07 C 196.74 49.96 184.47 44.89 181.15 33.80 M 187.57 41.51 C 189.27 41.11 190.96 40.64 192.65 40.19 C 193.63 43.76 194.96 47.97 198.94 49.15 C 203.23 50.95 206.82 47.16 209.45 44.30 C 211.05 44.34 212.66 44.40 214.27 44.43 C 209.45 40.79 204.11 37.41 198.01 36.59 C 193.99 36.09 189.08 37.31 187.57 41.51 Z" />
<path fill="#ef494d" opacity="1.00" d=" M 30.11 29.94 C 44.87 37.02 61.56 36.07 77.45 37.41 C 78.33 43.54 79.20 49.98 82.75 55.24 C 85.11 58.94 88.75 61.51 92.19 64.11 C 82.16 64.11 72.14 63.32 62.24 61.75 C 53.77 60.27 44.92 57.58 38.88 51.11 C 33.37 45.46 31.10 37.57 30.11 29.94 M 45.98 44.13 C 55.02 49.30 65.58 51.58 75.94 51.45 C 75.85 50.66 75.67 49.09 75.57 48.30 C 69.69 48.21 63.74 48.37 57.96 47.11 C 53.94 46.23 49.99 45.05 45.98 44.13 Z" />
<path fill="#ef494d" opacity="1.00" d=" M 323.99 37.34 C 339.79 36.14 356.33 36.93 371.02 30.00 C 370.14 37.68 367.72 45.55 362.23 51.22 C 356.34 57.43 347.82 60.11 339.63 61.63 C 329.46 63.32 319.16 64.09 308.86 64.13 C 312.32 61.59 315.96 59.06 318.35 55.40 C 321.90 50.04 322.91 43.55 323.99 37.34 M 343.93 46.94 C 337.90 48.42 331.65 48.16 325.50 48.34 C 325.41 49.11 325.24 50.64 325.16 51.41 C 335.47 51.58 346.07 49.38 355.06 44.22 C 351.32 44.99 347.64 46.06 343.93 46.94 Z" />
<path fill="#ef494d" opacity="1.00" d=" M 79.12 34.01 C 94.63 39.43 111.25 36.31 127.27 37.65 C 133.05 38.19 139.04 40.67 142.29 45.69 C 144.68 49.21 144.74 54.49 141.62 57.59 C 138.57 60.82 134.00 61.70 129.97 63.10 C 129.24 76.79 128.97 90.85 133.03 104.10 C 135.34 111.76 139.63 119.00 146.03 123.93 C 149.80 126.90 154.36 128.55 158.80 130.23 C 158.51 134.54 157.82 138.83 156.46 142.94 C 146.44 140.13 136.83 134.99 130.15 126.86 C 121.31 116.19 117.74 102.25 116.23 88.74 C 115.14 80.95 115.77 73.07 115.38 65.24 C 105.87 65.55 95.04 65.25 87.67 58.34 C 80.92 52.20 79.45 42.67 79.12 34.01 Z" />
<path fill="#ef494d" opacity="1.00" d=" M 273.73 37.67 C 289.77 36.25 306.44 39.50 321.95 34.01 C 321.95 42.95 320.03 52.82 312.91 58.90 C 305.49 65.32 295.04 65.49 285.76 65.26 C 285.81 83.77 285.23 103.33 275.90 119.87 C 269.56 131.21 258.31 139.14 245.91 142.59 C 244.71 138.50 243.70 134.35 243.01 130.13 C 251.76 127.16 259.89 121.64 264.26 113.29 C 272.41 97.96 272.22 79.92 271.18 63.05 C 267.31 61.78 263.05 60.90 259.98 58.03 C 256.47 54.79 256.47 49.00 259.20 45.27 C 262.44 40.54 268.21 38.27 273.73 37.67 Z" />
<path fill="#ef494d" opacity="1.00" d=" M 163.57 70.55 C 169.47 69.12 174.69 65.09 181.00 65.39 C 186.98 65.13 192.60 68.09 196.48 72.50 C 192.28 70.39 187.87 67.78 182.96 68.54 C 176.48 68.98 171.47 73.64 165.40 75.36 C 162.58 75.91 159.09 76.31 156.80 74.18 C 155.02 72.70 155.48 70.21 155.32 68.17 C 157.86 69.46 160.54 71.45 163.57 70.55 Z" />
<path fill="#ef494d" opacity="1.00" d=" M 79.76 84.94 C 87.48 74.12 100.87 69.22 113.69 68.09 C 113.41 77.06 114.39 85.99 114.93 94.93 C 102.64 96.11 88.87 93.97 79.76 84.94 Z" />
<path fill="#ef494d" opacity="1.00" d=" M 287.44 68.12 C 300.23 69.17 313.76 74.04 321.32 84.98 C 312.32 94.21 298.45 96.01 286.18 94.97 C 286.61 86.01 287.92 77.11 287.44 68.12 Z" />
<path fill="#ef494d" opacity="1.00" d=" M 307.56 70.63 C 328.63 71.58 350.47 75.02 370.96 68.23 C 370.52 75.49 368.80 83.16 363.64 88.59 C 358.92 93.77 352.03 96.21 345.29 97.37 C 331.18 99.77 316.86 97.99 302.73 96.85 C 310.37 94.29 318.53 91.67 323.67 85.00 C 319.70 78.78 313.61 74.61 307.56 70.63 M 327.45 83.24 C 327.38 83.99 327.24 85.49 327.17 86.23 C 337.33 86.94 348.02 86.28 357.22 81.50 C 347.43 83.66 337.42 84.00 327.45 83.24 Z" />
<path fill="#ef494d" opacity="1.00" d=" M 30.14 68.55 C 50.78 74.58 72.42 71.80 93.51 70.64 C 88.02 74.84 81.04 78.26 78.18 84.90 C 82.04 92.14 91.13 94.00 98.24 96.83 C 83.05 98.16 67.49 100.06 52.43 96.63 C 44.96 95.00 37.71 90.73 34.13 83.76 C 31.57 79.10 30.67 73.77 30.14 68.55 M 43.80 81.49 C 53.17 86.23 64.04 87.07 74.36 86.12 C 74.09 85.48 73.54 84.21 73.26 83.57 C 70.23 82.86 67.07 83.65 63.99 83.59 C 57.18 84.02 50.48 82.56 43.80 81.49 Z" />
<path fill="#ef494d" opacity="1.00" d=" M 90.25 114.31 C 94.86 104.56 105.13 98.66 115.53 97.20 C 117.04 104.69 119.48 111.95 122.47 118.97 C 117.90 121.33 113.15 123.61 107.99 124.31 C 101.33 125.32 94.24 123.78 88.72 119.88 C 88.09 117.96 89.62 116.07 90.25 114.31 Z" />
<path fill="#ef494d" opacity="1.00" d=" M 285.61 97.18 C 294.52 98.52 303.42 102.83 308.63 110.39 C 310.69 113.22 311.92 116.52 313.07 119.79 C 306.77 123.64 299.20 125.78 291.86 124.11 C 287.22 123.22 282.95 121.13 278.79 118.98 C 281.76 111.95 284.17 104.69 285.61 97.18 Z" />
<path fill="#ef494d" opacity="1.00" d=" M 66.94 108.87 C 76.85 107.74 86.50 105.22 96.20 103.02 C 91.63 108.13 87.44 113.81 85.97 120.66 C 90.89 124.03 96.67 125.58 102.31 127.26 C 85.99 131.92 68.28 135.20 51.60 130.43 C 41.23 127.63 32.46 119.24 30.35 108.54 C 42.48 110.33 54.79 110.56 66.94 108.87 M 47.83 118.43 C 58.09 121.90 69.08 122.28 79.79 121.48 C 81.82 121.82 81.73 119.46 82.28 118.15 C 77.83 118.24 73.44 119.06 69.01 119.35 C 61.92 119.84 54.91 118.32 47.83 118.43 Z" />
<path fill="#ef494d" opacity="1.00" d=" M 304.90 103.00 C 318.08 106.10 331.35 109.31 344.94 109.80 C 353.65 110.70 362.35 109.49 371.00 108.54 C 369.11 115.50 365.25 122.13 359.04 126.04 C 348.64 132.90 335.61 133.29 323.59 132.35 C 314.83 131.44 306.22 129.45 297.80 126.90 C 303.94 126.08 309.93 124.20 315.11 120.74 C 313.93 113.75 309.49 108.12 304.90 103.00 M 319.93 117.88 C 319.61 118.93 319.29 119.98 318.96 121.02 C 330.33 122.50 342.22 122.24 353.13 118.40 C 347.07 118.43 341.07 119.59 335.01 119.44 C 329.94 119.43 324.93 118.62 319.93 117.88 Z" />
<path fill="#ef494d" opacity="1.00" d=" M 168.05 114.38 C 172.33 114.98 176.61 114.23 180.53 112.45 C 182.26 116.51 184.69 120.73 189.08 122.33 C 194.37 120.80 197.42 115.80 200.72 111.79 C 203.32 116.46 206.90 120.63 211.85 122.90 C 215.81 120.47 218.58 116.71 220.82 112.71 C 224.92 116.62 230.14 119.28 235.94 118.96 C 241.38 128.00 243.72 138.54 244.85 148.93 C 243.15 148.74 241.45 148.53 239.76 148.33 C 242.09 155.57 242.47 163.34 241.04 170.81 C 239.75 177.34 238.31 183.93 238.65 190.64 C 237.34 189.73 236.02 188.83 234.69 187.96 C 235.23 193.90 235.41 199.97 233.70 205.76 C 231.96 211.61 230.86 217.64 230.54 223.74 C 229.26 224.11 227.97 224.48 226.69 224.86 C 226.63 231.71 226.46 238.65 224.50 245.27 C 222.78 251.20 220.98 257.14 220.21 263.29 C 218.80 262.90 217.40 262.52 215.99 262.15 C 217.47 271.04 216.57 280.05 216.51 289.00 C 216.39 294.62 218.44 299.92 220.25 305.14 C 211.71 301.85 205.90 293.90 203.58 285.26 C 201.40 278.92 201.91 272.15 200.86 265.62 C 198.86 270.05 199.78 275.04 198.75 279.69 C 197.02 289.92 191.66 300.72 181.53 304.81 C 183.69 298.44 185.93 291.84 185.07 285.00 C 184.22 277.34 184.05 269.57 185.66 262.00 C 184.10 262.52 182.56 263.08 181.01 263.63 C 180.68 257.09 179.20 250.71 177.37 244.46 C 175.49 237.97 175.34 231.16 175.60 224.46 C 174.25 224.48 172.90 224.51 171.55 224.54 C 170.85 217.20 168.37 210.25 166.65 203.13 C 165.36 198.16 165.90 193.02 166.60 188.01 C 165.14 188.86 163.70 189.74 162.27 190.63 C 162.64 181.36 160.40 172.23 160.41 162.98 C 160.35 157.62 162.66 152.71 164.92 147.98 C 162.76 148.58 160.62 149.26 158.48 149.91 C 158.47 137.60 160.42 124.45 168.05 114.38 Z" />
<path fill="#ef494d" opacity="1.00" d=" M 102.39 150.19 C 102.39 137.05 112.24 126.58 123.20 120.72 C 127.32 126.17 131.65 131.48 136.81 136.00 C 131.54 142.17 125.26 147.90 117.48 150.62 C 112.59 152.33 107.21 151.93 102.39 150.19 Z" />
<path fill="#ef494d" opacity="1.00" d=" M 264.36 136.01 C 269.52 131.52 273.88 126.25 277.90 120.73 C 288.58 126.44 298.91 136.70 298.53 149.63 C 295.47 152.30 290.98 151.76 287.24 151.48 C 277.85 149.79 270.41 142.99 264.36 136.01 Z" />
<path fill="#ef494d" opacity="1.00" d=" M 293.14 129.87 C 309.97 138.14 328.15 143.96 346.90 145.52 C 354.63 146.07 362.38 145.57 370.11 145.08 C 369.15 151.33 366.69 157.58 361.90 161.89 C 356.53 166.71 349.16 168.72 342.06 168.72 C 331.67 169.06 321.46 166.49 311.64 163.34 C 303.56 160.57 295.54 157.53 287.90 153.70 C 292.24 153.75 296.56 153.16 300.58 151.48 C 301.00 143.54 297.65 136.19 293.14 129.87 M 306.59 147.10 C 306.46 147.84 306.19 149.30 306.06 150.04 C 310.81 151.78 315.68 153.18 320.63 154.29 C 329.60 156.31 338.87 158.54 348.10 156.81 C 339.22 156.47 330.49 154.55 321.97 152.13 C 316.77 150.68 311.85 148.37 306.59 147.10 Z" />
<path fill="#ef494d" opacity="1.00" d=" M 51.78 145.66 C 71.13 144.68 89.74 138.44 107.27 130.50 C 103.75 136.75 100.06 143.48 100.71 150.91 C 104.05 153.93 108.98 153.32 113.14 153.74 C 99.50 160.34 85.09 165.71 70.07 168.11 C 60.66 169.26 50.24 169.47 42.02 164.00 C 35.57 159.85 32.21 152.41 31.01 145.06 C 37.92 145.51 44.85 145.99 51.78 145.66 M 53.83 156.91 C 58.50 157.59 63.28 157.66 67.93 156.80 C 77.18 155.25 86.43 153.27 95.22 149.95 C 94.81 148.96 94.39 147.97 93.99 146.98 C 81.13 152.07 67.66 155.85 53.83 156.91 Z" />
<path fill="#ef494d" opacity="1.00" d=" M 138.30 137.15 C 142.94 139.48 147.61 141.75 152.33 143.91 C 149.96 148.69 147.49 153.42 145.46 158.36 C 143.07 164.47 138.49 169.70 132.77 172.89 C 128.86 175.19 124.18 174.72 119.84 174.65 C 118.12 166.58 121.44 158.60 126.04 152.10 C 129.61 146.71 134.03 141.98 138.30 137.15 Z" />
<path fill="#ef494d" opacity="1.00" d=" M 248.90 143.90 C 253.60 141.78 258.24 139.53 262.82 137.14 C 269.78 144.76 276.99 152.66 280.58 162.53 C 282.08 166.36 281.75 170.53 281.56 174.54 C 277.33 174.71 272.80 175.25 268.92 173.16 C 262.85 170.03 258.17 164.51 255.64 158.22 C 253.59 153.35 251.25 148.62 248.90 143.90 Z" />
<path fill="#ef494d" opacity="1.00" d=" M 150.56 151.60 C 152.12 148.79 153.09 145.10 156.42 143.88 C 156.66 146.74 156.71 149.61 156.81 152.47 C 158.15 152.28 159.50 152.08 160.85 151.88 C 160.03 155.53 159.12 159.19 158.88 162.95 C 158.60 170.27 161.02 177.55 160.19 184.85 C 157.04 189.44 151.81 192.37 146.31 193.03 C 144.43 189.26 142.48 185.33 142.40 181.02 C 141.83 170.61 146.25 160.82 150.56 151.60 Z" />
<path fill="#ef494d" opacity="1.00" d=" M 246.35 144.57 C 249.64 148.68 251.59 153.61 253.72 158.36 C 258.50 169.10 261.61 182.53 254.76 193.10 C 249.10 192.28 243.84 189.14 240.61 184.41 C 240.10 180.37 241.75 176.39 242.30 172.42 C 243.92 165.47 243.91 158.21 242.29 151.27 C 243.74 151.41 245.19 151.55 246.65 151.69 C 246.49 149.32 246.36 146.94 246.35 144.57 Z" />
<path fill="#ef494d" opacity="1.00" d=" M 55.58 183.47 C 79.86 177.76 101.95 165.58 122.98 152.54 C 121.13 156.96 118.66 161.21 117.83 166.00 C 117.22 169.24 117.67 172.54 118.10 175.77 C 120.44 176.24 122.78 176.67 125.11 177.17 C 119.75 181.31 113.80 184.57 107.94 187.93 C 95.53 194.74 82.48 200.93 68.43 203.35 C 60.77 204.26 52.49 204.41 45.56 200.52 C 39.63 197.35 35.54 191.67 32.98 185.59 C 40.57 185.84 48.19 185.26 55.58 183.47 M 101.51 176.60 C 86.86 184.59 71.20 190.71 54.98 194.65 C 66.94 193.99 78.33 189.83 89.31 185.30 C 97.77 181.69 106.19 177.84 113.88 172.74 C 113.54 171.78 113.19 170.82 112.84 169.87 C 108.94 171.90 105.33 174.43 101.51 176.60 Z" />
<path fill="#ef494d" opacity="1.00" d=" M 278.11 152.47 C 293.61 161.92 309.33 171.25 326.44 177.52 C 339.73 182.67 353.84 186.18 368.19 185.78 C 364.73 194.28 357.54 201.62 348.24 203.24 C 332.96 205.85 317.92 200.05 304.32 193.67 C 294.75 188.80 285.04 183.94 276.54 177.32 C 278.70 176.75 280.87 176.24 283.05 175.72 C 283.49 172.64 283.96 169.50 283.46 166.39 C 282.72 161.41 280.14 157.00 278.11 152.47 M 288.03 169.86 C 287.92 170.65 287.70 172.23 287.59 173.02 C 295.88 178.26 304.81 182.40 313.87 186.11 C 324.17 190.27 334.86 194.00 346.04 194.66 C 329.87 190.60 314.19 184.60 299.58 176.53 C 295.72 174.31 292.09 171.70 288.03 169.86 Z" />
<path fill="#ef494d" opacity="1.00" d=" M 128.33 178.28 C 132.84 175.08 137.52 172.14 141.78 168.61 C 141.06 173.38 140.04 178.21 140.72 183.04 C 141.35 187.44 143.47 191.41 145.65 195.21 C 134.60 205.10 122.93 214.30 110.76 222.76 C 101.13 229.25 91.03 235.32 79.93 238.90 C 72.74 241.13 64.95 242.43 57.55 240.44 C 50.79 238.92 45.04 234.68 40.39 229.69 C 54.41 225.93 67.38 219.25 79.70 211.69 C 96.54 201.51 112.53 189.99 128.33 178.28 M 123.56 196.55 C 105.76 209.95 86.87 221.90 67.02 232.01 C 71.74 230.71 76.26 228.80 80.60 226.57 C 93.17 220.18 105.06 212.56 116.75 204.71 C 123.48 200.04 130.27 195.42 136.37 189.94 C 136.26 189.16 136.05 187.61 135.94 186.83 C 131.25 189.32 127.82 193.48 123.56 196.55 Z" />
<path fill="#ef494d" opacity="1.00" d=" M 259.65 168.81 C 265.10 173.29 271.23 176.83 276.78 181.18 C 296.83 195.83 317.14 210.40 339.37 221.60 C 346.19 225.13 353.53 227.42 360.84 229.71 C 356.31 234.53 350.78 238.66 344.27 240.27 C 335.64 242.77 326.49 240.85 318.25 237.85 C 303.83 232.34 290.98 223.53 278.73 214.27 C 270.83 208.12 262.88 202.00 255.56 195.16 C 257.59 191.57 259.78 187.92 260.35 183.76 C 261.01 178.78 260.29 173.76 259.65 168.81 M 266.19 186.88 C 265.74 187.46 264.84 188.62 264.39 189.20 C 269.37 194.48 275.54 198.38 281.40 202.60 C 294.80 211.77 308.49 220.63 323.08 227.81 C 326.58 229.53 330.23 230.93 333.98 232.00 C 327.62 228.32 320.93 225.25 314.69 221.36 C 297.75 211.03 280.93 200.24 266.19 186.88 Z" />
<path fill="#ef494d" opacity="1.00" d=" M 240.16 187.70 C 243.70 190.14 247.32 192.55 250.27 195.72 C 259.86 206.12 269.82 216.18 280.09 225.89 C 292.12 236.79 304.64 247.67 319.60 254.35 C 321.26 255.13 322.91 255.93 324.56 256.77 C 319.17 260.69 312.76 263.49 306.00 263.45 C 296.79 263.36 288.17 259.32 280.54 254.49 C 268.79 246.86 258.49 237.26 248.52 227.48 C 243.50 222.37 238.22 217.50 233.59 212.02 C 235.69 205.38 237.14 198.44 236.32 191.44 C 237.71 192.40 239.11 193.35 240.53 194.28 C 240.40 192.08 240.26 189.89 240.16 187.70 M 239.49 201.72 C 241.51 206.60 245.58 210.11 249.16 213.84 C 260.26 224.80 271.90 235.26 284.48 244.50 C 287.48 246.71 290.68 248.66 294.11 250.13 C 275.79 235.60 257.39 220.64 242.91 202.12 C 242.08 201.17 240.57 201.91 239.49 201.72 Z" />
<path fill="#ef494d" opacity="1.00" d=" M 152.84 193.85 C 155.15 191.70 157.82 189.98 160.41 188.18 C 160.50 189.98 160.53 191.78 160.57 193.58 C 161.79 193.51 163.01 193.43 164.24 193.36 C 164.15 199.77 165.40 206.09 167.39 212.16 C 165.08 214.91 162.65 217.55 160.08 220.07 C 148.56 231.61 136.99 243.29 123.52 252.59 C 115.60 257.96 106.74 262.69 97.02 263.39 C 89.64 263.91 82.45 261.06 76.57 256.76 C 83.05 253.64 89.69 250.75 95.59 246.56 C 117.14 231.89 134.81 212.48 152.84 193.85 M 149.05 213.04 C 139.71 222.73 129.80 231.87 119.35 240.36 C 115.26 243.70 110.84 246.63 106.91 250.16 C 115.84 246.34 123.07 239.59 130.55 233.57 C 141.45 224.04 152.55 214.52 161.57 203.12 C 161.12 202.54 160.22 201.38 159.77 200.79 C 155.99 204.69 152.85 209.16 149.05 213.04 Z" />
<path fill="#ef494d" opacity="1.00" d=" M 154.45 238.49 C 159.64 232.07 163.87 224.92 169.30 218.70 C 169.59 221.33 169.79 223.98 169.99 226.62 C 171.25 226.90 172.52 227.18 173.80 227.46 C 174.07 231.17 174.22 234.90 174.66 238.60 C 175.12 242.41 176.56 246.06 176.75 249.91 C 176.12 251.98 174.62 253.63 173.40 255.37 C 163.32 268.75 154.52 283.54 150.81 300.05 C 147.27 297.60 143.90 294.51 142.66 290.24 C 140.57 284.44 143.00 278.46 144.40 272.81 C 138.81 274.75 133.09 277.67 126.99 276.50 C 122.66 275.90 119.34 272.81 116.79 269.48 C 132.82 264.34 144.47 251.41 154.45 238.49 Z" />
<path fill="#ef494d" opacity="1.00" d=" M 232.84 220.14 C 237.04 224.40 240.04 229.63 243.69 234.34 C 251.52 244.67 259.77 254.99 270.46 262.52 C 274.69 265.57 279.56 267.52 284.37 269.44 C 281.97 273.01 278.38 275.91 274.02 276.52 C 268.03 277.58 262.45 274.72 256.98 272.79 C 258.16 278.30 260.64 284.02 258.80 289.68 C 257.66 294.21 254.10 297.45 250.42 300.03 C 246.95 283.88 238.34 269.45 228.60 256.32 C 227.37 254.57 225.93 252.90 225.18 250.88 C 225.23 247.07 226.86 243.51 227.31 239.76 C 227.79 235.70 228.10 231.62 228.41 227.55 C 229.74 227.20 231.06 226.86 232.39 226.51 C 232.50 224.38 232.61 222.25 232.84 220.14 Z" />
<path fill="#ef494d" opacity="1.00" d=" M 200.44 279.98 C 202.20 286.00 203.70 292.30 207.68 297.33 C 211.81 302.48 212.24 309.54 216.29 314.73 C 218.69 317.82 222.64 320.00 226.63 319.48 C 229.91 318.85 232.49 316.55 235.24 314.81 C 234.87 319.92 235.21 325.64 231.97 329.97 C 229.21 333.75 223.65 334.79 219.64 332.47 C 215.24 330.31 213.82 325.28 211.34 321.45 C 210.96 331.57 212.64 341.71 215.60 351.38 C 218.35 360.11 223.34 368.90 231.84 373.11 C 241.57 378.35 253.24 372.95 263.11 377.72 C 268.95 380.29 272.49 386.72 272.13 393.00 C 272.09 400.45 267.17 407.65 260.17 410.26 C 254.68 412.31 248.45 412.93 243.78 416.80 C 241.04 418.83 240.25 422.30 239.10 425.32 C 237.91 422.06 236.87 418.52 237.98 415.08 C 239.19 409.39 244.03 404.11 242.02 398.03 C 239.71 391.57 232.91 388.72 227.27 385.82 C 220.75 382.69 215.12 377.49 212.13 370.84 C 210.76 368.01 209.95 364.80 207.65 362.53 C 206.98 374.82 207.98 387.24 210.94 399.19 C 212.32 404.84 214.46 410.37 217.97 415.05 C 220.63 418.67 223.05 423.17 221.79 427.79 C 220.38 433.94 215.01 437.89 209.93 440.99 C 205.90 443.38 203.32 447.37 200.52 451.00 C 197.99 447.14 195.23 443.26 191.17 440.89 C 185.86 437.65 180.20 433.23 179.36 426.63 C 178.61 421.88 181.39 417.70 184.02 414.04 C 187.96 408.55 189.85 401.94 191.26 395.42 C 193.39 384.60 194.51 373.50 193.46 362.49 C 190.00 368.06 188.31 374.77 183.37 379.36 C 177.97 385.14 169.93 387.03 163.87 391.87 C 159.89 394.95 157.39 400.54 159.71 405.37 C 162.22 411.41 165.68 418.13 162.59 424.67 C 160.89 421.73 159.71 418.23 156.78 416.24 C 150.17 411.34 140.64 412.41 134.82 406.18 C 127.46 399.30 127.00 385.62 135.41 379.39 C 141.90 374.55 150.45 375.59 158.05 375.60 C 165.29 375.86 172.44 372.61 177.18 367.16 C 183.53 359.98 186.44 350.49 188.25 341.25 C 189.32 334.73 190.58 328.14 190.09 321.51 C 187.51 325.38 186.05 330.54 181.49 332.63 C 177.41 334.85 171.83 333.69 169.17 329.82 C 165.92 325.25 166.39 319.37 166.10 314.07 C 169.25 316.89 172.94 320.45 177.58 319.40 C 183.13 318.46 186.66 313.41 188.40 308.43 C 189.89 304.43 191.07 300.23 193.72 296.80 C 197.45 291.89 198.89 285.82 200.44 279.98 Z" />
</g>
</svg>
