<?xml version="1.0" encoding="UTF-8" standalone="no"?>
<!-- Created with Inkscape (http://www.inkscape.org/) -->

<svg
   xmlns:dc="http://purl.org/dc/elements/1.1/"
   xmlns:cc="http://creativecommons.org/ns#"
   xmlns:rdf="http://www.w3.org/1999/02/22-rdf-syntax-ns#"
   xmlns:svg="http://www.w3.org/2000/svg"
   xmlns="http://www.w3.org/2000/svg"
   xmlns:sodipodi="http://sodipodi.sourceforge.net/DTD/sodipodi-0.dtd"
   xmlns:inkscape="http://www.inkscape.org/namespaces/inkscape"
   version="1.1"
   id="svg4802"
   width="200"
   height="243.44501"
   viewBox="0 0 200 243.44501"
   sodipodi:docname="Velenje.svg"
   inkscape:version="0.92.4 (5da689c313, 2019-01-14)">
  <metadata
     id="metadata4808">
    <rdf:RDF>
      <cc:Work
         rdf:about="">
        <dc:format>image/svg+xml</dc:format>
        <dc:type
           rdf:resource="http://purl.org/dc/dcmitype/StillImage" />
        <dc:title></dc:title>
      </cc:Work>
    </rdf:RDF>
  </metadata>
  <defs
     id="defs4806">
    <inkscape:path-effect
       effect="spiro"
       id="path-effect5407"
       is_visible="true" />
    <inkscape:path-effect
       effect="spiro"
       id="path-effect5407-0"
       is_visible="true" />
  </defs>
  <sodipodi:namedview
     pagecolor="#ffffff"
     bordercolor="#666666"
     borderopacity="1"
     objecttolerance="10"
     gridtolerance="10"
     guidetolerance="10"
     inkscape:pageopacity="0"
     inkscape:pageshadow="2"
     inkscape:window-width="1920"
     inkscape:window-height="1001"
     id="namedview4804"
     showgrid="false"
     inkscape:zoom="1.0925926"
     inkscape:cx="184.82994"
     inkscape:cy="202.29693"
     inkscape:window-x="-9"
     inkscape:window-y="-9"
     inkscape:window-maximized="1"
     inkscape:current-layer="svg4802" />
  <path
     style="fill:#ffff33;fill-opacity:1;stroke:#000000;stroke-width:6.75637293;stroke-linecap:butt;stroke-linejoin:miter;stroke-miterlimit:4;stroke-dasharray:none;stroke-opacity:1"
     d="M 196.62181,154.251 V 3.378549 v 0 l -193.2436235,-6e-6 v 0 150.872457 0 c 5.4478661,48.648 51.5975305,86.69291 96.6217625,85.80022 v 0 C 145.02418,240.94391 191.17395,202.899 196.62181,154.251 v 0 -150.872451 0 l -193.2436235,6e-6 v 0 V 154.251"
     id="path5409-7"
     inkscape:connector-curvature="0"
     sodipodi:nodetypes="cccccccccccccccc" />
  <path
     style="fill:#d2e4f0;fill-opacity:1;stroke:#000000;stroke-width:1.12606215;stroke-linecap:butt;stroke-linejoin:miter;stroke-miterlimit:4;stroke-dasharray:none;stroke-opacity:1"
     d="m 59.354297,193.6492 0.613985,-133.491437 79.204498,-0.363736 0.614,133.855173"
     id="path5365-3"
     inkscape:connector-curvature="0" />
  <path
     style="fill:#d2e4f0;fill-opacity:1;stroke:#000000;stroke-width:1.12606215;stroke-linecap:butt;stroke-linejoin:miter;stroke-miterlimit:4;stroke-dasharray:none;stroke-opacity:1"
     d="M 67.268172,185.68414 67.766893,52.090656 132.10292,51.726642 132.60167,185.68414"
     id="path5365-4"
     inkscape:connector-curvature="0" />
  <path
     style="fill:#d2e4f0;fill-opacity:1;stroke:#000000;stroke-width:1.12606215px;stroke-linecap:butt;stroke-linejoin:miter;stroke-opacity:1"
     d="M 75.339019,177.08853 75.703402,43.359667 122.70891,42.995283 123.0733,177.08853"
     id="path5365"
     inkscape:connector-curvature="0" />
  <path
     style="fill:#009966;fill-opacity:1;stroke:#000000;stroke-width:2.25811338;stroke-linecap:butt;stroke-linejoin:miter;stroke-miterlimit:4;stroke-dasharray:none;stroke-opacity:1"
     d="m 5.2564469,110.05767 29.0329681,28.96676 -6.319484,0.0911 0.183188,35.79855 19.416352,-0.18217 v -9.01797 l 22.25556,-0.18217 0.183176,9.5645 h 19.782705 v -9.47341 h 10.166123 v 0 h 10.166115 v 9.47341 h 19.78271 l 0.18318,-9.5645 22.25556,0.18217 v 9.01797 l 19.41635,0.18217 0.18318,-35.79855 -6.31947,-0.0911 29.03296,-28.96675 1.61019,37.24039 -2.30069,19.88895 -7.65908,20.76863 -16.83787,22.26123 -21.60038,17.40478 -25.42689,9.53587 -25.277902,2.96824 -27.29283,-4.30596 L 47.871244,225.05809 25.320791,204.49379 12.90528,184.49422 3.3802697,154.25217 Z"
     id="path5388"
     inkscape:connector-curvature="0"
     sodipodi:nodetypes="ccccccccccccccccccccccccccccccccccc" />
  <path
     style="fill:none;fill-opacity:1;stroke:#000000;stroke-width:6.75637293;stroke-linecap:butt;stroke-linejoin:miter;stroke-miterlimit:4;stroke-dasharray:none;stroke-opacity:1"
     d="M 196.62181,154.251 V 3.378556 v 0 l -193.2436235,-5e-6 v 0 150.872449 0 c 5.4478661,48.648 51.5975305,86.69291 96.6217625,85.80022 v 0 C 145.02418,240.94391 191.17395,202.899 196.62181,154.251 v 0 -150.872444 0 l -193.2436235,6e-6 v 0 V 154.251"
     id="path5409-7-3"
     inkscape:connector-curvature="0"
     sodipodi:nodetypes="cccccccccccccccc" />
</svg>
