<?xml version="1.0" encoding="UTF-8" standalone="no"?>
<!-- Created with Inkscape (http://www.inkscape.org/) -->

<svg
   xmlns:dc="http://purl.org/dc/elements/1.1/"
   xmlns:cc="http://creativecommons.org/ns#"
   xmlns:rdf="http://www.w3.org/1999/02/22-rdf-syntax-ns#"
   xmlns:svg="http://www.w3.org/2000/svg"
   xmlns="http://www.w3.org/2000/svg"
   xmlns:sodipodi="http://sodipodi.sourceforge.net/DTD/sodipodi-0.dtd"
   xmlns:inkscape="http://www.inkscape.org/namespaces/inkscape"
   version="1.1"
   id="svg1591"
   width="638"
   height="650"
   viewBox="0 0 638 650"
   sodipodi:docname="COA-Nova_Gorica.svg"
   inkscape:version="0.92.4 (5da689c313, 2019-01-14)">
  <metadata
     id="metadata1597">
    <rdf:RDF>
      <cc:Work
         rdf:about="">
        <dc:format>image/svg+xml</dc:format>
        <dc:type
           rdf:resource="http://purl.org/dc/dcmitype/StillImage" />
        <dc:title></dc:title>
      </cc:Work>
    </rdf:RDF>
  </metadata>
  <defs
     id="defs1595" />
  <sodipodi:namedview
     pagecolor="#ffffff"
     bordercolor="#666666"
     borderopacity="1"
     objecttolerance="10"
     gridtolerance="10"
     guidetolerance="10"
     inkscape:pageopacity="0"
     inkscape:pageshadow="2"
     inkscape:window-width="1920"
     inkscape:window-height="1001"
     id="namedview1593"
     showgrid="false"
     inkscape:zoom="1.0269366"
     inkscape:cx="261.33459"
     inkscape:cy="277.57312"
     inkscape:window-x="-9"
     inkscape:window-y="-9"
     inkscape:window-maximized="1"
     inkscape:current-layer="svg1591" />
  <g
     id="g2144">
    <path
       style="fill:#ffffff;fill-opacity:1"
       d="M 0,325 V 0 H 319 638 V 325 650 H 319 0 Z"
       id="path2150"
       inkscape:connector-curvature="0" />
    <path
       style="fill:#cb3337"
       d="M 126,648.84613 C 98.666314,645.06556 87.843307,642.11211 72.742555,634.31287 55.517988,625.41673 38.775755,610.60091 28.29422,594.97889 17.025356,578.18341 7.3389561,554.47795 3.5816542,534.5 2.6506957,529.55 1.4639768,524.11805 0.94450117,522.429 0.36214182,520.53549 0,419.79155 0,259.679 V 0 h 319 319 v 272.83333 c 0,150.05834 -0.26852,273.10186 -0.59671,273.43005 -0.32819,0.32819 -2.10209,5.08364 -3.942,10.56767 -17.3381,51.67789 -56.59895,84.81716 -106.81296,90.15863 -5.58158,0.59373 -13.74833,1.51452 -18.14833,2.04619 -10.24574,1.23805 -373.47979,1.05786 -382.5,-0.18974 z m 406.27504,-42.10481 c 16.20919,-4.447 27.45964,-11.03148 40.79539,-23.87606 10.11752,-9.74487 20.80688,-28.7662 26.61773,-47.36526 L 602.5,526.5 602.76198,284.25 603.02397,42 452.26198,41.976031 C 92.853363,41.91889 41.578062,42.021938 40.797047,42.802953 40.343116,43.256884 40.094468,151.37442 40.244496,283.06414 L 40.517275,522.5 43.281081,532 c 5.577749,19.17233 22.276028,47.47299 31.301949,53.05132 1.879333,1.16149 3.41697,2.42425 3.41697,2.80613 0,1.42577 14.625767,11.57167 22.00611,15.26565 14.64449,7.3298 -3.490431,6.79244 220.49389,6.53352 l 202,-0.23351 z M 330.31537,553.9837 c -2.95571,-1.17827 -4.60005,-4.5532 -4.0671,-8.34755 0.55965,-3.98443 4.2496,-18.75718 7.27766,-29.13615 4.54128,-15.56566 3.97166,-33.79124 -1.62588,-52.02146 -2.05757,-6.70117 -2.9323,-11.21392 -2.50423,-12.91948 0.91408,-3.64199 6.10085,-6.55784 11.60418,-6.52352 7.8697,0.0491 10,3.27762 10,15.15532 0,4.57729 0.47183,9.89437 1.04852,11.81574 1.38726,4.62202 1.38982,28.06719 0.004,36.11863 -2.2588,13.1228 -4.33308,21.59272 -7.07143,28.87477 -1.55117,4.125 -3.11955,8.69483 -3.48528,10.15517 -1.26077,5.03416 -6.95596,8.51256 -11.18038,6.82853 z m -76.55023,-50.01021 c -4.26482,-1.06875 -19.31075,-8.42926 -20.21223,-9.88787 -0.32907,-0.53246 -4.7506,-3.88428 -9.82561,-7.44849 C 213.69625,479.59226 205,471.96635 205,470.2148 c 0,-4.62848 11.32519,-9.20446 22.83077,-9.22484 7.24598,-0.0128 39.6403,-3.39059 52.66923,-5.4918 17.17146,-2.7693 31.67599,-4.27813 34.32239,-3.57037 1.39818,0.37393 3.4283,1.86677 4.51137,3.31742 1.85005,2.47795 1.89041,3.11005 0.667,10.44617 -2.79524,16.76137 -6.16224,21.94579 -17.84308,27.47433 -18.52239,8.76664 -25.92127,11.14362 -35.65768,11.45546 -4.95,0.15855 -10.68069,-0.13291 -12.73486,-0.64768 z m 176.83032,-16.42738 c -4.3475,-2.52511 -10.6475,-6.53609 -14,-8.91327 -6.78989,-4.81456 -21.26148,-13.36553 -32.43408,-19.16463 -10.54955,-5.47571 -12.53978,-9.66981 -6.15529,-12.97136 4.14883,-2.14544 34.97079,-3.50321 55.99391,-2.46665 26.23805,1.2937 29.83988,1.80664 35,4.98442 2.475,1.52419 5.625,3.09424 7,3.489 3.59187,1.03123 16.97979,8.47617 19.15636,10.65274 5.14713,5.14713 -1.51576,12.64366 -19.49921,21.93886 l -11.89307,6.14723 -12.63204,0.44739 L 438.5,492.13723 Z M 174.5,447.03394 C 142.68074,443.92043 125.05187,436.46392 106.19399,418.14247 93.281979,405.59775 88.428023,395.66619 87.320001,379.52488 86.803239,371.99686 88.871221,343.52178 90.989333,329 c 0.521441,-3.575 1.448479,-10.775 2.060084,-16 0.611604,-5.225 1.69838,-11.975 2.415055,-15 1.715924,-7.2427 3.258199,-23.70805 4.636558,-49.5 0.6739,-12.60986 1.65292,-22.28973 2.45045,-24.2281 2.51086,-6.10262 9.95429,-8.64165 18.44852,-6.29299 1.925,0.53226 10.475,1.87467 19,2.98313 33.2854,4.32792 45.03214,5.97832 53.10683,7.4614 4.61624,0.84788 17.61817,2.46902 28.89317,3.60256 11.275,1.13353 21.18635,2.26462 22.02523,2.51353 3.6054,1.0698 18.44095,2.5546 30.47477,3.05004 7.15,0.29437 13.675,0.77142 14.5,1.06011 0.825,0.2887 6.9,0.91986 13.5,1.40258 77.79775,5.69007 113.77235,18.01011 131.82833,45.14659 9.96006,14.96903 11.54744,20.56463 16.68093,58.80115 0.62765,4.675 1.97649,13 2.99743,18.5 1.96583,10.59029 3.75658,31.79612 4.21626,49.92832 l 0.27705,10.92832 -3.44309,2.0265 c -2.89335,1.70295 -6.00678,2.14069 -19.5,2.74168 -8.8313,0.39336 -25.05691,1.45068 -36.05691,2.34962 -38.36281,3.13507 -42.14837,3.39614 -65,4.4826 -34.4723,1.63896 -59.69172,3.78865 -82.5,7.03224 -32.62953,4.64028 -62.05681,6.55577 -77.5,5.04466 z m 307.29079,-10.16 c -2.30973,-2.3173 -2.40779,-3.14931 -4.11022,-34.87394 -1.74429,-32.5046 -3.07315,-43.38076 -8.12505,-66.5 -1.32201,-6.05 -2.95044,-14.375 -3.61873,-18.5 -1.10567,-6.82471 -4.36889,-18.85858 -7.186,-26.5 -3.52471,-9.56083 -13.95053,-24.86513 -21.41502,-31.43564 C 428.58113,251.35821 403.05077,240.67359 386,237.58 c -29.76525,-5.40042 -86.7074,-10.24788 -105,-8.9386 -9.84322,0.70452 -16,-1.03436 -16,-4.51894 0,-4.22617 5.93826,-7.57013 26,-14.64112 7.425,-2.61702 15.075,-5.54649 17,-6.50992 9.21441,-4.61167 38.1456,-8.17361 69,-8.49513 9.625,-0.10029 20.65,-0.69274 24.5,-1.31654 3.85,-0.6238 16,-1.614 27,-2.20043 11,-0.58644 29.675,-2.15638 41.5,-3.48876 11.825,-1.33238 30.275,-2.90562 41,-3.49608 10.725,-0.59047 21.32088,-1.53163 23.54639,-2.09147 2.22552,-0.55985 6.03583,-0.87505 8.46736,-0.70046 3.74681,0.26904 4.76904,0.83559 6.70361,3.71533 2.00458,2.98398 2.28119,4.62847 2.27077,13.5 -0.007,5.71776 -0.65257,12.48914 -1.48813,15.60212 -1.73981,6.48188 -1.89326,19.02559 -0.42817,35 0.58009,6.325 1.47351,18.475 1.98537,27 0.51186,8.525 1.38311,19.1 1.93612,23.5 0.55301,4.4 1.49457,12.05 2.09236,17 0.59779,4.95 1.31623,18.9962 1.59653,31.21378 0.76089,33.16522 -2.27366,48.02921 -12.58566,61.64758 -11.37104,15.01698 -35.2441,28.18328 -53.26806,29.37801 -7.09313,0.47018 -7.84991,0.32953 -10.0377,-1.86543 z M 176.5,215.36045 c -9.39504,-1.91448 -19.26914,-3.41852 -25.79874,-3.92969 -6.09652,-0.47727 -8.37501,-1.10623 -10.43897,-2.88157 l -2.64023,-2.27103 1.84315,-4.82624 c 1.01374,-2.65443 3.46128,-7.46367 5.43898,-10.68721 8.23228,-13.41813 9.46755,-15.52791 12.7347,-21.75032 1.88125,-3.58291 4.88026,-8.24751 6.66445,-10.36576 l 3.24398,-3.85137 8.97634,1.16993 c 4.93699,0.64346 11.45134,1.58475 14.47634,2.09175 12.58577,2.10941 42.99451,3.99089 96.5,5.97075 49.89895,1.8464 75.2068,1.74206 139.5,-0.57515 72.74446,-2.6218 70.37897,-2.58177 72.08666,-1.21989 4.24719,3.38712 4.73944,9.80278 1.01102,13.17695 -1.54094,1.39453 -6.00414,1.68237 -32.19332,2.07618 -16.7224,0.25147 -38.05436,1.11732 -47.40436,1.92413 -9.35,0.8068 -24.875,1.95781 -34.5,2.55779 -43.3258,2.70076 -49.10207,3.31495 -71,7.54941 -8.14228,1.5745 -30.17302,4.94653 -39,5.96935 -3.025,0.35052 -8.875,1.45868 -13,2.46256 -4.125,1.00389 -15.6,3.7199 -25.5,6.03557 -9.9,2.31567 -23.22128,5.96601 -29.60285,8.11186 -10.26078,3.45027 -12.63198,3.88813 -20.5,3.78555 C 182.50372,215.8202 177.6,215.5846 176.5,215.36045 Z M 420,154.97004 c -13.475,-0.43873 -27.2,-1.32686 -30.5,-1.97363 -3.3,-0.64677 -18.825,-1.5353 -34.5,-1.97452 -29.73443,-0.83317 -53.96096,-2.47664 -60.09182,-4.0765 -1.97551,-0.51551 -14.80051,-1.38585 -28.5,-1.93407 C 233.29997,143.68638 232,143.42527 232,138.10006 c 0,-7.12592 6.28827,-9.65329 21.48977,-8.63714 24.8117,1.65854 84.99568,0.38496 87.22649,-1.84585 0.35772,-0.35772 0.0956,-1.2054 -0.58247,-1.88374 -2.36071,-2.36158 -19.14643,-2.10248 -62.6686,0.96734 l -7.03482,0.4962 -7.3676,-5.58172 c -4.05219,-3.06994 -8.89867,-5.86894 -10.76996,-6.22 -5.74142,-1.07709 -13.1811,0.5255 -21.16602,4.55942 -8.57297,4.331 -12.35057,7.86877 -14.03314,13.14219 -1.61258,5.05404 -6.49578,12.46539 -9.51793,14.44558 -1.99617,1.30794 -4.31047,1.59065 -10.66066,1.30227 -7.1813,-0.32612 -8.33977,-0.65088 -10.10704,-2.83337 -2.77247,-3.42386 -1.97185,-7.13602 4.41495,-20.47035 6.95354,-14.51754 16.40774,-25.706866 23.15633,-27.40618 5.06981,-1.276593 19.08334,0.04808 46.64298,4.40907 C 275.4614,104.8286 279.13017,105 313.59796,105 h 37.05341 l 2.1077,2.25 c 3.33686,3.56214 4.42414,7.43016 3.26332,11.60933 -1.84101,6.62802 -1.56692,7.14067 3.81765,7.14067 2.66202,0 8.39952,-0.9366 12.75,-2.08134 12.58307,-3.31096 34.40798,-5.84542 50.40996,-5.85395 11.6995,-0.006 16.3621,0.43719 24.14132,2.29591 8.94756,2.13788 10.25723,2.78459 18.20089,8.98745 C 474.70715,136.66074 485,148.0091 485,151.02172 c 0,3.70896 -3.58452,4.44139 -22.5,4.59748 -9.9,0.0817 -29.025,-0.21043 -42.5,-0.64916 z"
       id="path2148"
       inkscape:connector-curvature="0" />
    <path
       style="fill:#262a66"
       d="M 126.5,648.89075 C 97.232697,644.65787 90.68256,642.91399 74.433602,635.02881 50.368414,623.35062 31.626067,604.15554 18.241048,577.47889 12.110185,565.25994 6.8488881,549.94521 3.9911934,536 2.8077625,530.225 1.4256132,524.11805 0.91975042,522.429 0.37032853,520.59451 0,414.80079 0,259.679 V 0 h 319 319 v 272.51357 c 0,169.32918 -0.35803,273.17105 -0.94558,274.25 -0.52007,0.95504 -2.11974,5.41204 -3.55482,9.90446 -3.85322,12.06217 -14.46679,32.6256 -21.91528,42.46006 -20.62913,27.23728 -50.78203,44.22849 -84.93599,47.86159 -5.58158,0.59373 -13.74833,1.51452 -18.14833,2.04619 -10.06752,1.21651 -373.54006,1.07843 -382,-0.14512 z m 406,-42.11235 c 16.57471,-4.83808 23.18568,-8.58862 38.26353,-21.70765 11.10661,-9.66371 22.58005,-29.34419 28.93753,-49.63677 L 602.5,526.5 602.76198,284.25 603.02397,42 596.76198,41.964132 C 529.83684,41.580792 41.738363,42.043667 41.014305,42.491159 40.333194,42.912109 40,120.7589 40,279.47105 c 0,256.34109 -0.303684,241.83481 5.419656,258.88435 5.423163,16.15532 16.845289,35.17916 27.03129,45.02131 11.90504,11.50315 28.635744,21.78677 40.831044,25.09701 4.43486,1.20378 35.61026,1.37999 207.71801,1.17405 l 202.5,-0.24231 z"
       id="path2146"
       inkscape:connector-curvature="0" />
  </g>
</svg>
