<svg xmlns="http://www.w3.org/2000/svg" viewBox="0 0 793.701 1122.52" height="1122.52" width="793.701" xml:space="preserve"><defs><clipPath id="b" clipPathUnits="userSpaceOnUse"><path d="M0 0h595.276v841.89H0Z"/></clipPath><clipPath id="c" clipPathUnits="userSpaceOnUse"><path d="M-14.423 697.923h582.629v250.273H-14.423Z"/></clipPath><clipPath id="e" clipPathUnits="userSpaceOnUse"><path d="M-14.423 697.923h582.629v250.273H-14.423Z"/></clipPath><clipPath id="f" clipPathUnits="userSpaceOnUse"><path d="M355.785 698.173h3.184a396 396 0 0 0 6.331 3.351zm-369.958 0h4.08a252 252 0 0 0-4.08 3.235z"/></clipPath><clipPath id="g" clipPathUnits="userSpaceOnUse"><path d="M-14.173 857.925h623.622V698.173H-14.173Z"/></clipPath><clipPath id="h" clipPathUnits="userSpaceOnUse"><path d="M31.097 721.003h77.953v95.315H31.097Z"/></clipPath><clipPath id="i" clipPathUnits="userSpaceOnUse"><path d="M31.097 721.003h77.953v95.315H31.097Z"/></clipPath><clipPath id="j" clipPathUnits="userSpaceOnUse"><path d="M31.097 721.003h77.953v95.315H31.097Z"/></clipPath><clipPath id="k" clipPathUnits="userSpaceOnUse"><path d="M31.097 721.003h77.953v95.315H31.097Z"/></clipPath><clipPath id="l" clipPathUnits="userSpaceOnUse"><path d="M31.097 721.003h77.953v95.315H31.097Z"/></clipPath><clipPath id="m" clipPathUnits="userSpaceOnUse"><path d="M31.097 721.003h77.953v95.315H31.097Z"/></clipPath><clipPath id="n" clipPathUnits="userSpaceOnUse"><path d="M31.097 721.003h77.953v95.315H31.097Z"/></clipPath><clipPath id="o" clipPathUnits="userSpaceOnUse"><path d="M31.097 721.003h77.953v95.315H31.097Z"/></clipPath><clipPath id="p" clipPathUnits="userSpaceOnUse"><path d="M31.097 721.003h77.953v95.315H31.097Z"/></clipPath><clipPath id="q" clipPathUnits="userSpaceOnUse"><path d="M31.097 721.003h77.953v95.315H31.097Z"/></clipPath><clipPath id="r" clipPathUnits="userSpaceOnUse"><path d="M31.097 721.003h77.953v95.315H31.097Z"/></clipPath><clipPath id="s" clipPathUnits="userSpaceOnUse"><path d="M31.097 721.003h77.953v95.315H31.097Z"/></clipPath><clipPath id="t" clipPathUnits="userSpaceOnUse"><path d="M31.097 721.003h77.953v95.315H31.097Z"/></clipPath><clipPath id="u" clipPathUnits="userSpaceOnUse"><path d="M31.097 721.003h77.953v95.315H31.097Z"/></clipPath><clipPath id="v" clipPathUnits="userSpaceOnUse"><path d="M31.097 721.003h77.953v95.315H31.097Z"/></clipPath><clipPath id="w" clipPathUnits="userSpaceOnUse"><path d="M31.097 721.003h77.953v95.315H31.097Z"/></clipPath><clipPath id="x" clipPathUnits="userSpaceOnUse"><path d="M31.097 721.003h77.953v95.315H31.097Z"/></clipPath><clipPath id="y" clipPathUnits="userSpaceOnUse"><path d="M31.097 721.003h77.953v95.315H31.097Z"/></clipPath><clipPath id="z" clipPathUnits="userSpaceOnUse"><path d="M31.097 721.003h77.953v95.315H31.097Z"/></clipPath><clipPath id="A" clipPathUnits="userSpaceOnUse"><path d="M31.097 721.003h77.953v95.315H31.097Z"/></clipPath><clipPath id="B" clipPathUnits="userSpaceOnUse"><path d="M31.097 721.003h77.953v95.315H31.097Z"/></clipPath><clipPath id="C" clipPathUnits="userSpaceOnUse"><path d="M31.097 721.003h77.953v95.315H31.097Z"/></clipPath><clipPath id="D" clipPathUnits="userSpaceOnUse"><path d="M31.097 721.003h77.953v95.315H31.097Z"/></clipPath><clipPath id="E" clipPathUnits="userSpaceOnUse"><path d="M31.097 721.003h77.953v95.315H31.097Z"/></clipPath><clipPath id="F" clipPathUnits="userSpaceOnUse"><path d="M31.097 721.003h77.953v95.315H31.097Z"/></clipPath><clipPath id="G" clipPathUnits="userSpaceOnUse"><path d="M31.097 721.003h77.953v95.315H31.097Z"/></clipPath><clipPath id="H" clipPathUnits="userSpaceOnUse"><path d="M31.097 721.003h77.953v95.315H31.097Z"/></clipPath><linearGradient id="a" spreadMethod="pad" gradientTransform="rotate(180 233.68 378.8)scale(485.21143)" gradientUnits="userSpaceOnUse" y2="0" x2="1" y1="0" x1="0"><stop offset="0" style="stop-opacity:1;stop-color:#fff"/><stop offset="1" style="stop-opacity:0;stop-color:#fff"/></linearGradient><mask id="d" height="1" width="1" y="0" x="0" maskUnits="userSpaceOnUse"><path style="fill:url(#a);stroke:none" d="M-32768 32767h65535v-65535h-65535Z"/></mask></defs><g clip-path="url(#b)" transform="matrix(1.33333 0 0 -1.33333 0 1122.52)"><g/><g clip-path="url(#c)"><g/><g mask="url(#d)"><g/><g clip-path="url(#e)"><g clip-path="url(#f)"><path style="fill:#f8f8f9;fill-opacity:1;fill-rule:nonzero;stroke:none" d="M-43.937 604.335a171 171 0 0 1 7.998-5.363c.123-27.837.39-55.822.662-83.805a302 302 0 0 1-8.66 2.949z" transform="scale(1.1504 1.21367)"/><path style="fill:#f8f8f9;fill-opacity:1;fill-rule:nonzero;stroke:none" d="M-35.939 598.972c17.646-18.16 38.973-33.907 63.28-44.96 1.882-19.198 5.089-39.66 8.345-60.167-25.192 2.458-47.57 12.99-70.963 21.322-.272 27.983-.54 55.968-.662 83.805" transform="scale(1.1504 1.21367)"/><path style="fill:#f8f8f9;fill-opacity:1;fill-rule:nonzero;stroke:none" d="M27.34 554.011a190 190 0 0 1 24.833-9.29c1.396-16.736 4.05-34.686 6.779-52.71-7.691.275-15.445.878-23.266 1.834-3.256 20.507-6.463 40.97-8.345 60.166" transform="scale(1.1504 1.21367)"/><path style="fill:#f8f8f9;fill-opacity:1;fill-rule:nonzero;stroke:none" d="M52.173 544.72c37.978-11.431 79.282-11.604 118.304-6.034-4.193-10.23-7.425-21.443-10.467-32.869-32.63-9.61-66.195-15.06-101.058-13.807-2.729 18.025-5.383 35.975-6.779 52.71" transform="scale(1.1504 1.21367)"/><path style="fill:#f9f9fa;fill-opacity:1;fill-rule:nonzero;stroke:none" d="M170.477 538.686c51.502 7.181 101.015 23.967 147.066 39.336-12.849-6.306-25.113-13.304-37.042-20.69-39.149-20.407-79.066-39.314-120.49-51.515 3.04 11.426 6.273 22.64 10.466 32.869" transform="scale(1.1504 1.21367)"/><path style="fill:#fff;fill-opacity:1;fill-rule:nonzero;stroke:none" d="M-43.937 518.116c26.605-8.577 51.34-21.512 79.623-24.271 2.249-14.253 4.53-8.165 6.391-22.073-28.628-2.855-57.764 2.823-86.014 6.792z" transform="scale(1.1504 1.21367)"/><path style="fill:#fff;fill-opacity:1;fill-rule:nonzero;stroke:none" d="M35.686 493.845c42.828-5.236 83.647.129 123.092 11.612-2.656-8.585-5.217-6.796-7.953-15.343-34.078-11.615-71.349-14.589-108.748-18.342-1.86 13.909-4.142 7.82-6.391 22.073" transform="scale(1.1504 1.21367)"/><path style="fill:#fff;fill-opacity:1;fill-rule:nonzero;stroke:none" d="M158.778 505.457c41.866 12.187 82.186 31.265 121.723 51.875-8.274-5.137-16.386-10.48-24.411-15.91-33.7-22.56-68.73-38.848-105.265-51.308 2.736 8.547 5.297 6.758 7.953 15.343m-202.715-26.893c7.063-.992 14.18-2.091 21.332-3.137.023-1.54.184-4.36.411-7.82-7.255.912-14.51 1.925-21.743 2.92z" transform="scale(1.1504 1.21367)"/><path style="fill:#fdfeff;fill-opacity:1;fill-rule:nonzero;stroke:none" d="M-43.937 470.527c7.233-.995 14.488-2.008 21.743-2.92.228-3.46.524-7.56.819-11.658-7.433.782-14.955 1.713-22.562 2.718z" transform="scale(1.1504 1.21367)"/><path style="fill:#fff;fill-opacity:1;fill-rule:nonzero;stroke:none" d="M-22.605 475.427c7.151-1.046 14.336-2.038 21.533-2.818.076-1.372.31-4.027.624-7.324-7.235.597-14.49 1.41-21.746 2.322-.227 3.46-.388 6.28-.411 7.82" transform="scale(1.1504 1.21367)"/><path style="fill:#fbfdff;fill-opacity:1;fill-rule:nonzero;stroke:none" d="M-22.194 467.607c7.256-.913 14.511-1.725 21.746-2.322.313-3.296.704-7.233 1.094-11.17-7.247.415-14.59 1.05-22.021 1.834-.295 4.099-.591 8.198-.819 11.658" transform="scale(1.1504 1.21367)"/><path style="fill:#f7fcff;fill-opacity:1;fill-rule:nonzero;stroke:none" d="M-43.937 458.667c7.607-1.005 15.13-1.936 22.562-2.718.294-4.1.59-8.2.815-11.66-7.607.652-15.395 1.5-23.377 2.513z" transform="scale(1.1504 1.21367)"/><path style="fill:#ebf7fe;fill-opacity:1;fill-rule:nonzero;stroke:none" d="M-43.937 446.802c7.982-1.013 15.77-1.86 23.377-2.512.226-3.46.383-6.281.402-7.823a414 414 0 0 0-23.779 2.286z" transform="scale(1.1504 1.21367)"/><path style="fill:#f0f8fe;fill-opacity:1;fill-rule:nonzero;stroke:none" d="M-21.375 455.949c7.432-.783 14.774-1.419 22.021-1.834.39-3.936.778-7.872 1.085-11.164-7.258.23-14.684.687-22.291 1.339-.226 3.46-.52 7.56-.815 11.659" transform="scale(1.1504 1.21367)"/><path style="fill:#def0fd;fill-opacity:1;fill-rule:nonzero;stroke:none" d="M-20.56 444.29c7.607-.652 15.033-1.109 22.291-1.34.307-3.292.532-5.941.595-7.306-7.288.041-14.778.31-22.484.823-.02 1.542-.176 4.362-.402 7.823" transform="scale(1.1504 1.21367)"/><path style="fill:#fff;fill-opacity:1;fill-rule:nonzero;stroke:none" d="M-1.072 472.61c14.394-1.56 28.835-2.265 43.15-.838.15-1.128.3-3.526.445-6.558-14.12-1.455-28.503-1.124-42.971.072-.313 3.296-.548 5.951-.624 7.323" transform="scale(1.1504 1.21367)"/><path style="fill:#fafdff;fill-opacity:1;fill-rule:nonzero;stroke:none" d="M-.448 465.285c14.468-1.195 28.85-1.526 42.971-.071.147-3.033.29-6.699.43-10.363-13.697-1.516-27.812-1.567-42.307-.736-.39 3.937-.781 7.874-1.094 11.17" transform="scale(1.1504 1.21367)"/><path style="fill:#ecf7fe;fill-opacity:1;fill-rule:nonzero;stroke:none" d="M.646 454.115c7.248-.416 14.4-.61 21.453-.513.325-3.762.647-7.523.915-10.64-6.934-.248-14.025-.243-21.283-.011a2060 2060 0 0 1-1.085 11.164" transform="scale(1.1504 1.21367)"/><path style="fill:#d7edfc;fill-opacity:1;fill-rule:nonzero;stroke:none" d="M1.731 442.95c7.258-.23 14.349-.236 21.283.012.267-3.116.48-5.59.586-6.776-6.9-.397-13.986-.583-21.274-.542-.063 1.365-.288 4.014-.595 7.307" transform="scale(1.1504 1.21367)"/><path style="fill:#ecf7fe;fill-opacity:1;fill-rule:nonzero;stroke:none" d="M22.099 453.602c7.052.099 14.006.491 20.854 1.25.14-3.664.278-7.325.411-10.346-6.636-.79-13.416-1.294-20.35-1.544-.268 3.117-.59 6.878-.915 10.64" transform="scale(1.1504 1.21367)"/><path style="fill:#d4ebfb;fill-opacity:1;fill-rule:nonzero;stroke:none" d="M23.014 442.962c6.934.25 13.714.754 20.35 1.544.134-3.022.264-5.405.39-6.511a313 313 0 0 0-20.154-1.809c-.106 1.187-.319 3.66-.586 6.776" transform="scale(1.1504 1.21367)"/><path style="fill:#fff;fill-opacity:1;fill-rule:nonzero;stroke:none" d="M42.077 471.772c18.7 1.876 37.367 3.558 55.62 6.223.185-.804.541-2.668.982-5.06-18.248-3.397-37.054-5.73-56.156-7.721-.146 3.032-.294 5.43-.446 6.558" transform="scale(1.1504 1.21367)"/><path style="fill:#fafdff;fill-opacity:1;fill-rule:nonzero;stroke:none" d="M42.523 465.214c19.102 1.99 37.908 4.324 56.156 7.72.44-2.392.964-5.314 1.486-8.234-18.176-4.423-37.227-7.605-57.212-9.849-.14 3.664-.283 7.33-.43 10.363" transform="scale(1.1504 1.21367)"/><path style="fill:#ecf7fe;fill-opacity:1;fill-rule:nonzero;stroke:none" d="M42.953 454.851c19.985 2.244 39.036 5.426 57.212 9.849.522-2.92 1.042-5.838 1.473-8.223-18.108-5.448-37.405-9.476-58.274-11.971-.133 3.021-.27 6.682-.41 10.345" transform="scale(1.1504 1.21367)"/><path style="fill:#d3ebfb;fill-opacity:1;fill-rule:nonzero;stroke:none" d="M43.364 444.506c20.87 2.495 40.166 6.523 58.274 11.971.43-2.385.773-4.237.94-5.025-18.11-6.174-37.554-10.847-58.825-13.457-.125 1.106-.255 3.489-.389 6.51" transform="scale(1.1504 1.21367)"/><path style="fill:#fff;fill-opacity:1;fill-rule:nonzero;stroke:none" d="M97.696 477.995c18.253 2.665 36.09 6.311 53.13 12.119.22-.48.44-1.616.658-3.078-16.868-6.245-34.557-10.705-52.805-14.102-.44 2.393-.797 4.257-.983 5.061" transform="scale(1.1504 1.21367)"/><path style="fill:#fafdff;fill-opacity:1;fill-rule:nonzero;stroke:none" d="M98.679 472.934c18.248 3.397 35.937 7.857 52.805 14.102.218-1.46.434-3.25.65-5.036-16.49-7.211-33.792-12.876-51.969-17.3-.522 2.92-1.046 5.842-1.486 8.234" transform="scale(1.1504 1.21367)"/><path style="fill:#ebf6fe;fill-opacity:1;fill-rule:nonzero;stroke:none" d="M100.165 464.7c18.177 4.424 35.48 10.089 51.968 17.3.216-1.787.43-3.573.642-5.03a309.5 309.5 0 0 0-51.137-20.493c-.431 2.385-.951 5.303-1.473 8.223" transform="scale(1.1504 1.21367)"/><path style="fill:#d4ebfb;fill-opacity:1;fill-rule:nonzero;stroke:none" d="M101.638 456.477a309.5 309.5 0 0 1 51.137 20.493c.212-1.457.423-2.585.632-3.056-15.94-8.614-32.718-16.288-50.828-22.462-.168.788-.51 2.64-.941 5.025" transform="scale(1.1504 1.21367)"/><path style="fill:#fff;fill-opacity:1;fill-rule:nonzero;stroke:none" d="M150.825 490.114c18.267 6.23 36.159 13.417 53.696 21.866-.214-.46-.43-1.084-.645-1.79a464 464 0 0 0-52.392-23.154c-.218 1.462-.438 2.598-.659 3.078" transform="scale(1.1504 1.21367)"/><path style="fill:#fafdff;fill-opacity:1;fill-rule:nonzero;stroke:none" d="M151.484 487.036a464 464 0 0 1 52.392 23.154c-.216-.707-.432-1.495-.649-2.282-16.573-9.524-33.5-18.222-51.094-25.908-.215 1.787-.431 3.576-.65 5.036" transform="scale(1.1504 1.21367)"/><path style="fill:#ecf7fe;fill-opacity:1;fill-rule:nonzero;stroke:none" d="M152.133 482c17.593 7.686 34.52 16.384 51.094 25.908a79 79 0 0 0-.652-2.28c-16.159-10.248-32.67-19.97-49.8-28.658-.212 1.457-.426 3.243-.642 5.03" transform="scale(1.1504 1.21367)"/><path style="fill:#d8eefc;fill-opacity:1;fill-rule:nonzero;stroke:none" d="M152.775 476.97c17.13 8.687 33.641 18.41 49.8 28.658-.218-.704-.436-1.326-.655-1.782-15.62-10.589-31.594-20.789-48.513-29.932-.21.47-.42 1.599-.632 3.056" transform="scale(1.1504 1.21367)"/><path style="fill:#fff;fill-opacity:1;fill-rule:nonzero;stroke:none" d="M204.521 511.98c17.537 8.45 34.72 18.162 51.569 29.443l-1.946-1.326c-16.64-11.188-33.277-21.111-50.268-29.907.216.706.431 1.33.645 1.79" transform="scale(1.1504 1.21367)"/><path style="fill:#fbfdff;fill-opacity:1;fill-rule:nonzero;stroke:none" d="M203.876 510.19c16.99 8.796 33.628 18.719 50.268 29.907q-.975-.665-1.946-1.331c-16.177-10.986-32.397-21.335-48.97-30.858.216.787.432 1.575.648 2.282" transform="scale(1.1504 1.21367)"/><path style="fill:#f1f9fe;fill-opacity:1;fill-rule:nonzero;stroke:none" d="M203.227 507.908a683 683 0 0 1 24.634 14.88c-.42-.49-.838-.98-1.28-1.458-7.935-5.322-15.927-10.577-24.006-15.702.218.705.435 1.492.652 2.28" transform="scale(1.1504 1.21367)"/><path style="fill:#e6f4fd;fill-opacity:1;fill-rule:nonzero;stroke:none" d="M202.575 505.628c8.079 5.125 16.07 10.38 24.006 15.702a18 18 0 0 0-1.42-1.396c-7.708-5.403-15.43-10.794-23.24-16.088.218.456.436 1.078.654 1.782" transform="scale(1.1504 1.21367)"/><path style="fill:#f7fbfe;fill-opacity:1;fill-rule:nonzero;stroke:none" d="M227.861 522.788c-.838-.98-1.675-1.958-2.7-2.854 7.708 5.404 15.401 10.821 23.154 16.167l3.883 2.665a886 886 0 0 0-24.337-15.978" transform="scale(1.1504 1.21367)"/></g><g clip-path="url(#g)"><path style="fill:#ad1917;fill-opacity:1;fill-rule:nonzero;stroke:none" d="M0 0h1.102l-.043-.25C.702-.163.345-.087 0 0" transform="matrix(1.1504 0 0 1.21367 566.65 947.892)"/></g></g></g></g></g><g clip-path="url(#h)" transform="matrix(10.2205 0 0 -10.2205 -320.595 8373.134)"><path style="fill:#fc0;fill-opacity:1;fill-rule:nonzero;stroke:none" d="M0 0c-8.813 11.763-12.743 23.217-12.743 37.141 0 32.671-.037 37.377-.037 37.377l76.11-.107V37.453c0-14.256-4.892-27.978-13.423-37.646-10.495-11.894-24.87-16.728-24.87-16.728S7.556-10.085 0 0" transform="translate(44.962 739.718)"/></g><g clip-path="url(#i)" transform="matrix(10.2205 0 0 -10.2205 -320.595 8373.134)"><path style="fill:none;stroke:#000;stroke-width:.45500001;stroke-linecap:butt;stroke-linejoin:miter;stroke-miterlimit:4;stroke-dasharray:none;stroke-opacity:1" d="M0 0c-8.813 11.763-12.743 23.217-12.743 37.141 0 32.671-.037 37.377-.037 37.377l76.11-.107V37.453c0-14.256-4.892-27.978-13.423-37.646-10.495-11.894-24.87-16.728-24.87-16.728S7.556-10.085 0 0Z" transform="translate(44.962 739.718)"/></g><g clip-path="url(#j)" transform="matrix(10.2205 0 0 -10.2205 -320.595 8373.134)"><path style="fill:#0075bf;fill-opacity:1;fill-rule:nonzero;stroke:none" d="M0 0c7.364-9.828 23.78-16.17 23.78-16.17S37.064-11.792 47.388-.093c7.542 8.549 13.016 21.657 13.016 36.572v35.333h-.129L-5.363 8.201C-3.774 5.348-1.974 2.634 0 0" transform="translate(46.448 740.746)"/></g><g clip-path="url(#k)" transform="matrix(10.2205 0 0 -10.2205 -320.595 8373.134)"><path style="fill:#fc0;fill-opacity:1;fill-rule:nonzero;stroke:none" d="m0 0-3.276-12.675s.626-.551 1.014-.39c.663.273 1.131 2.457 1.131 2.457l-.468.78L.741-.819" transform="translate(64.104 746.382)"/></g><g clip-path="url(#l)" transform="matrix(10.2205 0 0 -10.2205 -320.595 8373.134)"><path style="fill:none;stroke:#000;stroke-width:.45500001;stroke-linecap:butt;stroke-linejoin:miter;stroke-miterlimit:4;stroke-dasharray:none;stroke-opacity:1" d="m0 0-3.276-12.675s.626-.551 1.014-.39c.663.273 1.131 2.457 1.131 2.457l-.468.78L.741-.819" transform="translate(64.104 746.382)"/></g><g clip-path="url(#m)" transform="matrix(10.2205 0 0 -10.2205 -320.595 8373.134)"><path style="fill:#fc0;fill-opacity:1;fill-rule:nonzero;stroke:none" d="m0 0-3.744-14.157s.626-.551 1.014-.39c.663.273 1.131 2.457 1.131 2.457l-.468.78L.741-.819" transform="translate(60.493 750.225)"/></g><g clip-path="url(#n)" transform="matrix(10.2205 0 0 -10.2205 -320.595 8373.134)"><path style="fill:none;stroke:#000;stroke-width:.45500001;stroke-linecap:butt;stroke-linejoin:miter;stroke-miterlimit:4;stroke-dasharray:none;stroke-opacity:1" d="m0 0-3.744-14.157s.626-.551 1.014-.39c.663.273 1.131 2.457 1.131 2.457l-.468.78L.741-.819" transform="translate(60.493 750.225)"/></g><g clip-path="url(#o)" transform="matrix(10.2205 0 0 -10.2205 -320.595 8373.134)"><path style="fill:#fc0;fill-opacity:1;fill-rule:nonzero;stroke:none" d="m0 0-4.134-16.224s.627-.551 1.014-.389c.663.273 1.131 2.456 1.131 2.456l-.468.78L.741-.819" transform="translate(57.213 754.31)"/></g><g clip-path="url(#p)" transform="matrix(10.2205 0 0 -10.2205 -320.595 8373.134)"><path style="fill:none;stroke:#000;stroke-width:.45500001;stroke-linecap:butt;stroke-linejoin:miter;stroke-miterlimit:4;stroke-dasharray:none;stroke-opacity:1" d="m0 0-4.134-16.224s.627-.551 1.014-.389c.663.273 1.131 2.456 1.131 2.456l-.468.78L.741-.819" transform="translate(57.213 754.31)"/></g><g clip-path="url(#q)" transform="matrix(10.2205 0 0 -10.2205 -320.595 8373.134)"><path style="fill:#000;fill-opacity:1;fill-rule:nonzero;stroke:none" d="M0 0c.624.234 1.248-.117 1.365-.195s.546.039.819.117.663.195 1.131.195S5.109.039 5.304.039s.234.312.858.234.897-.195 1.404-.156.897 0 .897 0L7.215.663S6.708.585 6.396.624s-.624.195-.624.195-.663-.156-.858-.078-.273.195-.273.195S3.9.663 3.159.741s-.741.156-.741.156-.234-.195-.507-.195-2.028.351-2.028.624-.117.312.156.585.405.458.507.717.027.338.156.468c.129.129.858.104 1.638-.078.78-.183 1.428-.624 1.896-.702s.546.126.78.102.442-.21.936-.234 1.302.234 1.302.234-.078.254 0 .37c.078.118.117.234.273.234s.702-.116.78-.019.058.253.136.331a.4.4 0 0 0 .273.117c.098 0 .195-.175.351-.175s.566-.039.644-.02c.078.02-.156.527-.137.663.02.137.198.561.527.917.234.253.253.409.39.371.136-.039.39-.644.487-.703.098-.058.176-.097.234 0 .058.098-.019.332.058.332.079 0 .118-.273.508-.293s1.56-.156 1.852-.078 1.521.975 1.989 1.19.858.312.994.273c.137-.039.351-.488.488-.546.136-.058.546.234.76.234.215 0 .449.039.624-.02.176-.058.371-.507.371-.507s.507.02.663.02.566-.02.605-.156c.038-.137 0-.819.097-.819s.702.058 1.072.312c.371.253.722.565.722.565s.292-.448.955-.507 2.945-.448 3.276-.526c.332-.078 1.092-.39 1.073-.741s-.644-.468-.8-.487c-.156-.02-.604-.02-.799-.078-.195-.059-.975-.546-1.112-.741-.136-.195-.156-.781-.117-.936.039-.157.839-.683.799-.936-.038-.254-.058-.254-.175-.312-.117-.059-.487.097-.487.097s.156-.312.35-.468c.196-.156.449-.332.644-.721.195-.39.468-.722.312-.858-.156-.137-.585.195-.702.058-.117-.136 1.56-2.184 1.307-4.582-.254-2.399-2.73-4.544-3.413-5.012s-2.535-1.735-5.05-2.067c-2.515-.331-5.85.273-8.112.663s-2.613.215-2.788.137c-.176-.078-1.307-.741-1.424-1.151-.117-.409.585-2.125 1.092-2.73.507-.604 1.56-1.872 2.009-2.925s.741-1.949.819-2.69-.117-2.711-.449-3.51c-.331-.8-1.326-2.867-3.841-3.647s-5.733-.078-6.298.059c-.566.136-2.087.273-3.159-.02-1.073-.292-1.112-.468-1.229-.585s-.663-.955-.39-2.379.644-3.373.585-4.173c-.058-.799-.448-2.807-2.476-4.328s-3.257-1.424-3.842-1.365-1.813.545-2.71 1.423c-.897.877-1.618 2.808-1.97 3.334-.35.527-1.111 1.482-1.637 1.443-.527-.039-.976-.312-.995-.526a50 50 0 0 1-.058-1.014s-.371.487-.312 1.072.78 1.463 1.501 1.443c.721-.019 1.423-.507 2.594-1.794s2.144-2.71 3.626-2.769c1.482-.058 2.925 2.224 2.906 4.017-.02 1.794-2.184 4.661-2.028 6.513s2.242 4.446 4.641 4.7c2.398.253 6.337 0 7 .058s1.54.721 1.599 1.755-.956 2.418-1.443 3.1c-.488.683-3.666 4.739-3.783 7.196S-1.404-7.761.468-6.571s4.738 1.716 6.279 1.579c1.54-.136 5.362-.78 6.279-.604.916.175 1.345 1.111 1.345 1.111l1.17.039s.039-.214.156-.195c.117.02 1.599.41 1.794.624s-.02.566-.02.566-1.15-.585-2.886-.507c-1.735.078-3.003.526-3.295.663-.293.136-1.969 1.208-2.418 1.287-.448.078-1.131 0-1.462.039-.332.039-.975.195-.975.195s-.371-.176-1.092-.176-1.56.02-1.736.02-.565.175-.565.175-.273-.214-.371-.214-.136.078-.273.078c-.136 0-.975-.312-1.404-.234s-.935.253-.897.39c.04.136.098.058.118.273.019.214-.293.858-.274.994.02.136-.012.446.059.468" transform="translate(55.963 803.573)"/></g><g clip-path="url(#r)" transform="matrix(10.2205 0 0 -10.2205 -320.595 8373.134)"><path style="fill:#e30613;fill-opacity:1;fill-rule:nonzero;stroke:none" d="M0 0s.624 2.808 2.769 2.964 3.393-.624 3.9-.897 3.549-2.145 5.343-2.262 2.964.351 4.445.897 2.808.858 3.315.78 1.053-.468 1.053-.468-.78.195-1.404.117-2.379-.702-3.705-1.443c-1.325-.741-1.989-1.131-2.807-1.17-.819-.039-2.184.234-2.847.468s-2.028.663-2.028.663-1.053.234-1.677-.429-1.248-.702-1.326-1.755.117-1.755.117-1.755-.624 1.287-.468 2.184.351 1.248.858 1.677.975.936.975.936-1.053.819-2.574.702S1.677 1.053 1.248.78 0 0 0 0" transform="translate(35.918 802.872)"/></g><g clip-path="url(#s)" transform="matrix(10.2205 0 0 -10.2205 -320.595 8373.134)"><path style="fill:#e30613;fill-opacity:1;fill-rule:nonzero;stroke:none" d="M0 0c.117-.097.585-.214.585-.214S.644-.253.507-.468C.371-.682-.136-.78-.136-.78s-.273.195-.312.39c-.04.195.019.429.019.429S-.117.098 0 0m-.663.273S-.682-.663-.624-.76c.059-.098.156-.332.351-.313s1.229.547 1.365.683a.7.7 0 0 1 .176.273s-.195-.058-.41 0-.76.409-.936.449C-.253.371-.663.273-.663.273" transform="translate(68.794 805.075)"/></g><g clip-path="url(#t)" transform="matrix(10.2205 0 0 -10.2205 -320.595 8373.134)"><path style="fill:none;stroke:#e30613;stroke-width:.45500001;stroke-linecap:butt;stroke-linejoin:miter;stroke-miterlimit:4;stroke-dasharray:none;stroke-opacity:1" d="M0 0c.117-.097.585-.214.585-.214S.644-.253.507-.468C.371-.682-.136-.78-.136-.78s-.273.195-.312.39c-.04.195.019.429.019.429S-.117.098 0 0zm-.663.273S-.682-.663-.624-.76c.059-.098.156-.332.351-.313s1.229.547 1.365.683a.7.7 0 0 1 .176.273s-.195-.058-.41 0-.76.409-.936.449C-.253.371-.663.273-.663.273z" transform="translate(68.794 805.075)"/></g><g clip-path="url(#u)" transform="matrix(10.2205 0 0 -10.2205 -320.595 8373.134)"><path style="fill:#e30613;fill-opacity:1;fill-rule:nonzero;stroke:none" d="M0 0c.156-.098.292-.643.253-.722-.038-.077-.643.293-.662.371S-.156.097 0 0" transform="translate(57.581 805.797)"/></g><g clip-path="url(#v)" transform="matrix(10.2205 0 0 -10.2205 -320.595 8373.134)"><path style="fill:none;stroke:#e30613;stroke-width:.45500001;stroke-linecap:butt;stroke-linejoin:miter;stroke-miterlimit:4;stroke-dasharray:none;stroke-opacity:1" d="M0 0c.156-.098.292-.643.253-.722-.038-.077-.643.293-.662.371S-.156.097 0 0Z" transform="translate(57.581 805.797)"/></g><g clip-path="url(#w)" transform="matrix(10.2205 0 0 -10.2205 -320.595 8373.134)"><path style="fill:#fc0;fill-opacity:1;fill-rule:nonzero;stroke:none" d="m0 0 3.5 12.614c.001 0 .818.164 1.074-.169.437-.568-.249-2.693-.249-2.693l-.796-.442L.61-1.108" transform="translate(90.087 785.171)"/></g><g clip-path="url(#x)" transform="matrix(10.2205 0 0 -10.2205 -320.595 8373.134)"><path style="fill:none;stroke:#000;stroke-width:.45500001;stroke-linecap:butt;stroke-linejoin:miter;stroke-miterlimit:4;stroke-dasharray:none;stroke-opacity:1" d="m0 0 3.5 12.614c.001 0 .818.164 1.074-.169.437-.568-.249-2.693-.249-2.693l-.796-.442L.61-1.108" transform="translate(90.087 785.171)"/></g><g clip-path="url(#y)" transform="matrix(10.2205 0 0 -10.2205 -320.595 8373.134)"><path style="fill:#fc0;fill-opacity:1;fill-rule:nonzero;stroke:none" d="m0 0 3.836 14.132s.818.163 1.073-.17c.438-.568-.249-2.693-.249-2.693l-.795-.441L.627-1.067" transform="translate(93.441 781.8)"/></g><g clip-path="url(#z)" transform="matrix(10.2205 0 0 -10.2205 -320.595 8373.134)"><path style="fill:none;stroke:#000;stroke-width:.45500001;stroke-linecap:butt;stroke-linejoin:miter;stroke-miterlimit:4;stroke-dasharray:none;stroke-opacity:1" d="m0 0 3.836 14.132s.818.163 1.073-.17c.438-.568-.249-2.693-.249-2.693l-.795-.441L.627-1.067" transform="translate(93.441 781.8)"/></g><g clip-path="url(#A)" transform="matrix(10.2205 0 0 -10.2205 -320.595 8373.134)"><path style="fill:#fc0;fill-opacity:1;fill-rule:nonzero;stroke:none" d="m0 0 4.532 16.117s.818.164 1.073-.169c.437-.568-.249-2.694-.249-2.694l-.795-.441L.736-.727" transform="translate(96.379 777.68)"/></g><g clip-path="url(#B)" transform="matrix(10.2205 0 0 -10.2205 -320.595 8373.134)"><path style="fill:none;stroke:#000;stroke-width:.45500001;stroke-linecap:butt;stroke-linejoin:miter;stroke-miterlimit:4;stroke-dasharray:none;stroke-opacity:1" d="m0 0 4.532 16.117s.818.164 1.073-.169c.437-.568-.249-2.694-.249-2.694l-.795-.441L.736-.727" transform="translate(96.379 777.68)"/></g><g clip-path="url(#C)" transform="matrix(10.2205 0 0 -10.2205 -320.595 8373.134)"><path style="fill:#fc0;fill-opacity:1;fill-rule:nonzero;stroke:none" d="m0 0 10.171-10.764 33.43 32.174-10.52 10.764Z" transform="translate(55.934 754.825)"/></g><g clip-path="url(#D)" transform="matrix(10.2205 0 0 -10.2205 -320.595 8373.134)"><path style="fill:none;stroke:#000;stroke-width:.45500001;stroke-linecap:butt;stroke-linejoin:miter;stroke-miterlimit:4;stroke-dasharray:none;stroke-opacity:1" d="m0 0 10.171-10.764 33.43 32.174-10.52 10.764zm9.389-9.906 33.227 32.37m-.936.935L8.453-8.814m-.936.936 33.227 32.291m-1.092.936L6.503-6.864m-.858.936 33.149 32.213m-.936 1.092L4.709-4.914M3.695-3.9l33.149 32.135m-1.014 1.014L2.759-2.886m-.936.936 33.149 32.213M.887-.858l33.071 32.057" transform="translate(55.934 754.825)"/></g><g clip-path="url(#E)" transform="matrix(10.2205 0 0 -10.2205 -320.595 8373.134)"><path style="fill:#fc0;fill-opacity:1;fill-rule:nonzero;stroke:none" d="m0 0 6.552-7.02-7.956-7.644-6.474 6.942z" transform="translate(78.27 772.92)"/></g><g clip-path="url(#F)" transform="matrix(10.2205 0 0 -10.2205 -320.595 8373.134)"><path style="fill:none;stroke:#000;stroke-width:.45500001;stroke-linecap:butt;stroke-linejoin:miter;stroke-miterlimit:4;stroke-dasharray:none;stroke-opacity:1" d="m0 0 6.552-7.02-7.956-7.644-6.474 6.942z" transform="translate(78.27 772.92)"/></g><g clip-path="url(#G)" transform="matrix(10.2205 0 0 -10.2205 -320.595 8373.134)"><path style="fill:none;stroke:#000;stroke-width:.91000003;stroke-linecap:butt;stroke-linejoin:miter;stroke-miterlimit:4;stroke-dasharray:none;stroke-opacity:1" d="M0 0c0-15.468 4.895-26.461 12.418-36.167 8.117-10.47 23.78-16.17 23.78-16.17s13.284 4.378 23.609 16.078C67.348-27.711 72.823-14.603 72.823.312v35.333H-.117z" transform="translate(33.842 776.872)"/></g><g clip-path="url(#H)" transform="matrix(10.2205 0 0 -10.2205 -320.595 8373.134)"><path style="fill:none;stroke:#000;stroke-width:.45500001;stroke-linecap:butt;stroke-linejoin:miter;stroke-miterlimit:4;stroke-dasharray:none;stroke-opacity:1" d="m0 0-10.452 10.764M-25.817-4.29-15.6-14.898M-30.263-8.58l10.296-10.607m5.225 25.739L-4.368-4.29" transform="translate(92.778 769.8)"/></g></svg>