<?xml version="1.0" encoding="UTF-8" standalone="no"?>
<svg
   xmlns:dc="http://purl.org/dc/elements/1.1/"
   xmlns:cc="http://creativecommons.org/ns#"
   xmlns:rdf="http://www.w3.org/1999/02/22-rdf-syntax-ns#"
   xmlns:svg="http://www.w3.org/2000/svg"
   xmlns="http://www.w3.org/2000/svg"
   viewBox="0 0 793.70074 1122.5197"
   height="1122.5197"
   width="793.70074"
   xml:space="preserve"
   id="svg2"
   version="1.1"><metadata
     id="metadata8"><rdf:RDF><cc:Work
         rdf:about=""><dc:format>image/svg+xml</dc:format><dc:type
           rdf:resource="http://purl.org/dc/dcmitype/StillImage" /></cc:Work></rdf:RDF></metadata><defs
     id="defs6"><clipPath
       id="clipPath18"
       clipPathUnits="userSpaceOnUse"><path
         id="path16"
         d="M 0,0 H 595.276 V 841.89 H 0 Z" /></clipPath><clipPath
       id="clipPath26"
       clipPathUnits="userSpaceOnUse"><path
         id="path24"
         d="M -1785.827,-492.945 H 0 v 985.89 h -1785.827 z" /></clipPath><clipPath
       id="clipPath38"
       clipPathUnits="userSpaceOnUse"><path
         id="path36"
         d="M 0,0 H 595.276 V 841.89 H 0 Z" /></clipPath><clipPath
       id="clipPath46"
       clipPathUnits="userSpaceOnUse"><path
         id="path44"
         d="M -1785.827,-492.945 H 0 v 985.89 h -1785.827 z" /></clipPath><clipPath
       id="clipPath80"
       clipPathUnits="userSpaceOnUse"><path
         id="path78"
         d="m 0,-492.945 h 1785.827 v 985.89 H 0 Z" /></clipPath><clipPath
       id="clipPath88"
       clipPathUnits="userSpaceOnUse"><path
         id="path86"
         d="M 0,0 H 595.276 V 841.89 H 0 Z" /></clipPath><clipPath
       id="clipPath96"
       clipPathUnits="userSpaceOnUse"><path
         id="path94"
         d="M -248.5,-347 V 325.9 H 233.39 V -347 Z" /></clipPath><clipPath
       id="clipPath108"
       clipPathUnits="userSpaceOnUse"><path
         id="path106"
         d="M 0,0 H 595.276 V 841.89 H 0 Z" /></clipPath><clipPath
       id="clipPath116"
       clipPathUnits="userSpaceOnUse"><path
         id="path114"
         d="M -248.5,-347 V 325.9 H 233.39 V -347 Z" /></clipPath><clipPath
       id="clipPath128"
       clipPathUnits="userSpaceOnUse"><path
         id="path126"
         d="M 0,0 H 595.276 V 841.89 H 0 Z" /></clipPath><clipPath
       id="clipPath136"
       clipPathUnits="userSpaceOnUse"><path
         id="path134"
         d="M -248.5,-347 V 325.9 H 233.39 V -347 Z" /></clipPath><clipPath
       id="clipPath148"
       clipPathUnits="userSpaceOnUse"><path
         id="path146"
         d="M 0,0 H 595.276 V 841.89 H 0 Z" /></clipPath><clipPath
       id="clipPath156"
       clipPathUnits="userSpaceOnUse"><path
         id="path154"
         d="M -248.5,-347 V 325.9 H 233.39 V -347 Z" /></clipPath><clipPath
       id="clipPath168"
       clipPathUnits="userSpaceOnUse"><path
         id="path166"
         d="M 0,0 H 595.276 V 841.89 H 0 Z" /></clipPath><clipPath
       id="clipPath176"
       clipPathUnits="userSpaceOnUse"><path
         id="path174"
         d="M -248.5,-347 V 325.9 H 233.39 V -347 Z" /></clipPath><clipPath
       id="clipPath188"
       clipPathUnits="userSpaceOnUse"><path
         id="path186"
         d="M 0,0 H 595.276 V 841.89 H 0 Z" /></clipPath><clipPath
       id="clipPath196"
       clipPathUnits="userSpaceOnUse"><path
         id="path194"
         d="M -248.5,-347 V 325.9 H 233.39 V -347 Z" /></clipPath><clipPath
       id="clipPath208"
       clipPathUnits="userSpaceOnUse"><path
         id="path206"
         d="M 0,0 H 595.276 V 841.89 H 0 Z" /></clipPath><clipPath
       id="clipPath216"
       clipPathUnits="userSpaceOnUse"><path
         id="path214"
         d="M -248.5,-347 V 325.9 H 233.39 V -347 Z" /></clipPath><clipPath
       id="clipPath228"
       clipPathUnits="userSpaceOnUse"><path
         id="path226"
         d="M 0,0 H 595.276 V 841.89 H 0 Z" /></clipPath><clipPath
       id="clipPath236"
       clipPathUnits="userSpaceOnUse"><path
         id="path234"
         d="M -248.5,-347 V 325.9 H 233.39 V -347 Z" /></clipPath><clipPath
       id="clipPath248"
       clipPathUnits="userSpaceOnUse"><path
         id="path246"
         d="M 0,0 H 595.276 V 841.89 H 0 Z" /></clipPath><clipPath
       id="clipPath256"
       clipPathUnits="userSpaceOnUse"><path
         id="path254"
         d="M -248.5,-347 V 325.9 H 233.39 V -347 Z" /></clipPath><clipPath
       id="clipPath268"
       clipPathUnits="userSpaceOnUse"><path
         id="path266"
         d="M 0,0 H 595.276 V 841.89 H 0 Z" /></clipPath><clipPath
       id="clipPath276"
       clipPathUnits="userSpaceOnUse"><path
         id="path274"
         d="M -248.5,-347 V 325.9 H 233.39 V -347 Z" /></clipPath><clipPath
       id="clipPath288"
       clipPathUnits="userSpaceOnUse"><path
         id="path286"
         d="M 0,0 H 595.276 V 841.89 H 0 Z" /></clipPath><clipPath
       id="clipPath296"
       clipPathUnits="userSpaceOnUse"><path
         id="path294"
         d="M -248.5,-347 V 325.9 H 233.39 V -347 Z" /></clipPath><clipPath
       id="clipPath308"
       clipPathUnits="userSpaceOnUse"><path
         id="path306"
         d="M 0,0 H 595.276 V 841.89 H 0 Z" /></clipPath><clipPath
       id="clipPath316"
       clipPathUnits="userSpaceOnUse"><path
         id="path314"
         d="M -248.5,-347 V 325.9 H 233.39 V -347 Z" /></clipPath><clipPath
       id="clipPath328"
       clipPathUnits="userSpaceOnUse"><path
         id="path326"
         d="M 0,0 H 595.276 V 841.89 H 0 Z" /></clipPath><clipPath
       id="clipPath336"
       clipPathUnits="userSpaceOnUse"><path
         id="path334"
         d="M -248.5,-347 V 325.9 H 233.39 V -347 Z" /></clipPath><clipPath
       id="clipPath348"
       clipPathUnits="userSpaceOnUse"><path
         id="path346"
         d="M 0,0 H 595.276 V 841.89 H 0 Z" /></clipPath><clipPath
       id="clipPath356"
       clipPathUnits="userSpaceOnUse"><path
         id="path354"
         d="M -248.5,-347 V 325.9 H 233.39 V -347 Z" /></clipPath><clipPath
       id="clipPath368"
       clipPathUnits="userSpaceOnUse"><path
         id="path366"
         d="M 0,0 H 595.276 V 841.89 H 0 Z" /></clipPath><clipPath
       id="clipPath376"
       clipPathUnits="userSpaceOnUse"><path
         id="path374"
         d="M -248.5,-347 V 325.9 H 233.39 V -347 Z" /></clipPath><clipPath
       id="clipPath388"
       clipPathUnits="userSpaceOnUse"><path
         id="path386"
         d="M 0,0 H 595.276 V 841.89 H 0 Z" /></clipPath><clipPath
       id="clipPath396"
       clipPathUnits="userSpaceOnUse"><path
         id="path394"
         d="M -248.5,-347 V 325.9 H 233.39 V -347 Z" /></clipPath><clipPath
       id="clipPath408"
       clipPathUnits="userSpaceOnUse"><path
         id="path406"
         d="M 0,0 H 595.276 V 841.89 H 0 Z" /></clipPath><clipPath
       id="clipPath416"
       clipPathUnits="userSpaceOnUse"><path
         id="path414"
         d="M -248.5,-347 V 325.9 H 233.39 V -347 Z" /></clipPath><clipPath
       id="clipPath428"
       clipPathUnits="userSpaceOnUse"><path
         id="path426"
         d="M 0,0 H 595.276 V 841.89 H 0 Z" /></clipPath><clipPath
       id="clipPath436"
       clipPathUnits="userSpaceOnUse"><path
         id="path434"
         d="M -248.5,-347 V 325.9 H 233.39 V -347 Z" /></clipPath><clipPath
       id="clipPath448"
       clipPathUnits="userSpaceOnUse"><path
         id="path446"
         d="M 0,0 H 595.276 V 841.89 H 0 Z" /></clipPath><clipPath
       id="clipPath456"
       clipPathUnits="userSpaceOnUse"><path
         id="path454"
         d="M -248.5,-347 V 325.9 H 233.39 V -347 Z" /></clipPath><clipPath
       id="clipPath468"
       clipPathUnits="userSpaceOnUse"><path
         id="path466"
         d="M 0,0 H 595.276 V 841.89 H 0 Z" /></clipPath><clipPath
       id="clipPath476"
       clipPathUnits="userSpaceOnUse"><path
         id="path474"
         d="M -248.5,-347 V 325.9 H 233.39 V -347 Z" /></clipPath><clipPath
       id="clipPath488"
       clipPathUnits="userSpaceOnUse"><path
         id="path486"
         d="M 0,0 H 595.276 V 841.89 H 0 Z" /></clipPath><clipPath
       id="clipPath496"
       clipPathUnits="userSpaceOnUse"><path
         id="path494"
         d="M -248.5,-347 V 325.9 H 233.39 V -347 Z" /></clipPath><clipPath
       id="clipPath508"
       clipPathUnits="userSpaceOnUse"><path
         id="path506"
         d="M 0,0 H 595.276 V 841.89 H 0 Z" /></clipPath><clipPath
       id="clipPath516"
       clipPathUnits="userSpaceOnUse"><path
         id="path514"
         d="M -248.5,-347 V 325.9 H 233.39 V -347 Z" /></clipPath><clipPath
       id="clipPath528"
       clipPathUnits="userSpaceOnUse"><path
         id="path526"
         d="M 0,0 H 595.276 V 841.89 H 0 Z" /></clipPath><clipPath
       id="clipPath536"
       clipPathUnits="userSpaceOnUse"><path
         id="path534"
         d="M -248.5,-347 V 325.9 H 233.39 V -347 Z" /></clipPath><clipPath
       id="clipPath548"
       clipPathUnits="userSpaceOnUse"><path
         id="path546"
         d="M 0,0 H 595.276 V 841.89 H 0 Z" /></clipPath><clipPath
       id="clipPath556"
       clipPathUnits="userSpaceOnUse"><path
         id="path554"
         d="M -248.5,-347 V 325.9 H 233.39 V -347 Z" /></clipPath><clipPath
       id="clipPath568"
       clipPathUnits="userSpaceOnUse"><path
         id="path566"
         d="M 0,0 H 595.276 V 841.89 H 0 Z" /></clipPath><clipPath
       id="clipPath576"
       clipPathUnits="userSpaceOnUse"><path
         id="path574"
         d="M -248.5,-347 V 325.9 H 233.39 V -347 Z" /></clipPath><clipPath
       id="clipPath588"
       clipPathUnits="userSpaceOnUse"><path
         id="path586"
         d="M 0,0 H 595.276 V 841.89 H 0 Z" /></clipPath><clipPath
       id="clipPath596"
       clipPathUnits="userSpaceOnUse"><path
         id="path594"
         d="M -248.5,-347 V 325.9 H 233.39 V -347 Z" /></clipPath><clipPath
       id="clipPath608"
       clipPathUnits="userSpaceOnUse"><path
         id="path606"
         d="M 0,0 H 595.276 V 841.89 H 0 Z" /></clipPath><clipPath
       id="clipPath616"
       clipPathUnits="userSpaceOnUse"><path
         id="path614"
         d="M -248.5,-347 V 325.9 H 233.39 V -347 Z" /></clipPath><clipPath
       id="clipPath628"
       clipPathUnits="userSpaceOnUse"><path
         id="path626"
         d="M 0,0 H 595.276 V 841.89 H 0 Z" /></clipPath><clipPath
       id="clipPath636"
       clipPathUnits="userSpaceOnUse"><path
         id="path634"
         d="M -248.5,-347 V 325.9 H 233.39 V -347 Z" /></clipPath><clipPath
       id="clipPath648"
       clipPathUnits="userSpaceOnUse"><path
         id="path646"
         d="M 0,0 H 595.276 V 841.89 H 0 Z" /></clipPath><clipPath
       id="clipPath656"
       clipPathUnits="userSpaceOnUse"><path
         id="path654"
         d="M -248.5,-347 V 325.9 H 233.39 V -347 Z" /></clipPath><clipPath
       id="clipPath668"
       clipPathUnits="userSpaceOnUse"><path
         id="path666"
         d="M 0,0 H 595.276 V 841.89 H 0 Z" /></clipPath><clipPath
       id="clipPath676"
       clipPathUnits="userSpaceOnUse"><path
         id="path674"
         d="M -248.5,-347 V 325.9 H 233.39 V -347 Z" /></clipPath><clipPath
       id="clipPath688"
       clipPathUnits="userSpaceOnUse"><path
         id="path686"
         d="M 0,0 H 595.276 V 841.89 H 0 Z" /></clipPath><clipPath
       id="clipPath696"
       clipPathUnits="userSpaceOnUse"><path
         id="path694"
         d="M -248.5,-347 V 325.9 H 233.39 V -347 Z" /></clipPath><clipPath
       id="clipPath708"
       clipPathUnits="userSpaceOnUse"><path
         id="path706"
         d="M 0,0 H 595.276 V 841.89 H 0 Z" /></clipPath><clipPath
       id="clipPath716"
       clipPathUnits="userSpaceOnUse"><path
         id="path714"
         d="M -248.5,-347 V 325.9 H 233.39 V -347 Z" /></clipPath><clipPath
       id="clipPath728"
       clipPathUnits="userSpaceOnUse"><path
         id="path726"
         d="M 0,0 H 595.276 V 841.89 H 0 Z" /></clipPath><clipPath
       id="clipPath736"
       clipPathUnits="userSpaceOnUse"><path
         id="path734"
         d="M -248.5,-347 V 325.9 H 233.39 V -347 Z" /></clipPath></defs><g
     transform="matrix(1.3333333,0,0,-1.3333333,0,1122.5197)"
     id="g10"><g
       transform="matrix(2.2763824,0,0,2.2763824,-377.42584,-795.54065)"
       id="g12"><g
         clip-path="url(#clipPath18)"
         id="g14"><g
           transform="matrix(1,0,0,-1,0,420.94477)"
           id="g20"><g
             clip-path="url(#clipPath26)"
             id="g22"><g
               transform="translate(-538.59273,-356.49358)"
               id="g28"><path
                 id="path30"
                 style="fill:none;stroke:#000000;stroke-width:0.5;stroke-linecap:butt;stroke-linejoin:miter;stroke-miterlimit:10;stroke-dasharray:none;stroke-opacity:1"
                 d="M 0,0 H 481.9" /></g></g></g></g></g><g
       id="g32"><g
         clip-path="url(#clipPath38)"
         id="g34"><g
           transform="matrix(1,0,0,-1,0,420.94489)"
           id="g40"><g
             clip-path="url(#clipPath46)"
             id="g42"><g
               transform="matrix(1,0,0,-1,0,420.94489)"
               id="g48"><text
                 id="text52"
                 style="font-variant:normal;font-weight:normal;font-size:8px;font-family:ArialMT;-inkscape-font-specification:ArialMT;writing-mode:lr-tb;fill:#000000;fill-opacity:1;fill-rule:nonzero;stroke:none"
                 transform="matrix(1,0,0,-1,-538.5929,780.0232)"><tspan
                   id="tspan50"
                   y="0"
                   x="0 5.336 7.5599999 10.224 14.672">Stran</tspan></text>
<text
                 id="text56"
                 style="font-variant:normal;font-weight:bold;font-size:11px;font-family:Arial;-inkscape-font-specification:Arial-BoldMT;writing-mode:lr-tb;fill:#000000;fill-opacity:1;fill-rule:nonzero;stroke:none"
                 transform="matrix(1,0,0,-1,-516.8324,780.0232)"><tspan
                   id="tspan54"
                   y="0"
                   x="0 5.5110002 11.627 17.743 23.858999 35.481602">11300/</tspan></text>
<text
                 id="text60"
                 style="font-variant:normal;font-weight:normal;font-size:8px;font-family:ArialMT;-inkscape-font-specification:ArialMT;writing-mode:lr-tb;fill:#000000;fill-opacity:1;fill-rule:nonzero;stroke:none"
                 transform="matrix(1,0,0,-1,-473.5448,780.0232)"><tspan
                   id="tspan58"
                   y="0"
                   x="0 5.336 7.5599999">Št.</tspan></text>
<text
                 id="text64"
                 style="font-variant:normal;font-weight:bold;font-size:11px;font-family:Arial;-inkscape-font-specification:Arial-BoldMT;writing-mode:lr-tb;fill:#000000;fill-opacity:1;fill-rule:nonzero;stroke:none"
                 transform="matrix(1,0,0,-1,-461.1241,780.0232)"><tspan
                   id="tspan62"
                   y="0"
                   x="0 6.1160002 12.232 17.732 20.790001 26.290001 32.405998 38.521999 41.580002 44.638 50.754002 53.812 56.869999 62.986 69.101997 75.218002">91 / 16. 8. 2004</tspan></text>
<text
                 id="text68"
                 style="font-variant:normal;font-weight:bold;font-size:10px;font-family:Arial;-inkscape-font-specification:Arial-BoldMT;writing-mode:lr-tb;fill:#000000;fill-opacity:1;fill-rule:nonzero;stroke:none"
                 transform="matrix(1,0,0,-1,-196.21,780.0232)"><tspan
                   id="tspan66"
                   y="0"
                   x="0 7.2199998 11.11 16.67 22.780001 28.889999 31.67 34.450001 37.23 40.009998 45.57 48.900002">Uradni list </tspan></text>
<text
                 id="text72"
                 style="font-variant:normal;font-weight:normal;font-size:10px;font-family:ArialMT;-inkscape-font-specification:ArialMT;writing-mode:lr-tb;fill:#000000;fill-opacity:1;fill-rule:nonzero;stroke:none"
                 transform="matrix(1,0,0,-1,-144.54,780.0232)"><tspan
                   id="tspan70"
                   y="0"
                   x="0 7.2199998 12.78 18.34 23.9 29.459999 31.68 33.900002 38.900002 44.459999 47.240002 53.91 56.130001 61.689999 66.690002 72.25 77.809998 80.029999 82.25">Republike Slovenije</tspan></text>
</g></g></g><g
           transform="matrix(1,0,0,-1,0,420.94489)"
           id="g74"><g
             clip-path="url(#clipPath80)"
             id="g76" /></g></g></g><g
       transform="matrix(2.2763824,0,0,2.2763824,-377.42584,-795.54065)"
       id="g82"><g
         clip-path="url(#clipPath88)"
         id="g84"><g
           transform="matrix(1,0,0,-1,305.1928,416.93689)"
           id="g90"><g
             clip-path="url(#clipPath96)"
             id="g92"><g
               transform="matrix(0.9696149,0,0,-0.9696149,-5.7408724,-291.55947)"
               id="g98"><path
                 id="path100"
                 style="fill:#cab36b;fill-opacity:1;fill-rule:evenodd;stroke:none"
                 d="m 0,0 c 1.58,-2.077 5.031,-2.634 5.588,-5.706 0.672,-1.579 1.024,-3.276 1.141,-5.119 0.41,-0.557 1.259,-0.38 1.785,-0.791 2.077,-1.258 4.36,-2.457 5.968,-4.389 -1.9,-2.194 -4.622,-3.599 -6.231,-5.939 0.057,-0.966 1.695,-1.872 1.578,-3.043 -0.263,-1.757 -0.38,-3.863 -2.283,-4.565 -0.848,-0.761 -1.989,-0.935 -3.131,-0.643 -1.169,0.614 -1.619,1.288 -2.671,1.988 l -0.468,0.352 c -0.497,-1.463 -0.629,-3.066 -0.543,-4.646 0.849,-4.008 0.937,-7.751 4.331,-10.385 3.335,-2.166 7.694,-3.014 11.82,-2.194 2.048,0.643 3.745,2.34 5.414,3.803 1.463,2.487 3.246,4.973 4.505,7.49 0.672,1.463 -1.142,1.872 -1.873,2.72 -1.872,1.58 -2.018,4.068 -1.492,6.32 0.294,0.497 0.526,0.997 0.643,1.551 -2.72,0.937 -4.914,3.103 -6.523,5.503 -0.205,1.608 1.931,1.725 2.925,2.543 2.546,1.348 5.881,2.165 8.806,1.142 2.751,2.634 5.677,4.506 8.691,6.7 1.463,-0.966 1.872,-2.926 2.837,-4.331 1.083,-2.663 2.868,-5.06 2.283,-8.337 3.102,-2.809 6.173,-5.94 7.316,-9.948 l -0.411,-0.38 c -2.223,-0.88 -5.031,-1.26 -7.548,-0.645 -1.054,-1.258 -1.991,-3.043 -3.775,-3.54 -1.696,-0.557 -3.657,0.936 -4.77,-0.937 -0.935,-3.423 -0.117,-7.023 1.522,-9.831 1.669,-3.131 3.921,-7.022 7.96,-7.314 4.591,-0.966 9.128,0.614 11.731,4.477 1.611,2.75 2.165,6.173 1.728,9.539 0.234,1.637 -0.382,3.188 -0.586,4.768 -0.411,1.463 -0.937,2.926 -1.199,4.418 -0.352,0.088 -0.498,0.497 -0.294,0.762 h 0.936 c 4.155,1.52 7.689,1.333 9.831,-3.191 2.751,2.517 6.468,3.365 9.745,4.506 0.731,0.351 1.666,0.117 2.486,0.205 -0.117,-1.229 -1.551,-1.463 -2.194,-2.486 -7.286,-7.316 -12.728,-15.479 -17.877,-24.286 -3.922,-5.909 -5.385,-13.108 -8.251,-19.516 -0.411,-1.141 -0.585,-2.223 -1.317,-3.13 -8.836,2.224 -18.316,3.629 -27.65,5.003 -10.973,1.669 -23.027,0.761 -33.794,1.141 -14.308,-0.204 -27.708,-3.101 -41.167,-5.706 -0.877,0.849 -0.731,2.194 -1.142,3.248 -2.809,6.76 -4.506,13.957 -8.514,20.16 -2.283,4.359 -5.208,8.367 -7.842,12.407 -3.598,4.914 -7.403,9.42 -11.849,13.808 2.049,0.615 3.629,-0.614 5.295,-0.935 2.634,-0.645 4.945,-2.194 7.111,-3.862 2.535,3.067 5.989,4.384 10.591,3.306 -0.117,-1.521 -0.732,-3.014 -1.258,-4.449 -1.171,-6.085 -1.989,-14.042 3.629,-17.993 3.482,-2.751 8.953,-2.546 12.668,-0.557 2.927,1.903 4.36,5.443 5.705,8.516 0.206,1.96 1.2,3.92 0.557,5.852 -0.088,0.994 -0.468,2.077 -1.405,2.485 -2.341,-0.234 -5.178,-0.203 -6.554,2.372 0,2.428 -2.398,0.468 -3.686,0.936 -1.785,0.029 -3.511,0.438 -5.003,1.2 1.052,3.511 3.072,6.7 6.26,8.894 1.903,0.877 0.763,2.868 1.2,4.389 1.229,3.248 2.488,6.525 4.654,9.362 h 0.554 c 2.809,-2.486 6.174,-4.154 8.749,-6.905 4.185,1.697 8.076,-0.818 11.41,-2.866 0.089,-1.494 -1.228,-2.577 -2.368,-3.571 -1.083,-1.346 -2.634,-1.989 -4.038,-2.749 0.672,-1.522 0.966,-3.308 0.849,-5.005 -0.528,-2.194 -2.488,-3.012 -3.98,-4.477 0.555,-1.988 1.668,-3.803 2.837,-5.471 1.991,-3.714 5.326,-7.577 10.037,-7.285 4.797,0.205 9.802,1.58 12.317,5.648 2.342,3.334 2.636,7.754 2.021,11.733 -0.848,0.058 -1.374,-1.054 -2.282,-1.405 -1.375,-0.526 -2.837,-1.375 -4.243,-0.38 -1.228,0.731 -2.34,1.931 -2.397,3.423 -0.674,1.374 0.028,2.896 0.671,4.068 0.089,0.614 -0.409,1.052 -0.671,1.431 l -5.591,4.917 c 1.931,2.574 4.8,3.891 7.579,4.915 0.44,4.213 1.872,8.896 6.466,10.299 1.494,0.702 2.572,2.371 3.978,2.985 z" /></g></g></g></g></g><g
       transform="matrix(2.2763824,0,0,2.2763824,-377.42584,-795.54065)"
       id="g102"><g
         clip-path="url(#clipPath108)"
         id="g104"><g
           transform="matrix(1,0,0,-1,305.1928,416.93689)"
           id="g110"><g
             clip-path="url(#clipPath116)"
             id="g112"><g
               transform="matrix(0.9696149,0,0,-0.9696149,98.089176,-214.92926)"
               id="g118"><path
                 id="path120"
                 style="fill:#cab36b;fill-opacity:1;fill-rule:evenodd;stroke:none"
                 d="m 0,0 c 5.909,-3.979 16.005,-1.023 18.93,-9.274 0.235,-1.26 -0.234,-2.751 -1.228,-3.688 -1.083,-1.14 -2.84,-1.111 -3.688,-2.369 l 0.76,-1.493 5.385,-5.909 c -0.38,-0.762 -1.522,-0.849 -2.283,-1.288 -4.242,-0.557 -9.976,-1.434 -12.699,2.72 0.06,0.382 -0.174,0.614 -0.351,0.848 -1.346,-1.199 -1.346,-3.277 -2.077,-4.914 -1.374,-3.16 -3.48,-7.228 -6.934,-8.545 0.557,-0.76 1.991,-0.906 2.956,-1.491 5.412,-2.369 11.703,-6.146 13.605,-12.114 2.78,-8.134 2.575,-18.519 -2.342,-25.542 l -4.476,-4.77 c -0.292,-1.404 1.434,-2.077 1.902,-3.394 2.194,-2.838 3.102,-6.378 3.628,-10.035 -0.526,-3.042 -0.702,-6.262 -2.779,-8.69 -0.235,-2.692 2.691,-4.009 2.574,-6.614 1.697,-4.154 -0.438,-8.103 -2.574,-11.38 -0.321,-0.528 -0.586,-1.228 -0.469,-1.785 1.991,-3.248 3.454,-7.403 1.991,-11.382 -0.177,-1.434 -0.937,-2.897 -2.371,-3.569 -2.517,-2.897 1.785,-4.565 1.785,-7.316 0.526,-3.306 -0.965,-6.466 -2.925,-9.069 -0.791,-0.44 -2.108,-0.528 -1.991,-1.845 1.434,-2.925 1.874,-7.314 0,-10.182 -0.732,-1.315 -2.252,-1.52 -3.569,-1.901 l 0.175,-0.293 c -0.263,-1.58 0.645,-3.832 -0.731,-5.209 l -0.146,-0.554 c -0.995,-2.049 -3.483,-2.137 -5.56,-1.991 -4.417,1.113 -5.471,6.028 -6.466,9.948 -3.159,2.662 -3.599,7.257 -3.657,11.442 0.906,0.906 -0.468,1.608 -0.674,2.368 -1.842,3.863 -3.394,9.188 -1.228,13.46 -1.054,2.868 -3.043,5.559 -3.335,8.896 -0.497,2.72 0.175,5.148 0.117,7.84 0.264,0.762 0.878,1.551 0.467,2.488 -1.229,1.58 -1.463,3.568 -1.872,5.471 -0.848,3.306 0.791,5.763 0.352,8.982 -0.323,0.643 -1.346,1.375 -1.989,0.586 -1.143,-1.668 -1.814,-3.54 -3.394,-4.917 -1.143,0.235 -1.874,1.112 -2.283,2.166 -0.586,3.599 -0.411,7.811 1.697,10.796 1.229,2.312 3.774,3.717 6.466,3.803 2.516,0.383 5.033,-0.848 6.262,-2.954 1.169,-1.754 0.234,-4.037 -0.703,-5.588 -1.405,-1.054 -1.551,-2.955 -1.405,-4.623 1.171,-2.311 2.342,-4.828 2.926,-7.462 0.791,-3.217 -0.935,-5.471 -1.315,-8.337 0.643,-2.928 2.895,-5.18 2.837,-8.369 0.468,-2.925 0.058,-5.97 -0.76,-8.633 1.637,-2.954 2.311,-6.377 2.34,-10.034 0,-1.405 -0.175,-2.956 -1.492,-3.951 3.512,-2.954 4.243,-7.49 4.477,-12.025 -0.322,-0.76 -0.294,-1.491 0.146,-2.194 0.614,-0.469 1.346,-0.643 2.194,-0.557 3.746,2.108 0.263,7.228 2.575,10.125 0.497,1.58 2.194,2.4 2.633,3.891 -0.994,1.668 -2.019,3.54 -1.345,5.706 0.818,2.194 2.691,3.891 2.983,6.319 -0.906,1.112 -1.58,2.166 -2.106,3.511 -1.463,3.335 -1.463,7.637 -1.14,11.382 0.466,1.492 1.726,2.663 1.988,4.243 -1.988,3.832 -2.574,9.071 -1.316,13.431 l 0.293,0.262 c 0.292,1.609 0.849,3.072 1.287,4.564 -0.672,1.551 -2.546,2.019 -2.634,3.891 l -0.292,0.294 c -0.849,4.68 -1.931,10.445 0.674,14.659 0.437,0.614 -0.294,1.023 -0.732,1.14 -1.142,-0.117 -1.845,0.849 -2.779,1.229 -3.277,1.111 -5.971,3.54 -8.603,5.851 -1.991,2.81 -3.248,7.316 -1.228,10.622 1.14,1.814 3.246,3.451 5.5,3.686 1.785,0 3.482,-0.615 4.534,-1.989 1.463,-2.077 2.077,-5.56 0.586,-7.754 -0.323,-1.229 0.059,-2.311 0.848,-3.131 1.463,-1.023 3.248,-1.551 5.208,-1.14 3.189,0.965 5.589,3.949 6.408,6.991 0.235,2.108 0.029,3.98 -0.176,6.057 -0.555,1.348 -0.38,2.956 -1.258,4.185 -0.439,0.732 -0.351,1.785 -1.288,2.166 -2.895,-1.317 -5.5,-3.337 -8.543,-4.272 -1.14,-0.205 -2.399,-0.06 -3.277,0.555 -1.228,1.843 -0.057,4.302 -0.702,6.379 -0.643,2.194 -2.34,4.711 -4.828,5.208 -1.843,0.409 -2.926,-0.965 -3.861,-2.194 -0.762,-3.628 1.463,-6.408 2.632,-9.481 -0.643,-0.995 -1.872,-1.463 -3.131,-1.492 -2.106,-0.877 -5.149,-1.054 -5.851,-3.686 -0.732,-4.243 4.185,-5.12 5.12,-8.836 0.585,-0.674 0.468,-1.726 0.468,-2.546 -0.263,-1.257 -1.609,-1.374 -2.574,-1.785 -0.937,0.234 -1.989,0.029 -2.546,-0.789 -0.206,-1.054 -1.346,-1.845 -1.872,-2.694 -1.756,-2.632 -3.014,-5.557 -4.77,-8.162 -1.023,4.593 -0.732,9.685 -1.286,14.484 0.614,2.106 -0.469,4.212 0.145,6.349 0.264,8.69 1.112,17.087 5.969,23.846 1.814,3.043 4.565,5.324 7.139,7.869 -3.833,1.845 -8.076,3.834 -9.773,7.931 0.088,0.526 -0.349,0.82 -0.466,1.257 -1.523,5.003 2.105,9.305 5.674,12.319 3.277,2.077 8.251,2.194 11.471,-0.117 0.965,-1.26 2.399,-2.488 2.048,-4.36 -0.263,-2.311 -1.405,-4.097 -3.131,-5.559 -1.2,-0.409 -2.371,-1.141 -3.657,-1.141 -0.703,-0.731 -0.586,-1.814 -0.76,-2.751 0.174,-1.462 0.848,-2.779 2.163,-3.511 4.008,-1.025 7.725,1.551 9.862,4.623 1.463,1.083 0.935,3.277 2.282,4.565 1.433,4.914 1.287,11.088 0.438,16.385 -1.374,3.774 -4.623,6.494 -8.485,7.46 -4.389,1.551 -10.036,1.551 -14.425,0 -0.497,0.38 -0.731,-0.438 -1.229,-0.352 -4.856,-1.842 -9.45,-4.359 -13.896,-7.314 -3.777,-2.779 -7.725,-5.383 -11.179,-8.69 -3.129,-1.784 -5.705,-5.003 -9.449,-4.915 -0.528,0.146 -0.733,0.789 -0.411,1.2 5.034,3.832 10.768,7.577 13.285,13.546 0.554,1.814 0.292,4.01 -0.849,5.385 -1.142,1.111 -2.399,1.96 -3.979,1.988 -0.411,0.586 0,1.229 0.146,1.815 0.468,0.556 1.199,0.673 1.843,0.468 1.99,-0.937 4.008,-2.457 5.119,-4.448 0.323,-1.666 0.44,-3.48 0.646,-5.208 0.643,-0.818 1.169,0.322 1.783,0.411 4.508,2.866 9.276,5.471 14.221,7.46 5.529,2.37 12.551,3.014 18.668,1.317 C -5.822,3.366 -2.897,1.755 0,0 Z" /></g></g></g></g></g><g
       transform="matrix(2.2763824,0,0,2.2763824,-377.42584,-795.54065)"
       id="g122"><g
         clip-path="url(#clipPath128)"
         id="g124"><g
           transform="matrix(1,0,0,-1,305.1928,416.93689)"
           id="g130"><g
             clip-path="url(#clipPath136)"
             id="g132"><g
               transform="matrix(0.9696149,0,0,-0.9696149,-10.189369,-213.93918)"
               id="g138"><path
                 id="path140"
                 style="fill:#cab36b;fill-opacity:1;fill-rule:evenodd;stroke:none"
                 d="m 0,0 c 0.586,-0.848 0.586,-1.902 1.2,-2.722 0.614,0.965 0.643,2.225 1.432,3.102 2.399,3.863 6.905,6.38 11.733,5.383 2.809,-0.994 3.834,-3.891 3.98,-6.7 0.059,-2.486 -1.609,-4.857 -3.686,-5.88 -1.376,-0.497 -2.605,-0.205 -3.979,-0.177 -0.703,-0.437 -0.792,-1.403 -0.586,-2.194 0.994,-2.517 3.569,-3.774 6.174,-3.979 3.451,-0.235 6.905,1.522 8.631,4.359 1.171,1.814 1.2,4.126 1.405,6.38 1.2,0.643 2.369,-0.381 3.394,-0.995 2.926,-2.779 3.803,-6.905 3.335,-11.179 0.556,-0.848 1.902,-0.32 2.634,-0.057 2.662,1.083 3.948,4.097 4.271,6.614 -0.263,0.38 -0.789,-0.089 -1.14,0.203 -1.991,0.908 -3.131,2.926 -3.308,5.12 0.294,2.897 2.165,5.736 5.091,6.408 3.805,0.497 6.994,-1.843 9.188,-4.711 1.874,-3.072 0.965,-7.372 -0.937,-10.151 -6.289,-9.54 -19.134,-7.403 -29.464,-7.257 -5.646,0.76 -12.025,1.52 -15.125,6.7 -1.611,1.58 -2.225,3.862 -3.132,5.882 -0.965,-3.454 -3.248,-7.023 -6.436,-9.188 -7.14,-3.891 -16.445,-3.688 -25.133,-3.394 -7.169,0.057 -14.63,3.452 -17.293,10.094 -1.317,2.34 -0.732,5.648 0.585,7.782 1.58,2.343 3.951,3.454 6.263,4.537 2.223,0.643 4.388,-0.615 5.968,-1.991 1.434,-1.609 2.017,-3.949 1.609,-6.143 -1.112,-1.463 -2.049,-3.688 -4.243,-3.511 -0.323,-0.674 0.117,-1.229 0.351,-1.786 0.409,-2.34 2.283,-4.739 4.623,-5.296 0.586,-0.087 1.288,-0.292 1.726,0 0.848,0.614 0.031,1.462 0.117,2.282 0.088,4.068 1.054,8.457 5.091,10.183 0.645,-0.029 1.083,0.585 1.697,0.205 0.557,-1.054 0.117,-2.517 0.411,-3.688 0.76,-3.16 3.217,-6.554 6.7,-6.991 3.014,-0.646 6.554,-0.411 8.542,2.428 0.411,0.877 1.26,2.165 0.352,3.131 -0.76,0.643 -1.58,0.058 -2.34,0.086 -1.434,0 -2.546,0.645 -3.628,1.434 -1.698,1.815 -2.195,4.331 -1.698,6.817 0.732,1.757 1.171,3.629 3.132,4.36 0.525,0.44 1.257,0.323 1.9,0.468 C -6.174,6.231 -2.048,3.891 0,0 Z" /></g></g></g></g></g><g
       transform="matrix(2.2763824,0,0,2.2763824,-377.42584,-795.54065)"
       id="g142"><g
         clip-path="url(#clipPath148)"
         id="g144"><g
           transform="matrix(1,0,0,-1,305.1928,416.93689)"
           id="g150"><g
             clip-path="url(#clipPath156)"
             id="g152"><g
               transform="matrix(0.9696149,0,0,-0.9696149,-72.801087,-209.20795)"
               id="g158"><path
                 id="path160"
                 style="fill:#cab36b;fill-opacity:1;fill-rule:evenodd;stroke:none"
                 d="M 0,0 C 0.35,-0.088 0.615,0.117 0.849,0.352 1.081,2.866 0.409,5.94 2.926,7.754 4.592,8.66 5.851,10.649 7.928,9.948 8.28,9.391 8.66,8.66 8.397,7.957 6.466,7.431 3.861,6.289 3.48,3.978 2.546,-3.511 10.123,-7.373 14.863,-11.676 c 0.76,-0.643 2.488,-1.052 2.223,-2.28 -0.995,-0.849 -2.458,0 -3.569,0.409 -7.023,3.511 -12.436,10.122 -19.282,13.899 -4.242,2.777 -8.719,4.885 -13.313,6.64 -1.726,0.146 -3.569,0.791 -5.471,0.965 -5.003,0.206 -9.743,-0.643 -13.751,-3.217 -3.395,-2.808 -5.12,-6.934 -4.712,-11.645 -0.322,-5.823 0.79,-11.294 4.155,-15.742 1.58,-1.551 3.219,-3.131 5.414,-3.571 1.199,-0.497 3.394,-0.817 4.331,0.294 1.257,0.994 1.96,2.517 1.637,4.126 -0.117,0.788 -0.323,1.462 -0.937,1.988 -1.434,-0.234 -2.282,0.792 -3.54,0.937 -2.077,1.523 -3.043,4.068 -3.1,6.554 0.497,2.194 2.369,3.746 4.358,4.623 4.77,1.434 9.598,-0.352 12.61,-4.331 2.079,-2.603 3.571,-6.554 1.991,-9.831 -0.585,-2.135 -2.283,-4.066 -4.125,-5.323 -1.843,-1.142 -3.717,-2.283 -5.765,-3.131 7.199,-6.145 12.493,-15.099 12.727,-24.87 0.323,-5.706 0.849,-10.183 0.646,-15.859 -0.646,-3.717 -0.294,-7.9 -1.054,-11.588 -1.874,2.546 -3.366,5.736 -5.297,8.603 -0.995,0.848 -1.052,1.962 -2.252,2.81 -1.463,-0.148 -3.043,0.146 -3.979,1.229 -0.937,1.666 0.408,3.16 1.054,4.563 1.491,2.428 5.354,4.536 3.86,8.105 -1.783,2.4 -4.914,2.751 -7.694,3.423 -0.351,0.38 -0.966,0.585 -1.14,1.142 1.111,3.014 3.54,5.823 2.574,9.48 -0.849,0.937 -1.668,2.134 -3.131,2.048 -2.312,-0.029 -4.185,-2.048 -5.208,-3.922 -0.703,-1.403 -0.527,-3.218 -0.557,-4.769 0.148,-1.082 0.265,-2.603 -0.878,-3.131 -4.008,-1.257 -7.139,1.932 -10.474,3.511 -0.351,0.146 -0.731,0.411 -1.053,0.264 -2.223,-2.663 -2.312,-6.232 -2.838,-9.626 0.146,-1.814 0.321,-3.891 1.346,-5.471 1.843,-2.517 4.74,-5.091 8.191,-4.185 1.669,0.205 3.22,1.259 3.629,2.839 0.088,1.023 -0.438,1.785 -0.643,2.634 -1.229,2.252 0.057,4.974 1.199,7.02 1.551,1.494 4.243,1.963 6.261,1.025 2.399,-1.288 4.039,-3.57 4.419,-6.262 0.614,-4.739 -2.723,-8.719 -6.408,-11.234 -2.634,-1.228 -5.091,-2.897 -7.871,-3.774 -0.089,-1.786 1.697,-2.722 1.522,-4.625 0.175,-5.471 0.732,-11.731 -3.774,-15.068 0.292,-1.374 1.229,-2.457 1.375,-3.862 1.814,-4.389 1.317,-10.416 -0.995,-14.394 0.526,-1.874 1.931,-3.074 2.252,-5.034 0.762,-4.711 -0.234,-9.216 -2.457,-12.962 -0.586,-0.292 -0.323,-0.934 -0.849,-1.14 0,-3.628 4.389,-5.442 3.043,-9.393 -0.089,-1.198 -1.755,-2.018 -1.14,-3.277 2.691,-2.252 4.008,-5.969 3.131,-9.48 -0.177,-1.666 0.76,-3.043 1.989,-3.977 0.848,-0.117 1.491,0.174 2.165,0.437 l 0.468,0.849 c -0.439,4.242 0.527,8.045 2.283,11.47 0.497,1.023 3.043,1.843 1.286,3.129 -1.697,1.348 -0.672,4.039 -0.848,5.971 0.731,2.077 0.731,4.768 2.194,6.554 0,0.408 0.088,0.848 -0.292,1.14 -1.317,5.325 -0.674,11.733 2.369,16.181 -0.409,2.106 -1.814,4.009 -1.432,6.523 -0.469,3.892 1.843,6.643 3.129,9.831 0.703,4.039 -5.177,6.028 -2.252,10.154 1.112,1.608 3.043,2.78 5.178,2.662 2.399,-0.174 4.682,-0.614 6.467,-2.194 2.517,-3.453 3.423,-7.988 2.575,-12.493 -0.323,-0.791 -0.849,-1.523 -1.726,-1.903 -0.937,0 -1.112,0.937 -1.697,1.434 -1.377,1.171 -1.054,3.92 -3.483,3.774 -1.462,-1.023 -0.585,-2.925 -0.702,-4.446 1.288,-4.185 -0.117,-8.427 -1.697,-12.027 1.668,-3.16 0.879,-6.934 0.674,-10.502 -0.615,-2.341 -1.377,-4.683 -2.634,-6.643 -0.906,-1.257 0.351,-2.399 0.556,-3.568 0.204,-4.623 -0.38,-9.1 -3.102,-12.611 0.877,-1.377 0.146,-3.248 0.263,-4.828 -0.526,-0.878 -0.263,-2.077 -0.849,-2.926 -0.408,-1.785 -1.696,-3.277 -2.748,-4.74 -0.732,-4.068 -2.137,-8.836 -6.731,-9.831 -2.135,-0.265 -4.388,0.234 -5.471,2.252 -0.703,1.843 -0.703,3.863 -0.409,5.851 -1.902,0.294 -3.628,1.054 -4.36,3.045 -1.054,2.749 -0.528,6.232 0.672,8.717 0.06,0.732 -0.175,1.494 -0.877,1.786 -1.054,-0.409 -1.405,0.819 -1.989,1.257 -1.377,2.429 -2.78,5.326 -2.048,8.485 0.263,2.46 3.979,4.36 1.491,6.906 -2.72,1.962 -3.042,5.911 -2.634,8.896 0.528,2.28 1.523,4.271 2.46,6.377 -1.377,3.191 -3.892,6.028 -3.688,9.919 0.117,2.809 0.966,5.414 2.634,7.491 0.497,1.258 0.468,2.603 -0.643,3.54 -3.746,6.729 -0.88,14.922 3.774,20.159 l -0.352,0.908 c -4.068,3.16 -6.028,7.52 -7.782,12.025 -1.494,4.915 -1.288,11.089 0.174,15.917 1.112,3.336 2.575,6.379 5.414,8.777 3.686,3.219 8.075,4.799 12.231,7.022 -5.122,1.611 -6.76,7.199 -8.457,11.645 0,0.674 -0.234,1.288 -0.643,1.814 -0.616,0.089 -0.791,-0.643 -0.937,-1.052 -2.165,-3.014 -6.028,-3.248 -9.596,-3.131 -1.843,0.409 -3.746,0.643 -5.354,1.638 2.105,2.342 4.446,4.653 6.202,7.344 -0.031,0.732 -0.762,0.732 -1.025,1.258 -1.697,0.411 -2.983,1.843 -3.774,3.306 -0.234,2.459 1.463,4.945 3.657,6.322 4.302,2.046 9.363,2.163 13.753,3.92 5.031,3.042 10.123,6.085 16.356,6.114 9.888,0.176 18.491,-4.243 26.333,-9.04 z" /></g></g></g></g></g><g
       transform="matrix(2.2763824,0,0,2.2763824,-377.42584,-795.54065)"
       id="g162"><g
         clip-path="url(#clipPath168)"
         id="g164"><g
           transform="matrix(1,0,0,-1,305.1928,416.93689)"
           id="g170"><g
             clip-path="url(#clipPath176)"
             id="g172"><g
               transform="matrix(0.9696149,0,0,-0.9696149,82.132417,-209.64825)"
               id="g178"><path
                 id="path180"
                 style="fill:#cab36b;fill-opacity:1;fill-rule:evenodd;stroke:none"
                 d="m 0,0 c -5.939,-4.273 -12.931,-8.428 -16.473,-14.893 -2.603,-0.294 -5.763,-0.206 -8.717,-0.088 -0.294,0.145 -0.206,0.585 -0.089,0.731 6.466,4.594 12.551,11.059 20.071,13.956 C -3.569,0.058 -1.257,1.432 0,0 Z" /></g></g></g></g></g><g
       transform="matrix(2.2763824,0,0,2.2763824,-377.42584,-795.54065)"
       id="g182"><g
         clip-path="url(#clipPath188)"
         id="g184"><g
           transform="matrix(1,0,0,-1,305.1928,416.93689)"
           id="g190"><g
             clip-path="url(#clipPath196)"
             id="g192"><g
               transform="matrix(0.9696149,0,0,-0.9696149,-86.006563,-204.58628)"
               id="g198"><path
                 id="path200"
                 style="fill:#cab36b;fill-opacity:1;fill-rule:evenodd;stroke:none"
                 d="m 0,0 c 4.417,-2.897 8.339,-6.702 12.405,-9.948 l -0.468,-0.294 H 3.891 C 0.088,-4.039 -6.877,0.321 -12.962,4.417 -12.991,4.74 -12.933,5.091 -12.611,5.208 -7.754,5.237 -3.98,2.223 0,0 Z" /></g></g></g></g></g><g
       transform="matrix(2.2763824,0,0,2.2763824,-377.42584,-795.54065)"
       id="g202"><g
         clip-path="url(#clipPath208)"
         id="g204"><g
           transform="matrix(1,0,0,-1,305.1928,416.93689)"
           id="g210"><g
             clip-path="url(#clipPath216)"
             id="g212"><g
               transform="matrix(0.9696149,0,0,-0.9696149,-65.116792,-37.832295)"
               id="g218"><path
                 id="path220"
                 style="fill:#cab36b;fill-opacity:1;fill-rule:evenodd;stroke:none"
                 d="m 0,0 c 2.603,-2.234 4.914,-5.026 6.466,-7.908 2.868,-3.439 4.828,-9.467 10.124,-9.995 1.697,0.118 3.861,-0.353 5.003,0.764 -0.263,5.967 2.223,11.671 7.871,14.082 3.628,1.763 8.074,0.528 11.323,-1.146 1.725,-1.088 3.305,-2.941 3.628,-4.94 -0.294,-2.528 -1.288,-5.35 -4.068,-5.996 -4.009,-0.617 -9.714,2.822 -11.849,-2.205 -0.731,-1.47 -0.879,-3.645 -0.088,-5.233 1.171,-2.499 3.891,-4.027 6.349,-4.85 6.174,-0.294 12.61,-0.207 17.79,2.497 0.937,0.884 2.106,1.912 1.608,3.352 -0.994,5.205 -9.625,3.293 -8.308,9.585 0.848,1.791 2.926,2.644 4.914,2.644 3.16,-0.44 5.969,-1.823 8.223,-4.292 2.954,2.412 5.997,4.94 10.182,3.999 1.609,-0.442 2.897,-1.676 3.248,-3.292 0,-2.294 -1.931,-3.557 -3.688,-4.498 -2.194,-0.294 -4.095,-2.03 -4.826,-4.088 -0.382,-1.381 0.466,-2.557 1.403,-3.41 5.003,-2.586 10.768,-2.939 16.882,-2.675 3.131,-0.116 5.648,2.411 7.257,4.733 1.083,1.47 0.908,3.734 0.205,5.233 -0.791,1.177 -1.785,2.822 -3.336,2.999 -3.569,0.411 -7.957,-1.882 -10.971,0.853 -1.171,1.587 -2.049,3.792 -1.406,5.879 2.4,4.116 7.345,6.232 12.319,5.408 5.149,-0.91 8.923,-5.379 9.831,-10.434 0.323,-1.499 0.146,-3.439 0.469,-4.705 3.014,-0.471 6.845,-0.939 9.185,1.559 5.326,6.232 8.34,15.403 16.679,18.256 4.506,1.88 10.708,1.762 14.162,-2.087 2.252,-1.794 3.1,-4.822 3.071,-7.733 -0.322,-1.117 -0.468,-2.44 -1.228,-3.292 -1.989,-2.94 -5.56,-5.38 -9.188,-4.585 -1.58,0.617 -4.008,0.468 -4.534,2.38 -0.146,2.236 2.545,2.822 3.568,4.38 0.352,0.999 1.406,1.912 1.551,3.146 -0.057,1.734 -0.877,3.381 -2.282,4.263 -6.963,0.823 -10.563,-5.497 -14.014,-10.29 -2.459,-4.409 -6.028,-9.582 -11.47,-10.435 -4.36,-0.118 -8.134,-2.264 -10.972,-5.439 -1.873,-0.882 -3.687,-1.998 -5.619,-2.733 -0.643,0.235 -0.935,-0.5 -1.491,-0.413 -6.554,-1.616 -13.02,-0.293 -19.222,1.059 -0.586,-0.089 -1.172,0.177 -1.64,-0.207 2.774,-4.576 5.455,-15.013 -4.074,-15.104 -9.054,-0.086 -7.197,10.121 -4.206,14.753 0.235,0.529 -0.38,0.558 -0.674,0.647 -4.388,-0.296 -8.191,-2.001 -12.785,-1.883 -6.379,-0.235 -12.67,1.765 -17.322,6.467 -2.868,3.794 -8.514,1.53 -12.025,4.263 -5.062,2.941 -6.465,8.556 -10.124,12.759 -2.341,3.499 -5.589,6.496 -9.949,6.849 -1.608,0.295 -2.631,-1.088 -3.276,-2.294 l -0.409,-2.351 c 0.263,-1.352 1.405,-2.086 1.902,-3.35 1.141,-1.234 3.569,-2.411 2.926,-4.38 -1.843,-1.676 -4.506,-2.411 -7.286,-1.912 -3.687,0.442 -6.379,3.91 -7.373,7.145 -0.877,4.38 2.019,7.965 5.383,10.17 C -11.09,5.204 -4.505,2.793 0,0 Z" /></g></g></g></g></g><g
       transform="matrix(2.2763824,0,0,2.2763824,-377.42584,-795.54065)"
       id="g222"><g
         clip-path="url(#clipPath228)"
         id="g224"><g
           transform="matrix(1,0,0,-1,305.1928,416.93689)"
           id="g230"><g
             clip-path="url(#clipPath236)"
             id="g232"><g
               transform="matrix(0.9696149,0,0,-0.9696149,65.364867,-58.727011)"
               id="g238"><path
                 id="path240"
                 style="fill:#398fd1;fill-opacity:1;fill-rule:evenodd;stroke:none"
                 d="m 0,0 c -1.329,-6.293 -7.857,-13.115 -14.002,-14.77 -2.51,-0.62 -5.374,-0.323 -7.857,-0.944 h -32.315 c -5.936,0.621 -12.936,-0.354 -16.895,-5.672 -1.359,-2.155 -3.13,-4.136 -4.312,-6.38 h -0.384 c -2.097,3.928 -4.667,7.799 -8.774,10.221 -7.087,3.603 -15.684,1.122 -23.688,1.713 -9.452,0.029 -19.14,-0.62 -28.592,0.56 l -4.669,1.655 c -4.222,2.717 -8.269,6.586 -9.273,11.578 -0.975,7.828 -0.502,15.896 -0.562,23.753 l -0.295,114.007 151.529,0.03 z" /></g></g></g></g></g><g
       transform="matrix(2.2763824,0,0,2.2763824,-377.42584,-795.54065)"
       id="g242"><g
         clip-path="url(#clipPath248)"
         id="g244"><g
           transform="matrix(1,0,0,-1,305.1928,416.93689)"
           id="g250"><g
             clip-path="url(#clipPath256)"
             id="g252"><g
               transform="matrix(0.9696149,0,0,-0.9696149,-61.751841,-232.79761)"
               id="g258"><path
                 id="path260"
                 style="fill:#ffffff;fill-opacity:1;fill-rule:evenodd;stroke:none"
                 d="M 0,0 12.592,-0.594 3.036,-8.815 Z" /></g></g></g></g></g><g
       transform="matrix(2.2763824,0,0,2.2763824,-377.42584,-795.54065)"
       id="g262"><g
         clip-path="url(#clipPath268)"
         id="g264"><g
           transform="matrix(1,0,0,-1,305.1928,416.93689)"
           id="g270"><g
             clip-path="url(#clipPath276)"
             id="g272"><g
               transform="matrix(0.9696149,0,0,-0.9696149,-20.134321,-235.8647)"
               id="g278"><path
                 id="path280"
                 style="fill:#ffffff;fill-opacity:1;fill-rule:evenodd;stroke:none"
                 d="m 0,0 11.538,4.603 11.946,-4.72 -11.946,-4.72 z" /></g></g></g></g></g><g
       transform="matrix(2.2763824,0,0,2.2763824,-377.42584,-795.54065)"
       id="g282"><g
         clip-path="url(#clipPath288)"
         id="g284"><g
           transform="matrix(1,0,0,-1,305.1928,416.93689)"
           id="g290"><g
             clip-path="url(#clipPath296)"
             id="g292"><g
               transform="matrix(0.9696149,0,0,-0.9696149,6.8123439,-235.53765)"
               id="g298"><path
                 id="path300"
                 style="fill:#ffffff;fill-opacity:1;fill-rule:evenodd;stroke:none"
                 d="M 0,0 12.003,3.2 23.304,-2.906 10.882,-6.173 Z" /></g></g></g></g></g><g
       transform="matrix(2.2763824,0,0,2.2763824,-377.42584,-795.54065)"
       id="g302"><g
         clip-path="url(#clipPath308)"
         id="g304"><g
           transform="matrix(1,0,0,-1,305.1928,416.93689)"
           id="g310"><g
             clip-path="url(#clipPath316)"
             id="g312"><g
               transform="matrix(0.9696149,0,0,-0.9696149,-23.207418,-235.72391)"
               id="g318"><path
                 id="path320"
                 style="fill:#ffffff;fill-opacity:1;fill-rule:evenodd;stroke:none"
                 d="m 0,0 -12.003,3.2 -11.301,-6.106 12.422,-3.267 z" /></g></g></g></g></g><g
       transform="matrix(2.2763824,0,0,2.2763824,-377.42584,-795.54065)"
       id="g322"><g
         clip-path="url(#clipPath328)"
         id="g324"><g
           transform="matrix(1,0,0,-1,305.1928,416.93689)"
           id="g330"><g
             clip-path="url(#clipPath336)"
             id="g332"><g
               transform="matrix(0.9696149,0,0,-0.9696149,44.707803,-232.79761)"
               id="g338"><path
                 id="path340"
                 style="fill:#ffffff;fill-opacity:1;fill-rule:evenodd;stroke:none"
                 d="m 0,0 -12.592,-0.594 9.556,-8.221 z" /></g></g></g></g></g><g
       transform="matrix(2.2763824,0,0,2.2763824,-377.42584,-795.54065)"
       id="g342"><g
         clip-path="url(#clipPath348)"
         id="g344"><g
           transform="matrix(1,0,0,-1,305.1928,416.93689)"
           id="g350"><g
             clip-path="url(#clipPath356)"
             id="g352"><g
               transform="matrix(0.9696149,0,0,-0.9696149,-26.153884,-135.26822)"
               id="g358"><path
                 id="path360"
                 style="fill:#ffffff;fill-opacity:1;fill-rule:evenodd;stroke:none"
                 d="M 0,0 H 37.755 V -37.755 H 0 Z" /></g></g></g></g></g><g
       transform="matrix(2.2763824,0,0,2.2763824,-377.42584,-795.54065)"
       id="g362"><g
         clip-path="url(#clipPath368)"
         id="g364"><g
           transform="matrix(1,0,0,-1,305.1928,416.93689)"
           id="g370"><g
             clip-path="url(#clipPath376)"
             id="g372"><g
               transform="matrix(0.9696149,0,0,-0.9696149,-7.7498175,-120.05767)"
               id="g378"><path
                 id="path380"
                 style="fill:#000000;fill-opacity:1;fill-rule:evenodd;stroke:none"
                 d="m 0,0 c 1.75,0 3.18,-1.427 3.18,-3.18 0,-1.75 -1.43,-3.179 -3.18,-3.179 -1.753,0 -3.18,1.429 -3.18,3.179 C -3.18,-1.427 -1.753,0 0,0 Z" /></g></g></g></g></g><g
       transform="matrix(2.2763824,0,0,2.2763824,-377.42584,-795.54065)"
       id="g382"><g
         clip-path="url(#clipPath388)"
         id="g384"><g
           transform="matrix(1,0,0,-1,305.1928,416.93689)"
           id="g390"><g
             clip-path="url(#clipPath396)"
             id="g392"><g
               transform="matrix(0.9696149,0,0,-0.9696149,3.4698874,-108.70823)"
               id="g398"><path
                 id="path400"
                 style="fill:#000000;fill-opacity:1;fill-rule:evenodd;stroke:none"
                 d="m 0,0 c 1.751,0 3.18,-1.429 3.18,-3.18 0,-1.752 -1.429,-3.181 -3.18,-3.181 -1.753,0 -3.18,1.429 -3.18,3.181 C -3.18,-1.429 -1.753,0 0,0 Z" /></g></g></g></g></g><g
       transform="matrix(2.2763824,0,0,2.2763824,-377.42584,-795.54065)"
       id="g402"><g
         clip-path="url(#clipPath408)"
         id="g404"><g
           transform="matrix(1,0,0,-1,305.1928,416.93689)"
           id="g410"><g
             clip-path="url(#clipPath416)"
             id="g412"><g
               transform="matrix(0.9696149,0,0,-0.9696149,3.4698874,-131.53384)"
               id="g418"><path
                 id="path420"
                 style="fill:#000000;fill-opacity:1;fill-rule:evenodd;stroke:none"
                 d="m 0,0 c 1.751,0 3.18,-1.429 3.18,-3.182 0,-1.75 -1.429,-3.179 -3.18,-3.179 -1.753,0 -3.18,1.429 -3.18,3.179 C -3.18,-1.429 -1.753,0 0,0 Z" /></g></g></g></g></g><g
       transform="matrix(2.2763824,0,0,2.2763824,-377.42584,-795.54065)"
       id="g422"><g
         clip-path="url(#clipPath428)"
         id="g424"><g
           transform="matrix(1,0,0,-1,305.1928,416.93689)"
           id="g430"><g
             clip-path="url(#clipPath436)"
             id="g432"><g
               transform="matrix(0.9696149,0,0,-0.9696149,-19.296089,-131.52066)"
               id="g438"><path
                 id="path440"
                 style="fill:#000000;fill-opacity:1;fill-rule:evenodd;stroke:none"
                 d="m 0,0 c 1.751,0 3.18,-1.429 3.18,-3.182 0,-1.75 -1.429,-3.179 -3.18,-3.179 -1.753,0 -3.182,1.429 -3.182,3.179 C -3.182,-1.429 -1.753,0 0,0 Z" /></g></g></g></g></g><g
       transform="matrix(2.2763824,0,0,2.2763824,-377.42584,-795.54065)"
       id="g442"><g
         clip-path="url(#clipPath448)"
         id="g444"><g
           transform="matrix(1,0,0,-1,305.1928,416.93689)"
           id="g450"><g
             clip-path="url(#clipPath456)"
             id="g452"><g
               transform="matrix(0.9696149,0,0,-0.9696149,-19.296089,-108.70823)"
               id="g458"><path
                 id="path460"
                 style="fill:#000000;fill-opacity:1;fill-rule:evenodd;stroke:none"
                 d="m 0,0 c 1.751,0 3.18,-1.429 3.18,-3.18 0,-1.752 -1.429,-3.181 -3.18,-3.181 -1.753,0 -3.182,1.429 -3.182,3.181 C -3.182,-1.429 -1.753,0 0,0 Z" /></g></g></g></g></g><g
       transform="matrix(2.2763824,0,0,2.2763824,-377.42584,-795.54065)"
       id="g462"><g
         clip-path="url(#clipPath468)"
         id="g464"><g
           transform="matrix(1,0,0,-1,305.1928,416.93689)"
           id="g470"><g
             clip-path="url(#clipPath476)"
             id="g472"><g
               transform="matrix(0.9696149,0,0,-0.9696149,-70.413217,-179.52755)"
               id="g478"><path
                 id="path480"
                 style="fill:#ffffff;fill-opacity:1;fill-rule:evenodd;stroke:none"
                 d="M 0,0 H 37.755 V -37.755 H 0 Z" /></g></g></g></g></g><g
       transform="matrix(2.2763824,0,0,2.2763824,-377.42584,-795.54065)"
       id="g482"><g
         clip-path="url(#clipPath488)"
         id="g484"><g
           transform="matrix(1,0,0,-1,305.1928,416.93689)"
           id="g490"><g
             clip-path="url(#clipPath496)"
             id="g492"><g
               transform="matrix(0.9696149,0,0,-0.9696149,18.426779,-179.52755)"
               id="g498"><path
                 id="path500"
                 style="fill:#ffffff;fill-opacity:1;fill-rule:evenodd;stroke:none"
                 d="M 0,0 H 37.755 V -37.755 H 0 Z" /></g></g></g></g></g><g
       transform="matrix(2.2763824,0,0,2.2763824,-377.42584,-795.54065)"
       id="g502"><g
         clip-path="url(#clipPath508)"
         id="g504"><g
           transform="matrix(1,0,0,-1,305.1928,416.93689)"
           id="g510"><g
             clip-path="url(#clipPath516)"
             id="g512"><g
               transform="matrix(0.9696149,0,0,-0.9696149,18.426779,-91.008884)"
               id="g518"><path
                 id="path520"
                 style="fill:#ffffff;fill-opacity:1;fill-rule:evenodd;stroke:none"
                 d="M 0,0 H 37.755 V -37.755 H 0 Z" /></g></g></g></g></g><g
       transform="matrix(2.2763824,0,0,2.2763824,-377.42584,-795.54065)"
       id="g522"><g
         clip-path="url(#clipPath528)"
         id="g524"><g
           transform="matrix(1,0,0,-1,305.1928,416.93689)"
           id="g530"><g
             clip-path="url(#clipPath536)"
             id="g532"><g
               transform="matrix(0.9696149,0,0,-0.9696149,-70.413217,-90.687554)"
               id="g538"><path
                 id="path540"
                 style="fill:#ffffff;fill-opacity:1;fill-rule:evenodd;stroke:none"
                 d="M 0,0 H 37.755 V -37.755 H 0 Z" /></g></g></g></g></g><g
       transform="matrix(2.2763824,0,0,2.2763824,-377.42584,-795.54065)"
       id="g542"><g
         clip-path="url(#clipPath548)"
         id="g544"><g
           transform="matrix(1,0,0,-1,305.1928,416.93689)"
           id="g550"><g
             clip-path="url(#clipPath556)"
             id="g552"><g
               transform="matrix(0.9696149,0,0,-0.9696149,-40.806123,-152.9761)"
               id="g558"><path
                 id="path560"
                 style="fill:#000000;fill-opacity:1;fill-rule:evenodd;stroke:none"
                 d="m 0,0 c 1.75,0 3.18,-1.429 3.18,-3.18 0,-1.752 -1.43,-3.181 -3.18,-3.181 -1.753,0 -3.18,1.429 -3.18,3.181 C -3.18,-1.429 -1.753,0 0,0 Z" /></g></g></g></g></g><g
       transform="matrix(2.2763824,0,0,2.2763824,-377.42584,-795.54065)"
       id="g562"><g
         clip-path="url(#clipPath568)"
         id="g564"><g
           transform="matrix(1,0,0,-1,305.1928,416.93689)"
           id="g570"><g
             clip-path="url(#clipPath576)"
             id="g572"><g
               transform="matrix(0.9696149,0,0,-0.9696149,-40.806123,-175.80171)"
               id="g578"><path
                 id="path580"
                 style="fill:#000000;fill-opacity:1;fill-rule:evenodd;stroke:none"
                 d="m 0,0 c 1.75,0 3.18,-1.429 3.18,-3.182 0,-1.75 -1.43,-3.179 -3.18,-3.179 -1.753,0 -3.18,1.429 -3.18,3.179 C -3.18,-1.429 -1.753,0 0,0 Z" /></g></g></g></g></g><g
       transform="matrix(2.2763824,0,0,2.2763824,-377.42584,-795.54065)"
       id="g582"><g
         clip-path="url(#clipPath588)"
         id="g584"><g
           transform="matrix(1,0,0,-1,305.1928,416.93689)"
           id="g590"><g
             clip-path="url(#clipPath596)"
             id="g592"><g
               transform="matrix(0.9696149,0,0,-0.9696149,-63.572389,-175.78852)"
               id="g598"><path
                 id="path600"
                 style="fill:#000000;fill-opacity:1;fill-rule:evenodd;stroke:none"
                 d="m 0,0 c 1.751,0 3.18,-1.429 3.18,-3.182 0,-1.75 -1.429,-3.179 -3.18,-3.179 -1.753,0 -3.182,1.429 -3.182,3.179 C -3.182,-1.429 -1.753,0 0,0 Z" /></g></g></g></g></g><g
       transform="matrix(2.2763824,0,0,2.2763824,-377.42584,-795.54065)"
       id="g602"><g
         clip-path="url(#clipPath608)"
         id="g604"><g
           transform="matrix(1,0,0,-1,305.1928,416.93689)"
           id="g610"><g
             clip-path="url(#clipPath616)"
             id="g612"><g
               transform="matrix(0.9696149,0,0,-0.9696149,-63.572389,-152.9761)"
               id="g618"><path
                 id="path620"
                 style="fill:#000000;fill-opacity:1;fill-rule:evenodd;stroke:none"
                 d="m 0,0 c 1.751,0 3.18,-1.429 3.18,-3.18 0,-1.752 -1.429,-3.181 -3.18,-3.181 -1.753,0 -3.182,1.429 -3.182,3.181 C -3.182,-1.429 -1.753,0 0,0 Z" /></g></g></g></g></g><g
       transform="matrix(2.2763824,0,0,2.2763824,-377.42584,-795.54065)"
       id="g622"><g
         clip-path="url(#clipPath628)"
         id="g624"><g
           transform="matrix(1,0,0,-1,305.1928,416.93689)"
           id="g630"><g
             clip-path="url(#clipPath636)"
             id="g632"><g
               transform="matrix(0.9696149,0,0,-0.9696149,36.831427,-164.32525)"
               id="g638"><path
                 id="path640"
                 style="fill:#000000;fill-opacity:1;fill-rule:evenodd;stroke:none"
                 d="m 0,0 c 1.751,0 3.18,-1.427 3.18,-3.18 0,-1.75 -1.429,-3.179 -3.18,-3.179 -1.752,0 -3.18,1.429 -3.18,3.179 C -3.18,-1.427 -1.752,0 0,0 Z" /></g></g></g></g></g><g
       transform="matrix(2.2763824,0,0,2.2763824,-377.42584,-795.54065)"
       id="g642"><g
         clip-path="url(#clipPath648)"
         id="g644"><g
           transform="matrix(1,0,0,-1,305.1928,416.93689)"
           id="g650"><g
             clip-path="url(#clipPath656)"
             id="g652"><g
               transform="matrix(0.9696149,0,0,-0.9696149,36.831912,-75.826073)"
               id="g658"><path
                 id="path660"
                 style="fill:#000000;fill-opacity:1;fill-rule:evenodd;stroke:none"
                 d="m 0,0 c 1.75,0 3.18,-1.427 3.18,-3.18 0,-1.75 -1.43,-3.179 -3.18,-3.179 -1.753,0 -3.18,1.429 -3.18,3.179 C -3.18,-1.427 -1.753,0 0,0 Z" /></g></g></g></g></g><g
       transform="matrix(2.2763824,0,0,2.2763824,-377.42584,-795.54065)"
       id="g662"><g
         clip-path="url(#clipPath668)"
         id="g664"><g
           transform="matrix(1,0,0,-1,305.1928,416.93689)"
           id="g670"><g
             clip-path="url(#clipPath676)"
             id="g672"><g
               transform="matrix(0.9696149,0,0,-0.9696149,48.051617,-64.476924)"
               id="g678"><path
                 id="path680"
                 style="fill:#000000;fill-opacity:1;fill-rule:evenodd;stroke:none"
                 d="m 0,0 c 1.751,0 3.18,-1.429 3.18,-3.18 0,-1.752 -1.429,-3.181 -3.18,-3.181 -1.753,0 -3.18,1.429 -3.18,3.181 C -3.18,-1.429 -1.753,0 0,0 Z" /></g></g></g></g></g><g
       transform="matrix(2.2763824,0,0,2.2763824,-377.42584,-795.54065)"
       id="g682"><g
         clip-path="url(#clipPath688)"
         id="g684"><g
           transform="matrix(1,0,0,-1,305.1928,416.93689)"
           id="g690"><g
             clip-path="url(#clipPath696)"
             id="g692"><g
               transform="matrix(0.9696149,0,0,-0.9696149,25.285738,-87.289345)"
               id="g698"><path
                 id="path700"
                 style="fill:#000000;fill-opacity:1;fill-rule:evenodd;stroke:none"
                 d="m 0,0 c 1.75,0 3.18,-1.429 3.18,-3.182 0,-1.75 -1.43,-3.18 -3.18,-3.18 -1.753,0 -3.182,1.43 -3.182,3.18 C -3.182,-1.429 -1.753,0 0,0 Z" /></g></g></g></g></g><g
       transform="matrix(2.2763824,0,0,2.2763824,-377.42584,-795.54065)"
       id="g702"><g
         clip-path="url(#clipPath708)"
         id="g704"><g
           transform="matrix(1,0,0,-1,305.1928,416.93689)"
           id="g710"><g
             clip-path="url(#clipPath716)"
             id="g712"><g
               transform="matrix(0.9696149,0,0,-0.9696149,-40.791578,-86.982849)"
               id="g718"><path
                 id="path720"
                 style="fill:#000000;fill-opacity:1;fill-rule:evenodd;stroke:none"
                 d="m 0,0 c 1.751,0 3.18,-1.429 3.18,-3.182 0,-1.75 -1.429,-3.179 -3.18,-3.179 -1.753,0 -3.18,1.429 -3.18,3.179 C -3.18,-1.429 -1.753,0 0,0 Z" /></g></g></g></g></g><g
       transform="matrix(2.2763824,0,0,2.2763824,-377.42584,-795.54065)"
       id="g722"><g
         clip-path="url(#clipPath728)"
         id="g724"><g
           transform="matrix(1,0,0,-1,305.1928,416.93689)"
           id="g730"><g
             clip-path="url(#clipPath736)"
             id="g732"><g
               transform="matrix(0.9696149,0,0,-0.9696149,-63.557554,-64.157339)"
               id="g738"><path
                 id="path740"
                 style="fill:#000000;fill-opacity:1;fill-rule:evenodd;stroke:none"
                 d="m 0,0 c 1.751,0 3.18,-1.429 3.18,-3.18 0,-1.752 -1.429,-3.181 -3.18,-3.181 -1.753,0 -3.182,1.429 -3.182,3.181 C -3.182,-1.429 -1.753,0 0,0 Z" /></g></g></g></g></g></g></svg>