<?xml version="1.0" encoding="UTF-8" standalone="no"?>
<svg
   xmlns:dc="http://purl.org/dc/elements/1.1/"
   xmlns:cc="http://creativecommons.org/ns#"
   xmlns:rdf="http://www.w3.org/1999/02/22-rdf-syntax-ns#"
   xmlns:svg="http://www.w3.org/2000/svg"
   xmlns="http://www.w3.org/2000/svg"
   viewBox="0 0 402.66666 465.05865"
   height="465.05865"
   width="402.66666"
   xml:space="preserve"
   id="svg2"
   version="1.1"><metadata
     id="metadata8"><rdf:RDF><cc:Work
         rdf:about=""><dc:format>image/svg+xml</dc:format><dc:type
           rdf:resource="http://purl.org/dc/dcmitype/StillImage" /></cc:Work></rdf:RDF></metadata><defs
     id="defs6"><clipPath
       id="clipPath18"
       clipPathUnits="userSpaceOnUse"><path
         id="path16"
         d="M 0,348.794 H 302 V 0 H 0 Z" /></clipPath></defs><g
     transform="matrix(1.3333333,0,0,-1.3333333,0,465.05867)"
     id="g10"><g
       id="g12"><g
         clip-path="url(#clipPath18)"
         id="g14"><g
           transform="translate(150.8164,47.719)"
           id="g20"><path
             id="path22"
             style="fill:#1d1e1c;fill-opacity:1;fill-rule:evenodd;stroke:none"
             d="m 0,0 c -26.593,0 -51.771,10.573 -70.896,29.771 -19.182,19.253 -29.746,44.686 -29.746,71.612 V 251.204 H 101.457 V 101.383 C 101.457,74.018 90.844,48.447 71.572,29.382 52.533,10.547 27.261,0.112 0.411,0.001 Z" /></g><g
           transform="translate(51.8961,297.202)"
           id="g24"><path
             id="path26"
             style="fill:#ffffff;fill-opacity:1;fill-rule:evenodd;stroke:none"
             d="M 0,0 99.369,-98.664 198.665,0 Z" /></g><g
           transform="translate(51.8961,295.6749)"
           id="g28"><path
             id="path30"
             style="fill:#4ba134;fill-opacity:1;fill-rule:evenodd;stroke:none"
             d="m 0,0 v -146.573 c 0,-35.317 17.985,-60.808 34.783,-75.229 16.798,-14.42 38.539,-24.203 64.003,-24.203 v 147.933 z" /></g><g
           transform="translate(250.4946,295.6749)"
           id="g32"><path
             id="path34"
             style="fill:#149bd7;fill-opacity:1;fill-rule:evenodd;stroke:none"
             d="m 0,0 v -146.573 c 0,-35.317 -17.985,-60.808 -34.783,-75.229 -16.798,-14.42 -38.539,-24.203 -64.003,-24.203 v 147.891 z" /></g><g
           transform="translate(139.9315,153.6869)"
           id="g36"><path
             id="path38"
             style="fill:#ffffff;fill-opacity:1;fill-rule:evenodd;stroke:none"
             d="m 0,0 c -27.401,23.997 -46.221,47.639 -70.682,66.002 -2.269,1.914 -5.785,1.985 -3.233,-1.368 C -50.374,38.823 -28.7,14.007 -4.683,-9.228 l 24.45,-24.789 14.186,-12.113 5.095,5.983 -13.896,13.5 z" /></g><g
           transform="translate(66.1661,220.8583)"
           id="g40"><path
             id="path42"
             style="fill:#1d1e1c;fill-opacity:1;fill-rule:nonzero;stroke:none"
             d="m 0,0 c -0.319,0 -0.573,-0.071 -0.723,-0.214 -0.372,-0.353 -0.12,-1.167 0.691,-2.233 4.798,-5.258 9.583,-10.55 14.211,-15.667 18.46,-20.41 35.896,-39.689 55.007,-58.178 l 24.452,-24.792 14.063,-12.008 4.908,5.765 -13.796,13.402 -25.151,26.647 C 61.868,-56.949 51.726,-46.749 41.917,-36.884 29.062,-23.955 16.919,-11.742 2.994,-1.288 1.979,-0.432 0.789,0 0,0 m 107.735,-113.512 -0.114,0.097 -14.185,12.114 -24.459,24.797 C 49.86,-58.011 32.421,-38.728 13.958,-18.313 9.33,-13.197 4.545,-7.906 -0.26,-2.637 c -1.197,1.572 -1.024,2.302 -0.668,2.64 0.701,0.668 2.659,0.163 4.107,-1.058 13.936,-10.462 26.086,-22.682 38.95,-35.619 9.806,-9.863 19.947,-20.061 31.735,-30.386 l 0.01,-0.009 25.152,-26.647 13.991,-13.593 -0.091,-0.105 z" /></g><g
           transform="translate(105.2098,80.7778)"
           id="g44"><path
             id="path46"
             style="fill:#1d1e1c;fill-opacity:1;fill-rule:evenodd;stroke:none"
             d="m 0,0 -1.391,0.285 c 19.333,41.244 33.965,76.444 55.604,98.222 28.786,28.969 48.391,38.136 82.648,38.042 l 0.188,-0.87 C 116.308,122.823 98.282,109.541 87.928,92.553 77.918,92.924 72.169,90.046 66.448,85.678 L 83.397,86.344 56.906,39.86 C 52.973,35.697 33.474,34.631 21.748,31.657 17.688,30.354 13.643,19.337 8.119,6.488 Z" /></g><g
           transform="translate(105.769,82.5521)"
           id="g48"><path
             id="path50"
             style="fill:#ffffff;fill-opacity:1;fill-rule:evenodd;stroke:none"
             d="m 0,0 c 18.609,40.117 33.304,74.618 54.428,95.723 29.232,29.205 47.136,37.249 80.126,38.005 C 115.009,122.755 96.989,108.268 86.518,91.901 77.256,92.687 69.239,88.489 64.335,83.77 L 64.851,82.726 80.56,83.204 55.34,39.006 C 51.57,35.015 31.63,33.716 20.39,30.866 16.498,29.616 12.038,17.935 6.743,5.619 Z" /></g><g
           transform="translate(207.6151,209.8763)"
           id="g52"><path
             id="path54"
             style="fill:#1d1e1c;fill-opacity:1;fill-rule:evenodd;stroke:none"
             d="m 0,0 -0.284,0.621 c -29.459,-11.415 -63.783,-42.078 -80.931,-93.425 l 1.005,0.063 C -65.37,-44.435 -29.194,-10.925 0,0" /></g><g
           transform="translate(165.786,127.4274)"
           id="g56"><path
             id="path58"
             style="fill:#1d1e1c;fill-opacity:1;fill-rule:evenodd;stroke:none"
             d="m 0,0 -0.497,-0.903 12.98,-12.821 -4.52,-5.134 -13.594,11.198 -0.925,-0.641 14.607,-12.072 5.79,6.805 z" /></g><g
           transform="translate(162.7653,121.0829)"
           id="g60"><path
             id="path62"
             style="fill:#ffffff;fill-opacity:1;fill-rule:evenodd;stroke:none"
             d="m 0,0 -0.468,-0.822 10.619,-10.04 0.558,0.888 z" /></g><g
           transform="translate(140.1668,154.1061)"
           id="g64"><path
             id="path66"
             style="fill:#1d1e1c;fill-opacity:1;fill-rule:evenodd;stroke:none"
             d="m 0,0 c -22.237,20.229 -42.578,43.538 -67.355,63.513 -2.598,2.195 -6.26,4.917 -7.774,3.472 -1.652,-1.598 1.969,-4.639 4.01,-6.877 21.421,-22.777 42.073,-47.98 65.508,-69.749 l 0.491,0.952 c -23.889,21.986 -44.649,47.486 -66.78,71.313 -1.712,1.851 -3.209,2.961 -2.362,3.708 0.579,0.705 2.405,-0.65 6.081,-3.276 23.615,-19.495 44.793,-42.746 67.535,-64.157 z" /></g><g
           transform="translate(91.8767,193.3466)"
           id="g68"><path
             id="path70"
             style="fill:#1d1e1c;fill-opacity:1;fill-rule:evenodd;stroke:none"
             d="m 0,0 44.664,-45.424 -0.385,-0.599 -44.808,45.45 z" /></g><g
           transform="translate(180.4211,113.1429)"
           id="g72"><path
             id="path74"
             style="fill:#1d1e1c;fill-opacity:1;fill-rule:evenodd;stroke:none"
             d="m 0,0 -6.032,-6.896 c 2.596,-2.11 5.742,-4.149 8.464,-5.497 8.882,-18.501 17.564,-22.038 31.58,-20.193 C 20.536,-23.944 24.026,-11.199 6.499,-7.807 4.873,-5.365 2.385,-2.569 0,0" /></g><g
           transform="translate(180.3922,111.5763)"
           id="g76"><path
             id="path78"
             style="fill:#ffffff;fill-opacity:1;fill-rule:evenodd;stroke:none"
             d="m 0,0 -4.618,-5.307 c 2.208,-1.751 4.862,-3.388 7.07,-4.377 L 5.37,-6.421 C 4.075,-4.16 1.802,-1.88 0,0" /></g><g
           transform="translate(186.6651,104.2145)"
           id="g80"><path
             id="path82"
             style="fill:#ffffff;fill-opacity:1;fill-rule:evenodd;stroke:none"
             d="M 0,0 -2.739,-3.05 C 4.99,-17.997 12.136,-23.884 25.215,-22.973 15.13,-17.333 15.77,-1.889 0,0" /></g></g></g></g></svg>