<?xml version="1.0" encoding="UTF-8" standalone="no"?>

<!DOCTYPE svg PUBLIC "-//W3C//DTD SVG 20010904//EN"
              "http://www.w3.org/TR/2001/REC-SVG-20010904/DTD/svg10.dtd">

<svg xmlns="http://www.w3.org/2000/svg"
     xmlns:xlink="http://www.w3.org/1999/xlink"
     width="5in" height="6in"
     viewBox="0 0 716 860">

  <defs>
     <symbol id="spoke" fill="#630" stroke="#000" stroke-width="2">
        <rect x="350" y="70" width="20" height="127" />
        <circle cx="360" cy="96" r="2" />
        <circle cx="360" cy="190" r="2" />
     </symbol>
  </defs>

  <path id="frame"
        fill="#888" stroke="#000" stroke-width="2"
        d="M 6,4 H 714 V 475 A430,430 0 0,1 360,856 A430,430 0 0,1 6,475 Z" />

  <path id="green"
        fill="#090" stroke="none"
        d="M 32,503 A373,125 0 0,1 688,503 A420,420 0 0,1 360,833 A420,420 0 0,1 32,503 Z" />
          
  <path id="white"
        fill="#fff" stroke="#000" stroke-width="2"
        d="M 19,17 H 701 V 461 A420,430 0 0,1 360,841 A420,430 0 0,1 19,461 Z 
           M 35,33 V 458 A420,420 0 0,0 360,825 A420,420 0 0,0 685,458 V 33 Z" />

  <g id="wheel">
     <use xlink:href="#spoke" transform="rotate( 30,360,231)"/>
     <use xlink:href="#spoke" transform="rotate( 60,360,231)"/>
     <use xlink:href="#spoke" transform="rotate(120,360,231)"/>
     <use xlink:href="#spoke" transform="rotate(150,360,231)"/>
     <use xlink:href="#spoke" transform="rotate(210,360,231)"/>
     <use xlink:href="#spoke" transform="rotate(240,360,231)"/>
     <use xlink:href="#spoke" transform="rotate(300,360,231)"/>
     <use xlink:href="#spoke" transform="rotate(330,360,231)"/>

     <path id="circles" fill="#630" stroke="#000" stroke-width="2"        
        d="M 219,231 A141,141 0 0,1 501,231 A141,141 0 0,1 219,231 Z
           M 230,231 A130,130 0 0,0 490,231 A130,130 0 0,0 230,231 Z
           M 312,231 A48,48 0 0,1 408,231 A48,48 0 0,1 312,231 Z
           M 345,231 A15,15 0 0,0 375,231 A15,15 0 0,0 345,231 Z" />

     <use xlink:href="#spoke" />
     <use xlink:href="#spoke" transform="rotate( 90,360,231)"/>
     <use xlink:href="#spoke" transform="rotate(180,360,231)"/>
     <use xlink:href="#spoke" transform="rotate(270,360,231)"/>
  </g>
  <g id="waves" stroke="none">
     <path id="wave1"
        fill="#09f"
        d="M 143.99,617.99
           C 160.09,747.39 250.75,699.29 285.75,679.62
             341.00,653.33 358.15,723.10 396.61,711.08
             442.39,688.99 455.34,657.59 519.33,714.63
             531.07,722.16 541.91,718.82 544.47,708.62
             554.35,637.58 383.74,612.36 341.26,627.07
             243.09,615.14 215.26,701.08 143.99,617.99 Z" />
     <path id="wave2" fill="#20d"
        d="M 217.33,740.61
           C 290.44,679.92 296.41,781.74 357.00,777.99
             399.73,775.91 436.21,739.44 457.28,746.58
             470.24,751.46 488.78,752.85 489.56,741.23
             474.07,666.62 384.70,723.03 356.93,728.69
             313.16,734.78 274.77,625.06 217.33,740.61 Z" />
     <path id="wave3" fill="#20d"
        d="M 209.99,637.00
           C 313.76,543.48 310.63,668.07 395.98,668.99
             446.49,663.70 481.12,587.41 521.00,632.00
             531.73,642.04 539.73,634.03 539.49,625.50
             530.16,498.90 416.53,632.98 373.72,612.61
             353.62,584.06 248.23,492.12 209.99,637.00 Z" />
     <path id="wave4" fill="#09f"
        d="M 197.59,609.05
           C 205.96,486.38 310.38,486.81 330.65,496.30
             362.59,508.14 386.69,571.17 421.49,558.99
             440.12,544.62 476.41,537.48 484.85,548.28
             499.81,559.51 494.30,615.20 421.99,632.00
             356.65,645.70 318.58,479.59 197.59,609.05 Z" />
     <path id="wave5" fill="#20d"
        d="M 275.12,513.01
           C 287.57,488.20 319.95,434.22 368.99,494.99
             418.54,552.58 424.54,486.55 449.52,507.18
             466.92,516.67 438.64,641.70 358.00,544.99
             343.19,524.88 318.82,499.61 275.12,513.01 Z" />
  </g>
</svg>
