<?xml version="1.0" encoding="UTF-8" standalone="no"?>
<svg
   xmlns:dc="http://purl.org/dc/elements/1.1/"
   xmlns:cc="http://creativecommons.org/ns#"
   xmlns:rdf="http://www.w3.org/1999/02/22-rdf-syntax-ns#"
   xmlns:svg="http://www.w3.org/2000/svg"
   xmlns="http://www.w3.org/2000/svg"
   viewBox="0 0 793.70081 1122.5197"
   height="1122.5197"
   width="793.70081"
   xml:space="preserve"
   id="svg2"
   version="1.1"><metadata
     id="metadata8"><rdf:RDF><cc:Work
         rdf:about=""><dc:format>image/svg+xml</dc:format><dc:type
           rdf:resource="http://purl.org/dc/dcmitype/StillImage" /></cc:Work></rdf:RDF></metadata><defs
     id="defs6" /><g
     transform="matrix(1.3333333,0,0,-1.3333333,0,1122.5197)"
     id="g10"><g
       transform="matrix(1.3040771,0,0,1.3040771,273.6954,760.98213)"
       id="g12"><path
         id="path14"
         style="fill:#e8122e;fill-opacity:1;fill-rule:evenodd;stroke:none"
         d="m 0,0 -3.856,-5.553 c -0.31,0.31 -0.654,0.594 -1.031,0.847 v 0 c -3.119,2.09 -7.382,1.249 -9.473,-1.869 l -38.223,-57.004 c -2.089,-3.115 -1.251,-7.372 1.862,-9.463 l -2.32,-3.342 c -1.96,1.714 -4.829,2.225 -7.335,1.068 v 0 c -3.392,-1.567 -4.885,-5.623 -3.318,-9.014 l 0.029,-0.061 c 0.632,-1.369 1.673,-2.428 2.91,-3.101 l -2.216,-3.191 c -0.104,0.079 -0.213,0.156 -0.323,0.23 v 0 c -3.119,2.09 -7.382,1.249 -9.473,-1.869 l -38.223,-57.004 c -1.914,-2.853 -1.371,-6.661 1.125,-8.89 l -3.159,-4.548 c -1.934,1.425 -4.571,1.787 -6.895,0.713 v 0 c -3.392,-1.567 -4.885,-5.623 -3.317,-9.014 l 0.028,-0.06 c 0.548,-1.187 1.403,-2.14 2.425,-2.812 l -3.388,-4.879 c -0.102,0.078 -0.208,0.153 -0.316,0.226 v 0 c -3.12,2.09 -7.383,1.249 -9.473,-1.87 l -38.224,-57.003 c -1.911,-2.85 -1.371,-6.655 1.119,-8.884 l -1.847,-2.661 c -2.044,11.7 -0.188,-7.681 -3.596,29.52 l 0.514,246.37 163.595,0.04 c -0.175,-0.667 -0.09,-1.641 0.446,-3.095 z" /></g><g
       transform="matrix(1.3040771,0,0,1.3040771,550.9864,795.82955)"
       id="g16"><path
         id="path18"
         style="fill:#009e4a;fill-opacity:1;fill-rule:evenodd;stroke:none"
         d="m 0,0 h -164.933 c 0.187,-0.842 -0.102,-2.146 -1.069,-4.231 l -11.53,-20.665 5.001,-7.176 c 0.253,0.232 0.526,0.448 0.819,0.644 v 0 c 3.12,2.09 7.383,1.249 9.474,-1.869 l 38.223,-57.003 c 2.008,-2.996 1.311,-7.045 -1.512,-9.212 l 2.311,-3.316 c 1.942,1.488 4.629,1.882 6.994,0.79 v 0 c 3.392,-1.567 4.885,-5.623 3.317,-9.014 l -0.028,-0.061 c -0.563,-1.219 -1.449,-2.193 -2.511,-2.867 l 3.296,-4.728 c 0.047,0.034 0.095,0.066 0.143,0.099 v 0 c 3.119,2.09 7.383,1.248 9.473,-1.87 l 38.223,-57.003 c 1.843,-2.747 1.408,-6.382 -0.856,-8.637 l 2.107,-3.022 c 1.871,1.132 4.255,1.349 6.379,0.369 v 0 c 3.392,-1.567 4.885,-5.624 3.317,-9.014 l -0.028,-0.061 c -0.453,-0.979 -1.112,-1.799 -1.904,-2.434 l 3.407,-4.888 c 3.096,1.906 7.208,1.032 9.249,-2.012 l 38.224,-57.003 c 1.756,-2.619 1.444,-6.042 -0.55,-8.31 l 1.609,-2.309 c 0.406,5.05 1.984,14.203 2.438,21.757 z" /></g><g
       transform="matrix(1.3040771,0,0,1.3040771,319.74758,764.1852)"
       id="g20"><path
         id="path22"
         style="fill:none;stroke:#3d332b;stroke-width:0.84200001;stroke-linecap:butt;stroke-linejoin:miter;stroke-miterlimit:22.9260006;stroke-dasharray:none;stroke-opacity:1"
         d="m 0,0 173.967,-250.147 c -2.867,-55.124 -41.909,-166.227 -190.964,-201.704 -8.93,0.178 -171.262,37.157 -191.53,198.788 l 62.691,92.12 c 2.32,-1.461 5.423,-0.814 6.959,1.476 l 38.223,57.003 c 1.325,1.977 1.074,4.567 -0.454,6.262 l 15.748,22.794 c 2.291,-1.852 5.784,-1.364 7.451,1.123 l 38.223,57.003 c 0.023,0.033 0.046,0.067 0.067,0.102 0.173,0.221 0.325,0.576 0.426,0.827 0.006,0.016 0.012,0.031 0.019,0.047 0.166,0.418 0.26,0.834 0.316,1.273 0.004,0.037 0.008,0.074 0.011,0.11 0,10e-4 0,0.002 0,0.002 0.003,0.028 0.005,0.055 0.007,0.083 0.002,0.021 0.003,0.043 0.005,0.065 0,0.004 0,0.009 0,0.013 0.005,0.072 0,0.526 10e-4,0.599 -0.006,0.11 -0.016,0.221 -0.029,0.33 -0.003,0.021 -0.006,0.041 -0.008,0.062 -10e-4,0.006 -0.002,0.012 -0.003,0.018 -0.002,0.019 -0.005,0.037 -0.007,0.055 -10e-4,0.004 -0.002,0.008 -0.002,0.013 -0.179,1.176 -0.753,2.255 -1.647,3.051 -0.016,0.014 -0.031,0.028 -0.047,0.042 l 4.99,7.222 11.211,-22.348 c 1.063,-2.58 3.571,-5.698 5.09,-5.496 1.3,-0.039 2.85,-0.283 5.329,4.197 z m -36.042,-273.26 c 0,10e-4 0.001,10e-4 0.001,0.002 0,-0.001 -0.001,-0.002 -0.001,-0.002 z m 0.001,0.002 c 0,0 10e-4,0 10e-4,0 0,0 0,0 -10e-4,0 z m 10e-4,0 c 0,10e-4 0,0.002 10e-4,0.003 -10e-4,-10e-4 -10e-4,-0.002 -10e-4,-0.003 z m 10e-4,0.003 c 0,10e-4 0,0.002 0.001,0.002 -0.001,0 -0.001,-0.001 -0.001,-0.002 z m 0.001,0.002 c 0,0.002 10e-4,0.004 0.002,0.006 -10e-4,-0.002 -0.002,-0.004 -0.002,-0.006 z m 0.002,0.006 c 0,0.001 0,0.002 0.001,0.002 -0.001,-10e-4 -0.001,-10e-4 -0.001,-0.002 z m 0.001,0.002 c 10e-4,0.002 0.002,0.004 0.002,0.006 -10e-4,-0.002 -10e-4,-0.004 -0.002,-0.006 z m 0.002,0.006 c 0.001,10e-4 0.002,0.002 0.002,0.004 0,0 0,0.002 10e-4,0.002 0,10e-4 0,10e-4 10e-4,0.002 0,0 0,10e-4 0,0.002 0,0 0,0 0,0 0.001,10e-4 0.001,0.002 0.001,0.003 10e-4,0.002 0.002,0.004 0.003,0.006 -0.001,-0.002 -0.002,-0.004 -0.003,-0.006 m 0.003,0.006 c 0,0.001 10e-4,0.002 0.002,0.003 0,10e-4 0,0.002 0,0.003 0.001,10e-4 0.001,10e-4 0.001,0.002 10e-4,10e-4 10e-4,0.002 10e-4,0.002 10e-4,0.004 0.003,0.006 0.004,0.009 -10e-4,-0.003 -0.003,-0.005 -0.004,-0.009 m 0.004,0.009 c 0,0 0,0.001 0,0.001 0,-0.001 0,-0.001 0,-0.001 z m 0,0.001 c 0.001,10e-4 0.001,10e-4 0.001,0.002 0,-0.001 0,-0.001 -0.001,-0.002 z m 0.001,0.002 c 0,10e-4 10e-4,0.002 10e-4,0.003 0,-0.001 -10e-4,-0.002 -10e-4,-0.003 z m 10e-4,0.003 c 0,10e-4 10e-4,10e-4 10e-4,0.002 0,-0.001 -10e-4,-0.002 -10e-4,-0.002 z m 10e-4,0.002 c 0.001,0.003 0.002,0.006 0.003,0.009 -10e-4,-0.003 -0.002,-0.006 -0.003,-0.009 z" /></g><g
       transform="matrix(1.3040771,0,0,1.3040771,319.74758,764.1852)"
       id="g24"><path
         id="path26"
         style="fill:none;stroke:#3d332b;stroke-width:0.84200001;stroke-linecap:butt;stroke-linejoin:miter;stroke-miterlimit:22.9260006;stroke-dasharray:none;stroke-opacity:1"
         d="m 0,0 173.967,-250.147 c -2.867,-55.124 -41.909,-166.227 -190.964,-201.704 -8.93,0.178 -171.262,37.157 -191.53,198.788 l 62.691,92.12 c 2.32,-1.461 5.423,-0.814 6.959,1.476 l 38.223,57.003 c 1.325,1.977 1.074,4.567 -0.454,6.262 l 15.748,22.794 c 2.291,-1.852 5.784,-1.364 7.451,1.123 l 38.223,57.003 c 0.023,0.033 0.046,0.067 0.067,0.102 0.173,0.221 0.325,0.576 0.426,0.827 0.006,0.016 0.012,0.031 0.019,0.047 0.166,0.418 0.26,0.834 0.316,1.273 0.004,0.037 0.008,0.074 0.011,0.11 0,10e-4 0,0.002 0,0.002 0.003,0.028 0.005,0.055 0.007,0.083 0.002,0.021 0.003,0.043 0.005,0.065 0,0.004 0,0.009 0,0.013 0.005,0.072 0,0.526 10e-4,0.599 -0.006,0.11 -0.016,0.221 -0.029,0.33 -0.003,0.021 -0.006,0.041 -0.008,0.062 -10e-4,0.006 -0.002,0.012 -0.003,0.018 -0.002,0.019 -0.005,0.037 -0.007,0.055 -10e-4,0.004 -0.002,0.008 -0.002,0.013 -0.179,1.176 -0.753,2.255 -1.647,3.051 -0.016,0.014 -0.031,0.028 -0.047,0.042 l 4.99,7.222 11.211,-22.348 c 1.063,-2.58 3.571,-5.698 5.09,-5.496 1.3,-0.039 2.85,-0.283 5.329,4.197 z m -36.042,-273.26 c 0,10e-4 0.001,10e-4 0.001,0.002 0,-0.001 -0.001,-0.002 -0.001,-0.002 z m 0.001,0.002 c 0,0 10e-4,0 10e-4,0 0,0 0,0 -10e-4,0 z m 10e-4,0 c 0,10e-4 0,0.002 10e-4,0.003 -10e-4,-10e-4 -10e-4,-0.002 -10e-4,-0.003 z m 10e-4,0.003 c 0,10e-4 0,0.002 0.001,0.002 -0.001,0 -0.001,-0.001 -0.001,-0.002 z m 0.001,0.002 c 0,0.002 10e-4,0.004 0.002,0.006 -10e-4,-0.002 -0.002,-0.004 -0.002,-0.006 z m 0.002,0.006 c 0,0.001 0,0.002 0.001,0.002 -0.001,-10e-4 -0.001,-10e-4 -0.001,-0.002 z m 0.001,0.002 c 10e-4,0.002 0.002,0.004 0.002,0.006 -10e-4,-0.002 -10e-4,-0.004 -0.002,-0.006 z m 0.002,0.006 c 0.001,10e-4 0.002,0.002 0.002,0.004 0,0 0,0.002 10e-4,0.002 0,10e-4 0,10e-4 10e-4,0.002 0,0 0,10e-4 0,0.002 0,0 0,0 0,0 0.001,10e-4 0.001,0.002 0.001,0.003 10e-4,0.002 0.002,0.004 0.003,0.006 -0.001,-0.002 -0.002,-0.004 -0.003,-0.006 m 0.003,0.006 c 0,0.001 10e-4,0.002 0.002,0.003 0,10e-4 0,0.002 0,0.003 0.001,10e-4 0.001,10e-4 0.001,0.002 10e-4,10e-4 10e-4,0.002 10e-4,0.002 10e-4,0.004 0.003,0.006 0.004,0.009 -10e-4,-0.003 -0.003,-0.005 -0.004,-0.009 m 0.004,0.009 c 0,0 0,0.001 0,0.001 0,-0.001 0,-0.001 0,-0.001 z m 0,0.001 c 0.001,10e-4 0.001,10e-4 0.001,0.002 0,-0.001 0,-0.001 -0.001,-0.002 z m 0.001,0.002 c 0,10e-4 10e-4,0.002 10e-4,0.003 0,-0.001 -10e-4,-0.002 -10e-4,-0.003 z m 10e-4,0.003 c 0,10e-4 10e-4,10e-4 10e-4,0.002 0,-0.001 -10e-4,-0.002 -10e-4,-0.002 z m 10e-4,0.002 c 0.001,0.003 0.002,0.006 0.003,0.009 -10e-4,-0.003 -0.002,-0.006 -0.003,-0.009 z" /></g><g
       transform="matrix(1.3040771,0,0,1.3040771,319.74758,764.1852)"
       id="g28"><path
         id="path30"
         style="fill:#0052ba;fill-opacity:1;fill-rule:evenodd;stroke:none"
         d="m 0,0 173.967,-250.147 c -2.867,-55.124 -41.909,-166.227 -190.964,-201.704 -8.93,0.178 -171.262,37.157 -191.53,198.788 l 62.691,92.12 c 2.32,-1.461 5.423,-0.814 6.959,1.476 l 38.223,57.003 c 1.325,1.977 1.074,4.567 -0.454,6.262 l 15.748,22.794 c 2.291,-1.852 5.784,-1.364 7.451,1.123 l 38.223,57.003 c 0.023,0.033 0.046,0.067 0.067,0.102 0.173,0.221 0.325,0.576 0.426,0.827 0.006,0.016 0.012,0.031 0.019,0.047 0.166,0.418 0.26,0.834 0.316,1.273 0.004,0.037 0.008,0.074 0.011,0.11 0,10e-4 0,0.002 0,0.002 0.003,0.028 0.005,0.055 0.007,0.083 0.002,0.021 0.003,0.043 0.005,0.065 0,0.004 0,0.009 0,0.013 0.005,0.072 0,0.526 10e-4,0.599 -0.006,0.11 -0.016,0.221 -0.029,0.33 -0.003,0.021 -0.006,0.041 -0.008,0.062 -10e-4,0.006 -0.002,0.012 -0.003,0.018 -0.002,0.019 -0.005,0.037 -0.007,0.055 -10e-4,0.004 -0.002,0.008 -0.002,0.013 -0.179,1.176 -0.753,2.255 -1.647,3.051 -0.016,0.014 -0.031,0.028 -0.047,0.042 l 4.99,7.222 11.211,-22.348 c 1.063,-2.58 3.571,-5.698 5.09,-5.496 1.3,-0.039 2.85,-0.283 5.329,4.197 z m -36.042,-273.26 c 0,10e-4 0.001,10e-4 0.001,0.002 0,-0.001 -0.001,-0.002 -0.001,-0.002 z m 0.001,0.002 c 0,0 10e-4,0 10e-4,0 0,0 0,0 -10e-4,0 z m 10e-4,0 c 0,10e-4 0,0.002 10e-4,0.003 -10e-4,-10e-4 -10e-4,-0.002 -10e-4,-0.003 z m 10e-4,0.003 c 0,10e-4 0,0.002 0.001,0.002 -0.001,0 -0.001,-0.001 -0.001,-0.002 z m 0.001,0.002 c 0,0.002 10e-4,0.004 0.002,0.006 -10e-4,-0.002 -0.002,-0.004 -0.002,-0.006 z m 0.002,0.006 c 0,0.001 0,0.002 0.001,0.002 -0.001,-10e-4 -0.001,-10e-4 -0.001,-0.002 z m 0.001,0.002 c 10e-4,0.002 0.002,0.004 0.002,0.006 -10e-4,-0.002 -10e-4,-0.004 -0.002,-0.006 z m 0.002,0.006 c 0.001,10e-4 0.002,0.002 0.002,0.004 0,0 0,0.002 10e-4,0.002 0,10e-4 0,10e-4 10e-4,0.002 0,0 0,10e-4 0,0.002 0,0 0,0 0,0 0.001,10e-4 0.001,0.002 0.001,0.003 10e-4,0.002 0.002,0.004 0.003,0.006 -0.001,-0.002 -0.002,-0.004 -0.003,-0.006 m 0.003,0.006 c 0,0.001 10e-4,0.002 0.002,0.003 0,10e-4 0,0.002 0,0.003 0.001,10e-4 0.001,10e-4 0.001,0.002 10e-4,10e-4 10e-4,0.002 10e-4,0.002 10e-4,0.004 0.003,0.006 0.004,0.009 -10e-4,-0.003 -0.003,-0.005 -0.004,-0.009 m 0.004,0.009 c 0,0 0,0.001 0,0.001 0,-0.001 0,-0.001 0,-0.001 z m 0,0.001 c 0.001,10e-4 0.001,10e-4 0.001,0.002 0,-0.001 0,-0.001 -0.001,-0.002 z m 0.001,0.002 c 0,10e-4 10e-4,0.002 10e-4,0.003 0,-0.001 -10e-4,-0.002 -10e-4,-0.003 z m 10e-4,0.003 c 0,10e-4 10e-4,10e-4 10e-4,0.002 0,-0.001 -10e-4,-0.002 -10e-4,-0.002 z m 10e-4,0.002 c 0.001,0.003 0.002,0.006 0.003,0.009 -10e-4,-0.003 -0.002,-0.006 -0.003,-0.009" /></g><g
       transform="matrix(1.3040771,0,0,1.3040771,31.476379,809.06893)"
       id="g32"><path
         id="path34"
         style="fill:#ffffff;fill-opacity:1;fill-rule:evenodd;stroke:#000000;stroke-width:2.38000011;stroke-linecap:butt;stroke-linejoin:miter;stroke-miterlimit:22.9260006;stroke-dasharray:none;stroke-opacity:1"
         d="m 0,0 h 408.452 v -256.266 c -1.366,-60.377 -19.705,-110.045 -58.316,-156.508 -40.629,-44.865 -87.324,-70.403 -146.084,-84.001 -58.732,13.668 -105.309,39.371 -145.843,84.276 -38.407,46.35 -56.84,95.871 -58.209,156.057 z m 9.739,-9.861 h 388.974 v -246.386 c 0,-116.404 -84.159,-207.373 -194.655,-230.667 C 93.748,-463.535 9.739,-371.972 9.739,-256.423 Z" /></g><g
       transform="matrix(1.3040771,0,0,1.3040771,20.557994,820.12881)"
       id="g36"><path
         id="path38"
         style="fill:#fcd117;fill-opacity:1;fill-rule:evenodd;stroke:#000000;stroke-width:2.00099993;stroke-linecap:butt;stroke-linejoin:miter;stroke-miterlimit:22.9260006;stroke-dasharray:none;stroke-opacity:1"
         d="m 0,0 h 425.197 v -264.72 c -1.412,-62.428 -20.442,-113.864 -60.349,-161.899 -43.82,-48.401 -92.312,-73.202 -152.429,-87.118 -61.49,14.314 -109.675,40.297 -152.186,87.403 C 20.536,-378.415 1.415,-327.129 0,-264.897 Z m 8.372,-8.481 h 408.452 v -256.266 c -1.366,-60.377 -19.705,-110.045 -58.315,-156.508 -40.63,-44.865 -87.324,-70.403 -146.085,-84.001 -58.731,13.668 -105.308,39.371 -145.843,84.276 -38.407,46.35 -56.84,95.871 -58.209,156.057 z" /></g><g
       transform="matrix(1.1328735,0,0,1.1306152,44.175689,794.97469)"
       id="g40"><path
         id="path42"
         style="fill:none;stroke:#000000;stroke-width:4.62300014;stroke-linecap:butt;stroke-linejoin:miter;stroke-miterlimit:22.9260006;stroke-dasharray:none;stroke-opacity:1"
         d="m 0,0 h 446.839 l 0.915,-283.622 C 447.753,-417.617 350.877,-522.333 223.683,-549.148 96.704,-522.236 0,-416.836 0,-283.824 Z" /></g><g
       transform="matrix(1.3040771,0,0,1.3040771,112.98589,537.9007)"
       id="g44"><path
         id="path46"
         style="fill:#3d332b;fill-opacity:1;fill-rule:evenodd;stroke:#3d332b;stroke-width:1.97599995;stroke-linecap:butt;stroke-linejoin:miter;stroke-miterlimit:22.9260006;stroke-dasharray:none;stroke-opacity:1"
         d="m 0,0 0.028,-0.061 c 1.568,-3.391 5.625,-4.883 9.018,-3.316 v 0 c 3.392,1.567 4.885,5.623 3.317,9.014 L 12.335,5.698 C 10.767,9.089 6.709,10.581 3.317,9.014 v 0 C -0.075,7.447 -1.568,3.391 0,0 Z M 1.565,0.723 1.593,0.662 c 1.17,-2.53 4.198,-3.644 6.729,-2.474 v 0 c 2.532,1.169 3.645,4.196 2.476,6.726 L 10.77,4.975 C 9.6,7.505 6.572,8.618 4.041,7.449 v 0 C 1.509,6.28 0.395,3.253 1.565,0.723 Z" /></g><g
       transform="matrix(0.4754181,-1.0283508,-1.0287781,-0.4752197,115.02678,538.84267)"
       id="g48"><path
         id="path50"
         style="fill:#ffffff;fill-opacity:1;fill-rule:evenodd;stroke:#3d332b;stroke-width:2.273;stroke-linecap:butt;stroke-linejoin:miter;stroke-miterlimit:22.9260006;stroke-dasharray:none;stroke-opacity:1"
         d="m 0,0 h 0.077 c 3.209,0 5.834,-2.625 5.834,-5.834 v 0 c 0,-3.208 -2.626,-5.833 -5.834,-5.833 H 0 c -3.208,0 -5.834,2.625 -5.834,5.833 v 0 C -5.834,-2.625 -3.209,0 0,0 Z" /></g><g
       transform="matrix(1.3040771,0,0,1.3040771,190.63364,651.00918)"
       id="g52"><path
         id="path54"
         style="fill:#3d332b;fill-opacity:1;fill-rule:evenodd;stroke:#3d332b;stroke-width:1.97599995;stroke-linecap:butt;stroke-linejoin:miter;stroke-miterlimit:22.9260006;stroke-dasharray:none;stroke-opacity:1"
         d="m 0,0 0.028,-0.061 c 1.568,-3.39 5.626,-4.883 9.018,-3.316 v 0 c 3.392,1.567 4.885,5.623 3.317,9.014 L 12.335,5.698 C 10.768,9.089 6.71,10.581 3.318,9.014 v 0 C -0.075,7.447 -1.568,3.391 0,0 Z M 1.566,0.723 1.594,0.662 c 1.169,-2.53 4.197,-3.643 6.728,-2.474 v 0 c 2.532,1.169 3.646,4.196 2.476,6.726 L 10.77,4.975 C 9.6,7.505 6.572,8.618 4.041,7.449 v 0 C 1.51,6.28 0.396,3.253 1.566,0.723 Z" /></g><g
       transform="matrix(0.4754181,-1.0283508,-1.0287781,-0.4752197,192.67482,651.95102)"
       id="g56"><path
         id="path58"
         style="fill:#ffffff;fill-opacity:1;fill-rule:evenodd;stroke:#3d332b;stroke-width:2.273;stroke-linecap:butt;stroke-linejoin:miter;stroke-miterlimit:22.9260006;stroke-dasharray:none;stroke-opacity:1"
         d="m 0,0 h 0.077 c 3.209,0 5.834,-2.626 5.834,-5.834 v 0 c 0,-3.208 -2.625,-5.833 -5.834,-5.833 H 0 c -3.209,0 -5.834,2.625 -5.834,5.834 v 0 C -5.834,-2.625 -3.209,0 0,0 Z" /></g><g
       transform="matrix(1.5844727,0,0,1.5838165,315.22478,314.5483)"
       id="g60"><path
         id="path62"
         style="fill:#ffffff;fill-opacity:1;fill-rule:evenodd;stroke:#3d332b;stroke-width:1.62600005;stroke-linecap:butt;stroke-linejoin:miter;stroke-miterlimit:22.9260006;stroke-dasharray:none;stroke-opacity:1"
         d="m 0,0 c 2.13,-11.403 -5.473,-23.1 -12.778,-31.135 -0.095,-0.19 -0.158,-0.413 -0.222,-0.635 3.589,-1.493 6.796,-3.176 10.989,-3.557 4.16,10.925 5.812,22.549 5.081,33.982 0.159,-0.032 0.349,-0.095 0.54,-0.159 2.128,-5.526 0.889,-14.545 0,-20.548 -2.541,-10.036 -3.811,-13.847 -3.874,-14.482 3.652,-0.889 7.177,-1.207 11.147,-1.334 1.937,4.351 -0.095,16.991 -0.413,21.533 -0.762,3.08 -1.493,6.161 -2.223,9.242 -1.27,3.652 -2.541,6.701 -2.795,8.13 0.095,0 0.222,0 0.349,0 6.448,-11.338 7.527,-26.17 7.146,-39.159 5.876,0.19 11.148,0.984 16.769,3.335 0,0.317 0,0.317 -15.276,26.265 -1.874,3.62 -4.891,8.003 -5.621,11.465 1.365,-0.254 5.367,-8.131 6.574,-11.148 5.113,-8.13 5.113,-8.13 16.832,-25.534 3.398,0.794 6.289,2.699 9.369,4.605 0,0.19 0.032,0.381 0.064,0.572 -6.447,5.462 -12.418,11.211 -18.04,16.959 -0.254,0.857 -2.127,2.477 -2.54,2.699 -2.128,2.51 -8.671,9.687 -8.925,11.688 2.382,0 4.574,-6.193 7.495,-7.813 3.494,-4.7 8.702,-9.496 13.53,-13.37 0,-0.096 0,-0.191 0,-0.318 8.956,-6.828 10.195,-7.241 10.48,-8.416 1.652,0.127 7.655,4.224 7.972,5.875 -1.111,0.572 -1.111,0.572 -4.923,1.842 C 32.67,-13.032 24.158,-7.22 16.187,5.801 11.455,17.234 7.802,28.954 2.34,39.72 c -2.636,4.129 -5.304,8.098 -7.305,12.259 -0.222,1.175 -0.445,2.35 -0.635,3.494 0.222,9.972 3.087,27.804 -11.37,24.371 -1.442,-0.642 -2.599,-0.945 -4.097,-2.712 -0.318,-6.383 -0.318,-6.383 -0.476,-6.542 -2.065,-8.925 -10.227,-15.88 -6.828,-26.106 2.413,-1.429 5.589,-3.24 6.923,-6.352 -0.159,0 -0.317,0 -0.476,0 -7.464,10.798 -23.28,9.083 -34.364,9.496 -13.783,0 -26.074,1.239 -38.619,6.257 -0.572,1.175 -5.082,2.858 -6.447,3.017 0.953,-3.875 4.573,-7.622 7.558,-10.672 5.717,-3.969 18.611,-4.128 25.725,-4.509 8.576,0.159 8.576,0.159 24.519,0.794 4.192,-0.127 7.463,-0.127 11.623,-1.842 0,-0.096 0,-0.191 0,-0.318 -10.861,3.811 -25.248,1.048 -36.3,0.889 -13.847,0.794 -13.847,0.794 -14.26,1.017 -0.032,0.127 -0.064,0.222 -0.064,0.318 -5.875,0.92 -11.052,2.064 -16.419,3.334 0.762,-3.811 8.225,-8.861 11.624,-11.211 6.066,-0.54 12.1,-0.635 18.325,-0.635 11.782,0.952 25.439,4.7 37.412,2.001 0,-0.159 0,-0.318 0,-0.477 -3.843,0.826 -6.923,0.826 -10.512,0.731 -15.531,-1.588 -30.362,-3.716 -45.702,-2.097 -4.605,0.985 -4.605,0.985 -6.669,1.207 0.317,-0.476 0.635,-0.952 0.952,-1.461 0.096,0 0.191,0 0.318,0 1.842,-3.271 7.178,-6.066 10.513,-8.162 15.752,0.191 31.092,4.256 46.781,6.829 3.493,0 3.493,0 4.383,-0.254 0.031,-0.096 0.063,-0.191 0.095,-0.318 -1.175,0.032 -2.35,0.064 -3.525,0.095 -17.087,-2.413 -34.618,-8.099 -51.736,-6.606 0,-0.159 0,-0.317 0,-0.476 0.572,-0.223 1.334,-1.175 1.969,-1.906 3.017,-2.191 6.32,-4.097 10.131,-5.812 13.593,0.477 27.98,7.654 40.906,11.942 1.111,0.032 2.223,0.064 3.366,0.064 0,-0.096 0,-0.191 0,-0.318 -1.016,-0.064 -2.032,-0.127 -3.049,-0.223 -14.037,-5.113 -27.916,-10.702 -42.652,-12.195 0.413,-2.064 10.925,-5.208 12.894,-5.463 8.003,2.287 14.705,6.003 22.136,10.163 2.319,1.556 8.702,6.225 12.005,5.653 -0.031,-0.127 -0.063,-0.254 -0.063,-0.381 -1.747,-0.317 -1.747,-0.317 -3.684,-0.952 C -43.013,19.997 -52,13.773 -63.148,10.597 c 0,-0.159 0,-0.318 0,-0.477 10.512,-3.049 13.752,-2.096 22.136,4.383 2.89,3.303 7.559,8.257 11.624,9.623 0,-0.095 0,-0.19 0,-0.318 -7.05,-4.319 -12.227,-12.513 -20.072,-15.308 0,-0.158 0,-0.317 0,-0.476 10.672,-0.603 15.943,3.208 20.93,12.577 0.794,0.984 1.27,2.065 2.477,2.413 -3.843,-5.176 -6.066,-10.734 -12.1,-13.878 0,-0.159 0,-0.318 0,-0.477 6.86,1.43 16.388,6.733 15.911,15.149 0.191,0.032 0.413,0.064 0.635,0.096 0.413,0.857 0.477,0.921 1.112,1.334 -0.254,-1.112 -0.254,-1.112 -0.794,-2.382 0.254,0 0.508,-0.032 0.794,-0.064 C -16.398,18.664 0.434,6.786 -0.264,0.497 -0.392,0.465 0.093,0.033 0,0 Z" /></g><g
       transform="matrix(0.6989136,0,0,0.6986237,370.05978,330.98017)"
       id="g64"><path
         id="path66"
         style="fill:#ffffff;fill-opacity:1;fill-rule:evenodd;stroke:#3d332b;stroke-width:3.68600011;stroke-linecap:butt;stroke-linejoin:miter;stroke-miterlimit:22.9260006;stroke-dasharray:none;stroke-opacity:1"
         d="m 0,0 c -20.088,0.792 -34.344,28.584 -54.144,34.776 0.288,-1.152 8.784,-5.184 11.16,-6.624 4.248,-3.24 31.392,-25.992 31.032,-26.352 -10.728,0 -22.104,6.984 -29.592,12.96 -5.4,5.76 -13.32,13.032 -14.04,13.176 -5.544,16.128 -11.736,29.232 -19.368,43.632 1.872,25.128 62.712,16.344 77.112,14.328 5.976,-0.072 11.952,-0.216 18,-0.36 24.552,1.296 48.168,8.784 71.856,16.56 4.32,2.16 4.32,2.16 5.76,2.304 C 92.52,67.968 38.736,73.8 13.68,74.304 c -13.392,1.944 -39.888,7.92 -52.344,2.304 0,-0.36 0,-0.72 0,-1.08 15.192,3.816 32.688,0.936 48.744,-1.944 19.296,-1.224 39.528,-1.224 59.184,2.16 19.152,5.04 19.152,5.04 22.032,5.4 C 91.8,77.472 83.736,69.696 81.36,66.888 57.24,48.312 11.664,59.76 -14.472,66.384 c -6.264,0.648 -20.664,3.24 -25.488,0.864 0.072,-0.288 0.144,-0.576 0.216,-0.864 16.776,1.584 32.4,-2.952 49.104,-6.84 24.408,-2.952 45.288,-5.112 70.056,0.144 C 71.136,28.584 34.2,42.048 13.32,46.872 -1.728,51.48 -26.568,60.696 -42.264,57.168 c 0,-0.216 0,-0.432 0,-0.72 C -4.824,57.312 29.016,35.784 68.184,38.376 52.704,19.656 42.624,24.624 22.032,30.312 0.864,38.304 -23.4,49.968 -45.864,50.616 c 0.072,-0.288 0.216,-0.576 0.36,-0.864 C -15.408,47.664 14.688,30.6 44.712,22.68 52.848,21.672 53.928,22.464 53.928,20.304 34.632,5.112 26.352,12.528 5.04,22.32 c -13.248,6.696 -39.096,22.752 -54.36,21.816 0.072,-0.288 0.144,-0.576 0.216,-0.864 14.4,0 76.176,-32.472 75.816,-32.832 -0.72,-0.072 -1.44,-0.144 -2.16,-0.216 0,-0.216 0,-0.432 0,-0.72 3.816,0 5.904,-0.072 10.08,-1.944 C 28.296,3.744 18.288,1.8 11.52,1.8 1.368,8.208 -7.272,15.048 -16.272,21.96 c -8.856,5.688 -24.12,16.488 -33.912,17.136 0,-0.216 0,-0.432 0,-0.72 C -30.456,33.48 -10.584,16.2 6.12,3.6 16.992,-2.952 5.904,0 0,0 Z" /></g><g
       transform="matrix(0.7709351,0.4449158,-0.4450989,0.7706146,231.53467,523.66021)"
       id="g68"><path
         id="path70"
         style="fill:#fce017;fill-opacity:1;fill-rule:evenodd;stroke:#3d332b;stroke-width:2.89400005;stroke-linecap:butt;stroke-linejoin:miter;stroke-miterlimit:22.9260006;stroke-dasharray:none;stroke-opacity:1"
         d="M 0,0 13.212,13.905 -5.25,9.162 l -5.434,18.392 -5.071,-18.658 -18.726,5.009 13.194,-13.849 -13.194,-13.961 18.739,5.023 5.058,-18.671 5.285,18.504 18.61,-4.856 z" /></g><g
       transform="matrix(-0.7709351,0.4449158,0.4450989,0.7706146,349.11571,542.09807)"
       id="g72"><path
         id="path74"
         style="fill:#fce017;fill-opacity:1;fill-rule:evenodd;stroke:#3d332b;stroke-width:2.89400005;stroke-linecap:butt;stroke-linejoin:miter;stroke-miterlimit:22.9260006;stroke-dasharray:none;stroke-opacity:1"
         d="M 0,0 13.212,13.905 -5.25,9.162 l -5.434,18.392 -5.072,-18.659 -18.725,5.01 13.194,-13.849 -13.194,-13.961 18.739,5.023 5.058,-18.671 5.285,18.503 18.61,-4.855 z" /></g><g
       transform="matrix(-0.2304077,0.8595123,-0.8598633,-0.2303162,157.60004,484.46947)"
       id="g76"><path
         id="path78"
         style="fill:#fce017;fill-opacity:1;fill-rule:evenodd;stroke:#3d332b;stroke-width:2.89400005;stroke-linecap:butt;stroke-linejoin:miter;stroke-miterlimit:22.9260006;stroke-dasharray:none;stroke-opacity:1"
         d="M 0,0 13.211,13.905 -5.251,9.162 -10.684,27.555 -15.755,8.896 -34.48,13.905 -21.287,0.056 -34.48,-13.905 l 18.738,5.023 5.058,-18.671 5.285,18.504 18.611,-4.856 z" /></g><g
       transform="matrix(0.2304077,0.8595123,0.8598633,-0.2303162,433.22279,484.46033)"
       id="g80"><path
         id="path82"
         style="fill:#fce017;fill-opacity:1;fill-rule:evenodd;stroke:#3d332b;stroke-width:2.89400005;stroke-linecap:butt;stroke-linejoin:miter;stroke-miterlimit:22.9260006;stroke-dasharray:none;stroke-opacity:1"
         d="M 0,0 13.211,13.905 -5.251,9.162 -10.684,27.554 -15.755,8.896 -34.48,13.905 -21.287,0.056 l -13.193,-13.96 18.738,5.022 5.058,-18.671 5.285,18.504 18.611,-4.856 z" /></g><g
       transform="matrix(1.3040771,0,0,1.3040771,52.845247,440.83133)"
       id="g84"><path
         id="path86"
         style="fill:#ffffff;fill-opacity:1;fill-rule:evenodd;stroke:none"
         d="M 0,0 V 0 C 2.332,-1.562 5.518,-0.933 7.081,1.397 L 45.304,58.4 c 1.563,2.331 0.934,5.516 -1.398,7.078 v 0 c -2.332,1.562 -5.518,0.933 -7.081,-1.397 L -1.398,7.078 C -2.96,4.747 -2.331,1.562 0,0" /></g><g
       transform="matrix(1.3040771,0,0,1.3040771,51.593203,438.96415)"
       id="g88"><path
         id="path90"
         style="fill:#3d332b;fill-opacity:1;fill-rule:evenodd;stroke:#3d332b;stroke-width:1.97599995;stroke-linecap:butt;stroke-linejoin:miter;stroke-miterlimit:22.9260006;stroke-dasharray:none;stroke-opacity:1"
         d="m 0,0 v 0 c 3.119,-2.09 7.382,-1.249 9.473,1.869 l 38.223,57.003 c 2.091,3.119 1.25,7.38 -1.87,9.47 v 0 c -3.119,2.09 -7.382,1.249 -9.473,-1.87 L -1.87,9.469 C -3.961,6.351 -3.119,2.09 0,0 Z m 0.96,1.432 v 0 C 3.292,-0.13 6.478,0.498 8.041,2.829 l 38.223,57.003 c 1.563,2.331 0.934,5.516 -1.398,7.078 v 0 c -2.332,1.562 -5.518,0.933 -7.081,-1.397 L -0.438,8.509 C -2,6.179 -1.371,2.994 0.96,1.432 Z" /></g><g
       transform="matrix(0.8901978,0,0,0.8898315,306.30571,542.99059)"
       id="g92"><path
         id="path94"
         style="fill:#fce017;fill-opacity:1;fill-rule:evenodd;stroke:#3d332b;stroke-width:2.89400005;stroke-linecap:butt;stroke-linejoin:miter;stroke-miterlimit:22.9260006;stroke-dasharray:none;stroke-opacity:1"
         d="m 0,0 13.212,13.905 -18.463,-4.743 -5.433,18.392 -5.071,-18.658 -18.726,5.009 13.194,-13.849 -13.194,-13.961 18.739,5.023 5.058,-18.671 5.285,18.504 18.611,-4.856 z" /></g><g
       transform="matrix(0.6989136,0,0,0.6986237,331.21151,294.26071)"
       id="g96"><path
         id="path98"
         style="fill:#ffffff;fill-opacity:1;fill-rule:evenodd;stroke:#3d332b;stroke-width:3.68600011;stroke-linecap:butt;stroke-linejoin:miter;stroke-miterlimit:22.9260006;stroke-dasharray:none;stroke-opacity:1"
         d="M 0,0 C 0.144,1.8 0.144,1.8 0.504,2.16 0.576,1.584 0.648,1.008 0.72,0.36 0.432,0.288 0.216,0.144 0,0 Z" /></g><g
       transform="matrix(0.8647308,-0.2340851,0.2341919,0.8643799,292.02833,432.50458)"
       id="g100"><path
         id="path102"
         style="fill:none;stroke:#3d332b;stroke-width:2.87599993;stroke-linecap:butt;stroke-linejoin:miter;stroke-miterlimit:22.9260006;stroke-dasharray:none;stroke-opacity:1"
         d="m 0,0 c 2.054,0 3.72,-1.009 3.72,-2.253 0,-1.245 -1.666,-2.253 -3.72,-2.253 -2.055,0 -3.72,1.009 -3.72,2.253 0,1.244 1.666,2.252 3.72,2.253 z" /></g><g
       transform="matrix(1.3040771,0,0,1.3040771,292.02577,432.49071)"
       id="g104"><path
         id="path106"
         style="fill:#3d332b;fill-opacity:1;fill-rule:evenodd;stroke:none"
         d="M 0,0 C 1.362,-0.369 2.286,-1.336 2.062,-2.161 1.839,-2.986 0.553,-3.355 -0.809,-2.987 -2.172,-2.618 -3.095,-1.65 -2.872,-0.826 -2.648,-0.001 -1.362,0.368 0,0" /></g><g
       transform="matrix(0.7153931,0,0,0.7150879,290.38739,431.75056)"
       id="g108"><path
         id="path110"
         style="fill:none;stroke:#ffffff;stroke-width:3.60100007;stroke-linecap:butt;stroke-linejoin:miter;stroke-miterlimit:22.9260006;stroke-dasharray:none;stroke-opacity:1"
         d="m 0,0 c 0.544,0 0.987,-0.35 0.987,-0.781 0,-0.431 -0.443,-0.781 -0.987,-0.781 -0.545,0 -0.987,0.35 -0.987,0.781 C -0.987,-0.35 -0.545,0 0,0 Z" /></g><g
       transform="matrix(1.3040771,0,0,1.3040771,290.38367,431.75326)"
       id="g112"><path
         id="path114"
         style="fill:#ffffff;fill-opacity:1;fill-rule:evenodd;stroke:none"
         d="m 0,0 c 0.299,0 0.541,-0.192 0.541,-0.428 0,-0.236 -0.242,-0.428 -0.541,-0.428 -0.299,0 -0.541,0.192 -0.541,0.428 C -0.541,-0.192 -0.299,0 0,0" /></g><g
       transform="matrix(0.6989136,0,0,0.6986237,279.86072,427.99476)"
       id="g116"><path
         id="path118"
         style="fill:none;stroke:#3d332b;stroke-width:3.68799996;stroke-linecap:butt;stroke-linejoin:miter;stroke-miterlimit:22.9260006;stroke-dasharray:none;stroke-opacity:1"
         d="m 0,0 c -7.659,4.124 -12.535,8.565 -13.154,9.286 -0.393,0.303 -3.342,2.137 -3.342,2.497 C -13.04,10.847 -9.419,9.256 -5.891,8.248 -2.539,7.054 -1.025,6.179 0.589,5.892 0.405,5.079 0.216,0 0,0 Z" /></g><g
       transform="matrix(1.3040771,0,0,1.3040771,279.85808,427.99269)"
       id="g120"><path
         id="path122"
         style="fill:#ffffff;fill-opacity:1;fill-rule:evenodd;stroke:none"
         d="M 0,0 C -4.105,2.209 -6.718,4.589 -7.049,4.974 -7.26,5.137 -8.841,6.119 -8.841,6.312 -6.989,5.811 -5.048,4.959 -3.158,4.419 -1.361,3.779 -0.549,3.31 0.316,3.156 0.217,2.721 0.116,0 0,0" /></g><g
       transform="matrix(0.6989136,0,0,0.6986237,280.95634,432.7549)"
       id="g124"><path
         id="path126"
         style="fill:none;stroke:#3d332b;stroke-width:3.68799996;stroke-linecap:butt;stroke-linejoin:miter;stroke-miterlimit:22.9260006;stroke-dasharray:none;stroke-opacity:1"
         d="m 0,0 c -3.425,1.89 -5.987,3.428 -7.907,4.648 -3.932,2.497 -5.123,3.431 -5.663,3.753 -0.561,0.359 -5.872,3.021 -5.872,3.381 4.125,0 9.441,-3.116 12.97,-4.124 3.352,-1.194 5.571,0.287 7.184,0 C 0.383,6.207 0.216,0 0,0 Z" /></g><g
       transform="matrix(1.3040771,0,0,1.3040771,280.95376,432.75283)"
       id="g128"><path
         id="path130"
         style="fill:#ffffff;fill-opacity:1;fill-rule:evenodd;stroke:none"
         d="m 0,0 c -1.836,1.012 -3.209,1.837 -4.238,2.49 -2.107,1.338 -2.745,1.838 -3.035,2.01 -0.3,0.193 -3.147,1.619 -3.147,1.812 2.211,0 5.06,-1.669 6.951,-2.209 1.797,-0.64 2.986,0.153 3.851,0 C 0.205,3.325 0.116,0 0,0" /></g><g
       transform="matrix(0.8621979,0,0,0.8608856,293.33678,326.02976)"
       id="g132"><path
         id="path134"
         style="fill:#ffffff;fill-opacity:1;fill-rule:evenodd;stroke:#000000;stroke-width:1.61899996;stroke-linecap:butt;stroke-linejoin:miter;stroke-miterlimit:22.9260006;stroke-dasharray:none;stroke-opacity:1"
         d="M 0,0 C -1.224,7.992 -8.136,10.872 -14.472,11.16 -12.384,18.648 -2.376,8.784 1.8,7.776 1.8,8.064 1.872,8.352 1.944,8.64 -2.592,13.608 -9.792,20.448 -11.952,25.92 -11.016,25.632 2.664,14.184 3.024,12.24 2.736,12.169 2.448,12.024 2.16,11.88 3.384,9.36 7.704,3.24 7.56,2.736 4.68,3.816 0.36,6.696 -1.08,6.841 -0.72,5.76 2.88,0.865 0,0 Z" /></g><g
       transform="matrix(1.3040771,0,0,1.3040771,541.53862,440.83133)"
       id="g136"><path
         id="path138"
         style="fill:#ffffff;fill-opacity:1;fill-rule:evenodd;stroke:none"
         d="M 0,0 V 0 C -2.332,-1.562 -5.518,-0.933 -7.08,1.397 L -45.304,58.4 c -1.562,2.331 -0.933,5.516 1.398,7.078 v 0 c 2.332,1.562 5.518,0.933 7.081,-1.397 L 1.398,7.078 C 2.961,4.747 2.332,1.562 0,0" /></g><g
       transform="matrix(1.3040771,0,0,1.3040771,542.79067,438.96415)"
       id="g140"><path
         id="path142"
         style="fill:#3d332b;fill-opacity:1;fill-rule:evenodd;stroke:#3d332b;stroke-width:1.97599995;stroke-linecap:butt;stroke-linejoin:miter;stroke-miterlimit:22.9260006;stroke-dasharray:none;stroke-opacity:1"
         d="m 0,0 v 0 c -3.119,-2.09 -7.382,-1.249 -9.473,1.869 l -38.223,57.003 c -2.091,3.119 -1.25,7.38 1.87,9.47 v 0 c 3.119,2.09 7.382,1.249 9.473,-1.87 L 1.87,9.469 C 3.961,6.351 3.119,2.09 0,0 Z m -0.96,1.432 v 0 C -3.292,-0.13 -6.478,0.498 -8.04,2.829 l -38.224,57.003 c -1.562,2.331 -0.933,5.516 1.398,7.078 v 0 c 2.332,1.562 5.518,0.933 7.08,-1.397 L 0.438,8.509 C 2.001,6.179 1.372,2.994 -0.96,1.432 Z" /></g><g
       transform="matrix(1.3040771,0,0,1.3040771,463.39519,553.89808)"
       id="g144"><path
         id="path146"
         style="fill:#ffffff;fill-opacity:1;fill-rule:evenodd;stroke:none"
         d="m 0,0 v 0 c -2.332,-1.562 -5.518,-0.933 -7.08,1.398 l -38.224,57.003 c -1.562,2.331 -0.934,5.516 1.398,7.078 v 0 c 2.332,1.561 5.518,0.933 7.08,-1.398 L 1.398,7.078 C 2.961,4.748 2.332,1.563 0,0" /></g><g
       transform="matrix(1.3040771,0,0,1.3040771,464.68453,552.0309)"
       id="g148"><path
         id="path150"
         style="fill:#3d332b;fill-opacity:1;fill-rule:evenodd;stroke:#3d332b;stroke-width:1.97599995;stroke-linecap:butt;stroke-linejoin:miter;stroke-miterlimit:22.9260006;stroke-dasharray:none;stroke-opacity:1"
         d="m 0,0 v 0 c -3.12,-2.09 -7.382,-1.249 -9.473,1.869 l -38.223,57.004 c -2.091,3.118 -1.25,7.379 1.87,9.469 v 0 c 3.119,2.09 7.382,1.248 9.473,-1.87 L 1.87,9.469 C 3.961,6.351 3.119,2.09 0,0 Z m -0.989,1.432 v 0 C -3.321,-0.13 -6.507,0.499 -8.069,2.829 l -38.224,57.004 c -1.562,2.331 -0.933,5.516 1.398,7.077 v 0 c 2.332,1.562 5.518,0.934 7.08,-1.397 L 0.41,8.51 C 1.972,6.18 1.343,2.995 -0.989,1.432 Z" /></g><g
       transform="matrix(1.3040771,0,0,1.3040771,479.3567,538.84368)"
       id="g152"><path
         id="path154"
         style="fill:#ffffff;fill-opacity:1;fill-rule:evenodd;stroke:none"
         d="m 0,0 -0.028,-0.061 c -1.17,-2.53 -4.198,-3.644 -6.729,-2.474 v 0 c -2.531,1.169 -3.645,4.196 -2.475,6.726 l 0.028,0.061 c 1.17,2.53 4.197,3.643 6.729,2.474 v 0 C 0.056,5.557 1.17,2.53 0,0" /></g><g
       transform="matrix(1.3040771,0,0,1.3040771,481.39837,537.9007)"
       id="g156"><path
         id="path158"
         style="fill:#3d332b;fill-opacity:1;fill-rule:evenodd;stroke:#3d332b;stroke-width:1.97599995;stroke-linecap:butt;stroke-linejoin:miter;stroke-miterlimit:22.9260006;stroke-dasharray:none;stroke-opacity:1"
         d="m 0,0 -0.028,-0.061 c -1.568,-3.391 -5.626,-4.883 -9.018,-3.316 v 0 c -3.392,1.567 -4.885,5.623 -3.317,9.014 l 0.028,0.061 c 1.567,3.391 5.625,4.883 9.018,3.316 v 0 C 0.074,7.447 1.568,3.391 0,0 Z M -1.566,0.723 -1.594,0.662 c -1.169,-2.53 -4.197,-3.644 -6.729,-2.474 v 0 c -2.531,1.169 -3.645,4.196 -2.475,6.726 l 0.028,0.061 c 1.17,2.53 4.198,3.643 6.729,2.474 v 0 C -1.51,6.28 -0.396,3.253 -1.566,0.723 Z" /></g><g
       transform="matrix(1.3040771,0,0,1.3040771,401.70856,651.95215)"
       id="g160"><path
         id="path162"
         style="fill:#ffffff;fill-opacity:1;fill-rule:evenodd;stroke:none"
         d="m 0,0 -0.028,-0.061 c -1.17,-2.53 -4.198,-3.643 -6.729,-2.474 v 0 c -2.531,1.169 -3.645,4.196 -2.475,6.726 l 0.028,0.061 c 1.169,2.53 4.197,3.643 6.729,2.474 v 0 C 0.056,5.557 1.17,2.53 0,0" /></g><g
       transform="matrix(1.3040771,0,0,1.3040771,403.75023,651.00918)"
       id="g164"><path
         id="path166"
         style="fill:#3d332b;fill-opacity:1;fill-rule:evenodd;stroke:#3d332b;stroke-width:1.97599995;stroke-linecap:butt;stroke-linejoin:miter;stroke-miterlimit:22.9260006;stroke-dasharray:none;stroke-opacity:1"
         d="m 0,0 -0.028,-0.061 c -1.568,-3.39 -5.626,-4.883 -9.018,-3.316 v 0 c -3.392,1.567 -4.885,5.623 -3.317,9.014 l 0.028,0.061 c 1.568,3.391 5.625,4.883 9.018,3.316 v 0 C 0.075,7.447 1.568,3.391 0,0 Z M -1.566,0.723 -1.594,0.662 c -1.169,-2.53 -4.198,-3.643 -6.729,-2.474 v 0 c -2.531,1.169 -3.645,4.196 -2.475,6.726 l 0.028,0.061 c 1.17,2.53 4.198,3.643 6.729,2.474 v 0 C -1.51,6.28 -0.396,3.253 -1.566,0.723 Z" /></g><g
       transform="matrix(1.0905304,0.0075989,-0.0076141,1.088974,295.97793,722.93355)"
       id="g168"><path
         id="path170"
         style="fill:#3d332b;fill-opacity:1;fill-rule:evenodd;stroke:#3d332b;stroke-width:2.3670001;stroke-linecap:butt;stroke-linejoin:miter;stroke-miterlimit:22.9260006;stroke-dasharray:none;stroke-opacity:1"
         d="m 0,0 c -1.818,-0.229 -4.79,3.525 -6.04,6.624 l -26.899,54.648 c -2.873,5.846 0.533,5.545 2.965,5.842 l 62.746,-0.49 c 4.483,-0.225 7.701,-0.294 4.332,-7.441 L 6.408,4.981 C 3.406,-0.361 1.555,-0.057 0,0 Z" /></g><g
       transform="matrix(1.3040771,0,0,1.3040771,296.68758,723.92704)"
       id="g172"><path
         id="path174"
         style="fill:#ffffff;fill-opacity:1;fill-rule:evenodd;stroke:#3d332b;stroke-width:1.98000002;stroke-linecap:butt;stroke-linejoin:miter;stroke-miterlimit:22.9260006;stroke-dasharray:none;stroke-opacity:1"
         d="m 0,0 -27.892,53.054 0.354,-0.249 -0.116,10e-4 4.494,-3.081 23.081,-16.242 z" /></g><g
       transform="matrix(1.3040771,0,0,1.3040771,296.8502,724.12774)"
       id="g176"><path
         id="path178"
         style="fill:#ffffff;fill-opacity:1;fill-rule:evenodd;stroke:#3d332b;stroke-width:1.98000002;stroke-linecap:butt;stroke-linejoin:miter;stroke-miterlimit:22.9260006;stroke-dasharray:none;stroke-opacity:1"
         d="M 0,0 0.22,33.316 30.104,53.062 Z" /></g><g
       transform="matrix(1.3040771,0,0,1.3040771,296.94853,767.8863)"
       id="g180"><path
         id="path182"
         style="fill:#ffffff;fill-opacity:1;fill-rule:evenodd;stroke:#3d332b;stroke-width:1.98000002;stroke-linecap:butt;stroke-linejoin:miter;stroke-miterlimit:22.9260006;stroke-dasharray:none;stroke-opacity:1"
         d="M 0,0 -27.854,19.097 29.299,19.024 9.436,5.9 4.332,2.528 Z" /></g><g
       transform="matrix(1.3040771,0,0,1.3040771,208.81535,667.58908)"
       id="g184"><path
         id="path186"
         style="fill:#ffffff;fill-opacity:1;fill-rule:evenodd;stroke:none"
         d="m 0,0 z m 0,0 c 2.331,-1.561 5.516,-0.933 7.079,1.397 l 38.224,57.004 c 0.424,0.631 0.685,1.325 0.797,2.034 C 46.047,60.21 45.98,59.989 45.891,59.766 45.885,59.751 45.879,59.735 45.873,59.72 45.772,59.469 45.619,59.114 45.447,58.892 45.425,58.858 45.403,58.824 45.38,58.79 L 7.157,1.787 C 5.49,-0.7 1.996,-1.188 -0.294,0.664 L -0.493,0.376 C -0.338,0.242 -0.174,0.117 0,0 Z m 46.1,60.435 c 0.299,1.903 -0.495,3.905 -2.194,5.044 v 0 c -2.333,1.562 -5.519,0.932 -7.082,-1.397 L -1.399,7.077 C -2.844,4.92 -2.413,2.033 -0.493,0.376 l 0.199,0.288 C 1.996,-1.188 5.49,-0.7 7.157,1.787 L 45.38,58.79 c 0.023,0.034 0.045,0.068 0.067,0.102 0.172,0.222 0.325,0.577 0.426,0.828 0.006,0.015 0.012,0.031 0.018,0.046 0.089,0.223 0.156,0.444 0.209,0.669" /></g><g
       transform="matrix(1.3040771,0,0,1.3040771,207.56187,665.7223)"
       id="g188"><path
         id="path190"
         style="fill:#3d332b;fill-opacity:1;fill-rule:evenodd;stroke:#3d332b;stroke-width:1.97599995;stroke-linecap:butt;stroke-linejoin:miter;stroke-miterlimit:22.9260006;stroke-dasharray:none;stroke-opacity:1"
         d="m 0,0 c 3.119,-2.09 7.382,-1.249 9.473,1.869 l 38.223,57.003 c 1.997,2.978 1.319,6.999 -1.464,9.175 L 45.45,66.914 c 0.015,-0.014 0.031,-0.028 0.047,-0.042 0.894,-0.796 1.468,-1.875 1.646,-3.052 10e-4,-0.004 0.002,-0.008 0.002,-0.012 0.003,-0.018 0.006,-0.036 0.008,-0.055 0.001,-0.006 0.002,-0.012 0.002,-0.018 0.003,-0.021 0.006,-0.041 0.009,-0.062 0.013,-0.109 0.023,-0.22 0.029,-0.33 -10e-4,-0.073 0.004,-0.527 -10e-4,-0.599 0,-0.004 0,-0.009 0,-0.013 -0.002,-0.022 -0.003,-0.044 -0.005,-0.065 -0.002,-0.028 -0.004,-0.055 -0.007,-0.083 0,0 0,-10e-4 0,-0.002 -0.004,-0.037 -0.007,-0.073 -0.012,-0.11 0,-0.003 -10e-4,-0.006 -10e-4,-0.01 -0.001,-0.003 -0.001,-0.006 -0.002,-0.009 0,-10e-4 0,-10e-4 0,-0.002 -10e-4,-0.006 -10e-4,-0.012 -0.002,-0.018 0,-0.001 0,-0.001 0,-0.002 -10e-4,-0.005 -0.002,-0.01 -0.002,-0.015 0,-10e-4 -0.001,-0.002 -0.001,-0.002 0,-0.002 0,-0.003 0,-0.004 -10e-4,-0.005 -10e-4,-0.01 -0.002,-0.015 -0.001,-0.002 -0.001,-0.003 -0.001,-0.005 0,-0.002 -10e-4,-0.004 -10e-4,-0.005 -10e-4,-0.003 -10e-4,-0.006 -10e-4,-0.01 -10e-4,-0.002 -10e-4,-0.004 -10e-4,-0.005 -0.002,-0.011 -0.003,-0.022 -0.005,-0.033 0,-0.003 -10e-4,-0.005 -10e-4,-0.008 0,-0.001 -0.001,-0.001 -0.001,-0.001 0,-0.003 0,-0.007 0,-0.01 -10e-4,-0.003 -10e-4,-0.006 -0.002,-0.01 0,0 0,0 0,0 -0.002,-0.009 -0.003,-0.018 -0.005,-0.028 0,-0.003 -10e-4,-0.006 -10e-4,-0.009 -0.001,-0.002 0,-0.002 -0.001,-0.004 -10e-4,-0.006 -0.002,-0.013 -0.003,-0.02 0,-0.001 0,-0.003 -10e-4,-0.004 0,-0.004 -10e-4,-0.007 -10e-4,-0.011 -0.004,-0.022 -0.007,-0.043 -0.011,-0.065 0,0 0,0 0,-10e-4 -0.002,-0.012 -0.005,-0.025 -0.007,-0.037 0,-10e-4 -0.001,-0.002 -0.001,-0.003 0,-0.002 -10e-4,-0.005 -10e-4,-0.007 -10e-4,-0.006 -0.002,-0.012 -0.004,-0.019 0,-0.003 -0.001,-0.006 -0.001,-0.009 0,0 0,0 0,0 -0.004,-0.022 -0.008,-0.043 -0.013,-0.065 0,0 0,0 0,0 -10e-4,-0.004 -10e-4,-0.007 -0.002,-0.01 0,0 0,-10e-4 0,-10e-4 -0.005,-0.023 -0.009,-0.046 -0.014,-0.069 -10e-4,-10e-4 -10e-4,-0.003 -0.002,-0.005 -0.004,-0.018 -0.008,-0.036 -0.012,-0.055 0,0 0,0 0,-10e-4 -10e-4,-0.003 -0.002,-0.006 -0.002,-0.009 -0.001,-0.003 -0.002,-0.006 -0.002,-0.009 0,0 0,0 0,0 0,0 -10e-4,-10e-4 -10e-4,-10e-4 -0.111,-0.708 -0.372,-1.401 -0.796,-2.033 L 8.04,2.828 C 6.477,0.499 3.292,-0.129 0.961,1.432 v 0 C 0.787,1.548 0.622,1.673 0.468,1.807 L -0.516,0.383 C -0.352,0.248 -0.18,0.121 0,0 Z m 47.165,62.45 c -10e-4,-0.006 -10e-4,-0.012 -0.002,-0.018 0.001,0.006 0.001,0.012 0.002,0.018 z m -0.002,-0.02 c -10e-4,-0.005 -0.002,-0.011 -0.002,-0.015 0,0.005 10e-4,0.01 0.002,0.015 z M 47.16,62.413 c 0,-0.002 0,-0.003 0,-0.004 0,10e-4 0,0.002 0,0.004 z m -0.004,-0.029 c -10e-4,-0.003 -10e-4,-0.006 -10e-4,-0.01 0,0.004 0,0.007 10e-4,0.01 z m -0.008,-0.056 c 0,-0.001 0,-0.001 -0.001,-0.001 0,0 0.001,0 0.001,0.001 z m -0.001,-0.011 c -10e-4,-0.003 -10e-4,-0.007 -0.002,-0.01 10e-4,0.004 10e-4,0.007 0.002,0.01 z M 47.14,62.279 c 0,-0.003 -10e-4,-0.006 -10e-4,-0.009 0,0.003 10e-4,0.006 10e-4,0.009 z m -0.002,-0.013 c -10e-4,-0.006 -0.002,-0.013 -0.003,-0.02 0.001,0.007 0.002,0.014 0.003,0.02 z m -0.025,-0.148 c -10e-4,-0.006 -0.002,-0.012 -0.004,-0.019 0.002,0.007 0.003,0.013 0.004,0.019 z m -0.004,-0.019 c 0,-0.003 -0.001,-0.006 -0.001,-0.009 0,0.003 0.001,0.006 0.001,0.009 z M 47.108,62.09 c -0.004,-0.022 -0.008,-0.043 -0.013,-0.065 0.005,0.022 0.009,0.043 0.013,0.065 z m -0.031,-0.15 c -0.004,-0.018 -0.008,-0.036 -0.012,-0.055 0.004,0.019 0.008,0.037 0.012,0.055 z m -0.014,-0.065 c -0.001,-0.003 -0.001,-0.006 -0.002,-0.009 0,0.003 10e-4,0.006 0.002,0.009 z m -0.002,-0.009 c 0,0 0,-10e-4 -10e-4,-10e-4 0,0 10e-4,10e-4 10e-4,10e-4 z m -0.829,6.181 c -0.131,0.102 -0.266,0.201 -0.406,0.295 v 0 c -3.119,2.09 -7.382,1.249 -9.473,-1.869 L -1.87,9.469 C -3.84,6.531 -3.206,2.578 -0.516,0.383 l 0.984,1.424 c -1.921,1.657 -2.351,4.545 -0.906,6.702 l 38.223,57.004 c 1.564,2.33 4.749,2.96 7.082,1.397 v 0 c 1.699,-1.139 2.493,-3.14 2.194,-5.044 0,0 0,0 0,0 0,0 -10e-4,-10e-4 -10e-4,-10e-4 z m 0.916,-5.719 c 0,0.003 10e-4,0.005 10e-4,0.008 0,-0.003 -10e-4,-0.005 -10e-4,-0.008 z m 0.02,0.143 c 0,-0.003 -10e-4,-0.007 -10e-4,-0.01 0,0.004 10e-4,0.007 10e-4,0.01 z m -10e-4,-0.01 c -0.001,-0.003 -0.001,-0.006 -0.002,-0.009 10e-4,0.003 10e-4,0.006 0.002,0.009 z m -0.006,-0.046 c 0,-10e-4 -0.001,-0.002 -0.001,-0.002 0,0 0.001,0.001 0.001,0.002 z M 47.16,62.409 c -10e-4,-0.005 -10e-4,-0.01 -0.002,-0.015 10e-4,0.005 10e-4,0.01 0.002,0.015 z m -0.002,-0.015 c 0,-0.002 -0.001,-0.003 -0.001,-0.005 0,0.002 0,0.003 0.001,0.005 z m -0.004,-0.025 c -0.002,-0.011 -0.003,-0.022 -0.005,-0.033 0.002,0.011 0.003,0.022 0.005,0.033 z m -0.005,-0.033 c 0,-0.003 -10e-4,-0.005 -10e-4,-0.008 0,0.003 10e-4,0.005 10e-4,0.008 z m -0.002,-0.009 c 0,-0.004 0,-0.006 0,-0.01 0,0.003 0,0.007 0,0.01 z m -0.002,-0.02 c -0.002,-0.009 -0.003,-0.018 -0.005,-0.028 0.002,0.01 0.003,0.019 0.005,0.028 z m -0.011,-0.065 c 0,-0.004 -10e-4,-0.007 -10e-4,-0.011 0,0.004 10e-4,0.007 10e-4,0.011 z m -10e-4,-0.011 c -0.004,-0.022 -0.007,-0.043 -0.011,-0.065 0.004,0.022 0.007,0.043 0.011,0.065 z m -0.011,-0.066 c -0.002,-0.012 -0.005,-0.025 -0.007,-0.037 0.002,0.012 0.005,0.025 0.007,0.037 z m -0.008,-0.04 c 0,-0.002 -10e-4,-0.005 -10e-4,-0.007 0,0.002 10e-4,0.005 10e-4,0.007 z m -0.021,-0.111 c -0.005,-0.023 -0.009,-0.046 -0.014,-0.069 0.005,0.023 0.009,0.046 0.014,0.069 z m -0.028,-0.13 c -10e-4,-0.003 -0.002,-0.006 -0.002,-0.009 0,0.003 10e-4,0.006 0.002,0.009 z m 0.068,0.347 c 0,0.004 10e-4,0.007 10e-4,0.011 0,-0.004 -10e-4,-0.008 -10e-4,-0.011 z m -0.011,-0.065 c 0.004,0.022 0.007,0.043 0.011,0.065 -0.004,-0.022 -0.007,-0.043 -0.011,-0.065 z m -0.007,-0.038 c 0.002,0.012 0.005,0.025 0.007,0.037 0,10e-4 0,10e-4 0,10e-4 0,0 0,0 0,-10e-4 C 47.12,62.153 47.117,62.14 47.115,62.128 Z M 47.108,62.09 c 0,0.003 0.001,0.006 0.001,0.009 0.002,0.007 0.003,0.013 0.004,0.019 0,0.002 10e-4,0.005 10e-4,0.007 0,10e-4 0.001,0.002 0.001,0.003 0,-10e-4 -0.001,-0.002 -0.001,-0.003 0,-0.002 -10e-4,-0.005 -10e-4,-0.007 -10e-4,-0.006 -0.002,-0.012 -0.004,-0.019 0,-0.003 -0.001,-0.006 -0.001,-0.009 z m 0,0 c 0,0 0,0 0,0 0,0 0,0 0,0 z m -0.013,-0.065 c 0.004,0.022 0.009,0.043 0.013,0.065 -0.004,-0.022 -0.008,-0.043 -0.013,-0.065 z m -0.002,-0.01 c 10e-4,0.003 10e-4,0.006 0.002,0.01 0,0 0,0 0,0 0,0 0,0 0,0 -10e-4,-0.004 -10e-4,-0.007 -0.002,-0.01 z m -0.014,-0.07 c 0.004,0.023 0.009,0.046 0.014,0.069 0,0 0,10e-4 0,10e-4 0,0 0,-10e-4 0,-10e-4 -0.005,-0.023 -0.009,-0.046 -0.014,-0.069 z m -0.016,-0.07 c 0,0.003 10e-4,0.006 0.002,0.009 0,10e-4 0,10e-4 0,10e-4 0.004,0.019 0.008,0.037 0.012,0.055 0.001,0.002 0.001,0.004 0.002,0.005 -10e-4,-10e-4 -10e-4,-0.003 -0.002,-0.005 -0.004,-0.018 -0.008,-0.036 -0.012,-0.055 0,0 0,0 0,-10e-4 -10e-4,-0.003 -0.002,-0.006 -0.002,-0.009 z m -0.002,-0.009 c 0,0.003 10e-4,0.006 0.002,0.009 -0.001,-0.003 -0.001,-0.006 -0.002,-0.009 z m 0.079,0.413 c 0.002,0.01 0.003,0.019 0.005,0.028 -0.002,-0.009 -0.003,-0.018 -0.005,-0.028 z M 47.139,62.27 c 0,0.003 10e-4,0.006 10e-4,0.009 0,-0.003 -10e-4,-0.006 -10e-4,-0.009 z m -0.004,-0.024 c 0.001,0.007 0.002,0.014 0.003,0.02 0.001,0.002 0,0.002 0.001,0.004 -0.001,-0.002 0,-0.002 -0.001,-0.004 -10e-4,-0.006 -0.002,-0.013 -0.003,-0.02 z m 0.012,0.071 c 0,0.003 0,0.007 0,0.01 0,-0.003 0,-0.007 0,-0.01 z m -0.002,-0.01 c 10e-4,0.003 10e-4,0.007 0.002,0.01 -10e-4,-0.003 -10e-4,-0.006 -0.002,-0.01 z m 0.02,0.145 c 10e-4,0.003 10e-4,0.006 0.002,0.009 0,0.004 10e-4,0.007 10e-4,0.01 0,-0.003 -10e-4,-0.006 -10e-4,-0.01 -0.001,-0.003 -0.001,-0.006 -0.002,-0.009 z m -0.009,-0.068 c 0,10e-4 10e-4,0.003 10e-4,0.005 0,0.002 0,0.003 0.001,0.005 10e-4,0.005 10e-4,0.01 0.002,0.015 0,10e-4 0,0.002 0,0.004 0,0 0.001,0.001 0.001,0.002 0,0.005 10e-4,0.01 0.002,0.015 0,10e-4 0,10e-4 0,0.002 0.001,0.006 0.001,0.012 0.002,0.018 0,10e-4 0,10e-4 0,0.002 0,-10e-4 0,-10e-4 0,-0.002 -10e-4,-0.006 -10e-4,-0.012 -0.002,-0.018 0,-0.001 0,-0.001 0,-0.002 -10e-4,-0.005 -0.002,-0.01 -0.002,-0.015 0,-10e-4 -0.001,-0.002 -0.001,-0.002 0,-0.002 0,-0.003 0,-0.004 -10e-4,-0.005 -10e-4,-0.01 -0.002,-0.015 0,-0.002 -0.001,-0.003 -0.001,-0.005 0,-0.002 -10e-4,-0.004 -10e-4,-0.005 z m -0.007,-0.048 c 0.002,0.011 0.003,0.022 0.005,0.033 0,10e-4 0,0.003 10e-4,0.005 0,0.004 0,0.007 10e-4,0.01 -10e-4,-0.003 -10e-4,-0.006 -10e-4,-0.01 -10e-4,-0.002 -10e-4,-0.004 -10e-4,-0.005 -0.002,-0.011 -0.003,-0.022 -0.005,-0.033 z" /></g><g
       transform="matrix(1.3040771,0,0,1.3040771,132.6459,555.7689)"
       id="g192"><path
         id="path194"
         style="fill:#ffffff;fill-opacity:1;fill-rule:evenodd;stroke:none"
         d="m 0,0 z m 0,0 c 1.072,-0.718 2.324,-0.972 3.516,-0.812 0.409,0.322 0.776,0.71 1.081,1.164 L 42.82,57.355 c 1.325,1.977 1.075,4.567 -0.453,6.262 l 1.363,1.973 c -2.314,1.417 -5.381,0.764 -6.905,-1.509 L -1.398,7.078 C -2.96,4.747 -2.331,1.562 0,0 Z m 3.516,-0.812 c 1.401,0.189 2.72,0.95 3.564,2.209 L 45.304,58.4 c 1.563,2.331 0.934,5.516 -1.398,7.078 v 0 c -0.058,0.039 -0.117,0.076 -0.176,0.112 l -1.363,-1.973 c 1.528,-1.695 1.778,-4.285 0.453,-6.262 L 4.597,0.352 C 4.292,-0.102 3.925,-0.49 3.516,-0.812" /></g><g
       transform="matrix(1.3040771,0,0,1.3040771,131.39424,553.90173)"
       id="g196"><path
         id="path198"
         style="fill:#3d332b;fill-opacity:1;fill-rule:evenodd;stroke:#3d332b;stroke-width:1.97599995;stroke-linecap:butt;stroke-linejoin:miter;stroke-miterlimit:22.9260006;stroke-dasharray:none;stroke-opacity:1"
         d="M 0,0 Z M 0,0 C 0.248,-0.166 0.503,-0.313 0.763,-0.443 2.079,-0.582 3.421,-0.209 4.476,0.618 3.283,0.458 2.032,0.714 0.96,1.432 v 0 c -2.332,1.562 -2.961,4.747 -1.398,7.077 l 38.223,57.004 c 1.524,2.273 4.591,2.926 6.905,1.509 l 0.981,1.42 c -3.104,1.961 -7.261,1.097 -9.318,-1.97 L -1.87,9.469 C -3.961,6.351 -3.12,2.09 0,0 Z m 0.763,-0.443 c 3.02,-1.498 6.786,-0.558 8.71,2.312 l 38.223,57.003 c 2.091,3.119 1.249,7.38 -1.87,9.47 v 0 c -0.051,0.034 -0.103,0.067 -0.155,0.1 l -0.981,-1.42 c 0.058,-0.037 0.117,-0.073 0.176,-0.112 v 0 c 2.331,-1.562 2.96,-4.747 1.397,-7.078 L 8.04,2.829 C 7.196,1.57 5.877,0.807 4.476,0.618 3.421,-0.209 2.079,-0.582 0.763,-0.443 Z" /></g><g
       transform="matrix(1.3040771,0,0,1.3040771,385.57035,667.58947)"
       id="g200"><path
         id="path202"
         style="fill:#ffffff;fill-opacity:1;fill-rule:evenodd;stroke:none"
         d="m 0,0 z m 0,0 c -2.332,-1.562 -5.518,-0.934 -7.081,1.397 l -38.223,57.004 c -1.471,2.194 -0.999,5.146 1.008,6.787 L 0.668,0.534 C 0.464,0.341 0.241,0.162 0,0 Z m -44.296,65.188 c 0.125,0.101 0.254,0.199 0.39,0.29 v 0 c 2.331,1.562 5.518,0.933 7.08,-1.397 L 1.398,7.078 C 2.799,4.988 2.437,2.212 0.668,0.534 Z" /></g><g
       transform="matrix(1.3040771,0,0,1.3040771,386.82239,665.7223)"
       id="g204"><path
         id="path206"
         style="fill:#3d332b;fill-opacity:1;fill-rule:evenodd;stroke:#3d332b;stroke-width:1.97599995;stroke-linecap:butt;stroke-linejoin:miter;stroke-miterlimit:22.9260006;stroke-dasharray:none;stroke-opacity:1"
         d="m 0,0 z m 0,0 c -3.119,-2.09 -7.382,-1.249 -9.473,1.869 l -38.223,57.003 c -1.995,2.975 -1.321,6.989 1.453,9.167 l 0.987,-1.419 c -2.007,-1.642 -2.479,-4.593 -1.008,-6.788 L -8.041,2.829 C -6.478,0.498 -3.292,-0.13 -0.96,1.432 v 0 c 0.241,0.161 0.464,0.34 0.668,0.534 L 0.701,0.538 C 0.481,0.346 0.248,0.166 0,0 Z m -46.243,68.039 c 0.134,0.105 0.273,0.206 0.417,0.303 v 0 c 3.119,2.09 7.382,1.249 9.473,-1.869 L 1.87,9.469 C 3.795,6.599 3.234,2.761 0.701,0.538 l -0.993,1.428 c 1.77,1.677 2.131,4.454 0.73,6.543 l -38.224,57.004 c -1.563,2.33 -4.749,2.959 -7.08,1.397 v 0 c -0.136,-0.091 -0.266,-0.189 -0.39,-0.29 z" /></g></g></svg>