<?xml version="1.0" encoding="UTF-8" standalone="no"?>
<svg
   xmlns:dc="http://purl.org/dc/elements/1.1/"
   xmlns:cc="http://creativecommons.org/ns#"
   xmlns:rdf="http://www.w3.org/1999/02/22-rdf-syntax-ns#"
   xmlns:svg="http://www.w3.org/2000/svg"
   xmlns="http://www.w3.org/2000/svg"
   viewBox="0 0 793.70135 1122.52"
   height="1122.52"
   width="793.70135"
   xml:space="preserve"
   id="svg2"
   version="1.1"><metadata
     id="metadata8"><rdf:RDF><cc:Work
         rdf:about=""><dc:format>image/svg+xml</dc:format><dc:type
           rdf:resource="http://purl.org/dc/dcmitype/StillImage" /></cc:Work></rdf:RDF></metadata><defs
     id="defs6"><clipPath
       id="clipPath18"
       clipPathUnits="userSpaceOnUse"><path
         id="path16"
         d="M 0.03,841.86 H 595.29 V 0 H 0.03 Z" /></clipPath><clipPath
       id="clipPath26"
       clipPathUnits="userSpaceOnUse"><path
         id="path24"
         d="M 28.346,799.37 H 135.365 V 676.063 H 28.346 Z" /></clipPath></defs><g
     transform="matrix(1.3333333,0,0,-1.3333333,0,1122.52)"
     id="g10"><g
       id="g12"><g
         clip-path="url(#clipPath18)"
         id="g14" /></g><g
       transform="matrix(5.1105804,0,0,5.1105804,-137.16315,-3264.1499)"
       id="g20"><g
         clip-path="url(#clipPath26)"
         id="g22"><g
           transform="translate(28.345753,799.36171)"
           id="g28"><path
             id="path30"
             style="fill:#231f20;fill-opacity:1;fill-rule:evenodd;stroke:none"
             d="m 0,0 h 107.019 l -0.123,-53.285 -0.005,-0.074 c -0.533,-8.122 -1.903,-16.223 -4.512,-23.946 -2.376,-7.036 -5.757,-13.639 -10.243,-19.566 -4.784,-6.32 -10.641,-11.628 -17.241,-15.998 -6.394,-4.234 -13.375,-7.534 -20.576,-10.144 l -0.81,-0.294 -0.81,0.294 c -7.2,2.61 -14.181,5.91 -20.575,10.144 -6.601,4.37 -12.457,9.678 -17.241,15.998 -4.486,5.927 -7.867,12.53 -10.244,19.566 -2.608,7.723 -3.978,15.824 -4.511,23.945 L 0.123,-53.285 0,0" /></g></g></g><g
       transform="matrix(5.1105804,0,0,5.1105804,12.166794,816.6012)"
       id="g32"><path
         id="path34"
         style="fill:#ffffff;fill-opacity:1;fill-rule:evenodd;stroke:none"
         d="m 0,0 h 105.272 l -0.121,-52.384 -0.003,-0.047 c -0.528,-8.046 -1.883,-16.073 -4.467,-23.724 -2.349,-6.956 -5.678,-13.46 -10.113,-19.319 -4.73,-6.249 -10.501,-11.477 -17.027,-15.797 -6.336,-4.195 -13.258,-7.466 -20.392,-10.052 l -0.513,-0.186 -0.513,0.186 c -7.134,2.586 -14.056,5.857 -20.391,10.052 -6.527,4.32 -12.297,9.548 -17.028,15.797 -4.435,5.859 -7.763,12.363 -10.113,19.319 -2.584,7.651 -3.939,15.678 -4.467,23.724 L 0.121,-52.384 0,0" /></g><g
       transform="matrix(5.1105804,0,0,5.1105804,281.16626,203.79886)"
       id="g36"><path
         id="path38"
         style="fill:#fcd006;fill-opacity:1;fill-rule:evenodd;stroke:none"
         d="m 0,0 c 7.543,2.735 14.229,6.022 20.074,9.892 6.624,4.386 12.169,9.521 16.658,15.451 3.188,4.211 5.843,8.823 7.974,13.852 0.693,1.636 1.331,3.315 1.913,5.04 2.373,7.026 3.83,14.794 4.391,23.341 l 0.118,50.828 H -51.128 l 0.118,-50.828 c 0.561,-8.547 2.018,-16.315 4.391,-23.341 0.582,-1.725 1.22,-3.404 1.913,-5.04 2.131,-5.029 4.786,-9.641 7.974,-13.852 4.489,-5.93 10.033,-11.065 16.658,-15.451 C -14.229,6.022 -7.543,2.735 0,0" /></g><g
       transform="matrix(5.1105804,0,0,5.1105804,509.63379,404.10196)"
       id="g40"><path
         id="path42"
         style="fill:#008350;fill-opacity:1;fill-rule:evenodd;stroke:none"
         d="m 0,0 c -2.131,-5.029 -4.786,-9.641 -7.974,-13.852 -4.488,-5.929 -10.033,-11.065 -16.658,-15.451 -5.845,-3.87 -12.531,-7.157 -20.074,-9.892 -7.543,2.735 -14.229,6.022 -20.074,9.892 -6.624,4.386 -12.169,9.522 -16.658,15.451 -3.187,4.211 -5.843,8.823 -7.974,13.852 H 0" /></g><g
       transform="matrix(5.1105804,0,0,5.1105804,353.30685,531.67188)"
       id="g44"><path
         id="path46"
         style="fill:#d22d2a;fill-opacity:1;fill-rule:evenodd;stroke:none"
         d="M 0,0 0.117,-0.352 0,-0.687 -0.235,-1.039 -0.57,-1.274 -2.632,-2.414 -4.811,-3.906 -6.974,-5.381 -9.153,-6.99 -11.45,-8.7 l -2.28,-1.61 -2.413,-1.609 -2.28,-1.475 -0.352,-0.352 -0.218,-0.336 -0.118,-0.469 0.118,-0.453 h -0.47 l -0.218,0.235 -0.234,0.117 -0.453,-0.117 -0.352,-0.235 -0.235,-0.335 -0.1,-0.352 -0.118,-0.453 v -0.57 l 0.118,-0.687 0.1,-0.804 v -0.118 h -0.218 l -0.117,0.118 -0.117,0.687 -0.118,0.452 -0.1,0.235 -0.235,0.117 -0.235,-0.117 -0.218,-0.352 -0.352,-0.452 -0.234,-0.805 -0.453,-1.14 h -0.235 l -0.1,0.117 0.335,1.023 0.352,1.039 0.335,1.14 0.453,1.023 0.352,0.586 0.57,0.57 0.687,0.453 0.805,0.453 4.342,3.101 4.241,2.967 4.241,3.101 4.225,3.202 0.469,0.453 0.335,0.453 V 0.453 L -2.062,0.671 -2.179,0.905 0,0" /></g><g
       transform="matrix(5.1105804,0,0,5.1105804,353.30685,531.67188)"
       id="g48"><path
         id="path50"
         style="fill:#231f20;fill-opacity:1;fill-rule:evenodd;stroke:none"
         d="M 0,0 0.117,-0.352 0,-0.687 -0.235,-1.039 -0.57,-1.274 -2.632,-2.414 -4.811,-3.906 -6.974,-5.381 -9.153,-6.99 -11.45,-8.7 l -2.28,-1.61 -2.413,-1.609 -2.28,-1.475 -0.352,-0.352 -0.218,-0.336 -0.118,-0.469 0.118,-0.453 h -0.47 l -0.218,0.235 -0.234,0.117 -0.453,-0.117 -0.352,-0.235 -0.235,-0.335 -0.1,-0.352 -0.118,-0.453 v -0.57 l 0.118,-0.687 0.1,-0.804 v -0.118 h -0.218 l -0.117,0.118 -0.117,0.687 -0.118,0.452 -0.1,0.235 -0.235,0.117 -0.235,-0.117 -0.218,-0.352 -0.352,-0.452 -0.234,-0.805 -0.453,-1.14 h -0.235 l -0.1,0.117 0.335,1.023 0.352,1.039 0.335,1.14 0.453,1.023 0.352,0.586 0.57,0.57 0.687,0.453 0.805,0.453 4.342,3.101 4.241,2.967 4.241,3.101 4.225,3.202 0.469,0.453 0.335,0.453 v 0.352 l -0.117,0.218 -0.117,0.234 z m -19.879,-15.254 -0.036,0.016 -0.076,0.076 -0.073,-0.019 -0.086,-0.057 -0.119,-0.036 -0.113,-0.075 -0.138,-0.197 -0.077,-0.27 -0.1,-0.388 v -0.469 l 0.112,-0.658 0.091,-0.726 0.009,-0.031 0.117,-1.04 0.335,-1.257 -0.57,0.453 -0.452,0.469 -0.352,0.57 -0.124,0.256 -0.094,0.095 v -0.803 l 0.1,-1.04 -0.57,1.04 -0.297,0.907 -0.038,-0.119 -0.023,-0.047 -0.576,-1.451 h -0.136 l -0.522,-1.134 -0.688,-1.593 v 1.827 l 0.101,0.922 0.128,0.375 -0.076,0.089 0.065,0.2 v 0.024 l 0.004,-0.014 -0.004,0.014 0.165,0.478 0.19,0.578 0.349,1.032 0.341,1.16 0.477,1.078 0.398,0.662 0.645,0.646 0.742,0.488 0.797,0.448 4.323,3.089 4.239,2.965 4.233,3.096 4.199,3.182 0.421,0.406 0.218,0.294 V 0.333 L -2.484,0.452 -3.175,1.833 0.382,0.356 0.619,-0.356 0.429,-0.901 0.111,-1.377 -0.318,-1.678 -2.382,-2.819 -4.543,-4.298 -6.699,-5.769 -8.87,-7.372 l -2.306,-1.717 -2.285,-1.613 -2.423,-1.615 -2.239,-1.449 -0.281,-0.281 -0.148,-0.227 -0.042,-0.171 -0.015,-0.059 0.068,-0.148 0.235,-0.469 0.335,-0.452 0.352,-0.353 -0.586,0.118 -0.429,0.329 h -1.036 l -0.209,0.225" /></g><g
       transform="matrix(5.1105804,0,0,5.1105804,484.11667,521.25171)"
       id="g52"><path
         id="path54"
         style="fill:#ffffff;fill-opacity:1;fill-rule:evenodd;stroke:none"
         d="m 0,0 c 0.184,-0.226 0.357,-0.46 0.506,-0.71 0.07,-0.101 0.117,-0.228 0.117,-0.352 0,-0.217 -0.099,-0.411 -0.25,-0.554 -0.205,-0.195 -0.531,-0.278 -0.869,-0.301 -0.338,-0.024 -0.689,0.011 -0.943,0.051 -0.651,0.1 -1.477,0.5 -2.062,0.804 -0.361,0.189 -0.641,0.395 -0.915,0.621 -0.188,0.154 -0.373,0.318 -0.58,0.491 -0.066,0.056 -0.137,0.106 -0.214,0.146 -0.104,0.053 0.083,-0.22 0.1,-0.336 0.044,-0.302 -0.01,-0.494 -0.147,-0.601 -0.136,-0.107 -0.355,-0.128 -0.641,-0.086 -0.256,0.037 -0.814,0.225 -1.039,0.335 -0.19,0.094 -0.39,0.217 -0.59,0.358 -2.848,0.057 -5.678,0.481 -8.512,0.788 -1.466,0.159 -2.927,0.309 -4.378,0.531 -1.363,0.208 -2.693,0.53 -4.019,0.88 -1.097,0.29 -2.192,0.599 -3.296,0.879 -2.015,0.51 -4.002,1.056 -6.065,1.357 -0.723,0.106 -1.444,0.171 -2.091,0.136 -0.122,-0.007 0.085,-0.231 0.1,-0.352 0.019,-0.15 0.02,-0.303 0,-0.453 -0.014,-0.116 -0.043,-0.233 -0.1,-0.335 -0.096,-0.17 -0.222,-0.323 -0.352,-0.469 -0.178,-0.201 -0.531,-0.305 -0.57,-0.57 -0.052,-0.355 0.24,-0.677 0.335,-1.023 0.095,-0.342 0.175,-0.689 0.235,-1.039 0.058,-0.339 0.099,-0.68 0.117,-1.023 0.021,-0.379 0.103,-0.774 0,-1.14 -0.059,-0.209 -0.278,-0.339 -0.452,-0.469 -0.139,-0.103 -0.3,-0.186 -0.47,-0.218 -0.225,-0.043 -0.459,-0.026 -0.687,0 -0.08,0.009 -0.19,0.026 -0.218,0.1 -1.018,2.664 -1.957,5.358 -2.91,8.046 -0.315,0.888 -0.538,1.397 -0.845,1.763 -0.421,0.501 -1.001,0.733 -2.196,1.306 -0.218,0.104 -0.433,0.213 -0.646,0.327 -0.5,0.269 -0.98,0.575 -1.444,0.905 -1.709,1.215 -3.1,2.641 -4.209,4.271 -1.291,1.899 -2.168,4.154 -2.751,6.492 -0.515,2.064 -0.8,4.194 -0.94,6.203 -0.11,1.591 -0.186,3.145 -0.515,4.641 -0.34,1.547 -1.092,3.175 -2.171,4.506 -0.876,1.081 -1.967,1.965 -3.226,2.452 -1.37,0.529 -2.299,0.457 -3.721,0.494 -0.311,0.007 -0.612,0.046 -0.879,0.152 -0.175,0.069 -0.307,0.217 -0.453,0.335 -0.136,0.11 -0.272,0.22 -0.408,0.33 -0.013,0.01 -0.026,0.021 -0.038,0.031 -0.049,0.217 0.571,1.122 0.198,1.483 -0.303,0.293 -0.916,0.194 -1.36,0.244 -0.266,0.031 -0.493,0.164 -0.688,0.326 -0.287,0.238 -0.142,1.752 -0.118,2.163 0.112,1.852 0.737,3.655 1.809,5.04 1.215,1.571 3.002,2.605 5.264,2.571 1.4,-0.021 2.712,-0.499 3.821,-1.278 1.043,-0.732 1.907,-1.73 2.5,-2.866 0.19,-0.364 0.357,-0.735 0.47,-1.054 0.198,-0.56 0.241,-1.175 0.452,-1.726 0.195,-0.506 0.452,-0.987 0.688,-1.475 0.613,-1.272 1.299,-2.53 2.09,-3.714 2.75,-4.118 5.969,-5.479 10.604,-6.753 4.318,-1.187 8.369,-2.625 12.307,-4.838 5.631,-3.163 9.936,-7.444 13.983,-12.044 2.77,-3.147 5.418,-6.443 8.29,-9.632 C -4.25,5.323 -3.521,4.486 -2.813,3.632 -2.224,2.921 -1.664,2.186 -1.103,1.453 -0.734,0.97 -0.361,0.49 0,0" /></g><g
       transform="matrix(5.1105804,0,0,5.1105804,410.64737,521.17999)"
       id="g56"><path
         id="path58"
         style="fill:#231f20;fill-opacity:1;fill-rule:evenodd;stroke:none"
         d="m 0,0 c -0.571,0.068 -1.143,0.134 -1.714,0.196 -1.469,0.159 -2.939,0.31 -4.399,0.533 -1.374,0.21 -2.725,0.536 -4.068,0.891 -1.098,0.289 -2.191,0.598 -3.292,0.877 -1.992,0.504 -3.979,1.05 -6.016,1.348 -0.468,0.069 -0.955,0.125 -1.436,0.138 0.006,-0.133 0.001,-0.266 -0.015,-0.397 -0.023,-0.177 -0.07,-0.351 -0.158,-0.508 -0.114,-0.202 -0.258,-0.379 -0.411,-0.552 -0.093,-0.104 -0.201,-0.183 -0.315,-0.261 -0.031,-0.022 -0.1,-0.065 -0.14,-0.1 0.012,-0.102 0.098,-0.26 0.142,-0.349 0.071,-0.144 0.138,-0.286 0.181,-0.44 0.099,-0.358 0.183,-0.72 0.245,-1.086 0.061,-0.357 0.104,-0.716 0.124,-1.077 0.022,-0.408 0.094,-0.773 0.012,-1.173 l 0.103,-1.783 0.114,-0.994 c 0.063,-0.269 0.127,-0.538 0.19,-0.806 0.068,-0.097 0.135,-0.193 0.203,-0.29 0.108,-0.217 0.224,-0.444 0.32,-0.679 0.123,-0.301 0.213,-0.616 0.213,-0.937 0,-0.448 -0.124,-0.797 -0.306,-1.129 -0.124,-0.227 -0.276,-0.446 -0.433,-0.682 l -1.353,-4.951 -0.69,-2.64 -0.803,-2.627 -0.568,-2.407 -0.567,-2.051 c -0.11,-0.601 -0.221,-1.201 -0.331,-1.802 -0.066,-0.386 -0.132,-0.772 -0.198,-1.158 0.284,-0.342 0.534,-0.822 0.752,-1.041 0.151,-0.156 0.302,-0.312 0.453,-0.469 0.157,-0.19 0.313,-0.38 0.47,-0.57 0.039,-0.229 0.078,-0.458 0.117,-0.687 -0.287,0.286 -0.493,0.46 -0.74,0.622 -0.286,0.186 -0.558,0.328 -0.873,0.387 -0.166,0.031 -0.246,0.028 -0.339,0.048 -0.056,0.011 -0.116,0.031 -0.202,0.071 -0.004,-0.034 -0.009,-0.068 -0.014,-0.102 -0.092,-0.261 -0.148,-0.537 -0.275,-0.783 -0.106,-0.206 -0.266,-0.379 -0.416,-0.555 -0.122,-0.143 -0.246,-0.288 -0.398,-0.399 -0.316,-0.229 -0.65,-0.434 -0.996,-0.615 -0.43,-0.225 -0.871,-0.391 -1.316,-0.544 -0.399,-0.137 -0.762,-0.277 -1.118,-0.433 -0.368,-0.16 -0.727,-0.338 -1.108,-0.547 0.078,0.151 0.156,0.302 0.234,0.453 0.151,0.229 0.302,0.458 0.453,0.687 0.284,0.274 0.548,0.623 0.772,0.814 0.24,0.205 0.48,0.411 0.72,0.616 0,0.02 0,0.041 0,0.062 -0.002,0.003 -0.004,0.006 -0.006,0.01 -0.074,0.055 -0.147,0.11 -0.22,0.165 -0.267,-0.062 -0.535,-0.123 -0.802,-0.184 -0.294,-0.075 -0.589,-0.15 -0.883,-0.225 -0.236,-0.098 -0.493,-0.156 -0.707,-0.295 -0.41,-0.265 -1.037,-0.729 -1.389,-1.08 -0.171,-0.172 -0.33,-0.361 -0.452,-0.57 -0.148,-0.253 -0.235,-0.537 -0.352,-0.805 -0.039,0.341 -0.118,0.679 -0.118,1.022 0,0.271 0.046,0.544 0.118,0.805 0.019,0.069 0.071,0.23 0.126,0.382 0.054,0.152 0.111,0.293 0.139,0.322 0.302,0.309 0.591,0.632 0.917,0.916 0.358,0.312 0.667,0.501 1.001,0.651 0.294,0.132 0.609,0.234 0.996,0.365 0.214,0.072 0.441,0.091 0.662,0.136 0.12,0 0.24,0 0.36,0 -0.137,0.032 -0.275,0.063 -0.413,0.095 -0.268,0.039 -0.536,0.081 -0.804,0.117 -0.415,0.056 -0.848,0.105 -1.28,0.128 -0.626,0.033 -0.957,0.04 -1.283,-0.093 -0.223,-0.091 -0.444,-0.247 -0.757,-0.504 -0.078,-0.112 -0.156,-0.224 -0.234,-0.336 0,0.112 0,0.224 0,0.336 0.085,0.341 0.167,0.6 0.328,0.822 0.124,0.172 0.297,0.321 0.556,0.468 0.517,0.292 1.166,0.469 1.555,0.524 0.387,0.054 0.804,0.055 1.333,0.03 0.387,-0.019 0.777,-0.04 1.156,-0.118 0.39,-0.079 0.764,-0.223 1.14,-0.352 0.244,-0.083 0.48,-0.19 0.72,-0.285 0.049,0.074 0.099,0.148 0.148,0.223 0.062,0.087 0.123,0.175 0.184,0.263 0.182,0.733 0.364,1.466 0.546,2.199 0.151,0.766 0.302,1.532 0.453,2.297 l 0.573,2.294 0.587,2.295 0.569,2.279 0.568,2.285 0.452,2.277 c 0.182,0.774 0.365,1.547 0.547,2.321 -0.071,0.349 -0.212,0.753 -0.221,1.104 -0.01,0.412 0.138,0.872 0.221,1.278 l -0.873,3.638 c -1.015,2.659 -1.952,5.346 -2.903,8.028 -0.176,0.495 -0.419,1.209 -0.761,1.616 -0.033,0.039 -0.067,0.077 -0.103,0.112 -0.192,0.191 -0.434,0.333 -0.672,0.459 -0.41,0.218 -0.843,0.411 -1.262,0.612 -0.225,0.108 -0.447,0.22 -0.666,0.338 -0.518,0.278 -1.015,0.595 -1.495,0.936 -1.698,1.207 -3.154,2.668 -4.326,4.391 -1.355,1.993 -2.239,4.316 -2.82,6.645 -0.512,2.054 -0.805,4.174 -0.952,6.285 -0.105,1.522 -0.176,3.077 -0.505,4.571 -0.339,1.541 -1.082,3.081 -2.076,4.309 -0.806,0.993 -1.827,1.844 -3.029,2.308 -1.264,0.489 -2.245,0.428 -3.561,0.462 -0.354,0.009 -0.712,0.054 -1.043,0.185 -0.246,0.098 -0.379,0.249 -0.576,0.408 -0.136,0.11 -0.272,0.219 -0.407,0.329 -0.013,0.01 -0.026,0.021 -0.039,0.032 l -0.129,0.104 -0.036,0.162 0.463,0.103 c -0.048,0.217 0.572,1.123 0.199,1.483 -0.303,0.293 -0.916,0.194 -1.36,0.245 -0.266,0.03 -0.494,0.164 -0.689,0.325 -0.286,0.238 -0.142,1.752 -0.117,2.163 0.111,1.852 0.737,3.655 1.809,5.04 1.215,1.571 3.002,2.606 5.263,2.571 1.401,-0.021 2.713,-0.499 3.822,-1.278 1.043,-0.732 1.907,-1.73 2.5,-2.866 0.189,-0.364 0.357,-0.734 0.47,-1.053 0.198,-0.56 0.24,-1.176 0.452,-1.727 0.195,-0.506 0.452,-0.987 0.688,-1.475 0.613,-1.272 1.299,-2.53 2.09,-3.714 2.75,-4.117 5.969,-5.479 10.603,-6.753 4.319,-1.186 8.369,-2.625 12.308,-4.838 5.631,-3.163 9.936,-7.444 13.983,-12.044 2.769,-3.147 5.418,-6.443 8.289,-9.632 0.743,-0.824 1.472,-1.661 2.18,-2.515 0.589,-0.711 1.149,-1.445 1.71,-2.179 0.545,-0.714 1.1,-1.422 1.609,-2.162 0.07,-0.102 0.117,-0.229 0.117,-0.352 0,-0.148 -0.046,-0.284 -0.122,-0.402 0.386,-0.292 0.776,-0.582 1.136,-0.902 0.237,-0.21 0.461,-0.434 0.663,-0.681 0.166,-0.204 0.134,-0.332 0.022,-0.393 -0.145,-0.079 -0.424,-0.052 -0.578,0.065 l -0.583,0.439 c 0.117,-0.1 0.149,-0.155 0.266,-0.255 0.151,-0.129 0.302,-0.258 0.454,-0.386 0.227,-0.192 0.468,-0.368 0.687,-0.57 0.103,-0.095 0.205,-0.189 0.269,-0.298 0.063,-0.109 0.088,-0.234 0.038,-0.392 -0.064,-0.198 -0.207,-0.243 -0.371,-0.232 -0.163,0.011 -0.347,0.078 -0.493,0.104 0.062,-0.239 0.033,-0.398 -0.053,-0.495 -0.257,-0.294 -1.021,-0.044 -1.335,0.173 l -1.14,0.788 c 0.034,-0.073 0.084,-0.14 0.101,-0.218 0.032,-0.143 0.006,-0.25 -0.059,-0.314 -0.081,-0.08 -0.223,-0.096 -0.394,-0.038 -0.291,0.099 -0.783,0.499 -1.022,0.687 L 8.994,-1.618 9.266,-1.953 C 9.403,-2.158 9.549,-2.361 9.596,-2.569 9.638,-2.753 9.603,-2.941 9.418,-3.137 9.25,-3.314 9.038,-3.378 8.821,-3.366 8.524,-3.35 8.219,-3.193 8.009,-2.992 L 6.887,-1.917 6.869,-1.953 C 6.689,-2.016 6.442,-2.085 6.167,-2.099 5.892,-2.112 5.689,-2.073 5.517,-1.992 5.266,-1.875 5.079,-1.668 4.825,-1.41 4.693,-1.498 4.573,-1.562 4.448,-1.601 4.277,-1.655 4.061,-1.661 3.855,-1.623 3.582,-1.573 3.333,-1.419 3.103,-1.229 2.824,-1 2.572,-0.718 2.333,-0.505 l -0.16,0.143 C 2.055,-0.48 1.946,-0.557 1.831,-0.606 1.623,-0.696 1.376,-0.723 1.132,-0.694 0.819,-0.657 0.514,-0.528 0.31,-0.319 Z m -21.749,-0.779 c 0.015,-0.215 -0.115,-0.5 -0.3,-0.762 -0.21,-0.297 -0.49,-0.566 -0.71,-0.672 -0.081,-0.04 -0.191,-0.054 -0.311,-0.048 -0.312,0.015 -0.659,0.128 -0.777,0.441 -0.915,2.429 -1.771,4.88 -2.638,7.326 -0.314,0.888 -0.537,1.397 -0.844,1.763 -0.421,0.501 -1.001,0.734 -2.196,1.306 -0.218,0.104 -0.433,0.213 -0.646,0.327 -0.5,0.269 -0.98,0.575 -1.445,0.905 -1.708,1.215 -3.099,2.641 -4.208,4.272 -1.291,1.899 -2.168,4.153 -2.751,6.492 -0.515,2.063 -0.8,4.193 -0.94,6.203 -0.11,1.59 -0.186,3.144 -0.515,4.64 -0.34,1.547 -1.092,3.175 -2.171,4.506 -0.876,1.081 -1.967,1.966 -3.227,2.452 -1.369,0.529 -2.298,0.457 -3.72,0.494 -0.311,0.008 -0.613,0.046 -0.879,0.152 -0.175,0.069 -0.307,0.217 -0.453,0.335 -0.149,0.12 -0.298,0.241 -0.447,0.361 l 0.9,0.444 c 0.38,0.151 0.754,0.317 1.14,0.452 0.38,0.134 0.767,0.248 1.156,0.352 0.879,0.237 1.744,0.333 2.578,0.247 0.945,-0.098 1.849,-0.428 2.686,-1.051 0.239,-0.178 0.484,-0.353 0.687,-0.57 1.457,-1.55 2.221,-3.53 2.687,-5.648 0.639,-2.902 0.718,-6.062 1.251,-8.725 0.492,-2.458 1.159,-4.874 2.205,-7.179 0.714,-1.574 1.542,-2.852 2.56,-3.976 0.871,-0.961 1.882,-1.81 3.082,-2.635 0.298,-0.205 0.603,-0.402 0.922,-0.57 0.647,-0.34 1.381,-0.64 2.062,-0.905 0.336,-0.131 0.674,-0.263 1.023,-0.352 0.409,-0.106 0.951,-0.18 1.374,-0.118 0.216,0.031 0.336,0.179 0.386,0.361 0.051,0.181 0.031,0.396 -0.033,0.561 0.121,-0.036 0.214,-0.113 0.294,-0.209 0.177,-0.213 0.291,-0.523 0.493,-0.713 0.24,-0.224 0.524,-0.399 0.805,-0.57 0.218,-0.132 0.455,-0.23 0.687,-0.335 0.187,-0.085 0.37,-0.19 0.57,-0.235 0.153,-0.034 0.32,-0.044 0.47,0 0.131,0.038 0.25,0.128 0.335,0.235 0.074,0.093 0.117,0.217 0.117,0.335 0,0.156 -0.012,0.173 -0.117,0.453 0.337,-0.222 0.507,-0.633 0.805,-0.905 0.242,-0.222 0.525,-0.398 0.804,-0.57 0.219,-0.136 0.447,-0.262 0.688,-0.352 0.181,-0.068 0.376,-0.118 0.57,-0.118 0.155,0 0.31,0.055 0.452,0.118 0.129,0.056 0.263,0.125 0.352,0.234 0.076,0.092 0.118,0.217 0.118,0.336 0,0.161 -0.01,0.288 -0.118,0.469 0.374,-0.215 0.572,-0.65 0.906,-0.922 0.388,-0.317 1.141,-0.829 1.609,-1.023 0.215,-0.089 0.455,-0.117 0.687,-0.117 0.334,0 0.557,0.068 0.708,0.193 0.251,0.209 0.299,0.579 0.315,1.064 0.099,-0.153 0.132,-0.468 0.234,-0.687 0.153,-0.326 0.435,-0.781 0.688,-1.039 0.285,-0.292 0.801,-0.696 1.14,-0.906 0.421,-0.26 0.947,-0.488 1.42,-0.44 0.283,0.029 0.548,0.159 0.759,0.44 0.052,0.07 0.095,0.15 0.117,0.235 0.019,0.07 0.013,0.146 0,0.218 -0.026,0.154 -0.07,0.301 -0.117,0.453 0.444,-0.35 0.728,-0.87 1.14,-1.258 0.478,-0.45 1.239,-0.998 1.844,-1.257 0.214,-0.091 0.456,-0.096 0.687,-0.117 0.248,-0.023 0.572,-0.003 0.832,0.114 0.121,0.054 0.229,0.13 0.308,0.231 L -0.526,0.54 c -0.379,0.044 -0.758,0.087 -1.137,0.128 -1.466,0.159 -2.928,0.309 -4.378,0.531 -1.363,0.208 -2.694,0.53 -4.019,0.88 -1.098,0.29 -2.192,0.599 -3.296,0.879 -2.015,0.51 -4.002,1.056 -6.065,1.357 -0.723,0.106 -1.444,0.171 -2.091,0.136 -0.122,-0.006 0.085,-0.231 0.1,-0.352 0.019,-0.15 0.019,-0.303 0,-0.453 -0.014,-0.115 -0.043,-0.233 -0.1,-0.335 -0.096,-0.17 -0.223,-0.323 -0.352,-0.469 -0.178,-0.201 -0.531,-0.305 -0.57,-0.57 -0.052,-0.355 0.24,-0.677 0.335,-1.023 0.095,-0.342 0.175,-0.689 0.235,-1.039 0.045,-0.266 0.083,-0.534 0.102,-0.803 z M -47.258,46.11 c 0.05,0.3 0.106,0.638 0.221,0.942 0.157,0.419 0.42,0.749 0.888,0.809 0.223,0.029 0.413,-0.014 0.559,-0.122 0.114,-0.085 0.201,-0.21 0.256,-0.373 l 0.205,-0.6 c 0.201,0.048 0.401,0.097 0.6,0.148 l -0.117,0.452 c -0.045,0.173 -0.129,0.554 -0.235,0.688 -0.201,0.252 -0.443,0.409 -0.711,0.483 -0.269,0.074 -0.563,0.065 -0.868,-0.015 -0.333,-0.087 -0.627,-0.278 -0.935,-0.586 -0.392,-0.391 -0.562,-0.745 -0.634,-1.131 -0.065,-0.341 -0.054,-0.708 -0.054,-1.149 0.262,0.147 0.514,0.295 0.772,0.427 z M -5.955,2.389 -5.151,2.054 C -5.083,1.991 -5.199,1.828 -5.268,1.819 -5.842,1.746 -5.987,1.793 -6.408,1.936 -6.62,2.009 -7,2.064 -6.861,2.389 c 0.014,0.031 0.071,-0.016 0.101,0 0.172,0.093 0.019,0.275 0.805,0 z M -8.587,2.624 C -8.427,2.57 -7.898,2.387 -7.783,2.272 -7.715,2.204 -7.828,2.062 -7.9,2.054 -8.345,2.005 -8.625,2.023 -9.04,2.154 -9.324,2.244 -9.405,2.2 -9.493,2.506 c -0.046,0.163 0.017,0.093 0.101,0.118 0.422,0.126 0.17,0.19 0.805,0 z m -0.57,1.592 C -8.898,4.163 -8.111,4.029 -7.9,3.881 -7.825,3.828 -7.953,3.651 -8.017,3.646 -8.508,3.61 -9.002,3.617 -9.493,3.646 l -0.922,0.235 -0.352,0.335 c 0.107,0.214 0.861,0.155 1.04,0.118 z m -4.007,1.61 c 0.291,-0.097 0.577,-0.136 0.687,-0.453 0.109,-0.311 -0.418,-0.26 -0.57,-0.235 -0.086,0.015 -0.153,0.084 -0.234,0.118 -0.24,0.098 -0.708,0.162 -0.805,0.452 -0.065,0.198 0.823,0.118 0.922,0.118 z m 0.235,-1.61 c 0.36,-0.074 0.714,-0.116 1.022,-0.335 0.136,-0.096 0.319,-0.189 0.352,-0.352 0.1,-0.482 -2.024,-0.094 -2.296,0 -0.308,0.106 -1.237,0.737 -0.57,0.805 0.61,0.061 0.917,0.001 1.492,-0.118 z m -3.789,1.61 c 0.598,-0.15 0.658,-0.089 1.04,-0.453 0.04,-0.038 0.156,-0.078 0.117,-0.117 -0.386,-0.387 -0.917,-0.234 -1.375,-0.118 -0.604,0.154 -0.305,0.042 -0.804,0.336 -0.095,0.055 -0.313,0.078 -0.235,0.234 0.116,0.232 0.584,0.292 0.805,0.235 z m -3.772,1.71 c 0.422,-0.087 0.641,-0.121 1.023,-0.336 0.073,-0.041 0.483,-0.221 0.352,-0.352 -0.217,-0.216 -0.869,-0.157 -1.14,-0.117 -0.239,0.035 -0.454,0.169 -0.687,0.235 -0.55,0.153 -0.47,0.031 -1.04,0.352 -0.075,0.042 -0.46,0.201 -0.335,0.335 0.272,0.292 0.824,0.054 1.14,0 z m 0.118,-1.71 c 0.495,-0.102 0.575,-0.101 1.022,-0.352 0.072,-0.041 0.485,-0.203 0.352,-0.336 -0.218,-0.218 -0.883,-0.157 -1.156,-0.117 -0.235,0.034 -0.443,0.171 -0.671,0.235 -0.481,0.134 -0.556,0.057 -1.039,0.335 -0.202,0.116 -0.621,0.379 -0.118,0.453 0.529,0.077 1.096,-0.113 1.61,-0.218 z M -24.496,7.2 c 0.495,-0.102 0.575,-0.1 1.022,-0.352 0.072,-0.04 0.485,-0.202 0.352,-0.335 -0.293,-0.293 -0.806,-0.069 -1.139,0 -0.698,0.143 -1.09,0.081 -1.727,0.453 -0.072,0.041 -0.463,0.224 -0.335,0.352 0.19,0.19 0.923,0.169 1.14,0.1 z m -0.453,1.375 c 0.129,-0.053 0.817,-0.21 0.688,-0.469 -0.04,-0.08 -0.834,0.089 -0.922,0.117 -0.163,0.05 -0.302,0.157 -0.453,0.235 -0.078,0.039 -0.274,0.039 -0.235,0.117 0.125,0.249 0.721,0.041 0.922,0 z m -2.632,1.375 c 0.241,-0.125 0.897,-0.444 1.023,-0.688 0.258,-0.497 -0.829,-0.187 -1.023,-0.117 l -1.039,0.453 c -0.116,0.075 -0.543,0.505 -0.453,0.687 0.11,0.219 0.28,0.051 0.453,0 z m -3.218,1.139 c 0.287,-0.191 0.311,-0.147 0.469,-0.452 0.147,-0.284 0.304,-0.653 -0.235,-0.47 -0.091,0.032 -1.72,1.096 -1.14,1.375 0.356,0.171 0.696,-0.227 0.906,-0.453 z m -2.045,2.062 c 0.196,-0.316 0.806,-1.354 -0.118,-1.039 -0.182,0.062 -0.351,0.421 -0.469,0.57 -0.171,0.215 -0.564,0.488 -0.453,0.805 0.058,0.166 0.32,0.172 0.453,0.117 0.102,-0.042 0.14,-0.177 0.234,-0.235 z m -4.694,6.756 c 0.034,-0.12 0.203,-0.476 0.1,-0.586 -0.189,-0.205 -0.383,0.25 -0.452,0.352 -0.118,0.172 -0.389,0.389 -0.118,0.569 0.234,0.156 0.365,-0.185 0.47,-0.335 z m 0.57,-1.944 c 0.016,-0.097 0.228,-0.805 0,-0.805 -0.275,0 -0.786,1.264 -0.47,1.375 0.219,0.076 0.398,-0.432 0.47,-0.57 z m 0.905,-0.805 c 0.039,-0.079 0.392,-0.62 0.235,-0.687 -0.241,-0.104 -0.381,0.445 -0.453,0.57 -0.046,0.079 -0.418,0.478 -0.235,0.57 0.183,0.091 0.382,-0.345 0.453,-0.453 z m 0.805,-1.827 0.234,-0.805 c 0.023,-0.11 -0.027,-0.608 -0.234,-0.469 l -0.805,0.804 c -0.029,0.05 -0.264,0.886 -0.218,1.04 0.057,0.188 0.359,0.093 0.453,0 l 0.57,-0.57" /></g><g
       transform="matrix(5.1105804,0,0,5.1105804,247.41605,663.867)"
       id="g60"><path
         id="path62"
         style="fill:#ffffff;fill-opacity:1;fill-rule:nonzero;stroke:none"
         d="m 0,0 c -0.726,-0.346 -1.479,-0.634 -2.179,-1.039 -0.098,-0.069 -0.213,-0.046 -0.284,0.017 -0.092,0.081 -0.113,0.228 0.066,0.335 0.695,0.419 1.421,0.802 2.162,1.14 C 1.499,1.244 3.286,1.794 5.106,2.017 5.907,2.115 6.716,2.15 7.529,2.115 8.45,2.074 9.378,1.943 10.31,1.71 11.704,1.361 13.22,0.823 14.534,0.218 l 1.492,-0.687 c 1.779,-0.96 3.493,-1.885 5.169,-2.971 2.558,-1.659 5.086,-3.506 7.49,-5.478 1.442,-1.184 2.84,-2.412 4.172,-3.672 1.904,-1.799 3.763,-3.646 5.616,-5.498 1.612,-1.612 3.109,-3.289 4.55,-5.011 1.377,-1.647 2.704,-3.336 4.033,-5.05 0.058,-0.075 0.122,-0.146 0.175,-0.225 0.145,-0.202 0.194,-0.469 0.141,-0.706 -0.042,-0.185 -0.146,-0.352 -0.316,-0.458 -0.145,-0.089 -0.339,-0.148 -0.453,-0.181 -0.021,-0.006 -0.014,-0.05 0,-0.066 0.153,-0.171 0.34,-0.278 0.644,-0.568 0.026,-0.057 0.007,-0.288 -0.068,-0.359 l -0.978,0.866 c -0.004,0.004 -0.011,-0.004 -0.015,-0.005 -0.257,-0.045 -0.324,0.003 -0.574,-0.007 -0.117,-0.004 -0.234,-0.005 -0.352,-0.002 -0.04,10e-4 -0.08,10e-4 -0.119,0.005 -0.141,0.015 -0.293,-0.025 -0.255,-0.06 0.954,-0.879 2.203,-1.599 3.205,-2.459 0.057,-0.063 -0.037,-0.276 -0.097,-0.352 l -3.787,2.829 c -0.1,0.109 -0.414,0.359 -0.705,0.477 -0.317,0.128 -0.623,0.285 -0.922,0.452 -0.282,0.158 -0.549,0.342 -0.821,0.516 -0.028,0.018 -0.056,0.036 -0.084,0.054 l -0.033,-0.047 c -0.062,-0.088 -0.135,-0.166 -0.18,-0.263 -0.01,-0.021 -0.038,-0.067 -0.022,-0.08 1.528,-1.298 2.075,-1.622 3.694,-2.807 0.053,-0.038 0.366,-0.55 0.36,-0.662 -10e-4,-0.007 0.004,-0.019 -0.008,-0.01 l -4.255,3.208 c -0.051,0.039 -0.056,0.038 -0.1,0 -0.15,-0.129 -0.302,-0.241 -0.433,-0.305 -0.093,-0.045 -0.189,-0.081 -0.299,-0.114 -0.041,-0.012 -0.085,-0.025 -0.131,-0.037 l 0.43,-0.459 c 0.209,-0.223 0.298,-0.483 0.198,-0.577 -0.101,-0.094 -0.354,0.012 -0.563,0.235 l -3.86,4.116 v 0.176 l -0.118,0.469 1.684,-1.584 1.397,-1.49 c 0.234,-0.249 0.449,-0.36 0.663,-0.365 0.276,-0.006 0.551,0.165 0.861,0.446 0.171,0.155 0.319,0.326 0.393,0.467 0.057,0.11 0.087,0.228 0.087,0.371 l 0.922,-0.57 c 0.61,-0.377 1.246,-0.695 1.914,-0.884 0.589,-0.167 1.204,-0.234 1.849,-0.155 0.343,0.042 0.62,0.1 0.697,0.264 0.052,0.113 0.011,0.275 -0.167,0.517 -1.318,1.791 -2.659,3.521 -4.064,5.198 -1.41,1.682 -2.886,3.312 -4.47,4.9 -1.848,1.851 -3.7,3.699 -5.599,5.498 -1.36,1.288 -2.777,2.526 -4.242,3.712 -3.892,3.15 -8.117,5.933 -12.472,8.308 -0.497,0.229 -0.989,0.471 -1.492,0.687 -1.364,0.588 -2.664,1.19 -4.124,1.492 C 8.713,1.563 7.248,1.664 5.804,1.562 3.825,1.421 1.885,0.899 0,0 Z m 32.751,-24.978 3.042,-3.243 c 0.209,-0.223 0.298,-0.483 0.198,-0.577 -0.101,-0.094 -0.353,0.013 -0.563,0.235 l -2.931,3.097 -0.048,0.051 c 0.06,0.036 0.113,0.09 0.158,0.15 0.035,0.046 0.065,0.096 0.09,0.143 z m -1.244,-0.508 1.576,-1.745 c 0.205,-0.227 0.298,-0.483 0.198,-0.577 -0.1,-0.094 -0.356,0.01 -0.563,0.235 l -2.867,3.12 0.384,-0.327 c 0.268,-0.19 0.517,-0.41 0.804,-0.57 0.142,-0.079 0.312,-0.107 0.468,-0.136 z m 4.431,-1.108 1.996,-2.127 c 0.209,-0.223 0.298,-0.483 0.198,-0.577 -0.101,-0.094 -0.354,0.011 -0.563,0.235 l -2.579,2.749 0.108,-0.045 0.57,-0.235 h 0.27" /></g><g
       transform="matrix(5.1105804,0,0,5.1105804,140.7894,718.95862)"
       id="g64"><path
         id="path66"
         style="fill:#231f20;fill-opacity:1;fill-rule:evenodd;stroke:none"
         d="m 0,0 c -2.341,-1.11 -4.712,-2.175 -6.922,-3.535 -2.114,-1.3 -4.086,-2.791 -5.883,-4.504 -0.808,-0.771 -1.561,-1.584 -2.25,-2.464 -0.997,-1.273 -1.943,-2.425 -2.684,-3.865 -0.5,-0.972 -1.03,-2.166 -1.462,-3.168 -0.19,-0.497 -0.38,-0.994 -0.57,-1.491 -0.059,0.461 -0.13,1.138 -0.118,1.709 0.014,0.658 0.069,1.258 0.184,1.855 0.078,0.409 0.184,0.817 0.324,1.241 0.351,1.068 0.785,2.106 1.316,3.1 0.606,1.135 1.333,2.195 2.176,3.168 1.367,1.577 2.922,2.987 4.566,4.27 1.854,1.447 3.828,2.74 5.84,3.956 0.866,0.523 1.764,0.988 2.645,1.483 0.956,0.536 1.911,1.073 2.867,1.609 L 0.217,3.47 2.381,2.703 2.197,0.89 0,0" /></g><g
       transform="matrix(5.1105804,0,0,5.1105804,142.12836,734.0296)"
       id="g68"><path
         id="path70"
         style="fill:#d22d2a;fill-opacity:1;fill-rule:evenodd;stroke:none"
         d="m 0,0 c -0.956,-0.536 -1.911,-1.073 -2.867,-1.609 -0.877,-0.492 -1.771,-0.956 -2.631,-1.476 -1.967,-1.188 -3.945,-2.48 -5.794,-3.924 -1.632,-1.273 -3.164,-2.665 -4.499,-4.206 -0.839,-0.968 -1.537,-1.996 -2.117,-3.081 -0.657,-1.23 -1.164,-2.534 -1.555,-3.91 -0.205,-0.72 -0.269,-1.419 -0.335,-2.162 0.229,0.531 0.458,1.062 0.687,1.593 0.229,0.497 0.437,1.005 0.688,1.491 0.754,1.466 1.718,2.83 2.732,4.124 0.711,0.908 1.462,1.719 2.297,2.515 1.826,1.741 3.812,3.244 5.961,4.565 2.237,1.376 4.613,2.443 6.98,3.565 L 1.492,-1.727 1.609,-0.57 0,0" /></g><g
       transform="matrix(5.1105804,0,0,5.1105804,147.35129,731.11658)"
       id="g72"><path
         id="path74"
         style="fill:#ffffff;fill-opacity:1;fill-rule:evenodd;stroke:none"
         d="m 0,0 c -0.682,-0.307 -1.372,-0.596 -2.045,-0.922 -0.663,-0.322 -1.306,-0.686 -1.962,-1.023 -1.753,-0.899 -3.607,-1.911 -5.375,-3.04 -1.559,-0.995 -3.052,-2.082 -4.348,-3.263 -1.433,-1.306 -2.837,-2.75 -4.02,-4.291 -0.336,-0.438 -0.598,-0.913 -0.881,-1.375 -0.365,-0.594 -0.729,-1.181 -0.932,-1.777 l -0.466,-1.364 -0.002,-0.006 -0.002,-0.005 0.003,0.005 0.003,0.006 0.682,1.264 c 0.436,0.809 0.914,1.523 1.412,2.263 0.641,0.952 1.329,1.909 2.142,2.766 0.369,0.389 0.751,0.768 1.139,1.14 0.412,0.393 0.829,0.782 1.258,1.156 1.375,1.2 2.865,2.25 4.417,3.205 1.76,1.083 3.599,2.044 5.44,2.964 0.641,0.321 1.288,0.634 1.944,0.922 l 2.062,0.906 -0.117,0.352 z M 0.913,-1.49 1.097,0.323 -1.067,1.09 -1.363,0.921 -1.023,0.57 0.587,0 0.469,-1.157 0.913,-1.49" /></g><g
       transform="matrix(5.1105804,0,0,5.1105804,52.693451,404.10757)"
       id="g76"><path
         id="path78"
         style="fill:none;stroke:#231f20;stroke-width:0.396;stroke-linecap:butt;stroke-linejoin:miter;stroke-miterlimit:22.9260006;stroke-dasharray:none;stroke-opacity:1"
         d="M 0,0 H 89.412" /></g><g
       transform="matrix(5.1105804,0,0,5.1105804,281.16626,203.79886)"
       id="g80"><path
         id="path82"
         style="fill:none;stroke:#231f20;stroke-width:0.396;stroke-linecap:butt;stroke-linejoin:miter;stroke-miterlimit:22.9260006;stroke-dasharray:none;stroke-opacity:1"
         d="m 0,0 c 7.543,2.735 14.229,6.022 20.074,9.892 6.624,4.386 12.169,9.521 16.658,15.451 3.188,4.211 5.843,8.823 7.974,13.852 0.693,1.636 1.331,3.315 1.913,5.04 2.373,7.026 3.83,14.794 4.391,23.341 l 0.118,50.828 H -51.128 l 0.118,-50.828 c 0.561,-8.547 2.018,-16.315 4.391,-23.341 0.582,-1.725 1.22,-3.404 1.913,-5.04 2.131,-5.029 4.786,-9.641 7.974,-13.852 4.489,-5.93 10.033,-11.065 16.658,-15.451 C -14.229,6.022 -7.543,2.735 0,0 Z" /></g><g
       transform="matrix(5.1105804,0,0,5.1105804,290.17099,508.19919)"
       id="g84"><path
         id="path86"
         style="fill:#d22d2a;fill-opacity:1;fill-rule:evenodd;stroke:none"
         d="M 0,0 C 0.302,-1.257 0.603,-2.515 0.905,-3.772 0.871,-3.94 0.798,-4.116 0.761,-4.293 0.713,-4.517 0.69,-4.767 0.692,-5.015 0.694,-5.234 0.716,-5.452 0.759,-5.649 0.797,-5.827 0.871,-6.002 0.905,-6.169 l -0.57,-2.414 -0.452,-2.28 -0.57,-2.296 -0.57,-2.28 -0.587,-2.297 -0.57,-2.28 c -0.151,-0.765 -0.302,-1.531 -0.453,-2.297 -0.19,-0.765 -0.38,-1.531 -0.57,-2.296 -0.157,-0.225 -0.3,-0.474 -0.469,-0.688 -0.151,-0.19 -0.359,-0.336 -0.57,-0.452 -0.728,-0.399 -1.253,-0.432 -2.082,-0.473 -0.254,-0.012 -0.532,-0.07 -0.804,-0.15 -0.642,-0.188 -1.063,-0.44 -1.573,-0.869 -0.206,-0.173 -0.38,-0.38 -0.57,-0.57 0.112,-0.073 0.224,-0.145 0.335,-0.218 0.229,0.19 0.433,0.416 0.688,0.57 0.515,0.313 1.236,0.497 1.814,0.656 0.218,0.061 0.435,0.111 0.626,0.135 0.221,0.029 0.389,0.04 0.558,-0.124 0.073,-0.072 0.142,-0.156 0.22,-0.214 0.151,-0.112 0.302,-0.224 0.453,-0.336 -0.268,-0.229 -0.537,-0.458 -0.805,-0.687 0.078,-0.039 0.157,-0.078 0.235,-0.117 0.039,-0.078 0.078,-0.157 0.117,-0.235 0.263,0.117 0.535,0.216 0.788,0.352 0.528,0.285 0.976,0.574 1.309,0.97 0.244,0.289 0.426,0.634 0.535,1.075 0.056,0.225 0.067,0.458 0.101,0.687 0.156,-0.072 0.313,-0.145 0.469,-0.217 0.112,0.111 0.224,0.223 0.335,0.335 -0.19,0.229 -0.38,0.458 -0.57,0.687 0.079,0.458 0.157,0.917 0.235,1.375 0.112,0.609 0.224,1.218 0.335,1.827 l 0.57,2.062 0.57,2.414 0.805,2.632 0.687,2.632 c 0.458,1.676 0.917,3.353 1.375,5.029 0.078,0.117 0.155,0.236 0.235,0.352 0.117,0.173 0.218,0.337 0.293,0.509 0.096,0.221 0.15,0.456 0.145,0.74 -0.006,0.321 -0.089,0.608 -0.204,0.886 -0.07,0.166 -0.151,0.33 -0.234,0.497 -0.079,0.112 -0.157,0.223 -0.235,0.335 L 2.062,-2.28 1.945,-1.257 1.827,-0.218 V 0.687 C 1.71,0.497 1.635,0.274 1.475,0.117 1.362,0.007 1.187,-0.094 1.001,-0.158 0.725,-0.253 0.548,-0.235 0.364,-0.166 0.253,-0.124 0.139,-0.064 0,0" /></g></g></svg>