<?xml version="1.0" encoding="UTF-8" standalone="no"?>
<svg
   xmlns:dc="http://purl.org/dc/elements/1.1/"
   xmlns:cc="http://creativecommons.org/ns#"
   xmlns:rdf="http://www.w3.org/1999/02/22-rdf-syntax-ns#"
   xmlns:svg="http://www.w3.org/2000/svg"
   xmlns="http://www.w3.org/2000/svg"
   viewBox="0 0 793.70135 1122.52"
   height="1122.52"
   width="793.70135"
   xml:space="preserve"
   id="svg2"
   version="1.1"><metadata
     id="metadata8"><rdf:RDF><cc:Work
         rdf:about=""><dc:format>image/svg+xml</dc:format><dc:type
           rdf:resource="http://purl.org/dc/dcmitype/StillImage" /></cc:Work></rdf:RDF></metadata><defs
     id="defs6"><clipPath
       id="clipPath18"
       clipPathUnits="userSpaceOnUse"><path
         id="path16"
         d="M 0,0 H 595.276 V 841.89 H 0 Z" /></clipPath><clipPath
       id="clipPath26"
       clipPathUnits="userSpaceOnUse"><path
         id="path24"
         d="M 32768,32768 H -32768 V -32768 H 32768 Z" /></clipPath><clipPath
       id="clipPath40"
       clipPathUnits="userSpaceOnUse"><path
         id="path38"
         d="m 76.756,701.137 h 72.607 V 802.188 H 76.756 Z" /></clipPath><clipPath
       id="clipPath52"
       clipPathUnits="userSpaceOnUse"><path
         id="path50"
         d="m 76.756,701.137 h 72.607 V 802.188 H 76.756 Z" /></clipPath><clipPath
       id="clipPath64"
       clipPathUnits="userSpaceOnUse"><path
         id="path62"
         d="m 72.519,699.446 h 80.28 v 107.586 h -80.28 z" /></clipPath><clipPath
       id="clipPath76"
       clipPathUnits="userSpaceOnUse"><path
         id="path74"
         d="m 72.519,699.446 h 80.28 v 107.586 h -80.28 z" /></clipPath><clipPath
       id="clipPath88"
       clipPathUnits="userSpaceOnUse"><path
         id="path86"
         d="m 72.519,699.446 h 80.28 v 107.586 h -80.28 z" /></clipPath><clipPath
       id="clipPath100"
       clipPathUnits="userSpaceOnUse"><path
         id="path98"
         d="m 72.519,699.446 h 80.28 v 107.586 h -80.28 z" /></clipPath><clipPath
       id="clipPath112"
       clipPathUnits="userSpaceOnUse"><path
         id="path110"
         d="m 72.519,699.446 h 80.28 v 107.586 h -80.28 z" /></clipPath><clipPath
       id="clipPath124"
       clipPathUnits="userSpaceOnUse"><path
         id="path122"
         d="m 72.519,699.446 h 80.28 v 107.586 h -80.28 z" /></clipPath><clipPath
       id="clipPath144"
       clipPathUnits="userSpaceOnUse"><path
         id="path142"
         d="m 72.519,699.446 h 80.28 v 107.586 h -80.28 z" /></clipPath><clipPath
       id="clipPath156"
       clipPathUnits="userSpaceOnUse"><path
         id="path154"
         d="m 72.519,699.446 h 80.28 v 107.586 h -80.28 z" /></clipPath><clipPath
       id="clipPath168"
       clipPathUnits="userSpaceOnUse"><path
         id="path166"
         d="m 72.519,699.446 h 80.28 v 107.586 h -80.28 z" /></clipPath><clipPath
       id="clipPath180"
       clipPathUnits="userSpaceOnUse"><path
         id="path178"
         d="m 72.519,699.446 h 80.28 v 107.586 h -80.28 z" /></clipPath><clipPath
       id="clipPath192"
       clipPathUnits="userSpaceOnUse"><path
         id="path190"
         d="m 72.519,699.446 h 80.28 v 107.586 h -80.28 z" /></clipPath><clipPath
       id="clipPath204"
       clipPathUnits="userSpaceOnUse"><path
         id="path202"
         d="m 72.519,699.446 h 80.28 v 107.586 h -80.28 z" /></clipPath><clipPath
       id="clipPath216"
       clipPathUnits="userSpaceOnUse"><path
         id="path214"
         d="m 72.519,699.446 h 80.28 v 107.586 h -80.28 z" /></clipPath><clipPath
       id="clipPath228"
       clipPathUnits="userSpaceOnUse"><path
         id="path226"
         d="m 72.519,699.446 h 80.28 v 107.586 h -80.28 z" /></clipPath></defs><g
     transform="matrix(1.3333333,0,0,-1.3333333,0,1122.52)"
     id="g10"><g
       id="g12"><g
         clip-path="url(#clipPath18)"
         id="g14"><g
           id="g20"><g
             id="g22" /><g
             id="g32"><g
               style="opacity:0.89999402"
               id="g30"
               clip-path="url(#clipPath26)"><g
                 id="g28" /></g></g></g></g></g><g
       transform="matrix(7.1023254,0,0,7.1023254,-528.09309,-4870.6067)"
       id="g34"><g
         clip-path="url(#clipPath40)"
         id="g36"><g
           transform="translate(148.52509,750.15063)"
           id="g42"><path
             id="path44"
             style="fill:#ffffff;fill-opacity:1;fill-rule:nonzero;stroke:none"
             d="M 0,0 V 51.111 H -70.654 V 0 c 0,0 -0.117,-12.384 7.517,-24.405 7.634,-12.02 27.81,-23.676 27.81,-23.676 0,0 20.793,11.776 28.374,23.676 C 0.78,-12.267 0,0 0,0" /></g></g></g><g
       transform="matrix(7.1023254,0,0,7.1023254,-528.09154,-4870.6082)"
       id="g46"><g
         clip-path="url(#clipPath52)"
         id="g48"><g
           transform="translate(89.464588,801.36885)"
           id="g54"><path
             id="path56"
             style="fill:#68ac97;fill-opacity:1;fill-rule:nonzero;stroke:none"
             d="m 0,0 h -11.593 v -51.111 c 0,0 -0.118,-12.385 7.516,-24.405 7.634,-12.02 27.811,-23.677 27.811,-23.677 0,0 8.622,4.884 16.787,11.54 z" /></g></g></g><g
       transform="matrix(7.1023254,0,0,7.1023254,-528.09099,-4870.6082)"
       id="g58"><g
         clip-path="url(#clipPath64)"
         id="g60"><g
           transform="translate(82.425106,730.80477)"
           id="g66"><path
             id="path68"
             style="fill:none;stroke:#bbd7cd;stroke-width:2;stroke-linecap:butt;stroke-linejoin:miter;stroke-miterlimit:4;stroke-dasharray:none;stroke-opacity:1"
             d="m 0,0 c 0,0 2.917,2.051 5.715,2.098 2.798,0.048 5.264,-0.995 8.063,-3.129 2.798,-2.134 4.363,-2.703 6.45,-2.656 2.087,0.047 4.102,0.367 5.905,1.79 1.802,1.423 2.869,3.023 5.43,3.829 2.561,0.807 6.735,-0.32 8.111,-1.6 M -4.945,18.994 c 0,0 3.273,2.229 6.071,2.276 2.799,0.048 5.265,-0.996 8.063,-3.13 2.798,-2.134 4.364,-2.703 6.45,-2.656 2.087,0.048 3.984,0.38 6.071,1.708 M -4.695,38.544 c 0,0 3.272,2.229 6.071,2.277 2.798,0.047 5.264,-0.996 8.062,-3.13 2.798,-2.135 4.363,-2.704 6.45,-2.656 2.087,0.047 3.7,0.19 5.787,1.518" /></g></g></g><g
       transform="matrix(7.1023254,0,0,7.1023254,-528.09334,-4870.6067)"
       id="g70"><g
         clip-path="url(#clipPath76)"
         id="g72"><g
           transform="translate(148.20672,750.40295)"
           id="g78"><path
             id="path80"
             style="fill:none;stroke:#000000;stroke-width:1.87899995;stroke-linecap:butt;stroke-linejoin:miter;stroke-miterlimit:4;stroke-dasharray:none;stroke-opacity:1"
             d="M 0,0 V 50.895 H -70.353 V 0 c 0,0 -0.118,-12.332 7.484,-24.301 7.601,-11.97 27.692,-23.577 27.692,-23.577 0,0 20.705,11.726 28.254,23.577 C 0.776,-12.216 0,0 0,0 Z" /></g></g></g><g
       transform="matrix(7.1023254,0,0,7.1023254,-528.093,-4870.6082)"
       id="g82"><g
         clip-path="url(#clipPath88)"
         id="g84"><g
           transform="translate(131.99167,715.53048)"
           id="g90"><path
             id="path92"
             style="fill:#d7b254;fill-opacity:1;fill-rule:nonzero;stroke:none"
             d="m 0,0 -27.939,59.255 c 0.06,0.028 0.106,0.05 0.106,0.05 l 0.339,0.159 0.338,0.16 -0.159,0.338 -0.16,0.339 c 0,0 -0.559,1.185 -0.558,1.185 l -0.16,0.338 -0.16,0.339 -0.338,-0.16 -0.339,-0.16 -0.106,-0.049 -3.123,6.625 c 1.177,1.166 2.004,2.622 2.389,4.233 0.552,2.312 0.17,4.7 -1.074,6.726 -1.245,2.025 -3.203,3.445 -5.515,3.997 -4.773,1.14 -9.584,-1.816 -10.723,-6.589 l -0.013,-0.053 c -0.325,-1.357 -0.631,-2.639 -0.006,-5.317 0.611,-2.618 3.379,-7.414 3.496,-7.617 l 0.172,-0.295 0.171,-0.296 0.31,0.144 0.309,0.143 1.508,0.699 c 0.543,0.251 0.543,0.251 0.59,0.418 l 0.045,0.161 -0.089,0.141 c 0,0 -0.229,0.36 -0.229,0.359 -0.004,0.007 -0.428,0.686 -0.757,1.661 -0.03,0.087 -0.037,0.275 -0.044,0.441 -0.013,0.323 -0.029,0.724 -0.202,1.096 -0.181,0.393 -0.412,0.705 -0.657,1.037 -0.14,0.187 -0.283,0.382 -0.437,0.615 -0.384,0.581 -0.622,1.105 -0.683,1.299 -0.284,0.916 -0.338,1.939 -0.339,1.949 l -10e-4,0.033 c 0,0 -0.002,0.034 -0.01,0.067 l -0.007,0.033 c -0.169,0.724 -0.052,1.507 0.175,2.459 0.703,2.942 3.669,4.764 6.612,4.062 0.647,-0.155 1.854,-0.443 2.244,-1.068 0.103,-0.185 0.147,-1.098 0.162,-1.397 0.027,-0.552 0.04,-0.828 0.154,-1.058 0.134,-0.27 0.379,-0.434 0.689,-0.642 0.261,-0.175 0.654,-0.439 0.767,-0.663 0.216,-0.426 0.231,-1.009 0.046,-1.784 -0.421,-1.762 -1.685,-3.202 -3.382,-3.851 l -0.335,-0.128 -0.335,-0.128 0.114,-0.34 0.113,-0.34 0.601,-1.796 0.122,-0.365 0.122,-0.366 0.362,0.133 0.362,0.133 c 0.172,0.063 0.351,0.139 0.546,0.229 l 2.903,-6.157 c -0.038,-0.018 -0.064,-0.03 -0.064,-0.03 l -0.338,-0.159 -0.338,-0.16 0.159,-0.338 0.16,-0.339 0.558,-1.185 0.16,-0.338 0.16,-0.339 0.338,0.159 0.339,0.16 0.063,0.03 C -29.022,54.092 -12.503,19.058 -2.525,-2.104 -1.677,-1.421 -0.832,-0.719 0,0" /></g></g></g><g
       transform="matrix(7.1023254,0,0,7.1023254,-528.09285,-4870.6062)"
       id="g94"><g
         clip-path="url(#clipPath100)"
         id="g96"><g
           transform="translate(131.98935,715.53369)"
           id="g102"><path
             id="path104"
             style="fill:none;stroke:#000000;stroke-width:1.12699997;stroke-linecap:butt;stroke-linejoin:miter;stroke-miterlimit:4;stroke-dasharray:none;stroke-opacity:1"
             d="m 0,0 -27.936,59.251 c 0.06,0.028 0.106,0.05 0.106,0.05 l 0.338,0.159 0.339,0.16 -0.16,0.338 -0.159,0.339 -0.559,1.184 -0.159,0.339 -0.16,0.339 -0.339,-0.16 -0.338,-0.16 -0.106,-0.049 -3.123,6.624 c 1.177,1.167 2.004,2.622 2.388,4.232 0.552,2.312 0.171,4.701 -1.073,6.726 -1.244,2.025 -3.203,3.445 -5.515,3.997 -4.772,1.14 -9.582,-1.816 -10.722,-6.588 l -0.013,-0.053 c -0.324,-1.357 -0.63,-2.639 -0.005,-5.317 0.61,-2.618 3.378,-7.413 3.496,-7.616 l 0.171,-0.296 0.171,-0.295 0.31,0.143 0.31,0.144 1.507,0.698 c 0.543,0.252 0.543,0.252 0.59,0.418 l 0.045,0.161 -0.089,0.141 c 0,0 -0.229,0.361 -0.229,0.36 -0.004,0.007 -0.428,0.685 -0.757,1.66 -0.03,0.087 -0.037,0.275 -0.044,0.442 -0.013,0.322 -0.029,0.723 -0.201,1.096 -0.182,0.392 -0.413,0.704 -0.658,1.036 -0.139,0.188 -0.283,0.382 -0.437,0.615 -0.384,0.582 -0.622,1.105 -0.682,1.299 -0.285,0.916 -0.339,1.939 -0.34,1.948 l -10e-4,0.034 c 0,0 -0.002,0.034 -0.009,0.067 l -0.008,0.033 c -0.169,0.724 -0.052,1.506 0.176,2.458 0.702,2.942 3.668,4.765 6.61,4.062 0.648,-0.154 1.854,-0.443 2.244,-1.067 0.103,-0.186 0.148,-1.098 0.162,-1.398 0.027,-0.551 0.041,-0.828 0.154,-1.057 0.134,-0.27 0.379,-0.434 0.69,-0.643 0.26,-0.174 0.653,-0.438 0.766,-0.662 0.216,-0.426 0.231,-1.009 0.046,-1.784 -0.421,-1.762 -1.685,-3.202 -3.382,-3.851 l -0.335,-0.128 -0.335,-0.128 0.114,-0.34 0.114,-0.34 0.6,-1.795 0.122,-0.366 0.123,-0.365 0.362,0.133 0.361,0.133 c 0.172,0.063 0.352,0.139 0.547,0.228 l 2.902,-6.156 c -0.038,-0.018 -0.063,-0.03 -0.063,-0.03 l -0.339,-0.159 -0.339,-0.16 0.161,-0.339 0.159,-0.338 0.558,-1.185 0.16,-0.339 0.16,-0.338 0.338,0.16 0.338,0.159 0.064,0.03 C -29.019,54.088 -12.502,19.057 -2.525,-2.104 -1.677,-1.421 -0.832,-0.719 0,0 Z" /></g></g></g><g
       transform="matrix(7.1023254,0,0,7.1023254,-528.09285,-4870.6077)"
       id="g106"><g
         clip-path="url(#clipPath112)"
         id="g108"><g
           transform="translate(135.39826,773.43567)"
           id="g114"><path
             id="path116"
             style="fill:#ffffff;fill-opacity:1;fill-rule:nonzero;stroke:none"
             d="m 0,0 c 0,0 -2.37,-1.746 -1.746,-4.117 0.623,-2.37 3.618,-1.248 3.618,-1.248 L -9.481,-26.947 c 0,0 -18.963,-0.125 -19.961,-0.125 -0.998,0 -1.996,0.749 -2.121,2.121 -0.124,1.373 1.123,2.62 1.123,2.62" /></g></g></g><g
       transform="matrix(7.1023254,0,0,7.1023254,-528.09306,-4870.6082)"
       id="g118"><g
         clip-path="url(#clipPath124)"
         id="g120"><g
           transform="translate(135.39618,773.43392)"
           id="g126"><path
             id="path128"
             style="fill:none;stroke:#000000;stroke-width:1.12699997;stroke-linecap:butt;stroke-linejoin:round;stroke-miterlimit:4;stroke-dasharray:none;stroke-opacity:1"
             d="m 0,0 c 0,0 -2.37,-1.746 -1.746,-4.116 0.623,-2.37 3.617,-1.248 3.617,-1.248 L -9.48,-26.943 c 0,0 -18.96,-0.124 -19.958,-0.124 -0.998,0 -1.995,0.748 -2.12,2.12 -0.125,1.372 1.122,2.619 1.122,2.619" /></g></g></g><g
       transform="matrix(7.1023254,0,0,7.1023254,217.35487,463.98224)"
       id="g130"><path
         id="path132"
         style="fill:#ffffff;fill-opacity:1;fill-rule:nonzero;stroke:none"
         d="M 0,0 H 18.838 L 30.44,22.331 H 13.473 Z" /></g><g
       transform="matrix(7.1023254,0,0,7.1023254,217.37199,463.99826)"
       id="g134"><path
         id="path136"
         style="fill:none;stroke:#000000;stroke-width:1.12699997;stroke-linecap:butt;stroke-linejoin:round;stroke-miterlimit:4;stroke-dasharray:none;stroke-opacity:1"
         d="m 0,0 h 18.835 l 11.6,22.327 H 13.471 Z" /></g><g
       transform="matrix(7.1023254,0,0,7.1023254,-528.09251,-4870.6067)"
       id="g138"><g
         clip-path="url(#clipPath144)"
         id="g140"><g
           transform="translate(123.79621,751.10455)"
           id="g146"><path
             id="path148"
             style="fill:#ffffff;fill-opacity:1;fill-rule:nonzero;stroke:none"
             d="m 0,0 c 0,0 -1.341,-1.747 -0.78,-2.963 0.561,-1.216 2.807,-1.403 2.807,-1.403" /></g></g></g><g
       transform="matrix(7.1023254,0,0,7.1023254,-528.09254,-4870.6067)"
       id="g150"><g
         clip-path="url(#clipPath156)"
         id="g152"><g
           transform="translate(123.79772,751.10302)"
           id="g158"><path
             id="path160"
             style="fill:none;stroke:#000000;stroke-width:1.12699997;stroke-linecap:butt;stroke-linejoin:round;stroke-miterlimit:4;stroke-dasharray:none;stroke-opacity:1"
             d="m 0,0 c 0,0 -1.34,-1.745 -0.779,-2.96 0.561,-1.216 2.804,-1.403 2.804,-1.403" /></g></g></g><g
       transform="matrix(7.1023254,0,0,7.1023254,-528.09193,-4870.6077)"
       id="g162"><g
         clip-path="url(#clipPath168)"
         id="g164"><g
           transform="translate(113.28033,770.8783)"
           id="g170"><path
             id="path172"
             style="fill:#d7b254;fill-opacity:1;fill-rule:nonzero;stroke:none"
             d="m 0,0 c 0,3.362 2.725,6.087 6.087,6.087 3.362,0 6.087,-2.725 6.087,-6.087 0,-3.362 -2.725,-6.087 -6.087,-6.087 C 2.725,-6.087 0,-3.362 0,0" /></g></g></g><g
       transform="matrix(7.1023254,0,0,7.1023254,-528.092,-4870.6077)"
       id="g174"><g
         clip-path="url(#clipPath180)"
         id="g176"><g
           transform="translate(113.28274,770.8783)"
           id="g182"><path
             id="path184"
             style="fill:none;stroke:#000000;stroke-width:1.12699997;stroke-linecap:butt;stroke-linejoin:round;stroke-miterlimit:4;stroke-dasharray:none;stroke-opacity:1"
             d="m 0,0 c 0,3.36 2.724,6.085 6.085,6.085 3.36,0 6.084,-2.725 6.084,-6.085 0,-3.36 -2.724,-6.085 -6.084,-6.085 C 2.724,-6.085 0,-3.36 0,0 Z" /></g></g></g><g
       transform="matrix(7.1023254,0,0,7.1023254,-528.09224,-4870.6072)"
       id="g186"><g
         clip-path="url(#clipPath192)"
         id="g188"><g
           transform="translate(119.10468,762.69123)"
           id="g194"><path
             id="path196"
             style="fill:#d7b254;fill-opacity:1;fill-rule:nonzero;stroke:none"
             d="m 0,0 c 0,3.53 2.861,6.391 6.391,6.391 3.53,0 6.391,-2.861 6.391,-6.391 0,-3.53 -2.861,-6.391 -6.391,-6.391 C 2.861,-6.391 0,-3.53 0,0" /></g></g></g><g
       transform="matrix(7.1023254,0,0,7.1023254,-528.09212,-4870.6072)"
       id="g198"><g
         clip-path="url(#clipPath204)"
         id="g200"><g
           transform="translate(119.10716,762.69123)"
           id="g206"><path
             id="path208"
             style="fill:none;stroke:#000000;stroke-width:1.18400002;stroke-linecap:butt;stroke-linejoin:round;stroke-miterlimit:4;stroke-dasharray:none;stroke-opacity:1"
             d="m 0,0 c 0,3.528 2.86,6.389 6.389,6.389 3.528,0 6.389,-2.861 6.389,-6.389 0,-3.528 -2.861,-6.389 -6.389,-6.389 C 2.86,-6.389 0,-3.528 0,0 Z" /></g></g></g><g
       transform="matrix(7.1023254,0,0,7.1023254,-528.09187,-4870.6072)"
       id="g210"><g
         clip-path="url(#clipPath216)"
         id="g212"><g
           transform="translate(105.82623,760.77313)"
           id="g218"><path
             id="path220"
             style="fill:#d7b254;fill-opacity:1;fill-rule:nonzero;stroke:none"
             d="m 0,0 c 0,3.706 3.005,6.711 6.711,6.711 3.706,0 6.711,-3.005 6.711,-6.711 0,-3.706 -3.005,-6.711 -6.711,-6.711 C 3.005,-6.711 0,-3.706 0,0" /></g></g></g><g
       transform="matrix(7.1023254,0,0,7.1023254,-528.0919,-4870.6072)"
       id="g222"><g
         clip-path="url(#clipPath228)"
         id="g224"><g
           transform="translate(105.82874,760.77313)"
           id="g230"><path
             id="path232"
             style="fill:none;stroke:#000000;stroke-width:1.23699999;stroke-linecap:butt;stroke-linejoin:round;stroke-miterlimit:4;stroke-dasharray:none;stroke-opacity:1"
             d="m 0,0 c 0,3.705 3.003,6.708 6.708,6.708 3.705,0 6.708,-3.003 6.708,-6.708 0,-3.705 -3.003,-6.708 -6.708,-6.708 C 3.003,-6.708 0,-3.705 0,0 Z" /></g></g></g></g></svg>