<?xml version="1.0" encoding="UTF-8" standalone="no"?>
<!-- Created with Inkscape (http://www.inkscape.org/) -->

<svg
   width="600mm"
   height="771.40002mm"
   viewBox="0 0 600 771.40002"
   version="1.1"
   id="svg7095"
   xmlns="http://www.w3.org/2000/svg"
   xmlns:svg="http://www.w3.org/2000/svg">
  <defs
     id="defs7092">
    <clipPath
       clipPathUnits="userSpaceOnUse"
       id="clipPath6844">
      <path
         d="m -288.2773,335.5847 h 595.28 v -595.28 h -595.28 z"
         id="path6846"
         style="stroke-width:0.999998" />
    </clipPath>
    <clipPath
       clipPathUnits="userSpaceOnUse"
       id="clipPath6840">
      <path
         d="m -288.2773,335.5847 h 595.28 v -595.28 h -595.28 z"
         id="path6842"
         style="stroke-width:0.999998" />
    </clipPath>
    <clipPath
       clipPathUnits="userSpaceOnUse"
       id="clipPath6836">
      <path
         d="m -251.6792,250.8054 h 595.28 v -595.28 h -595.28 z"
         id="path6838"
         style="stroke-width:0.999998" />
    </clipPath>
    <clipPath
       clipPathUnits="userSpaceOnUse"
       id="clipPath6832">
      <path
         d="m -251.6792,250.8054 h 595.28 v -595.28 h -595.28 z"
         id="path6834"
         style="stroke-width:0.999998" />
    </clipPath>
    <clipPath
       clipPathUnits="userSpaceOnUse"
       id="clipPath6828">
      <path
         d="m -273.2983,250.8054 h 595.28 v -595.28 h -595.28 z"
         id="path6830"
         style="stroke-width:0.999998" />
    </clipPath>
    <clipPath
       clipPathUnits="userSpaceOnUse"
       id="clipPath6824">
      <path
         d="m -273.2983,250.8054 h 595.28 v -595.28 h -595.28 z"
         id="path6826"
         style="stroke-width:0.999998" />
    </clipPath>
    <clipPath
       clipPathUnits="userSpaceOnUse"
       id="clipPath6820">
      <path
         d="m -262.4888,207.0173 h 595.28 v -595.28 h -595.28 z"
         id="path6822"
         style="stroke-width:0.999998" />
    </clipPath>
    <clipPath
       clipPathUnits="userSpaceOnUse"
       id="clipPath6816">
      <path
         d="m -262.4888,207.0173 h 595.28 v -595.28 h -595.28 z"
         id="path6818"
         style="stroke-width:0.999998" />
    </clipPath>
    <clipPath
       clipPathUnits="userSpaceOnUse"
       id="clipPath6812">
      <path
         d="m -269.0464,253.9079 h 595.28 v -595.28 h -595.28 z"
         id="path6814"
         style="stroke-width:0.999998" />
    </clipPath>
    <clipPath
       clipPathUnits="userSpaceOnUse"
       id="clipPath6808">
      <path
         d="m -263.9497,213.0495 h 595.28 v -595.28 h -595.28 z"
         id="path6810"
         style="stroke-width:0.999998" />
    </clipPath>
    <clipPath
       clipPathUnits="userSpaceOnUse"
       id="clipPath6804">
      <path
         d="m -264.3906,212.4265 h 595.28 v -595.28 h -595.28 z"
         id="path6806"
         style="stroke-width:0.999998" />
    </clipPath>
    <clipPath
       clipPathUnits="userSpaceOnUse"
       id="clipPath6800">
      <path
         d="m -257.4253,239.9841 h 595.28 v -595.28 h -595.28 z"
         id="path6802"
         style="stroke-width:0.999998" />
    </clipPath>
    <clipPath
       clipPathUnits="userSpaceOnUse"
       id="clipPath6796">
      <path
         d="m -257.4253,239.9841 h 595.28 v -595.28 h -595.28 z"
         id="path6798"
         style="stroke-width:0.999998" />
    </clipPath>
    <clipPath
       clipPathUnits="userSpaceOnUse"
       id="clipPath6792">
      <path
         d="m -257.4253,244.4734 h 595.28 v -595.28 h -595.28 z"
         id="path6794"
         style="stroke-width:0.999998" />
    </clipPath>
    <clipPath
       clipPathUnits="userSpaceOnUse"
       id="clipPath6788">
      <path
         d="m -257.4253,244.4734 h 595.28 v -595.28 h -595.28 z"
         id="path6790"
         style="stroke-width:0.999998" />
    </clipPath>
    <clipPath
       clipPathUnits="userSpaceOnUse"
       id="clipPath6784">
      <path
         d="m -256.5645,242.2282 h 595.28 v -595.28 h -595.28 z"
         id="path6786"
         style="stroke-width:0.999998" />
    </clipPath>
    <clipPath
       clipPathUnits="userSpaceOnUse"
       id="clipPath6780">
      <path
         d="m -256.5645,242.2282 h 595.28 v -595.28 h -595.28 z"
         id="path6782"
         style="stroke-width:0.999998" />
    </clipPath>
    <clipPath
       clipPathUnits="userSpaceOnUse"
       id="clipPath6776">
      <path
         d="m -303.6426,250.8054 h 595.28 v -595.28 h -595.28 z"
         id="path6778"
         style="stroke-width:0.999998" />
    </clipPath>
    <clipPath
       clipPathUnits="userSpaceOnUse"
       id="clipPath6772">
      <path
         d="m -303.6426,250.8054 h 595.28 v -595.28 h -595.28 z"
         id="path6774"
         style="stroke-width:0.999998" />
    </clipPath>
    <clipPath
       clipPathUnits="userSpaceOnUse"
       id="clipPath6768">
      <path
         d="m -325.2617,250.8054 h 595.28 v -595.28 h -595.28 z"
         id="path6770"
         style="stroke-width:0.999998" />
    </clipPath>
    <clipPath
       clipPathUnits="userSpaceOnUse"
       id="clipPath6764">
      <path
         d="m -325.2617,250.8054 h 595.28 v -595.28 h -595.28 z"
         id="path6766"
         style="stroke-width:0.999998" />
    </clipPath>
    <clipPath
       clipPathUnits="userSpaceOnUse"
       id="clipPath6760">
      <path
         d="m -314.4531,207.0173 h 595.28 v -595.28 h -595.28 z"
         id="path6762"
         style="stroke-width:0.999998" />
    </clipPath>
    <clipPath
       clipPathUnits="userSpaceOnUse"
       id="clipPath6756">
      <path
         d="m -314.4531,207.0173 h 595.28 v -595.28 h -595.28 z"
         id="path6758"
         style="stroke-width:0.999998" />
    </clipPath>
    <clipPath
       clipPathUnits="userSpaceOnUse"
       id="clipPath6752">
      <path
         d="m -321.0107,253.9079 h 595.28 v -595.28 h -595.28 z"
         id="path6754"
         style="stroke-width:0.999998" />
    </clipPath>
    <clipPath
       clipPathUnits="userSpaceOnUse"
       id="clipPath6748">
      <path
         d="m -315.9141,213.0495 h 595.28 v -595.28 h -595.28 z"
         id="path6750"
         style="stroke-width:0.999998" />
    </clipPath>
    <clipPath
       clipPathUnits="userSpaceOnUse"
       id="clipPath6744">
      <path
         d="m -316.3545,212.4265 h 595.28 v -595.28 h -595.28 z"
         id="path6746"
         style="stroke-width:0.999998" />
    </clipPath>
    <clipPath
       clipPathUnits="userSpaceOnUse"
       id="clipPath6740">
      <path
         d="m -309.3887,239.9841 h 595.28 v -595.28 h -595.28 z"
         id="path6742"
         style="stroke-width:0.999998" />
    </clipPath>
    <clipPath
       clipPathUnits="userSpaceOnUse"
       id="clipPath6736">
      <path
         d="m -309.3887,239.9841 h 595.28 v -595.28 h -595.28 z"
         id="path6738"
         style="stroke-width:0.999998" />
    </clipPath>
    <clipPath
       clipPathUnits="userSpaceOnUse"
       id="clipPath6732">
      <path
         d="m -309.3887,244.4734 h 595.28 v -595.28 h -595.28 z"
         id="path6734"
         style="stroke-width:0.999998" />
    </clipPath>
    <clipPath
       clipPathUnits="userSpaceOnUse"
       id="clipPath6728">
      <path
         d="m -309.3887,244.4734 h 595.28 v -595.28 h -595.28 z"
         id="path6730"
         style="stroke-width:0.999998" />
    </clipPath>
    <clipPath
       clipPathUnits="userSpaceOnUse"
       id="clipPath6724">
      <path
         d="m -308.5283,242.2282 h 595.28 v -595.28 h -595.28 z"
         id="path6726"
         style="stroke-width:0.999998" />
    </clipPath>
    <clipPath
       clipPathUnits="userSpaceOnUse"
       id="clipPath6720">
      <path
         d="m -308.5283,242.2282 h 595.28 v -595.28 h -595.28 z"
         id="path6722"
         style="stroke-width:0.999998" />
    </clipPath>
    <clipPath
       clipPathUnits="userSpaceOnUse"
       id="clipPath6716">
      <path
         d="m -277.3271,308.7009 h 595.28 v -595.28 h -595.28 z"
         id="path6718"
         style="stroke-width:0.999998" />
    </clipPath>
    <clipPath
       clipPathUnits="userSpaceOnUse"
       id="clipPath6712">
      <path
         d="m -277.3271,308.7009 h 595.28 v -595.28 h -595.28 z"
         id="path6714"
         style="stroke-width:0.999998" />
    </clipPath>
    <clipPath
       clipPathUnits="userSpaceOnUse"
       id="clipPath6708">
      <path
         d="m -298.9463,308.7009 h 595.28 v -595.28 h -595.28 z"
         id="path6710"
         style="stroke-width:0.999998" />
    </clipPath>
    <clipPath
       clipPathUnits="userSpaceOnUse"
       id="clipPath6704">
      <path
         d="m -298.9463,308.7009 h 595.28 v -595.28 h -595.28 z"
         id="path6706"
         style="stroke-width:0.999998" />
    </clipPath>
    <clipPath
       clipPathUnits="userSpaceOnUse"
       id="clipPath6700">
      <path
         d="m -288.1367,264.9118 h 595.28 v -595.28 h -595.28 z"
         id="path6702"
         style="stroke-width:0.999998" />
    </clipPath>
    <clipPath
       clipPathUnits="userSpaceOnUse"
       id="clipPath6696">
      <path
         d="m -288.1367,264.9118 h 595.28 v -595.28 h -595.28 z"
         id="path6698"
         style="stroke-width:0.999998" />
    </clipPath>
    <clipPath
       clipPathUnits="userSpaceOnUse"
       id="clipPath6692">
      <path
         d="m -294.6943,311.8034 h 595.28 v -595.28 h -595.28 z"
         id="path6694"
         style="stroke-width:0.999998" />
    </clipPath>
    <clipPath
       clipPathUnits="userSpaceOnUse"
       id="clipPath6688">
      <path
         d="m -289.5977,270.945 h 595.28 v -595.28 h -595.28 z"
         id="path6690"
         style="stroke-width:0.999998" />
    </clipPath>
    <clipPath
       clipPathUnits="userSpaceOnUse"
       id="clipPath6684">
      <path
         d="m -290.0386,270.322 h 595.28 v -595.28 h -595.28 z"
         id="path6686"
         style="stroke-width:0.999998" />
    </clipPath>
    <clipPath
       clipPathUnits="userSpaceOnUse"
       id="clipPath6680">
      <path
         d="m -283.0732,297.8796 h 595.28 v -595.28 h -595.28 z"
         id="path6682"
         style="stroke-width:0.999998" />
    </clipPath>
    <clipPath
       clipPathUnits="userSpaceOnUse"
       id="clipPath6676">
      <path
         d="m -283.0732,297.8796 h 595.28 v -595.28 h -595.28 z"
         id="path6678"
         style="stroke-width:0.999998" />
    </clipPath>
    <clipPath
       clipPathUnits="userSpaceOnUse"
       id="clipPath6672">
      <path
         d="m -283.0732,302.3689 h 595.28 v -595.28 h -595.28 z"
         id="path6674"
         style="stroke-width:0.999998" />
    </clipPath>
    <clipPath
       clipPathUnits="userSpaceOnUse"
       id="clipPath6668">
      <path
         d="m -283.0732,302.3689 h 595.28 v -595.28 h -595.28 z"
         id="path6670"
         style="stroke-width:0.999998" />
    </clipPath>
    <clipPath
       clipPathUnits="userSpaceOnUse"
       id="clipPath6664">
      <path
         d="m -282.2124,300.1237 h 595.28 v -595.28 h -595.28 z"
         id="path6666"
         style="stroke-width:0.999998" />
    </clipPath>
    <clipPath
       clipPathUnits="userSpaceOnUse"
       id="clipPath6660">
      <path
         d="m -282.2124,300.1237 h 595.28 v -595.28 h -595.28 z"
         id="path6662"
         style="stroke-width:0.999998" />
    </clipPath>
  </defs>
  <g
     id="layer1">
    <g
       id="g7920"
       transform="matrix(15.529044,0,0,15.529044,-696.68824,-3776.9475)">
      <g
         id="g62"
         transform="matrix(0.35277777,0,0,-0.35277777,64.18238,292.58002)"
         clip-path="url(#clipPath6844)">
        <path
           d="m 0,0 c 29.573,0 53.71,20.953 53.873,46.698 h 0.004 v 0.264 92.077 H -53.878 V 46.962 46.698 h 0.004 C -53.71,20.953 -29.573,0 0,0"
           style="fill:#2056ae;fill-opacity:1;fill-rule:nonzero;stroke:none"
           id="path64" />
      </g>
      <g
         id="g66"
         transform="matrix(0.35277777,0,0,-0.35277777,64.18238,292.58002)"
         clip-path="url(#clipPath6840)">
        <path
           d="m 0,0 c 29.573,0 53.71,20.953 53.873,46.698 h 0.004 v 0.264 92.077 H -53.878 V 46.962 46.698 h 0.004 C -53.71,20.953 -29.573,0 0,0 Z"
           style="fill:none;stroke:#231f20;stroke-width:1.768;stroke-linecap:butt;stroke-linejoin:miter;stroke-miterlimit:10;stroke-dasharray:none;stroke-opacity:1"
           id="path68" />
      </g>
      <g
         id="g70"
         transform="matrix(0.35277777,0,0,-0.35277777,51.271384,262.67177)"
         clip-path="url(#clipPath6836)">
        <path
           d="m 0,0 c -0.102,1.611 -0.774,2.237 -2.007,2.408 -1.054,0.147 -2.219,-0.616 -2.626,-2.009 0.959,0.48 1.638,0.344 1.941,-0.052 0.35,-0.459 0.382,-0.941 0.231,-1.517 -0.94,-3.577 -0.122,-5.116 1.279,-5.895 1.429,-0.795 3.12,-0.442 5.168,1.871 2.879,3.248 3.907,8.073 3.801,12.311 -0.185,7.394 -3.681,21.402 -9.95,25.282 -2.442,1.512 -6.375,1.681 -8.535,-0.376 -1.513,-1.439 -1.983,-3.755 -1.563,-5.597 0.609,-2.664 1.759,-3.748 3.697,-5.737 0.984,-1.008 3.221,-2.908 3.931,-3.977 0.888,-1.337 1.518,-3.029 -0.192,-3.832 -1.164,-0.547 -2.449,0.673 -3.313,1.199 -0.123,-1.411 0.937,-3.307 2.405,-3.845 2.152,-0.79 4.76,0.455 5.47,3.09 0.325,1.208 0.03,3.122 -0.837,4.761 -0.377,0.713 -1.016,2.028 -0.944,3.103 0.041,0.621 0.32,1.16 1.022,1.456 0.806,0.337 1.618,-0.059 2.342,-0.745 1.141,-1.081 2.653,-3.203 3.603,-5.371 1.38,-3.15 2.242,-5.84 2.199,-9.458 C 7.104,5.536 6.722,3.175 5.879,1.508 5.233,0.232 3.755,-1.638 2.346,-2.077 1.487,-2.346 0.108,-1.712 0,0 Z"
           style="fill:none;stroke:#231f20;stroke-width:1.79;stroke-linecap:butt;stroke-linejoin:miter;stroke-miterlimit:22.926;stroke-dasharray:none;stroke-opacity:1"
           id="path72" />
      </g>
      <g
         id="g74"
         transform="matrix(0.35277777,0,0,-0.35277777,51.271384,262.67177)"
         clip-path="url(#clipPath6832)">
        <path
           d="m 0,0 c -0.102,1.611 -0.774,2.237 -2.007,2.408 -1.054,0.147 -2.219,-0.616 -2.626,-2.009 0.959,0.48 1.638,0.344 1.941,-0.052 0.35,-0.459 0.382,-0.941 0.231,-1.517 -0.94,-3.577 -0.122,-5.116 1.279,-5.895 1.429,-0.795 3.12,-0.442 5.169,1.871 2.878,3.248 3.906,8.073 3.8,12.311 -0.185,7.394 -3.681,21.402 -9.95,25.282 -2.442,1.512 -6.375,1.681 -8.535,-0.376 -1.513,-1.439 -1.983,-3.756 -1.563,-5.597 0.609,-2.664 1.759,-3.748 3.697,-5.737 0.984,-1.008 3.221,-2.908 3.932,-3.977 0.887,-1.337 1.517,-3.029 -0.193,-3.832 -1.164,-0.547 -2.449,0.673 -3.313,1.199 -0.123,-1.411 0.937,-3.307 2.405,-3.845 2.152,-0.79 4.76,0.455 5.47,3.09 0.325,1.207 0.03,3.122 -0.837,4.761 -0.377,0.713 -1.016,2.028 -0.944,3.103 0.041,0.62 0.32,1.16 1.023,1.455 0.805,0.338 1.617,-0.058 2.341,-0.744 1.141,-1.081 2.653,-3.204 3.603,-5.371 1.38,-3.15 2.242,-5.84 2.199,-9.458 C 7.104,5.536 6.722,3.175 5.879,1.508 5.233,0.232 3.755,-1.638 2.346,-2.077 1.487,-2.346 0.108,-1.712 0,0"
           style="fill:#ffffff;fill-opacity:1;fill-rule:nonzero;stroke:none"
           id="path76" />
      </g>
      <g
         id="g78"
         transform="matrix(0.35277777,0,0,-0.35277777,58.898122,262.67177)"
         clip-path="url(#clipPath6828)">
        <path
           d="M 0,0 C 0.102,1.611 0.774,2.237 2.007,2.408 3.061,2.555 4.226,1.792 4.633,0.399 3.674,0.879 2.995,0.743 2.692,0.347 2.342,-0.112 2.31,-0.594 2.462,-1.17 c 0.939,-3.577 0.121,-5.116 -1.28,-5.895 -1.429,-0.795 -3.12,-0.442 -5.168,1.871 -2.879,3.248 -3.907,8.073 -3.801,12.311 0.185,7.394 3.681,21.402 9.95,25.282 2.442,1.512 6.375,1.681 8.536,-0.376 1.512,-1.439 1.982,-3.755 1.562,-5.597 C 11.652,23.762 10.502,22.678 8.564,20.689 7.58,19.681 5.343,17.781 4.633,16.712 3.745,15.375 3.115,13.683 4.825,12.88 c 1.164,-0.547 2.449,0.673 3.313,1.199 0.123,-1.411 -0.937,-3.307 -2.404,-3.845 -2.153,-0.79 -4.761,0.455 -5.471,3.09 -0.325,1.208 -0.03,3.122 0.837,4.761 0.383,0.724 1.036,2.07 0.94,3.153 -0.053,0.6 -0.335,1.117 -1.019,1.406 -0.805,0.337 -1.617,-0.059 -2.341,-0.745 -1.141,-1.081 -2.653,-3.203 -3.603,-5.371 -1.38,-3.15 -2.242,-5.84 -2.199,-9.458 0.018,-1.534 0.399,-3.895 1.243,-5.562 0.646,-1.276 2.124,-3.146 3.533,-3.585 C -1.487,-2.346 -0.108,-1.712 0,0 Z"
           style="fill:none;stroke:#231f20;stroke-width:1.79;stroke-linecap:butt;stroke-linejoin:miter;stroke-miterlimit:22.926;stroke-dasharray:none;stroke-opacity:1"
           id="path80" />
      </g>
      <g
         id="g82"
         transform="matrix(0.35277777,0,0,-0.35277777,58.898122,262.67177)"
         clip-path="url(#clipPath6824)">
        <path
           d="M 0,0 C 0.102,1.611 0.774,2.237 2.007,2.408 3.061,2.555 4.226,1.792 4.633,0.399 3.674,0.879 2.995,0.743 2.692,0.347 2.342,-0.112 2.31,-0.594 2.462,-1.17 c 0.939,-3.577 0.121,-5.116 -1.28,-5.895 -1.429,-0.795 -3.12,-0.442 -5.168,1.871 -2.879,3.248 -3.907,8.073 -3.801,12.311 0.185,7.394 3.681,21.402 9.95,25.282 2.442,1.512 6.375,1.681 8.535,-0.376 1.513,-1.439 1.983,-3.756 1.563,-5.597 C 11.652,23.762 10.502,22.678 8.564,20.689 7.58,19.681 5.343,17.781 4.633,16.712 3.745,15.375 3.115,13.683 4.825,12.88 c 1.164,-0.547 2.449,0.673 3.313,1.199 0.123,-1.411 -0.937,-3.307 -2.404,-3.845 -2.153,-0.79 -4.761,0.455 -5.471,3.09 -0.325,1.207 -0.03,3.122 0.837,4.761 0.383,0.724 1.036,2.07 0.94,3.153 -0.053,0.6 -0.335,1.117 -1.019,1.405 -0.805,0.338 -1.617,-0.058 -2.341,-0.744 -1.141,-1.081 -2.653,-3.204 -3.603,-5.371 -1.38,-3.15 -2.242,-5.84 -2.199,-9.458 0.018,-1.534 0.4,-3.895 1.243,-5.562 0.646,-1.276 2.124,-3.146 3.533,-3.585 C -1.487,-2.346 -0.108,-1.712 0,0"
           style="fill:#ffffff;fill-opacity:1;fill-rule:nonzero;stroke:none"
           id="path84" />
      </g>
      <g
         id="g86"
         transform="matrix(0.35277777,0,0,-0.35277777,55.08477,247.2243)"
         clip-path="url(#clipPath6820)">
        <path
           d="m 0,0 c -0.812,-1.071 -1.677,-1.774 -3.811,-2.91 -0.963,-0.515 -1.854,-1.292 -2.408,-2.281 -0.6,-1.072 -0.822,-2.374 -0.782,-3.461 0.156,-4.177 1.746,-6.38 3.132,-10.104 0.222,-0.596 0.432,-1.235 0.631,-1.908 1.333,-4.51 2.456,-10.014 2.541,-15.259 0.061,-3.826 -0.502,-8.212 -1.848,-11.827 -0.911,-2.448 -1.957,-3.642 -2.06,-6.389 -0.026,-0.715 0.12,-1.572 0.514,-2.276 0.365,-0.65 0.951,-1.162 1.585,-1.5 1.403,-0.748 1.972,-1.211 2.506,-1.915 0.534,0.704 1.103,1.167 2.507,1.915 0.633,0.338 1.219,0.85 1.584,1.5 0.394,0.704 0.54,1.561 0.514,2.276 -0.103,2.747 -1.149,3.941 -2.06,6.389 -1.341,3.603 -1.907,7.974 -1.849,11.786 0.081,5.256 1.205,10.778 2.542,15.3 0.199,0.673 0.409,1.312 0.631,1.908 1.386,3.724 2.976,5.927 3.132,10.104 0.04,1.087 -0.182,2.389 -0.782,3.461 C 5.665,-4.202 4.775,-3.425 3.811,-2.91 1.677,-1.774 0.812,-1.071 0,0 Z"
           style="fill:none;stroke:#231f20;stroke-width:1.79;stroke-linecap:butt;stroke-linejoin:miter;stroke-miterlimit:22.926;stroke-dasharray:none;stroke-opacity:1"
           id="path88" />
      </g>
      <g
         id="g90"
         transform="matrix(0.35277777,0,0,-0.35277777,55.08477,247.2243)"
         clip-path="url(#clipPath6816)">
        <path
           d="m 0,0 c -0.812,-1.071 -1.677,-1.774 -3.811,-2.911 -0.964,-0.514 -1.854,-1.292 -2.408,-2.28 -0.6,-1.072 -0.822,-2.374 -0.782,-3.46 0.156,-4.178 1.746,-6.382 3.132,-10.105 0.222,-0.596 0.432,-1.236 0.631,-1.908 1.333,-4.51 2.456,-10.014 2.541,-15.259 0.061,-3.826 -0.502,-8.212 -1.848,-11.827 -0.911,-2.449 -1.957,-3.642 -2.06,-6.389 -0.026,-0.715 0.12,-1.572 0.514,-2.276 0.365,-0.65 0.951,-1.163 1.585,-1.5 1.403,-0.748 1.972,-1.21 2.506,-1.915 0.534,0.705 1.103,1.167 2.507,1.915 0.633,0.337 1.219,0.85 1.584,1.5 0.394,0.704 0.54,1.561 0.514,2.276 -0.103,2.747 -1.149,3.94 -2.06,6.389 -1.341,3.603 -1.907,7.974 -1.848,11.786 0.08,5.257 1.204,10.778 2.541,15.3 0.199,0.672 0.409,1.312 0.631,1.908 1.386,3.723 2.976,5.927 3.132,10.105 0.04,1.086 -0.182,2.388 -0.782,3.46 -0.554,0.988 -1.444,1.766 -2.408,2.28 C 1.677,-1.774 0.812,-1.071 0,0"
           style="fill:#ffffff;fill-opacity:1;fill-rule:nonzero;stroke:none"
           id="path92" />
      </g>
      <g
         id="g94"
         transform="matrix(0.35277777,0,0,-0.35277777,57.398146,263.76626)"
         clip-path="url(#clipPath6812)">
        <path
           d="M 0,0 C -0.165,0.186 -0.329,0.381 -0.492,0.589 -2.23,2.791 -3.05,5.862 -3.232,8.661 m -20.656,17.172 c -0.072,0.27 -0.128,0.551 -0.167,0.85 -0.166,1.171 0.201,2.512 1.268,3.326 0.895,0.705 2.111,0.85 3.264,0.595 m -3.399,-5.439 c -0.096,0.33 -0.166,0.676 -0.204,1.043 -0.123,1.059 0.226,2.239 1.218,2.948 0.951,0.706 2.249,0.726 3.406,0.3 m -3.501,-4.8 c -0.099,0.344 -0.167,0.703 -0.194,1.077 -0.081,0.948 0.251,1.965 1.169,2.572 0.942,0.646 2.198,0.559 3.274,0.03 m -3.37,-4.054 c -0.081,0.32 -0.133,0.646 -0.144,0.978 -0.039,0.835 0.276,1.691 1.12,2.192 0.859,0.532 1.936,0.392 2.867,-0.132 m -2.988,-3.29 c -0.048,0.252 -0.074,0.506 -0.07,0.756 0.004,0.723 0.301,1.416 1.07,1.814 0.7,0.372 1.495,0.251 2.221,-0.158 m 13.86,-15.54 c 0.126,3.465 0.999,7.23 2.432,11.003 1.315,3.54 3.292,6.837 5.429,8.348 1.583,1.099 3.956,1.382 5.439,0.185 1.098,-0.865 1.474,-2.283 1.29,-3.502 -0.008,-0.058 -0.016,-0.114 -0.025,-0.169 m -32.669,-5.953 c -0.417,0.637 -0.867,1.267 -1.246,1.795 -1.229,1.409 -2.147,2.598 -2.446,4.539 -0.211,1.288 0.172,2.795 1.317,3.715 1.544,1.277 4.059,1.003 5.72,-0.133 2.228,-1.549 4.247,-4.954 5.595,-8.618 1.424,-3.789 2.294,-7.605 2.446,-11.045 m -5.917,-11.809 c -0.162,-0.03 -0.322,-0.047 -0.481,-0.046 -0.466,0.05 -0.955,0.266 -1.333,0.696 m 2.417,0.322 c -0.148,-0.051 -0.296,-0.088 -0.443,-0.111 -0.604,-0.049 -1.336,0.251 -1.772,0.994 m 3.696,-2.991 c -1.134,-1.172 -2.177,-1.731 -3.131,-1.802 m 2.578,2.14 c -0.793,-0.65 -1.567,-1.007 -2.302,-1.072 m -5.066,16.661 c 1.187,0.2 2.154,1.034 2.604,2.293 m -1.609,-2.714 c 0.982,0.348 1.835,1.1 2.325,2.174 m 31.638,18.911 c 0.243,-0.152 0.473,-0.327 0.684,-0.524 1.43,-1.325 1.881,-3.461 1.508,-5.179 -0.223,-1.041 -0.544,-1.842 -0.971,-2.555 m -2.486,7.461 c 0.356,-0.176 0.686,-0.396 0.982,-0.665 1.347,-1.21 1.779,-3.167 1.453,-4.759 -0.16,-0.805 -0.389,-1.47 -0.687,-2.063 m -2.859,6.577 c 0.409,-0.17 0.79,-0.399 1.125,-0.692 1.264,-1.096 1.678,-2.873 1.399,-4.34 C 13.344,27.407 13.201,26.91 13.02,26.457 M 10.01,32 c 0.388,-0.148 0.749,-0.355 1.069,-0.626 1.181,-0.979 1.576,-2.576 1.345,-3.921 -0.051,-0.317 -0.117,-0.614 -0.198,-0.894 M 4.68,29.435 c 1.055,0.628 2.374,0.882 3.49,0.552 M 3.668,27.899 c 0.103,0.089 0.206,0.174 0.309,0.253 1.044,0.787 2.452,1.144 3.594,0.724 M 2.546,26.034 c 0.363,0.418 0.727,0.779 1.082,1.069 0.978,0.778 2.266,1.138 3.303,0.669 M 1.396,23.867 c 0.631,0.902 1.284,1.662 1.884,2.185 0.896,0.768 2.02,1.142 2.961,0.632 L 6.256,26.676 M 6.641,-1.2 C 6.418,-2.336 5.796,-2.985 5.016,-3.376 4.489,-3.624 3.928,-3.712 3.334,-3.61 M 5.83,-0.911 C 5.511,-1.693 4.944,-2.141 4.311,-2.379 3.877,-2.508 3.424,-2.522 2.958,-2.424 m 1.759,1.649 C 4.393,-1.1 4.001,-1.292 3.605,-1.381 3.493,-1.395 3.379,-1.4 3.265,-1.398 m 5.62,4.9 C 8.312,4.62 7.293,5.113 6.464,4.893 5.496,4.635 5.016,4.052 4.99,2.751 5.005,2.587 5.012,2.431 5.013,2.28 m 5.076,20.125 C 8.819,20.899 6.724,18.265 8.654,16.591 M 8.617,21.813 C 7.836,20.66 6.612,18.305 7.375,16.934 8.058,15.705 9.3,15.326 10.704,16.403 M 7.101,21.131 C 5.88,18.899 5.96,16.094 7.745,15.377 c 1.786,-0.718 2.922,-0.278 4.644,1.806 m -37.894,0 c 0.505,-0.85 1.708,-2.315 2.982,-2.162 1.369,0.164 2.029,1.025 2.165,2.185"
           style="fill:none;stroke:#231f20;stroke-width:0.448;stroke-linecap:round;stroke-linejoin:round;stroke-miterlimit:22.926;stroke-dasharray:none;stroke-opacity:1"
           id="path96" />
      </g>
      <g
         id="g98"
         transform="matrix(0.35277777,0,0,-0.35277777,55.398778,264.18762)">
        <path
           d="M 0,0 -0.392,12.022"
           style="fill:none;stroke:#231f20;stroke-width:0.445;stroke-linecap:round;stroke-linejoin:round;stroke-miterlimit:22.926;stroke-dasharray:none;stroke-opacity:1"
           id="path100" />
      </g>
      <g
         id="g102"
         transform="matrix(0.35277777,0,0,-0.35277777,55.101139,266.50858)">
        <path
           d="M 0,0 -0.093,44.091"
           style="fill:none;stroke:#231f20;stroke-width:0.448;stroke-linecap:round;stroke-linejoin:round;stroke-miterlimit:22.926;stroke-dasharray:none;stroke-opacity:1"
           id="path104" />
      </g>
      <g
         id="g106"
         transform="matrix(0.35277777,0,0,-0.35277777,55.600143,249.35233)"
         clip-path="url(#clipPath6808)">
        <path
           d="M 0,0 C -0.379,0.183 -0.605,0.313 -0.889,0.523"
           style="fill:none;stroke:#231f20;stroke-width:0.448;stroke-linecap:round;stroke-linejoin:round;stroke-miterlimit:22.926;stroke-dasharray:none;stroke-opacity:1"
           id="path108" />
      </g>
      <g
         id="g110"
         transform="matrix(0.35277777,0,0,-0.35277777,55.755683,249.13255)"
         clip-path="url(#clipPath6804)">
        <path
           d="m 0,0 c -0.62,0.338 -0.98,0.589 -1.344,0.923 m 1.785,-0.3 c -0.86,0.493 -1.355,0.866 -1.798,1.323 m 2.239,-0.7 c -1.101,0.649 -1.73,1.143 -2.253,1.724 m 2.694,-1.1 c -1.341,0.802 -2.104,1.418 -2.708,2.122 m 4.092,-9.568 c 0.173,0.758 0.288,1.552 0.32,2.41 0.01,0.276 -0.004,0.568 -0.044,0.862 m 0.195,-4.26 c 0.315,1.089 0.495,2.173 0.539,3.373 0.018,0.482 -0.028,1.002 -0.143,1.502 m 0.128,-5.528 c 0.417,1.302 0.653,2.575 0.706,4 0.022,0.589 -0.041,1.218 -0.194,1.819 m -5.876,-29.248 c 0.053,5.539 1.166,12.562 2.405,17.403 m -2.645,-12.808 c 0.276,5.015 1.119,10.575 2.051,14.82 0.199,0.84 0.449,1.758 0.74,2.732 m -2.791,-11.055 c 0.328,3.386 0.813,6.769 1.344,9.717 m -1.344,-3.838 c 0.252,2.253 0.549,4.444 0.864,6.467 m -0.616,-43.991 c 0.561,0.31 1.285,0.639 1.755,1.081 m -1.48,-1.864 c 0.706,0.476 1.635,0.789 2.178,1.465 0.07,0.086 0.132,0.178 0.186,0.273 m -1.94,-2.372 c 0.789,0.517 1.729,0.853 2.322,1.618 0.081,0.105 0.155,0.215 0.219,0.33"
           style="fill:none;stroke:#231f20;stroke-width:0.448;stroke-linecap:round;stroke-linejoin:round;stroke-miterlimit:22.926;stroke-dasharray:none;stroke-opacity:1"
           id="path112" />
      </g>
      <g
         id="g114"
         transform="matrix(0.35277777,0,0,-0.35277777,53.29848,258.85425)"
         clip-path="url(#clipPath6800)">
        <path
           d="m 0,0 h 10.127 c 0.428,0 0.778,-0.351 0.778,-0.778 0,-0.428 -0.35,-0.778 -0.778,-0.778 H 0 c -0.428,0 -0.778,0.35 -0.778,0.778 C -0.778,-0.351 -0.428,0 0,0 Z"
           style="fill:none;stroke:#231f20;stroke-width:1.253;stroke-linecap:butt;stroke-linejoin:miter;stroke-miterlimit:22.926;stroke-dasharray:none;stroke-opacity:1"
           id="path116" />
      </g>
      <g
         id="g118"
         transform="matrix(0.35277777,0,0,-0.35277777,53.29848,258.85425)"
         clip-path="url(#clipPath6796)">
        <path
           d="m 0,0 h 10.127 c 0.428,0 0.778,-0.351 0.778,-0.778 0,-0.428 -0.35,-0.778 -0.778,-0.778 H 0 c -0.428,0 -0.778,0.35 -0.778,0.778 C -0.778,-0.351 -0.428,0 0,0"
           style="fill:#ffffff;fill-opacity:1;fill-rule:nonzero;stroke:none"
           id="path120" />
      </g>
      <g
         id="g122"
         transform="matrix(0.35277777,0,0,-0.35277777,53.29848,260.43798)"
         clip-path="url(#clipPath6792)">
        <path
           d="m 0,0 h 10.127 c 0.428,0 0.778,-0.35 0.778,-0.777 0,-0.429 -0.35,-0.779 -0.778,-0.779 H 0 c -0.428,0 -0.778,0.35 -0.778,0.779 C -0.778,-0.35 -0.428,0 0,0 Z"
           style="fill:none;stroke:#231f20;stroke-width:1.253;stroke-linecap:butt;stroke-linejoin:miter;stroke-miterlimit:22.926;stroke-dasharray:none;stroke-opacity:1"
           id="path124" />
      </g>
      <g
         id="g126"
         transform="matrix(0.35277777,0,0,-0.35277777,53.29848,260.43798)"
         clip-path="url(#clipPath6788)">
        <path
           d="m 0,0 h 10.127 c 0.428,0 0.778,-0.35 0.778,-0.777 0,-0.429 -0.35,-0.779 -0.778,-0.779 H 0 c -0.428,0 -0.778,0.35 -0.778,0.779 C -0.778,-0.35 -0.428,0 0,0"
           style="fill:#ffffff;fill-opacity:1;fill-rule:nonzero;stroke:none"
           id="path128" />
      </g>
      <g
         id="g130"
         transform="matrix(0.35277777,0,0,-0.35277777,52.994809,259.64592)"
         clip-path="url(#clipPath6784)">
        <path
           d="m 0,0 h 11.848 c 0.428,0 0.778,-0.351 0.778,-0.778 0,-0.428 -0.35,-0.779 -0.778,-0.779 H 0 c -0.428,0 -0.778,0.351 -0.778,0.779 C -0.778,-0.351 -0.428,0 0,0 Z"
           style="fill:none;stroke:#231f20;stroke-width:1.253;stroke-linecap:butt;stroke-linejoin:miter;stroke-miterlimit:22.926;stroke-dasharray:none;stroke-opacity:1"
           id="path132" />
      </g>
      <g
         id="g134"
         transform="matrix(0.35277777,0,0,-0.35277777,52.994809,259.64592)"
         clip-path="url(#clipPath6780)">
        <path
           d="m 0,0 h 11.848 c 0.428,0 0.778,-0.351 0.778,-0.778 0,-0.428 -0.35,-0.779 -0.778,-0.779 H 0 c -0.428,0 -0.778,0.351 -0.778,0.779 C -0.778,-0.351 -0.428,0 0,0"
           style="fill:#ffffff;fill-opacity:1;fill-rule:nonzero;stroke:none"
           id="path136" />
      </g>
      <g
         id="g138"
         transform="matrix(0.35277777,0,0,-0.35277777,69.602916,262.67177)"
         clip-path="url(#clipPath6776)">
        <path
           d="m 0,0 c -0.102,1.611 -0.773,2.237 -2.006,2.408 -1.055,0.147 -2.219,-0.616 -2.627,-2.009 0.959,0.48 1.639,0.344 1.942,-0.052 0.349,-0.459 0.382,-0.941 0.23,-1.517 -0.939,-3.577 -0.121,-5.116 1.279,-5.895 1.43,-0.795 3.12,-0.442 5.168,1.871 2.879,3.248 3.908,8.073 3.801,12.311 -0.184,7.394 -3.68,21.402 -9.949,25.282 -2.442,1.512 -6.375,1.681 -8.535,-0.376 -1.513,-1.439 -1.983,-3.755 -1.563,-5.597 0.609,-2.664 1.759,-3.748 3.697,-5.737 0.984,-1.008 3.221,-2.908 3.93,-3.977 0.889,-1.337 1.519,-3.029 -0.191,-3.832 -1.164,-0.547 -2.449,0.673 -3.313,1.199 -0.123,-1.411 0.937,-3.307 2.405,-3.845 2.152,-0.79 4.759,0.455 5.47,3.09 0.325,1.208 0.03,3.122 -0.838,4.761 -0.377,0.713 -1.015,2.028 -0.943,3.103 0.041,0.621 0.32,1.16 1.022,1.456 0.806,0.337 1.618,-0.059 2.341,-0.745 1.142,-1.081 2.654,-3.203 3.604,-5.371 1.38,-3.15 2.242,-5.84 2.199,-9.458 C 7.104,5.536 6.723,3.175 5.88,1.508 5.234,0.232 3.756,-1.638 2.347,-2.077 1.488,-2.346 0.109,-1.712 0,0 Z"
           style="fill:none;stroke:#231f20;stroke-width:1.79;stroke-linecap:butt;stroke-linejoin:miter;stroke-miterlimit:22.926;stroke-dasharray:none;stroke-opacity:1"
           id="path140" />
      </g>
      <g
         id="g142"
         transform="matrix(0.35277777,0,0,-0.35277777,69.602916,262.67177)"
         clip-path="url(#clipPath6772)">
        <path
           d="m 0,0 c -0.102,1.611 -0.773,2.237 -2.006,2.408 -1.055,0.147 -2.22,-0.616 -2.627,-2.009 0.959,0.48 1.639,0.344 1.942,-0.052 0.349,-0.459 0.381,-0.941 0.23,-1.517 -0.939,-3.577 -0.121,-5.116 1.279,-5.895 1.43,-0.795 3.12,-0.442 5.17,1.871 2.877,3.248 3.906,8.073 3.799,12.311 -0.184,7.394 -3.681,21.402 -9.949,25.282 -2.442,1.512 -6.376,1.681 -8.535,-0.376 -1.513,-1.439 -1.983,-3.756 -1.563,-5.597 0.609,-2.664 1.759,-3.748 3.697,-5.737 0.983,-1.008 3.221,-2.908 3.932,-3.977 0.887,-1.337 1.517,-3.029 -0.193,-3.832 -1.164,-0.547 -2.449,0.673 -3.313,1.199 -0.123,-1.411 0.937,-3.307 2.405,-3.845 2.152,-0.79 4.759,0.455 5.47,3.09 0.325,1.207 0.03,3.122 -0.838,4.761 -0.377,0.713 -1.015,2.028 -0.943,3.103 0.041,0.62 0.32,1.16 1.022,1.455 0.806,0.338 1.618,-0.058 2.341,-0.744 1.141,-1.081 2.654,-3.204 3.604,-5.371 1.38,-3.15 2.242,-5.84 2.199,-9.458 C 7.104,5.536 6.723,3.175 5.879,1.508 5.233,0.232 3.756,-1.638 2.347,-2.077 1.488,-2.346 0.108,-1.712 0,0"
           style="fill:#ffffff;fill-opacity:1;fill-rule:nonzero;stroke:none"
           id="path144" />
      </g>
      <g
         id="g146"
         transform="matrix(0.35277777,0,0,-0.35277777,77.229654,262.67177)"
         clip-path="url(#clipPath6768)">
        <path
           d="M 0,0 C 0.103,1.611 0.774,2.237 2.008,2.408 3.062,2.555 4.227,1.792 4.633,0.399 3.674,0.879 2.996,0.743 2.692,0.347 2.342,-0.112 2.311,-0.594 2.463,-1.17 c 0.938,-3.577 0.121,-5.116 -1.28,-5.895 -1.429,-0.795 -3.121,-0.442 -5.168,1.871 -2.88,3.248 -3.908,8.073 -3.802,12.311 0.185,7.394 3.682,21.402 9.951,25.282 2.441,1.512 6.375,1.681 8.535,-0.376 1.512,-1.439 1.983,-3.755 1.563,-5.597 -0.61,-2.664 -1.76,-3.748 -3.698,-5.737 C 7.58,19.681 5.344,17.781 4.633,16.712 3.746,15.375 3.115,13.683 4.826,12.88 c 1.163,-0.547 2.448,0.673 3.313,1.199 0.123,-1.411 -0.938,-3.307 -2.405,-3.845 -2.152,-0.79 -4.76,0.455 -5.47,3.09 -0.326,1.208 -0.031,3.122 0.837,4.761 0.382,0.724 1.036,2.07 0.94,3.153 -0.054,0.6 -0.336,1.117 -1.02,1.406 -0.804,0.337 -1.617,-0.059 -2.34,-0.745 -1.142,-1.081 -2.654,-3.203 -3.603,-5.371 -1.381,-3.15 -2.242,-5.84 -2.199,-9.458 0.017,-1.534 0.398,-3.895 1.242,-5.562 0.647,-1.276 2.125,-3.146 3.533,-3.585 C -1.486,-2.346 -0.107,-1.712 0,0 Z"
           style="fill:none;stroke:#231f20;stroke-width:1.79;stroke-linecap:butt;stroke-linejoin:miter;stroke-miterlimit:22.926;stroke-dasharray:none;stroke-opacity:1"
           id="path148" />
      </g>
      <g
         id="g150"
         transform="matrix(0.35277777,0,0,-0.35277777,77.229654,262.67177)"
         clip-path="url(#clipPath6764)">
        <path
           d="M 0,0 C 0.103,1.611 0.774,2.237 2.008,2.408 3.062,2.555 4.227,1.792 4.633,0.399 3.674,0.879 2.996,0.743 2.692,0.347 2.342,-0.112 2.311,-0.594 2.463,-1.17 c 0.938,-3.577 0.121,-5.116 -1.28,-5.895 -1.429,-0.795 -3.121,-0.442 -5.169,1.871 -2.879,3.248 -3.907,8.073 -3.801,12.311 0.185,7.394 3.682,21.402 9.951,25.282 2.441,1.512 6.375,1.681 8.534,-0.376 1.513,-1.439 1.984,-3.756 1.564,-5.597 -0.61,-2.664 -1.76,-3.748 -3.698,-5.737 C 7.58,19.681 5.344,17.781 4.633,16.712 3.746,15.375 3.115,13.683 4.825,12.88 c 1.164,-0.547 2.449,0.673 3.314,1.199 0.123,-1.411 -0.938,-3.307 -2.405,-3.845 -2.152,-0.79 -4.761,0.455 -5.47,3.09 -0.326,1.207 -0.031,3.122 0.837,4.761 0.382,0.724 1.036,2.07 0.94,3.153 -0.054,0.6 -0.336,1.117 -1.02,1.405 -0.804,0.338 -1.617,-0.058 -2.341,-0.744 -1.141,-1.081 -2.653,-3.204 -3.603,-5.371 -1.38,-3.15 -2.241,-5.84 -2.198,-9.458 0.017,-1.534 0.399,-3.895 1.242,-5.562 0.647,-1.276 2.125,-3.146 3.533,-3.585 C -1.486,-2.346 -0.107,-1.712 0,0"
           style="fill:#ffffff;fill-opacity:1;fill-rule:nonzero;stroke:none"
           id="path152" />
      </g>
      <g
         id="g154"
         transform="matrix(0.35277777,0,0,-0.35277777,73.41662,247.2243)"
         clip-path="url(#clipPath6760)">
        <path
           d="m 0,0 c -0.813,-1.071 -1.678,-1.774 -3.812,-2.91 -0.962,-0.515 -1.854,-1.292 -2.407,-2.281 -0.6,-1.072 -0.822,-2.374 -0.783,-3.461 0.156,-4.177 1.746,-6.38 3.133,-10.104 0.222,-0.596 0.431,-1.235 0.631,-1.908 1.333,-4.51 2.456,-10.014 2.541,-15.259 0.06,-3.826 -0.502,-8.212 -1.848,-11.827 -0.912,-2.448 -1.957,-3.642 -2.06,-6.389 -0.026,-0.715 0.12,-1.572 0.513,-2.276 0.365,-0.65 0.951,-1.162 1.586,-1.5 1.402,-0.748 1.971,-1.211 2.506,-1.915 0.533,0.704 1.103,1.167 2.506,1.915 0.634,0.338 1.22,0.85 1.584,1.5 0.394,0.704 0.541,1.561 0.514,2.276 -0.102,2.747 -1.149,3.941 -2.059,6.389 -1.342,3.603 -1.907,7.974 -1.85,11.786 0.081,5.256 1.205,10.778 2.543,15.3 0.199,0.673 0.408,1.312 0.631,1.908 1.385,3.724 2.976,5.927 3.131,10.104 0.041,1.087 -0.182,2.389 -0.781,3.461 C 5.664,-4.202 4.774,-3.425 3.811,-2.91 1.677,-1.774 0.812,-1.071 0,0 Z"
           style="fill:none;stroke:#231f20;stroke-width:1.79;stroke-linecap:butt;stroke-linejoin:miter;stroke-miterlimit:22.926;stroke-dasharray:none;stroke-opacity:1"
           id="path156" />
      </g>
      <g
         id="g158"
         transform="matrix(0.35277777,0,0,-0.35277777,73.41662,247.2243)"
         clip-path="url(#clipPath6756)">
        <path
           d="m 0,0 c -0.813,-1.071 -1.678,-1.774 -3.812,-2.911 -0.963,-0.514 -1.854,-1.292 -2.407,-2.28 -0.6,-1.072 -0.822,-2.374 -0.783,-3.46 0.156,-4.178 1.746,-6.382 3.133,-10.105 0.222,-0.596 0.431,-1.236 0.631,-1.908 1.333,-4.51 2.456,-10.014 2.541,-15.259 0.06,-3.826 -0.502,-8.212 -1.848,-11.827 -0.912,-2.449 -1.957,-3.642 -2.06,-6.389 -0.026,-0.715 0.12,-1.572 0.513,-2.276 0.365,-0.65 0.951,-1.163 1.586,-1.5 1.402,-0.748 1.971,-1.21 2.506,-1.915 0.533,0.705 1.103,1.167 2.506,1.915 0.634,0.337 1.22,0.85 1.584,1.5 0.394,0.704 0.541,1.561 0.514,2.276 -0.102,2.747 -1.149,3.94 -2.059,6.389 -1.342,3.603 -1.907,7.974 -1.848,11.786 0.079,5.257 1.203,10.778 2.541,15.3 0.199,0.672 0.408,1.312 0.631,1.908 1.385,3.723 2.976,5.927 3.131,10.105 0.041,1.086 -0.182,2.388 -0.781,3.46 -0.555,0.988 -1.445,1.766 -2.408,2.28 C 1.677,-1.774 0.812,-1.071 0,0"
           style="fill:#ffffff;fill-opacity:1;fill-rule:nonzero;stroke:none"
           id="path160" />
      </g>
      <g
         id="g162"
         transform="matrix(0.35277777,0,0,-0.35277777,75.729996,263.76626)"
         clip-path="url(#clipPath6752)">
        <path
           d="M 0,0 C -0.165,0.186 -0.329,0.381 -0.492,0.589 -2.229,2.791 -3.05,5.862 -3.231,8.661 m -20.657,17.172 c -0.072,0.27 -0.128,0.551 -0.167,0.85 -0.166,1.171 0.201,2.512 1.268,3.326 0.895,0.705 2.11,0.85 3.265,0.595 m -3.401,-5.439 c -0.095,0.33 -0.165,0.676 -0.203,1.043 -0.123,1.059 0.226,2.239 1.218,2.948 0.951,0.706 2.249,0.726 3.406,0.3 m -3.501,-4.8 c -0.1,0.344 -0.167,0.703 -0.194,1.077 -0.081,0.948 0.251,1.965 1.169,2.572 0.942,0.646 2.198,0.559 3.274,0.03 m -3.37,-4.054 c -0.081,0.32 -0.133,0.646 -0.145,0.978 -0.039,0.835 0.277,1.691 1.122,2.192 0.858,0.532 1.935,0.392 2.866,-0.132 m -2.988,-3.29 c -0.048,0.252 -0.074,0.506 -0.07,0.756 0.004,0.723 0.301,1.416 1.07,1.814 0.7,0.372 1.495,0.251 2.221,-0.158 m 13.86,-15.54 c 0.126,3.465 1,7.23 2.431,11.003 1.317,3.54 3.293,6.837 5.43,8.348 1.583,1.099 3.956,1.382 5.439,0.185 1.098,-0.865 1.474,-2.283 1.289,-3.502 -0.007,-0.058 -0.015,-0.114 -0.024,-0.169 m -32.669,-5.953 c -0.417,0.637 -0.867,1.267 -1.246,1.795 -1.229,1.409 -2.147,2.598 -2.446,4.539 -0.211,1.288 0.172,2.795 1.317,3.715 1.544,1.277 4.059,1.003 5.72,-0.133 2.227,-1.549 4.247,-4.954 5.594,-8.618 1.424,-3.789 2.295,-7.605 2.447,-11.045 m -5.917,-11.809 c -0.162,-0.03 -0.323,-0.047 -0.481,-0.046 -0.467,0.05 -0.955,0.266 -1.334,0.696 m 2.418,0.322 c -0.148,-0.051 -0.297,-0.088 -0.443,-0.111 -0.604,-0.049 -1.336,0.251 -1.772,0.994 m 3.696,-2.991 c -1.134,-1.172 -2.177,-1.731 -3.131,-1.802 m 2.578,2.14 c -0.793,-0.65 -1.567,-1.007 -2.303,-1.072 m -5.065,16.661 c 1.186,0.2 2.153,1.034 2.604,2.293 m -1.609,-2.714 c 0.982,0.348 1.835,1.1 2.324,2.174 m 31.639,18.911 c 0.243,-0.152 0.473,-0.327 0.683,-0.524 1.43,-1.325 1.881,-3.461 1.508,-5.179 -0.222,-1.041 -0.543,-1.842 -0.97,-2.555 m -2.487,7.461 c 0.357,-0.176 0.687,-0.396 0.983,-0.665 1.347,-1.21 1.779,-3.167 1.453,-4.759 -0.16,-0.805 -0.389,-1.47 -0.688,-2.063 m -2.858,6.577 c 0.409,-0.17 0.79,-0.399 1.125,-0.692 1.265,-1.096 1.678,-2.873 1.399,-4.34 C 13.344,27.407 13.2,26.91 13.021,26.457 M 10.01,32 c 0.387,-0.148 0.749,-0.355 1.069,-0.626 1.181,-0.979 1.576,-2.576 1.345,-3.921 -0.051,-0.317 -0.117,-0.614 -0.198,-0.894 M 4.68,29.435 c 1.055,0.628 2.374,0.882 3.49,0.552 M 3.668,27.899 c 0.103,0.089 0.206,0.174 0.31,0.253 1.043,0.787 2.451,1.144 3.593,0.724 M 2.546,26.034 c 0.363,0.418 0.726,0.779 1.082,1.069 0.978,0.778 2.266,1.138 3.303,0.669 M 1.396,23.867 c 0.63,0.902 1.284,1.662 1.884,2.185 0.896,0.768 2.02,1.142 2.961,0.632 L 6.256,26.676 M 6.641,-1.2 C 6.418,-2.336 5.796,-2.985 5.016,-3.376 4.489,-3.624 3.928,-3.712 3.334,-3.61 M 5.83,-0.911 C 5.511,-1.693 4.944,-2.141 4.312,-2.379 3.877,-2.508 3.424,-2.522 2.958,-2.424 m 1.759,1.649 C 4.394,-1.1 4.001,-1.292 3.604,-1.381 3.493,-1.395 3.379,-1.4 3.265,-1.398 m 5.62,4.9 C 8.312,4.62 7.293,5.113 6.464,4.893 5.496,4.635 5.016,4.052 4.989,2.751 5.005,2.587 5.012,2.431 5.013,2.28 m 5.076,20.125 C 8.819,20.899 6.724,18.265 8.653,16.591 M 8.616,21.813 C 7.836,20.66 6.612,18.305 7.375,16.934 8.058,15.705 9.3,15.326 10.704,16.403 M 7.101,21.131 C 5.88,18.899 5.96,16.094 7.745,15.377 c 1.785,-0.718 2.922,-0.278 4.644,1.806 m -37.894,0 c 0.505,-0.85 1.708,-2.315 2.983,-2.162 1.368,0.164 2.028,1.025 2.164,2.185"
           style="fill:none;stroke:#231f20;stroke-width:0.448;stroke-linecap:round;stroke-linejoin:round;stroke-miterlimit:22.926;stroke-dasharray:none;stroke-opacity:1"
           id="path164" />
      </g>
      <g
         id="g166"
         transform="matrix(0.35277777,0,0,-0.35277777,73.730487,264.18762)">
        <path
           d="M 0,0 -0.392,12.022"
           style="fill:none;stroke:#231f20;stroke-width:0.445;stroke-linecap:round;stroke-linejoin:round;stroke-miterlimit:22.926;stroke-dasharray:none;stroke-opacity:1"
           id="path168" />
      </g>
      <g
         id="g170"
         transform="matrix(0.35277777,0,0,-0.35277777,73.433166,266.50858)">
        <path
           d="M 0,0 -0.094,44.091"
           style="fill:none;stroke:#231f20;stroke-width:0.448;stroke-linecap:round;stroke-linejoin:round;stroke-miterlimit:22.926;stroke-dasharray:none;stroke-opacity:1"
           id="path172" />
      </g>
      <g
         id="g174"
         transform="matrix(0.35277777,0,0,-0.35277777,73.932029,249.35233)"
         clip-path="url(#clipPath6748)">
        <path
           d="M 0,0 C -0.379,0.183 -0.605,0.313 -0.889,0.523"
           style="fill:none;stroke:#231f20;stroke-width:0.448;stroke-linecap:round;stroke-linejoin:round;stroke-miterlimit:22.926;stroke-dasharray:none;stroke-opacity:1"
           id="path176" />
      </g>
      <g
         id="g178"
         transform="matrix(0.35277777,0,0,-0.35277777,74.087392,249.13255)"
         clip-path="url(#clipPath6744)">
        <path
           d="m 0,0 c -0.62,0.338 -0.979,0.589 -1.344,0.923 m 1.784,-0.3 c -0.859,0.493 -1.354,0.866 -1.796,1.323 m 2.238,-0.7 C -0.219,1.895 -0.848,2.389 -1.371,2.97 M 1.323,1.87 C -0.019,2.672 -0.78,3.288 -1.385,3.992 m 4.092,-9.568 c 0.173,0.758 0.288,1.552 0.32,2.41 0.01,0.276 -0.005,0.568 -0.044,0.862 m 0.196,-4.26 c 0.314,1.089 0.494,2.173 0.539,3.373 0.017,0.482 -0.03,1.002 -0.144,1.502 m 0.128,-5.528 c 0.417,1.302 0.652,2.575 0.706,4 0.023,0.589 -0.041,1.218 -0.194,1.819 m -5.876,-29.248 c 0.054,5.539 1.166,12.562 2.405,17.403 m -2.644,-12.808 c 0.275,5.015 1.119,10.575 2.05,14.82 0.2,0.84 0.45,1.758 0.741,2.732 m -2.791,-11.055 c 0.328,3.386 0.812,6.769 1.343,9.717 m -1.343,-3.838 c 0.252,2.253 0.548,4.444 0.863,6.467 m -0.615,-43.991 c 0.56,0.31 1.284,0.639 1.754,1.081 m -1.48,-1.864 c 0.706,0.476 1.635,0.789 2.179,1.465 0.069,0.086 0.131,0.178 0.185,0.273 m -1.94,-2.372 c 0.789,0.517 1.729,0.853 2.322,1.618 0.081,0.105 0.155,0.215 0.219,0.33"
           style="fill:none;stroke:#231f20;stroke-width:0.448;stroke-linecap:round;stroke-linejoin:round;stroke-miterlimit:22.926;stroke-dasharray:none;stroke-opacity:1"
           id="path180" />
      </g>
      <g
         id="g182"
         transform="matrix(0.35277777,0,0,-0.35277777,71.630012,258.85425)"
         clip-path="url(#clipPath6740)">
        <path
           d="m 0,0 h 10.127 c 0.429,0 0.778,-0.351 0.778,-0.778 0,-0.428 -0.349,-0.778 -0.778,-0.778 H 0 c -0.428,0 -0.777,0.35 -0.777,0.778 C -0.777,-0.351 -0.428,0 0,0 Z"
           style="fill:none;stroke:#231f20;stroke-width:1.253;stroke-linecap:butt;stroke-linejoin:miter;stroke-miterlimit:22.926;stroke-dasharray:none;stroke-opacity:1"
           id="path184" />
      </g>
      <g
         id="g186"
         transform="matrix(0.35277777,0,0,-0.35277777,71.630012,258.85425)"
         clip-path="url(#clipPath6736)">
        <path
           d="m 0,0 h 10.127 c 0.429,0 0.778,-0.351 0.778,-0.778 0,-0.428 -0.349,-0.778 -0.778,-0.778 H 0 c -0.428,0 -0.777,0.35 -0.777,0.778 C -0.777,-0.351 -0.428,0 0,0"
           style="fill:#ffffff;fill-opacity:1;fill-rule:nonzero;stroke:none"
           id="path188" />
      </g>
      <g
         id="g190"
         transform="matrix(0.35277777,0,0,-0.35277777,71.630012,260.43798)"
         clip-path="url(#clipPath6732)">
        <path
           d="m 0,0 h 10.127 c 0.429,0 0.778,-0.35 0.778,-0.777 0,-0.429 -0.349,-0.779 -0.778,-0.779 H 0 c -0.428,0 -0.777,0.35 -0.777,0.779 C -0.777,-0.35 -0.428,0 0,0 Z"
           style="fill:none;stroke:#231f20;stroke-width:1.253;stroke-linecap:butt;stroke-linejoin:miter;stroke-miterlimit:22.926;stroke-dasharray:none;stroke-opacity:1"
           id="path192" />
      </g>
      <g
         id="g194"
         transform="matrix(0.35277777,0,0,-0.35277777,71.630012,260.43798)"
         clip-path="url(#clipPath6728)">
        <path
           d="m 0,0 h 10.127 c 0.429,0 0.778,-0.35 0.778,-0.777 0,-0.429 -0.349,-0.779 -0.778,-0.779 H 0 c -0.428,0 -0.777,0.35 -0.777,0.779 C -0.777,-0.35 -0.428,0 0,0"
           style="fill:#ffffff;fill-opacity:1;fill-rule:nonzero;stroke:none"
           id="path196" />
      </g>
      <g
         id="g198"
         transform="matrix(0.35277777,0,0,-0.35277777,71.326483,259.64592)"
         clip-path="url(#clipPath6724)">
        <path
           d="m 0,0 h 11.849 c 0.427,0 0.777,-0.351 0.777,-0.778 0,-0.428 -0.35,-0.779 -0.777,-0.779 H 0 c -0.428,0 -0.778,0.351 -0.778,0.779 C -0.778,-0.351 -0.428,0 0,0 Z"
           style="fill:none;stroke:#231f20;stroke-width:1.253;stroke-linecap:butt;stroke-linejoin:miter;stroke-miterlimit:22.926;stroke-dasharray:none;stroke-opacity:1"
           id="path200" />
      </g>
      <g
         id="g202"
         transform="matrix(0.35277777,0,0,-0.35277777,71.326483,259.64592)"
         clip-path="url(#clipPath6720)">
        <path
           d="m 0,0 h 11.849 c 0.427,0 0.777,-0.351 0.777,-0.778 0,-0.428 -0.35,-0.779 -0.777,-0.779 H 0 c -0.428,0 -0.778,0.351 -0.778,0.779 C -0.778,-0.351 -0.428,0 0,0"
           style="fill:#ffffff;fill-opacity:1;fill-rule:nonzero;stroke:none"
           id="path204" />
      </g>
      <g
         id="g206"
         transform="matrix(0.35277777,0,0,-0.35277777,60.319393,283.09601)"
         clip-path="url(#clipPath6716)">
        <path
           d="m 0,0 c -0.102,1.611 -0.774,2.237 -2.007,2.409 -1.054,0.146 -2.219,-0.617 -2.626,-2.01 0.959,0.48 1.638,0.345 1.941,-0.052 0.35,-0.459 0.382,-0.94 0.231,-1.516 -0.94,-3.578 -0.122,-5.117 1.279,-5.896 1.429,-0.795 3.12,-0.441 5.168,1.871 2.879,3.248 3.907,8.073 3.801,12.312 -0.185,7.393 -3.681,21.401 -9.95,25.281 -2.442,1.513 -6.375,1.682 -8.535,-0.376 -1.513,-1.439 -1.983,-3.755 -1.563,-5.597 0.609,-2.664 1.759,-3.748 3.697,-5.737 0.984,-1.008 3.221,-2.907 3.931,-3.977 0.888,-1.337 1.518,-3.029 -0.192,-3.832 -1.164,-0.547 -2.449,0.673 -3.313,1.2 -0.123,-1.412 0.937,-3.308 2.405,-3.846 2.152,-0.79 4.76,0.455 5.47,3.091 0.325,1.208 0.03,3.121 -0.837,4.76 -0.377,0.713 -1.016,2.028 -0.944,3.103 0.041,0.621 0.32,1.16 1.022,1.456 0.806,0.337 1.618,-0.059 2.342,-0.745 1.141,-1.081 2.653,-3.203 3.603,-5.371 1.38,-3.15 2.242,-5.84 2.199,-9.458 C 7.104,5.537 6.722,3.175 5.879,1.508 5.233,0.232 3.755,-1.638 2.346,-2.077 1.487,-2.346 0.108,-1.711 0,0 Z"
           style="fill:none;stroke:#231f20;stroke-width:1.79;stroke-linecap:butt;stroke-linejoin:miter;stroke-miterlimit:22.926;stroke-dasharray:none;stroke-opacity:1"
           id="path208" />
      </g>
      <g
         id="g210"
         transform="matrix(0.35277777,0,0,-0.35277777,60.319393,283.09601)"
         clip-path="url(#clipPath6712)">
        <path
           d="m 0,0 c -0.102,1.611 -0.774,2.237 -2.007,2.409 -1.054,0.146 -2.219,-0.617 -2.626,-2.01 0.959,0.48 1.638,0.345 1.941,-0.052 0.35,-0.459 0.382,-0.94 0.231,-1.516 -0.94,-3.578 -0.122,-5.117 1.279,-5.896 1.429,-0.795 3.12,-0.441 5.169,1.871 2.878,3.248 3.906,8.073 3.8,12.312 -0.185,7.393 -3.681,21.401 -9.95,25.281 -2.442,1.513 -6.375,1.682 -8.535,-0.376 -1.513,-1.439 -1.983,-3.756 -1.563,-5.597 0.609,-2.664 1.759,-3.748 3.697,-5.737 0.984,-1.008 3.221,-2.907 3.932,-3.977 0.887,-1.337 1.517,-3.029 -0.193,-3.832 -1.164,-0.547 -2.449,0.673 -3.313,1.2 -0.123,-1.412 0.937,-3.308 2.405,-3.846 2.152,-0.79 4.76,0.455 5.47,3.091 0.325,1.207 0.03,3.121 -0.837,4.76 -0.377,0.713 -1.016,2.028 -0.944,3.103 0.041,0.62 0.32,1.16 1.023,1.455 0.805,0.338 1.617,-0.058 2.341,-0.744 1.141,-1.081 2.653,-3.204 3.603,-5.371 1.38,-3.15 2.242,-5.84 2.199,-9.458 C 7.104,5.537 6.722,3.175 5.879,1.508 5.233,0.232 3.755,-1.638 2.346,-2.077 1.487,-2.346 0.108,-1.711 0,0"
           style="fill:#ffffff;fill-opacity:1;fill-rule:nonzero;stroke:none"
           id="path212" />
      </g>
      <g
         id="g214"
         transform="matrix(0.35277777,0,0,-0.35277777,67.946166,283.09601)"
         clip-path="url(#clipPath6708)">
        <path
           d="M 0,0 C 0.102,1.611 0.774,2.237 2.007,2.409 3.062,2.555 4.226,1.792 4.633,0.399 3.674,0.879 2.995,0.744 2.692,0.347 2.342,-0.112 2.31,-0.593 2.462,-1.169 c 0.939,-3.578 0.121,-5.117 -1.28,-5.896 -1.429,-0.795 -3.12,-0.441 -5.168,1.871 -2.879,3.248 -3.907,8.073 -3.801,12.312 0.185,7.393 3.681,21.401 9.95,25.281 2.441,1.513 6.375,1.682 8.535,-0.376 1.513,-1.439 1.983,-3.755 1.563,-5.597 C 11.651,23.762 10.502,22.678 8.563,20.689 7.579,19.681 5.343,17.782 4.633,16.712 3.745,15.375 3.114,13.683 4.825,12.88 5.989,12.333 7.274,13.553 8.138,14.08 8.261,12.668 7.2,10.772 5.733,10.234 c -2.152,-0.79 -4.76,0.455 -5.47,3.091 -0.325,1.208 -0.03,3.121 0.837,4.76 0.383,0.724 1.036,2.071 0.94,3.153 -0.053,0.6 -0.336,1.117 -1.019,1.406 -0.805,0.337 -1.618,-0.059 -2.341,-0.745 -1.141,-1.081 -2.653,-3.203 -3.603,-5.371 -1.38,-3.15 -2.242,-5.84 -2.199,-9.458 0.018,-1.533 0.399,-3.895 1.243,-5.562 0.646,-1.276 2.124,-3.146 3.533,-3.585 C -1.487,-2.346 -0.108,-1.711 0,0 Z"
           style="fill:none;stroke:#231f20;stroke-width:1.79;stroke-linecap:butt;stroke-linejoin:miter;stroke-miterlimit:22.926;stroke-dasharray:none;stroke-opacity:1"
           id="path216" />
      </g>
      <g
         id="g218"
         transform="matrix(0.35277777,0,0,-0.35277777,67.946166,283.09601)"
         clip-path="url(#clipPath6704)">
        <path
           d="M 0,0 C 0.102,1.611 0.774,2.237 2.007,2.409 3.062,2.555 4.226,1.792 4.633,0.399 3.674,0.879 2.995,0.744 2.692,0.347 2.342,-0.112 2.31,-0.593 2.462,-1.169 c 0.939,-3.578 0.121,-5.117 -1.28,-5.896 -1.429,-0.795 -3.12,-0.441 -5.168,1.871 -2.879,3.248 -3.907,8.073 -3.801,12.312 0.185,7.393 3.681,21.401 9.95,25.281 2.441,1.513 6.375,1.682 8.535,-0.376 1.513,-1.439 1.983,-3.756 1.563,-5.597 C 11.651,23.762 10.502,22.678 8.563,20.689 7.579,19.681 5.343,17.782 4.633,16.712 3.745,15.375 3.114,13.683 4.825,12.88 5.989,12.333 7.274,13.553 8.138,14.08 8.261,12.668 7.2,10.772 5.733,10.234 c -2.152,-0.79 -4.76,0.455 -5.47,3.091 -0.325,1.207 -0.03,3.121 0.837,4.76 0.383,0.724 1.036,2.071 0.94,3.153 -0.053,0.6 -0.336,1.117 -1.019,1.405 -0.805,0.338 -1.618,-0.058 -2.341,-0.744 -1.141,-1.081 -2.653,-3.204 -3.603,-5.371 -1.38,-3.15 -2.242,-5.84 -2.199,-9.458 0.018,-1.533 0.4,-3.895 1.243,-5.562 0.646,-1.276 2.124,-3.146 3.533,-3.585 C -1.487,-2.346 -0.108,-1.711 0,0"
           style="fill:#ffffff;fill-opacity:1;fill-rule:nonzero;stroke:none"
           id="path220" />
      </g>
      <g
         id="g222"
         transform="matrix(0.35277777,0,0,-0.35277777,64.132779,267.64819)"
         clip-path="url(#clipPath6700)">
        <path
           d="m 0,0 c -0.812,-1.072 -1.677,-1.775 -3.811,-2.911 -0.963,-0.515 -1.854,-1.292 -2.408,-2.281 -0.6,-1.072 -0.822,-2.374 -0.782,-3.46 0.156,-4.177 1.746,-6.381 3.132,-10.105 0.222,-0.596 0.432,-1.235 0.631,-1.907 1.333,-4.511 2.456,-10.015 2.541,-15.26 0.061,-3.825 -0.502,-8.212 -1.848,-11.826 -0.911,-2.449 -1.957,-3.643 -2.06,-6.39 -0.026,-0.714 0.12,-1.571 0.514,-2.275 0.365,-0.651 0.951,-1.163 1.585,-1.5 1.403,-0.748 1.972,-1.211 2.506,-1.915 0.534,0.704 1.103,1.167 2.507,1.915 0.633,0.337 1.219,0.849 1.584,1.5 0.394,0.704 0.54,1.561 0.514,2.275 -0.103,2.747 -1.149,3.941 -2.06,6.39 -1.341,3.602 -1.907,7.973 -1.849,11.785 0.081,5.257 1.205,10.778 2.542,15.301 0.199,0.672 0.409,1.311 0.631,1.907 1.386,3.724 2.976,5.928 3.132,10.105 0.04,1.086 -0.182,2.388 -0.782,3.46 C 5.665,-4.203 4.775,-3.426 3.811,-2.911 1.677,-1.775 0.812,-1.072 0,0 Z"
           style="fill:none;stroke:#231f20;stroke-width:1.79;stroke-linecap:butt;stroke-linejoin:miter;stroke-miterlimit:22.926;stroke-dasharray:none;stroke-opacity:1"
           id="path224" />
      </g>
      <g
         id="g226"
         transform="matrix(0.35277777,0,0,-0.35277777,64.132779,267.64819)"
         clip-path="url(#clipPath6696)">
        <path
           d="m 0,0 c -0.812,-1.072 -1.677,-1.775 -3.811,-2.911 -0.964,-0.515 -1.854,-1.292 -2.408,-2.281 -0.6,-1.072 -0.822,-2.374 -0.782,-3.46 0.156,-4.177 1.746,-6.381 3.132,-10.105 0.222,-0.596 0.432,-1.235 0.631,-1.907 1.333,-4.511 2.456,-10.015 2.541,-15.26 0.061,-3.825 -0.502,-8.212 -1.848,-11.826 -0.911,-2.449 -1.957,-3.643 -2.06,-6.39 -0.026,-0.714 0.12,-1.572 0.514,-2.275 0.365,-0.651 0.951,-1.163 1.585,-1.5 1.403,-0.748 1.972,-1.21 2.506,-1.915 0.534,0.705 1.103,1.167 2.507,1.915 0.633,0.337 1.219,0.849 1.584,1.5 0.394,0.703 0.54,1.561 0.514,2.275 -0.103,2.747 -1.149,3.941 -2.06,6.39 -1.341,3.602 -1.907,7.973 -1.848,11.785 0.08,5.258 1.204,10.778 2.541,15.301 0.199,0.672 0.409,1.311 0.631,1.907 1.386,3.724 2.976,5.928 3.132,10.105 0.04,1.086 -0.182,2.388 -0.782,3.46 C 5.665,-4.203 4.775,-3.426 3.811,-2.911 1.677,-1.775 0.812,-1.072 0,0"
           style="fill:#ffffff;fill-opacity:1;fill-rule:nonzero;stroke:none"
           id="path228" />
      </g>
      <g
         id="g230"
         transform="matrix(0.35277777,0,0,-0.35277777,66.446155,284.19051)"
         clip-path="url(#clipPath6692)">
        <path
           d="M 0,0 C -0.165,0.186 -0.329,0.382 -0.492,0.59 -2.23,2.791 -3.05,5.862 -3.232,8.661 m -20.656,17.172 c -0.072,0.27 -0.128,0.552 -0.167,0.85 -0.166,1.171 0.201,2.512 1.268,3.327 0.895,0.705 2.111,0.849 3.264,0.594 m -3.399,-5.439 c -0.096,0.33 -0.166,0.677 -0.204,1.043 -0.123,1.059 0.226,2.239 1.218,2.948 0.951,0.706 2.249,0.727 3.406,0.3 m -3.501,-4.8 c -0.099,0.344 -0.167,0.703 -0.194,1.077 -0.081,0.948 0.251,1.965 1.169,2.572 0.942,0.646 2.198,0.559 3.274,0.03 m -3.37,-4.054 c -0.081,0.32 -0.133,0.647 -0.144,0.979 -0.039,0.835 0.276,1.69 1.12,2.191 0.859,0.532 1.936,0.393 2.867,-0.132 m -2.988,-3.29 c -0.048,0.252 -0.074,0.506 -0.07,0.756 0.004,0.724 0.301,1.416 1.07,1.814 0.7,0.373 1.495,0.251 2.221,-0.158 m 13.86,-15.54 c 0.126,3.465 0.999,7.231 2.432,11.003 1.315,3.54 3.292,6.837 5.429,8.348 1.584,1.099 3.957,1.383 5.439,0.185 1.098,-0.865 1.474,-2.283 1.29,-3.502 -0.008,-0.058 -0.016,-0.114 -0.025,-0.169 m -32.669,-5.953 c -0.417,0.637 -0.867,1.267 -1.246,1.795 -1.229,1.409 -2.147,2.598 -2.446,4.539 -0.211,1.288 0.172,2.795 1.317,3.715 1.544,1.277 4.059,1.003 5.72,-0.133 2.228,-1.548 4.247,-4.954 5.595,-8.618 1.424,-3.789 2.294,-7.604 2.446,-11.045 m -5.917,-11.808 c -0.162,-0.031 -0.322,-0.048 -0.481,-0.047 -0.466,0.051 -0.955,0.266 -1.333,0.696 m 2.417,0.322 c -0.148,-0.05 -0.296,-0.088 -0.443,-0.111 -0.604,-0.049 -1.336,0.251 -1.772,0.994 m 3.696,-2.991 c -1.134,-1.172 -2.177,-1.731 -3.131,-1.802 m 2.578,2.14 c -0.793,-0.65 -1.567,-1.007 -2.302,-1.071 m -5.066,16.661 c 1.187,0.199 2.154,1.033 2.604,2.293 m -1.609,-2.715 c 0.982,0.348 1.835,1.1 2.325,2.175 m 31.638,18.911 c 0.243,-0.153 0.473,-0.327 0.683,-0.525 1.431,-1.325 1.882,-3.461 1.509,-5.178 -0.223,-1.041 -0.544,-1.843 -0.971,-2.556 m -2.486,7.461 c 0.357,-0.176 0.687,-0.396 0.982,-0.665 1.347,-1.21 1.779,-3.167 1.453,-4.759 -0.16,-0.805 -0.389,-1.47 -0.687,-2.062 m -2.858,6.577 c 0.408,-0.171 0.789,-0.4 1.125,-0.693 1.264,-1.095 1.678,-2.873 1.398,-4.34 -0.101,-0.566 -0.245,-1.063 -0.425,-1.516 M 10.011,32 c 0.386,-0.148 0.748,-0.355 1.068,-0.626 1.182,-0.979 1.576,-2.575 1.346,-3.921 -0.052,-0.316 -0.117,-0.613 -0.199,-0.894 m -7.545,2.876 c 1.054,0.628 2.373,0.882 3.489,0.552 M 3.668,27.899 c 0.103,0.089 0.206,0.174 0.31,0.253 1.043,0.787 2.451,1.145 3.593,0.724 M 2.546,26.034 c 0.363,0.418 0.727,0.779 1.082,1.069 0.978,0.779 2.266,1.138 3.303,0.669 M 1.396,23.867 c 0.631,0.902 1.284,1.662 1.884,2.186 0.897,0.767 2.02,1.141 2.961,0.631 L 6.257,26.677 M 6.642,-1.199 C 6.418,-2.336 5.796,-2.985 5.017,-3.376 4.489,-3.624 3.929,-3.712 3.334,-3.61 m 2.496,2.7 C 5.511,-1.693 4.944,-2.141 4.312,-2.379 3.877,-2.508 3.425,-2.522 2.958,-2.424 m 1.76,1.649 C 4.394,-1.1 4.001,-1.292 3.604,-1.381 3.493,-1.395 3.38,-1.4 3.265,-1.398 m 5.621,4.9 C 8.312,4.62 7.293,5.113 6.464,4.893 5.496,4.636 5.017,4.053 4.99,2.751 5.005,2.588 5.013,2.431 5.013,2.28 m 5.076,20.125 C 8.819,20.899 6.724,18.265 8.654,16.592 M 8.617,21.813 C 7.836,20.66 6.612,18.305 7.375,16.934 8.058,15.705 9.3,15.326 10.704,16.403 M 7.101,21.132 C 5.88,18.899 5.96,16.095 7.745,15.377 c 1.786,-0.718 2.922,-0.278 4.645,1.806 m -37.895,0 c 0.505,-0.85 1.708,-2.315 2.982,-2.162 1.369,0.164 2.029,1.026 2.165,2.185"
           style="fill:none;stroke:#231f20;stroke-width:0.448;stroke-linecap:round;stroke-linejoin:round;stroke-miterlimit:22.926;stroke-dasharray:none;stroke-opacity:1"
           id="path232" />
      </g>
      <g
         id="g234"
         transform="matrix(0.35277777,0,0,-0.35277777,64.446822,284.61186)">
        <path
           d="M 0,0 -0.392,12.023"
           style="fill:none;stroke:#231f20;stroke-width:0.445;stroke-linecap:round;stroke-linejoin:round;stroke-miterlimit:22.926;stroke-dasharray:none;stroke-opacity:1"
           id="path236" />
      </g>
      <g
         id="g238"
         transform="matrix(0.35277777,0,0,-0.35277777,64.149148,286.93283)">
        <path
           d="M 0,0 -0.093,44.091"
           style="fill:none;stroke:#231f20;stroke-width:0.448;stroke-linecap:round;stroke-linejoin:round;stroke-miterlimit:22.926;stroke-dasharray:none;stroke-opacity:1"
           id="path240" />
      </g>
      <g
         id="g242"
         transform="matrix(0.35277777,0,0,-0.35277777,64.648188,269.77657)"
         clip-path="url(#clipPath6688)">
        <path
           d="M 0,0 C -0.379,0.184 -0.605,0.313 -0.889,0.523"
           style="fill:none;stroke:#231f20;stroke-width:0.448;stroke-linecap:round;stroke-linejoin:round;stroke-miterlimit:22.926;stroke-dasharray:none;stroke-opacity:1"
           id="path244" />
      </g>
      <g
         id="g246"
         transform="matrix(0.35277777,0,0,-0.35277777,64.803727,269.55679)"
         clip-path="url(#clipPath6684)">
        <path
           d="M 0,0 C -0.62,0.339 -0.98,0.59 -1.344,0.924 M 0.441,0.623 c -0.86,0.493 -1.355,0.866 -1.798,1.323 m 2.239,-0.7 C -0.219,1.895 -0.848,2.389 -1.371,2.97 M 1.323,1.869 c -1.341,0.804 -2.104,1.419 -2.708,2.123 m 4.092,-9.567 c 0.173,0.757 0.288,1.551 0.32,2.409 0.01,0.276 -0.004,0.568 -0.044,0.862 m 0.195,-4.26 c 0.315,1.089 0.495,2.173 0.539,3.373 0.018,0.482 -0.028,1.002 -0.143,1.502 m 0.128,-5.528 c 0.417,1.303 0.653,2.575 0.706,4 0.022,0.589 -0.041,1.219 -0.194,1.819 m -5.876,-29.248 c 0.053,5.539 1.166,12.562 2.405,17.404 m -2.645,-12.809 c 0.276,5.016 1.119,10.575 2.051,14.82 0.199,0.84 0.449,1.758 0.74,2.733 m -2.791,-11.056 c 0.328,3.386 0.813,6.77 1.344,9.717 m -1.344,-3.838 c 0.252,2.253 0.549,4.444 0.864,6.467 m -0.616,-43.99 c 0.561,0.308 1.285,0.638 1.755,1.081 m -1.48,-1.865 c 0.706,0.476 1.635,0.789 2.178,1.465 0.07,0.086 0.132,0.178 0.186,0.274 m -1.94,-2.372 c 0.789,0.516 1.729,0.852 2.322,1.618 0.081,0.104 0.155,0.215 0.219,0.329"
           style="fill:none;stroke:#231f20;stroke-width:0.448;stroke-linecap:round;stroke-linejoin:round;stroke-miterlimit:22.926;stroke-dasharray:none;stroke-opacity:1"
           id="path248" />
      </g>
      <g
         id="g250"
         transform="matrix(0.35277777,0,0,-0.35277777,62.346489,279.2785)"
         clip-path="url(#clipPath6680)">
        <path
           d="m 0,0 h 10.127 c 0.428,0 0.778,-0.35 0.778,-0.778 0,-0.428 -0.35,-0.778 -0.778,-0.778 H 0 c -0.428,0 -0.778,0.35 -0.778,0.778 C -0.778,-0.35 -0.428,0 0,0 Z"
           style="fill:none;stroke:#231f20;stroke-width:1.253;stroke-linecap:butt;stroke-linejoin:miter;stroke-miterlimit:22.926;stroke-dasharray:none;stroke-opacity:1"
           id="path252" />
      </g>
      <g
         id="g254"
         transform="matrix(0.35277777,0,0,-0.35277777,62.346489,279.2785)"
         clip-path="url(#clipPath6676)">
        <path
           d="m 0,0 h 10.127 c 0.428,0 0.778,-0.35 0.778,-0.778 0,-0.428 -0.35,-0.778 -0.778,-0.778 H 0 c -0.428,0 -0.778,0.35 -0.778,0.778 C -0.778,-0.35 -0.428,0 0,0"
           style="fill:#ffffff;fill-opacity:1;fill-rule:nonzero;stroke:none"
           id="path256" />
      </g>
      <g
         id="g258"
         transform="matrix(0.35277777,0,0,-0.35277777,62.346489,280.86223)"
         clip-path="url(#clipPath6672)">
        <path
           d="m 0,0 h 10.127 c 0.428,0 0.778,-0.35 0.778,-0.777 0,-0.428 -0.35,-0.779 -0.778,-0.779 H 0 c -0.428,0 -0.778,0.351 -0.778,0.779 C -0.778,-0.35 -0.428,0 0,0 Z"
           style="fill:none;stroke:#231f20;stroke-width:1.253;stroke-linecap:butt;stroke-linejoin:miter;stroke-miterlimit:22.926;stroke-dasharray:none;stroke-opacity:1"
           id="path260" />
      </g>
      <g
         id="g262"
         transform="matrix(0.35277777,0,0,-0.35277777,62.346489,280.86223)"
         clip-path="url(#clipPath6668)">
        <path
           d="m 0,0 h 10.127 c 0.428,0 0.778,-0.35 0.778,-0.777 0,-0.428 -0.35,-0.779 -0.778,-0.779 H 0 c -0.428,0 -0.778,0.351 -0.778,0.779 C -0.778,-0.35 -0.428,0 0,0"
           style="fill:#ffffff;fill-opacity:1;fill-rule:nonzero;stroke:none"
           id="path264" />
      </g>
      <g
         id="g266"
         transform="matrix(0.35277777,0,0,-0.35277777,62.042818,280.07017)"
         clip-path="url(#clipPath6664)">
        <path
           d="m 0,0 h 11.848 c 0.428,0 0.778,-0.351 0.778,-0.778 0,-0.428 -0.35,-0.779 -0.778,-0.779 H 0 c -0.428,0 -0.778,0.351 -0.778,0.779 C -0.778,-0.351 -0.428,0 0,0 Z"
           style="fill:none;stroke:#231f20;stroke-width:1.253;stroke-linecap:butt;stroke-linejoin:miter;stroke-miterlimit:22.926;stroke-dasharray:none;stroke-opacity:1"
           id="path268" />
      </g>
      <g
         id="g270"
         transform="matrix(0.35277777,0,0,-0.35277777,62.042818,280.07017)"
         clip-path="url(#clipPath6660)">
        <path
           d="m 0,0 h 11.848 c 0.428,0 0.778,-0.351 0.778,-0.778 0,-0.428 -0.35,-0.779 -0.778,-0.779 H 0 c -0.428,0 -0.778,0.351 -0.778,0.779 C -0.778,-0.351 -0.428,0 0,0"
           style="fill:#ffffff;fill-opacity:1;fill-rule:nonzero;stroke:none"
           id="path272" />
      </g>
    </g>
  </g>
</svg>
