<?xml version="1.0" encoding="UTF-8" ?>
<!DOCTYPE svg PUBLIC "-//W3C//DTD SVG 1.1//EN" "http://www.w3.org/Graphics/SVG/1.1/DTD/svg11.dtd">
<svg width="417pt" height="492pt" viewBox="0 0 417 492" version="1.1" xmlns="http://www.w3.org/2000/svg">
<g id="#000000ff">
<path fill="#000000" opacity="1.00" d=" M 0.00 0.00 L 417.00 0.00 L 417.00 210.95 C 415.82 240.94 411.48 270.92 402.35 299.57 C 391.01 335.80 372.22 369.71 347.29 398.36 C 322.57 426.88 292.11 450.22 258.74 467.76 C 242.49 476.23 225.56 483.57 207.90 488.59 C 160.71 472.28 116.07 446.81 81.03 410.91 C 34.02 363.76 6.07 299.26 0.00 233.24 L 0.00 0.00 M 7.00 7.50 C 7.01 73.32 6.99 139.15 7.01 204.98 C 6.09 234.23 10.96 263.47 19.35 291.44 C 31.46 331.34 52.32 368.69 80.72 399.30 C 115.27 436.73 160.23 463.69 208.17 480.24 C 214.79 478.62 221.15 476.03 227.50 473.60 C 281.62 451.64 330.09 414.39 362.45 365.48 C 389.07 325.58 403.83 278.49 407.91 230.87 C 409.75 212.64 409.17 194.32 409.25 176.04 C 409.26 119.94 409.24 63.85 409.26 7.75 C 404.86 7.83 400.47 7.67 396.08 7.50 C 266.38 7.49 136.69 7.50 7.00 7.50 Z" />
<path fill="#000000" opacity="1.00" d=" M 12.50 12.25 C 75.35 12.25 138.19 12.25 201.04 12.25 C 268.85 12.76 336.68 12.41 404.50 12.49 C 404.42 30.99 404.71 49.49 404.24 67.98 C 404.26 110.98 404.24 153.97 404.25 196.97 C 405.15 247.96 394.39 299.75 369.52 344.55 C 348.60 382.55 317.80 414.77 281.68 438.65 C 258.97 453.58 234.40 466.01 208.27 473.71 C 159.68 456.84 114.10 429.28 79.98 390.41 C 53.75 360.76 34.64 325.06 23.59 287.09 C 15.92 260.50 11.54 232.75 12.51 205.03 C 12.49 140.77 12.51 76.51 12.50 12.25 M 208.49 16.03 C 208.43 36.18 208.58 56.34 208.42 76.49 C 209.73 72.85 212.21 69.86 214.20 66.60 C 216.27 61.23 217.23 54.87 222.10 51.14 C 226.35 46.98 234.62 49.37 236.30 54.96 C 237.14 59.69 235.00 64.25 233.16 68.49 C 235.04 72.02 236.73 75.96 235.87 80.05 C 235.02 84.32 235.40 88.66 235.47 92.97 C 235.58 96.09 233.59 98.67 232.20 101.28 C 233.82 102.87 235.61 104.39 237.94 104.70 C 243.00 105.62 248.16 108.74 249.56 113.98 C 252.84 127.20 253.31 140.92 252.91 154.49 C 256.36 157.50 258.02 161.81 260.45 165.57 C 262.29 168.39 265.80 169.06 268.89 169.53 C 276.84 170.69 284.59 173.45 291.49 177.55 C 296.74 182.35 304.36 182.73 309.89 187.13 C 313.25 189.32 314.76 193.23 315.84 196.93 C 318.85 207.51 320.33 218.46 321.34 229.39 C 321.70 233.86 323.08 238.26 326.00 241.73 C 326.96 234.23 321.39 227.27 323.69 219.75 C 324.48 215.97 327.18 210.12 331.96 211.84 C 335.48 212.65 335.94 217.05 335.83 220.04 C 335.85 223.39 334.30 227.09 336.08 230.18 C 339.01 231.37 342.48 229.77 344.34 227.35 C 346.79 224.36 349.57 221.59 353.12 219.92 C 354.59 221.11 356.99 221.79 357.21 223.98 C 356.96 230.56 352.48 236.65 346.50 239.27 C 343.20 240.34 339.73 240.74 336.30 241.21 C 332.70 247.71 328.97 254.17 326.09 261.03 C 328.58 262.74 331.40 264.18 333.27 266.62 C 334.65 269.43 334.60 272.67 335.56 275.61 C 336.88 278.05 339.29 279.80 340.20 282.48 C 341.36 287.42 340.60 292.59 341.56 297.57 C 342.69 302.83 346.33 307.43 346.17 312.98 C 346.14 315.87 344.45 318.33 343.58 321.00 C 343.36 326.80 348.03 331.85 346.60 337.74 C 345.71 341.77 346.38 345.91 345.78 349.96 C 344.16 354.49 339.85 357.28 336.00 359.81 C 327.57 365.07 318.52 369.21 309.53 373.37 C 304.73 374.14 299.80 373.46 294.96 374.09 C 290.71 374.62 287.10 371.93 283.26 370.63 C 278.58 368.57 273.10 368.34 268.97 365.09 C 265.94 362.81 263.21 360.04 259.73 358.43 C 255.96 356.73 252.75 354.09 249.29 351.87 C 247.45 354.65 245.09 357.33 244.63 360.75 C 243.93 364.86 244.80 369.27 243.14 373.19 C 240.94 375.68 237.38 373.76 234.63 373.54 C 230.12 372.29 225.56 375.12 221.11 373.56 C 216.87 372.37 212.69 371.00 208.50 369.66 C 208.46 403.01 208.50 436.36 208.49 469.71 C 215.78 467.48 222.99 464.94 230.02 461.98 C 263.71 447.86 294.91 427.57 320.96 401.92 C 346.64 376.91 366.96 346.45 380.16 313.12 C 393.14 280.72 399.47 245.87 400.48 211.05 C 400.50 163.01 400.47 114.98 400.50 66.94 C 400.97 50.05 400.67 33.15 400.76 16.26 C 336.67 16.13 272.57 16.52 208.49 16.03 M 184.24 39.21 C 181.79 41.38 178.61 43.09 177.29 46.24 C 173.22 55.08 170.66 64.50 167.84 73.79 C 165.80 84.45 163.85 95.15 160.73 105.56 C 158.01 114.55 160.87 123.82 160.51 132.96 C 160.65 138.61 159.86 144.40 161.62 149.88 C 162.83 153.76 163.04 157.88 161.80 161.79 C 165.64 164.05 169.26 166.66 172.95 169.15 C 173.30 168.61 173.99 167.51 174.34 166.97 C 173.08 164.03 171.70 161.11 170.97 157.98 C 169.75 152.61 167.14 147.64 166.43 142.15 C 164.87 132.51 165.52 122.70 165.98 113.00 C 165.87 107.96 166.18 102.92 167.15 97.97 C 169.05 88.87 170.51 79.62 173.75 70.87 C 176.71 62.22 178.95 52.37 186.41 46.38 C 190.00 43.13 195.58 43.34 199.65 45.48 C 201.45 47.92 202.21 50.98 204.00 53.44 C 204.52 48.05 201.13 43.18 197.45 39.59 C 193.98 36.12 187.91 36.01 184.24 39.21 M 185.44 50.52 C 179.49 59.08 175.53 69.42 175.99 79.97 C 176.19 90.67 174.39 101.29 174.74 111.99 C 175.08 120.39 175.17 128.88 177.12 137.10 C 177.56 139.98 178.70 143.13 181.60 144.34 C 183.93 145.27 188.46 145.94 186.16 149.48 C 182.38 150.42 179.01 146.92 176.69 144.31 C 173.94 137.96 172.01 131.05 172.10 124.07 C 171.17 107.56 173.92 91.17 174.24 74.69 C 170.11 89.41 167.52 104.62 167.98 119.96 C 166.88 130.88 169.40 141.74 172.72 152.08 C 174.07 156.96 177.99 160.95 178.09 166.20 C 178.23 168.39 177.10 170.33 176.42 172.33 C 182.06 169.23 187.41 165.51 191.13 160.14 C 190.91 158.88 190.69 157.61 190.48 156.35 C 188.95 155.45 187.47 154.47 186.10 153.35 C 186.70 147.35 190.86 142.24 190.34 136.08 C 188.65 137.29 186.98 138.52 185.34 139.80 C 182.73 137.51 180.07 135.30 177.52 132.95 C 178.96 131.24 180.51 129.62 182.06 128.01 C 182.03 114.71 180.72 101.37 182.12 88.09 C 182.91 77.01 182.47 65.48 186.95 55.06 C 188.32 52.18 189.73 49.13 192.32 47.12 C 191.09 52.27 187.37 56.50 186.81 61.87 C 184.48 70.02 184.46 78.51 184.20 86.91 C 186.21 80.02 188.11 73.10 189.41 66.04 C 191.19 61.15 190.88 55.84 192.33 50.86 C 194.44 55.61 194.19 61.16 197.41 65.50 C 203.25 60.86 200.50 52.17 197.65 46.57 C 193.23 45.21 188.13 46.68 185.44 50.52 M 222.25 55.31 C 220.53 58.76 219.47 62.49 218.05 66.07 C 218.64 65.94 219.81 65.69 220.39 65.57 C 220.57 63.52 220.33 61.37 221.36 59.49 C 223.01 65.72 222.13 72.18 221.45 78.48 C 224.63 77.87 225.29 74.29 226.88 71.97 C 229.32 66.88 233.18 61.96 232.88 56.03 C 231.30 51.90 224.41 51.24 222.25 55.31 M 212.32 80.44 C 218.65 80.06 224.89 81.56 231.02 82.96 C 232.47 79.05 232.67 74.83 230.90 70.98 C 228.85 74.17 227.08 77.54 225.07 80.76 C 223.10 80.45 221.13 80.16 219.17 79.87 C 219.55 76.19 219.88 72.51 220.09 68.82 C 215.16 70.57 212.87 75.58 212.32 80.44 M 211.28 90.16 C 211.99 87.56 212.76 84.96 212.96 82.26 C 211.21 84.51 211.59 87.50 211.28 90.16 M 145.68 83.43 C 146.49 85.59 147.32 87.75 148.21 89.89 C 151.74 90.28 151.86 94.20 153.35 96.62 C 154.83 98.88 157.06 100.50 159.01 102.34 C 159.33 100.90 159.65 99.47 159.97 98.04 C 157.05 95.28 153.95 92.67 151.46 89.49 C 155.18 90.23 157.67 93.30 160.59 95.44 C 160.79 94.56 161.20 92.80 161.40 91.92 C 157.18 87.44 151.61 84.79 145.68 83.43 M 212.87 95.88 C 212.85 98.61 213.94 101.87 216.97 102.48 C 223.77 99.25 224.34 91.06 226.51 84.77 C 222.68 83.95 218.78 83.39 214.85 83.44 C 213.61 87.47 213.07 91.67 212.87 95.88 M 227.36 90.79 C 228.92 90.13 229.68 87.05 229.03 85.42 C 227.28 85.96 227.11 89.18 227.36 90.79 M 206.04 93.34 C 207.13 93.67 208.22 94.00 209.32 94.32 C 209.19 91.89 208.94 89.47 208.72 87.04 C 207.81 89.13 206.90 91.22 206.04 93.34 M 227.07 97.34 C 228.13 97.05 229.50 97.27 230.30 96.36 C 230.83 93.89 230.77 91.34 230.97 88.84 C 229.77 91.72 228.37 94.50 227.07 97.34 M 120.81 91.70 C 118.68 96.85 117.59 102.31 117.02 107.84 C 117.76 109.54 118.12 111.38 117.18 113.09 C 117.61 115.43 118.25 117.71 118.97 119.97 C 117.72 120.21 116.46 120.44 115.21 120.66 C 115.97 126.45 118.65 131.76 122.28 136.27 C 119.58 136.12 116.91 135.75 114.26 135.22 C 116.60 141.42 117.88 149.27 124.70 152.20 C 127.99 150.28 131.26 148.27 134.83 146.86 C 139.09 145.27 143.73 145.31 148.20 145.76 C 147.84 140.82 147.63 135.87 147.77 130.92 C 149.13 129.36 150.26 127.60 150.78 125.57 C 147.49 126.96 146.93 130.76 144.47 132.99 C 144.62 128.16 148.10 124.65 152.28 122.77 C 150.84 117.84 147.33 113.42 147.80 108.04 C 148.40 103.08 149.56 98.13 149.14 93.10 C 146.90 95.36 145.00 97.92 143.08 100.44 C 146.26 106.70 146.51 115.26 141.72 120.78 C 141.35 119.15 141.03 117.51 140.75 115.86 C 140.45 120.54 138.08 125.38 133.10 126.38 C 133.37 122.99 133.53 119.59 133.61 116.19 C 131.89 116.50 130.17 116.80 128.45 117.09 C 128.87 115.49 129.28 113.89 129.73 112.29 C 128.15 114.28 126.50 116.22 124.86 118.17 C 123.88 114.90 124.15 111.43 123.70 108.09 C 125.04 102.50 123.84 96.54 120.81 91.70 M 185.92 93.34 C 184.87 98.17 184.92 103.11 185.00 108.03 C 188.17 110.70 191.34 113.37 194.52 116.03 C 194.37 108.71 194.31 101.25 196.61 94.20 C 193.16 93.02 189.50 92.68 185.92 93.34 M 205.00 95.16 C 202.87 101.56 203.73 108.40 203.32 115.02 C 204.48 117.00 206.64 118.30 208.16 120.04 C 206.45 121.79 204.67 123.47 202.93 125.19 C 209.44 128.14 216.12 130.68 222.78 133.26 C 223.26 132.04 223.75 130.83 224.24 129.61 C 223.71 127.89 223.03 125.95 224.21 124.33 C 226.15 120.98 227.28 116.42 231.38 115.10 C 229.32 119.19 227.15 123.26 225.66 127.61 C 228.58 127.78 231.55 127.68 234.42 128.29 C 237.28 129.02 239.21 131.36 241.20 133.35 C 244.34 128.26 245.03 121.62 242.57 116.12 C 240.86 113.00 237.97 110.78 235.65 108.14 C 233.60 109.98 231.78 112.13 229.40 113.54 C 227.92 114.23 225.66 114.83 224.70 113.03 C 223.63 109.12 227.13 106.08 228.80 102.92 C 227.75 101.59 226.43 100.56 224.82 100.03 C 221.63 105.23 220.47 111.78 215.88 116.03 C 212.93 118.68 208.42 115.48 208.52 111.99 C 208.31 106.62 208.71 101.27 208.80 95.90 C 207.53 95.65 206.27 95.40 205.00 95.16 M 199.21 96.26 C 196.56 102.36 196.92 109.25 196.12 115.75 C 197.82 114.59 199.47 113.23 201.54 112.81 C 201.19 106.98 201.57 101.15 201.69 95.33 C 201.07 95.56 199.83 96.03 199.21 96.26 M 210.73 97.74 C 210.79 102.35 210.22 106.97 210.57 111.59 C 210.61 113.27 212.15 114.18 213.19 115.26 C 216.92 111.88 218.80 107.13 221.37 102.92 C 219.33 104.09 217.05 104.61 214.71 104.68 C 212.65 102.84 211.49 100.34 210.73 97.74 M 127.45 100.95 C 127.20 105.14 125.59 109.24 126.58 113.45 C 128.12 111.24 129.58 108.97 130.98 106.66 C 131.75 108.71 132.29 110.84 132.46 113.03 C 132.86 112.39 133.65 111.12 134.05 110.49 C 135.82 114.03 135.88 118.03 136.44 121.86 C 138.90 118.15 139.19 113.70 138.91 109.39 C 140.79 110.88 142.14 112.87 143.04 115.08 C 143.99 110.74 144.55 105.30 141.04 101.94 C 137.13 98.51 131.98 101.50 127.45 100.95 M 226.68 112.25 C 229.74 111.36 231.45 108.39 233.71 106.35 C 232.49 105.68 231.28 105.02 230.06 104.37 C 228.72 106.74 225.18 109.34 226.68 112.25 M 99.68 123.02 C 102.20 121.64 104.62 120.00 107.49 119.43 C 105.65 121.57 103.57 123.49 101.63 125.54 C 95.93 131.83 92.85 140.19 92.30 148.61 C 94.30 146.01 96.27 143.31 99.17 141.64 C 94.37 150.87 92.23 161.42 92.68 171.80 C 93.89 169.99 95.16 168.21 96.53 166.52 C 95.22 173.95 94.04 182.16 97.56 189.16 C 98.08 186.80 96.69 183.20 99.71 182.24 C 100.11 186.72 100.55 191.25 102.11 195.51 C 102.50 191.87 103.76 188.40 106.05 185.53 C 104.85 178.29 102.31 171.31 101.52 163.98 C 100.77 151.80 107.28 140.93 111.55 129.95 C 113.26 131.06 115.00 132.14 116.74 133.21 C 113.18 128.43 112.51 122.44 112.79 116.65 C 113.59 117.02 115.18 117.77 115.97 118.14 C 115.31 114.79 114.91 111.40 114.57 108.00 C 109.37 112.75 103.58 117.07 99.68 123.02 M 239.36 107.46 C 242.85 111.69 246.02 116.49 246.71 122.06 C 247.29 126.05 246.31 130.04 246.51 134.04 C 247.48 143.72 246.42 153.46 247.25 163.15 C 247.86 167.74 248.65 172.37 248.05 177.01 C 244.37 163.85 244.53 149.99 242.54 136.53 C 242.05 136.77 241.08 137.26 240.60 137.51 C 238.27 142.81 235.55 148.00 231.63 152.32 C 232.18 155.46 231.78 158.66 230.72 161.65 C 232.86 163.70 235.06 165.71 236.76 168.16 C 241.09 175.21 246.21 182.03 248.44 190.13 C 249.61 197.72 249.52 205.43 249.15 213.08 C 248.63 214.45 247.43 215.96 248.70 217.31 C 251.06 222.24 256.91 224.97 262.16 223.10 C 268.77 220.68 271.61 213.73 275.26 208.31 C 270.84 212.93 267.49 218.83 261.83 222.09 C 259.79 223.60 256.65 222.46 256.18 219.96 C 254.96 215.83 253.93 211.63 252.90 207.45 C 250.33 191.79 251.96 175.85 249.86 160.14 C 248.45 151.20 250.10 142.16 249.35 133.18 C 248.64 128.97 247.91 124.77 247.35 120.54 C 246.61 115.37 244.36 109.83 239.36 107.46 M 184.69 111.85 C 184.58 113.69 184.49 115.52 184.44 117.36 C 186.07 118.80 187.71 120.24 189.36 121.67 C 190.59 120.60 191.82 119.53 193.05 118.45 C 190.28 116.23 187.49 114.03 184.69 111.85 M 182.41 132.40 C 183.48 133.19 184.54 133.99 185.61 134.80 C 186.71 134.04 187.82 133.29 188.93 132.55 C 190.34 128.44 193.70 125.09 197.99 124.10 C 200.19 123.70 201.66 121.95 203.27 120.55 C 202.19 119.34 201.12 118.12 200.07 116.89 C 194.12 121.99 187.85 126.73 182.41 132.40 M 184.99 121.96 C 185.01 122.60 185.06 123.89 185.09 124.54 C 185.60 124.35 186.62 123.96 187.13 123.77 C 187.06 122.18 186.35 121.57 184.99 121.96 M 191.48 132.06 C 193.37 135.10 196.33 137.48 199.95 137.99 C 202.94 137.01 204.72 134.09 207.31 132.44 C 206.86 133.83 206.38 135.21 205.86 136.57 C 211.89 141.04 217.36 146.27 223.76 150.22 C 225.25 151.17 227.69 151.58 228.81 149.88 C 233.05 145.05 236.58 139.48 238.30 133.24 C 234.93 131.46 231.56 129.22 227.60 129.29 C 226.33 131.72 225.13 134.20 224.35 136.84 C 220.63 134.63 216.72 132.71 212.51 131.66 C 208.03 130.71 204.69 126.76 199.95 126.72 C 196.38 126.82 193.80 129.69 191.48 132.06 M 106.28 147.91 C 105.13 153.19 103.01 158.46 103.91 163.97 C 104.83 170.65 106.02 177.35 108.47 183.67 C 110.87 192.92 115.43 201.37 118.80 210.26 C 123.98 211.59 126.07 205.97 130.03 203.98 C 138.94 197.64 149.60 194.73 160.02 191.92 C 166.70 190.48 173.35 188.24 180.29 188.72 C 180.69 185.99 182.14 183.03 180.48 180.45 C 177.14 173.62 169.96 170.34 164.09 166.10 C 161.73 164.26 159.08 162.86 156.47 161.39 C 154.49 165.62 152.59 170.01 149.55 173.60 C 145.56 176.13 140.51 175.72 135.98 176.00 C 133.33 175.77 129.85 176.32 128.11 173.81 C 127.35 170.42 127.85 166.88 127.83 163.43 C 126.32 163.69 124.75 164.58 123.23 163.95 C 120.85 161.12 120.66 156.97 122.45 153.79 C 120.14 152.43 117.59 151.04 116.52 148.42 C 114.48 143.99 113.12 139.28 111.24 134.78 C 109.37 139.07 107.36 143.33 106.28 147.91 M 192.70 138.32 C 192.26 142.44 190.91 146.37 189.48 150.23 C 189.85 151.18 190.22 152.12 190.59 153.07 C 197.24 150.35 203.35 155.58 209.94 155.66 C 214.65 155.75 219.72 156.29 224.05 153.99 C 217.04 150.30 211.15 144.94 205.02 140.01 C 200.92 142.54 196.38 140.61 192.70 138.32 M 124.13 156.88 C 124.50 158.44 124.89 160.01 125.28 161.57 C 127.53 159.07 129.70 156.22 132.96 155.00 C 139.63 152.92 146.95 152.43 153.70 154.45 C 153.47 152.92 153.22 151.40 152.96 149.88 C 149.70 149.00 146.34 148.44 142.96 148.46 C 135.69 147.93 129.85 153.17 124.13 156.88 M 193.73 153.34 C 193.82 155.09 193.54 156.95 194.30 158.60 C 201.03 160.59 208.10 161.93 215.13 161.97 C 219.71 161.11 227.08 160.80 227.34 154.65 C 219.14 158.67 208.86 159.87 200.59 155.46 C 198.43 154.40 196.08 153.81 193.73 153.34 M 129.97 160.16 C 129.59 162.08 131.24 163.86 130.76 165.79 C 130.38 168.04 129.49 170.68 131.33 172.54 C 135.11 174.99 139.87 173.28 144.02 173.03 C 150.29 170.99 152.81 163.75 153.70 157.81 C 150.02 156.61 146.22 154.58 142.26 155.54 C 137.94 156.23 133.01 156.58 129.97 160.16 M 182.06 172.00 C 182.51 172.24 182.96 172.48 183.42 172.72 C 187.54 169.04 192.13 165.50 194.37 160.28 C 190.77 164.69 186.69 168.67 182.06 172.00 M 225.31 160.85 C 225.65 167.64 227.90 174.15 229.65 180.68 C 230.69 183.10 233.66 180.91 234.99 179.83 C 236.51 175.26 233.53 170.77 230.71 167.36 C 228.80 165.27 228.15 161.95 225.31 160.85 M 252.55 160.17 C 252.49 169.45 253.32 178.71 253.27 187.99 C 253.59 193.30 253.30 198.72 254.74 203.89 C 256.23 209.57 257.25 215.42 259.58 220.85 C 267.29 213.23 276.36 206.28 280.55 195.95 C 281.89 186.07 275.00 175.07 264.84 173.50 C 261.66 172.83 258.41 171.21 256.84 168.22 C 255.40 165.54 254.21 162.73 252.55 160.17 M 188.00 179.63 C 189.98 180.13 191.98 180.54 194.00 180.82 C 196.92 175.09 198.28 168.75 200.74 162.83 C 199.79 162.66 197.90 162.33 196.95 162.17 C 193.04 167.41 189.59 173.23 188.00 179.63 M 215.81 163.92 C 216.23 170.83 212.97 179.62 218.61 185.07 C 220.42 184.26 222.91 183.60 222.82 181.14 C 222.32 175.00 219.84 169.19 219.62 162.99 C 218.35 163.30 217.08 163.61 215.81 163.92 M 200.10 183.74 C 202.69 183.89 207.24 185.76 208.04 182.11 C 209.58 176.22 209.69 170.10 210.35 164.08 C 208.51 164.01 206.68 163.94 204.85 163.85 C 202.71 170.32 200.05 176.80 200.10 183.74 M 212.28 164.00 C 212.28 170.96 212.46 177.96 211.39 184.86 C 211.15 187.41 208.18 188.01 206.09 188.02 C 203.26 188.14 199.49 187.73 198.06 184.90 C 197.77 181.73 198.50 178.60 198.69 175.46 C 197.29 178.35 197.76 182.90 194.21 184.19 C 191.70 185.52 188.68 184.18 186.65 182.56 C 183.93 179.09 187.16 174.91 188.41 171.50 C 186.95 172.63 185.61 173.95 183.93 174.75 C 182.16 175.68 180.52 173.83 178.97 173.32 C 181.82 175.25 184.46 178.35 183.83 182.05 C 183.05 188.81 181.49 195.67 183.55 202.41 C 185.52 200.55 187.15 197.91 190.00 197.39 C 196.17 195.57 202.27 198.74 207.76 201.22 C 212.81 203.24 214.93 209.13 220.13 210.87 C 224.20 212.11 228.43 213.02 232.68 213.36 C 237.41 212.53 242.20 212.59 246.98 212.79 C 246.50 206.03 246.62 199.19 245.39 192.50 C 244.28 186.40 241.53 180.81 237.67 175.99 C 238.07 178.70 237.53 181.73 234.83 183.04 C 232.84 184.03 229.20 185.49 227.96 182.87 C 225.34 176.90 225.22 170.12 222.29 164.25 C 223.45 170.99 226.61 177.62 225.53 184.59 C 223.07 187.32 218.68 188.38 215.35 186.71 C 213.42 184.65 213.44 181.63 213.26 178.99 C 213.13 173.97 212.44 168.97 212.74 163.95 L 212.28 164.00 M 276.13 175.09 C 279.61 179.79 282.07 185.30 283.11 191.07 C 284.12 197.44 280.55 203.20 277.87 208.68 C 275.07 214.02 271.46 218.99 267.07 223.13 C 263.50 226.41 258.32 225.01 253.98 224.86 C 249.93 224.53 247.63 220.89 245.51 217.89 C 245.08 218.04 244.21 218.36 243.77 218.52 C 242.24 221.55 240.37 224.75 237.09 226.14 C 233.22 227.72 229.01 228.25 224.98 229.30 C 228.35 236.46 229.07 244.74 233.79 251.25 C 238.05 250.51 242.32 249.75 246.61 249.11 C 244.87 245.57 242.86 241.96 242.91 237.90 C 242.82 234.29 242.27 230.04 244.77 227.08 C 248.64 230.61 249.71 235.99 252.54 240.26 C 252.62 237.99 252.65 235.71 252.87 233.45 C 257.81 235.52 257.99 241.70 259.79 246.03 C 260.49 245.88 261.90 245.57 262.60 245.41 C 261.87 242.57 261.12 239.62 261.92 236.70 C 265.70 243.98 269.07 251.94 276.07 256.80 C 273.72 252.02 272.35 246.50 268.21 242.85 C 264.08 239.06 259.92 234.19 260.43 228.19 C 261.09 227.87 262.43 227.23 263.09 226.91 C 266.65 228.97 270.08 231.28 273.82 233.02 C 275.12 230.76 274.92 226.56 278.17 226.34 C 281.22 230.56 280.20 236.11 279.78 240.94 C 284.44 248.03 290.42 254.32 297.64 258.84 C 296.37 254.65 291.90 253.64 289.07 250.89 C 287.26 249.18 285.56 247.27 284.42 245.04 C 284.62 242.57 287.22 241.49 288.77 239.90 C 288.22 237.66 287.69 235.33 288.47 233.07 C 290.58 231.87 293.26 232.74 295.60 232.50 C 295.79 231.76 296.17 230.28 296.37 229.54 C 299.52 229.30 302.59 228.55 305.54 227.42 C 306.93 220.25 305.52 213.00 304.61 205.87 C 303.34 199.28 301.30 192.37 295.95 187.90 C 292.21 180.35 284.16 176.31 276.13 175.09 M 298.14 185.74 C 300.67 189.24 303.79 192.55 304.79 196.88 C 307.46 206.58 308.85 216.66 308.75 226.73 C 312.46 227.61 315.80 229.50 318.75 231.89 C 318.14 223.50 316.39 215.26 314.95 207.00 C 313.99 201.76 312.62 196.18 308.73 192.29 C 305.87 189.16 301.97 187.36 298.14 185.74 M 107.61 190.04 C 106.65 192.28 105.38 194.43 104.91 196.85 C 108.12 203.54 112.66 209.52 115.79 216.23 C 118.37 221.82 116.09 228.03 117.57 233.82 C 118.99 239.67 120.93 245.53 124.45 250.49 C 126.17 253.17 127.92 256.42 131.63 256.33 C 125.88 244.86 120.40 232.15 121.92 219.03 C 124.45 213.11 130.54 209.85 135.96 206.92 C 141.72 203.62 147.93 201.21 154.24 199.21 C 162.61 196.91 170.91 194.13 179.58 193.18 C 179.71 192.70 179.96 191.73 180.09 191.25 C 172.50 190.37 165.21 193.02 158.02 195.00 C 149.18 197.55 139.95 199.80 132.39 205.30 C 129.75 207.03 127.98 209.71 125.67 211.81 C 123.07 212.47 120.35 212.48 117.71 213.02 C 114.89 209.48 114.13 204.91 112.14 200.95 C 110.47 197.38 109.09 193.69 107.61 190.04 M 131.66 212.63 C 129.36 215.22 127.76 218.36 125.47 220.96 C 125.88 225.70 125.29 230.60 126.85 235.18 C 129.18 241.67 131.68 248.10 134.55 254.37 C 135.07 256.63 137.74 256.14 139.46 256.74 C 140.94 253.00 141.10 248.28 144.95 246.05 C 143.68 252.01 141.69 257.83 141.06 263.92 C 140.52 269.66 140.50 275.45 139.72 281.17 C 139.18 284.97 137.16 288.33 136.17 292.01 C 134.34 298.58 135.35 305.45 134.86 312.15 C 133.55 318.65 129.80 324.26 127.66 330.47 C 126.18 334.45 123.91 338.08 121.35 341.45 C 119.22 344.30 119.24 348.21 116.95 350.97 C 115.70 352.58 114.40 354.15 113.15 355.78 C 115.69 356.58 118.22 357.57 120.91 357.72 C 123.63 357.45 126.21 356.41 128.62 355.17 C 129.10 353.58 129.57 351.97 130.46 350.57 C 131.84 347.86 135.53 347.68 137.01 345.03 C 140.04 341.09 137.36 335.99 138.55 331.58 C 139.75 327.48 141.22 323.41 141.62 319.12 C 141.85 316.49 142.27 313.83 143.74 311.58 C 147.65 304.91 150.94 297.72 152.09 290.01 C 152.60 287.49 152.90 284.74 154.60 282.69 C 157.51 278.86 162.05 276.84 165.31 273.37 C 169.56 269.36 171.47 263.59 175.27 259.24 C 177.57 257.89 180.08 256.87 181.97 254.91 C 184.52 252.19 188.63 252.25 192.04 252.72 C 199.63 256.49 207.86 251.60 215.82 252.83 C 211.84 246.21 207.19 239.94 201.49 234.71 C 195.62 232.60 187.88 232.45 184.29 226.53 C 180.27 220.92 179.80 213.56 181.12 206.98 C 181.93 203.64 179.78 200.56 179.25 197.33 C 177.47 197.22 175.68 197.00 173.90 197.08 C 158.82 198.89 144.59 204.86 131.66 212.63 M 184.55 205.05 C 186.31 210.04 186.85 215.58 189.66 220.13 C 196.76 227.70 205.34 233.89 211.48 242.36 C 214.27 246.32 217.26 250.22 219.19 254.70 C 221.72 260.23 222.51 266.31 223.75 272.21 C 225.03 278.28 223.28 284.69 225.42 290.61 C 228.59 288.85 232.83 286.93 233.36 282.88 C 233.96 278.57 233.85 274.20 234.05 269.85 C 234.16 265.89 238.21 263.11 237.99 259.12 C 236.39 255.99 232.46 255.24 230.39 252.51 C 226.08 246.79 224.90 239.52 221.84 233.18 C 219.02 227.34 213.90 223.15 209.99 218.09 C 206.48 214.81 209.64 209.94 209.83 205.95 C 204.51 201.85 197.90 198.90 191.05 200.25 C 188.35 200.97 186.37 203.06 184.55 205.05 M 105.14 202.86 C 104.21 216.82 105.90 230.96 110.41 244.21 C 109.41 243.48 108.42 242.75 107.44 242.00 C 103.13 248.68 96.93 253.80 91.64 259.66 C 86.72 265.10 80.51 269.61 77.22 276.34 C 76.18 281.48 76.74 286.79 75.97 291.97 C 75.33 300.15 72.20 307.89 71.50 316.06 C 71.85 323.91 75.55 331.08 76.92 338.75 C 79.05 336.41 81.54 334.12 82.41 330.97 C 83.08 328.22 84.77 325.93 86.23 323.56 C 85.29 320.65 84.23 317.37 85.73 314.44 C 87.17 311.50 88.25 308.36 88.15 305.03 C 85.68 303.55 82.80 301.37 83.35 298.10 C 84.04 294.73 84.66 291.36 85.19 287.97 C 86.97 284.30 89.34 280.95 91.28 277.38 C 92.91 274.06 96.99 273.69 99.83 271.84 C 108.07 267.06 117.41 263.89 124.27 257.02 C 120.48 253.73 116.20 250.71 113.93 246.07 C 117.25 248.11 120.33 250.48 123.55 252.66 C 119.68 247.36 116.44 241.38 115.61 234.78 C 115.26 229.86 115.67 224.85 114.83 219.97 C 112.80 213.69 109.09 208.09 105.14 202.86 M 184.59 222.10 C 186.73 227.64 192.86 230.09 198.18 231.54 C 195.20 228.57 191.94 225.92 188.85 223.08 C 185.14 219.77 184.41 214.59 183.00 210.09 C 183.26 214.11 183.43 218.21 184.59 222.10 M 213.38 215.19 C 215.22 220.08 219.60 223.17 222.95 226.95 C 226.75 225.88 230.69 225.40 234.50 224.36 C 238.38 223.19 240.39 219.26 241.96 215.84 C 232.68 217.39 222.72 215.99 214.76 210.79 C 214.30 212.25 213.83 213.71 213.38 215.19 M 244.40 215.18 C 244.47 218.48 247.42 213.63 244.40 215.18 M 327.05 224.92 C 328.07 230.09 332.23 235.36 329.57 240.67 C 326.34 247.51 321.54 253.45 317.48 259.79 C 318.71 260.29 319.96 260.77 321.21 261.23 C 325.31 254.31 328.99 247.13 333.18 240.26 C 334.48 237.58 337.68 238.15 340.12 237.78 C 347.20 237.54 353.31 231.29 353.91 224.32 C 353.49 224.25 352.63 224.12 352.21 224.05 C 347.91 226.30 345.90 231.73 340.98 233.08 C 338.26 233.82 334.39 234.01 332.87 231.13 C 331.98 227.15 332.36 223.02 332.47 218.97 C 332.81 217.12 331.31 215.93 330.02 214.93 C 327.93 217.84 327.01 221.37 327.05 224.92 M 262.49 229.17 C 262.92 235.00 267.82 238.65 271.20 242.88 C 274.33 246.02 275.25 250.49 277.55 254.16 C 279.61 257.52 281.89 260.92 285.01 263.37 C 288.70 264.11 292.12 262.14 295.19 260.38 C 289.73 255.36 283.29 251.08 279.43 244.59 C 276.88 240.37 278.40 235.27 277.58 230.66 C 276.69 232.65 275.91 234.69 275.05 236.69 C 271.11 233.81 267.20 230.72 262.49 229.17 M 299.10 231.89 C 300.41 234.28 301.67 236.71 302.79 239.21 C 300.64 239.27 298.48 239.03 296.34 239.22 C 294.04 240.55 292.68 242.88 291.10 244.92 C 290.94 243.74 290.81 242.59 290.59 241.43 C 289.34 242.77 287.88 243.86 286.38 244.89 C 288.96 247.74 291.51 250.86 295.02 252.61 C 296.53 252.19 297.93 251.47 299.37 250.86 C 299.87 249.44 300.27 247.99 300.70 246.55 C 301.21 247.47 301.72 248.40 302.23 249.33 C 304.76 249.96 306.81 248.41 308.72 247.01 C 308.57 246.36 308.25 245.04 308.10 244.39 C 307.06 244.37 304.98 244.33 303.94 244.32 C 305.04 241.19 308.39 242.76 310.35 243.84 C 310.09 245.81 310.68 248.45 308.64 249.67 C 306.61 251.68 303.69 250.78 301.22 251.24 C 299.98 252.25 298.90 253.47 297.96 254.76 C 298.22 256.01 298.59 257.23 298.95 258.47 C 304.63 257.95 311.15 257.88 315.52 262.19 C 315.19 260.13 315.14 258.04 315.22 255.96 C 314.61 252.35 318.65 250.78 319.73 247.75 C 321.22 243.75 320.61 239.11 318.61 235.40 C 316.16 232.44 312.65 230.48 309.04 229.32 C 305.40 228.44 302.45 231.12 299.10 231.89 M 245.00 230.79 C 245.01 234.86 244.80 239.04 245.97 242.98 C 247.87 248.00 251.88 251.75 254.84 256.12 C 259.00 262.35 259.18 270.31 263.25 276.58 C 265.18 279.04 267.44 281.22 269.65 283.43 C 272.67 282.40 275.60 280.50 278.91 280.80 C 282.28 280.77 285.73 282.56 288.92 280.77 C 293.98 278.18 299.35 282.31 304.62 280.42 C 305.13 280.84 306.15 281.66 306.66 282.08 C 303.51 283.67 300.02 282.78 296.69 282.66 C 297.74 287.43 297.19 292.33 297.85 297.12 C 298.50 302.32 303.95 304.61 305.94 309.10 C 306.84 310.95 307.08 313.02 307.56 315.00 C 312.56 317.67 318.50 317.72 323.93 316.54 C 330.85 314.87 335.96 308.98 338.94 302.78 C 337.16 298.01 338.08 292.94 338.20 288.02 C 336.99 283.34 333.23 279.70 332.09 274.94 C 331.19 272.25 331.26 268.97 329.22 266.82 C 325.29 264.65 320.50 264.49 316.72 261.99 C 316.41 262.21 316.11 262.42 315.82 262.65 C 320.54 268.10 323.32 274.96 326.46 281.39 C 326.71 284.71 328.88 287.64 328.29 291.02 C 327.16 288.82 326.54 286.44 325.76 284.12 C 322.33 277.11 317.84 270.71 314.04 263.93 C 310.26 259.56 303.87 260.53 298.96 262.11 C 296.16 262.97 293.87 265.24 290.85 265.42 C 287.11 265.80 283.25 266.07 279.87 267.86 C 276.48 269.59 272.77 270.57 269.03 271.19 C 267.12 265.01 262.80 260.08 259.19 254.86 C 257.81 253.18 257.80 250.94 257.49 248.91 C 257.07 244.69 255.75 240.65 254.48 236.63 C 254.31 239.29 254.21 242.04 252.93 244.45 C 249.42 240.46 247.16 235.59 245.00 230.79 M 290.18 234.81 C 291.09 237.07 291.37 239.46 291.21 241.90 C 291.92 241.14 293.36 239.60 294.07 238.83 L 293.26 238.92 C 295.08 237.17 297.35 236.86 299.75 237.50 C 299.11 236.20 298.49 234.92 297.88 233.62 C 295.59 235.30 292.81 234.83 290.18 234.81 M 261.66 247.41 C 261.94 250.36 261.52 253.86 263.92 256.08 C 266.97 259.34 269.68 262.89 272.05 266.68 C 274.69 265.70 277.32 264.68 279.94 263.63 C 276.34 261.07 272.45 258.85 269.30 255.72 C 266.58 253.10 264.84 249.56 261.66 247.41 M 238.75 253.46 C 240.22 255.37 241.80 257.48 241.53 260.05 C 241.11 263.10 239.31 265.72 238.00 268.45 C 239.86 273.48 242.83 278.03 244.43 283.14 C 244.61 286.82 243.50 290.43 243.12 294.07 C 242.56 299.55 238.35 303.59 236.47 308.57 C 234.85 312.94 232.48 316.95 230.53 321.16 C 234.81 317.47 239.50 313.75 245.29 312.96 C 247.74 306.72 248.62 299.50 253.49 294.51 C 255.73 292.38 258.29 290.19 258.67 286.91 C 259.90 283.21 258.61 279.45 257.46 275.93 C 255.62 270.57 255.13 264.86 253.35 259.49 C 252.26 256.70 250.09 254.53 248.42 252.10 C 245.21 252.63 241.97 252.97 238.75 253.46 M 175.56 264.75 C 175.13 267.07 174.78 269.40 174.72 271.77 C 177.73 270.69 180.66 269.17 182.65 266.58 C 186.88 261.44 193.14 258.80 199.28 256.72 C 195.50 256.35 191.74 255.23 187.94 255.56 C 183.93 258.80 180.68 263.09 175.56 264.75 M 208.50 257.42 C 208.47 284.21 208.48 311.00 208.50 337.79 C 214.70 332.60 221.56 328.03 226.99 322.02 C 229.95 314.80 232.52 307.36 236.59 300.63 C 240.17 295.52 239.55 289.04 240.56 283.17 C 239.41 281.31 238.28 279.45 237.17 277.58 C 236.87 280.90 237.38 284.58 235.57 287.56 C 233.40 290.07 230.51 291.91 227.53 293.31 C 225.45 294.38 222.48 293.54 221.86 291.14 C 220.28 285.59 220.98 279.72 220.10 274.06 C 219.14 268.09 217.35 262.28 215.35 256.58 C 213.06 256.85 210.78 257.14 208.50 257.42 M 262.54 279.75 C 263.03 282.41 264.09 285.25 263.13 287.94 C 262.08 291.25 259.46 293.65 257.13 296.08 C 253.02 300.24 251.28 306.03 249.73 311.51 C 257.17 312.30 264.33 315.96 271.92 314.14 C 278.16 306.40 284.46 298.71 290.67 290.95 C 289.66 288.82 288.65 286.69 287.66 284.56 C 284.43 284.32 281.21 283.90 277.97 283.86 C 274.47 283.71 271.50 287.07 267.99 286.00 C 265.53 284.60 264.10 282.00 262.54 279.75 M 290.76 281.84 C 291.11 284.45 292.57 286.69 294.16 288.72 C 293.36 286.27 292.24 283.94 290.76 281.84 M 274.93 316.08 C 276.47 315.94 278.02 315.79 279.57 315.66 C 283.40 309.88 287.91 304.62 292.38 299.34 C 294.48 297.36 293.59 294.21 294.07 291.66 C 287.68 299.79 281.31 307.94 274.93 316.08 M 294.36 301.52 C 290.65 306.18 286.93 310.85 283.48 315.72 C 285.32 316.57 287.18 317.40 289.03 318.25 C 290.86 317.92 292.69 317.57 294.52 317.19 C 295.23 316.54 295.95 315.89 296.67 315.25 C 297.22 312.42 298.16 309.69 299.45 307.11 C 297.76 305.24 296.05 303.38 294.36 301.52 M 322.99 319.23 C 318.47 319.30 313.85 320.29 309.38 319.34 C 305.16 318.30 305.25 313.12 303.26 310.06 C 299.41 314.96 301.89 322.02 306.40 325.53 C 309.63 327.15 313.46 326.31 316.89 327.29 C 314.47 330.05 310.25 328.48 307.09 328.28 C 301.99 327.72 300.04 322.30 298.91 318.04 C 297.85 319.83 295.71 321.65 296.86 323.92 C 297.84 329.19 302.76 332.08 305.47 336.35 C 302.17 335.49 299.55 333.14 297.42 330.61 C 295.16 327.83 295.01 324.11 293.98 320.82 C 291.97 324.57 294.08 328.58 294.56 332.42 C 291.31 330.40 290.72 326.53 290.00 323.12 C 288.32 324.69 286.82 326.45 285.14 328.01 C 285.19 325.56 286.20 323.35 287.52 321.35 C 284.17 320.07 280.62 319.19 277.01 319.62 C 275.20 319.97 273.63 319.00 272.05 318.31 C 269.83 318.70 267.59 318.62 265.37 318.31 C 258.25 323.84 253.05 333.87 256.17 342.86 C 257.94 346.73 260.58 350.18 261.92 354.27 C 264.71 356.72 267.12 359.66 270.41 361.48 C 276.56 364.94 283.67 366.06 290.03 369.03 C 294.40 371.18 299.37 369.65 304.00 369.75 C 308.28 369.90 311.53 366.66 315.33 365.21 C 321.00 363.24 325.66 359.24 331.37 357.38 C 335.24 355.19 340.71 352.99 341.13 347.91 C 341.65 344.55 343.34 341.31 342.64 337.84 C 341.85 332.55 341.11 327.25 340.42 321.95 C 337.29 323.03 334.39 324.70 331.18 325.53 C 335.41 321.37 340.66 317.55 342.62 311.71 C 342.54 308.75 341.52 305.93 340.48 303.19 C 337.38 310.75 331.49 317.94 322.99 319.23 M 231.37 324.29 C 219.46 332.19 209.28 342.32 198.02 351.07 C 193.00 355.28 186.16 355.60 180.03 356.99 C 172.89 357.55 165.54 358.57 158.53 356.56 C 162.53 361.09 167.69 364.43 173.22 366.76 C 176.53 367.97 180.09 367.24 183.52 367.62 C 186.63 368.32 189.24 371.15 192.60 370.65 C 196.33 367.70 196.48 362.19 199.91 358.95 C 202.26 356.83 204.93 355.13 207.50 353.31 C 214.84 348.33 225.00 348.94 231.38 342.38 C 234.27 339.05 236.81 335.41 240.16 332.50 C 237.85 331.89 235.49 331.39 233.39 330.22 C 240.06 328.97 246.26 332.63 251.70 336.01 C 252.31 333.41 252.75 330.64 254.53 328.53 C 257.02 325.25 258.34 321.26 260.96 318.07 C 255.59 317.12 250.24 315.60 244.74 315.79 C 239.71 317.61 235.76 321.38 231.37 324.29 M 84.21 334.02 C 82.42 336.83 79.65 338.84 76.85 340.56 C 77.94 344.39 80.14 350.05 84.79 349.87 C 90.17 345.67 93.11 338.65 92.98 331.89 C 93.10 328.57 89.72 327.11 87.14 326.12 C 86.16 328.75 85.50 331.51 84.21 334.02 M 236.66 339.86 C 234.78 345.13 233.64 350.64 231.98 355.99 C 231.68 357.88 229.61 358.31 228.14 358.95 C 224.12 360.27 219.96 361.11 215.87 362.15 C 212.01 363.23 207.61 361.35 204.09 363.69 C 209.42 367.10 215.77 368.46 221.87 369.82 C 225.87 370.95 229.88 369.34 233.89 369.31 C 235.69 369.98 237.32 371.07 239.23 371.45 C 241.59 368.99 240.21 365.13 240.92 362.08 C 242.76 354.01 247.38 346.99 251.35 339.85 C 248.90 337.35 246.03 335.37 243.22 333.32 C 241.07 335.52 238.42 337.32 236.66 339.86 M 252.97 341.70 C 251.91 343.48 250.86 345.27 249.80 347.06 C 252.80 348.94 255.54 351.17 258.36 353.29 C 256.79 349.32 254.92 345.49 252.97 341.70 M 208.47 356.27 C 208.50 357.56 208.52 358.85 208.55 360.14 C 214.43 360.23 220.25 358.78 225.72 356.73 C 228.81 355.85 228.85 352.25 229.71 349.74 C 222.38 351.00 215.33 353.43 208.47 356.27 M 106.72 367.00 C 106.71 368.77 107.01 371.21 108.91 371.96 C 116.53 372.42 123.64 369.05 129.62 364.62 C 130.50 362.64 129.69 360.42 129.46 358.39 C 126.68 358.87 123.94 359.59 121.15 359.96 C 117.57 360.27 114.14 358.98 110.73 358.12 C 109.04 360.90 107.41 363.79 106.72 367.00 Z" />
<path fill="#000000" opacity="1.00" d=" M 119.70 122.06 C 125.08 120.85 131.77 124.05 132.63 129.87 C 133.19 133.61 134.44 137.20 135.18 140.91 C 134.95 141.44 134.48 142.50 134.25 143.03 C 130.92 137.13 132.83 128.28 126.24 124.50 C 126.13 125.97 126.04 127.45 125.98 128.93 C 127.09 129.83 128.18 130.74 129.25 131.68 C 124.55 132.87 122.58 127.53 123.11 123.78 C 121.96 123.23 120.83 122.65 119.70 122.06 Z" />
<path fill="#000000" opacity="1.00" d=" M 133.01 160.77 C 136.06 162.73 140.40 165.60 138.67 169.86 C 137.46 170.61 135.99 170.65 134.75 169.97 C 134.58 169.15 134.25 167.51 134.08 166.69 C 134.94 167.02 135.80 167.36 136.64 167.74 L 135.64 169.49 C 139.84 169.23 135.76 165.85 135.16 164.03 C 133.84 163.39 133.37 162.07 133.01 160.77 Z" />
<path fill="#000000" opacity="1.00" d=" M 188.62 366.14 C 189.79 364.41 190.79 362.58 191.40 360.58 C 193.68 361.05 194.00 363.91 192.40 365.28 C 191.15 365.63 189.90 365.92 188.62 366.14 Z" />
</g>
<g id="#ffffffff">
<path fill="#ffffff" opacity="1.00" d=" M 7.00 7.50 C 136.69 7.50 266.38 7.49 396.08 7.50 C 400.47 7.67 404.86 7.83 409.26 7.75 C 409.24 63.85 409.26 119.94 409.25 176.04 C 409.17 194.32 409.75 212.64 407.91 230.87 C 403.83 278.49 389.07 325.58 362.45 365.48 C 330.09 414.39 281.62 451.64 227.50 473.60 C 221.15 476.03 214.79 478.62 208.17 480.24 C 160.23 463.69 115.27 436.73 80.72 399.30 C 52.32 368.69 31.46 331.34 19.35 291.44 C 10.96 263.47 6.09 234.23 7.01 204.98 C 6.99 139.15 7.01 73.32 7.00 7.50 M 12.50 12.25 C 12.51 76.51 12.49 140.77 12.51 205.03 C 11.54 232.75 15.92 260.50 23.59 287.09 C 34.64 325.06 53.75 360.76 79.98 390.41 C 114.10 429.28 159.68 456.84 208.27 473.71 C 234.40 466.01 258.97 453.58 281.68 438.65 C 317.80 414.77 348.60 382.55 369.52 344.55 C 394.39 299.75 405.15 247.96 404.25 196.97 C 404.24 153.97 404.26 110.98 404.24 67.98 C 404.71 49.49 404.42 30.99 404.50 12.49 C 336.68 12.41 268.85 12.76 201.04 12.25 C 138.19 12.25 75.35 12.25 12.50 12.25 Z" />
<path fill="#ffffff" opacity="1.00" d=" M 184.24 39.21 C 187.91 36.01 193.98 36.12 197.45 39.59 C 201.13 43.18 204.52 48.05 204.00 53.44 C 202.21 50.98 201.45 47.92 199.65 45.48 C 195.58 43.34 190.00 43.13 186.41 46.38 C 178.95 52.37 176.71 62.22 173.75 70.87 C 170.51 79.62 169.05 88.87 167.15 97.97 C 166.18 102.92 165.87 107.96 165.98 113.00 C 165.52 122.70 164.87 132.51 166.43 142.15 C 167.14 147.64 169.75 152.61 170.97 157.98 C 171.70 161.11 173.08 164.03 174.34 166.97 C 173.99 167.51 173.30 168.61 172.95 169.15 C 169.26 166.66 165.64 164.05 161.80 161.79 C 163.04 157.88 162.83 153.76 161.62 149.88 C 159.86 144.40 160.65 138.61 160.51 132.96 C 160.87 123.82 158.01 114.55 160.73 105.56 C 163.85 95.15 165.80 84.45 167.84 73.79 C 170.66 64.50 173.22 55.08 177.29 46.24 C 178.61 43.09 181.79 41.38 184.24 39.21 Z" />
<path fill="#ffffff" opacity="1.00" d=" M 185.44 50.52 C 188.13 46.68 193.23 45.21 197.65 46.57 C 200.50 52.17 203.25 60.86 197.41 65.50 C 194.19 61.16 194.44 55.61 192.33 50.86 C 190.88 55.84 191.19 61.15 189.41 66.04 C 188.11 73.10 186.21 80.02 184.20 86.91 C 184.46 78.51 184.48 70.02 186.81 61.87 C 187.37 56.50 191.09 52.27 192.32 47.12 C 189.73 49.13 188.32 52.18 186.95 55.06 C 182.47 65.48 182.91 77.01 182.12 88.09 C 180.72 101.37 182.03 114.71 182.06 128.01 C 180.51 129.62 178.96 131.24 177.52 132.95 C 180.07 135.30 182.73 137.51 185.34 139.80 C 186.98 138.52 188.65 137.29 190.34 136.08 C 190.86 142.24 186.70 147.35 186.10 153.35 C 187.47 154.47 188.95 155.45 190.48 156.35 C 190.69 157.61 190.91 158.88 191.13 160.14 C 187.41 165.51 182.06 169.23 176.42 172.33 C 177.10 170.33 178.23 168.39 178.09 166.20 C 177.99 160.95 174.07 156.96 172.72 152.08 C 169.40 141.74 166.88 130.88 167.98 119.96 C 167.52 104.62 170.11 89.41 174.24 74.69 C 173.92 91.17 171.17 107.56 172.10 124.07 C 172.01 131.05 173.94 137.96 176.69 144.31 C 179.01 146.92 182.38 150.42 186.16 149.48 C 188.46 145.94 183.93 145.27 181.60 144.34 C 178.70 143.13 177.56 139.98 177.12 137.10 C 175.17 128.88 175.08 120.39 174.74 111.99 C 174.39 101.29 176.19 90.67 175.99 79.97 C 175.53 69.42 179.49 59.08 185.44 50.52 Z" />
<path fill="#ffffff" opacity="1.00" d=" M 222.25 55.31 C 224.41 51.24 231.30 51.90 232.88 56.03 C 233.18 61.96 229.32 66.88 226.88 71.97 C 225.29 74.29 224.63 77.87 221.45 78.48 C 222.13 72.18 223.01 65.72 221.36 59.49 C 220.33 61.37 220.57 63.52 220.39 65.57 C 219.81 65.69 218.64 65.94 218.05 66.07 C 219.47 62.49 220.53 58.76 222.25 55.31 Z" />
<path fill="#ffffff" opacity="1.00" d=" M 212.32 80.44 C 212.87 75.58 215.16 70.57 220.09 68.82 C 219.88 72.51 219.55 76.19 219.17 79.87 C 221.13 80.16 223.10 80.45 225.07 80.76 C 227.08 77.54 228.85 74.17 230.90 70.98 C 232.67 74.83 232.47 79.05 231.02 82.96 C 224.89 81.56 218.65 80.06 212.32 80.44 Z" />
<path fill="#ffffff" opacity="1.00" d=" M 211.28 90.16 C 211.59 87.50 211.21 84.51 212.96 82.26 C 212.76 84.96 211.99 87.56 211.28 90.16 Z" />
<path fill="#ffffff" opacity="1.00" d=" M 145.68 83.43 C 151.61 84.79 157.18 87.44 161.40 91.92 C 161.20 92.80 160.79 94.56 160.59 95.44 C 157.67 93.30 155.18 90.23 151.46 89.49 C 153.95 92.67 157.05 95.28 159.97 98.04 C 159.65 99.47 159.33 100.90 159.01 102.34 C 157.06 100.50 154.83 98.88 153.35 96.62 C 151.86 94.20 151.74 90.28 148.21 89.89 C 147.32 87.75 146.49 85.59 145.68 83.43 Z" />
<path fill="#ffffff" opacity="1.00" d=" M 212.87 95.88 C 213.07 91.67 213.61 87.47 214.85 83.44 C 218.78 83.39 222.68 83.95 226.51 84.77 C 224.34 91.06 223.77 99.25 216.97 102.48 C 213.94 101.87 212.85 98.61 212.87 95.88 Z" />
<path fill="#ffffff" opacity="1.00" d=" M 227.36 90.79 C 227.11 89.18 227.28 85.96 229.03 85.42 C 229.68 87.05 228.92 90.13 227.36 90.79 Z" />
<path fill="#ffffff" opacity="1.00" d=" M 206.04 93.34 C 206.90 91.22 207.81 89.13 208.72 87.04 C 208.94 89.47 209.19 91.89 209.32 94.32 C 208.22 94.00 207.13 93.67 206.04 93.34 Z" />
<path fill="#ffffff" opacity="1.00" d=" M 227.07 97.34 C 228.37 94.50 229.77 91.72 230.97 88.84 C 230.77 91.34 230.83 93.89 230.30 96.36 C 229.50 97.27 228.13 97.05 227.07 97.34 Z" />
<path fill="#ffffff" opacity="1.00" d=" M 120.81 91.70 C 123.84 96.54 125.04 102.50 123.70 108.09 C 124.15 111.43 123.88 114.90 124.86 118.17 C 126.50 116.22 128.15 114.28 129.73 112.29 C 129.28 113.89 128.87 115.49 128.45 117.09 C 130.17 116.80 131.89 116.50 133.61 116.19 C 133.53 119.59 133.37 122.99 133.10 126.38 C 138.08 125.38 140.45 120.54 140.75 115.86 C 141.03 117.51 141.35 119.15 141.72 120.78 C 146.51 115.26 146.26 106.70 143.08 100.44 C 145.00 97.92 146.90 95.36 149.14 93.10 C 149.56 98.13 148.40 103.08 147.80 108.04 C 147.33 113.42 150.84 117.84 152.28 122.77 C 148.10 124.65 144.62 128.16 144.47 132.99 C 146.93 130.76 147.49 126.96 150.78 125.57 C 150.26 127.60 149.13 129.36 147.77 130.92 C 147.63 135.87 147.84 140.82 148.20 145.76 C 143.73 145.31 139.09 145.27 134.83 146.86 C 131.26 148.27 127.99 150.28 124.70 152.20 C 117.88 149.27 116.60 141.42 114.26 135.22 C 116.91 135.75 119.58 136.12 122.28 136.27 C 118.65 131.76 115.97 126.45 115.21 120.66 C 116.46 120.44 117.72 120.21 118.97 119.97 C 118.25 117.71 117.61 115.43 117.18 113.09 C 118.12 111.38 117.76 109.54 117.02 107.84 C 117.59 102.31 118.68 96.85 120.81 91.70 M 119.70 122.06 C 120.83 122.65 121.96 123.23 123.11 123.78 C 122.58 127.53 124.55 132.87 129.25 131.68 C 128.18 130.74 127.09 129.83 125.98 128.93 C 126.04 127.45 126.13 125.97 126.24 124.50 C 132.83 128.28 130.92 137.13 134.25 143.03 C 134.48 142.50 134.95 141.44 135.18 140.91 C 134.44 137.20 133.19 133.61 132.63 129.87 C 131.77 124.05 125.08 120.85 119.70 122.06 Z" />
<path fill="#ffffff" opacity="1.00" d=" M 185.92 93.34 C 189.50 92.68 193.16 93.02 196.61 94.20 C 194.31 101.25 194.37 108.71 194.52 116.03 C 191.34 113.37 188.17 110.70 185.00 108.03 C 184.92 103.11 184.87 98.17 185.92 93.34 Z" />
<path fill="#ffffff" opacity="1.00" d=" M 205.00 95.16 C 206.27 95.40 207.53 95.65 208.80 95.90 C 208.71 101.27 208.31 106.62 208.52 111.99 C 208.42 115.48 212.93 118.68 215.88 116.03 C 220.47 111.78 221.63 105.23 224.82 100.03 C 226.43 100.56 227.75 101.59 228.80 102.92 C 227.13 106.08 223.63 109.12 224.70 113.03 C 225.66 114.83 227.92 114.23 229.40 113.54 C 231.78 112.13 233.60 109.98 235.65 108.14 C 237.97 110.78 240.86 113.00 242.57 116.12 C 245.03 121.62 244.34 128.26 241.20 133.35 C 239.21 131.36 237.28 129.02 234.42 128.29 C 231.55 127.68 228.58 127.78 225.66 127.61 C 227.15 123.26 229.32 119.19 231.38 115.10 C 227.28 116.42 226.15 120.98 224.21 124.33 C 223.03 125.95 223.71 127.89 224.24 129.61 C 223.75 130.83 223.26 132.04 222.78 133.26 C 216.12 130.68 209.44 128.14 202.93 125.19 C 204.67 123.47 206.45 121.79 208.16 120.04 C 206.64 118.30 204.48 117.00 203.32 115.02 C 203.73 108.40 202.87 101.56 205.00 95.16 Z" />
<path fill="#ffffff" opacity="1.00" d=" M 199.21 96.26 C 199.83 96.03 201.07 95.56 201.69 95.33 C 201.57 101.15 201.19 106.98 201.54 112.81 C 199.47 113.23 197.82 114.59 196.12 115.75 C 196.92 109.25 196.56 102.36 199.21 96.26 Z" />
<path fill="#ffffff" opacity="1.00" d=" M 210.73 97.74 C 211.49 100.34 212.65 102.84 214.71 104.68 C 217.05 104.61 219.33 104.09 221.37 102.92 C 218.80 107.13 216.92 111.88 213.19 115.26 C 212.15 114.18 210.61 113.27 210.57 111.59 C 210.22 106.97 210.79 102.35 210.73 97.74 Z" />
<path fill="#ffffff" opacity="1.00" d=" M 127.45 100.95 C 131.98 101.50 137.13 98.51 141.04 101.94 C 144.55 105.30 143.99 110.74 143.04 115.08 C 142.14 112.87 140.79 110.88 138.91 109.39 C 139.19 113.70 138.90 118.15 136.44 121.86 C 135.88 118.03 135.82 114.03 134.05 110.49 C 133.65 111.12 132.86 112.39 132.46 113.03 C 132.29 110.84 131.75 108.71 130.98 106.66 C 129.58 108.97 128.12 111.24 126.58 113.45 C 125.59 109.24 127.20 105.14 127.45 100.95 Z" />
<path fill="#ffffff" opacity="1.00" d=" M 226.68 112.25 C 225.18 109.34 228.72 106.74 230.06 104.37 C 231.28 105.02 232.49 105.68 233.71 106.35 C 231.45 108.39 229.74 111.36 226.68 112.25 Z" />
<path fill="#ffffff" opacity="1.00" d=" M 99.68 123.02 C 103.58 117.07 109.37 112.75 114.57 108.00 C 114.91 111.40 115.31 114.79 115.97 118.14 C 115.18 117.77 113.59 117.02 112.79 116.65 C 112.51 122.44 113.18 128.43 116.74 133.21 C 115.00 132.14 113.26 131.06 111.55 129.95 C 107.28 140.93 100.77 151.80 101.52 163.98 C 102.31 171.31 104.85 178.29 106.05 185.53 C 103.76 188.40 102.50 191.87 102.11 195.51 C 100.55 191.25 100.11 186.72 99.71 182.24 C 96.69 183.20 98.08 186.80 97.56 189.16 C 94.04 182.16 95.22 173.95 96.53 166.52 C 95.16 168.21 93.89 169.99 92.68 171.80 C 92.23 161.42 94.37 150.87 99.17 141.64 C 96.27 143.31 94.30 146.01 92.30 148.61 C 92.85 140.19 95.93 131.83 101.63 125.54 C 103.57 123.49 105.65 121.57 107.49 119.43 C 104.62 120.00 102.20 121.64 99.68 123.02 Z" />
<path fill="#ffffff" opacity="1.00" d=" M 239.36 107.46 C 244.36 109.83 246.61 115.37 247.35 120.54 C 247.91 124.77 248.64 128.97 249.35 133.18 C 250.10 142.16 248.45 151.20 249.86 160.14 C 251.96 175.85 250.33 191.79 252.90 207.45 C 253.93 211.63 254.96 215.83 256.18 219.96 C 256.65 222.46 259.79 223.60 261.83 222.09 C 267.49 218.83 270.84 212.93 275.26 208.31 C 271.61 213.73 268.77 220.68 262.16 223.10 C 256.91 224.97 251.06 222.24 248.70 217.31 C 247.43 215.96 248.63 214.45 249.15 213.08 C 249.52 205.43 249.61 197.72 248.44 190.13 C 246.21 182.03 241.09 175.21 236.76 168.16 C 235.06 165.71 232.86 163.70 230.72 161.65 C 231.78 158.66 232.18 155.46 231.63 152.32 C 235.55 148.00 238.27 142.81 240.60 137.51 C 241.08 137.26 242.05 136.77 242.54 136.53 C 244.53 149.99 244.37 163.85 248.05 177.01 C 248.65 172.37 247.86 167.74 247.25 163.15 C 246.42 153.46 247.48 143.72 246.51 134.04 C 246.31 130.04 247.29 126.05 246.71 122.06 C 246.02 116.49 242.85 111.69 239.36 107.46 Z" />
<path fill="#ffffff" opacity="1.00" d=" M 184.69 111.85 C 187.49 114.03 190.28 116.23 193.05 118.45 C 191.82 119.53 190.59 120.60 189.36 121.67 C 187.71 120.24 186.07 118.80 184.44 117.36 C 184.49 115.52 184.58 113.69 184.69 111.85 Z" />
<path fill="#ffffff" opacity="1.00" d=" M 182.41 132.40 C 187.85 126.73 194.12 121.99 200.07 116.89 C 201.12 118.12 202.19 119.34 203.27 120.55 C 201.66 121.95 200.19 123.70 197.99 124.10 C 193.70 125.09 190.34 128.44 188.93 132.55 C 187.82 133.29 186.71 134.04 185.61 134.80 C 184.54 133.99 183.48 133.19 182.41 132.40 Z" />
<path fill="#ffffff" opacity="1.00" d=" M 184.99 121.96 C 186.35 121.57 187.06 122.18 187.13 123.77 C 186.62 123.96 185.60 124.35 185.09 124.54 C 185.06 123.89 185.01 122.60 184.99 121.96 Z" />
<path fill="#ffffff" opacity="1.00" d=" M 191.48 132.06 C 193.80 129.69 196.38 126.82 199.95 126.72 C 204.69 126.76 208.03 130.71 212.51 131.66 C 216.72 132.71 220.63 134.63 224.35 136.84 C 225.13 134.20 226.33 131.72 227.60 129.29 C 231.56 129.22 234.93 131.46 238.30 133.24 C 236.58 139.48 233.05 145.05 228.81 149.88 C 227.69 151.58 225.25 151.17 223.76 150.22 C 217.36 146.27 211.89 141.04 205.86 136.57 C 206.38 135.21 206.86 133.83 207.31 132.44 C 204.72 134.09 202.94 137.01 199.95 137.99 C 196.33 137.48 193.37 135.10 191.48 132.06 Z" />
<path fill="#ffffff" opacity="1.00" d=" M 106.28 147.91 C 107.36 143.33 109.37 139.07 111.24 134.78 C 113.12 139.28 114.48 143.99 116.52 148.42 C 117.59 151.04 120.14 152.43 122.45 153.79 C 120.66 156.97 120.85 161.12 123.23 163.95 C 124.75 164.58 126.32 163.69 127.83 163.43 C 127.85 166.88 127.35 170.42 128.11 173.81 C 129.85 176.32 133.33 175.77 135.98 176.00 C 140.51 175.72 145.56 176.13 149.55 173.60 C 152.59 170.01 154.49 165.62 156.47 161.39 C 159.08 162.86 161.73 164.26 164.09 166.10 C 169.96 170.34 177.14 173.62 180.48 180.45 C 182.14 183.03 180.69 185.99 180.29 188.72 C 173.35 188.24 166.70 190.48 160.02 191.92 C 149.60 194.73 138.94 197.64 130.03 203.98 C 126.07 205.97 123.98 211.59 118.80 210.26 C 115.43 201.37 110.87 192.92 108.47 183.67 C 106.02 177.35 104.83 170.65 103.91 163.97 C 103.01 158.46 105.13 153.19 106.28 147.91 Z" />
<path fill="#ffffff" opacity="1.00" d=" M 192.70 138.32 C 196.38 140.61 200.92 142.54 205.02 140.01 C 211.15 144.94 217.04 150.30 224.05 153.99 C 219.72 156.29 214.65 155.75 209.94 155.66 C 203.35 155.58 197.24 150.35 190.59 153.07 C 190.22 152.12 189.85 151.18 189.48 150.23 C 190.91 146.37 192.26 142.44 192.70 138.32 Z" />
<path fill="#ffffff" opacity="1.00" d=" M 124.13 156.88 C 129.85 153.17 135.69 147.93 142.96 148.46 C 146.34 148.44 149.70 149.00 152.96 149.88 C 153.22 151.40 153.47 152.92 153.70 154.45 C 146.95 152.43 139.63 152.92 132.96 155.00 C 129.70 156.22 127.53 159.07 125.28 161.57 C 124.89 160.01 124.50 158.44 124.13 156.88 Z" />
<path fill="#ffffff" opacity="1.00" d=" M 193.73 153.34 C 196.08 153.81 198.43 154.40 200.59 155.46 C 208.86 159.87 219.14 158.67 227.34 154.65 C 227.08 160.80 219.71 161.11 215.13 161.97 C 208.10 161.93 201.03 160.59 194.30 158.60 C 193.54 156.95 193.82 155.09 193.73 153.34 Z" />
<path fill="#ffffff" opacity="1.00" d=" M 129.97 160.16 C 133.01 156.58 137.94 156.23 142.26 155.54 C 146.22 154.58 150.02 156.61 153.70 157.81 C 152.81 163.75 150.29 170.99 144.02 173.03 C 139.87 173.28 135.11 174.99 131.33 172.54 C 129.49 170.68 130.38 168.04 130.76 165.79 C 131.24 163.86 129.59 162.08 129.97 160.16 M 133.01 160.77 C 133.37 162.07 133.84 163.39 135.16 164.03 C 135.76 165.85 139.84 169.23 135.64 169.49 L 136.64 167.74 C 135.80 167.36 134.94 167.02 134.08 166.69 C 134.25 167.51 134.58 169.15 134.75 169.97 C 135.99 170.65 137.46 170.61 138.67 169.86 C 140.40 165.60 136.06 162.73 133.01 160.77 Z" />
<path fill="#ffffff" opacity="1.00" d=" M 182.06 172.00 C 186.69 168.67 190.77 164.69 194.37 160.28 C 192.13 165.50 187.54 169.04 183.42 172.72 C 182.96 172.48 182.51 172.24 182.06 172.00 Z" />
<path fill="#ffffff" opacity="1.00" d=" M 225.31 160.85 C 228.15 161.95 228.80 165.27 230.71 167.36 C 233.53 170.77 236.51 175.26 234.99 179.83 C 233.66 180.91 230.69 183.10 229.65 180.68 C 227.90 174.15 225.65 167.64 225.31 160.85 Z" />
<path fill="#ffffff" opacity="1.00" d=" M 252.55 160.17 C 254.21 162.73 255.40 165.54 256.84 168.22 C 258.41 171.21 261.66 172.83 264.84 173.50 C 275.00 175.07 281.89 186.07 280.55 195.95 C 276.36 206.28 267.29 213.23 259.58 220.85 C 257.25 215.42 256.23 209.57 254.74 203.89 C 253.30 198.72 253.59 193.30 253.27 187.99 C 253.32 178.71 252.49 169.45 252.55 160.17 Z" />
<path fill="#ffffff" opacity="1.00" d=" M 188.00 179.63 C 189.59 173.23 193.04 167.41 196.95 162.17 C 197.90 162.33 199.79 162.66 200.74 162.83 C 198.28 168.75 196.92 175.09 194.00 180.82 C 191.98 180.54 189.98 180.13 188.00 179.63 Z" />
<path fill="#ffffff" opacity="1.00" d=" M 215.81 163.92 C 217.08 163.61 218.35 163.30 219.62 162.99 C 219.84 169.19 222.32 175.00 222.82 181.14 C 222.91 183.60 220.42 184.26 218.61 185.07 C 212.97 179.62 216.23 170.83 215.81 163.92 Z" />
<path fill="#ffffff" opacity="1.00" d=" M 200.10 183.74 C 200.05 176.80 202.71 170.32 204.85 163.85 C 206.68 163.94 208.51 164.01 210.35 164.08 C 209.69 170.10 209.58 176.22 208.04 182.11 C 207.24 185.76 202.69 183.89 200.10 183.74 Z" />
<path fill="#ffffff" opacity="1.00" d=" M 212.28 164.00 L 212.74 163.95 C 212.44 168.97 213.13 173.97 213.26 178.99 C 213.44 181.63 213.42 184.65 215.35 186.71 C 218.68 188.38 223.07 187.32 225.53 184.59 C 226.61 177.62 223.45 170.99 222.29 164.25 C 225.22 170.12 225.34 176.90 227.96 182.87 C 229.20 185.49 232.84 184.03 234.83 183.04 C 237.53 181.73 238.07 178.70 237.67 175.99 C 241.53 180.81 244.28 186.40 245.39 192.50 C 246.62 199.19 246.50 206.03 246.98 212.79 C 242.20 212.59 237.41 212.53 232.68 213.36 C 228.43 213.02 224.20 212.11 220.13 210.87 C 214.93 209.13 212.81 203.24 207.76 201.22 C 202.27 198.74 196.17 195.57 190.00 197.39 C 187.15 197.91 185.52 200.55 183.55 202.41 C 181.49 195.67 183.05 188.81 183.83 182.05 C 184.46 178.35 181.82 175.25 178.97 173.32 C 180.52 173.83 182.16 175.68 183.93 174.75 C 185.61 173.95 186.95 172.63 188.41 171.50 C 187.16 174.91 183.93 179.09 186.65 182.56 C 188.68 184.18 191.70 185.52 194.21 184.19 C 197.76 182.90 197.29 178.35 198.69 175.46 C 198.50 178.60 197.77 181.73 198.06 184.90 C 199.49 187.73 203.26 188.14 206.09 188.02 C 208.18 188.01 211.15 187.41 211.39 184.86 C 212.46 177.96 212.28 170.96 212.28 164.00 Z" />
<path fill="#ffffff" opacity="1.00" d=" M 276.13 175.09 C 284.16 176.31 292.21 180.35 295.95 187.90 C 301.30 192.37 303.34 199.28 304.61 205.87 C 305.52 213.00 306.93 220.25 305.54 227.42 C 302.59 228.55 299.52 229.30 296.37 229.54 C 296.17 230.28 295.79 231.76 295.60 232.50 C 293.26 232.74 290.58 231.87 288.47 233.07 C 287.69 235.33 288.22 237.66 288.77 239.90 C 287.22 241.49 284.62 242.57 284.42 245.04 C 285.56 247.27 287.26 249.18 289.07 250.89 C 291.90 253.64 296.37 254.65 297.64 258.84 C 290.42 254.32 284.44 248.03 279.78 240.94 C 280.20 236.11 281.22 230.56 278.17 226.34 C 274.92 226.56 275.12 230.76 273.82 233.02 C 270.08 231.28 266.65 228.97 263.09 226.91 C 262.43 227.23 261.09 227.87 260.43 228.19 C 259.92 234.19 264.08 239.06 268.21 242.85 C 272.35 246.50 273.72 252.02 276.07 256.80 C 269.07 251.94 265.70 243.98 261.92 236.70 C 261.12 239.62 261.87 242.57 262.60 245.41 C 261.90 245.57 260.49 245.88 259.79 246.03 C 257.99 241.70 257.81 235.52 252.87 233.45 C 252.65 235.71 252.62 237.99 252.54 240.26 C 249.71 235.99 248.64 230.61 244.77 227.08 C 242.27 230.04 242.82 234.29 242.91 237.90 C 242.86 241.96 244.87 245.57 246.61 249.11 C 242.32 249.75 238.05 250.51 233.79 251.25 C 229.07 244.74 228.35 236.46 224.98 229.30 C 229.01 228.25 233.22 227.72 237.09 226.14 C 240.37 224.75 242.24 221.55 243.77 218.52 C 244.21 218.36 245.08 218.04 245.51 217.89 C 247.63 220.89 249.93 224.53 253.98 224.86 C 258.32 225.01 263.50 226.41 267.07 223.13 C 271.46 218.99 275.07 214.02 277.87 208.68 C 280.55 203.20 284.12 197.44 283.11 191.07 C 282.07 185.30 279.61 179.79 276.13 175.09 Z" />
<path fill="#ffffff" opacity="1.00" d=" M 298.14 185.74 C 301.97 187.36 305.87 189.16 308.73 192.29 C 312.62 196.18 313.99 201.76 314.95 207.00 C 316.39 215.26 318.14 223.50 318.75 231.89 C 315.80 229.50 312.46 227.61 308.75 226.73 C 308.85 216.66 307.46 206.58 304.79 196.88 C 303.79 192.55 300.67 189.24 298.14 185.74 Z" />
<path fill="#ffffff" opacity="1.00" d=" M 107.61 190.04 C 109.09 193.69 110.47 197.38 112.14 200.95 C 114.13 204.91 114.89 209.48 117.71 213.02 C 120.35 212.48 123.07 212.47 125.67 211.81 C 127.98 209.71 129.75 207.03 132.39 205.30 C 139.95 199.80 149.18 197.55 158.02 195.00 C 165.21 193.02 172.50 190.37 180.09 191.25 C 179.96 191.73 179.71 192.70 179.58 193.18 C 170.91 194.13 162.61 196.91 154.24 199.21 C 147.93 201.21 141.72 203.62 135.96 206.92 C 130.54 209.85 124.45 213.11 121.92 219.03 C 120.40 232.15 125.88 244.86 131.63 256.33 C 127.92 256.42 126.17 253.17 124.45 250.49 C 120.93 245.53 118.99 239.67 117.57 233.82 C 116.09 228.03 118.37 221.82 115.79 216.23 C 112.66 209.52 108.12 203.54 104.91 196.85 C 105.38 194.43 106.65 192.28 107.61 190.04 Z" />
<path fill="#ffffff" opacity="1.00" d=" M 131.66 212.63 C 144.59 204.86 158.82 198.89 173.90 197.08 C 175.68 197.00 177.47 197.22 179.25 197.33 C 179.78 200.56 181.93 203.64 181.12 206.98 C 179.80 213.56 180.27 220.92 184.29 226.53 C 187.88 232.45 195.62 232.60 201.49 234.71 C 207.19 239.94 211.84 246.21 215.82 252.83 C 207.86 251.60 199.63 256.49 192.04 252.72 C 188.63 252.25 184.52 252.19 181.97 254.91 C 180.08 256.87 177.57 257.89 175.27 259.24 C 171.47 263.59 169.56 269.36 165.31 273.37 C 162.05 276.84 157.51 278.86 154.60 282.69 C 152.90 284.74 152.60 287.49 152.09 290.01 C 150.94 297.72 147.65 304.91 143.74 311.58 C 142.27 313.83 141.85 316.49 141.62 319.12 C 141.22 323.41 139.75 327.48 138.55 331.58 C 137.36 335.99 140.04 341.09 137.01 345.03 C 135.53 347.68 131.84 347.86 130.46 350.57 C 129.57 351.97 129.10 353.58 128.62 355.17 C 126.21 356.41 123.63 357.45 120.91 357.72 C 118.22 357.57 115.69 356.58 113.15 355.78 C 114.40 354.15 115.70 352.58 116.95 350.97 C 119.24 348.21 119.22 344.30 121.35 341.45 C 123.91 338.08 126.18 334.45 127.66 330.47 C 129.80 324.26 133.55 318.65 134.86 312.15 C 135.35 305.45 134.34 298.58 136.17 292.01 C 137.16 288.33 139.18 284.97 139.72 281.17 C 140.50 275.45 140.52 269.66 141.06 263.92 C 141.69 257.83 143.68 252.01 144.95 246.05 C 141.10 248.28 140.94 253.00 139.46 256.74 C 137.74 256.14 135.07 256.63 134.55 254.37 C 131.68 248.10 129.18 241.67 126.85 235.18 C 125.29 230.60 125.88 225.70 125.47 220.96 C 127.76 218.36 129.36 215.22 131.66 212.63 Z" />
<path fill="#ffffff" opacity="1.00" d=" M 184.55 205.05 C 186.37 203.06 188.35 200.97 191.05 200.25 C 197.90 198.90 204.51 201.85 209.83 205.95 C 209.64 209.94 206.48 214.81 209.99 218.09 C 213.90 223.15 219.02 227.34 221.84 233.18 C 224.90 239.52 226.08 246.79 230.39 252.51 C 232.46 255.24 236.39 255.99 237.99 259.12 C 238.21 263.11 234.16 265.89 234.05 269.85 C 233.85 274.20 233.96 278.57 233.36 282.88 C 232.83 286.93 228.59 288.85 225.42 290.61 C 223.28 284.69 225.03 278.28 223.75 272.21 C 222.51 266.31 221.72 260.23 219.19 254.70 C 217.26 250.22 214.27 246.32 211.48 242.36 C 205.34 233.89 196.76 227.70 189.66 220.13 C 186.85 215.58 186.31 210.04 184.55 205.05 Z" />
<path fill="#ffffff" opacity="1.00" d=" M 105.14 202.86 C 109.09 208.09 112.80 213.69 114.83 219.97 C 115.67 224.85 115.26 229.86 115.61 234.78 C 116.44 241.38 119.68 247.36 123.55 252.66 C 120.33 250.48 117.25 248.11 113.93 246.07 C 116.20 250.71 120.48 253.73 124.27 257.02 C 117.41 263.89 108.07 267.06 99.83 271.84 C 96.99 273.69 92.91 274.06 91.28 277.38 C 89.34 280.95 86.97 284.30 85.19 287.97 C 84.66 291.36 84.04 294.73 83.35 298.10 C 82.80 301.37 85.68 303.55 88.15 305.03 C 88.25 308.36 87.17 311.50 85.73 314.44 C 84.23 317.37 85.29 320.65 86.23 323.56 C 84.77 325.93 83.08 328.22 82.41 330.97 C 81.54 334.12 79.05 336.41 76.92 338.75 C 75.55 331.08 71.85 323.91 71.50 316.06 C 72.20 307.89 75.33 300.15 75.97 291.97 C 76.74 286.79 76.18 281.48 77.22 276.34 C 80.51 269.61 86.72 265.10 91.64 259.66 C 96.93 253.80 103.13 248.68 107.44 242.00 C 108.42 242.75 109.41 243.48 110.41 244.21 C 105.90 230.96 104.21 216.82 105.14 202.86 Z" />
<path fill="#ffffff" opacity="1.00" d=" M 184.59 222.10 C 183.43 218.21 183.26 214.11 183.00 210.09 C 184.41 214.59 185.14 219.77 188.85 223.08 C 191.94 225.92 195.20 228.57 198.18 231.54 C 192.86 230.09 186.73 227.64 184.59 222.10 Z" />
<path fill="#ffffff" opacity="1.00" d=" M 213.38 215.19 C 213.83 213.71 214.30 212.25 214.76 210.79 C 222.72 215.99 232.68 217.39 241.96 215.84 C 240.39 219.26 238.38 223.19 234.50 224.36 C 230.69 225.40 226.75 225.88 222.95 226.95 C 219.60 223.17 215.22 220.08 213.38 215.19 Z" />
<path fill="#ffffff" opacity="1.00" d=" M 244.40 215.18 C 247.42 213.63 244.47 218.48 244.40 215.18 Z" />
<path fill="#ffffff" opacity="1.00" d=" M 327.05 224.92 C 327.01 221.37 327.93 217.84 330.02 214.93 C 331.31 215.93 332.81 217.12 332.47 218.97 C 332.36 223.02 331.98 227.15 332.87 231.13 C 334.39 234.01 338.26 233.82 340.98 233.08 C 345.90 231.73 347.91 226.30 352.21 224.05 C 352.63 224.12 353.49 224.25 353.91 224.32 C 353.31 231.29 347.20 237.54 340.12 237.78 C 337.68 238.15 334.48 237.58 333.18 240.26 C 328.99 247.13 325.31 254.31 321.21 261.23 C 319.96 260.77 318.71 260.29 317.48 259.79 C 321.54 253.45 326.34 247.51 329.57 240.67 C 332.23 235.36 328.07 230.09 327.05 224.92 Z" />
<path fill="#ffffff" opacity="1.00" d=" M 262.49 229.17 C 267.20 230.72 271.11 233.81 275.05 236.69 C 275.91 234.69 276.69 232.65 277.58 230.66 C 278.40 235.27 276.88 240.37 279.43 244.59 C 283.29 251.08 289.73 255.36 295.19 260.38 C 292.12 262.14 288.70 264.11 285.01 263.37 C 281.89 260.92 279.61 257.52 277.55 254.16 C 275.25 250.49 274.33 246.02 271.20 242.88 C 267.82 238.65 262.92 235.00 262.49 229.17 Z" />
<path fill="#ffffff" opacity="1.00" d=" M 299.10 231.89 C 302.45 231.12 305.40 228.44 309.04 229.32 C 312.65 230.48 316.16 232.44 318.61 235.40 C 320.61 239.11 321.22 243.75 319.73 247.75 C 318.65 250.78 314.61 252.35 315.22 255.96 C 315.14 258.04 315.19 260.13 315.52 262.19 C 311.15 257.88 304.63 257.95 298.95 258.47 C 298.59 257.23 298.22 256.01 297.96 254.76 C 298.90 253.47 299.98 252.25 301.22 251.24 C 303.69 250.78 306.61 251.68 308.64 249.67 C 310.68 248.45 310.09 245.81 310.35 243.84 C 308.39 242.76 305.04 241.19 303.94 244.32 C 304.98 244.33 307.06 244.37 308.10 244.39 C 308.25 245.04 308.57 246.36 308.72 247.01 C 306.81 248.41 304.76 249.96 302.23 249.33 C 301.72 248.40 301.21 247.47 300.70 246.55 C 300.27 247.99 299.87 249.44 299.37 250.86 C 297.93 251.47 296.53 252.19 295.02 252.61 C 291.51 250.86 288.96 247.74 286.38 244.89 C 287.88 243.86 289.34 242.77 290.59 241.43 C 290.81 242.59 290.94 243.74 291.10 244.92 C 292.68 242.88 294.04 240.55 296.34 239.22 C 298.48 239.03 300.64 239.27 302.79 239.21 C 301.67 236.71 300.41 234.28 299.10 231.89 Z" />
<path fill="#ffffff" opacity="1.00" d=" M 245.00 230.79 C 247.16 235.59 249.42 240.46 252.93 244.45 C 254.21 242.04 254.31 239.29 254.48 236.63 C 255.75 240.65 257.07 244.69 257.49 248.91 C 257.80 250.94 257.81 253.18 259.19 254.86 C 262.80 260.08 267.12 265.01 269.03 271.19 C 272.77 270.57 276.48 269.59 279.87 267.86 C 283.25 266.07 287.11 265.80 290.85 265.42 C 293.87 265.24 296.16 262.97 298.96 262.11 C 303.87 260.53 310.26 259.56 314.04 263.93 C 317.84 270.71 322.33 277.11 325.76 284.12 C 326.54 286.44 327.16 288.82 328.29 291.02 C 328.88 287.64 326.71 284.71 326.46 281.39 C 323.32 274.96 320.54 268.10 315.82 262.65 C 316.11 262.42 316.41 262.21 316.72 261.99 C 320.50 264.49 325.29 264.65 329.22 266.82 C 331.26 268.97 331.19 272.25 332.09 274.94 C 333.23 279.70 336.99 283.34 338.20 288.02 C 338.08 292.94 337.16 298.01 338.94 302.78 C 335.96 308.98 330.85 314.87 323.93 316.54 C 318.50 317.72 312.56 317.67 307.56 315.00 C 307.08 313.02 306.84 310.95 305.94 309.10 C 303.95 304.61 298.50 302.32 297.85 297.12 C 297.19 292.33 297.74 287.43 296.69 282.66 C 300.02 282.78 303.51 283.67 306.66 282.08 C 306.15 281.66 305.13 280.84 304.62 280.42 C 299.35 282.31 293.98 278.18 288.92 280.77 C 285.73 282.56 282.28 280.77 278.91 280.80 C 275.60 280.50 272.67 282.40 269.65 283.43 C 267.44 281.22 265.18 279.04 263.25 276.58 C 259.18 270.31 259.00 262.35 254.84 256.12 C 251.88 251.75 247.87 248.00 245.97 242.98 C 244.80 239.04 245.01 234.86 245.00 230.79 Z" />
<path fill="#ffffff" opacity="1.00" d=" M 290.18 234.81 C 292.81 234.83 295.59 235.30 297.88 233.62 C 298.49 234.92 299.11 236.20 299.75 237.50 C 297.35 236.86 295.08 237.17 293.26 238.92 L 294.07 238.83 C 293.36 239.60 291.92 241.14 291.21 241.90 C 291.37 239.46 291.09 237.07 290.18 234.81 Z" />
<path fill="#ffffff" opacity="1.00" d=" M 238.75 253.46 C 241.97 252.97 245.21 252.63 248.42 252.10 C 250.09 254.53 252.26 256.70 253.35 259.49 C 255.13 264.86 255.62 270.57 257.46 275.93 C 258.61 279.45 259.90 283.21 258.67 286.91 C 258.29 290.19 255.73 292.38 253.49 294.51 C 248.62 299.50 247.74 306.72 245.29 312.96 C 239.50 313.75 234.81 317.47 230.53 321.16 C 232.48 316.95 234.85 312.94 236.47 308.57 C 238.35 303.59 242.56 299.55 243.12 294.07 C 243.50 290.43 244.61 286.82 244.43 283.14 C 242.83 278.03 239.86 273.48 238.00 268.45 C 239.31 265.72 241.11 263.10 241.53 260.05 C 241.80 257.48 240.22 255.37 238.75 253.46 Z" />
<path fill="#ffffff" opacity="1.00" d=" M 175.56 264.75 C 180.68 263.09 183.93 258.80 187.94 255.56 C 191.74 255.23 195.50 256.35 199.28 256.72 C 193.14 258.80 186.88 261.44 182.65 266.58 C 180.66 269.17 177.73 270.69 174.72 271.77 C 174.78 269.40 175.13 267.07 175.56 264.75 Z" />
<path fill="#ffffff" opacity="1.00" d=" M 290.76 281.84 C 292.24 283.94 293.36 286.27 294.16 288.72 C 292.57 286.69 291.11 284.45 290.76 281.84 Z" />
<path fill="#ffffff" opacity="1.00" d=" M 274.93 316.08 C 281.31 307.94 287.68 299.79 294.07 291.66 C 293.59 294.21 294.48 297.36 292.38 299.34 C 287.91 304.62 283.40 309.88 279.57 315.66 C 278.02 315.79 276.47 315.94 274.93 316.08 Z" />
<path fill="#ffffff" opacity="1.00" d=" M 322.99 319.23 C 331.49 317.94 337.38 310.75 340.48 303.19 C 341.52 305.93 342.54 308.75 342.62 311.71 C 340.66 317.55 335.41 321.37 331.18 325.53 C 334.39 324.70 337.29 323.03 340.42 321.95 C 341.11 327.25 341.85 332.55 342.64 337.84 C 343.34 341.31 341.65 344.55 341.13 347.91 C 340.71 352.99 335.24 355.19 331.37 357.38 C 325.66 359.24 321.00 363.24 315.33 365.21 C 311.53 366.66 308.28 369.90 304.00 369.75 C 299.37 369.65 294.40 371.18 290.03 369.03 C 283.67 366.06 276.56 364.94 270.41 361.48 C 267.12 359.66 264.71 356.72 261.92 354.27 C 260.58 350.18 257.94 346.73 256.17 342.86 C 253.05 333.87 258.25 323.84 265.37 318.31 C 267.59 318.62 269.83 318.70 272.05 318.31 C 273.63 319.00 275.20 319.97 277.01 319.62 C 280.62 319.19 284.17 320.07 287.52 321.35 C 286.20 323.35 285.19 325.56 285.14 328.01 C 286.82 326.45 288.32 324.69 290.00 323.12 C 290.72 326.53 291.31 330.40 294.56 332.42 C 294.08 328.58 291.97 324.57 293.98 320.82 C 295.01 324.11 295.16 327.83 297.42 330.61 C 299.55 333.14 302.17 335.49 305.47 336.35 C 302.76 332.08 297.84 329.19 296.86 323.92 C 295.71 321.65 297.85 319.83 298.91 318.04 C 300.04 322.30 301.99 327.72 307.09 328.28 C 310.25 328.48 314.47 330.05 316.89 327.29 C 313.46 326.31 309.63 327.15 306.40 325.53 C 301.89 322.02 299.41 314.96 303.26 310.06 C 305.25 313.12 305.16 318.30 309.38 319.34 C 313.85 320.29 318.47 319.30 322.99 319.23 Z" />
<path fill="#ffffff" opacity="1.00" d=" M 231.37 324.29 C 235.76 321.38 239.71 317.61 244.74 315.79 C 250.24 315.60 255.59 317.12 260.96 318.07 C 258.34 321.26 257.02 325.25 254.53 328.53 C 252.75 330.64 252.31 333.41 251.70 336.01 C 246.26 332.63 240.06 328.97 233.39 330.22 C 235.49 331.39 237.85 331.89 240.16 332.50 C 236.81 335.41 234.27 339.05 231.38 342.38 C 225.00 348.94 214.84 348.33 207.50 353.31 C 204.93 355.13 202.26 356.83 199.91 358.95 C 196.48 362.19 196.33 367.70 192.60 370.65 C 189.24 371.15 186.63 368.32 183.52 367.62 C 180.09 367.24 176.53 367.97 173.22 366.76 C 167.69 364.43 162.53 361.09 158.53 356.56 C 165.54 358.57 172.89 357.55 180.03 356.99 C 186.16 355.60 193.00 355.28 198.02 351.07 C 209.28 342.32 219.46 332.19 231.37 324.29 M 188.62 366.14 C 189.90 365.92 191.15 365.63 192.40 365.28 C 194.00 363.91 193.68 361.05 191.40 360.58 C 190.79 362.58 189.79 364.41 188.62 366.14 Z" />
<path fill="#ffffff" opacity="1.00" d=" M 84.21 334.02 C 85.50 331.51 86.16 328.75 87.14 326.12 C 89.72 327.11 93.10 328.57 92.98 331.89 C 93.11 338.65 90.17 345.67 84.79 349.87 C 80.14 350.05 77.94 344.39 76.85 340.56 C 79.65 338.84 82.42 336.83 84.21 334.02 Z" />
<path fill="#ffffff" opacity="1.00" d=" M 236.66 339.86 C 238.42 337.32 241.07 335.52 243.22 333.32 C 246.03 335.37 248.90 337.35 251.35 339.85 C 247.38 346.99 242.76 354.01 240.92 362.08 C 240.21 365.13 241.59 368.99 239.23 371.45 C 237.32 371.07 235.69 369.98 233.89 369.31 C 229.88 369.34 225.87 370.95 221.87 369.82 C 215.77 368.46 209.42 367.10 204.09 363.69 C 207.61 361.35 212.01 363.23 215.87 362.15 C 219.96 361.11 224.12 360.27 228.14 358.95 C 229.61 358.31 231.68 357.88 231.98 355.99 C 233.64 350.64 234.78 345.13 236.66 339.86 Z" />
<path fill="#ffffff" opacity="1.00" d=" M 252.97 341.70 C 254.92 345.49 256.79 349.32 258.36 353.29 C 255.54 351.17 252.80 348.94 249.80 347.06 C 250.86 345.27 251.91 343.48 252.97 341.70 Z" />
<path fill="#ffffff" opacity="1.00" d=" M 106.72 367.00 C 107.41 363.79 109.04 360.90 110.73 358.12 C 114.14 358.98 117.57 360.27 121.15 359.96 C 123.94 359.59 126.68 358.87 129.46 358.39 C 129.69 360.42 130.50 362.64 129.62 364.62 C 123.64 369.05 116.53 372.42 108.91 371.96 C 107.01 371.21 106.71 368.77 106.72 367.00 Z" />
</g>
<g id="#cf301bff">
<path fill="#cf301b" opacity="1.00" d=" M 208.49 16.03 C 272.57 16.52 336.67 16.13 400.76 16.26 C 400.67 33.15 400.97 50.05 400.50 66.94 C 400.47 114.98 400.50 163.01 400.48 211.05 C 399.47 245.87 393.14 280.72 380.16 313.12 C 366.96 346.45 346.64 376.91 320.96 401.92 C 294.91 427.57 263.71 447.86 230.02 461.98 C 222.99 464.94 215.78 467.48 208.49 469.71 C 208.50 436.36 208.46 403.01 208.50 369.66 C 212.69 371.00 216.87 372.37 221.11 373.56 C 225.56 375.12 230.12 372.29 234.63 373.54 C 237.38 373.76 240.94 375.68 243.14 373.19 C 244.80 369.27 243.93 364.86 244.63 360.75 C 245.09 357.33 247.45 354.65 249.29 351.87 C 252.75 354.09 255.96 356.73 259.73 358.43 C 263.21 360.04 265.94 362.81 268.97 365.09 C 273.10 368.34 278.58 368.57 283.26 370.63 C 287.10 371.93 290.71 374.62 294.96 374.09 C 299.80 373.46 304.73 374.14 309.53 373.37 C 318.52 369.21 327.57 365.07 336.00 359.81 C 339.85 357.28 344.16 354.49 345.78 349.96 C 346.38 345.91 345.71 341.77 346.60 337.74 C 348.03 331.85 343.36 326.80 343.58 321.00 C 344.45 318.33 346.14 315.87 346.17 312.98 C 346.33 307.43 342.69 302.83 341.56 297.57 C 340.60 292.59 341.36 287.42 340.20 282.48 C 339.29 279.80 336.88 278.05 335.56 275.61 C 334.60 272.67 334.65 269.43 333.27 266.62 C 331.40 264.18 328.58 262.74 326.09 261.03 C 328.97 254.17 332.70 247.71 336.30 241.21 C 339.73 240.74 343.20 240.34 346.50 239.27 C 352.48 236.65 356.96 230.56 357.21 223.98 C 356.99 221.79 354.59 221.11 353.12 219.92 C 349.57 221.59 346.79 224.36 344.34 227.35 C 342.48 229.77 339.01 231.37 336.08 230.18 C 334.30 227.09 335.85 223.39 335.83 220.04 C 335.94 217.05 335.48 212.65 331.96 211.84 C 327.18 210.12 324.48 215.97 323.69 219.75 C 321.39 227.27 326.96 234.23 326.00 241.73 C 323.08 238.26 321.70 233.86 321.34 229.39 C 320.33 218.46 318.85 207.51 315.84 196.93 C 314.76 193.23 313.25 189.32 309.89 187.13 C 304.36 182.73 296.74 182.35 291.49 177.55 C 284.59 173.45 276.84 170.69 268.89 169.53 C 265.80 169.06 262.29 168.39 260.45 165.57 C 258.02 161.81 256.36 157.50 252.91 154.49 C 253.31 140.92 252.84 127.20 249.56 113.98 C 248.16 108.74 243.00 105.62 237.94 104.70 C 235.61 104.39 233.82 102.87 232.20 101.28 C 233.59 98.67 235.58 96.09 235.47 92.97 C 235.40 88.66 235.02 84.32 235.87 80.05 C 236.73 75.96 235.04 72.02 233.16 68.49 C 235.00 64.25 237.14 59.69 236.30 54.96 C 234.62 49.37 226.35 46.98 222.10 51.14 C 217.23 54.87 216.27 61.23 214.20 66.60 C 212.21 69.86 209.73 72.85 208.42 76.49 C 208.58 56.34 208.43 36.18 208.49 16.03 Z" />
<path fill="#cf301b" opacity="1.00" d=" M 261.66 247.41 C 264.84 249.56 266.58 253.10 269.30 255.72 C 272.45 258.85 276.34 261.07 279.94 263.63 C 277.32 264.68 274.69 265.70 272.05 266.68 C 269.68 262.89 266.97 259.34 263.92 256.08 C 261.52 253.86 261.94 250.36 261.66 247.41 Z" />
<path fill="#cf301b" opacity="1.00" d=" M 208.50 257.42 C 210.78 257.14 213.06 256.85 215.35 256.58 C 217.35 262.28 219.14 268.09 220.10 274.06 C 220.98 279.72 220.28 285.59 221.86 291.14 C 222.48 293.54 225.45 294.38 227.53 293.31 C 230.51 291.91 233.40 290.07 235.57 287.56 C 237.38 284.58 236.87 280.90 237.17 277.58 C 238.28 279.45 239.41 281.31 240.56 283.17 C 239.55 289.04 240.17 295.52 236.59 300.63 C 232.52 307.36 229.95 314.80 226.99 322.02 C 221.56 328.03 214.70 332.60 208.50 337.79 C 208.48 311.00 208.47 284.21 208.50 257.42 Z" />
<path fill="#cf301b" opacity="1.00" d=" M 262.54 279.75 C 264.10 282.00 265.53 284.60 267.99 286.00 C 271.50 287.07 274.47 283.71 277.97 283.86 C 281.21 283.90 284.43 284.32 287.66 284.56 C 288.65 286.69 289.66 288.82 290.67 290.95 C 284.46 298.71 278.16 306.40 271.92 314.14 C 264.33 315.96 257.17 312.30 249.73 311.51 C 251.28 306.03 253.02 300.24 257.13 296.08 C 259.46 293.65 262.08 291.25 263.13 287.94 C 264.09 285.25 263.03 282.41 262.54 279.75 Z" />
<path fill="#cf301b" opacity="1.00" d=" M 294.36 301.52 C 296.05 303.38 297.76 305.24 299.45 307.11 C 298.16 309.69 297.22 312.42 296.67 315.25 C 295.95 315.89 295.23 316.54 294.52 317.19 C 292.69 317.57 290.86 317.92 289.03 318.25 C 287.18 317.40 285.32 316.57 283.48 315.72 C 286.93 310.85 290.65 306.18 294.36 301.52 Z" />
<path fill="#cf301b" opacity="1.00" d=" M 208.47 356.27 C 215.33 353.43 222.38 351.00 229.71 349.74 C 228.85 352.25 228.81 355.85 225.72 356.73 C 220.25 358.78 214.43 360.23 208.55 360.14 C 208.52 358.85 208.50 357.56 208.47 356.27 Z" />
</g>
</svg>
