<?xml version="1.0" encoding="UTF-8" standalone="no"?>
<!-- Created with Inkscape (http://www.inkscape.org/) -->

<svg
   xmlns:dc="http://purl.org/dc/elements/1.1/"
   xmlns:cc="http://creativecommons.org/ns#"
   xmlns:rdf="http://www.w3.org/1999/02/22-rdf-syntax-ns#"
   xmlns:svg="http://www.w3.org/2000/svg"
   xmlns="http://www.w3.org/2000/svg"
   xmlns:sodipodi="http://sodipodi.sourceforge.net/DTD/sodipodi-0.dtd"
   xmlns:inkscape="http://www.inkscape.org/namespaces/inkscape"
   version="1.1"
   id="svg879"
   width="228.179"
   height="214.907"
   viewBox="0 0 228.179 214.907"
   sodipodi:docname="Braslovce.svg"
   inkscape:version="0.92.4 (5da689c313, 2019-01-14)">
  <metadata
     id="metadata885">
    <rdf:RDF>
      <cc:Work
         rdf:about="">
        <dc:format>image/svg+xml</dc:format>
        <dc:type
           rdf:resource="http://purl.org/dc/dcmitype/StillImage" />
        <dc:title />
      </cc:Work>
    </rdf:RDF>
  </metadata>
  <defs
     id="defs883" />
  <sodipodi:namedview
     pagecolor="#ffffff"
     bordercolor="#666666"
     borderopacity="1"
     objecttolerance="10"
     gridtolerance="10"
     guidetolerance="10"
     inkscape:pageopacity="0"
     inkscape:pageshadow="2"
     inkscape:window-width="1920"
     inkscape:window-height="1001"
     id="namedview881"
     showgrid="false"
     inkscape:zoom="2.3049337"
     inkscape:cx="25.911284"
     inkscape:cy="60.573311"
     inkscape:window-x="-9"
     inkscape:window-y="-9"
     inkscape:window-maximized="1"
     inkscape:current-layer="svg879" />
  <path
     style="fill:#c71e45;fill-opacity:1"
     d="m 89.912777,214.33329 c -4.45617,-1.30332 -7.16467,-5.63315 -8.83783,-14.12819 -3.99798,-20.29878 -4.76194,-21.7784 -11.24464,-21.7784 -9.63683,0 -15.31697,15.31604 -7.23088,19.49752 6.03139,3.11895 13.00481,0.68393 13.00481,-4.54109 0,-3.03938 -2.25415,-5.95643 -4.60281,-5.95643 -1.93915,0 -2.95735,2.83984 -1.52997,4.26722 1.80411,1.80412 1.32854,2.73279 -1.39944,2.73279 -1.68542,0 -2.80079,-0.726 -3.33532,-2.17097 -0.53214,-1.43853 -1.04726,-1.77591 -1.52679,-1.00001 -1.47233,2.38228 -2.43916,1.07663 -1.53951,-2.07903 1.27204,-4.46188 3.62909,-6.00565 8.26146,-5.41091 8.99698,1.15511 11.09553,9.03031 4.3731,16.41092 -4.07014,4.46864 -13.91825,2.2213 -17.7412,-4.04855 -5.515,-9.04491 2.10318,-21.29598 13.13942,-21.13001 l 4.75125,0.0715 -3.31011,-3.86712 c -4.54342,-5.30797 -9.04976,-14.04239 -11.15904,-21.62907 l -1.7644,-6.34619 -3.55832,0.7317 c -1.95708,0.40243 -4.79582,0.7369 -6.30832,0.74325 -1.5125,0.006 -2.75,0.15036 -2.75,0.32 0,0.16964 2.1375,1.77843 4.75,3.57509 12.24824,8.42332 15.58635,15.302 11.81084,24.33805 -1.92179,4.59949 -4.3875,7.10318 -8.81892,8.95475 -8.49492,3.5494 -18.50633,0.47534 -21.75373,-6.6796 -4.1119,-9.05969 -1.30332,-15.78598 7.1741,-17.18132 1.46426,-0.24101 3.63508,-0.95882 4.82405,-1.59514 1.85488,-0.9927 2.23707,-0.86901 2.69217,0.8713 0.29172,1.11554 1.60839,2.73458 2.92594,3.59787 3.02553,1.98241 3.11799,5.77255 0.20699,8.48456 -2.21618,2.06469 -6.45378,2.88731 -5.30591,1.03001 1.24444,-2.01355 -0.59439,-5.11945 -2.84142,-4.79935 -1.60015,0.22796 -2.24241,1.11014 -2.46456,3.38521 -0.77481,7.93483 8.9486,10.4749 15.40045,4.02305 6.96181,-6.96181 4.01589,-12.39801 -13.09578,-24.16612 -12.28841,-8.45104 -12.41187,-8.54947 -19.9864,-15.93388 C 9.9830766,122.0673 2.8469466,106.75229 0.53847656,88.751787 -2.1289434,67.95239 5.2137566,51.615155 20.342257,44.689098 c 6.69312,-3.064211 15.6212,-3.388244 21.85962,-0.793366 4.18451,1.740549 13.04622,9.741643 14.43262,13.030968 0.64576,1.532119 0.8578,1.005753 0.90635,-2.25 0.0367,-2.460051 -0.39942,-4.25 -1.03548,-4.25 -2.67545,0 -8.29855,-3.60444 -10.01545,-6.419965 -2.37805,-3.899721 -2.48172,-11.762428 -0.2059,-15.61509 3.93416,-6.659998 15.24761,-8.07582 20.03722,-2.507559 4.4317,5.152157 2.19508,15.260395 -3.467,15.66886 -7.97994,0.575676 -11.25,-1.426536 -11.25,-6.888222 0,-2.697 0.33672,-3.322791 1.53953,-2.861227 0.84675,0.324925 2.36214,0.07705 3.36754,-0.550832 1.97411,-1.232852 5.09293,-0.533112 5.09293,1.14265 0,0.567262 -0.62686,1.031385 -1.39301,1.031385 -1.92472,0 -2.88539,2.959625 -1.5018,4.626748 1.62892,1.962723 3.51198,1.700544 5.85585,-0.815309 5.97601,-6.414492 -2.69519,-14.623473 -11.30372,-10.701167 -8.58218,3.910304 -4.56089,20.889728 4.94738,20.889728 6.91442,0 10.27351,-3.075952 14.8173,-13.568343 4.45945,-10.297622 8.43121,-15.04577 13.79338,-16.489653 11.11552,-2.9931 20.784623,5.344934 20.784623,17.92338 0,6.02934 -1.77061,10.05177 -5.722,12.999134 l -2.778003,2.072122 7.366633,0.03168 c 7.18547,0.0309 7.34947,-0.02365 6.66869,-2.21832 -3.7894,-12.216106 -4.49297,-20.937747 -1.97862,-24.527494 1.9772,-2.822841 3.9094,-2.822841 5.8866,0 2.60203,3.714917 2.06991,10.128029 -2.03513,24.527494 -0.62422,2.189635 -0.44379,2.24915 6.7252,2.21832 l 7.36663,-0.03168 -2.778,-2.072122 c -3.95139,-2.947364 -5.722,-6.969794 -5.722,-12.999134 0,-12.578446 9.66909,-20.91648 20.78461,-17.92338 5.36217,1.443883 9.33394,6.192031 13.79338,16.489653 4.54379,10.492391 7.90288,13.568343 14.8173,13.568343 7.16808,0 11.94894,-9.760858 8.49443,-17.342675 -2.28505,-5.015145 -10.38655,-6.251416 -14.43518,-2.20278 -2.9882,2.988195 -3.14113,6.431376 -0.41559,9.356894 2.34387,2.515853 4.22693,2.778032 5.85585,0.815309 1.38359,-1.667123 0.42292,-4.626748 -1.5018,-4.626748 -0.76615,0 -1.39301,-0.464123 -1.39301,-1.031385 0,-1.675762 3.11882,-2.375502 5.09293,-1.14265 1.0054,0.627883 2.52079,0.875757 3.36754,0.550832 1.20281,-0.461564 1.53953,0.164227 1.53953,2.861227 0,5.461686 -3.27006,7.463898 -11.25,6.888222 -5.66208,-0.408465 -7.8987,-10.516703 -3.467,-15.66886 4.78961,-5.568261 16.10306,-4.152439 20.03722,2.507559 2.27582,3.852662 2.17215,11.715369 -0.2059,15.61509 -1.7169,2.815525 -7.34,6.419965 -10.01545,6.419965 -0.63606,0 -1.07217,1.789949 -1.03548,4.25 0.0486,3.255753 0.26059,3.782119 0.90635,2.25 1.3864,-3.289325 10.24811,-11.290419 14.43262,-13.030968 13.60603,-5.659444 31.51311,2.29678 38.17791,16.96268 9.42241,20.734017 1.5586,53.879868 -17.09809,72.068288 -7.57453,7.38441 -7.69799,7.48284 -19.9864,15.93388 -16.58996,11.40932 -19.79111,16.89817 -13.74578,23.56919 3.27722,3.61641 7.56431,4.98417 11.95801,3.81509 2.62382,-0.69814 3.32672,-1.48635 3.85988,-4.32834 0.82551,-4.40038 0.0306,-6.48982 -2.46912,-6.48982 -2.02954,0 -3.70475,3.21048 -2.6043,4.99105 1.14787,1.8573 -3.08973,1.03468 -5.30591,-1.03001 -2.95465,-2.75267 -2.81811,-6.50244 0.31144,-8.553 1.375,-0.90093 2.5,-2.48631 2.5,-3.52305 0,-2.18063 0.3924,-2.28054 3.15345,-0.80286 1.11209,0.59517 3.22,1.27931 4.68426,1.52032 4.44584,0.73176 7.01365,2.5324 8.11445,5.69015 1.47747,4.23828 1.28522,6.58761 -0.94035,11.49117 -3.2474,7.15494 -13.25881,10.229 -21.75373,6.6796 -4.43142,-1.85157 -6.89713,-4.35526 -8.81892,-8.95475 -3.77551,-9.03605 -0.4374,-15.91473 11.81084,-24.33805 2.6125,-1.79666 4.75,-3.40545 4.75,-3.57509 0,-0.16964 -1.2375,-0.31364 -2.75,-0.32 -1.5125,-0.006 -4.35124,-0.34082 -6.30832,-0.74325 l -3.55832,-0.7317 -1.76503,6.34973 c -2.29675,8.2626 -5.83387,15.2446 -10.59862,20.92085 l -3.83707,4.5711 4.73484,-0.0711 c 10.66479,-0.16017 18.26768,11.36878 13.53397,20.52278 -3.38811,6.55189 -13.9564,9.2627 -18.15217,4.65612 -3.27657,-3.59738 -4.4782,-6.65888 -3.80917,-9.70497 0.84739,-3.85814 3.60512,-6.1183 8.18227,-6.70595 4.63237,-0.59474 6.98942,0.94903 8.26146,5.41091 0.89965,3.15566 -0.0672,4.46131 -1.5395,2.07903 -0.47954,-0.7759 -0.99466,-0.43852 -1.5268,1.00001 -0.53453,1.44497 -1.6499,2.17097 -3.33532,2.17097 -2.72798,0 -3.20355,-0.92867 -1.39944,-2.73279 1.42738,-1.42738 0.40918,-4.26722 -1.52997,-4.26722 -2.34866,0 -4.60281,2.91705 -4.60281,5.95643 0,5.22502 6.97342,7.66004 13.00481,4.54109 8.08609,-4.18148 2.40595,-19.49752 -7.23088,-19.49752 -6.4827,0 -7.24666,1.47962 -11.24464,21.7784 -0.78844,4.00311 -2.37771,8.60436 -3.5317,10.225 -4.12288,5.79005 -13.83658,5.91775 -19.24081,0.25294 -4.95596,-5.19494 -6.26237,-13.07256 -2.88084,-17.37147 l 1.87593,-2.38487 h -9.22103 -9.22104 l 1.98283,2.68193 c 1.5542,2.10216 1.86874,3.69411 1.45507,7.36424 -1.09006,9.67099 -9.706813,15.91441 -18.439153,13.36042 z m 9.07658,-4.99488 c 7.749133,-6.09546 7.177773,-15.84619 -1.11323,-18.99844 -4.72447,-1.79624 -10.27189,1.49095 -10.27189,6.08674 0,3.1446 3.24591,6.50335 5.46275,5.65267 1.84444,-0.70778 2.04983,-4.27802 0.28725,-4.99321 -0.94064,-0.38167 -0.87877,-0.7695 0.25,-1.56707 1.97052,-1.39234 3.26019,-0.91108 4.57817,1.70841 0.82418,1.63805 1.35423,1.8668 2.250003,0.97103 0.89577,-0.89577 1.17183,-0.54495 1.17183,1.48921 0,5.75605 -6.011603,7.8528 -12.659053,4.41527 -5.48164,-2.83466 -5.49559,-8.67469 -0.0345,-14.42632 1.69722,-1.7875 2.64982,-3.25 2.11688,-3.25 -0.53293,0 -3.36048,-1.575 -6.28345,-3.5 -2.92296,-1.925 -5.51176,-3.5 -5.75287,-3.5 -0.24112,0 0.19565,1.2375 0.97061,2.75 0.77496,1.5125 1.9313,6.71025 2.56965,11.55056 1.33247,10.10344 2.05515,12.32949 5.01562,15.44945 2.7402,2.88781 7.8841,2.9605 11.4422,0.1617 z m 41.671953,-0.1617 c 2.96047,-3.11996 3.68315,-5.34601 5.01562,-15.44945 0.63835,-4.84031 1.79469,-10.03806 2.56965,-11.55056 0.77496,-1.5125 1.19054,-2.75 0.92352,-2.75 -0.26701,0 -3.20545,1.7198 -6.52985,3.82177 l -6.04436,3.82176 2.61027,2.42824 c 7.3605,6.84719 4.29208,15.58632 -5.77327,16.44282 -3.4736,0.29558 -6.82865,-2.7769 -6.82865,-6.25354 0,-2.03416 0.27606,-2.38498 1.17183,-1.48921 0.89577,0.89577 1.42582,0.66702 2.25,-0.97103 1.31798,-2.61949 2.60765,-3.10075 4.57816,-1.70841 1.12877,0.79757 1.19064,1.1854 0.25,1.56707 -1.76257,0.71519 -1.55718,4.28543 0.28725,4.99321 2.21684,0.85068 5.46275,-2.50807 5.46275,-5.65267 0,-4.59579 -5.54742,-7.88298 -10.27188,-6.08674 -6.13193,2.33137 -8.3025,8.14153 -5.24809,14.0481 3.51435,6.796 11.37835,9.21352 15.57705,4.78864 z M 111.60424,151.9267 v -34.5 h -24.500003 -24.5 l 0.0119,12.75 c 0.007,7.45662 0.56777,14.82584 1.35084,17.75 1.88003,7.02044 7.03593,16.82861 11.36564,21.62107 8.34986,9.2423 22.72056,16.67596 32.521653,16.82276 l 3.75,0.0562 z m -23.000003,21.5 c -2.63204,-2.63204 -2.52282,-5.03474 0.5,-11 3.44348,-6.79538 3.28459,-8.63023 -0.81392,-9.39911 -3.31319,-0.62156 -8.42887,-5.11706 -10.56609,-9.28515 -0.61599,-1.20134 -1.11999,-4.39729 -1.11999,-7.10212 0,-6.29684 2.98166,-10.93843 8.96996,-13.96362 5.60644,-2.83229 9.45873,-2.82387 14.500473,0.0317 3.81174,2.1589 8.56269,7.81376 8.49916,10.1162 -0.0167,0.60617 -0.48909,0.31461 -1.0497,-0.6479 -1.41464,-2.42882 -6.23024,-4.75 -9.854453,-4.75 -1.93924,0 -4.21221,1.05283 -6.29966,2.91797 -2.8901,2.5823 -3.26578,3.51254 -3.26578,8.08658 0,4.37149 0.41521,5.52576 2.69223,7.48438 1.48073,1.27366 4.51333,2.62343 6.73912,2.99947 3.546793,0.59923 3.924673,0.91212 3.057783,2.53192 -0.54402,1.01651 -0.989133,5.05013 -0.989133,8.9636 0,8.07823 -1.56988,12.04344 -5.47206,13.82139 -3.34536,1.52426 -3.17331,1.54932 -5.52794,-0.80531 z m -31.19451,-37.26701 0.30548,-4.767 -5.30548,2.0165 c -6.85774,2.60648 -15.17011,2.63567 -20.20067,0.0709 l -3.81807,-1.94656 1.85541,2.0502 c 4.99386,5.51816 14.89875,8.93007 22.85784,7.87378 3.97878,-0.52804 4.00162,-0.55615 4.30549,-5.29787 z m 134.608083,1.87052 c 2.24887,-1.31792 4.92379,-3.31882 5.94426,-4.44643 l 1.85541,-2.0502 -3.81806,1.94656 c -5.03057,2.56472 -13.34294,2.53553 -20.20068,-0.0709 l -5.30548,-2.0165 0.30548,4.767 c 0.30402,4.74408 0.32473,4.76951 4.30549,5.28576 5.57961,0.7236 12.09669,-0.59235 16.91358,-3.41524 z M 53.768217,130.73425 c 3.5924,-1.58496 3.83602,-1.96601 3.83602,-6 0,-4.71785 -0.47238,-5.06584 -3.75528,-2.7664 -3.59497,2.51801 -10.80959,4.25928 -16.4871,3.97921 -5.06965,-0.25009 -13.58817,-3.63731 -16.92809,-6.73113 -3.2773,-3.03582 -5.82953,-5.0666 -5.82953,-4.6385 0,1.36571 5.28648,7.2871 9.10727,10.20108 7.92115,6.04116 11.76684,7.5558 19.30671,7.60399 4.40463,0.0282 8.30622,-0.57005 10.75,-1.64825 z m 142.125853,-0.45418 c 5.8308,-2.97295 12.54566,-8.24184 15.35289,-12.04683 1.2965,-1.75731 2.35727,-3.40242 2.35727,-3.65581 0,-0.4281 -2.55223,1.60268 -5.82953,4.6385 -3.33992,3.09382 -11.85844,6.48104 -16.92809,6.73113 -5.67751,0.28007 -12.89213,-1.4612 -16.4871,-3.97921 -3.28402,-2.30023 -3.75528,-1.95156 -3.75528,2.77838 0,3.88861 0.32423,4.47421 3.25,5.87001 5.15234,2.45802 16.91139,2.27866 22.03984,-0.33617 z m -30.28984,-7.38855 v -5.46482 h -24.5 -24.49999 v 6.05902 l 3e-5,34.98641 v 27.95455 h 3.39466 c 1.86707,0 6.47957,-0.94776 10.25,-2.10614 l -3e-5,2e-5 c 7.81538,-2.40108 17.20497,-8.64403 23.1373,-15.38351 7.16182,-8.13625 12.18398,-21.14314 12.20616,-31.61271 z M 52.287407,120.315 c 4.10262,-2.03418 4.86329,-2.87019 5.13019,-5.6383 0.17235,-1.7875 0.0837,-3.25 -0.19709,-3.25 -0.28074,0 -2.62628,1.125 -5.21229,2.5 -8.79336,4.67547 -25.07155,3.07316 -34.90398,-3.43571 -2.2,-1.45636 -4.675,-3.05299 -5.5,-3.54807 -3.1930804,-1.91615 1.96945,3.68373 8.75658,9.49839 0.69112,0.5921 4.06612,2.43446 7.5,4.09413 5.49385,2.65529 7.04579,2.96657 12.92659,2.59272 4.32795,-0.27513 8.38068,-1.26652 11.5,-2.81316 z m 148.121783,0.12738 c 3.46772,-1.6405 6.95279,-3.63057 7.7446,-4.42238 0.79181,-0.79181 2.45458,-2.27551 3.69504,-3.29711 3.07144,-2.52951 6.66201,-6.87855 4.7554,-5.7599 -0.825,0.48404 -3.3,2.07164 -5.5,3.528 -6.23885,4.12999 -12.94041,5.93571 -22.0292,5.93571 -6.79729,0 -8.96432,-0.42079 -12.87478,-2.5 -2.58601,-1.375 -4.90304,-2.5 -5.14893,-2.5 -0.2459,0 -0.44709,1.33963 -0.44709,2.97695 0,3.40894 2.49586,5.45298 9.22358,7.55386 7.2834,2.27439 13.54549,1.8134 20.58138,-1.51513 z M 111.36934,84.176699 111.10424,54.9267 86.854237,54.658921 l -24.25,-0.267778 V 83.90892 113.4267 h 24.51511 24.515103 z M 75.569057,94.49244 c 1.47803,-2.761738 1.3427,-22.358219 -0.16482,-23.86574 -0.93333,-0.933333 0.29671,-1.2 5.53518,-1.2 6.349,0 6.67583,0.110907 5.7,1.934259 -0.56935,1.063842 -1.03518,3.988842 -1.03518,6.5 v 4.56574 h 4 4 v -4.940982 c 0,-2.717541 -0.45,-5.219098 -1,-5.559017 -2.54711,-1.5742 -0.43629,-2.5 5.7,-2.5 5.211113,0 6.433333,0.266667 5.500003,1.2 -1.65047,1.650467 -1.65047,22.949532 0,24.599999 0.93333,0.933333 -0.29671,1.2 -5.535183,1.2 -6.349,0 -6.67583,-0.110907 -5.7,-1.934259 0.56935,-1.063842 1.03518,-3.313842 1.03518,-5 0,-2.910031 -0.20316,-3.065741 -4,-3.065741 -3.96491,0 -4,0.03333 -4,3.8 0,2.09 0.54,4.34 1.2,5 0.93333,0.933333 -0.29671,1.2 -5.53518,1.2 -6.349,0 -6.67583,-0.110907 -5.7,-1.934259 z M 165.60423,83.90892 V 54.391143 l -24.25,0.267778 -24.24999,0.267779 -0.2651,29.249999 -0.26511,29.250001 h 24.5151 24.5151 z m -32.482,19.26778 c -1.09386,-3.2614 -2.614,-9.98732 -2.32303,-10.278293 0.17952,-0.179525 2.7966,0.526209 5.81571,1.568296 6.65868,2.298323 9.3605,2.422598 10.95297,0.503801 1.84661,-2.225031 0.33768,-3.543805 -4.05479,-3.543805 -5.00461,0 -10.42154,-2.22093 -11.82836,-4.8496 -0.59427,-1.110405 -1.08049,-3.59084 -1.08049,-5.512078 0,-4.036582 3.10942,-7.093348 8.29695,-8.156451 1.76167,-0.361027 5.13903,-1.568653 7.50523,-2.683614 2.36621,-1.114961 4.44066,-1.863189 4.60989,-1.662729 0.16923,0.20046 0.56814,2.672939 0.88647,5.494397 l 0.57878,5.129924 -6.42277,-0.515559 c -8.31922,-0.667787 -11.5865,1.480913 -7.88313,5.184281 1.06693,1.066932 3.43146,1.571429 7.36514,1.571429 4.34715,0 6.45158,0.517479 8.42857,2.07258 6.08021,4.782689 0.9408,13.623771 -9.18157,15.794631 -6.89612,1.47895 -11.14455,1.43627 -11.66557,-0.11721 z m -81.267993,6.34007 c 4.28905,-1.66621 5.75,-2.73261 5.75,-4.1971 0,-1.59859 -0.34282,-1.77987 -1.8453,-0.97576 -5.60365,2.99898 -13.75858,3.17895 -21.92323,0.48381 -8.72645,-2.88058 -13.68367,-5.874147 -18.14887,-10.959725 C 10.999917,88.529892 9.3507766,84.133342 8.5819566,74.9267 l -0.66806,-8 -0.15483,8.555828 c -0.17456,9.646005 2.01038,17.669843 6.6384204,24.378492 3.20448,4.64511 11.02503,10.51426 15.5204,11.64771 5.32847,1.34351 15.79753,0.39285 21.93635,-1.99196 z M 205.3368,107.84621 c 10.45071,-7.2038 15.37699,-17.753452 15.1126,-32.363682 l -0.15483,-8.555828 -0.66806,8 c -0.76882,9.206642 -2.41796,13.603192 -7.10488,18.941295 -4.4652,5.085578 -9.42242,8.079145 -18.14887,10.959725 -8.16465,2.69514 -16.31958,2.51517 -21.92323,-0.48381 -1.50015,-0.80286 -1.8453,-0.62327 -1.8453,0.96013 0,1.45818 1.57084,2.57055 6.25,4.42587 5.13854,2.03747 7.72126,2.43884 14.52323,2.25699 7.82813,-0.20928 8.57914,-0.43205 13.95934,-4.14069 z M 55.854237,99.90103 c 0.9625,-0.378571 1.75,-1.540164 1.75,-2.58132 0,-1.730092 -0.8535,-1.893011 -9.91709,-1.893011 -7.49035,0 -10.97738,-0.4589 -14.25,-1.875328 -9.22904,-3.994424 -13.78899,-11.310941 -13.78899,-22.124671 0,-12.068273 6.43483,-20.794678 17.24698,-23.388977 4.23492,-1.01614 2.21744,-2.611023 -3.30286,-2.611023 -8.02132,0 -13.03762,3.283591 -17.07344,11.175988 -6.19627,12.117358 -1.07992,30.880169 10.65108,39.059943 6.08635,4.243889 11.94365,5.813119 19.93432,5.340629 3.85,-0.22766 7.7875,-0.72366 8.75,-1.10223 z m 136.318493,0.0111 c 20.84712,-6.40251 29.4914,-34.389717 15.28433,-49.48543 -3.29456,-3.500639 -7.14518,-5 -12.84087,-5 -5.5203,0 -7.53778,1.594883 -3.30286,2.611023 10.81215,2.594299 17.24698,11.320704 17.24698,23.388977 0,10.81373 -4.55995,18.130247 -13.78899,22.124671 -3.27262,1.416428 -6.75965,1.875328 -14.25,1.875328 -9.21863,0 -9.91709,0.139518 -9.91709,1.980948 0,1.347332 0.8796,2.174953 2.75,2.587473 1.5125,0.33359 3.2,0.75663 3.75,0.9401 2.63624,0.87941 10.64422,0.3357 15.0685,-1.02307 z M 57.600497,82.176699 l -0.004,-10.249999 -1.95204,3.201451 c -5.24524,8.602487 -19.38935,8.33864 -23.57807,-0.43983 -1.23283,-2.583696 -1.3073,-3.695598 -0.36836,-5.5 1.69574,-3.258784 1.69824,-3.259572 3.92876,-1.240975 1.98322,1.794787 2.07377,1.786481 3.55339,-0.325977 0.998,-1.424843 2.27318,-2.026437 3.72106,-1.755493 1.2115,0.226712 2.62625,0.445643 3.14387,0.486514 0.51762,0.04087 0.13119,0.666554 -0.85874,1.390407 -2.80424,2.050484 -1.64501,5.183903 1.91779,5.183903 8.63566,0 5.84617,-16.869053 -3.16341,-19.130315 -3.9028,-0.979538 -9.47277,0.612429 -12.40618,3.545839 -5.87172,5.871725 -5.98102,16.979747 -0.25396,25.812176 4.21076,6.493962 9.78354,8.977858 20.57333,9.169938 l 5.75,0.102361 z m 132.778083,7.256669 c 7.69109,-4.322635 12.58868,-16.231034 10.24896,-24.92012 -2.06571,-7.671428 -9.38665,-12.467091 -16.36012,-10.716863 -9.00958,2.261262 -11.79907,19.130315 -3.16341,19.130315 3.5628,0 4.72204,-3.133419 1.91783,-5.183903 -0.98993,-0.723853 -1.37636,-1.349537 -0.85874,-1.390407 0.51762,-0.04087 1.93236,-0.259802 3.14387,-0.486514 1.44788,-0.270944 2.72306,0.33065 3.72106,1.755493 1.47962,2.112458 1.57017,2.120764 3.55339,0.325977 2.23052,-2.018597 2.23302,-2.017809 3.92876,1.240975 0.93894,1.804402 0.86447,2.916304 -0.36836,5.5 -4.18872,8.77847 -18.33283,9.042317 -23.57807,0.43983 l -1.95204,-3.201451 -0.004,10.392892 -0.004,10.392893 7.93804,-0.544086 c 5.53444,-0.379338 9.11842,-1.207495 11.83631,-2.735031 z M 11.665127,59.6767 c 1.00466,-2.3375 1.6361,-4.25 1.4032,-4.25 -0.85823,0 -4.4615104,7.978856 -4.3851404,9.710162 0.0611,1.385946 0.20039,1.451351 0.61711,0.289838 0.29599,-0.825 1.3601704,-3.4125 2.3648304,-5.75 z M 217.64271,59.502119 c -2.8909,-5.666626 -3.17454,-5.086103 -0.65895,1.34867 1.16626,2.983249 2.25943,4.817187 2.42927,4.075419 0.16984,-0.741768 -0.62681,-3.182608 -1.77032,-5.424089 z M 87.104237,49.481343 c -6.66048,-2.726083 -8.05009,-11.386942 -2.60728,-16.250093 3.54401,-3.166572 4.91194,-3.477162 5.74565,-1.30455 0.31659,0.825 1.59736,1.5 2.84617,1.5 3.10495,0 4.88149,2.405488 4.09395,5.543311 -0.6067,2.417267 -0.90914,2.529651 -5.11167,1.899442 -3.7203,-0.557893 -4.46682,-0.400175 -4.46682,0.943703 0,2.579168 3.74521,5.613544 6.92857,5.613544 3.39052,0 5.787433,-2.076056 7.710343,-6.678223 3.84676,-9.206578 -1.09216,-17.560475 -10.605673,-17.938899 -6.6518,-0.264593 -9.33952,2.165267 -14.4195,13.03613 -4.05106,8.669044 -6.92368,12.097132 -11.61374,13.85946 -0.825,0.31 4.125,0.57064 11,0.579198 7.43324,0.0093 11.68932,-0.316244 10.5,-0.803023 z m 75.499993,0.223825 c -4.69006,-1.762328 -7.56268,-5.190416 -11.61374,-13.85946 -5.07998,-10.870863 -7.7677,-13.300723 -14.4195,-13.03613 -9.5135,0.378424 -14.45242,8.732321 -10.60566,17.938899 1.92291,4.602167 4.31982,6.678223 7.71034,6.678223 3.18335,0 6.92856,-3.034376 6.92856,-5.613544 0,-1.343878 -0.74652,-1.501596 -4.46682,-0.943703 -4.20252,0.630209 -4.50496,0.517825 -5.11166,-1.899442 -0.78754,-3.137823 0.989,-5.543311 4.09394,-5.543311 1.24881,0 2.52958,-0.675 2.84617,-1.5 0.83371,-2.172612 2.20164,-1.862022 5.74565,1.30455 5.44281,4.863151 4.0532,13.52401 -2.60728,16.250093 -1.18932,0.486779 3.06676,0.812277 10.5,0.803023 6.875,-0.0086 11.825,-0.269198 11,-0.579198 z M 110.80424,206.22671 c -2.63275,-2.63275 -0.61041,-6.8 3.3,-6.8 4.11414,0 5.75508,3.60206 2.92857,6.42857 -1.87152,1.87152 -4.5677,2.0323 -6.22857,0.37143 z M 105.09249,19.110357 c -0.21893,-0.651011 -0.30585,-4.108657 -0.19316,-7.683657 0.19381,-6.1478885 0.34209,-6.5160045 2.73734,-6.7954285 1.46426,-0.170817 2.94055,-1.225315 3.5,-2.5 1.24733,-2.84199595 4.68781,-2.84199595 5.93514,0 0.55945,1.274685 2.03574,2.329183 3.5,2.5 1.9435,0.226725 2.60737,0.949013 2.85469,3.1059 0.17724,1.545759 -0.21536,3.4582595 -0.87245,4.2500005 -0.91711,1.105055 -0.91918,1.439528 -0.009,1.439528 0.73545,0 1.0668,1.234333 0.87245,3.25 l -0.31336,3.25 -8.80684,0.183657 c -6.03482,0.12585 -8.93214,-0.188908 -9.20491,-1 z"
     id="path1522"
     inkscape:connector-curvature="0"
     sodipodi:nodetypes="sssssscsccssssccsscccssscsscscssccssssssccscsssscssscssssssscsscccscsssssscccssscsssscsccsssssccssccscscscssscccssccsscssccscsssssccccccccsccsccccssscscsssccccssssccsssccccscsccccccsccccssccsccccscsccsscsccscccscccccccccscccsccssccccsssccscccccccccsccscccsscccccsccscccscsscccccccccccccscscccsssccscssscsccccccccccccscsssscsscscssscsscssscsssssscssscssssssscssssscscsssscssccccccssscccccsssssccccsssssccssscccsccssccscsscsscscssssssscsssssssscscsscsssssccssssccsccscc" />
  <path
     style="fill:#000000;fill-opacity:1"
     d="m 88.604237,173.4267 c -2.63204,-2.63204 -2.52282,-5.03474 0.5,-11 3.44348,-6.79538 3.28459,-8.63024 -0.81392,-9.39912 -3.31319,-0.62156 -8.42887,-5.11706 -10.56609,-9.28515 -0.61599,-1.20134 -1.11999,-4.39729 -1.11999,-7.10212 0,-6.29684 2.98166,-10.93842 8.96996,-13.96361 5.60644,-2.83229 9.45873,-2.82387 14.500473,0.0317 3.81174,2.1589 8.56269,7.81375 8.49916,10.11619 -0.0167,0.60617 -0.48909,0.31461 -1.0497,-0.6479 -1.41464,-2.42882 -6.23024,-4.75 -9.854453,-4.75 -1.93924,0 -4.21221,1.05283 -6.29966,2.91797 -2.8901,2.5823 -3.26578,3.51254 -3.26578,8.08658 0,4.37149 0.41521,5.52576 2.69223,7.48438 1.48073,1.27366 4.51333,2.62343 6.73912,2.99947 3.546793,0.59923 3.924673,0.91212 3.057783,2.53192 -0.54402,1.01651 -0.989133,5.05013 -0.989133,8.9636 0,8.07824 -1.56988,12.04345 -5.47206,13.8214 -3.34536,1.52426 -3.17331,1.54932 -5.52794,-0.80531 z m 77.000023,-41.70472 -4.29377,2.10235 -4.29377,2.10236 0.41303,8.13292 c 0.67431,13.27798 -2.57362,20.27477 -11.05702,23.81936 -4.67075,1.95157 -8.83636,1.96403 -13.44069,0.0402 -7.75861,-3.24176 -11.79085,-12.20257 -11.17602,-24.83638 0.32627,-6.70456 0.17472,-7.32677 -2.40175,-9.86066 l -2.75,-2.70454 0.99822,-1.58981 c 0.54903,-0.33933 1.98797,0.0763 3.19764,0.92357 2.08723,1.46195 2.26336,1.3884 3.45348,-1.44207 0.68974,-1.64042 1.73706,-2.98258 2.32736,-2.98258 0.5903,0 1.34327,1.35 1.67327,2.99999 0.33,1.65001 0.78371,3 1.00824,3 0.22454,0 2.62833,-1.125 5.34175,-2.5 5.65562,-2.86591 9.83168,-3.15551 14.04966,-0.97431 2.8481,1.4728 2.95159,1.44681 2.9863,-0.75 0.0353,-2.23197 0.0792,-2.22286 2.28757,0.47432 2.3945,2.92454 6.22274,3.59837 9.74221,1.71482 M 146.48736,157.796 c 3.10001,-2.17133 4.8946,-6.74348 5.68856,-14.49297 l 0.6542,-6.38539 -5.54683,-1.88542 c -5.40176,-1.83612 -5.73163,-1.83749 -12.61294,-0.0527 l -7.06611,1.8327 v 6.33935 c 0,11.25598 3.70073,16.27512 11.99999,16.27512 2.59266,0 5.55797,-0.70252 6.88313,-1.63069 z M 75.569057,94.49244 c 1.47803,-2.761738 1.3427,-22.358219 -0.16482,-23.86574 -0.93333,-0.933333 0.29671,-1.2 5.53518,-1.2 6.349,0 6.67583,0.110907 5.7,1.934259 -0.56935,1.063842 -1.03518,3.988842 -1.03518,6.5 v 4.56574 h 4 4 v -4.940982 c 0,-2.717541 -0.45,-5.219098 -1,-5.559017 -2.54711,-1.5742 -0.43629,-2.5 5.7,-2.5 5.211113,0 6.433333,0.266667 5.500003,1.2 -1.65047,1.650467 -1.65047,22.949532 0,24.599999 0.93333,0.933333 -0.29671,1.2 -5.535183,1.2 -6.349,0 -6.67583,-0.110907 -5.7,-1.934259 0.56935,-1.063842 1.03518,-3.313842 1.03518,-5 0,-2.910031 -0.20316,-3.065741 -4,-3.065741 -3.96491,0 -4,0.03333 -4,3.8 0,2.09 0.54,4.34 1.2,5 0.93333,0.933333 -0.29671,1.2 -5.53518,1.2 -6.349,0 -6.67583,-0.110907 -5.7,-1.934259 z m 57.553173,8.68426 c -1.09386,-3.2614 -2.614,-9.98732 -2.32303,-10.278293 0.17952,-0.179525 2.7966,0.526209 5.81571,1.568296 6.65868,2.298323 9.3605,2.422598 10.95297,0.503801 1.84661,-2.225031 0.33768,-3.543805 -4.05479,-3.543805 -5.00461,0 -10.42154,-2.22093 -11.82836,-4.8496 -0.59427,-1.110405 -1.08049,-3.59084 -1.08049,-5.512078 0,-4.036582 3.10942,-7.093348 8.29695,-8.156451 1.76167,-0.361027 5.13903,-1.568653 7.50523,-2.683614 2.36621,-1.114961 4.44066,-1.863189 4.60989,-1.662729 0.16923,0.20046 0.56814,2.672939 0.88647,5.494397 l 0.57878,5.129924 -6.42277,-0.515559 c -8.31922,-0.667787 -11.5865,1.480913 -7.88313,5.184281 1.06693,1.066932 3.43146,1.571429 7.36514,1.571429 4.34715,0 6.45158,0.517479 8.42857,2.07258 6.08021,4.782689 0.9408,13.623771 -9.18157,15.794631 -6.89612,1.47895 -11.14455,1.43627 -11.66557,-0.11721 z"
     id="path1522-9"
     inkscape:connector-curvature="0"
     sodipodi:nodetypes="scccsccccscsccsscscccsscccccccscsccccccsccccsscccscscccsssccscssscscccccssssssscscsssc" />
</svg>
