<?xml version="1.0" encoding="UTF-8" standalone="no"?>

<svg width="593pt" height="1020" viewBox="0 0 593 765" xmlns="http://www.w3.org/2000/svg"><g fill="#2b2829"><path d="M0 0h593v361.33c-1.42 11.94-1.73 23.98-3.28 35.92-5.29 45.67-17.82 90.68-38.53 131.8-18.28 36.38-42.99 69.57-72.94 97.18-42.56 39.5-95.36 67.21-151.23 82.47-10.24 3.05-20.75 5.06-31.1 7.67-20.63-4.8-41.25-9.83-61.14-17.19-35.29-12.68-68.85-30.44-98.57-53.37-30.49-23.38-56.85-52.11-77.55-84.47-24.47-38.1-41.1-81.03-50.06-125.36-4.98-23.54-7.51-47.55-8.6-71.57zm2.86 2.83c-.1 107.75-.02 215.49-.04 323.24-.13 25.06.14 50.21 3.34 75.11 3.91 32.81 11.67 65.21 23.59 96.05 13.98 36.28 33.95 70.32 59.33 99.8 24.68 28.68 54.36 53.01 87.23 71.74 36.7 21.19 77.2 35.36 118.62 43.92 3.93.23 7.68-1.35 11.5-2.08 55.95-12.51 109.74-36.72 154.19-73.2 7.56-6.14 14.74-12.72 21.82-19.4 42.11-40.88 72.54-93.15 89.33-149.26 12.35-40.69 17.84-83.28 17.86-125.75.04-112.34-.03-224.69.03-337.04-.22-1.09.51-3.53-1.48-3.11-195.1-.06-390.22-.03-585.32-.02"/><path d="M227.95 115.86c2.03 1.17 3.16 3.19 3.96 5.33.72.98 1.46 1.94 2.19 2.92-1.52.88-2.62.57-3.31-.95-1.34-2.26-2.15-4.78-2.84-7.3"/></g><path fill="#f4cb05" d="M2.86 2.83c195.1-.01 390.22-.04 585.32.02 1.99-.42 1.26 2.02 1.48 3.11-.06 112.35.01 224.7-.03 337.04-.02 42.47-5.51 85.06-17.86 125.75-16.79 56.11-47.22 108.38-89.33 149.26-.89-2.73-1.99-5.38-3.2-7.98 26.61-26.31 48.42-57.36 64.68-91.04 20.06-41.61 31.77-87.02 35.93-132.96 2.43-23.61 1.9-47.37 1.97-71.07-.05-101.45.12-202.9-.08-304.35-190.37.12-380.73.05-571.1.03-.03 111.44-.02 222.87-.01 334.3-.07 46.39 6.6 92.98 21.79 136.89 13.56 39.48 34.18 76.64 61.28 108.44 24.3 28.67 53.74 52.9 86.33 71.58 35.32 20.44 74.22 34.23 114.06 42.7 4.41.59 8.63-1.26 12.9-2.08 54.94-12.58 107.54-36.9 151.01-73.02 1.9 2.26 4.41 4.85 2.62 7.96-44.45 36.48-98.24 60.69-154.19 73.2-3.82.73-7.57 2.31-11.5 2.08-41.42-8.56-81.92-22.73-118.62-43.92-32.87-18.73-62.55-43.06-87.23-71.74-25.38-29.48-45.35-63.52-59.33-99.8-11.92-30.84-19.68-63.24-23.59-96.05-3.2-24.9-3.47-50.05-3.34-75.11.02-107.75-.06-215.49.04-323.24"/><path fill="#242827" d="M10.64 10.64c190.37.02 380.73.09 571.1-.03.2 101.45.03 202.9.08 304.35-.07 23.7.46 47.46-1.97 71.07-4.16 45.94-15.87 91.35-35.93 132.96-16.26 33.68-38.07 64.73-64.68 91.04-6.84 6.73-13.93 13.2-21.24 19.42-43.47 36.12-96.07 60.44-151.01 73.02-4.27.82-8.49 2.67-12.9 2.08-39.84-8.47-78.74-22.26-114.06-42.7-32.59-18.68-62.03-42.91-86.33-71.58-27.1-31.8-47.72-68.96-61.28-108.44-15.19-43.91-21.86-90.5-21.79-136.89-.01-111.43-.02-222.86.01-334.3m3.12 3.2c-.02 98.05-.01 196.1-.01 294.15.09 21.67-.4 43.37.87 65.02 1.88 32.07 7.21 63.99 16.55 94.75 12.58 41.61 32.74 81.06 60.2 114.83 23.87 29.64 53.28 54.72 86.01 74.1 36.26 21.63 76.48 36.13 117.72 44.82 3.05.2 5.98-1.05 8.95-1.59 41.33-9.3 81.37-25.04 117.24-47.68 30.67-19.36 58.19-43.78 80.71-72.23 25.17-31.6 44.21-67.92 56.72-106.29 14.09-42.71 20.1-87.84 19.97-132.74-.02-109.06.07-218.11-.05-327.17-188.29.05-376.59-.01-564.88.03"/><path fill="#fff" d="M13.76 13.84c188.29-.04 376.59.02 564.88-.03.12 109.06.03 218.11.05 327.17.13 44.9-5.88 90.03-19.97 132.74-12.51 38.37-31.55 74.69-56.72 106.29-22.52 28.45-50.04 52.87-80.71 72.23-35.87 22.64-75.91 38.38-117.24 47.68-2.97.54-5.9 1.79-8.95 1.59-41.24-8.69-81.46-23.19-117.72-44.82-32.73-19.38-62.14-44.46-86.01-74.1-27.46-33.77-47.62-73.22-60.2-114.83-9.34-30.76-14.67-62.68-16.55-94.75-1.27-21.65-.78-43.35-.87-65.02 0-98.05-.01-196.1.01-294.15m8.94 8.96c.07 103.39.01 206.78.03 310.18-.66 41.77 3.31 83.84 14.69 124.13 12.01 43.38 32.36 84.63 60.78 119.64 24.52 30.4 54.96 55.94 88.9 75.24 33.77 19.33 70.85 32.54 108.87 40.52 34.7-7.22 68.54-19.03 99.81-35.78 32.62-17.44 62.32-40.41 87.01-67.97 27.2-30.11 48.22-65.62 62.41-103.59 16.57-44.05 24.14-91.21 24.49-138.19.11-108.07.02-216.13.04-324.2-182.34.04-364.69.01-547.03.02"/><g fill="#272624"><path d="M22.7 22.8c182.34-.01 364.69.02 547.03-.02-.02 108.07.07 216.13-.04 324.2-.35 46.98-7.92 94.14-24.49 138.19-14.19 37.97-35.21 73.48-62.41 103.59-24.69 27.56-54.39 50.53-87.01 67.97-31.27 16.75-65.11 28.56-99.81 35.78-38.02-7.98-75.1-21.19-108.87-40.52-33.94-19.3-64.38-44.84-88.9-75.24-28.42-35.01-48.77-76.26-60.78-119.64-11.38-40.29-15.35-82.36-14.69-124.13-.02-103.4.04-206.79-.03-310.18m6.04 5.89c-.27 105.42-.05 210.85-.11 316.27.04 45.54 6.63 91.31 22.02 134.27 13.81 39.29 35.22 75.99 63.23 106.85 2.39 2.34 4.3 6.19 8.11 6.16 12.66.17 25.34-.05 38.01.1 5.23.72 8.67-4.05 13.43-5.27 1.05-1.72 1.61-4.06 3.65-4.89 6.27-3.06 13.76-1.89 19.93-5.24 2.51-1.43 4.93-3.02 7.32-4.65 2.6-1.58 3.64-4.59 5.01-7.13 1.06-2.31 2.43-4.54 2.89-7.06 1.38-19.69 1.79-39.49.32-59.19a92 92 0 0 1-5.42 2.99c.39-3.36 3.01-5.77 4.17-8.83 1.07-2.37 1.01-5.01 1.01-7.54-2.94 2.93-5.34 6.45-8.91 8.69-.11-2.23.82-4.25 1.66-6.25 2-4.67.85-10.1-1.46-14.44-4.26-7.79-8.64-15.74-10.35-24.54-.98-4.77-.37-9.75-1.86-14.42-1.39-4.81-4.9-8.6-6.74-13.21-2.61-6.21-4.11-12.83-5.56-19.38-1.2-5.23-.14-10.68-1.01-15.9-2.99-5.48-7.58-9.87-11.02-15.07-7.69-10.05-12.41-21.98-16.04-34.02-3.18-10.62-3.98-21.81-3.22-32.85-.33.37-.99 1.11-1.32 1.47-.59.05-1.75.16-2.33.21 2.31-12.65 6-25.45 13.72-35.94 4.1-5.79 9.26-10.72 14.89-15-2.21-.28-4.47-.5-6.52-1.42.42-1.33 2.06-1.54 3.11-2.19 8.13-3.41 16.13-7.89 21.68-14.93-3.73.11-7.46.22-11.19.14 1.81-1.74 3.69-3.39 5.64-4.97 7.51-6.66 13.19-15.75 14.39-25.85-3.43-.03-7.11.43-10.28-1.2-4.6-1.95-8.68-6.2-8.78-11.44-.06-5.66 2.31-11.11 5.55-15.66 3.56-5.07 8.75-8.61 12.81-13.23 2.67-3 4.46-6.63 6.47-10.07-6.73 3.22-14.16 5.36-21.69 4.24 4.18-2.44 8.92-3.94 12.56-7.23-3.64.57-7.28 1.43-10.99 1.17.89-1.03 1.84-2.06 3.15-2.55 5.78-2.5 11.89-5.01 16.21-9.78 2.01-1.96-.41-4.44-1.57-6.14-5.68-6.67-13.39-12.11-22.2-13.47l.56-1.51c5.7-2.77 12.01-3.79 18.31-3.19-2.21-2.35-4.46-4.84-5.38-8.01-2.58-7.25-3.89-15.93.07-22.93 1.71-3.61 7.5-4.65 9.96-1.28 1.37 2.16 2.12 4.64 3.07 7-.18-6.37-1.78-13.35 1.62-19.18 1.79-3.46 7.73-3.68 9.65-.25 2.14 3.61 2.87 7.82 4.73 11.55.32.1.97.29 1.29.39 2.75-5.79 3.3-13.05 8.53-17.38 1.83-1.79 4.53-.92 6.81-1.01 4.49 5.31 4.67 12.5 3.28 18.99.33-.04.99-.13 1.32-.18 2.19-4.58 4.78-9.47 9.31-12.11 2.72-1.74 6.49-.47 8.07 2.19 1.33 4.85.82 10.03-.66 14.79 4.03-2.53 7.29-6.49 12.03-7.72 3.37.03 6.53 3.05 5.89 6.56-1.05 3.59-3.22 6.71-4.71 10.13 3.98-1.65 7.64-4.97 12.19-4.5 3.91.16 6.04 5.26 3.8 8.32-2.11 2.71-4.77 4.94-6.83 7.7 4.53-1.98 9.38-3.25 14.31-2.04 1.34 2.2 2.99 4.67 2.07 7.37-1.63 3.24-4.92 5.12-7.61 7.37 3.44.14 6.91-.1 10.34.32 2.23 1.04 4.06 3.84 3.34 6.35-1.33 3-4.07 5.1-7.02 6.37-11.63 5.26-25.18 6.81-37.4 2.64 1.27 7.14 4.03 13.88 6.01 20.83 5.83 16.75 11.82 33.65 21.27 48.76 3.64 5.9 9.22 10.19 13.45 15.62.92.93.86 2.26.98 3.47-6.23-.8-11.83-3.57-17.61-5.76 3.93 12.26 11.13 23.2 19.9 32.53-.49.14-1.49.42-1.98.55-5.7-1.08-10.32-4.86-15.53-7.17 3.12 10.59 9.51 19.71 16.07 28.43-.37.3-1.1.91-1.47 1.21-4.48-1.64-8.3-4.58-12.26-7.17 1.2 7.48 3.18 15.01 2.25 22.64-.78 6.31-1.39 12.72-.73 19.07.46 4.32 2.56 8.19 4.63 11.93-3.33-.1-5.94-2.25-8.64-3.91.47 6.51 3.39 12.53 7.14 17.77 2.54-5.48 5.05-10.98 8.23-16.13 9.24-16.74 23.72-30.25 40.22-39.71 18-9.75 38.59-14.44 59-14.46 22.72.35 44.18 9.9 62.44 22.9 6.88 4.28 12.49 10.17 18.04 16.01 24.42 26.99 34.82 65.42 28.88 101.17-3.05 16.65-8.58 33.72-20.74 46.03-2.26 1.95-4.12 5.1-7.43 5.13 7.67-14.9 10.58-32.25 7.96-48.82-1.55 6.07-2.03 12.35-3.63 18.41-3.08 12.85-8.19 25.88-18.09 35.03-2.57 2.35-4.81 5.35-8.29 6.39 1.54-4.79 4.21-9.12 5.73-13.92 3.98-10.29 4-21.65 2.68-32.46-3.42 18.46-12.38 36.03-26.1 48.95-3.25 2.77-6.55 5.49-9.69 8.38-.62.03-1.87.1-2.49.13 4.5-5.42 7.62-11.79 10.48-18.18 3.15-7.09 5.5-14.66 5.73-22.46-2.88 6.94-5.65 14.01-10 20.21-6.62 9.81-14.97 19.49-26.52 23.41 5.75-9.26 12.65-18.24 15.04-29.09-5.53 9.25-11.37 18.64-19.82 25.54-3.69 2.96-7.57 6.18-12.43 6.83 1.31-3.8 4.56-6.38 6.6-9.74 5.13-7.9 9.67-16.67 10.41-26.21-5.35 14.33-15.57 27.13-29.04 34.58-1.5.94-3.27 1.23-4.96 1.61 5.14-8.17 11.64-15.79 14.17-25.32-4.42 6.4-9.52 12.35-15.38 17.48-2.4 2.04-4.77 4.37-7.95 5.11.82-2.08 1.73-4.11 2.69-6.12-.06-.36-.12-.72-.16-1.07-3.05 2.75-6.46 5.07-10.2 6.74.74-3.04 2.73-5.48 4.23-8.14 2.55-4.72 4.61-9.75 5.45-15.08-6.59 6.65-10.55 15.24-13.87 23.84-.32-.03-.96-.07-1.28-.09-3.01-5.54-3.81-11.86-4.93-17.96-2.39 2.59-4.55 5.43-6.03 8.65-1.55 3.05-1.14 6.58-1.43 9.89-3.99-1.86-4.63-6.7-6.04-10.38-3.11 7.13-1.2 14.98-.22 22.35-8.54-5.14-9.13-16.3-10.85-25.11-.72 3.66-1.63 7.29-2.99 10.77-2.94-3.55-3.45-8.25-5.64-12.19-4.06 7.52-3.17 16.33-1.8 24.43-8.75-5.62-9.78-16.92-11.25-26.26-2.05 3.47-3.08 7.38-3.74 11.33-5.34-3.49-4.63-10.94-5.95-16.47-5.34 7.98-6.85 17.96-5.94 27.38-.89-.31-1.76-.67-2.61-1.06-5.29-6.28-5.46-14.82-6.49-22.54-1.94 3.25-2.57 7.04-4.02 10.5-2.93-2.76-2.64-7.03-3.12-10.7-4.98 6.01-13.07 9.09-16.6 16.32-1.7 6.24-.33 12.74.48 19.01-4.18-1.01-6.28-5.04-8.39-8.37-5.59 8.49-4.29 19.09-4.63 28.73 2.91.41 5.84.84 8.79.63 5.35-.23 10.22-2.68 15.23-4.32-.95 1.64-1.66 3.7-3.71 4.22-2.31-.03-4.41 1.05-6.61 1.58-4.84 1.38-10.05 1.12-14.83-.39-.15 1.51-.3 3.04-.44 4.57 7.5 1.78 14.5-2.03 20.93-5.33-2.22 4.44-7.27 5.83-11.55 7.45 3.05-.04 6.2.06 9.08-1.14 2.98-.92 5.66-3.12 8.92-2.81-5.87 8.35-15.31 14.97-25.95 13.84-1.14 6.15-.74 12.44.03 18.62 2.77 1.02 5.79 3.67 8.77 1.81 4.48-2.17 9.15-4.05 14.08-4.87 2.28-.31 4.14 1.39 6.06 2.35 5.47-.45 10.83 2.69 13.02 7.74 1.06 3.27.5 6.8.35 10.17-2.85-1.2-2.28-5.19-4.91-6.6-3.11-1.67-7.56-3.47-10.53-.6 3.31 1.52 7 2.81 9.23 5.89 2.36 3.1 4.44 7.77 1.75 11.29-1.22-2.37-2.12-5.35-4.86-6.4-4.43-2.39-9.48-1.21-14.13-.36-2.85.67-5.09-1.41-7.17-2.97-2.43.45-4.88.84-7.33 1.11-2.34 3.97-6.3 6.78-10.97 7.12-.49 2.91-1.07 5.82-1.97 8.64 77.81.02 155.62-.01 233.43.01 2 .07 4.13-.29 5.48-1.91a312 312 0 0 0 47.32-65.71c20.63-37.95 33.27-79.97 39.12-122.68 3.17-22.53 4.07-45.31 3.92-68.04V77.07c-.19-16.16.37-32.34-.29-48.48-178.26.19-356.51-.02-534.77.1m206.04 42.04c-3.12 6.2-3.6 13.65-8.48 18.93-1.48-.1-3.12.38-4.47-.34-4.23-4.26-2.83-11.66-7.84-15.29-4.2 5.97.97 14.37-3.69 20.28-.86 1.61-2.84 1.51-4.34 1.01-2.07-2.92-2.26-6.83-4.96-9.4-1.1 1.24-2.68 2.25-3 4-1.34 6.68-.47 14.04 3.29 19.83 1.31 2.3 4.39 4.01 6.91 2.56 1.59-1.79 1.97-4.26 2.84-6.43 1.33 1.45 2.21 3.36 3.84 4.5 4.25 1.68 6.66-3.06 9.24-5.51 1.03 1.62 2.07 3.24 3.11 4.86 2.54.18 5.06-.25 7.25-1.6 1.28 2.48 2.64 5.22 5.36 6.41 3 1.67 6.63 1.11 9.66-.19.81 2.82 1.38 5.75 2.73 8.38 3.53 5.98 9.92 9.96 16.7 11.17 7.73 1.49 15.65.05 23.14-2 3.7-1.05 7.98-1.6 10.34-5.01-4.96-1.45-10.28-.49-15.13-2.36.05-1.38-.14-2.79.21-4.14 2.2-3.71 7.61-4.74 8.57-9.27-4.13.06-8.09 1.31-12.11 2.12-2.05.69-4.99-.82-4.7-3.22-.13-5.72 7.62-7.38 7.8-13.05-4.57 1.04-7.79 5.04-12.46 5.97-2.41 1.24-5.74.02-5.91-2.91.24-5.3 4.86-8.92 6.18-13.88-5.89.51-8.84 7.4-14.66 8.39-1.85.03-3.97-1.46-3.58-3.53.21-5.38 2.54-10.7.79-16.08-5.15 3.89-7.11 10.56-11.78 14.88-1.97 1.17-4.6.38-5.93-1.39-1.01-6.3.36-12.8-1.24-19.05-1.23.46-2.46.91-3.68 1.36m-15.99 42c-1.99.27-3.97-.26-5.93-.54-.97 2.85-3.56 4.25-6.37 4.73.54 1.98 1.1 3.95 1.69 5.91a32 32 0 0 1 3-3.25c2.96 1.46 3.44-2.8 5.87-3.59 6.82-3.84 15.34 4.78 11.69 11.59-2.55 5.82-11.15 6.54-15.1 1.86-1.58-2.04-1-4.78-1.88-7.07-.97-.45-1.66-.01-2.08 1.32-4.04-.73-7.31-3.44-11.28-4.33-4.15-1.11-8.49-.83-12.7-.33 10.11 3.95 21.01 9.68 24.78 20.63-4.79 7.01-11.26 12.81-18.82 16.69 9.06-1.84 18.27-6.79 22.43-15.39.42-2.73-.34-5.45-.79-8.13.57 1.06 1.16 2.11 1.76 3.16l.36-.83c-.71 2.29-.54 4.71-.62 7.07-1.91 2.9-3.7 6.19-3.46 9.78 3.2 4.92 9.16 9.69 15.37 7.66 6.38-1.48 12.61-6.75 12.78-13.69.34-4.79-3.65-8.1-5.39-12.19-1.33-2.47-.04-5.26.16-7.83-2.89 1.88-4.61 4.96-7.22 7.13-3.25 2.25-7.52 2.01-11.15.97l.41-.94c2.88.45 5.98.91 8.67-.56 3.27-1.44 4.39-5.09 6.75-7.5 1.34.17 2.68.38 4.01.64-.12 1.94-.59 3.93-.13 5.85 1.32 2.54 3.26 4.71 4.57 7.26 2.49 4.56 2.43 10.57-.59 14.87-3.71 5.48-10.11 8.59-16.62 9.08-1.61 3.56-3.24 7.26-3.31 11.24-.04 6.38.96 13.02-1.28 19.15-2.19 5.7-7.79 9.37-13.63 10.49-.22 5.55-1.28 11.14-3.88 16.09-2.28 4.73-6.01 8.51-9.69 12.16 3.28-.08 6.55-.51 9.65-1.62-1.76 2.73-3.25 5.63-5.21 8.21-4.5 5.44-10.56 9.19-16.35 13.07 3.37-.05 6.74-.23 10.12-.28-9.25 4.13-18.2 9.53-24.76 17.38-3.25 3.63-5.07 8.22-7.67 12.29-2.37 3.76-4.5 7.78-5.14 12.24 2.37-2.43 4.49-5.2 7.51-6.87 8.25-4.78 15.64-10.9 22.36-17.63 3.09-2.94 5.72-6.41 9.3-8.81-.99 2.8-2.67 5.27-4.16 7.82-4.71 8.48-6.55 18.37-5.91 28.01 3.84-3.43 7.06-7.46 10.68-11.11 6.63-6.24 6-16.9 13.19-22.75-.12 1.4-.46 2.77-1.08 4.03-4.83 9.83-3.86 21.26-2.15 31.74 4.76-5.93 10.9-10.52 16.03-16.09 3.91-4.34 3.8-10.53 4.62-15.96 2.44 1.66 3.06 4.71 3.85 7.36 2 8.83.38 17.89-1.09 26.66 6.03-5.85 12.44-11.91 15.36-20 1.46-3.68 1.27-7.7 1.52-11.58 2.38 2.48 3.32 5.84 3.87 9.14 1.66 9.28-.61 18.6-2.77 27.59 6.65-6.34 11.61-14.24 14.69-22.88 1.76-3.69 1.91-8.09 4.46-11.38.57 6.18-.75 12.37-.02 18.54.81 7.13 1 14.45 3.54 21.24 1.8-4.41 3.45-8.88 5.53-13.17 3.68-7.68 2.54-16.62 5.63-24.48 1.06 5.38.67 10.92 1.82 16.29 1.85 8.53 4.26 17.37 10.24 24.02-1.86-5.45-1.96-11.26-1.26-16.92 1.69-14.41-1.52-28.93-6.77-42.3 3.3 3.87 6.92 7.52 11.27 10.23-5.55-8.81-9.9-18.46-11.39-28.84 3.51 2.34 6.75 5.09 10.56 6.96-6.33-9.14-11.34-19.73-11.86-30.99 3.88 2.13 7.66 4.52 11.86 5.99-1.98-3.96-5.49-6.82-7.71-10.62-13.71-22.15-20.53-47.57-27.53-72.41-4.88-4.06-8.96-9.34-9.88-15.79-2.36-.21-4.74-.36-7.03-1-2.62-1.05-4.34-3.39-5.88-5.63-3.4 1.4-7.02.56-9.33-2.31-1.57 1.28-2.91 3.22-5.09 3.45m1 5.12c-3.78 1.06-6.52 5.76-3.9 9.2 2.19 4.73 10.79 3.47 10.95-1.94 1-4.08-2.95-8.22-7.05-7.26m-30.43 33.16c5.15-.32 9.87-2.73 14.18-5.4 1.82-1.03 2.79-2.95 3.73-4.73-5.66 3.95-12.05 6.57-17.91 10.13m13.97 15.32c-3.14 4.18-7.65 7.01-11.06 10.94-3.66 4.03-6.71 9.08-6.84 14.67-.04 4.11 3.66 7.19 7.42 8-1.99-3.6-4.25-7.72-2.82-11.94 2.45-9.73 12.7-14.6 16.26-23.74 1.21-2.64 1.83-6.02 4.9-7.16 1.25 4.89-.98 9.68-3.34 13.84-3.84 6.27-11.29 10.06-13.25 17.48-1.29 4.35 1.16 9.14 5.29 10.85 5.86 1.22 12.18-2.08 14.57-7.52 1-5.84-.37-11.81.49-17.68.25-4.49 1.9-8.68 3.01-12.98-2.52-2.17-5.46-3.79-8-5.96-2.18 3.75-3.84 7.83-6.63 11.2m152.66 112.58c-24.7 10.05-44.18 30.82-55.29 54.8-.99 2.28-2.51 4.69-1.62 7.26 4.83-7.9 10.03-15.77 17.08-21.89 25.83-23.48 63.3-32.61 97.28-25.73 20.19 4.25 38.15 16.18 51.86 31.36 14.78 16.72 23.16 38.3 26.42 60.19 1.41 12.38 5.08 24.54 4.77 37.09.14 9.1-2.29 17.93-5.47 26.37 6.06-6.83 9.76-15.37 12.65-23.94 2.75-8.28 5.32-16.69 6.25-25.4 1.91-14.7-.33-29.51-3.39-43.88-3.67-14.81-11.31-28.27-19.83-40.78-10.18-14.28-24.86-24.53-39.87-33.18-27.73-14.86-62.31-15.1-90.84-2.27m-199.38 15.68c-1.54 1.41-3.32 2.81-3.82 4.95-2.17 8.71-1.41 17.81-.31 26.62 1.62 10.85 6.53 20.78 10.74 30.8 4.81 10.45 12.99 18.74 19.62 28 .2 6.31-.37 12.7.93 18.93 1.62 8.51 5.17 16.53 9.49 24 4.51 8.39 3.23 18.38 6.43 27.2 1.74 6.06 5.87 10.97 8.46 16.63 1.22 2.51 1.47 5.39 2.9 7.81.93-3.73-.55-7.29-1.87-10.7 2.48 1.27 3.48 4.02 4.71 6.34 1.89 3.8 2.79 8 2.99 12.23.98-1.1 1.96-2.2 2.95-3.29-2.5-6.94-6.26-13.38-10.92-19.09-5.64-6.84-7.91-15.62-10.02-24.05-1.21-5.16-3.37-10.02-4.89-15.09 3.13 3.18 6.18 6.7 7.46 11.06 2.74 8.14 4.36 16.99 9.7 23.95 5.91 7.26 11 15.32 14.03 24.21 6.2-7.7 6.32-18.93 2.02-27.57 9.34 5.89 11.9 17.85 12.18 28.16 2.02-6.35 3.62-12.99 3.39-19.7-.05-3.92-1.37-7.65-2.13-11.46 3.99 3.38 5.58 8.57 7.44 13.27 2.51 6.22 2.29 13.01 3.16 19.55.61-5.66 1.34-11.34 3.23-16.73 1.47-4.06 2.22-8.47 1.25-12.74-.3-3.28-2.54-5.92-3.19-9.07.2-2.01 3.28-1.89 4.12-.44 4.94 6.3 5.02 15.14 2.47 22.45 5.73-4.48 11.22-9.51 15.22-15.63 3.5-8.62 3.35-18.14 4.02-27.27-10.62-4.15-20.79-9.32-31.18-13.97-11.58-6.63-23.6-12.84-33.46-21.97-1.22 3.12-1.48 7.2-4.84 8.89-.47-5.01-.69-10.21-2.93-14.82-3.23-6.77-8.67-12.07-13.17-17.96-13.06-17.58-19.44-40.47-15.39-62.18-.56-8.82-2.17-17.86.3-26.59-6.77 5.46-14.49 9.61-21.09 15.27m61.77-7.21c-6.94 6.1-14.21 12.32-18.33 20.79-2.85-6.53-3.42-13.71-4.52-20.68-3.53 4.14-7.62 7.74-11.43 11.62-2.18 2-2.42 5.12-3.07 7.83-4.28 21.67 3.21 44.36 16.76 61.36 4.58 6.09 10.29 11.56 12.78 18.95 2.69-3.01 5.4-6.2 6.48-10.18 2.12-8.32-.08-17.22-4.62-24.36 3.19.02 6.52.38 9.6-.69 4.97-2.11 8.57-6.82 9.87-12 1.22-5.87 1.14-12.15-.81-17.85 1.04.19 3.11.58 4.15.78 2.45 8.52 2.22 18.24-2.63 25.91 3.2 7.18 6.91 14.38 12.71 19.83 6.7 6.51 13.3 13.22 20.77 18.87-9.93-15.5-21.79-30.24-27.49-48.01-1.09-2.17 1.35-3.21 3.14-2.4 6.82 22.14 24.03 38.76 33.71 59.47 7.07 14.67 8.13 31.59 5.29 47.46-1.08 6.21-5.04 11.55-5.65 17.88-.46 2.62-.02 5.28.39 7.88 2.06-4.69 3.44-9.72 6.3-14.02 3.91-6.28 10.26-10.75 13.44-17.53 1.5-2.89 1.93-6.26 1.37-9.45-2.39-15.1-8.87-29.31-17.46-41.87-10.82-15.51-23.93-30.25-28.99-48.91 4.21-.52 5.34 4 6.66 7.01 7.43 17.17 20.13 31.23 30.07 46.91 9.74 16.17 15.3 35.12 14.42 54.06-.93 8.67-3.28 17.39-1.63 26.13 1.15-7.66 5.78-14.01 10.67-19.76 2.86-3.5 5.89-7.12 7.26-11.5 1.13-9.47-1.81-18.79-5.05-27.57-3.35-9.51-8.86-18.07-14.78-26.17-5.38-7.19-12.31-12.99-18.06-19.86-5.36-5.81-10.17-12.12-14.26-18.89-1.98-3.4-4.03-6.9-4.56-10.87.69-.02 2.06-.08 2.75-.11 1.99 4.82 4.04 9.68 7.08 13.96 7.76 11.64 19.3 20.02 27.68 31.16 13.3 16.1 23.21 36.17 22.86 57.45-.46 11.72-1.69 23.78 1.59 35.23.3-2.08.47-4.18.95-6.21 2.36-10.34 12.71-17.18 13.56-28.02-.34-24.24-12.69-46.95-29.55-63.79-10.65-10.68-22.89-20.03-31.3-32.73-1.38-2.24-3.02-4.47-3.35-7.14 1.31-.98 2.85-.59 3.66.79 2 2.99 3.86 6.1 6.14 8.9 7.64 10.31 18.32 17.71 26.97 27.08 7.9 8.55 15.51 17.54 21.01 27.86 7.62 13.53 11.75 29.44 9.58 44.96-1.21 9.7-1.36 19.6.53 29.23 1.21-11.17 12.23-17.59 14.62-28.21 1.49-19.1-4.41-38.51-15.49-54.07-15.04-20.99-38.21-33.83-55.44-52.7-1.48-1.42-2.51-3.21-2.72-5.27 1.19.34 2.67.31 3.49 1.43 7.06 8.01 15.08 15.13 23.52 21.64 12.66 9.14 24.37 19.79 33.74 32.32 10.84 14.53 17.68 32.38 17.19 50.67.69 11.7-7.47 22.75-3.62 34.44 2.74-9.6 9.49-17.09 14.84-25.26 2.3-3.24 2.98-7.27 3.11-11.16-.08-16.44-5.61-32.78-15.49-45.92-4.98-6.89-11.35-12.59-17.67-18.22-8.98-7.52-18.51-14.41-28.56-20.44-8.23-6-15.56-13.25-21.93-21.19-.19.03-.57.08-.76.1-3.5-6.27-5.78-13.3-5.6-20.55-3.96-4.55-6.38-10.12-8.12-15.84-3.96 7.16-7.19 14.69-9.91 22.4-5.77-8.09-7.52-18.06-8.81-27.69a40.6 40.6 0 0 1-7.74 11.03c-3.55 3.61-6.5 7.72-9.58 11.73-.88-2.73-1.91-5.47-1.88-8.38-.18-7.23 3.18-13.87 4.41-20.89-3.12 4.61-6.66 9-11.04 12.48-4.82 3.88-9.59 7.91-13.19 13-1.1-10.35 4.22-19.85 4.48-30.08-1.27 2.11-2.6 4.24-4.51 5.84m135.79 13.84c-21.48 7.47-39.89 22.48-52.61 41.21.87.75 1.74 1.51 2.61 2.26 12.4-15.38 29.69-26.78 48.82-31.82 18.35-4.85 38.22-5.34 56.3.92 19.75 6.64 36.75 20.59 47.7 38.24 8.87 14.04 13.94 30.39 14.9 46.95.79 15.18 4.44 30.32 2.38 45.55-.62 4.75-2.35 9.23-4.15 13.63 3.2-3.33 5.41-7.44 7.51-11.51 6.42-13.32 9.04-28.04 10.97-42.57.68-17.68-3.47-35.36-10.29-51.6-3.19-8.33-8.85-15.36-14.17-22.4-11.48-14.89-27.97-25.37-45.66-31.3-20.97-6.02-43.79-4.79-64.31 2.44m1.39 14.64c-18.6 4.38-35.83 15.08-47.14 30.58-.67 1.48 1.15 1.86 2.04 2.56 8.83-9.76 21.03-15.73 33.59-19.11 24.69-7.35 52.61-2.67 73.52 12.39 7.67 5.6 15.14 11.86 20.19 20.02 10.59 15.69 15.9 34.87 14.78 53.77-.37 5.99.3 11.98.03 17.98-.32 8.4-1.75 16.85-4.97 24.64-1.38 3.13-3.16 6.06-4.61 9.15 18.46-20.26 28.37-48.59 24.63-75.93a88 88 0 0 0-15.46-40.03c-10.15-15.55-25.32-27.93-42.92-34.03-17.17-5.98-36.1-6.57-53.68-1.99m-40.92 34.29c2.9.82 6.01 3.29 9.01 1.48a52.8 52.8 0 0 1 21.4-4.2c16.3-.39 33.17 4.17 45.85 14.71 16.02 12.92 25.6 33.27 26.03 53.79.37 8.35-1.03 16.68-.26 25.03.33 13.25-5.25 25.94-13.06 36.4 4.74-3.19 7.83-8.11 11.19-12.59 7.31-10.36 12.99-22.11 15.07-34.7 3.24-21.52.22-45.51-14.05-62.75-13.21-15.85-33.46-24.62-53.7-26.7-16.21-1.37-33.46.79-47.48 9.53m12.02 3.59c1.75 2.82 5.42 2.47 8.29 2.37 17.07-.85 34.62 4.91 47.04 16.84 14.53 12.5 21.06 32.25 20.46 51.05.07 8.49-2.47 16.66-3.44 25.03-1.78 11.43-7.19 22.01-14.22 31.09 10.31-9.53 19.43-20.82 24.6-33.98 5.73-18.99 5.08-40.24-3.35-58.33-4.62-10.81-12.62-20.07-22.46-26.46-16.9-10.04-37.99-13.19-56.92-7.61m-8.07 1.22c13.28 8.11 25.91 17.48 36.5 28.96 13.66 13.78 21.21 32.92 22.43 52.13.91 13.62-2.33 27.5-9.63 39.08 5.83-5.23 9.63-12.21 13.38-18.97 3.77-6.7 5.38-14.46 5.23-22.11-.21-11.59-3.43-22.93-8.02-33.5-4.55-10.11-12.3-18.39-20.95-25.15-11.86-8.71-25.18-15.34-38.94-20.44m19.43 4.53c13.7 7.01 27.4 15.31 36.64 27.94 9.34 12.91 14.83 28.63 15.58 44.56.28 17.04-8.51 32.2-17.14 46.25a82.4 82.4 0 0 0 14.71-17.48c9.56-15.27 12.37-34.08 9.67-51.72-2.17-14.55-10.66-27.59-21.99-36.74-10.16-9.05-24.1-12.8-37.47-12.81m-116.23 9.25c-.12 3.75.29 7.69-1.24 11.24-1.11 2.86-3.17 5.2-5.18 7.48 7.51 7.86 16.61 14.08 26.31 18.93 12.02 6.25 24.37 11.81 36.72 17.37-.8-4.24-.59-9.24-3.32-12.75-13.61-8.59-27.93-16.35-39.87-27.29-5.03-4.47-9.28-9.7-13.42-14.98m68.22 82.28c-3.11 3.26-5.72 7.3-6.02 11.91-.35 6.11-.61 12.39 1.24 18.32.77-6.79 1.13-14.04 5.04-19.92 3.7-5.86 8.18-12.18 7-19.52-2.57 2.96-4.47 6.44-7.26 9.21m18.56 10.39c-1.06 8.09-.13 16.55 3.16 24.06-.61-8.03-.4-16.79 4.96-23.34-.18-4.09-.47-8.18-.37-12.27-2.88 3.61-6.27 7.08-7.75 11.55m23.71-1.13c-5.23 7.81-2.63 17.89.37 26.06.46-6.64-.91-13.86 2.94-19.77.01-3.92.05-7.83.07-11.74-1.17 1.78-2.32 3.59-3.38 5.45m-98.4 16.25c-1.53 5.64-3.78 11.12-7.53 15.67 1.41 12.86 1.23 25.82.68 38.73-.65 12.19-1.05 24.55-3.63 36.51-4.39 5.17-9.35 9.92-14.37 14.5-3.63 3.51-9.05 2.82-13.4 4.8-2.12.92-3.27 3.04-4.63 4.79 2.33.13 4.97-.15 6.8 1.63 2.6 1.75 2.83 5.07 3.01 7.91-1.54.63-3.27 1.12-4.24 2.6 3.02.74 5.59-.9 7.92-2.57-1.64-2.68-3.4-6.11-1.65-9.17 2.88-3.67 8.24-3.52 11.6-6.59 3.86-3.41 7.06-7.49 10.44-11.35 3.08-3.58 2.51-8.58 4.24-12.72 3.07-1 2.4 2.88 2.34 4.71-.07 8.03-6.88 13.2-11.32 19.06-2.87 4.04-8.12 4.57-12.07 7.05-2.08 1.13-1.88 3.65-2.09 5.67 2.23-.99 4.81-2.32 7.16-.83 3.22 1.2 4.77 4.42 5.08 7.67 1.78-.94 4.07-1.45 5.08-3.37.77-2.09.07-4.36-.02-6.49 4.22 1.02 7.75-1.98 9.98-5.2 1.69-2.72.42-6.02.23-8.96 5.37 2.29 11.3-2.59 12.41-7.85.52.35 1.57 1.05 2.09 1.4 3.31-.39 6.75-1.17 8.96-3.89 3.36 1.67 7.23 1.87 10.76.64-1.46-3.73-.27-7.53 1.23-11.03-7.9-2.91-13.99 6.82-21.87 4.27-3.15-.92-7.38-2-8.38-5.58-.49-5.87-.97-11.87.14-17.7.88-3.56-.65-7.17.27-10.74-1.68-3.52-.51-7.43-.52-11.14.19-8-.39-16.27 2.47-23.9 1.2-3.47 3.52-6.37 5.92-9.08-.06-2.76-.25-5.51-.66-8.23-3.01 8.58-6.84 17.16-13.29 23.74 1.54-8.17 3.04-16.75.86-24.96m-17.19 17.68c1.09 21.08 1.17 42.24-.44 63.3-.42 4.13-2.89 7.63-4.47 11.38-1.53 3.56-4.44 6.33-7.8 8.18-4.07 2.27-8.12 5.04-12.9 5.45-4.32.4-8.67 1.17-12.44 3.43 2.13 3.48 3.58 7.53 1.93 11.55 2.7-.45 5.36-1.13 7.95-2.01-.83-2.28-1.45-4.88.18-6.96 3.38-5.58 10.57-5.71 16.03-7.9 4.66-3.18 8.68-7.25 12.49-11.39 1.22-1.57 3.06-2.97 3.14-5.12 2.59-22.63 4.23-45.53 2.07-68.27-1.09 1.34-2.17 2.69-3.27 4.01-.32-3.86 1.22-7.4 2.47-10.94-1.71 1.7-3.45 3.39-4.94 5.29m25 35.56c-.42 1.78-1.09 3.56-.89 5.43 1.27 2.72 4.76 1.86 7.13 1.74 6.79-.38 12.63-4.48 17.33-9.09-6.97 4.62-15.9 4.87-23.57 1.92m31.77 30.13c-.64 1.44-1.29 2.88-1.93 4.33 2.12.19 4.26.24 6.36.68 2.77.9 4.6 3.29 6.68 5.2-.45-5.65-5.54-10.05-11.11-10.21m-2.37 11.13c-.71 1.26-1.43 2.53-2.13 3.82 4.66.42 9.35 1.82 12.21 5.8-1.46-4.79-5.56-7.91-10.08-9.62m-15.02 2.57c2.98 4.11 9.67 3.83 12.31-.52-4.07.65-8.2.92-12.31.52m-89.15 19.27c-2.84 2.62-3.83 6.48-4.3 10.18 2.1-2.29 3.85-5.11 6.78-6.42 3.07-1.63 6.61-1.6 9.96-1.06.25-2.66-.58-5.11-2.13-7.22-3.7.71-7.64 1.64-10.31 4.52m18.34 20.35c.88-2.38 1.46-4.93 2.99-7 2.55-3.63 6.69-5.61 10.58-7.46-1.07-2.39-2.75-5.39-5.86-4.92-6.35 3.98-9.83 12.06-7.71 19.38m19.52 8.29c-1.18-7.88 3.91-15.36 10.88-18.63-.62-3.44-3.78-4.15-6.77-4.42-6.27 5.46-9.29 15.88-4.11 23.05"/><path d="M218.21 119.97c2.62-1.72 6.91-.35 7.33 3.03 1.66 4.34-4.95 7.99-7.81 4.37-2.47-1.79-1.78-5.76.48-7.4m1.22 6.69c.86-.26 2.57-.76 3.42-1.01.1-1.22.05-2.44-.14-3.66-2.49.27-4.26 2.08-3.28 4.67"/></g><path fill="#018c53" d="M28.74 28.69c178.26-.12 356.51.09 534.77-.1.66 16.14.1 32.32.29 48.48v256.89c.15 22.73-.75 45.51-3.92 68.04-5.85 42.71-18.49 84.73-39.12 122.68a312 312 0 0 1-47.32 65.71c-1.35 1.62-3.48 1.98-5.48 1.91-77.81-.02-155.62.01-233.43-.01.9-2.82 1.48-5.73 1.97-8.64 4.67-.34 8.63-3.15 10.97-7.12 2.45-.27 4.9-.66 7.33-1.11 2.08 1.56 4.32 3.64 7.17 2.97 4.65-.85 9.7-2.03 14.13.36 2.74 1.05 3.64 4.03 4.86 6.4 2.69-3.52.61-8.19-1.75-11.29-2.23-3.08-5.92-4.37-9.23-5.89 2.97-2.87 7.42-1.07 10.53.6 2.63 1.41 2.06 5.4 4.91 6.6.15-3.37.71-6.9-.35-10.17-2.19-5.05-7.55-8.19-13.02-7.74-1.92-.96-3.78-2.66-6.06-2.35-4.93.82-9.6 2.7-14.08 4.87-2.98 1.86-6-.79-8.77-1.81-.77-6.18-1.17-12.47-.03-18.62 10.64 1.13 20.08-5.49 25.95-13.84-3.26-.31-5.94 1.89-8.92 2.81-2.88 1.2-6.03 1.1-9.08 1.14 4.28-1.62 9.33-3.01 11.55-7.45.24-.11.71-.32.95-.43 2.05-.52 2.76-2.58 3.71-4.22-5.01 1.64-9.88 4.09-15.23 4.32-2.95.21-5.88-.22-8.79-.63.34-9.64-.96-20.24 4.63-28.73 2.11 3.33 4.21 7.36 8.39 8.37-.81-6.27-2.18-12.77-.48-19.01 3.53-7.23 11.62-10.31 16.6-16.32.48 3.67.19 7.94 3.12 10.7 1.45-3.46 2.08-7.25 4.02-10.5 1.03 7.72 1.2 16.26 6.49 22.54.85.39 1.72.75 2.61 1.06-.91-9.42.6-19.4 5.94-27.38 1.32 5.53.61 12.98 5.95 16.47.66-3.95 1.69-7.86 3.74-11.33 1.47 9.34 2.5 20.64 11.25 26.26-1.37-8.1-2.26-16.91 1.8-24.43 2.19 3.94 2.7 8.64 5.64 12.19 1.36-3.48 2.27-7.11 2.99-10.77 1.72 8.81 2.31 19.97 10.85 25.11-.98-7.37-2.89-15.22.22-22.35 1.41 3.68 2.05 8.52 6.04 10.38.29-3.31-.12-6.84 1.43-9.89 1.48-3.22 3.64-6.06 6.03-8.65 1.12 6.1 1.92 12.42 4.93 17.96.32.02.96.06 1.28.09 3.32-8.6 7.28-17.19 13.87-23.84-.84 5.33-2.9 10.36-5.45 15.08-1.5 2.66-3.49 5.1-4.23 8.14 3.74-1.67 7.15-3.99 10.2-6.74.04.35.1.71.16 1.07-.96 2.01-1.87 4.04-2.69 6.12 3.18-.74 5.55-3.07 7.95-5.11 5.86-5.13 10.96-11.08 15.38-17.48-2.53 9.53-9.03 17.15-14.17 25.32 1.69-.38 3.46-.67 4.96-1.61 13.47-7.45 23.69-20.25 29.04-34.58-.74 9.54-5.28 18.31-10.41 26.21-2.04 3.36-5.29 5.94-6.6 9.74 4.86-.65 8.74-3.87 12.43-6.83 8.45-6.9 14.29-16.29 19.82-25.54-2.39 10.85-9.29 19.83-15.04 29.09 11.55-3.92 19.9-13.6 26.52-23.41 4.35-6.2 7.12-13.27 10-20.21-.23 7.8-2.58 15.37-5.73 22.46-2.86 6.39-5.98 12.76-10.48 18.18.62-.03 1.87-.1 2.49-.13 3.14-2.89 6.44-5.61 9.69-8.38 13.72-12.92 22.68-30.49 26.1-48.95 1.32 10.81 1.3 22.17-2.68 32.46-1.52 4.8-4.19 9.13-5.73 13.92 3.48-1.04 5.72-4.04 8.29-6.39 9.9-9.15 15.01-22.18 18.09-35.03 1.6-6.06 2.08-12.34 3.63-18.41 2.62 16.57-.29 33.92-7.96 48.82 3.31-.03 5.17-3.18 7.43-5.13 12.16-12.31 17.69-29.38 20.74-46.03 5.94-35.75-4.46-74.18-28.88-101.17-5.55-5.84-11.16-11.73-18.04-16.01-18.26-13-39.72-22.55-62.44-22.9-20.41.02-41 4.71-59 14.46-16.5 9.46-30.98 22.97-40.22 39.71-3.18 5.15-5.69 10.65-8.23 16.13-3.75-5.24-6.67-11.26-7.14-17.77 2.7 1.66 5.31 3.81 8.64 3.91-2.07-3.74-4.17-7.61-4.63-11.93-.66-6.35-.05-12.76.73-19.07.93-7.63-1.05-15.16-2.25-22.64 3.96 2.59 7.78 5.53 12.26 7.17.37-.3 1.1-.91 1.47-1.21-6.56-8.72-12.95-17.84-16.07-28.43 5.21 2.31 9.83 6.09 15.53 7.17.49-.13 1.49-.41 1.98-.55-8.77-9.33-15.97-20.27-19.9-32.53 5.78 2.19 11.38 4.96 17.61 5.76-.12-1.21-.06-2.54-.98-3.47-4.23-5.43-9.81-9.72-13.45-15.62-9.45-15.11-15.44-32.01-21.27-48.76-1.98-6.95-4.74-13.69-6.01-20.83 12.22 4.17 25.77 2.62 37.4-2.64 2.95-1.27 5.69-3.37 7.02-6.37.72-2.51-1.11-5.31-3.34-6.35-3.43-.42-6.9-.18-10.34-.32 2.69-2.25 5.98-4.13 7.61-7.37.92-2.7-.73-5.17-2.07-7.37-4.93-1.21-9.78.06-14.31 2.04 2.06-2.76 4.72-4.99 6.83-7.7 2.24-3.06.11-8.16-3.8-8.32-4.55-.47-8.21 2.85-12.19 4.5 1.49-3.42 3.66-6.54 4.71-10.13.64-3.51-2.52-6.53-5.89-6.56-4.74 1.23-8 5.19-12.03 7.72 1.48-4.76 1.99-9.94.66-14.79-1.58-2.66-5.35-3.93-8.07-2.19-4.53 2.64-7.12 7.53-9.31 12.11-.33.05-.99.14-1.32.18 1.39-6.49 1.21-13.68-3.28-18.99-2.28.09-4.98-.78-6.81 1.01-5.23 4.33-5.78 11.59-8.53 17.38-.32-.1-.97-.29-1.29-.39-1.86-3.73-2.59-7.94-4.73-11.55-1.92-3.43-7.86-3.21-9.65.25-3.4 5.83-1.8 12.81-1.62 19.18-.95-2.36-1.7-4.84-3.07-7-2.46-3.37-8.25-2.33-9.96 1.28-3.96 7-2.65 15.68-.07 22.93.92 3.17 3.17 5.66 5.38 8.01-6.3-.6-12.61.42-18.31 3.19l-.56 1.51c8.81 1.36 16.52 6.8 22.2 13.47 1.16 1.7 3.58 4.18 1.57 6.14-4.32 4.77-10.43 7.28-16.21 9.78-1.31.49-2.26 1.52-3.15 2.55 3.71.26 7.35-.6 10.99-1.17-3.64 3.29-8.38 4.79-12.56 7.23 7.53 1.12 14.96-1.02 21.69-4.24-2.01 3.44-3.8 7.07-6.47 10.07-4.06 4.62-9.25 8.16-12.81 13.23-3.24 4.55-5.61 10-5.55 15.66.1 5.24 4.18 9.49 8.78 11.44 3.17 1.63 6.85 1.17 10.28 1.2-1.2 10.1-6.88 19.19-14.39 25.85a89 89 0 0 0-5.64 4.97c3.73.08 7.46-.03 11.19-.14-5.55 7.04-13.55 11.52-21.68 14.93-1.05.65-2.69.86-3.11 2.19 2.05.92 4.31 1.14 6.52 1.42-5.63 4.28-10.79 9.21-14.89 15-7.72 10.49-11.41 23.29-13.72 35.94.58-.05 1.74-.16 2.33-.21.33-.36.99-1.1 1.32-1.47-.76 11.04.04 22.23 3.22 32.85 3.63 12.04 8.35 23.97 16.04 34.02 3.44 5.2 8.03 9.59 11.02 15.07.87 5.22-.19 10.67 1.01 15.9 1.45 6.55 2.95 13.17 5.56 19.38 1.84 4.61 5.35 8.4 6.74 13.21 1.49 4.67.88 9.65 1.86 14.42 1.71 8.8 6.09 16.75 10.35 24.54 2.31 4.34 3.46 9.77 1.46 14.44-.84 2-1.77 4.02-1.66 6.25 3.57-2.24 5.97-5.76 8.91-8.69 0 2.53.06 5.17-1.01 7.54-1.16 3.06-3.78 5.47-4.17 8.83 1.84-.94 3.65-1.93 5.42-2.99 1.47 19.7 1.06 39.5-.32 59.19-.46 2.52-1.83 4.75-2.89 7.06-1.37 2.54-2.41 5.55-5.01 7.13-2.39 1.63-4.81 3.22-7.32 4.65-6.17 3.35-13.66 2.18-19.93 5.24-2.04.83-2.6 3.17-3.65 4.89-4.76 1.22-8.2 5.99-13.43 5.27-12.67-.15-25.35.07-38.01-.1-3.81.03-5.72-3.82-8.11-6.16-28.01-30.86-49.42-67.56-63.23-106.85-15.39-42.96-21.98-88.73-22.02-134.27.06-105.42-.16-210.85.11-316.27"/><path d="M234.78 70.73c1.22-.45 2.45-.9 3.68-1.36 1.6 6.25.23 12.75 1.24 19.05 1.33 1.77 3.96 2.56 5.93 1.39 4.67-4.32 6.63-10.99 11.78-14.88 1.75 5.38-.58 10.7-.79 16.08-.39 2.07 1.73 3.56 3.58 3.53 5.82-.99 8.77-7.88 14.66-8.39-1.32 4.96-5.94 8.58-6.18 13.88.17 2.93 3.5 4.15 5.91 2.91 4.67-.93 7.89-4.93 12.46-5.97-.18 5.67-7.93 7.33-7.8 13.05-.29 2.4 2.65 3.91 4.7 3.22 4.02-.81 7.98-2.06 12.11-2.12-.96 4.53-6.37 5.56-8.57 9.27-.35 1.35-.16 2.76-.21 4.14 4.85 1.87 10.17.91 15.13 2.36-2.36 3.41-6.64 3.96-10.34 5.01-7.49 2.05-15.41 3.49-23.14 2-6.78-1.21-13.17-5.19-16.7-11.17-1.35-2.63-1.92-5.56-2.73-8.38-3.03 1.3-6.66 1.86-9.66.19-2.72-1.19-4.08-3.93-5.36-6.41-2.19 1.35-4.71 1.78-7.25 1.6-1.04-1.62-2.08-3.24-3.11-4.86-2.58 2.45-4.99 7.19-9.24 5.51-1.63-1.14-2.51-3.05-3.84-4.5-.87 2.17-1.25 4.64-2.84 6.43-2.52 1.45-5.6-.26-6.91-2.56-3.76-5.79-4.63-13.15-3.29-19.83.32-1.75 1.9-2.76 3-4 2.7 2.57 2.89 6.48 4.96 9.4 1.5.5 3.48.6 4.34-1.01 4.66-5.91-.51-14.31 3.69-20.28 5.01 3.63 3.61 11.03 7.84 15.29 1.35.72 2.99.24 4.47.34 4.88-5.28 5.36-12.73 8.48-18.93m-7.74 62.36c2.61-2.17 4.33-5.25 7.22-7.13-.2 2.57-1.49 5.36-.16 7.83 1.74 4.09 5.73 7.4 5.39 12.19-.17 6.94-6.4 12.21-12.78 13.69-6.21 2.03-12.17-2.74-15.37-7.66-.24-3.59 1.55-6.88 3.46-9.78.08-2.36-.09-4.78.62-7.07l.47-1.1c3.63 1.04 7.9 1.28 11.15-.97m-23.71 33.24c2.79-3.37 4.45-7.45 6.63-11.2 2.54 2.17 5.48 3.79 8 5.96-1.11 4.3-2.76 8.49-3.01 12.98-.86 5.87.51 11.84-.49 17.68-2.39 5.44-8.71 8.74-14.57 7.52-4.13-1.71-6.58-6.5-5.29-10.85 1.96-7.42 9.41-11.21 13.25-17.48 2.36-4.16 4.59-8.95 3.34-13.84-3.07 1.14-3.69 4.52-4.9 7.16-3.56 9.14-13.81 14.01-16.26 23.74-1.43 4.22.83 8.34 2.82 11.94-3.76-.81-7.46-3.89-7.42-8 .13-5.59 3.18-10.64 6.84-14.67 3.41-3.93 7.92-6.76 11.06-10.94" fill="#d84241"/><g fill="#f1e807"><path d="M218.79 112.73c2.18-.23 3.52-2.17 5.09-3.45 2.31 2.87 5.93 3.71 9.33 2.31 1.54 2.24 3.26 4.58 5.88 5.63 2.29.64 4.67.79 7.03 1 .92 6.45 5 11.73 9.88 15.79 7 24.84 13.82 50.26 27.53 72.41 2.22 3.8 5.73 6.66 7.71 10.62-4.2-1.47-7.98-3.86-11.86-5.99.52 11.26 5.53 21.85 11.86 30.99-3.81-1.87-7.05-4.62-10.56-6.96 1.49 10.38 5.84 20.03 11.39 28.84-4.35-2.71-7.97-6.36-11.27-10.23 5.25 13.37 8.46 27.89 6.77 42.3-.7 5.66-.6 11.47 1.26 16.92-5.98-6.65-8.39-15.49-10.24-24.02-1.15-5.37-.76-10.91-1.82-16.29-3.09 7.86-1.95 16.8-5.63 24.48-2.08 4.29-3.73 8.76-5.53 13.17-2.54-6.79-2.73-14.11-3.54-21.24-.73-6.17.59-12.36.02-18.54-2.55 3.29-2.7 7.69-4.46 11.38-3.08 8.64-8.04 16.54-14.69 22.88 2.16-8.99 4.43-18.31 2.77-27.59-.55-3.3-1.49-6.66-3.87-9.14-.25 3.88-.06 7.9-1.52 11.58-2.92 8.09-9.33 14.15-15.36 20 1.47-8.77 3.09-17.83 1.09-26.66-.79-2.65-1.41-5.7-3.85-7.36-.82 5.43-.71 11.62-4.62 15.96-5.13 5.57-11.27 10.16-16.03 16.09-1.71-10.48-2.68-21.91 2.15-31.74.62-1.26.96-2.63 1.08-4.03-7.19 5.85-6.56 16.51-13.19 22.75-3.62 3.65-6.84 7.68-10.68 11.11-.64-9.64 1.2-19.53 5.91-28.01 1.49-2.55 3.17-5.02 4.16-7.82-3.58 2.4-6.21 5.87-9.3 8.81-6.72 6.73-14.11 12.85-22.36 17.63-3.02 1.67-5.14 4.44-7.51 6.87.64-4.46 2.77-8.48 5.14-12.24 2.6-4.07 4.42-8.66 7.67-12.29 6.56-7.85 15.51-13.25 24.76-17.38-3.38.05-6.75.23-10.12.28 5.79-3.88 11.85-7.63 16.35-13.07 1.96-2.58 3.45-5.48 5.21-8.21-3.1 1.11-6.37 1.54-9.65 1.62 3.68-3.65 7.41-7.43 9.69-12.16 2.6-4.95 3.66-10.54 3.88-16.09 5.84-1.12 11.44-4.79 13.63-10.49 2.24-6.13 1.24-12.77 1.28-19.15.07-3.98 1.7-7.68 3.31-11.24 6.51-.49 12.91-3.6 16.62-9.08 3.02-4.3 3.08-10.31.59-14.87-1.31-2.55-3.25-4.72-4.57-7.26-.46-1.92.01-3.91.13-5.85-1.33-.26-2.67-.47-4.01-.64-2.36 2.41-3.48 6.06-6.75 7.5-2.69 1.47-5.79 1.01-8.67.56l-.41.94-.47 1.1-.36.83c-.6-1.05-1.19-2.1-1.76-3.16-.85-3.15-1.53-6.54-3.62-9.14.42-1.33 1.11-1.77 2.08-1.32.88 2.29.3 5.03 1.88 7.07 3.95 4.68 12.55 3.96 15.1-1.86 3.65-6.81-4.87-15.43-11.69-11.59-2.43.79-2.91 5.05-5.87 3.59a32 32 0 0 0-3 3.25c-.59-1.96-1.15-3.93-1.69-5.91 2.81-.48 5.4-1.88 6.37-4.73 1.96.28 3.94.81 5.93.54m9.16 3.13c.69 2.52 1.5 5.04 2.84 7.3.69 1.52 1.79 1.83 3.31.95-.73-.98-1.47-1.94-2.19-2.92-.8-2.14-1.93-4.16-3.96-5.33m128.04 163.05c28.53-12.83 63.11-12.59 90.84 2.27 15.01 8.65 29.69 18.9 39.87 33.18 8.52 12.51 16.16 25.97 19.83 40.78 3.06 14.37 5.3 29.18 3.39 43.88-.93 8.71-3.5 17.12-6.25 25.4-2.89 8.57-6.59 17.11-12.65 23.94 3.18-8.44 5.61-17.27 5.47-26.37.31-12.55-3.36-24.71-4.77-37.09-3.26-21.89-11.64-43.47-26.42-60.19-13.71-15.18-31.67-27.11-51.86-31.36-33.98-6.88-71.45 2.25-97.28 25.73-7.05 6.12-12.25 13.99-17.08 21.89-.89-2.57.63-4.98 1.62-7.26 11.11-23.98 30.59-44.75 55.29-54.8"/><path d="M354.17 301.22c20.52-7.23 43.34-8.46 64.31-2.44 17.69 5.93 34.18 16.41 45.66 31.3 5.32 7.04 10.98 14.07 14.17 22.4 6.82 16.24 10.97 33.92 10.29 51.6-1.93 14.53-4.55 29.25-10.97 42.57-2.1 4.07-4.31 8.18-7.51 11.51 1.8-4.4 3.53-8.88 4.15-13.63 2.06-15.23-1.59-30.37-2.38-45.55-.96-16.56-6.03-32.91-14.9-46.95-10.95-17.65-27.95-31.6-47.7-38.24-18.08-6.26-37.95-5.77-56.3-.92-19.13 5.04-36.42 16.44-48.82 31.82-.87-.75-1.74-1.51-2.61-2.26 12.72-18.73 31.13-33.74 52.61-41.21"/><path d="M355.56 315.86c17.58-4.58 36.51-3.99 53.68 1.99 17.6 6.1 32.77 18.48 42.92 34.03a88 88 0 0 1 15.46 40.03c3.74 27.34-6.17 55.67-24.63 75.93 1.45-3.09 3.23-6.02 4.61-9.15 3.22-7.79 4.65-16.24 4.97-24.64.27-6-.4-11.99-.03-17.98 1.12-18.9-4.19-38.08-14.78-53.77-5.05-8.16-12.52-14.42-20.19-20.02-20.91-15.06-48.83-19.74-73.52-12.39-12.56 3.38-24.76 9.35-33.59 19.11-.89-.7-2.71-1.08-2.04-2.56 11.31-15.5 28.54-26.2 47.14-30.58"/><path d="M289.87 334.33c.19-.02.57-.07.76-.1 6.37 7.94 13.7 15.19 21.93 21.19 10.05 6.03 19.58 12.92 28.56 20.44 6.32 5.63 12.69 11.33 17.67 18.22 9.88 13.14 15.41 29.48 15.49 45.92-.13 3.89-.81 7.92-3.11 11.16-5.35 8.17-12.1 15.66-14.84 25.26-3.85-11.69 4.31-22.74 3.62-34.44.49-18.29-6.35-36.14-17.19-50.67-9.37-12.53-21.08-23.18-33.74-32.32-8.44-6.51-16.46-13.63-23.52-21.64-.82-1.12-2.3-1.09-3.49-1.43.21 2.06 1.24 3.85 2.72 5.27 17.23 18.87 40.4 31.71 55.44 52.7 11.08 15.56 16.98 34.97 15.49 54.07-2.39 10.62-13.41 17.04-14.62 28.21-1.89-9.63-1.74-19.53-.53-29.23 2.17-15.52-1.96-31.43-9.58-44.96-5.5-10.32-13.11-19.31-21.01-27.86-8.65-9.37-19.33-16.77-26.97-27.08-2.28-2.8-4.14-5.91-6.14-8.9-.81-1.38-2.35-1.77-3.66-.79.33 2.67 1.97 4.9 3.35 7.14 8.41 12.7 20.65 22.05 31.3 32.73 16.86 16.84 29.21 39.55 29.55 63.79-.85 10.84-11.2 17.68-13.56 28.02-.48 2.03-.65 4.13-.95 6.21-3.28-11.45-2.05-23.51-1.59-35.23.35-21.28-9.56-41.35-22.86-57.45-8.38-11.14-19.92-19.52-27.68-31.16-3.04-4.28-5.09-9.14-7.08-13.96 8.7-1.42 17.52-1.81 26.24-3.11"/><path d="M241.74 337.15c6.34.95 12.77-.29 19.14.4.53 3.97 2.58 7.47 4.56 10.87 4.09 6.77 8.9 13.08 14.26 18.89 5.75 6.87 12.68 12.67 18.06 19.86 5.92 8.1 11.43 16.66 14.78 26.17 3.24 8.78 6.18 18.1 5.05 27.57-1.37 4.38-4.4 8-7.26 11.5-4.89 5.75-9.52 12.1-10.67 19.76-1.65-8.74.7-17.46 1.63-26.13.88-18.94-4.68-37.89-14.42-54.06-9.94-15.68-22.64-29.74-30.07-46.91-1.32-3.01-2.45-7.53-6.66-7.01 5.06 18.66 18.17 33.4 28.99 48.91 8.59 12.56 15.07 26.77 17.46 41.87.56 3.19.13 6.56-1.37 9.45-3.18 6.78-9.53 11.25-13.44 17.53-2.86 4.3-4.24 9.33-6.3 14.02-.41-2.6-.85-5.26-.39-7.88.61-6.33 4.57-11.67 5.65-17.88 2.84-15.87 1.78-32.79-5.29-47.46-9.68-20.71-26.89-37.33-33.71-59.47"/></g><path d="M219.79 117.85c4.1-.96 8.05 3.18 7.05 7.26-.16 5.41-8.76 6.67-10.95 1.94-2.62-3.44.12-8.14 3.9-9.2m-1.58 2.12c-2.26 1.64-2.95 5.61-.48 7.4 2.86 3.62 9.47-.03 7.81-4.37-.42-3.38-4.71-4.75-7.33-3.03m55.25 439.93c5.57.16 10.66 4.56 11.11 10.21-2.08-1.91-3.91-4.3-6.68-5.2-2.1-.44-4.24-.49-6.36-.68.64-1.45 1.29-2.89 1.93-4.33" fill="#fafbfd"/><path fill="#fefefe" d="M185.7 119.03c4.21-.5 8.55-.78 12.7.33 3.97.89 7.24 3.6 11.28 4.33 2.09 2.6 2.77 5.99 3.62 9.14.45 2.68 1.21 5.4.79 8.13-4.16 8.6-13.37 13.55-22.43 15.39 7.56-3.88 14.03-9.68 18.82-16.69-3.77-10.95-14.67-16.68-24.78-20.63"/><path fill="#12496e" d="M219.43 126.66c-.98-2.59.79-4.4 3.28-4.67.19 1.22.24 2.44.14 3.66-.85.25-2.56.75-3.42 1.01"/><path fill="#9b3e46" d="M189.36 151.01c5.86-3.56 12.25-6.18 17.91-10.13-.94 1.78-1.91 3.7-3.73 4.73-4.31 2.67-9.03 5.08-14.18 5.4"/><g fill="#f5ca02"><path d="M156.61 294.59c6.6-5.66 14.32-9.81 21.09-15.27-2.47 8.73-.86 17.77-.3 26.59-4.05 21.71 2.33 44.6 15.39 62.18 4.5 5.89 9.94 11.19 13.17 17.96 2.24 4.61 2.46 9.81 2.93 14.82 3.36-1.69 3.62-5.77 4.84-8.89 9.86 9.13 21.88 15.34 33.46 21.97 10.39 4.65 20.56 9.82 31.18 13.97-.67 9.13-.52 18.65-4.02 27.27-4 6.12-9.49 11.15-15.22 15.63 2.55-7.31 2.47-16.15-2.47-22.45-.84-1.45-3.92-1.57-4.12.44.65 3.15 2.89 5.79 3.19 9.07.97 4.27.22 8.68-1.25 12.74-1.89 5.39-2.62 11.07-3.23 16.73-.87-6.54-.65-13.33-3.16-19.55-1.86-4.7-3.45-9.89-7.44-13.27.76 3.81 2.08 7.54 2.13 11.46.23 6.71-1.37 13.35-3.39 19.7-.28-10.31-2.84-22.27-12.18-28.16 4.3 8.64 4.18 19.87-2.02 27.57-3.03-8.89-8.12-16.95-14.03-24.21-5.34-6.96-6.96-15.81-9.7-23.95-1.28-4.36-4.33-7.88-7.46-11.06 1.52 5.07 3.68 9.93 4.89 15.09 2.11 8.43 4.38 17.21 10.02 24.05 4.66 5.71 8.42 12.15 10.92 19.09-.99 1.09-1.97 2.19-2.95 3.29-.2-4.23-1.1-8.43-2.99-12.23-1.23-2.32-2.23-5.07-4.71-6.34 1.32 3.41 2.8 6.97 1.87 10.7-1.43-2.42-1.68-5.3-2.9-7.81-2.59-5.66-6.72-10.57-8.46-16.63-3.2-8.82-1.92-18.81-6.43-27.2-4.32-7.47-7.87-15.49-9.49-24-1.3-6.23-.73-12.62-.93-18.93-6.63-9.26-14.81-17.55-19.62-28-4.21-10.02-9.12-19.95-10.74-30.8-1.1-8.81-1.86-17.91.31-26.62.5-2.14 2.28-3.54 3.82-4.95"/><path d="M218.38 287.38c1.91-1.6 3.24-3.73 4.51-5.84-.26 10.23-5.58 19.73-4.48 30.08 3.6-5.09 8.37-9.12 13.19-13 4.38-3.48 7.92-7.87 11.04-12.48-1.23 7.02-4.59 13.66-4.41 20.89-.03 2.91 1 5.65 1.88 8.38 3.08-4.01 6.03-8.12 9.58-11.73 3.18-3.22 5.79-6.95 7.74-11.03 1.29 9.63 3.04 19.6 8.81 27.69 2.72-7.71 5.95-15.24 9.91-22.4 1.74 5.72 4.16 11.29 8.12 15.84-.18 7.25 2.1 14.28 5.6 20.55-8.72 1.3-17.54 1.69-26.24 3.11-.69.03-2.06.09-2.75.11-6.37-.69-12.8.55-19.14-.4-1.79-.81-4.23.23-3.14 2.4 5.7 17.77 17.56 32.51 27.49 48.01-7.47-5.65-14.07-12.36-20.77-18.87-5.8-5.45-9.51-12.65-12.71-19.83 4.85-7.67 5.08-17.39 2.63-25.91-1.04-.2-3.11-.59-4.15-.78 1.95 5.7 2.03 11.98.81 17.85-1.3 5.18-4.9 9.89-9.87 12-3.08 1.07-6.41.71-9.6.69 4.54 7.14 6.74 16.04 4.62 24.36-1.08 3.98-3.79 7.17-6.48 10.18-2.49-7.39-8.2-12.86-12.78-18.95-13.55-17-21.04-39.69-16.76-61.36.65-2.71.89-5.83 3.07-7.83 3.81-3.88 7.9-7.48 11.43-11.62 1.1 6.97 1.67 14.15 4.52 20.68 4.12-8.47 11.39-14.69 18.33-20.79m96.26 62.77c14.02-8.74 31.27-10.9 47.48-9.53 20.24 2.08 40.49 10.85 53.7 26.7 14.27 17.24 17.29 41.23 14.05 62.75-2.08 12.59-7.76 24.34-15.07 34.7-3.36 4.48-6.45 9.4-11.19 12.59 7.81-10.46 13.39-23.15 13.06-36.4-.77-8.35.63-16.68.26-25.03-.43-20.52-10.01-40.87-26.03-53.79-12.68-10.54-29.55-15.1-45.85-14.71a52.8 52.8 0 0 0-21.4 4.2c-3 1.81-6.11-.66-9.01-1.48"/><path d="M326.66 353.74c18.93-5.58 40.02-2.43 56.92 7.61 9.84 6.39 17.84 15.65 22.46 26.46 8.43 18.09 9.08 39.34 3.35 58.33-5.17 13.16-14.29 24.45-24.6 33.98 7.03-9.08 12.44-19.66 14.22-31.09.97-8.37 3.51-16.54 3.44-25.03.6-18.8-5.93-38.55-20.46-51.05-12.42-11.93-29.97-17.69-47.04-16.84-2.87.1-6.54.45-8.29-2.37"/></g><path fill="#f5cb03" d="M318.59 354.96c13.76 5.1 27.08 11.73 38.94 20.44 8.65 6.76 16.4 15.04 20.95 25.15 4.59 10.57 7.81 21.91 8.02 33.5.15 7.65-1.46 15.41-5.23 22.11-3.75 6.76-7.55 13.74-13.38 18.97 7.3-11.58 10.54-25.46 9.63-39.08-1.22-19.21-8.77-38.35-22.43-52.13-10.59-11.48-23.22-20.85-36.5-28.96"/><path fill="#f5cb02" d="M338.02 359.49c13.37.01 27.31 3.76 37.47 12.81 11.33 9.15 19.82 22.19 21.99 36.74 2.7 17.64-.11 36.45-9.67 51.72a82.4 82.4 0 0 1-14.71 17.48c8.63-14.05 17.42-29.21 17.14-46.25-.75-15.93-6.24-31.65-15.58-44.56-9.24-12.63-22.94-20.93-36.64-27.94"/><path fill="#f4cb02" d="M221.79 368.74c4.14 5.28 8.39 10.51 13.42 14.98 11.94 10.94 26.26 18.7 39.87 27.29 2.73 3.51 2.52 8.51 3.32 12.75-12.35-5.56-24.7-11.12-36.72-17.37-9.7-4.85-18.8-11.07-26.31-18.93 2.01-2.28 4.07-4.62 5.18-7.48 1.53-3.55 1.12-7.49 1.24-11.24"/><path fill="#f6c904" d="M290.01 451.02c2.79-2.77 4.69-6.25 7.26-9.21 1.18 7.34-3.3 13.66-7 19.52-3.91 5.88-4.27 13.13-5.04 19.92-1.85-5.93-1.59-12.21-1.24-18.32.3-4.61 2.91-8.65 6.02-11.91"/><path fill="#f8c902" d="M308.57 461.41c1.48-4.47 4.87-7.94 7.75-11.55-.1 4.09.19 8.18.37 12.27-5.36 6.55-5.57 15.31-4.96 23.34-3.29-7.51-4.22-15.97-3.16-24.06"/><path fill="#f5ca03" d="M332.28 460.28c1.06-1.86 2.21-3.67 3.38-5.45-.02 3.91-.06 7.82-.07 11.74-3.85 5.91-2.48 13.13-2.94 19.77-3-8.17-5.6-18.25-.37-26.06"/><g fill="#eaa679"><path d="M233.88 476.53c2.18 8.21.68 16.79-.86 24.96 6.45-6.58 10.28-15.16 13.29-23.74.41 2.72.6 5.47.66 8.23-2.4 2.71-4.72 5.61-5.92 9.08-2.86 7.63-2.28 15.9-2.47 23.9.01 3.71-1.16 7.62.52 11.14-.92 3.57.61 7.18-.27 10.74-1.11 5.83-.63 11.83-.14 17.7 1 3.58 5.23 4.66 8.38 5.58 7.88 2.55 13.97-7.18 21.87-4.27-1.5 3.5-2.69 7.3-1.23 11.03-3.53 1.23-7.4 1.03-10.76-.64-2.21 2.72-5.65 3.5-8.96 3.89-.52-.35-1.57-1.05-2.09-1.4-1.11 5.26-7.04 10.14-12.41 7.85.19 2.94 1.46 6.24-.23 8.96-2.23 3.22-5.76 6.22-9.98 5.2.09 2.13.79 4.4.02 6.49-1.01 1.92-3.3 2.43-5.08 3.37-.31-3.25-1.86-6.47-5.08-7.67-2.35-1.49-4.93-.16-7.16.83.21-2.02.01-4.54 2.09-5.67 3.95-2.48 9.2-3.01 12.07-7.05 4.44-5.86 11.25-11.03 11.32-19.06.06-1.83.73-5.71-2.34-4.71-1.73 4.14-1.16 9.14-4.24 12.72-3.38 3.86-6.58 7.94-10.44 11.35-3.36 3.07-8.72 2.92-11.6 6.59-1.75 3.06.01 6.49 1.65 9.17-2.33 1.67-4.9 3.31-7.92 2.57.97-1.48 2.7-1.97 4.24-2.6-.18-2.84-.41-6.16-3.01-7.91-1.83-1.78-4.47-1.5-6.8-1.63 1.36-1.75 2.51-3.87 4.63-4.79 4.35-1.98 9.77-1.29 13.4-4.8 5.02-4.58 9.98-9.33 14.37-14.5 2.58-11.96 2.98-24.32 3.63-36.51.55-12.91.73-25.87-.68-38.73 3.75-4.55 6-10.03 7.53-15.67"/><path d="M256.07 573.6c4.11.4 8.24.13 12.31-.52-2.64 4.35-9.33 4.63-12.31.52"/></g><path fill="#eca577" d="M216.69 494.21c1.49-1.9 3.23-3.59 4.94-5.29-1.25 3.54-2.79 7.08-2.47 10.94 1.1-1.32 2.18-2.67 3.27-4.01 2.16 22.74.52 45.64-2.07 68.27-.08 2.15-1.92 3.55-3.14 5.12-3.81 4.14-7.83 8.21-12.49 11.39-5.46 2.19-12.65 2.32-16.03 7.9-1.63 2.08-1.01 4.68-.18 6.96-2.59.88-5.25 1.56-7.95 2.01 1.65-4.02.2-8.07-1.93-11.55 3.77-2.26 8.12-3.03 12.44-3.43 4.78-.41 8.83-3.18 12.9-5.45 3.36-1.85 6.27-4.62 7.8-8.18 1.58-3.75 4.05-7.25 4.47-11.38 1.61-21.06 1.53-42.22.44-63.3"/><path d="M256.95 523.16c2.2-.53 4.3-1.61 6.61-1.58-.24.11-.71.32-.95.43-6.43 3.3-13.43 7.11-20.93 5.33.14-1.53.29-3.06.44-4.57 4.78 1.51 9.99 1.77 14.83.39m14.14 47.87c4.52 1.71 8.62 4.83 10.08 9.62-2.86-3.98-7.55-5.38-12.21-5.8.7-1.29 1.42-2.56 2.13-3.82" fill="#fefdfd"/><path fill="#fbfbfd" d="M241.69 529.77c7.67 2.95 16.6 2.7 23.57-1.92-4.7 4.61-10.54 8.71-17.33 9.09-2.37.12-5.86.98-7.13-1.74-.2-1.87.47-3.65.89-5.43"/><path fill="#fdfdfd" d="M166.92 592.87c2.67-2.88 6.61-3.81 10.31-4.52 1.55 2.11 2.38 4.56 2.13 7.22-3.35-.54-6.89-.57-9.96 1.06-2.93 1.31-4.68 4.13-6.78 6.42.47-3.7 1.46-7.56 4.3-10.18"/><path fill="#fcfdfc" d="M185.26 613.22c-2.12-7.32 1.36-15.4 7.71-19.38 3.11-.47 4.79 2.53 5.86 4.92-3.89 1.85-8.03 3.83-10.58 7.46-1.53 2.07-2.11 4.62-2.99 7"/><path fill="#fefefd" d="M204.78 621.51c-5.18-7.17-2.16-17.59 4.11-23.05 2.99.27 6.15.98 6.77 4.42-6.97 3.27-12.06 10.75-10.88 18.63"/><path fill="#fbd314" d="M458 629.45c7.31-6.22 14.4-12.69 21.24-19.42 1.21 2.6 2.31 5.25 3.2 7.98-7.08 6.68-14.26 13.26-21.82 19.4 1.79-3.11-.72-5.7-2.62-7.96"/></svg>