<?xml version="1.0" encoding="UTF-8" standalone="no"?>
<!-- Created with Inkscape (http://www.inkscape.org/) -->

<svg
   xmlns:dc="http://purl.org/dc/elements/1.1/"
   xmlns:cc="http://creativecommons.org/ns#"
   xmlns:rdf="http://www.w3.org/1999/02/22-rdf-syntax-ns#"
   xmlns:svg="http://www.w3.org/2000/svg"
   xmlns="http://www.w3.org/2000/svg"
   xmlns:sodipodi="http://sodipodi.sourceforge.net/DTD/sodipodi-0.dtd"
   xmlns:inkscape="http://www.inkscape.org/namespaces/inkscape"
   width="153.02188mm"
   height="184.35498mm"
   viewBox="0 0 153.02188 184.35498"
   version="1.1"
   id="svg8"
   inkscape:version="0.92.3 (2405546, 2018-03-11)"
   sodipodi:docname="Ankaran-grb.svg">
  <defs
     id="defs2">
    <clipPath
       id="clipPath869"
       clipPathUnits="userSpaceOnUse">
      <path
         inkscape:connector-curvature="0"
         id="path867"
         d="M 0,283.46 H 283.46 V 0 H 0 Z" />
    </clipPath>
  </defs>
  <sodipodi:namedview
     id="base"
     pagecolor="#ffffff"
     bordercolor="#666666"
     borderopacity="1.0"
     inkscape:pageopacity="0.0"
     inkscape:pageshadow="2"
     inkscape:zoom="0.7"
     inkscape:cx="-11.505638"
     inkscape:cy="403.43877"
     inkscape:document-units="mm"
     inkscape:current-layer="layer1"
     showgrid="false"
     inkscape:window-width="1857"
     inkscape:window-height="1025"
     inkscape:window-x="63"
     inkscape:window-y="27"
     inkscape:window-maximized="1"
     fit-margin-top="0.1"
     fit-margin-left="0.1"
     fit-margin-right="0.1"
     fit-margin-bottom="0.1" />
  <metadata
     id="metadata5">
    <rdf:RDF>
      <cc:Work
         rdf:about="">
        <dc:format>image/svg+xml</dc:format>
        <dc:type
           rdf:resource="http://purl.org/dc/dcmitype/StillImage" />
        <dc:title></dc:title>
      </cc:Work>
    </rdf:RDF>
  </metadata>
  <g
     inkscape:label="Layer 1"
     inkscape:groupmode="layer"
     id="layer1"
     transform="translate(-28.786095,-42.033367)">
    <g
       clip-path="url(#clipPath869)"
       id="g865"
       transform="matrix(1.5454819,0,0,-1.5454819,-114.20961,401.01281)">
      <g
         transform="translate(233.3408,90.4805)"
         id="g871" />
      <g
         transform="translate(48.7363,58.4102)"
         id="g875" />
      <g
         transform="translate(56.4229,58.3252)"
         id="g879" />
      <g
         transform="translate(63.291,65.8623)"
         id="g883" />
      <g
         transform="translate(90.2358,64.2227)"
         id="g887" />
      <g
         transform="translate(95.5835,65.8623)"
         id="g891" />
      <g
         transform="translate(114.8716,63.1602)"
         id="g895" />
      <g
         transform="translate(134.3906,64.1602)"
         id="g899" />
      <g
         transform="translate(143.4404,70.2871)"
         id="g903" />
      <g
         transform="translate(157.3486,63.5811)"
         id="g907" />
      <g
         transform="translate(168.8252,65.8623)"
         id="g911" />
      <g
         transform="translate(188.2305,63.8955)"
         id="g915" />
      <g
         transform="translate(198.6191,61.7881)"
         id="g919" />
      <g
         transform="translate(203.8125,65.8623)"
         id="g923" />
      <g
         transform="translate(219.5049,61.7881)"
         id="g927" />
      <g
         transform="translate(224.6982,65.8623)"
         id="g931" />
      <g
         transform="translate(243.2275,58.3252)"
         id="g935" />
      <g
         transform="translate(191.2627,171.3691)"
         id="g939">
        <path
           inkscape:connector-curvature="0"
           id="path941"
           style="fill:#ffffff;fill-opacity:1;fill-rule:evenodd;stroke:none"
           d="m 0,0 -0.179,-2.568 -0.294,-2.576 -0.392,-2.555 -0.503,-2.53 -0.604,-2.503 -0.703,-2.477 -0.802,-2.441 -0.897,-2.406 -0.992,-2.367 -1.085,-2.321 -1.176,-2.277 -1.264,-2.224 -1.35,-2.175 -1.433,-2.115 -1.515,-2.059 -1.597,-1.99 -1.673,-1.924 -1.749,-1.858 -1.821,-1.784 -1.896,-1.704 -1.966,-1.625 -2.032,-1.545 -2.096,-1.456 -2.162,-1.365 -2.219,-1.272 -2.283,-1.179 -2.338,-1.079 -2.396,-0.976 -2.444,-0.868 -2.499,-0.759 -2.546,-0.65 -2.321,-0.476 -2.281,0.489 -2.512,0.665 -2.469,0.781 -2.42,0.891 -2.37,1.001 -2.32,1.105 -2.263,1.207 -2.21,1.299 -2.15,1.395 -2.091,1.482 -2.028,1.57 -1.962,1.653 -1.895,1.725 -1.826,1.803 -1.756,1.873 -1.679,1.936 -1.603,2 -1.526,2.058 -1.443,2.109 -1.362,2.16 -1.275,2.206 -1.188,2.248 -1.1,2.286 -1.006,2.319 -0.912,2.35 -0.814,2.375 -0.72,2.397 -0.617,2.414 -0.516,2.428 -0.408,2.436 -0.303,2.443 -0.195,2.418 -0.021,61.217 H 0 Z" />
      </g>
      <g
         transform="translate(191.4727,171.354)"
         id="g943">
        <path
           inkscape:connector-curvature="0"
           id="path945"
           style="fill:#231f20;fill-opacity:1;fill-rule:nonzero;stroke:none"
           d="m 0,0 -0.182,-2.568 -0.003,-0.008 -0.289,-2.575 -0.003,-0.011 -0.396,-2.552 v -0.008 l -0.5,-2.531 -0.002,-0.009 -0.605,-2.505 v -0.006 l -0.704,-2.477 -0.002,-0.008 -0.802,-2.442 -0.004,-0.008 -0.9,-2.406 -0.002,-0.008 -0.991,-2.364 -0.005,-0.009 -1.083,-2.323 -0.006,-0.005 -1.172,-2.277 -0.006,-0.009 -1.263,-2.226 -0.004,-0.005 -1.349,-2.173 -0.005,-0.009 -1.434,-2.115 -0.004,-0.006 -1.516,-2.056 -0.006,-0.008 -1.594,-1.993 -0.007,-0.004 -1.672,-1.927 -0.008,-0.007 -1.749,-1.856 -0.005,-0.005 -1.826,-1.782 -0.004,-0.006 -1.895,-1.707 -0.004,-0.006 -1.967,-1.626 -0.008,-0.002 -2.029,-1.547 -0.007,-0.004 -2.095,-1.455 -0.011,-0.004 -2.16,-1.368 -0.007,-0.005 -2.222,-1.274 -0.008,-0.004 -2.281,-1.175 -0.007,-0.006 -2.34,-1.075 -0.009,-0.007 -2.393,-0.973 -0.008,-0.004 -2.449,-0.873 h -0.007 l -2.5,-0.761 -0.01,-0.004 -2.548,-0.645 -0.009,-0.004 -2.32,-0.475 -0.043,-0.008 -0.04,0.008 -2.282,0.488 -0.009,0.004 -2.512,0.666 h -0.01 l -2.467,0.781 -0.011,0.002 -2.42,0.894 -0.007,0.002 -2.369,1.001 -0.011,0.002 -2.32,1.104 -0.006,0.007 -2.266,1.205 -0.009,0.004 -2.205,1.301 -0.011,0.005 -2.149,1.393 -0.009,0.009 -2.089,1.48 -0.009,0.006 -2.027,1.568 -0.006,0.004 -1.962,1.655 -0.007,0.003 -1.895,1.729 -0.008,0.006 -1.823,1.8 -0.008,0.006 -1.752,1.872 -0.005,0.007 -1.682,1.935 -0.006,0.009 -1.602,2 -0.005,0.005 -1.523,2.056 -0.006,0.006 -1.446,2.112 -0.002,0.006 -1.361,2.161 -0.006,0.005 -1.275,2.208 -0.005,0.007 -1.186,2.248 -0.005,0.008 -1.097,2.286 -0.005,0.007 -1.006,2.319 -0.003,0.008 -0.911,2.349 -0.004,0.008 -0.818,2.373 -0.002,0.01 -0.715,2.394 -0.004,0.008 -0.619,2.417 v 0.007 l -0.515,2.428 v 0.008 l -0.413,2.438 -0.002,0.008 -0.301,2.443 v 0.008 l -0.194,2.418 v 0.017 l -0.02,61.217 v 0.208 H 0 V 0.015 Z m -0.599,-2.535 0.181,2.55 v 60.426 h -98.051 l 0.02,-60.992 0.193,-2.411 0.303,-2.44 0.408,-2.421 0.51,-2.418 0.621,-2.413 0.71,-2.381 0.816,-2.374 0.911,-2.342 1.002,-2.309 1.092,-2.276 1.186,-2.243 1.275,-2.204 1.355,-2.146 1.442,-2.111 1.516,-2.046 1.601,-1.995 1.674,-1.929 1.749,-1.868 1.816,-1.79 1.894,-1.733 1.953,-1.637 2.021,-1.567 2.087,-1.479 2.144,-1.39 2.194,-1.293 2.262,-1.203 2.314,-1.104 2.354,-0.993 2.41,-0.889 2.467,-0.781 2.498,-0.659 2.237,-0.478 2.265,0.463 2.546,0.65 2.484,0.754 2.439,0.868 2.39,0.973 2.329,1.071 2.267,1.173 2.22,1.271 2.146,1.356 2.097,1.46 2.018,1.531 1.962,1.623 1.891,1.703 1.812,1.771 1.748,1.852 1.666,1.916 1.59,1.989 1.51,2.055 0.003,-0.004 1.425,2.104 1.349,2.174 1.256,2.212 1.173,2.276 1.078,2.307 0.994,2.366 0.891,2.388 0.803,2.441 0.7,2.469 0.6,2.489 0.5,2.53 0.394,2.537 z" />
      </g>
      <g
         transform="translate(190.0664,168.9053)"
         id="g947">
        <path
           inkscape:connector-curvature="0"
           id="path949"
           style="fill:#231f20;fill-opacity:1;fill-rule:evenodd;stroke:none"
           d="m 0,0 -0.288,-2.53 -0.388,-2.514 -0.492,-2.489 -0.592,-2.464 -0.693,-2.437 -0.79,-2.402 -0.885,-2.368 -0.974,-2.329 -1.071,-2.285 -1.154,-2.241 -1.245,-2.191 -1.329,-2.14 -1.412,-2.082 -1.491,-2.021 -1.571,-1.964 -1.646,-1.893 -1.721,-1.828 -1.791,-1.753 -1.865,-1.677 -1.93,-1.597 -1.999,-1.517 -2.062,-1.432 -2.123,-1.343 -2.182,-1.253 -2.243,-1.155 -2.296,-1.057 -2.35,-0.957 -2.405,-0.855 -2.453,-0.746 -2.501,-0.638 -2.109,-0.432 -2.03,0.443 -2.466,0.649 -2.421,0.769 -2.377,0.875 -2.327,0.983 -2.278,1.085 -2.225,1.182 -2.172,1.282 -2.113,1.369 -2.058,1.459 -1.993,1.546 -1.931,1.625 -1.867,1.699 -1.797,1.773 -1.726,1.844 -1.656,1.907 -1.579,1.969 -1.501,2.024 -1.424,2.081 -1.34,2.128 -1.255,2.173 -1.171,2.213 -1.082,2.251 -0.991,2.283 -0.899,2.312 -0.803,2.337 -0.705,2.357 -0.608,2.375 -0.505,2.385 -0.404,2.395 -0.297,2.398 -0.188,2.356 -0.021,60.161 H 0.176 V 2.512 Z" />
      </g>
      <g
         transform="translate(188.7744,166.5093)"
         id="g951">
        <path
           inkscape:connector-curvature="0"
           id="path953"
           style="fill:#ffffff;fill-opacity:1;fill-rule:evenodd;stroke:none"
           d="m 0,0 -0.383,-2.471 -0.482,-2.448 -0.586,-2.426 -0.682,-2.395 -0.775,-2.364 -0.867,-2.33 -0.964,-2.292 -1.053,-2.249 -1.137,-2.206 -1.22,-2.153 -1.31,-2.106 -1.389,-2.048 -1.469,-1.993 -1.545,-1.927 -1.62,-1.864 -1.691,-1.799 -1.765,-1.723 -1.832,-1.648 -1.898,-1.572 -1.963,-1.491 -2.028,-1.408 -2.083,-1.319 -2.149,-1.227 -2.199,-1.139 -2.255,-1.04 -2.309,-0.938 -2.361,-0.84 -2.406,-0.731 -2.458,-0.625 -1.857,-0.38 -1.817,0.384 -2.418,0.642 -2.376,0.751 -2.333,0.861 -2.283,0.963 -2.238,1.066 -2.187,1.164 -2.131,1.259 -2.081,1.344 -2.019,1.436 -1.962,1.52 -1.901,1.595 -1.836,1.674 -1.768,1.745 -1.7,1.815 -1.63,1.881 -1.555,1.937 -1.477,1.993 -1.403,2.048 -1.318,2.095 -1.241,2.142 -1.15,2.179 -1.066,2.216 -0.973,2.247 -0.884,2.276 -0.79,2.295 -0.693,2.319 -0.597,2.335 -0.498,2.345 -0.396,2.348 -0.293,2.356 -0.182,2.295 -0.021,59.104 H 0.455 V 4.946 L 0.281,2.49 Z" />
      </g>
      <g
         transform="translate(95.9014,159.0249)"
         id="g955">
        <path
           inkscape:connector-curvature="0"
           id="path957"
           style="fill:#231f20;fill-opacity:1;fill-rule:nonzero;stroke:none"
           d="m 0,0 c -0.51,1.73 -0.915,3.619 -1.242,5.7 -0.328,2.079 -0.574,4.318 -0.77,6.754 0,0.025 -0.002,0.047 -0.002,0.073 v 58.435 c 0,0.519 0.418,0.935 0.934,0.935 0.239,0 0.46,-0.088 0.625,-0.238 L 46.141,36.774 92.772,71.717 c 0.412,0.307 0.994,0.223 1.301,-0.189 0.127,-0.167 0.189,-0.362 0.188,-0.557 h 0.001 V 12.619 c 0,-0.02 -0.001,-0.039 -0.001,-0.059 h 0.001 C 94.119,10.34 93.927,8.207 93.623,6.129 93.322,4.038 92.912,2.004 92.344,-0.005 92.208,-0.5 91.69,-0.793 91.197,-0.653 c -0.142,0.042 -0.267,0.111 -0.368,0.2 L 46.143,34.43 1.468,-0.472 C 1.062,-0.788 0.478,-0.716 0.161,-0.312 0.086,-0.216 0.034,-0.109 0,0" />
      </g>
      <g
         transform="translate(96.7959,159.2866)"
         id="g959">
        <path
           inkscape:connector-curvature="0"
           id="path961"
           style="fill:#fcd334;fill-opacity:1;fill-rule:evenodd;stroke:none"
           d="M 0,0 C -1,3.398 -1.585,7.394 -1.975,12.266 V 70.7 L 45.248,35.352 92.436,70.709 V 12.357 C 92.159,7.967 91.663,3.919 90.553,-0.016 L 45.248,35.352 0,0" />
      </g>
      <g
         transform="translate(141.8477,114.4805)"
         id="g963">
        <path
           inkscape:connector-curvature="0"
           id="path965"
           style="fill:#231f20;fill-opacity:1;fill-rule:nonzero;stroke:none"
           d="m 0,0 v 0 c -1.55,0.29 -3.078,0.655 -4.585,1.092 -1.519,0.442 -2.993,0.947 -4.42,1.513 -7.411,2.931 -14.097,7.582 -20.012,13.308 -0.348,0.341 -0.354,0.895 -0.017,1.243 0.128,0.129 0.285,0.212 0.453,0.244 0.267,0.063 0.532,0.146 0.791,0.251 0.267,0.105 0.518,0.234 0.751,0.374 1.215,0.74 2.121,1.993 2.291,3.603 0.117,1.101 -0.049,2.114 -0.433,2.978 -0.342,0.768 -0.854,1.416 -1.491,1.892 -0.63,0.469 -1.385,0.777 -2.218,0.863 -0.881,0.094 -1.851,-0.055 -2.86,-0.503 -0.442,-0.196 -0.96,0 -1.157,0.445 -0.121,0.269 -0.093,0.569 0.05,0.805 0.792,1.328 1.664,2.403 2.592,3.236 1.494,1.341 3.127,2.05 4.811,2.174 1.678,0.122 3.381,-0.332 5.032,-1.323 1.158,-0.692 2.291,-1.647 3.368,-2.848 l 0.003,-0.002 0.004,-0.008 v 0.003 -0.003 l 0.02,-0.017 c 1.57,-1.76 3.056,-4.174 4.481,-6.491 0.804,-1.305 1.588,-2.577 2.336,-3.65 l 0.011,-0.021 c 0.953,-1.141 2.172,-1.732 3.402,-1.86 0.686,-0.074 1.377,-0.004 2.026,0.188 0.651,0.192 1.257,0.51 1.782,0.934 0.928,0.754 1.592,1.853 1.738,3.208 0.115,1.101 -0.053,2.118 -0.438,2.978 -0.34,0.768 -0.853,1.416 -1.488,1.894 -0.632,0.47 -1.388,0.775 -2.221,0.861 -0.881,0.094 -1.851,-0.053 -2.858,-0.503 -0.441,-0.196 -0.959,0.003 -1.157,0.445 -0.122,0.272 -0.092,0.572 0.051,0.807 l -0.003,0.003 c 3.896,6.447 7.989,6.795 11.764,4.514 4.124,-2.492 7.705,-8.301 10.136,-12.245 0.198,-0.322 0.383,-0.62 0.754,-1.212 0.953,-1.149 2.178,-1.744 3.409,-1.872 0.687,-0.074 1.375,-0.004 2.024,0.188 0.651,0.192 1.257,0.508 1.781,0.932 0.933,0.754 1.595,1.855 1.739,3.21 0.117,1.101 -0.05,2.118 -0.433,2.978 -0.343,0.768 -0.857,1.416 -1.492,1.894 -0.63,0.47 -1.386,0.775 -2.217,0.864 -0.88,0.091 -1.854,-0.056 -2.861,-0.506 -0.44,-0.196 -0.96,0.003 -1.157,0.445 -0.121,0.269 -0.092,0.569 0.047,0.805 0.796,1.33 1.668,2.405 2.595,3.236 1.496,1.341 3.126,2.05 4.813,2.174 1.672,0.125 3.378,-0.332 5.031,-1.323 1.156,-0.692 2.289,-1.647 3.375,-2.855 l 0.004,-0.008 0.022,-0.023 c 1.571,-1.76 3.051,-4.164 4.473,-6.48 0.016,-0.02 0.027,-0.042 0.036,-0.059 l 0.319,-0.515 c 0.199,-0.327 0.164,-0.733 -0.066,-1.016 l 10e-4,-0.002 C 33.525,19.745 32.249,18.298 30.9,16.909 29.565,15.528 28.175,14.212 26.726,12.97 19.284,6.572 10.397,2.047 0.338,0.002 0.224,-0.021 0.11,-0.021 0,0" />
      </g>
      <g
         transform="translate(142.0098,115.3408)"
         id="g967">
        <path
           inkscape:connector-curvature="0"
           id="path969"
           style="fill:#1a67bb;fill-opacity:1;fill-rule:evenodd;stroke:none"
           d="m 0,0 c -10.907,2.038 -20.464,7.838 -28.568,15.683 2.293,0.52 4.251,2.346 4.531,4.992 0.502,4.714 -3.603,8.183 -8.232,6.123 3.933,6.574 9.67,6.375 14.403,1.105 2.38,-2.655 4.663,-7.054 6.772,-10.085 V 17.81 c 3.434,-4.234 10.017,-2.161 10.55,2.867 0.5,4.712 -3.603,8.183 -8.231,6.121 8.216,13.599 17.011,-2.329 21.173,-8.98 v -0.005 c 3.433,-4.237 10.021,-2.164 10.553,2.864 0.502,4.712 -3.603,8.183 -8.231,6.121 3.931,6.576 9.669,6.378 14.402,1.105 1.646,-1.834 3.244,-4.5 4.767,-6.972 C 25.296,10.309 13.764,2.799 0,0" />
      </g>
      <g
         transform="translate(132.7344,174.4702)"
         id="g971">
        <path
           inkscape:connector-curvature="0"
           id="path973"
           style="fill:#231f20;fill-opacity:1;fill-rule:nonzero;stroke:none"
           d="m 0,0 c 0.098,-0.675 -0.184,-1.391 -1.045,-1.945 -0.779,-0.503 -1.843,-0.605 -2.702,-0.399 -0.407,0.099 -0.78,0.266 -1.081,0.503 -0.353,0.269 -0.597,0.617 -0.686,1.03 -0.094,0.437 0,0.923 0.353,1.434 0.845,1.216 2.037,1.521 3.055,1.323 C -1.57,1.844 -1.085,1.598 -0.717,1.265 -0.33,0.919 -0.069,0.477 0,0 m -24.197,1.575 c 0.338,0.841 0.698,1.618 1.111,2.335 -0.109,-0.031 -0.219,-0.054 -0.329,-0.074 -0.375,-0.064 -0.771,-0.059 -1.149,0.013 -0.389,0.076 -0.765,0.221 -1.098,0.439 -0.577,0.379 -1.008,0.957 -1.139,1.725 -0.182,1.087 0.461,1.866 1.383,2.303 0.143,0.068 0.292,0.125 0.446,0.175 -1.363,0.277 -2.85,0.725 -4.428,1.398 l -1.24,0.528 0.945,0.754 0.005,0.005 h 0.005 c 0.558,0.445 1.166,0.836 1.808,1.164 0.641,0.33 1.324,0.604 2.031,0.823 1.093,0.338 2.241,0.54 3.4,0.606 -0.341,0.267 -0.622,0.575 -0.833,0.889 -0.234,0.351 -0.385,0.727 -0.421,1.098 h -0.004 c -0.045,0.414 0.043,0.812 0.293,1.161 0.389,0.541 1.139,0.934 2.367,1.008 1.071,0.063 1.903,-0.16 2.519,-0.547 -0.525,1.091 -0.768,2.389 -0.722,4.294 l 0.028,1.016 1.11,-0.371 0.011,-0.005 h 0.005 c 0.894,-0.305 1.678,-0.739 2.367,-1.255 0.499,0.428 1.012,0.823 1.532,1.173 0.559,0.381 1.132,0.725 1.707,1.03 0.426,0.228 0.853,0.437 1.279,0.627 -0.269,0.076 -0.512,0.192 -0.712,0.347 -0.462,0.362 -0.706,0.856 -0.567,1.496 -1.969,-0.972 -5.266,-1.872 -11.148,-1.775 l -2.479,0.041 1.831,1.346 c 0.419,0.307 0.872,0.63 1.359,0.962 -0.332,0.047 -0.67,0.139 -0.998,0.27 -0.583,0.228 -1.136,0.578 -1.57,0.98 -0.465,0.435 -0.81,0.946 -0.937,1.466 -0.244,0.996 0.216,1.926 1.918,2.341 0.65,0.158 1.3,0.127 1.892,-0.035 -1.296,0.587 -2.677,1.466 -4.153,2.787 l -1.075,0.959 1.4,0.313 h 0.007 c 0.483,0.106 1.055,0.153 1.687,0.148 0.605,-0.009 1.267,-0.059 1.959,-0.148 3.355,-0.431 7.559,-1.816 9.096,-3.167 -0.122,0.183 -0.242,0.365 -0.356,0.551 -0.259,0.419 -0.507,0.856 -0.732,1.305 -1.165,2.316 -1.714,4.836 -1.008,7.319 l 0.262,0.908 0.975,-0.477 c 4.129,-2.017 4.39,-5.359 4.252,-8.532 0.114,0.066 0.244,0.127 0.387,0.177 1.51,0.548 2.75,0.054 3.515,-0.771 0.37,-0.399 0.619,-0.877 0.726,-1.346 0.114,-0.501 0.071,-1.006 -0.15,-1.431 -0.216,-0.414 -0.586,-0.741 -1.113,-0.901 0.376,-0.163 0.727,-0.327 1.016,-0.503 0.478,-0.265 0.943,-0.523 1.396,-0.788 0.131,-0.076 0.262,-0.154 0.398,-0.235 -0.546,1.457 -1.13,3.288 -1.411,5.148 -0.347,2.303 -0.224,4.658 1.003,6.464 l 0.426,0.623 0.757,-0.404 c 0.588,-0.311 1.069,-0.765 1.454,-1.326 0.356,-0.517 0.636,-1.118 0.847,-1.77 1.018,-3.162 0.541,-7.852 -0.01,-9.322 l -0.077,-0.145 c -0.151,-0.221 -0.201,-0.427 -0.201,-0.617 0,-0.16 0.041,-0.341 0.092,-0.524 0.126,-0.133 0.28,-0.277 0.453,-0.434 0.23,-0.213 0.506,-0.452 0.81,-0.704 1.551,-1.293 3.648,-2.806 4.513,-3.378 v -0.002 c 0.238,-0.158 0.448,-0.328 0.648,-0.493 0.272,-0.221 0.495,-0.403 0.749,-0.231 0.244,0.241 0.567,0.812 0.859,1.544 0.327,0.815 0.591,1.793 0.64,2.702 0.042,0.804 -0.08,1.525 -0.486,1.951 -0.096,0.103 -0.216,0.188 -0.36,0.257 -1.341,0.281 -3.115,1.531 -4.473,3.068 -1.397,1.578 -2.411,3.502 -2.151,5.06 l 0.002,0.005 0.005,0.033 0.12,0.684 0.794,-0.09 0.003,-0.003 h 0.008 c 0.508,-0.057 1.021,-0.202 1.524,-0.416 0.48,-0.202 0.953,-0.464 1.405,-0.775 1.358,-0.926 2.607,-2.308 3.466,-3.68 -0.06,0.3 -0.114,0.607 -0.157,0.917 -0.492,3.444 -0.011,7.51 1.525,9.138 l 0.791,0.844 0.667,-1.029 v -0.002 0.002 l -0.003,0.006 0.003,-0.008 c 0.286,-0.445 0.553,-0.953 0.79,-1.503 0.241,-0.549 0.452,-1.136 0.627,-1.748 0.5,-1.735 0.736,-3.69 0.537,-5.464 0.225,0.259 0.47,0.511 0.736,0.759 1.335,1.236 3.195,2.282 5.879,3.146 l 1.354,0.436 -0.118,-1.293 v -0.004 0.001 c -0.061,-0.662 -0.258,-1.294 -0.554,-1.899 -0.284,-0.581 -0.661,-1.136 -1.099,-1.654 -1.928,-2.282 -5.069,-3.891 -6.184,-4.358 -0.491,-1.024 -0.514,-3.043 -0.168,-4.743 0.136,-0.673 0.332,-1.278 0.58,-1.732 0.172,-0.315 0.329,-0.518 0.447,-0.551 0.016,-0.005 0.068,0.016 0.157,0.064 l 0.054,0.032 0.051,0.018 c 1.365,0.529 2.154,1.161 3.107,1.923 0.902,0.721 1.938,1.549 3.695,2.527 0.344,0.194 0.997,0.585 1.472,0.971 0.103,0.084 0.196,0.162 0.271,0.238 -0.014,0.021 -0.026,0.044 -0.043,0.064 -0.582,0.899 -1.093,3.213 -1.189,5.57 -0.097,2.382 0.225,4.88 1.313,6.147 0.182,0.211 0.386,0.393 0.618,0.543 l 0.686,0.444 0.561,-0.639 0.003,-0.002 c 0.361,-0.412 0.635,-0.922 0.843,-1.499 0.192,-0.531 0.325,-1.136 0.417,-1.78 0.152,-1.055 0.179,-2.221 0.143,-3.338 0.088,0.124 0.186,0.238 0.293,0.347 0.35,0.359 0.806,0.636 1.275,0.802 0.519,0.179 1.072,0.23 1.581,0.118 0.348,-0.079 0.665,-0.229 0.933,-0.457 0.135,3.106 1.05,7.325 4.187,8.573 l 1.067,0.423 0.213,-1.058 c 0.806,-3.991 -0.686,-6.886 -1.697,-8.858 -0.294,-0.569 -0.534,-1.036 -0.661,-1.346 0.638,0.287 1.359,0.749 1.507,0.887 l 0.005,0.002 v 0.003 h -10e-4 c 0.357,0.333 0.789,0.61 1.276,0.84 0.466,0.219 0.988,0.395 1.538,0.534 2.713,0.673 6.342,0.439 8.589,0.048 l 2.58,-0.452 -2.243,-1.003 c -5.858,-2.626 -9.415,-3.182 -11.519,-3.282 0.201,-0.087 0.405,-0.176 0.615,-0.272 3.132,-1.413 7.491,-4.006 7.977,-5.204 l 0.463,-1.144 -1.347,0.166 c -8.103,1 -8.539,1.537 -11.895,5.669 0.084,-0.107 0.216,-0.269 -0.051,0.055 -0.211,-0.073 -0.457,-0.167 -0.724,-0.275 -1.336,-0.547 -3.264,-1.441 -4.123,-1.987 0.066,-0.013 0.131,-0.025 0.198,-0.04 3.461,-0.819 5.238,-1.291 6.409,-1.976 1.293,-0.758 1.739,-1.624 2.558,-3.239 l 0.486,-0.955 c 0.867,0.711 1.884,1.354 3.023,1.866 l 1.076,0.483 0.238,-1.09 c 0.615,-2.807 -1.203,-4.938 -2.845,-6.86 -0.865,-1.014 -1.568,-1.999 -1.925,-2.815 -0.251,-0.577 2.26,0.069 2.714,0.178 0.631,0.15 1.306,0.313 2.125,0.402 -0.5,0.225 -0.922,0.622 -1.208,1.082 -0.21,0.338 -0.349,0.716 -0.389,1.085 -0.045,0.393 0.017,0.784 0.217,1.127 0.222,0.379 0.593,0.684 1.151,0.849 l 0.042,0.01 0.05,0.009 c 1.755,0.326 2.974,-0.121 3.629,-0.82 0.361,-0.383 0.549,-0.837 0.568,-1.295 C 43.065,11.956 42.929,11.52 42.634,11.144 42.377,10.818 42,10.537 41.511,10.355 41.792,10.331 42.088,10.3 42.399,10.257 l -10e-4,-0.002 c 0.191,-0.028 0.458,-0.084 0.779,-0.171 0.302,-0.079 0.651,-0.18 1.022,-0.297 1.995,-0.632 4.924,-1.811 5.752,-2.772 L 50.614,6.243 49.672,5.865 H 49.667 C 49.391,5.756 49.111,5.657 48.834,5.568 48.56,5.484 48.249,5.397 47.906,5.311 46.251,4.907 44.209,4.676 42.089,4.809 L 42.073,4.811 H 42.066 L 42.064,4.809 C 40.665,4.926 39.183,5.538 37.746,6.135 36.279,6.742 34.863,7.325 33.985,7.191 33.99,7.136 34.008,7.074 34.029,7.008 34.075,6.874 34.127,6.759 34.15,6.752 l 0.015,-0.003 h 0.004 c 0.492,-0.157 0.974,-0.472 1.435,-0.907 0.403,-0.381 0.811,-0.866 1.213,-1.422 1.944,-2.701 3.794,-7.239 4.104,-8.817 l 0.201,-1.011 -1.155,0.176 h -0.009 c -0.819,0.124 -1.57,0.391 -2.268,0.769 -0.675,0.369 -1.286,0.839 -1.836,1.385 -1.226,1.22 -2.16,2.831 -2.818,4.474 -0.085,-0.215 -0.204,-0.41 -0.357,-0.578 -0.503,-0.543 -1.295,-0.78 -2.367,-0.427 -0.936,0.311 -1.75,1.121 -2.154,1.959 -0.18,0.368 -0.289,0.749 -0.304,1.102 -0.019,0.417 0.086,0.808 0.343,1.129 0.291,0.368 0.748,0.613 1.409,0.672 1.048,0.094 1.871,-0.211 2.466,-0.706 -0.174,0.795 -0.274,1.536 -0.311,2.166 V 6.719 C 31.552,6.658 31.345,6.597 31.138,6.536 30.101,6.238 29.04,5.931 28.141,5.56 L 28.135,5.555 C 27.855,5.438 27.666,5.36 27.616,5.339 27.505,5.292 27.318,5.208 27.027,5.081 26.16,4.692 25.448,4.405 24.803,3.996 c 0.196,-0.104 0.478,-0.295 1.066,-0.734 0.54,-0.404 1.158,-0.866 1.764,-1.344 1.119,-0.889 2.302,-1.913 3.21,-2.984 0.977,-1.151 1.651,-2.366 1.651,-3.559 v -0.869 l -0.994,0.17 -0.013,0.003 c -4.828,0.851 -7.581,5.69 -8.633,7.877 -2.955,-2.144 -4.608,-3.848 -5.415,-5.677 -0.876,-1.984 -0.776,-4.209 -0.295,-7.382 0.223,-0.894 0.734,-2.832 1.585,-4.714 0.815,-1.808 1.935,-3.562 3.366,-4.168 v 0.005 l 0.051,-0.022 c 0.424,-0.179 1.468,-0.618 1.824,-1.248 0.298,-0.532 0.233,-1.041 -0.492,-1.448 -2.292,-1.282 -4.075,-0.089 -5.782,1.054 -1.111,0.744 -2.18,1.458 -3.11,0.849 -0.098,-0.064 -0.396,-0.259 -0.657,-0.432 -2.828,-1.865 -3.289,-2.167 -5.464,-0.574 l -0.155,0.142 c -0.252,0.295 -0.501,0.548 -0.736,0.763 -1.054,0.944 -2.019,1.221 -2.817,1.171 -0.807,-0.054 -1.475,-0.427 -1.89,-0.781 -0.078,-0.068 -0.152,-0.142 -0.216,-0.213 -1.168,-1.298 -2.506,-1.829 -3.84,-1.92 -1.307,-0.087 -2.566,0.256 -3.639,0.706 l -0.059,0.031 c -0.208,0.101 -0.915,0.53 -1.3,0.927 -0.176,0.18 -0.316,0.378 -0.384,0.585 -0.127,0.393 -0.043,0.736 0.342,0.994 0.209,0.14 0.504,0.226 0.91,0.237 1.132,0.024 2.048,0.167 2.875,0.441 0.81,0.269 1.547,0.674 2.322,1.232 5.461,4.816 3.789,9.558 2.113,14.31 C 1.868,-2.227 1.734,-1.935 1.55,-1.612 1.378,-1.318 1.147,-0.937 0.873,-0.507 -0.313,1.359 -2.223,4.121 -3.082,4.537 -3.112,4.504 -3.144,4.468 -3.171,4.433 V 4.429 C -3.28,4.288 -3.369,4.146 -3.439,4.011 L -3.503,3.883 -3.604,3.798 C -3.772,3.652 -3.96,3.283 -4.193,2.815 -5.058,1.103 -6.465,-1.691 -11.852,-3.449 l -0.932,-0.302 -0.274,0.869 -0.005,0.017 c -0.145,0.463 -0.181,0.942 -0.127,1.432 0.044,0.46 0.175,0.929 0.362,1.392 0.595,1.454 1.831,2.916 3.099,4.019 -0.691,-0.091 -1.421,0.053 -2.054,0.556 -0.847,0.671 -1.095,1.367 -0.968,1.995 0.104,0.513 0.472,0.934 0.978,1.221 0.447,0.257 1.011,0.411 1.577,0.429 1.123,0.039 2.271,-0.422 2.718,-1.62 L -7.456,6.5 -7.445,6.447 c 0.07,-0.335 0.022,-0.673 -0.112,-0.981 0.158,0.054 0.3,0.097 0.448,0.143 0.55,0.17 1.232,0.378 1.538,0.615 -0.154,0.111 -0.317,0.228 -0.475,0.342 -0.467,0.332 -0.924,0.665 -1.335,0.902 h -0.003 c -0.081,0.048 -0.213,0.112 -0.376,0.188 -0.191,0.086 -0.417,0.183 -0.658,0.28 -0.993,0.4 -2.334,0.905 -2.738,0.955 -0.229,-0.452 -0.586,-0.722 -0.945,-0.989 -0.256,-0.195 -0.513,-0.386 -0.569,-0.622 l -0.015,-0.069 -0.03,-0.063 C -13.508,5.522 -14.141,4.253 -15.616,3.158 -17.054,2.09 -19.243,1.252 -23.11,0.51 l -1.643,-0.314 z m 3.218,4.981 c 1.222,1.087 2.799,1.912 4.953,2.479 0.056,0.015 0.267,0.068 0.458,0.117 0.53,0.135 0.965,0.244 1.357,0.439 C -14.278,9.596 -14.346,9.6 -14.414,9.6 -15.1,9.614 -15.832,9.502 -16.14,9.307 h -0.003 c -0.261,-0.168 -0.588,-0.333 -0.972,-0.483 -0.376,-0.147 -0.808,-0.279 -1.288,-0.39 -0.914,-0.209 -2.034,-0.339 -3.327,-0.312 0.216,-0.166 0.397,-0.365 0.53,-0.606 0.156,-0.282 0.237,-0.602 0.221,-0.96 m 2.856,6.8 c 1.089,-0.285 2.118,-0.712 3.029,-1.28 0.221,0 0.596,-0.011 1.251,-0.079 h 0.002 c -0.021,0.02 -0.038,0.04 -0.057,0.061 -0.602,0.647 -1.177,1.218 -1.691,1.732 -0.64,0.64 -1.199,1.199 -1.673,1.745 0.014,-0.117 0.025,-0.231 0.025,-0.348 0.003,-0.417 -0.106,-0.829 -0.322,-1.189 -0.145,-0.241 -0.334,-0.459 -0.564,-0.642 m 11.005,11.918 c 0.305,0.07 0.589,0.126 0.847,0.169 -0.127,0.084 -0.253,0.17 -0.378,0.252 l -0.342,0.223 c 0.015,-0.223 -0.03,-0.437 -0.127,-0.644 m -13.038,2.708 c 0.483,0.252 0.984,0.495 1.497,0.713 1.439,0.619 2.975,1.061 4.535,1.155 -0.53,0.16 -0.989,0.256 -1.185,0.237 l -0.053,-0.005 -0.084,10e-4 c -0.028,0 -0.31,0.009 -0.66,0.017 -1.652,0.043 -3.524,0.091 -5.64,0.865 0.324,-0.177 0.61,-0.396 0.851,-0.642 0.371,-0.379 0.637,-0.823 0.749,-1.293 0.084,-0.346 0.088,-0.703 -0.01,-1.048 m 45.093,1.053 c -0.068,-0.663 -0.145,-1.249 -0.219,-1.712 0.105,0.052 0.216,0.107 0.323,0.161 0.308,0.15 0.624,0.291 0.939,0.423 -0.409,0.237 -0.77,0.605 -1.043,1.128 m -36.293,-15.05 c 0.035,0.066 0.079,0.133 0.123,0.194 0.389,0.533 1.057,0.916 1.928,0.96 0.854,0.04 1.509,-0.125 1.997,-0.415 -0.457,1.858 -0.51,3.734 0.437,5.2 l 0.041,0.058 c -2.158,-0.852 -4.83,-0.723 -7.27,-0.492 1.529,-1.842 2.331,-4.054 2.744,-5.505 m 4.974,-1.993 C -6.457,11.809 -6.554,11.633 -6.673,11.474 -6.997,11.032 -7.47,10.69 -8.05,10.562 -7.148,10.331 -6.3,10.11 -5.695,9.75 -5.543,9.657 -5.387,9.571 -5.239,9.489 -5.588,10.211 -6,11.067 -6.382,11.992 M 41.707,-0.424 c -0.864,0.231 -1.509,0.808 -1.868,1.483 -0.151,0.285 -0.25,0.585 -0.294,0.879 -0.043,0.306 -0.031,0.615 0.048,0.907 0.135,0.506 0.457,0.95 0.993,1.234 l 0.081,0.044 0.102,0.027 C 42.412,4.595 43.852,3.955 44.667,3.049 45.056,2.619 45.309,2.121 45.385,1.636 45.471,1.087 45.339,0.562 44.941,0.151 44.398,-0.411 43.389,-0.716 41.8,-0.445 l -0.041,0.006 z M 15.77,8.434 c 0.167,0.524 0.593,1.112 1.087,1.531 0.321,0.269 0.685,0.488 1.054,0.599 0.517,0.157 1.039,0.13 1.518,-0.163 0.27,-0.167 0.5,-0.408 0.667,-0.739 C 20.886,8.103 20.532,6.744 19.795,5.858 19.327,5.297 18.686,4.915 18.066,4.783 17.258,4.613 16.473,4.809 15.951,5.461 15.486,6.048 15.318,7.021 15.77,8.434 m 14.707,4.937 c 0.346,-0.358 0.577,-0.755 0.707,-1.158 0.003,0.208 0.01,0.418 0.027,0.624 v 0.007 c 0.026,0.346 0.099,0.709 0.219,1.084 0.115,0.364 0.271,0.734 0.467,1.099 0.554,1.041 1.435,2.116 2.583,3.073 L 33.366,18.093 C 32.937,18.091 32.62,18.081 32.322,18.07 29.543,17.976 27.948,17.922 23.328,22.385 l -10e-4,0.003 -0.053,0.048 -0.001,0.004 c -0.446,0.438 -0.456,0.334 -0.759,0.154 -0.19,-0.112 -0.373,-0.229 -0.551,-0.35 -0.37,-0.255 -0.724,-0.532 -1.049,-0.827 0.503,0.097 1.04,0.083 1.565,-0.101 1.271,-0.444 1.879,-1.183 2.009,-1.956 0.028,-0.17 0.03,-0.34 0.011,-0.508 l 0.063,0.051 0.793,0.568 0.554,-0.829 c 0.026,-0.04 0.047,-0.074 0.064,-0.1 h -0.002 c 1.216,-1.894 1.295,-4.231 0.953,-6.386 0.063,0.141 0.135,0.277 0.213,0.404 0.285,0.471 0.683,0.875 1.115,1.108 l -0.004,0.002 c 0.742,0.404 1.551,0.394 2.229,-0.299 M 31.245,10.73 C 31.177,10.415 31.064,10.12 30.911,9.857 30.68,9.462 30.361,9.132 29.991,8.921 29.474,8.622 28.866,8.537 28.244,8.768 27.148,9.175 26.694,9.939 26.648,10.78 26.328,9.439 25.898,8.237 25.56,7.348 c 0.95,0.29 2.203,0.694 3.348,1.063 0.958,0.31 1.854,0.596 2.544,0.778 -0.025,0.141 -0.051,0.304 -0.079,0.491 -0.047,0.341 -0.094,0.691 -0.128,1.05 M 0.046,7.193 C -0.435,8.014 -0.359,9.122 0.014,9.975 l 0.004,0.003 c 0.149,0.345 0.353,0.662 0.593,0.914 0.288,0.302 0.635,0.518 1.024,0.602 C 2.194,11.61 2.757,11.481 3.273,11.011 4.453,9.932 4.641,8.682 4.326,7.707 4.178,7.249 3.921,6.851 3.599,6.554 3.238,6.218 2.789,5.999 2.308,5.943 1.476,5.847 0.63,6.193 0.046,7.193 m 19.161,10.396 c -0.394,0.288 -0.622,0.625 -0.718,0.992 L 18.443,18.527 C 18.019,18.039 17.59,17.557 17.32,17.159 l 0.002,-0.004 -0.016,-0.019 C 16.996,16.67 16.665,16.119 16.333,15.495 16.008,14.883 15.687,14.212 15.39,13.506 13.887,9.946 12.94,5.492 14.68,2.833 14.979,2.375 14.997,2.357 15.347,2.42 V 2.418 l 0.154,0.028 v 0.003 h 0.002 l 0.013,0.002 c 1.392,0.259 3.415,1.582 5.083,2.677 0.83,0.544 1.582,1.035 2.172,1.342 0.002,0.007 0.002,0.012 0.003,0.017 0.032,0.117 0.007,0.234 -0.044,0.303 -0.006,0.01 -0.03,0.043 -0.071,0.094 -1.073,1.489 -1.382,3.911 -1.045,6.228 0.206,1.391 0.646,2.763 1.302,3.888 -1.018,-0.411 -2.388,-0.373 -3.709,0.589 m -24.75,2.493 c -0.063,0.175 -0.099,0.348 -0.111,0.507 -0.082,-0.053 -0.163,-0.104 -0.248,-0.152 z m 2.101,2.552 c 0.187,0.026 0.381,0.046 0.576,0.049 0.232,0.005 0.465,-0.007 0.699,-0.039 -0.289,0.246 -0.587,0.661 -0.706,0.734 -0.176,-0.244 -0.363,-0.497 -0.569,-0.744 M 0.487,19.809 C 0.436,19.574 0.352,19.325 0.224,19.061 -0.005,18.596 -0.321,18.258 -0.694,18.027 -1.139,17.75 -1.651,17.636 -2.177,17.654 c -0.492,0.015 -0.991,0.15 -1.452,0.373 l -0.08,0.039 c 0.302,-0.377 0.585,-0.761 0.843,-1.151 1.834,-2.759 2.531,-5.739 1.474,-8.82 0.017,-0.366 0.025,-0.472 0.3,-0.793 C -0.775,7.048 -0.296,6.673 0.182,6.297 1.436,5.311 2.683,4.336 3.798,3.204 3.9,3.099 3.975,2.974 4.092,2.878 4.224,2.774 4.358,2.718 4.478,2.71 4.609,2.703 4.734,2.753 4.826,2.845 5.427,3.945 5.382,5.228 5.339,6.393 L 5.331,6.647 H 5.328 c -0.081,2.086 -0.318,4.235 -0.937,6.33 -0.609,2.068 -1.589,4.093 -3.157,5.961 -0.2,0.237 -0.345,0.41 -0.42,0.496 z m 1.372,4.163 c -1.252,0.171 -2.057,0.788 -2.385,1.502 -0.144,0.314 -0.196,0.648 -0.15,0.973 0.046,0.312 0.18,0.615 0.409,0.876 0.521,0.596 1.522,0.995 2.982,0.823 1.346,-0.16 2.126,-0.708 2.451,-1.364 C 5.331,26.447 5.372,26.099 5.304,25.758 5.245,25.459 5.094,25.169 4.869,24.91 4.298,24.254 3.2,23.79 1.859,23.972 m -22.426,11.829 c -0.369,0.397 -0.717,0.849 -0.923,1.324 -0.253,0.574 -0.304,1.168 0.019,1.734 0.239,0.417 0.655,0.844 1.179,1.093 0.317,0.153 0.678,0.244 1.066,0.244 0.406,-0.002 0.823,-0.105 1.238,-0.338 0.578,-0.328 1.148,-0.935 1.626,-1.933 0.423,-0.887 0.468,-1.575 0.284,-2.086 -0.151,-0.406 -0.435,-0.695 -0.8,-0.881 -0.337,-0.17 -0.727,-0.246 -1.137,-0.241 -0.895,0.007 -1.943,0.429 -2.552,1.084 M 41.049,24.204 c -1.267,0.181 -2.07,0.836 -2.391,1.584 -0.137,0.324 -0.179,0.659 -0.134,0.984 v 0.002 c 0.047,0.323 0.182,0.631 0.408,0.897 0.518,0.62 1.522,1.031 2.988,0.848 1.364,-0.169 2.143,-0.748 2.458,-1.44 0.155,-0.338 0.192,-0.691 0.121,-1.034 -0.06,-0.307 -0.21,-0.604 -0.432,-0.868 -0.572,-0.683 -1.669,-1.169 -3.018,-0.973 m -2.202,8.755 c -1.353,-0.122 -2.347,0.349 -2.868,1.037 -0.232,0.301 -0.365,0.642 -0.397,0.993 -0.031,0.335 0.036,0.681 0.203,1.004 0.383,0.734 1.298,1.373 2.829,1.539 1.449,0.156 2.399,-0.242 2.901,-0.869 0.25,-0.313 0.377,-0.67 0.388,-1.045 0.011,-0.331 -0.068,-0.669 -0.233,-0.988 -0.417,-0.81 -1.414,-1.544 -2.823,-1.671 M 21.566,-4.729 c -1.284,0.201 -2.09,0.912 -2.394,1.717 -0.129,0.333 -0.165,0.676 -0.118,1.006 0.05,0.329 0.186,0.648 0.41,0.924 0.524,0.658 1.531,1.09 2.995,0.892 1.39,-0.188 2.168,-0.816 2.47,-1.565 0.14,-0.343 0.17,-0.701 0.098,-1.044 -0.061,-0.319 -0.212,-0.629 -0.431,-0.906 -0.576,-0.727 -1.676,-1.232 -3.03,-1.024 m -5.944,40.785 c -1.262,-0.318 -2.297,0.038 -2.911,0.68 -0.261,0.269 -0.441,0.587 -0.527,0.928 -0.087,0.327 -0.087,0.675 0.012,1.018 0.219,0.777 0.949,1.534 2.319,1.907 1.352,0.368 2.329,0.079 2.919,-0.507 0.283,-0.282 0.456,-0.618 0.531,-0.976 V 39.104 C 18.031,38.784 18.017,38.441 17.919,38.1 17.68,37.239 16.9,36.377 15.622,36.056 m 1.463,-11.878 c -1.306,0.232 -2.109,1.002 -2.398,1.863 -0.116,0.34 -0.145,0.693 -0.093,1.031 0.055,0.335 0.196,0.66 0.42,0.945 0.539,0.678 1.54,1.107 2.994,0.886 1.418,-0.219 2.195,-0.904 2.476,-1.701 0.125,-0.351 0.144,-0.717 0.072,-1.065 -0.07,-0.328 -0.218,-0.649 -0.438,-0.929 -0.586,-0.755 -1.68,-1.269 -3.033,-1.03 M 1.864,36.488 c -0.894,0.823 -1.156,1.772 -0.986,2.535 0.074,0.332 0.232,0.632 0.456,0.875 0.236,0.252 0.54,0.448 0.906,0.557 0.854,0.259 1.986,0.053 3.122,-0.953 C 6.346,38.631 6.636,37.757 6.498,37.047 6.425,36.696 6.252,36.388 6.001,36.142 5.758,35.906 5.446,35.728 5.087,35.618 4.155,35.337 2.898,35.535 1.864,36.488" />
      </g>
      <g
         transform="translate(109.373,175.7397)"
         id="g975">
        <path
           inkscape:connector-curvature="0"
           id="path977"
           style="fill:#009e59;fill-opacity:1;fill-rule:evenodd;stroke:none"
           d="M 0,0 C 1.415,3.508 3.186,5.85 7.646,7.023 8.905,7.354 9.69,7.466 10.537,8.292 10.788,9.335 7.61,9.276 6.668,8.677 5.111,7.685 0.521,6.661 -5.709,9.313 c 3.66,2.927 9.891,3.274 13.692,0.749 0.133,-0.087 0.159,0.035 1.497,-0.105 0.414,-0.043 0.741,-0.348 1.122,-0.212 0.6,0.212 -0.058,1.061 -0.477,1.51 C 6.678,14.934 4.878,15.68 5,20.324 c 5.028,-1.702 6.266,-8.162 6.491,-9.119 0.128,-0.541 -0.017,-1.146 0.493,-1.516 1.299,-0.943 4.085,-1.162 5.231,-1.84 1.144,-0.68 1.638,-0.849 2.335,-1.394 0.056,0.033 0.11,0.064 0.177,0.097 -0.043,1.114 -4.811,8.053 -2.463,11.683 3.453,-3.376 5.258,-7.227 3.817,-11.252 0.036,-0.704 0.011,-0.83 0.557,-1.45 1.67,-1.354 3.407,-2.593 4.869,-4.079 0.707,-0.96 1.888,-1.014 2.452,-0.312 0.77,1.358 0.66,2.864 0.614,4.203 -0.165,4.269 -0.98,8.816 -4.284,12.751 -0.953,1.137 -2.335,2.715 -3.5,3.81 -0.578,0.483 -1.429,1.191 -1.935,0.823 -0.413,-0.584 -0.92,-1.278 -1.55,-1.728 -2.207,-2.719 -6.604,-2.262 -10.15,-1.895 3.482,3.1 8.468,4.372 10.031,4.402 0.376,0.072 0.8,0.075 0.784,0.416 -1.214,0.684 -2.288,1.52 -3.483,2.191 -0.919,0.515 -1.424,1.148 -2.385,0.96 -1.06,-0.727 -2.922,-3.787 -13.426,-3.615 2.903,2.134 7.624,5.19 12.091,4.158 0.048,-0.013 0.107,0.018 0.187,0.094 0.753,0.696 -3.222,1.964 -4.069,1.874 -2.803,0.103 -6.323,-0.129 -10.69,3.778 2.931,0.645 10.441,-1.336 12.032,-3.104 0.106,-0.064 2.138,-0.853 2.202,-0.857 0.197,0.321 -0.391,0.871 -0.549,1.228 -2.012,2.773 -3.364,6.062 -2.453,9.25 4.891,-2.389 3.635,-7.139 3.612,-10.724 0.879,-1.078 3.69,-1.782 4.958,-2.548 0.945,-0.523 1.843,-1.033 2.736,-1.612 0.873,0.076 0.617,0.365 0.644,0.618 -1.202,3.035 -3.015,8.505 -0.785,11.788 3.18,-1.679 2.591,-9.533 1.863,-11.474 -0.475,-0.696 -0.313,-1.33 -0.148,-1.889 1.219,-1.346 4.861,-4.003 6.086,-4.814 0.922,-0.61 1.455,-1.552 2.548,-0.683 1.066,1.018 3.177,6.579 0.23,7.757 -2.277,0.381 -6.462,4.595 -5.976,7.254 2.918,-0.333 6.391,-4.231 6.861,-6.652 0.202,-1.044 1.587,-0.92 1.265,0.068 -1.612,3.335 -1.561,9.952 0.382,12.014 1.883,-2.926 2.918,-8.978 0.501,-11.716 -0.734,-0.803 0.759,-1.225 1.128,-0.46 0.996,3.015 2.945,5.324 8.06,6.969 -0.387,-4.152 -6.825,-7.177 -7.628,-7.429 -1.372,-2.171 -0.318,-9.641 2.198,-8.235 2.789,1.074 3.279,2.479 6.91,4.499 0.715,0.399 2.687,1.617 2.137,2.05 -1.195,1.021 -2.286,9.803 0.349,11.511 2.06,-2.321 0.976,-9.591 0.693,-10.811 -0.051,-0.22 -0.73,-0.856 -0.091,-0.878 1.134,0.668 2.64,1.5 4.016,1.864 0.088,0.021 1.433,0.432 2.091,0.695 0.53,0.214 0.491,0.275 0.471,0.766 -0.335,1.846 -0.389,9.27 3.596,10.856 1.263,-6.251 -3.523,-9.779 -2.196,-11.036 0.401,-0.384 2.585,0.969 2.878,1.244 2.114,1.976 7.645,1.739 10.635,1.216 -9.028,-4.043 -12.369,-3.05 -13.46,-3.232 -0.306,-0.118 -0.375,-0.565 -0.039,-0.737 1.9,-0.243 9.623,-4.292 10.188,-5.693 -8.048,0.997 -8.13,1.497 -11.69,5.857 -0.568,0.07 -6.225,-2.491 -6.45,-3.301 -0.153,-0.539 0.669,-0.493 1.32,-0.648 6.718,-1.591 6.85,-1.805 8.336,-4.735 -3.247,-0.023 -4.439,-0.716 -9.332,4.014 -0.249,0.239 -0.91,0.928 -1.358,0.703 C 44.471,21.56 43.121,20.419 42.246,19.166 41.595,18.235 40.505,17.202 39.897,16.295 37.526,12.76 34.644,5.254 37.284,1.217 c 0.671,-1.025 0.675,-1.01 1.837,-0.795 2.39,0.445 6.015,3.407 7.692,4.2 0.326,0.407 0.245,0.969 10e-4,1.295 -2.001,2.625 -1.135,9.054 1.704,11.1 2.878,-4.311 -0.991,-11.583 -0.968,-12.122 0.746,0.034 8.07,2.55 8.248,2.485 -0.238,1.191 -0.443,2.71 -0.343,4.081 0.15,2.119 2.426,5.034 5.955,6.622 0.987,-4.496 -5.427,-7.409 -4.827,-10.447 0.11,-0.564 1.529,-0.066 2.162,-0.026 1.87,0.12 3.248,1.128 6.94,0.61 C 66.76,8.075 71.654,6.437 72.623,5.31 70.899,4.627 68.246,4.139 65.446,4.312 62.593,4.545 58.857,7.326 56.748,6.593 56.183,6.397 56.501,4.995 57.28,4.754 59.707,4.001 63,-3.629 63.415,-5.74 58.43,-4.99 56.22,1.947 56.002,5.427 55.987,5.685 55.69,6.46 55.465,6.389 54.041,5.949 52.431,5.556 51.074,4.992 49.932,4.519 47.883,3.613 46.974,2.924 c -0.082,-0.271 1.61,-1.369 3.458,-2.835 2.162,-1.714 4.539,-3.931 4.539,-5.922 -5.557,0.972 -8.208,8.015 -8.414,8.391 -7.309,-5.074 -7.932,-7.789 -6.921,-14.393 0.444,-1.791 2.091,-8.076 5.493,-9.513 0.425,-0.18 2.099,-0.851 1.195,-1.356 -3.491,-1.959 -5.977,3.804 -8.937,1.875 -2.967,-1.939 -3.274,-2.347 -5.024,-1.063 -3.165,3.691 -6.155,2.022 -7.062,1.015 -2.016,-2.249 -4.53,-1.827 -6.441,-1.027 -0.318,0.157 -2.09,1.265 -0.724,1.3 2.456,0.059 4.021,0.622 5.728,1.862 6.001,5.273 3.98,10.376 2.181,15.496 -0.344,0.851 -4.477,7.486 -6.133,7.338 -0.358,-0.268 -0.611,-0.629 -0.798,-0.989 -1.107,-0.956 -1.201,-4.885 -7.966,-7.09 -0.816,2.626 2.747,6.251 5.001,7.45 0.966,0.325 2.735,0.701 2.693,1.714 -0.81,0.534 -1.686,1.24 -2.426,1.664 -0.733,0.422 -4.31,1.845 -4.927,1.377 C 11.214,7.293 10.053,7.159 9.831,6.227 8.332,3.153 7.445,1.431 0,0" />
      </g>
      <g
         transform="translate(131.1333,173.1777)"
         id="g979">
        <path
           inkscape:connector-curvature="0"
           id="path981"
           style="fill:#009e59;fill-opacity:1;fill-rule:nonzero;stroke:none"
           d="M 0,0 C 2.185,1.41 -1.082,3.927 -2.794,1.463 -3.878,-0.099 -1.343,-0.864 0,0" />
      </g>
      <g
         transform="translate(163.2979,175.6035)"
         id="g983">
        <path
           inkscape:connector-curvature="0"
           id="path985"
           style="fill:#009e59;fill-opacity:1;fill-rule:nonzero;stroke:none"
           d="M 0,0 C 2.577,-0.852 2.251,3.599 -0.806,3.33 -2.743,3.16 -1.579,0.523 0,0" />
      </g>
      <g
         transform="translate(123.6919,185.8218)"
         id="g987">
        <path
           inkscape:connector-curvature="0"
           id="path989"
           style="fill:#009e59;fill-opacity:1;fill-rule:nonzero;stroke:none"
           d="M 0,0 C -2.434,0.604 -1.981,2.906 -0.148,2.994 3.118,3.151 2.067,-0.513 0,0" />
      </g>
      <g
         transform="translate(158.2686,204.3076)"
         id="g991">
        <path
           inkscape:connector-curvature="0"
           id="path993"
           style="fill:#009e59;fill-opacity:1;fill-rule:nonzero;stroke:none"
           d="M 0,0 C -0.01,1.593 2.491,2.626 3.243,1.454 4.686,-0.794 0.926,-3.028 0,0" />
      </g>
      <g
         transform="translate(121.6309,200.9453)"
         id="g995">
        <path
           inkscape:connector-curvature="0"
           id="path997"
           style="fill:#009e59;fill-opacity:1;fill-rule:nonzero;stroke:none"
           d="M 0,0 C 0.897,0.827 1.875,0.878 2.686,0.226 5.202,-1.809 -2.534,-3.264 0,0" />
      </g>
      <g
         transform="translate(174.6377,174.8027)"
         id="g999">
        <path
           inkscape:connector-curvature="0"
           id="path1001"
           style="fill:#009e59;fill-opacity:1;fill-rule:nonzero;stroke:none"
           d="M 0,0 C -1.496,0.402 -2.04,2.408 -0.818,3.056 2.427,3.935 4.55,-0.779 0,0" />
      </g>
      <g
         transform="translate(110.4048,179.9082)"
         id="g1003">
        <path
           inkscape:connector-curvature="0"
           id="path1005"
           style="fill:#009e59;fill-opacity:1;fill-rule:nonzero;stroke:none"
           d="M 0,0 C -0.871,-1.328 -3.296,-1.098 -3.589,0.636 -3.999,3.057 2.169,3.307 0,0" />
      </g>
      <g
         transform="translate(149.3633,182.6367)"
         id="g1007">
        <path
           inkscape:connector-curvature="0"
           id="path1009"
           style="fill:#009e59;fill-opacity:1;fill-rule:nonzero;stroke:none"
           d="M 0,0 C 0.329,1.026 2.032,2.451 2.659,1.217 4.523,-2.457 -1.488,-4.663 0,0" />
      </g>
      <g
         transform="translate(162.5566,187.3457)"
         id="g1011">
        <path
           inkscape:connector-curvature="0"
           id="path1013"
           style="fill:#009e59;fill-opacity:1;fill-rule:nonzero;stroke:none"
           d="M 0,0 C 1.43,-1.457 0.04,-3.871 -1.288,-3.375 -3.653,-2.497 -1.213,1.239 0,0" />
      </g>
      <g
         transform="translate(172.3271,185.4336)"
         id="g1015">
        <path
           inkscape:connector-curvature="0"
           id="path1017"
           style="fill:#009e59;fill-opacity:1;fill-rule:nonzero;stroke:none"
           d="M 0,0 C -1.187,0.269 -2.025,2.318 -0.5,2.768 3.475,3.508 3.518,-0.43 0,0" />
      </g>
      <g
         transform="translate(133.5615,181.9858)"
         id="g1019">
        <path
           inkscape:connector-curvature="0"
           id="path1021"
           style="fill:#009e59;fill-opacity:1;fill-rule:nonzero;stroke:none"
           d="M 0,0 C -0.797,1.367 0.628,4.064 1.829,2.962 4.214,0.78 1.313,-2.245 0,0" />
      </g>
      <g
         transform="translate(112.5884,188.0981)"
         id="g1023">
        <path
           inkscape:connector-curvature="0"
           id="path1025"
           style="fill:#009e59;fill-opacity:1;fill-rule:nonzero;stroke:none"
           d="M 0,0 C -2.379,0.246 -4.223,3.297 -0.771,3.504 2.935,3.726 2.696,-0.282 0,0" />
      </g>
      <g
         transform="translate(152.4746,192.6572)"
         id="g1027">
        <path
           inkscape:connector-curvature="0"
           id="path1029"
           style="fill:#009e59;fill-opacity:1;fill-rule:nonzero;stroke:none"
           d="M 0,0 C -1.294,0.943 0.788,2.98 2.469,2.393 5.697,1.267 2.752,-2.006 0,0" />
      </g>
      <g
         transform="translate(128.2632,194.2773)"
         id="g1031">
        <path
           inkscape:connector-curvature="0"
           id="path1033"
           style="fill:#009e59;fill-opacity:1;fill-rule:nonzero;stroke:none"
           d="M 0,0 C -1.737,2.806 5.461,2.873 3.869,-0.386 3.064,-2.035 0.854,-1.376 0,0" />
      </g>
      <g
         transform="translate(134.6616,199.228)"
         id="g1035">
        <path
           inkscape:connector-curvature="0"
           id="path1037"
           style="fill:#009e59;fill-opacity:1;fill-rule:nonzero;stroke:none"
           d="M 0,0 C -2.507,0.34 -2.308,2.961 0.734,2.598 3.779,2.237 2.507,-0.343 0,0" />
      </g>
      <g
         transform="translate(108.5181,205.0645)"
         id="g1039">
        <path
           inkscape:connector-curvature="0"
           id="path1041"
           style="fill:#009e59;fill-opacity:1;fill-rule:nonzero;stroke:none"
           d="M 0,0 C 1.846,0.453 3.675,-1.161 3.149,-2.504 1.976,-5.499 -4.034,-0.988 0,0" />
      </g>
      <g
         transform="translate(124.772,204.1807)"
         id="g1043">
        <path
           inkscape:connector-curvature="0"
           id="path1045"
           style="fill:#009e59;fill-opacity:1;fill-rule:nonzero;stroke:none"
           d="M 0,0 C 2.697,-0.162 1.33,4.069 -1.567,3.021 -3.404,2.354 -1.658,0.1 0,0" />
      </g>
      <g
         transform="translate(112.8384,210.749)"
         id="g1047">
        <path
           inkscape:connector-curvature="0"
           id="path1049"
           style="fill:#009e59;fill-opacity:1;fill-rule:nonzero;stroke:none"
           d="M 0,0 C -0.623,0.671 -1.164,1.495 -0.772,2.183 -0.255,3.094 1.445,4.044 2.714,1.382 3.991,-1.278 1.049,-1.13 0,0" />
      </g>
      <g
         transform="translate(121.5117,179.5811)"
         id="g1051">
        <path
           inkscape:connector-curvature="0"
           id="path1053"
           style="fill:#009e59;fill-opacity:1;fill-rule:nonzero;stroke:none"
           d="M 0,0 C -2.321,1.843 2.109,3.368 2.899,1.249 3.117,0.206 1.229,-0.976 0,0" />
      </g>
      <g
         transform="translate(173.8584,199.4565)"
         id="g1055">
        <path
           inkscape:connector-curvature="0"
           id="path1057"
           style="fill:#009e59;fill-opacity:1;fill-rule:nonzero;stroke:none"
           d="M 0,0 C -2.507,0.361 -2.31,3.13 0.733,2.746 3.781,2.365 2.51,-0.361 0,0" />
      </g>
      <g
         transform="translate(171.4238,208.2168)"
         id="g1059">
        <path
           inkscape:connector-curvature="0"
           id="path1061"
           style="fill:#009e59;fill-opacity:1;fill-rule:nonzero;stroke:none"
           d="M 0,0 C -2.739,-0.249 -3.21,2.64 0.1,2.997 3.409,3.357 2.734,0.249 0,0" />
      </g>
      <g
         transform="translate(154.3936,170.5259)"
         id="g1063">
        <path
           inkscape:connector-curvature="0"
           id="path1065"
           style="fill:#009e59;fill-opacity:1;fill-rule:nonzero;stroke:none"
           d="M 0,0 C -2.509,0.389 -2.316,3.381 0.731,2.966 3.775,2.555 2.507,-0.391 0,0" />
      </g>
      <g
         transform="translate(148.0566,211.2905)"
         id="g1067">
        <path
           inkscape:connector-curvature="0"
           id="path1069"
           style="fill:#009e59;fill-opacity:1;fill-rule:nonzero;stroke:none"
           d="M 0,0 C -2.454,-0.62 -3.445,2.205 -0.486,3.01 2.474,3.815 2.456,0.617 0,0" />
      </g>
      <g
         transform="translate(149.9307,199.4258)"
         id="g1071">
        <path
           inkscape:connector-curvature="0"
           id="path1073"
           style="fill:#009e59;fill-opacity:1;fill-rule:nonzero;stroke:none"
           d="M 0,0 C -2.51,0.442 -2.32,3.635 0.726,3.167 3.771,2.698 2.507,-0.441 0,0" />
      </g>
      <g
         transform="translate(135.2178,211.4834)"
         id="g1075">
        <path
           inkscape:connector-curvature="0"
           id="path1077"
           style="fill:#009e59;fill-opacity:1;fill-rule:nonzero;stroke:none"
           d="M 0,0 C -1.859,1.715 -0.017,3.978 2.274,1.945 4.568,-0.083 1.859,-1.712 0,0" />
      </g>
    </g>
  </g>
</svg>
