<?xml version="1.0" encoding="UTF-8" ?>
<!DOCTYPE svg PUBLIC "-//W3C//DTD SVG 1.1//EN" "http://www.w3.org/Graphics/SVG/1.1/DTD/svg11.dtd">
<svg width="400pt" height="478pt" viewBox="0 0 400 478" version="1.1" xmlns="http://www.w3.org/2000/svg">
<g id="#4f536cff">
<path fill="#4f536c" opacity="1.00" d=" M 0.00 0.00 L 1.09 0.00 L 1.23 0.88 C 0.90 7.59 0.96 14.30 0.99 21.00 C 0.97 90.33 0.97 159.67 0.97 229.00 C 1.00 234.76 1.40 240.58 0.25 246.28 L 0.00 245.12 L 0.00 0.00 Z" />
</g>
<g id="#353341ff">
<path fill="#353341" opacity="1.00" d=" M 1.09 0.00 L 399.36 0.00 C 399.04 0.27 398.41 0.80 398.10 1.07 C 393.76 1.72 389.36 1.34 385.00 1.41 C 257.35 1.46 129.70 1.33 2.06 1.48 L 1.23 0.88 L 1.09 0.00 Z" />
</g>
<g id="#444860ff">
<path fill="#444860" opacity="1.00" d=" M 399.36 0.00 L 400.00 0.00 L 400.00 82.64 C 399.66 79.44 399.26 76.24 399.26 73.01 C 399.41 52.01 398.99 31.00 399.08 10.00 C 399.07 7.22 398.65 4.47 398.19 1.74 L 398.10 1.07 C 398.41 0.80 399.04 0.27 399.36 0.00 Z" />
</g>
<g id="#40361cff">
<path fill="#40361c" opacity="1.00" d=" M 1.23 0.88 L 2.06 1.48 C 2.46 4.64 2.29 7.83 2.29 11.00 C 2.30 76.34 2.30 141.67 2.29 207.00 C 2.37 221.63 2.11 236.27 2.49 250.90 C 2.10 251.45 1.32 252.54 0.93 253.08 C 0.73 250.81 0.51 248.54 0.25 246.28 C 1.40 240.58 1.00 234.76 0.97 229.00 C 0.97 159.67 0.97 90.33 0.99 21.00 C 0.96 14.30 0.90 7.59 1.23 0.88 Z" />
</g>
<g id="#fefefeff">
<path fill="#fefefe" opacity="1.00" d=" M 2.06 1.48 C 129.70 1.33 257.35 1.46 385.00 1.41 C 389.36 1.34 393.76 1.72 398.10 1.07 L 398.19 1.74 C 370.13 1.33 342.06 1.68 314.00 1.57 C 237.67 1.57 161.34 1.57 85.00 1.57 C 57.57 1.69 30.13 1.32 2.70 1.75 C 2.34 84.80 2.77 167.88 2.49 250.93 L 2.49 250.90 C 2.11 236.27 2.37 221.63 2.29 207.00 C 2.30 141.67 2.30 76.34 2.29 11.00 C 2.29 7.83 2.46 4.64 2.06 1.48 Z" />
<path fill="#fefefe" opacity="1.00" d=" M 35.32 194.23 C 48.76 194.20 62.21 194.21 75.65 194.24 C 75.58 207.77 75.59 221.29 75.65 234.82 C 62.20 234.89 48.76 234.87 35.31 234.82 C 35.38 221.29 35.36 207.76 35.32 194.23 Z" />
<path fill="#fefefe" opacity="1.00" d=" M 132.18 194.22 C 145.56 194.20 158.94 194.25 172.32 194.19 C 172.50 207.75 172.44 221.32 172.35 234.89 C 158.95 234.82 145.56 234.87 132.16 234.86 C 132.19 221.31 132.16 207.76 132.18 194.22 Z" />
<path fill="#fefefe" opacity="1.00" d=" M 228.92 194.23 C 242.34 194.19 255.76 194.23 269.18 194.21 C 269.31 207.76 269.26 221.31 269.20 234.86 C 255.77 234.85 242.33 234.89 228.90 234.84 C 228.83 221.30 228.79 207.77 228.92 194.23 Z" />
<path fill="#fefefe" opacity="1.00" d=" M 325.77 194.20 C 339.15 194.24 352.53 194.20 365.91 194.22 C 366.23 207.76 366.19 221.32 365.94 234.86 C 352.54 234.88 339.14 234.85 325.74 234.87 C 325.65 221.32 325.61 207.75 325.77 194.20 Z" />
<path fill="#fefefe" opacity="1.00" d=" M 16.12 237.24 C 28.84 237.31 41.55 237.20 54.27 237.20 C 54.46 247.61 54.35 258.02 54.33 268.42 C 42.21 268.46 30.09 268.60 17.97 268.35 C 16.88 258.01 16.03 247.64 16.12 237.24 Z" />
<path fill="#fefefe" opacity="1.00" d=" M 56.70 237.19 C 88.17 237.32 119.65 237.25 151.12 237.22 C 151.26 247.62 151.18 258.01 151.16 268.41 C 119.65 268.52 88.14 268.51 56.63 268.42 C 56.62 258.01 56.50 247.60 56.70 237.19 Z" />
<path fill="#fefefe" opacity="1.00" d=" M 153.37 237.25 C 184.87 237.23 216.36 237.31 247.86 237.22 C 247.89 247.61 247.83 258.00 247.91 268.39 C 216.45 268.59 184.99 268.35 153.53 268.53 C 153.22 258.11 153.53 247.68 153.37 237.25 Z" />
<path fill="#fefefe" opacity="1.00" d=" M 250.22 237.23 C 281.72 237.28 313.23 237.26 344.73 237.24 C 344.72 247.60 344.64 257.97 344.78 268.33 C 313.25 268.58 281.71 268.51 250.18 268.36 C 250.28 257.98 250.21 247.61 250.22 237.23 Z" />
<path fill="#fefefe" opacity="1.00" d=" M 347.08 237.23 C 359.79 237.18 372.51 237.32 385.22 237.24 C 385.48 247.68 384.85 258.18 383.31 268.51 C 371.18 268.37 359.05 268.58 346.92 268.39 C 346.96 258.01 346.71 247.61 347.08 237.23 Z" />
<path fill="#fefefe" opacity="1.00" d=" M 0.00 245.12 L 0.25 246.28 C 0.51 248.54 0.73 250.81 0.93 253.08 C 3.09 293.51 15.26 333.58 37.42 367.58 C 69.58 417.20 120.36 453.59 176.45 471.46 C 184.22 474.11 192.37 475.43 200.17 478.00 L 0.00 478.00 L 0.00 245.12 Z" />
<path fill="#fefefe" opacity="1.00" d=" M 389.19 313.15 C 395.08 295.41 398.20 276.89 400.00 258.32 L 400.00 478.00 L 200.81 478.00 C 206.50 476.39 212.38 475.62 218.10 474.13 C 229.53 471.23 240.67 467.23 251.45 462.46 C 281.80 448.93 309.47 429.45 332.65 405.65 C 358.17 379.63 377.99 347.88 389.19 313.15 Z" />
<path fill="#fefefe" opacity="1.00" d=" M 18.46 270.73 C 46.56 270.74 74.66 270.60 102.75 270.80 C 102.70 281.16 102.71 291.52 102.75 301.88 C 76.85 301.91 50.95 301.93 25.04 301.86 C 22.13 291.65 19.85 281.26 18.46 270.73 Z" />
<path fill="#fefefe" opacity="1.00" d=" M 105.09 270.75 C 136.58 270.77 168.09 270.48 199.58 270.89 C 199.50 281.20 199.48 291.51 199.59 301.82 C 193.73 302.35 187.86 301.78 182.00 301.90 C 156.36 301.91 130.73 301.91 105.09 301.90 C 105.09 291.52 105.11 281.13 105.09 270.75 Z" />
<path fill="#fefefe" opacity="1.00" d=" M 201.78 270.74 C 233.29 270.68 264.80 270.68 296.30 270.74 C 296.38 281.17 296.37 291.59 296.30 302.02 C 264.80 301.83 233.30 301.96 201.80 301.96 C 201.71 291.55 201.73 281.15 201.78 270.74 Z" />
<path fill="#fefefe" opacity="1.00" d=" M 298.63 270.74 C 326.76 270.69 354.90 270.65 383.03 270.76 C 381.84 281.28 379.26 291.57 376.53 301.77 C 362.70 302.47 348.84 301.93 335.00 302.09 C 322.88 301.56 310.76 302.25 298.65 301.94 C 298.53 291.54 298.56 281.14 298.63 270.74 Z" />
<path fill="#fefefe" opacity="1.00" d=" M 25.87 304.30 C 34.18 304.24 42.49 304.30 50.79 304.27 C 50.73 308.77 50.99 313.29 50.71 317.79 C 49.59 320.15 46.80 321.55 46.27 324.30 C 44.70 328.68 47.32 333.09 50.76 335.68 C 46.52 335.12 41.90 336.25 37.87 335.07 C 32.85 325.28 28.96 314.87 25.87 304.30 Z" />
<path fill="#fefefe" opacity="1.00" d=" M 60.17 304.27 C 89.33 304.30 118.49 304.25 147.65 304.29 C 147.43 308.98 148.00 313.73 147.37 318.39 C 145.35 320.59 142.84 322.76 142.70 325.99 C 142.05 329.82 144.65 332.94 147.03 335.58 C 118.10 335.56 89.15 335.36 60.23 335.69 C 63.39 333.18 65.98 329.24 64.86 325.05 C 64.58 321.93 61.57 320.32 60.25 317.81 C 59.97 313.30 60.23 308.78 60.17 304.27 Z" />
<path fill="#fefefe" opacity="1.00" d=" M 156.93 304.28 C 186.06 304.24 215.18 304.35 244.30 304.23 C 244.51 308.84 244.43 313.46 244.45 318.07 C 242.01 320.49 239.25 323.27 239.45 327.00 C 239.24 330.52 241.75 333.20 243.97 335.59 C 215.04 335.55 186.11 335.35 157.19 335.69 C 159.59 333.38 162.10 330.58 161.83 326.99 C 162.10 323.23 159.30 320.43 156.83 318.03 C 156.84 313.44 156.78 308.86 156.93 304.28 Z" />
<path fill="#fefefe" opacity="1.00" d=" M 253.80 304.26 C 282.92 304.30 312.04 304.29 341.15 304.27 C 341.31 308.86 341.26 313.45 341.27 318.03 C 338.83 320.47 336.00 323.24 336.28 327.00 C 336.00 330.57 338.55 333.29 340.84 335.66 C 311.94 335.42 283.02 335.43 254.12 335.66 C 256.36 333.26 258.93 330.55 258.66 327.00 C 258.94 323.24 256.08 320.48 253.67 318.05 C 253.67 313.45 253.61 308.85 253.80 304.26 Z" />
<path fill="#fefefe" opacity="1.00" d=" M 350.64 304.23 C 359.00 304.36 367.36 304.28 375.73 304.27 C 372.32 314.94 368.26 325.40 363.33 335.46 C 359.22 335.53 355.12 335.53 351.01 335.57 C 353.19 333.17 355.71 330.50 355.47 327.00 C 355.69 323.27 352.91 320.50 350.47 318.09 C 350.50 313.47 350.42 308.85 350.64 304.23 Z" />
<path fill="#fefefe" opacity="1.00" d=" M 39.24 337.85 C 60.40 337.70 81.57 337.69 102.74 337.85 C 102.71 348.22 102.72 358.58 102.73 368.94 C 87.88 369.27 73.00 369.21 58.14 368.97 C 51.02 359.14 44.41 348.85 39.24 337.85 Z" />
<path fill="#fefefe" opacity="1.00" d=" M 105.09 337.80 C 136.59 337.82 168.10 337.53 199.59 337.94 C 199.51 348.25 199.51 358.56 199.59 368.87 C 196.73 369.08 193.86 369.17 190.99 369.15 C 162.37 369.07 133.75 369.22 105.12 369.07 C 105.07 358.65 105.11 348.22 105.09 337.80 Z" />
<path fill="#fefefe" opacity="1.00" d=" M 201.79 337.79 C 233.30 337.72 264.80 337.72 296.30 337.78 C 296.36 348.22 296.40 358.65 296.29 369.09 C 264.79 369.14 233.30 369.16 201.80 369.08 C 201.72 358.65 201.74 348.22 201.79 337.79 Z" />
<path fill="#fefefe" opacity="1.00" d=" M 298.64 337.78 C 319.78 337.74 340.92 337.67 362.06 337.81 C 356.66 348.77 350.09 359.14 342.90 369.01 C 328.15 369.25 313.40 369.10 298.65 369.09 C 298.53 358.65 298.56 348.22 298.64 337.78 Z" />
<path fill="#fefefe" opacity="1.00" d=" M 59.97 371.33 C 90.33 371.32 120.69 371.35 151.06 371.32 C 151.24 381.74 151.34 392.19 151.00 402.61 C 130.19 402.36 109.34 402.90 88.56 402.35 C 78.03 393.02 68.42 382.59 59.97 371.33 Z" />
<path fill="#fefefe" opacity="1.00" d=" M 153.37 371.33 C 184.86 371.33 216.36 371.34 247.85 371.30 C 247.88 381.74 247.90 392.18 247.84 402.62 C 216.35 402.52 184.87 402.57 153.38 402.60 C 153.42 392.17 153.44 381.75 153.37 371.33 Z" />
<path fill="#fefefe" opacity="1.00" d=" M 250.23 371.30 C 280.52 371.37 310.81 371.25 341.09 371.37 C 333.51 381.55 324.93 390.98 315.83 399.83 C 314.40 401.02 313.05 402.88 310.96 402.57 C 290.72 402.59 270.48 402.51 250.25 402.61 C 250.21 392.17 250.23 381.74 250.23 371.30 Z" />
<path fill="#fefefe" opacity="1.00" d=" M 91.62 404.92 C 119.74 404.61 147.87 404.88 176.00 404.79 C 183.86 404.88 191.73 404.56 199.58 404.98 C 199.52 415.30 199.51 425.62 199.59 435.94 C 179.73 436.49 159.84 436.00 139.97 436.20 C 137.39 436.42 134.91 435.63 132.77 434.24 C 118.19 425.80 104.00 416.40 91.62 404.92 Z" />
<path fill="#fefefe" opacity="1.00" d=" M 201.80 404.82 C 237.82 404.86 273.85 404.57 309.87 404.96 C 298.34 416.03 285.05 425.15 271.45 433.50 C 269.20 434.86 266.83 436.44 264.05 436.18 C 243.31 436.14 222.56 436.21 201.81 436.14 C 201.73 425.70 201.73 415.26 201.80 404.82 Z" />
<path fill="#fefefe" opacity="1.00" d=" M 140.85 438.43 C 144.25 438.36 147.66 438.38 151.06 438.36 C 151.04 440.05 151.15 441.74 151.20 443.45 C 147.64 442.02 144.16 440.37 140.85 438.43 Z" />
<path fill="#fefefe" opacity="1.00" d=" M 153.37 438.38 C 184.87 438.37 216.37 438.43 247.87 438.35 C 247.85 440.83 247.85 443.30 247.84 445.79 C 235.03 451.45 221.70 456.05 207.92 458.69 C 204.80 459.26 201.59 460.07 198.42 459.42 C 182.93 456.19 167.88 451.02 153.41 444.63 C 153.41 442.54 153.40 440.46 153.37 438.38 Z" />
<path fill="#fefefe" opacity="1.00" d=" M 250.24 438.36 C 254.24 438.40 258.24 438.32 262.24 438.45 C 258.47 440.90 254.39 442.83 250.22 444.50 C 250.21 442.45 250.21 440.41 250.24 438.36 Z" />
</g>
<g id="#ffd620ff">
<path fill="#ffd620" opacity="1.00" d=" M 2.70 1.75 C 30.13 1.32 57.57 1.69 85.00 1.57 C 161.34 1.57 237.67 1.57 314.00 1.57 C 342.06 1.68 370.13 1.33 398.19 1.74 C 398.58 80.49 398.45 159.24 398.65 238.00 C 399.01 257.58 396.82 277.18 392.22 296.22 C 382.39 337.23 360.50 374.98 330.97 404.97 C 309.45 426.91 284.09 445.12 256.34 458.35 C 240.01 466.07 222.79 472.07 204.96 475.17 C 201.73 475.81 198.41 475.55 195.23 474.76 C 168.23 468.59 142.38 457.69 118.75 443.29 C 90.74 426.28 65.76 404.07 46.38 377.60 C 19.36 341.07 4.50 296.20 2.49 250.93 C 2.77 167.88 2.34 84.80 2.70 1.75 M 5.20 4.18 C 5.26 80.45 5.20 156.73 5.23 233.00 C 5.25 238.40 4.96 243.83 5.71 249.20 C 7.34 291.28 20.33 333.06 44.06 367.96 C 64.71 398.55 92.86 423.74 124.70 442.25 C 146.52 454.92 170.12 464.64 194.74 470.29 C 197.46 470.88 200.24 471.65 203.04 471.14 C 226.15 467.51 248.17 458.76 268.64 447.63 C 299.26 430.72 326.60 407.71 347.99 380.00 C 375.99 344.14 392.90 299.69 395.25 254.22 C 395.57 252.17 395.83 250.10 395.89 248.03 C 395.77 166.76 395.66 85.49 395.65 4.22 C 265.50 4.09 135.35 4.17 5.20 4.18 Z" />
</g>
<g id="#353343ff">
<path fill="#353343" opacity="1.00" d=" M 398.19 1.74 C 398.65 4.47 399.07 7.22 399.08 10.00 C 398.99 31.00 399.41 52.01 399.26 73.01 C 399.26 76.24 399.66 79.44 400.00 82.64 L 400.00 258.32 C 398.20 276.89 395.08 295.41 389.19 313.15 C 377.99 347.88 358.17 379.63 332.65 405.65 C 309.47 429.45 281.80 448.93 251.45 462.46 C 240.67 467.23 229.53 471.23 218.10 474.13 C 212.38 475.62 206.50 476.39 200.81 478.00 L 200.17 478.00 C 192.37 475.43 184.22 474.11 176.45 471.46 C 120.36 453.59 69.58 417.20 37.42 367.58 C 15.26 333.58 3.09 293.51 0.93 253.08 C 1.32 252.54 2.10 251.45 2.49 250.90 L 2.49 250.93 C 4.50 296.20 19.36 341.07 46.38 377.60 C 65.76 404.07 90.74 426.28 118.75 443.29 C 142.38 457.69 168.23 468.59 195.23 474.76 C 198.41 475.55 201.73 475.81 204.96 475.17 C 222.79 472.07 240.01 466.07 256.34 458.35 C 284.09 445.12 309.45 426.91 330.97 404.97 C 360.50 374.98 382.39 337.23 392.22 296.22 C 396.82 277.18 399.01 257.58 398.65 238.00 C 398.45 159.24 398.58 80.49 398.19 1.74 Z" />
<path fill="#353343" opacity="1.00" d=" M 5.87 4.87 C 29.58 4.43 53.29 4.82 77.00 4.69 C 153.33 4.69 229.67 4.68 306.00 4.69 C 335.62 4.81 365.24 4.44 394.85 4.88 C 394.79 87.99 395.51 171.10 395.25 254.22 C 392.90 299.69 375.99 344.14 347.99 380.00 C 326.60 407.71 299.26 430.72 268.64 447.63 C 248.17 458.76 226.15 467.51 203.04 471.14 C 200.24 471.65 197.46 470.88 194.74 470.29 C 170.12 464.64 146.52 454.92 124.70 442.25 C 92.86 423.74 64.71 398.55 44.06 367.96 C 20.33 333.06 7.34 291.28 5.71 249.20 C 5.65 175.47 5.70 101.74 5.68 28.00 C 5.74 20.29 5.48 12.58 5.87 4.87 M 7.12 6.12 C 7.12 80.75 7.12 155.38 7.12 230.00 C 6.81 248.74 8.07 267.55 11.80 285.94 C 18.63 320.82 33.99 353.99 56.29 381.69 C 76.11 406.42 100.98 426.94 128.55 442.50 C 150.24 454.69 173.62 464.05 198.00 469.23 C 199.97 469.72 202.01 469.61 204.00 469.25 C 219.64 466.68 234.82 461.71 249.30 455.31 C 280.73 441.30 309.20 420.78 332.59 395.56 C 364.06 361.90 385.49 318.69 391.72 272.92 C 394.61 254.42 393.81 235.65 393.88 217.00 C 393.84 146.73 393.58 76.45 393.58 6.18 C 264.76 6.04 135.94 6.15 7.12 6.12 Z" />
</g>
<g id="#948040ff">
<path fill="#948040" opacity="1.00" d=" M 5.20 4.18 C 135.35 4.17 265.50 4.09 395.65 4.22 C 395.66 85.49 395.77 166.76 395.89 248.03 C 395.83 250.10 395.57 252.17 395.25 254.22 C 395.51 171.10 394.79 87.99 394.85 4.88 C 365.24 4.44 335.62 4.81 306.00 4.69 C 229.67 4.68 153.33 4.69 77.00 4.69 C 53.29 4.82 29.58 4.43 5.87 4.87 C 5.48 12.58 5.74 20.29 5.68 28.00 C 5.70 101.74 5.65 175.47 5.71 249.20 C 4.96 243.83 5.25 238.40 5.23 233.00 C 5.20 156.73 5.26 80.45 5.20 4.18 Z" />
</g>
<g id="#fffefaff">
<path fill="#fffefa" opacity="1.00" d=" M 7.12 6.12 C 135.94 6.15 264.76 6.04 393.58 6.18 C 393.58 76.45 393.84 146.73 393.88 217.00 C 393.81 235.65 394.61 254.42 391.72 272.92 C 385.49 318.69 364.06 361.90 332.59 395.56 C 309.20 420.78 280.73 441.30 249.30 455.31 C 234.82 461.71 219.64 466.68 204.00 469.25 C 202.01 469.61 199.97 469.72 198.00 469.23 C 173.62 464.05 150.24 454.69 128.55 442.50 C 100.98 426.94 76.11 406.42 56.29 381.69 C 33.99 353.99 18.63 320.82 11.80 285.94 C 8.07 267.55 6.81 248.74 7.12 230.00 C 7.12 155.38 7.12 80.75 7.12 6.12 M 11.69 10.14 C 11.53 85.76 11.67 161.38 11.63 237.00 C 11.62 277.33 21.51 317.95 42.22 352.72 C 60.45 383.73 86.55 409.79 116.63 429.35 C 141.00 445.13 168.01 457.07 196.39 463.40 C 199.62 464.24 202.99 463.99 206.24 463.33 C 228.98 459.12 250.63 450.12 270.60 438.60 C 287.73 428.66 303.72 416.73 318.05 403.06 C 347.81 374.92 370.42 338.95 381.27 299.36 C 387.27 277.80 389.70 255.35 389.28 233.00 C 389.28 158.73 388.80 84.46 388.79 10.18 C 263.09 10.14 137.39 10.21 11.69 10.14 Z" />
</g>
<g id="#363435ff">
<path fill="#363435" opacity="1.00" d=" M 11.69 10.14 C 137.39 10.21 263.09 10.14 388.79 10.18 C 388.80 84.46 389.28 158.73 389.28 233.00 C 389.70 255.35 387.27 277.80 381.27 299.36 C 370.42 338.95 347.81 374.92 318.05 403.06 C 303.72 416.73 287.73 428.66 270.60 438.60 C 250.63 450.12 228.98 459.12 206.24 463.33 C 202.99 463.99 199.62 464.24 196.39 463.40 C 168.01 457.07 141.00 445.13 116.63 429.35 C 86.55 409.79 60.45 383.73 42.22 352.72 C 21.51 317.95 11.62 277.33 11.63 237.00 C 11.67 161.38 11.53 85.76 11.69 10.14 M 15.96 14.07 C 15.58 20.38 15.80 26.69 15.76 33.00 C 15.75 95.67 15.76 158.33 15.76 221.00 C 15.71 225.67 15.70 230.34 15.96 235.01 C 21.69 235.28 27.42 235.32 33.15 234.95 C 33.70 226.64 33.26 218.32 33.39 210.00 C 33.24 203.92 33.89 197.78 32.82 191.75 L 33.65 191.60 C 39.40 192.40 45.21 192.02 51.00 192.08 C 59.77 191.88 68.59 192.56 77.33 191.61 L 78.16 191.76 C 77.13 197.79 77.77 203.92 77.62 210.00 C 77.75 218.33 77.32 226.67 77.86 234.99 C 86.23 235.49 94.62 235.09 103.00 235.22 C 111.98 235.12 120.97 235.47 129.95 235.03 C 130.46 220.77 129.88 206.49 130.22 192.22 C 144.82 192.07 159.43 192.15 174.04 192.17 C 174.55 206.40 174.08 220.66 174.28 234.90 C 179.50 235.39 184.76 235.25 190.00 235.22 C 202.28 235.06 214.58 235.57 226.86 234.97 C 227.41 220.72 226.73 206.46 227.17 192.21 C 241.92 191.73 256.74 192.85 271.45 191.63 C 270.44 198.04 271.06 204.54 270.92 211.00 C 271.00 218.96 270.69 226.93 271.10 234.88 L 272.13 234.88 C 289.30 234.62 306.48 234.95 323.66 234.72 C 323.75 220.49 323.36 206.25 323.83 192.03 C 338.52 191.85 353.25 191.71 367.94 192.11 C 368.12 206.41 367.78 220.72 368.11 235.02 C 373.82 235.27 379.58 235.59 385.26 234.64 L 385.75 235.24 C 386.37 218.50 385.77 201.74 385.87 185.00 C 385.58 135.33 385.69 85.67 385.60 36.00 C 385.55 31.60 386.04 27.15 385.08 22.81 C 385.25 19.92 385.12 17.03 385.00 14.14 C 354.67 13.68 324.33 14.07 294.00 13.94 C 206.33 13.95 118.67 13.94 31.00 13.94 C 25.98 13.90 20.97 13.86 15.96 14.07 M 35.32 194.23 C 35.36 207.76 35.38 221.29 35.31 234.82 C 48.76 234.87 62.20 234.89 75.65 234.82 C 75.59 221.29 75.58 207.77 75.65 194.24 C 62.21 194.21 48.76 194.20 35.32 194.23 M 132.18 194.22 C 132.16 207.76 132.19 221.31 132.16 234.86 C 145.56 234.87 158.95 234.82 172.35 234.89 C 172.44 221.32 172.50 207.75 172.32 194.19 C 158.94 194.25 145.56 194.20 132.18 194.22 M 228.92 194.23 C 228.79 207.77 228.83 221.30 228.90 234.84 C 242.33 234.89 255.77 234.85 269.20 234.86 C 269.26 221.31 269.31 207.76 269.18 194.21 C 255.76 194.23 242.34 194.19 228.92 194.23 M 325.77 194.20 C 325.61 207.75 325.65 221.32 325.74 234.87 C 339.14 234.85 352.54 234.88 365.94 234.86 C 366.19 221.32 366.23 207.76 365.91 194.22 C 352.53 194.20 339.15 194.24 325.77 194.20 M 16.12 237.24 C 16.03 247.64 16.88 258.01 17.97 268.35 C 30.09 268.60 42.21 268.46 54.33 268.42 C 54.35 258.02 54.46 247.61 54.27 237.20 C 41.55 237.20 28.84 237.31 16.12 237.24 M 56.70 237.19 C 56.50 247.60 56.62 258.01 56.63 268.42 C 88.14 268.51 119.65 268.52 151.16 268.41 C 151.18 258.01 151.26 247.62 151.12 237.22 C 119.65 237.25 88.17 237.32 56.70 237.19 M 153.37 237.25 C 153.53 247.68 153.22 258.11 153.53 268.53 C 184.99 268.35 216.45 268.59 247.91 268.39 C 247.83 258.00 247.89 247.61 247.86 237.22 C 216.36 237.31 184.87 237.23 153.37 237.25 M 250.22 237.23 C 250.21 247.61 250.28 257.98 250.18 268.36 C 281.71 268.51 313.25 268.58 344.78 268.33 C 344.64 257.97 344.72 247.60 344.73 237.24 C 313.23 237.26 281.72 237.28 250.22 237.23 M 347.08 237.23 C 346.71 247.61 346.96 258.01 346.92 268.39 C 359.05 268.58 371.18 268.37 383.31 268.51 C 384.85 258.18 385.48 247.68 385.22 237.24 C 372.51 237.32 359.79 237.18 347.08 237.23 M 18.46 270.73 C 19.85 281.26 22.13 291.65 25.04 301.86 C 50.95 301.93 76.85 301.91 102.75 301.88 C 102.71 291.52 102.70 281.16 102.75 270.80 C 74.66 270.60 46.56 270.74 18.46 270.73 M 105.09 270.75 C 105.11 281.13 105.09 291.52 105.09 301.90 C 130.73 301.91 156.36 301.91 182.00 301.90 C 187.86 301.78 193.73 302.35 199.59 301.82 C 199.48 291.51 199.50 281.20 199.58 270.89 C 168.09 270.48 136.58 270.77 105.09 270.75 M 201.78 270.74 C 201.73 281.15 201.71 291.55 201.80 301.96 C 233.30 301.96 264.80 301.83 296.30 302.02 C 296.37 291.59 296.38 281.17 296.30 270.74 C 264.80 270.68 233.29 270.68 201.78 270.74 M 298.63 270.74 C 298.56 281.14 298.53 291.54 298.65 301.94 C 310.76 302.25 322.88 301.56 335.00 302.09 C 348.84 301.93 362.70 302.47 376.53 301.77 C 379.26 291.57 381.84 281.28 383.03 270.76 C 354.90 270.65 326.76 270.69 298.63 270.74 M 25.87 304.30 C 28.96 314.87 32.85 325.28 37.87 335.07 C 41.90 336.25 46.52 335.12 50.76 335.68 C 47.32 333.09 44.70 328.68 46.27 324.30 C 46.80 321.55 49.59 320.15 50.71 317.79 C 50.99 313.29 50.73 308.77 50.79 304.27 C 42.49 304.30 34.18 304.24 25.87 304.30 M 60.17 304.27 C 60.23 308.78 59.97 313.30 60.25 317.81 C 61.57 320.32 64.58 321.93 64.86 325.05 C 65.98 329.24 63.39 333.18 60.23 335.69 C 89.15 335.36 118.10 335.56 147.03 335.58 C 144.65 332.94 142.05 329.82 142.70 325.99 C 142.84 322.76 145.35 320.59 147.37 318.39 C 148.00 313.73 147.43 308.98 147.65 304.29 C 118.49 304.25 89.33 304.30 60.17 304.27 M 156.93 304.28 C 156.78 308.86 156.84 313.44 156.83 318.03 C 159.30 320.43 162.10 323.23 161.83 326.99 C 162.10 330.58 159.59 333.38 157.19 335.69 C 186.11 335.35 215.04 335.55 243.97 335.59 C 241.75 333.20 239.24 330.52 239.45 327.00 C 239.25 323.27 242.01 320.49 244.45 318.07 C 244.43 313.46 244.51 308.84 244.30 304.23 C 215.18 304.35 186.06 304.24 156.93 304.28 M 253.80 304.26 C 253.61 308.85 253.67 313.45 253.67 318.05 C 256.08 320.48 258.94 323.24 258.66 327.00 C 258.93 330.55 256.36 333.26 254.12 335.66 C 283.02 335.43 311.94 335.42 340.84 335.66 C 338.55 333.29 336.00 330.57 336.28 327.00 C 336.00 323.24 338.83 320.47 341.27 318.03 C 341.26 313.45 341.31 308.86 341.15 304.27 C 312.04 304.29 282.92 304.30 253.80 304.26 M 350.64 304.23 C 350.42 308.85 350.50 313.47 350.47 318.09 C 352.91 320.50 355.69 323.27 355.47 327.00 C 355.71 330.50 353.19 333.17 351.01 335.57 C 355.12 335.53 359.22 335.53 363.33 335.46 C 368.26 325.40 372.32 314.94 375.73 304.27 C 367.36 304.28 359.00 304.36 350.64 304.23 M 39.24 337.85 C 44.41 348.85 51.02 359.14 58.14 368.97 C 73.00 369.21 87.88 369.27 102.73 368.94 C 102.72 358.58 102.71 348.22 102.74 337.85 C 81.57 337.69 60.40 337.70 39.24 337.85 M 105.09 337.80 C 105.11 348.22 105.07 358.65 105.12 369.07 C 133.75 369.22 162.37 369.07 190.99 369.15 C 193.86 369.17 196.73 369.08 199.59 368.87 C 199.51 358.56 199.51 348.25 199.59 337.94 C 168.10 337.53 136.59 337.82 105.09 337.80 M 201.79 337.79 C 201.74 348.22 201.72 358.65 201.80 369.08 C 233.30 369.16 264.79 369.14 296.29 369.09 C 296.40 358.65 296.36 348.22 296.30 337.78 C 264.80 337.72 233.30 337.72 201.79 337.79 M 298.64 337.78 C 298.56 348.22 298.53 358.65 298.65 369.09 C 313.40 369.10 328.15 369.25 342.90 369.01 C 350.09 359.14 356.66 348.77 362.06 337.81 C 340.92 337.67 319.78 337.74 298.64 337.78 M 59.97 371.33 C 68.42 382.59 78.03 393.02 88.56 402.35 C 109.34 402.90 130.19 402.36 151.00 402.61 C 151.34 392.19 151.24 381.74 151.06 371.32 C 120.69 371.35 90.33 371.32 59.97 371.33 M 153.37 371.33 C 153.44 381.75 153.42 392.17 153.38 402.60 C 184.87 402.57 216.35 402.52 247.84 402.62 C 247.90 392.18 247.88 381.74 247.85 371.30 C 216.36 371.34 184.86 371.33 153.37 371.33 M 250.23 371.30 C 250.23 381.74 250.21 392.17 250.25 402.61 C 270.48 402.51 290.72 402.59 310.96 402.57 C 313.05 402.88 314.40 401.02 315.83 399.83 C 324.93 390.98 333.51 381.55 341.09 371.37 C 310.81 371.25 280.52 371.37 250.23 371.30 M 91.62 404.92 C 104.00 416.40 118.19 425.80 132.77 434.24 C 134.91 435.63 137.39 436.42 139.97 436.20 C 159.84 436.00 179.73 436.49 199.59 435.94 C 199.51 425.62 199.52 415.30 199.58 404.98 C 191.73 404.56 183.86 404.88 176.00 404.79 C 147.87 404.88 119.74 404.61 91.62 404.92 M 201.80 404.82 C 201.73 415.26 201.73 425.70 201.81 436.14 C 222.56 436.21 243.31 436.14 264.05 436.18 C 266.83 436.44 269.20 434.86 271.45 433.50 C 285.05 425.15 298.34 416.03 309.87 404.96 C 273.85 404.57 237.82 404.86 201.80 404.82 M 140.85 438.43 C 144.16 440.37 147.64 442.02 151.20 443.45 C 151.15 441.74 151.04 440.05 151.06 438.36 C 147.66 438.38 144.25 438.36 140.85 438.43 M 153.37 438.38 C 153.40 440.46 153.41 442.54 153.41 444.63 C 167.88 451.02 182.93 456.19 198.42 459.42 C 201.59 460.07 204.80 459.26 207.92 458.69 C 221.70 456.05 235.03 451.45 247.84 445.79 C 247.85 443.30 247.85 440.83 247.87 438.35 C 216.37 438.43 184.87 438.37 153.37 438.38 M 250.24 438.36 C 250.21 440.41 250.21 442.45 250.22 444.50 C 254.39 442.83 258.47 440.90 262.24 438.45 C 258.24 438.32 254.24 438.40 250.24 438.36 Z" />
</g>
<g id="#2f71a4ff">
<path fill="#2f71a4" opacity="1.00" d=" M 15.96 14.07 C 20.97 13.86 25.98 13.90 31.00 13.94 C 118.67 13.94 206.33 13.95 294.00 13.94 C 324.33 14.07 354.67 13.68 385.00 14.14 C 385.12 17.03 385.25 19.92 385.08 22.81 C 383.96 39.62 385.34 56.49 384.33 73.30 C 383.31 54.00 384.08 34.64 383.71 15.32 C 261.47 15.33 139.24 15.33 17.00 15.32 C 16.59 20.87 16.63 26.44 16.72 32.00 C 16.71 91.00 16.72 150.00 16.72 209.00 C 16.83 217.24 16.43 225.49 16.99 233.72 C 22.01 233.94 27.03 233.95 32.05 233.73 C 33.05 219.76 31.46 205.69 32.82 191.75 C 33.89 197.78 33.24 203.92 33.39 210.00 C 33.26 218.32 33.70 226.64 33.15 234.95 C 27.42 235.32 21.69 235.28 15.96 235.01 C 15.70 230.34 15.71 225.67 15.76 221.00 C 15.76 158.33 15.75 95.67 15.76 33.00 C 15.80 26.69 15.58 20.38 15.96 14.07 Z" />
</g>
<g id="#0070b8ff">
<path fill="#0070b8" opacity="1.00" d=" M 17.00 15.32 C 139.24 15.33 261.47 15.33 383.71 15.32 C 384.08 34.64 383.31 54.00 384.33 73.30 C 384.34 123.54 384.40 173.78 384.35 224.01 C 384.38 227.34 384.35 230.68 384.70 234.00 C 379.57 233.94 374.43 234.15 369.30 233.82 C 369.01 219.97 369.97 206.06 368.89 192.24 L 367.94 192.11 C 353.25 191.71 338.52 191.85 323.83 192.03 C 323.36 206.25 323.75 220.49 323.66 234.72 C 306.48 234.95 289.30 234.62 272.13 234.88 C 271.92 223.25 271.98 211.62 272.09 199.99 C 272.09 197.19 271.83 194.40 271.45 191.63 C 264.33 190.68 257.15 191.24 250.00 191.15 C 242.03 191.20 234.05 190.97 226.08 191.26 C 225.08 205.41 225.96 219.61 225.68 233.78 C 208.89 233.92 192.10 233.99 175.33 233.74 C 175.04 219.58 175.90 205.39 174.94 191.25 C 159.71 191.03 144.47 191.13 129.23 191.26 C 128.51 205.44 129.29 219.64 128.86 233.82 C 112.21 233.93 95.56 233.87 78.91 233.85 C 77.96 219.83 79.55 205.73 78.16 191.76 L 77.33 191.61 C 69.32 189.95 61.11 191.12 53.00 190.81 C 46.55 190.87 40.01 190.14 33.65 191.60 L 32.82 191.75 C 31.46 205.69 33.05 219.76 32.05 233.73 C 27.03 233.95 22.01 233.94 16.99 233.72 C 16.43 225.49 16.83 217.24 16.72 209.00 C 16.72 150.00 16.71 91.00 16.72 32.00 C 16.63 26.44 16.59 20.87 17.00 15.32 Z" />
</g>
<g id="#265d83ff">
<path fill="#265d83" opacity="1.00" d=" M 385.08 22.81 C 386.04 27.15 385.55 31.60 385.60 36.00 C 385.69 85.67 385.58 135.33 385.87 185.00 C 385.77 201.74 386.37 218.50 385.75 235.24 L 385.26 234.64 L 384.70 234.00 C 384.35 230.68 384.38 227.34 384.35 224.01 C 384.40 173.78 384.34 123.54 384.33 73.30 C 385.34 56.49 383.96 39.62 385.08 22.81 Z" />
</g>
<g id="#2271b0ff">
<path fill="#2271b0" opacity="1.00" d=" M 33.65 191.60 C 40.01 190.14 46.55 190.87 53.00 190.81 C 61.11 191.12 69.32 189.95 77.33 191.61 C 68.59 192.56 59.77 191.88 51.00 192.08 C 45.21 192.02 39.40 192.40 33.65 191.60 Z" />
</g>
<g id="#2f6d9eff">
<path fill="#2f6d9e" opacity="1.00" d=" M 129.23 191.26 C 144.47 191.13 159.71 191.03 174.94 191.25 C 175.90 205.39 175.04 219.58 175.33 233.74 C 192.10 233.99 208.89 233.92 225.68 233.78 C 225.96 219.61 225.08 205.41 226.08 191.26 C 234.05 190.97 242.03 191.20 250.00 191.15 C 257.15 191.24 264.33 190.68 271.45 191.63 C 256.74 192.85 241.92 191.73 227.17 192.21 C 226.73 206.46 227.41 220.72 226.86 234.97 C 214.58 235.57 202.28 235.06 190.00 235.22 C 184.76 235.25 179.50 235.39 174.28 234.90 C 174.08 220.66 174.55 206.40 174.04 192.17 C 159.43 192.15 144.82 192.07 130.22 192.22 C 129.88 206.49 130.46 220.77 129.95 235.03 C 120.97 235.47 111.98 235.12 103.00 235.22 C 94.62 235.09 86.23 235.49 77.86 234.99 C 77.32 226.67 77.75 218.33 77.62 210.00 C 77.77 203.92 77.13 197.79 78.16 191.76 C 79.55 205.73 77.96 219.83 78.91 233.85 C 95.56 233.87 112.21 233.93 128.86 233.82 C 129.29 219.64 128.51 205.44 129.23 191.26 Z" />
</g>
<g id="#576981ff">
<path fill="#576981" opacity="1.00" d=" M 271.45 191.63 C 271.83 194.40 272.09 197.19 272.09 199.99 C 271.98 211.62 271.92 223.25 272.13 234.88 L 271.10 234.88 C 270.69 226.93 271.00 218.96 270.92 211.00 C 271.06 204.54 270.44 198.04 271.45 191.63 Z" />
</g>
<g id="#3870a3ff">
<path fill="#3870a3" opacity="1.00" d=" M 367.94 192.11 L 368.89 192.24 C 369.97 206.06 369.01 219.97 369.30 233.82 C 374.43 234.15 379.57 233.94 384.70 234.00 L 385.26 234.64 C 379.58 235.59 373.82 235.27 368.11 235.02 C 367.78 220.72 368.12 206.41 367.94 192.11 Z" />
</g>
</svg>
