<svg xmlns="http://www.w3.org/2000/svg" viewBox="-44.76 -31.4 613.59 903.58"><defs><clipPath id="a"><path d="M-44.755 679.149h613.493V-31.268H-44.755Z"/></clipPath><clipPath id="b"><path d="M-44.708 679.07h613.54V-31.4h-613.54Z"/></clipPath><clipPath id="c"><path d="M-44.755 679.149h613.493V-31.268H-44.755Z"/></clipPath><clipPath id="d"><path d="M-44.755 679.149h613.493V-31.268H-44.755Z"/></clipPath><clipPath id="e"><path d="M-44.755 679.149h613.493V-31.268H-44.755Z"/></clipPath><clipPath id="f"><path d="M-44.755 679.149h613.493V-31.268H-44.755Z"/></clipPath><clipPath id="g"><path d="M-44.755 679.149h613.493V-31.268H-44.755Z"/></clipPath><clipPath id="h"><path d="M-44.755 679.149h613.493V-31.268H-44.755Z"/></clipPath><clipPath id="i"><path d="M-44.755 679.149h613.493V-31.268H-44.755Z"/></clipPath><clipPath id="j"><path d="M-44.755 679.149h613.493V-31.268H-44.755Z"/></clipPath><clipPath id="k"><path d="M-44.755 679.149h613.493V-31.268H-44.755Z"/></clipPath><clipPath id="l"><path d="M-44.755 679.149h613.493V-31.268H-44.755Z"/></clipPath><clipPath id="m"><path d="M-44.755 679.149h613.493V-31.268H-44.755Z"/></clipPath><clipPath id="n"><path d="M-44.755 679.149h613.493V-31.268H-44.755Z"/></clipPath><clipPath id="o"><path d="M-44.755 679.149h613.493V-31.268H-44.755Z"/></clipPath><clipPath id="p"><path d="M-44.755 679.149h613.493V-31.268H-44.755Z"/></clipPath><clipPath id="q"><path d="M-44.755 679.149h613.493V-31.268H-44.755Z"/></clipPath><clipPath id="r"><path d="M-44.755 679.149h613.493V-31.268H-44.755Z"/></clipPath><clipPath id="s"><path d="M-44.755 679.149h613.493V-31.268H-44.755Z"/></clipPath><clipPath id="t"><path d="M-44.755 679.149h613.493V-31.268H-44.755Z"/></clipPath><clipPath id="u"><path d="M-44.755 679.149h613.493V-31.268H-44.755Z"/></clipPath><clipPath id="v"><path d="M-44.755 679.149h613.493V-31.268H-44.755Z"/></clipPath><clipPath id="w"><path d="M-44.755 679.149h613.493V-31.268H-44.755Z"/></clipPath><clipPath id="x"><path d="M-44.755 679.149h613.493V-31.268H-44.755Z"/></clipPath><clipPath id="y"><path d="M-44.755 679.149h613.493V-31.268H-44.755Z"/></clipPath><clipPath id="z"><path d="M-44.755 679.149h613.493V-31.268H-44.755Z"/></clipPath><clipPath id="A"><path d="M-44.755 679.149h613.493V-31.268H-44.755Z"/></clipPath><clipPath id="B"><path d="M-44.755 679.149h613.493V-31.268H-44.755Z"/></clipPath><clipPath id="C"><path d="M-44.755 679.149h613.493V-31.268H-44.755Z"/></clipPath><clipPath id="D"><path d="M-44.755 679.149h613.493V-31.268H-44.755Z"/></clipPath><clipPath id="E"><path d="M-44.755 679.149h613.493V-31.268H-44.755Z"/></clipPath><clipPath id="F"><path d="M-44.755 679.149h613.493V-31.268H-44.755Z"/></clipPath><clipPath id="G"><path d="M-44.755 679.149h613.493V-31.268H-44.755Z"/></clipPath><clipPath id="H"><path d="M-44.755 679.149h613.493V-31.268H-44.755Z"/></clipPath><clipPath id="I"><path d="M-44.755 679.149h613.493V-31.268H-44.755Z"/></clipPath><clipPath id="J"><path d="M-44.755 679.149h613.493V-31.268H-44.755Z"/></clipPath><clipPath id="K"><path d="M-44.755 679.149h613.493V-31.268H-44.755Z"/></clipPath><clipPath id="L"><path d="M-44.755 679.149h613.493V-31.268H-44.755Z"/></clipPath><clipPath id="M"><path d="M-44.755 679.149h613.493V-31.268H-44.755Z"/></clipPath><clipPath id="N"><path d="M-44.755 679.149h613.493V-31.268H-44.755Z"/></clipPath><clipPath id="O"><path d="M-44.755 679.149h613.493V-31.268H-44.755Z"/></clipPath><clipPath id="P"><path d="M-44.755 679.149h613.493V-31.268H-44.755Z"/></clipPath><clipPath id="Q"><path d="M-44.755 679.149h613.493V-31.268H-44.755Z"/></clipPath><clipPath id="R"><path d="M-44.755 679.149h613.493V-31.268H-44.755Z"/></clipPath><clipPath id="S"><path d="M-44.755 679.149h613.493V-31.268H-44.755Z"/></clipPath><clipPath id="T"><path d="M-44.755 679.149h613.493V-31.268H-44.755Z"/></clipPath><clipPath id="U"><path d="M-44.755 679.149h613.493V-31.268H-44.755Z"/></clipPath><clipPath id="V"><path d="M-44.755 679.149h613.493V-31.268H-44.755Z"/></clipPath><clipPath id="W"><path d="M-44.755 679.149h613.493V-31.268H-44.755Z"/></clipPath><clipPath id="X"><path d="M-44.755 679.149h613.493V-31.268H-44.755Z"/></clipPath><clipPath id="Y"><path d="M-44.755 679.149h613.493V-31.268H-44.755Z"/></clipPath><clipPath id="Z"><path d="M-44.755 679.149h613.493V-31.268H-44.755Z"/></clipPath><clipPath id="aa"><path d="M-44.755 679.149h613.493V-31.268H-44.755Z"/></clipPath><clipPath id="ab"><path d="M-44.755 679.149h613.493V-31.268H-44.755Z"/></clipPath><clipPath id="ac"><path d="M-44.755 679.149h613.493V-31.268H-44.755Z"/></clipPath><clipPath id="ad"><path d="M-44.755 679.149h613.493V-31.268H-44.755Z"/></clipPath><clipPath id="ae"><path d="M-44.755 679.149h613.493V-31.268H-44.755Z"/></clipPath><clipPath id="af"><path d="M-44.755 679.149h613.493V-31.268H-44.755Z"/></clipPath><clipPath id="ag"><path d="M-44.755 679.149h613.493V-31.268H-44.755Z"/></clipPath><clipPath id="ah"><path d="M-44.755 679.149h613.493V-31.268H-44.755Z"/></clipPath><clipPath id="ai"><path d="M-44.755 679.149h613.493V-31.268H-44.755Z"/></clipPath><clipPath id="aj"><path d="M-44.755 679.149h613.493V-31.268H-44.755Z"/></clipPath><clipPath id="ak"><path d="M-44.755 679.149h613.493V-31.268H-44.755Z"/></clipPath><clipPath id="al"><path d="M-44.755 679.149h613.493V-31.268H-44.755Z"/></clipPath><clipPath id="am"><path d="M-44.755 679.149h613.493V-31.268H-44.755Z"/></clipPath><clipPath id="an"><path d="M-44.755 679.149h613.493V-31.268H-44.755Z"/></clipPath><clipPath id="ao"><path d="M-44.755 679.149h613.493V-31.268H-44.755Z"/></clipPath><clipPath id="ap"><path d="M-44.755 679.149h613.493V-31.268H-44.755Z"/></clipPath><clipPath id="aq"><path d="M-44.755 679.149h613.493V-31.268H-44.755Z"/></clipPath><clipPath id="ar"><path d="M-44.755 679.149h613.493V-31.268H-44.755Z"/></clipPath><clipPath id="as"><path d="M-44.755 679.149h613.493V-31.268H-44.755Z"/></clipPath><clipPath id="at"><path d="M-44.755 679.149h613.493V-31.268H-44.755Z"/></clipPath><clipPath id="au"><path d="M-44.755 679.149h613.493V-31.268H-44.755Z"/></clipPath><clipPath id="av"><path d="M-44.755 679.149h613.493V-31.268H-44.755Z"/></clipPath><clipPath id="aw"><path d="M-44.755 679.149h613.493V-31.268H-44.755Z"/></clipPath><clipPath id="ax"><path d="M-44.755 679.149h613.493V-31.268H-44.755Z"/></clipPath><clipPath id="ay"><path d="M-44.755 679.149h613.493V-31.268H-44.755Z"/></clipPath><clipPath id="az"><path d="M-44.755 679.149h613.493V-31.268H-44.755Z"/></clipPath><clipPath id="aA"><path d="M-44.755 679.149h613.493V-31.268H-44.755Z"/></clipPath><clipPath id="aB"><path d="M-44.755 679.149h613.493V-31.268H-44.755Z"/></clipPath><clipPath id="aC"><path d="M-44.755 679.149h613.493V-31.268H-44.755Z"/></clipPath><clipPath id="aD"><path d="M-44.755 679.149h613.493V-31.268H-44.755Z"/></clipPath><clipPath id="aE"><path d="M-44.755 679.149h613.493V-31.268H-44.755Z"/></clipPath><clipPath id="aF"><path d="M-44.755 679.149h613.493V-31.268H-44.755Z"/></clipPath><clipPath id="aG"><path d="M-44.755 679.149h613.493V-31.268H-44.755Z"/></clipPath><clipPath id="aH"><path d="M-44.755 679.149h613.493V-31.268H-44.755Z"/></clipPath></defs><g clip-path="url(#a)"><path d="M498.28 434.49 538.734 8.785H9.226C30.599 149.861 29.31 292.912 50.064 434.49c26.277 247.222 404.583 281.868 448.216 0" fill="#00a651" fill-rule="evenodd"/></g><g clip-path="url(#b)"><path d="m498.34 434.433-2.36-.218 40.222-423.21H9.249v-2.31l2.36-.35C33 149.681 31.71 292.742 52.45 434.097v.05l.017.05C65.89 560.572 172.095 630.688 277.83 630.755c98.99-.1 197.127-61.379 218.166-196.674zl-2.36-.218zl2.343.351c-21.19 137.404-121.87 200.708-222.853 200.608-107.777.05-216.408-71.774-230.1-200.725l2.377-.234-2.36.334C26.957 292.944 28.247 149.883 6.905 9.03l-.401-2.66h534.903L500.7 434.717l-.017.067Z"/></g><g clip-path="url(#c)"><path d="M491.064 464.935c-55.901-68.37-159.854-66.58-215.254-7.114-61.76 71.35-147.436 74.028-221.614 0v4.837c49.023 212.225 374.088 240.142 436.868 2.277" fill="#2e3092" fill-rule="evenodd"/></g><g clip-path="url(#d)"><path d="m491.064 464.937-1.389 1.087c-28.185-34.461-68.688-50.863-108.924-50.863-38.595 0-76.873 15.113-103.618 43.834l-1.323-1.172 1.356 1.122c-31.399 36.302-69.174 55.148-108.573 55.131-38.679 0-78.697-18.126-115.669-55.048l1.272-1.205h1.774v4.837h-1.774l1.74-.385C81.06 571.05 179.272 631.001 277.033 631.035c91.417-.068 182.132-52.337 212.309-166.534zl-1.389 1.087zl1.723.435c-30.494 115.72-122.983 169.194-215.756 169.143-99.183.017-199.036-60.939-224.577-171.47l-.05-.184v-9.306l3.063 3.047c36.503 36.436 75.634 53.993 113.125 53.993 38.194 0 74.932-18.193 105.862-53.91l.016-.017.034-.033c27.482-29.49 66.713-44.956 106.246-44.956 41.223 0 82.815 16.838 111.703 52.17l.552.686-.218.837Z"/></g><g clip-path="url(#e)"><path d="m136.305 392.356.686 1.49.703 1.105.67.619 1.673 3.096.117 1.406.519.168.452.1.519.218.067-3.381c-.15-1.356-2.059-4.151-3.7-5.423l-.836-.519h-.301v1.121Z" fill-rule="evenodd"/></g><g clip-path="url(#f)"><path d="M145.99 369.502h.284v-.552l-.285.134-1.004 1.255c-.72 1.958-.82 4.803.837 6.109l1.121 1.037.017 2.21.167.401-.518 1.34-.62.886h.954l.285-.3 1.456-2.679.017-1.121-.1-2.025-.269-.87-.435-.118-.686-.268-.134.285-.887-1.49-.2-1.54Z" fill-rule="evenodd"/></g><g clip-path="url(#g)"><path d="M140.291 344.974v.836l1.372 4.068.586.652.235-.067.15-.1.184.084.502.552.754-1.757.133-.151c.285-.285.703-2.862 1.105-4.385l.887-2.092.067-.435-.853.284v-1.39l-.888.135-1.272.653-.535.887-.57-.57-.618 2.796Z" fill-rule="evenodd"/></g><g clip-path="url(#h)"><path d="M170.483 343.582h.419l.87.837.335 1.69 1.222-3.196-.117-1.155-.352-1.155.117-1.071c.034-1.54-2.276-2.494-3.113-3.816l-.469-.703-.334-.352v.938l-.15.468-.218.368.184 1.138.05 3.264.987 1.724v1.858h.57Z" fill-rule="evenodd"/></g><g clip-path="url(#i)"><path d="M161.652 316.268h-.753l-.485-.837c-.201-1.808-.419-3.247-1.105-3.682l-2.694-1.189v.603l.1.184.1.569-1.54 2.427-.602.084.753 1.138.134 2.058 1.138 1.825.82-.034 1.574 1.406.82 2.243.083-.251.737.586.134-.1.318-2.562.468-1.958z" fill-rule="evenodd"/></g><g clip-path="url(#j)"><path d="m198.11 297.287-.2.67-.854.401-.368-.067-1.992 3.214v1.104l1.172-.15.77-.268 1.171-.017 2.494-2.795.435-1.59.218-2.979-.67-.084-.418-.134-.837-.736-.184 1.942-.168.686h-.569Z" fill-rule="evenodd"/></g><g clip-path="url(#k)"><path d="M158.805 290.625v-1.121l-1.674-3.314-.485-.787-.536-1.255-.803-.753-.938-.134-.401-.168-1.005 3.08-.3.937-.453-.92-.184-.168-.268.502-.083 1.507.87 2.594.636.335.92.987.653-.602.118.067.686-.486.334-.184.134.1.335-.384.803.351Z" fill-rule="evenodd"/></g><g clip-path="url(#l)"><path d="m170.486 278.986 1.138-2.795-2.56-6.895-1.021-.017-.285 1.171-.837 1.222-.703-.837.285 1.674h-.285l-.82-.686-.468-.05 1.422 3.816.753.602.971.502.218 1.875.485.636v-.954Z" fill-rule="evenodd"/></g><g clip-path="url(#m)"><path d="m214.648 247.965-.82-.419-4.25.235.217 1.422.502.887.351.118v-.553l.67-.083.418-.118.887-.77 1.356-.217.184-.1.469-.1Z" fill-rule="evenodd"/></g><g clip-path="url(#n)"><path d="m129.297 240.46 1.707.837.318-.285.418-1.673-2.276-3.482-.385 1.155-.937.486-.954-.1.184.652-.653.837-.385 1.07.72 1.172.82-.1.335.385Z" fill-rule="evenodd"/></g><g clip-path="url(#o)"><path d="m247.102 232.935-1.875.033-1.188-.117.217-.62-.954-1.439-.334-.033-2.126 1.456.452.552.485 1.138.854-.15 3.247-.318.97-.184Z" fill-rule="evenodd"/></g><g clip-path="url(#p)"><path d="m169.344 240.738.937-2.862.067-.586.854-.736 1.456-2.962 1.272-1.39.385-.887-.318-1.355.184-.369h-.285l-1.54.754-.569-.754-.318.05-3.029 1.942-.67 2.46-1.272 2.009v1.339l.47.1.384.184-.284 1.942.468-.1.1-.168h1.708Z" fill-rule="evenodd"/></g><g clip-path="url(#q)"><path d="M212.637 203.95h-.954l-.62.553-1.84 2.795 1.137-.285v.418l-.736 1.69.686.453-.1.301.2.268.72.469.653.753-.15 1.673.77.335.652-.217.318-1.842-.318-.2.502-.804.385-1.406-1.79-2.376Z" fill-rule="evenodd"/></g><g clip-path="url(#r)"><path d="m303.64 181.653-.687-.97-.97-.419-.553-1.322-.217-.084v.57c.284 1.556.904 3.38.853 4.184l-.853 4 .083 2.376-.083.586 1.355-1.824 1.356-.97-.335-1.875.486-2.026z" fill-rule="evenodd"/></g><g clip-path="url(#s)"><path d="m339.668 175.243-.72.469-.184-1.004-.485-.603-2.661-.987-.72.3-.134-.618-.301.067-1.055-.52.419-1.372.15-1.44-1.087.62-2.611 2.862.401-.167.82-.117.687 3.883.585-1.021.452.67 1.607-1.306.653.585.351.653.703-.67v1.942h.57l-.62 2.394 1.372-1.272h2.377v-1.122h-.569Z" fill-rule="evenodd"/></g><g clip-path="url(#t)"><path d="m346.222 162.145 1.991-1.775.854-1.908-.97-1.606h-.453l.184.652v.904l-.485.686-.736.586-1.808 1.908h1.423Z" fill-rule="evenodd"/></g><g clip-path="url(#u)"><path d="m369.144 160.022.368-.887 1.523-.485.77-.251 2.326-.318-1.925-1.79-2.226.384-.267.502-1.959 1.507-1.355.334.853.352Z" fill-rule="evenodd"/></g><g clip-path="url(#v)"><path d="m304.92 161.865.285-.97-.502-1.105.084-.502-.803-1.406-2.394-2.142h-1.506v.686l.569 1.54-.57-.285-.116.452-.117.084.033.853.1.854.034.853-.117.084-.017.301.887-.351 1.105.77.853.318.402.301 1.289.586 1.941.87.435.72 1.473-.285h.636l-.485-.97.2-1.256-.234.184-.502.553-1.205-.603-.619-.134.502.502-.787.335v-.837Z" fill-rule="evenodd"/></g><g clip-path="url(#w)"><path d="M395.497 150.717h.57v-.553l-.235.05-.251.302Z" fill-rule="evenodd"/></g><g clip-path="url(#x)"><path d="m396.919 147.372-.15-.284-3.833-.419-.285.419h.57v.836h1.422v1.406l1.305.117.184.1.452.57.251-.703-.117-.167.134-.971-.117-.1-.218-.05-.736.083v-.837Z" fill-rule="evenodd"/></g><g clip-path="url(#y)"><path d="m331.693 137.896-1.121.971-1.356-.318-1.824 1.39-.82 3.815 1.138-.284-.57 2.51h.453c1.674-.92 3.397-5.473 4.033-7.43z" fill-rule="evenodd"/></g><g clip-path="url(#z)"><path d="M340.237 139.01h.452l.486-.803.77-3.263v-.67l-.62.335-1.205.62-1.121-.52-.653-.016-.15-.067-.235.067.117 2.326.335 1.473.686.954-.117-1.724-.084-.184-.083-.485.703.284.72 3.347h.284Z" fill-rule="evenodd"/></g><g clip-path="url(#A)"><path d="M335.977 135.097h.286v-1.39h-.286Z" fill-rule="evenodd"/></g><g clip-path="url(#B)"><path d="m332.266 128.698.284-3.43-1.138-1.725-1.423.971.72 3.096 1.188.954Z" fill-rule="evenodd"/></g><g clip-path="url(#C)"><path d="m298.086 122.29.117-.587-1.038-1.54-.385-.1-1.673 2.21-1.004 5.138 1.305.619.318-.519.653-.2v.836h1.138l-.201.636 1.239.251 2.66-.05v-.285h-1.137l.1-.452.1-.184.017-.334-.67-1.189-1.255.486v-.92l.218-.52.435-.15.201-.352h-1.138l1.02-1.556.118-.402h-.854v-.368l.151-.201.318-.1.1-.168Z" fill-rule="evenodd"/></g><g clip-path="url(#D)"><path d="m316.376 121.924-1.372.234-.118-.15.77-1.59-.351-.185.05-1.439-.753.285c-1.64.753-1.44 2.393-1.239 4l-.033.602-.904 1.322-.017.436c.385 1.606 2.745 4.067 4.134 4.268l1.925.217.184.385.285.285.502.05-.636-1.038-.904-.853.134-.62-1.155.57v-.42l.72-1.17-.15-.151v-1.892l-.737-.117.368-.87.084-.402-.754.1-.384.185Z" fill-rule="evenodd"/></g><g clip-path="url(#E)"><path d="M305.215 118.661h.285v-.836h-.285Z" fill-rule="evenodd"/></g><g clip-path="url(#F)"><path d="m309.556 118.96.502-.836-.017-.301-.569.284.05-.234.285-.284.468.184.352-1.055h-.653l-.535.586-1.875 2.059-1.674-.251-.318-.369-.368 2.427.803-.67.235.068.15.887.235 4 1.104 1.958-.134-1.59c-.184-2.444-.067-3.247.888-4.937z" fill-rule="evenodd"/></g><g clip-path="url(#G)"><path d="m299.988 108.217-.954.268-.184-.553-.569.134-.62.87 1.273 1.256-.067.485-.368 1.74.602.235.184.703.369 3.08.284.284s.77-2.46 1.557-4.05l1.439-2.527v-.67l-1.105.703-2.042-.62z" fill-rule="evenodd"/></g><g clip-path="url(#H)"><path d="m295.451 113.35-3.012-2.544-.05-.352 1.004-1.456-.285-.167.268-.954-.904-.151.418-1.824-2.393.519-1.289.117-.67.418-.702 3.347 1.054-.468c.837-.486 1.523 1.004 1.44 2.644l-.134 1.289 1.908 1.272 1.707-.837-.285.837Z" fill-rule="evenodd"/></g><g clip-path="url(#I)"><path d="m377.835 100.27-2.56.955-1.34 1.84-.569.134-.167-.334-1.038.619-2.577.837 1.037.97c1.574.486 3.097-.836 4.503-1.958l1.857-1.255.854-.87z" fill-rule="evenodd"/></g><g clip-path="url(#J)"><path d="m288.4 101.664-.418.753.084.134 3.548-.803.318-.52.787-.233 1.087-1.005-2.56.285v-.837l-1.155.134-.937.97-1.323.47-.284.652Z" fill-rule="evenodd"/></g><g clip-path="url(#K)"><path d="m333.054 99.65.351-.486-.803.318-.05.234Z" fill-rule="evenodd"/></g><g clip-path="url(#L)"><path d="m371.43 99.155-.854-1.121-.72.569-.703 2.51-2.677 1.791-.787.57-.034.35 1.356-.066 4.134-3.448.92-1.289.369-.703-.536.185Z" fill-rule="evenodd"/></g><g clip-path="url(#M)"><path d="m360.556 86.334.2-.15.201-.47-.083-1.522-.502-.369h-.77l.418.804.15 1.707Z" fill-rule="evenodd"/></g><g clip-path="url(#N)"><path d="M368.438 82.99v-.67l-.284-.451-6.494-2.494-1.875.97 1.34 1.139.3-.084.754.05 4.351 1.54Z" fill-rule="evenodd"/></g><g clip-path="url(#O)"><path d="m363.025 75.466 1.825 1.674h.452l-1.825-1.674Z" fill-rule="evenodd"/></g><g clip-path="url(#P)"><path d="M341.952 71.279h1.424v-.285h-1.424Z" fill-rule="evenodd"/></g><g clip-path="url(#Q)"><path d="M345.65 70.727h-1.991l1.322 2.51h2.092l1.958.485 2.594.636-1.104-1.305Z" fill-rule="evenodd"/></g><g clip-path="url(#R)"><path d="m130.607 410.193.52.887-.118.352-.234.602-.168.118Z" fill-rule="evenodd"/></g><g clip-path="url(#S)"><path d="m128.353 403.43.083 3.498.87 1.84 1.022.587.15 3.665.988 1.623c.2 0 .117-2.594-.118-4.334-.25-1.925-.502-3.783-1.456-5.406z" fill-rule="evenodd"/></g><g clip-path="url(#T)"><path d="m153.108 356.402-.2-.083-.318-.251.318-.419.2-.083Z" fill-rule="evenodd"/></g><g clip-path="url(#U)"><path d="m151.75 360.86 1.021-.435.67-1.02 1.656-4.403-.385 1.021-.368-.234-.619-.1-.77-.603-.787 2.042-1.472 2.042-.218.686.067 1.004Z" fill-rule="evenodd"/></g><g clip-path="url(#V)"><path d="M185.864 312.645v-1.39l.57-.284-.118 1.004-.268.57Z" fill-rule="evenodd"/></g><g clip-path="url(#W)"><path d="m185.864 309.3-1.422 1.507.117 2.276.535.184.938 2.042-.369.87.67.737.335.234-.184.47.3.217 2.01-1.875.384-1.071 1.523-2.628-1.406-3.38-1.088-.77-.1-.603-1.038 2.293-.519.62h-.686Z" fill-rule="evenodd"/></g><g clip-path="url(#X)"><path d="m190.422 284.216.418-.837.435-.285-.435 1.122-.418.284Z" fill-rule="evenodd"/></g><g clip-path="url(#Y)"><path d="m188.71 286.724 1.608-.87 2.226.552.72.602-.135-1.121-1.69-3.448-.167-1.289h-.854v-.837l-.318.352-.519.904-.351.25-.937 1.273-1.29 3.08h.57v-.57h.569v-.368l.167-.2.302-.084.384-.185Z" fill-rule="evenodd"/></g><g clip-path="url(#Z)"><path d="m183.871 267.216-.569.284v-1.121h.57Z" fill-rule="evenodd"/></g><g clip-path="url(#aa)"><path d="M183.3 259.969h-.57v-.553l.235.05.251.302Z" fill-rule="evenodd"/></g><g clip-path="url(#ab)"><path d="m185.95 256.43.116-.168.084-.468-.62.334-1.857.636-.15-.351-.971.117-.184-.1-.921.468-1.121 2.059.552.67.268.753c.334 1.657.268 4.435.552 5.222l.87 2.125.553 1.506.636.067.2.335.369.084.686-3.063-.72-2.778-.703-1.54 1.138-2.36-.184-1.356.134-.535 1.306-1.138-.05-.1z" fill-rule="evenodd"/></g><g clip-path="url(#ac)"><path d="M160.515 254.394v.552l-.235-.05-.25-.302-.084-.2Z" fill-rule="evenodd"/></g><g clip-path="url(#ad)"><path d="m161.37 251.233 1.422-1.573h-.686l-2.16 2.394-.853 1.037-1.423 7.164 1.423-.988.837-1.674.368-.217 1.473-4.753-.285-.687Z" fill-rule="evenodd"/></g><g clip-path="url(#ae)"><path d="m198.745 246.653.502-.334-.335.786-.234.05Z" fill-rule="evenodd"/></g><g clip-path="url(#af)"><path d="m194.408 250.168 2.745-2.075.77-.218 3.03-1.724v-.67l-.854.268 1.02-2.025-.083-.301.084-1.607.552-1.02.134-.62-1.255 1.121h-.452v-.836h-.419l-1.556 1.255-.904.301-.569.352-.251 1.004v.77l-.251.92-.486.368-.569.72-.518-.234-1.775 1.69.302.82.368.201-.686 1.74-.084.403.285-.134 1.422-1.741Z" fill-rule="evenodd"/></g><g clip-path="url(#ag)"><path d="m233.43 226.525-.2.636-.368.201v-.837Z" fill-rule="evenodd"/></g><g clip-path="url(#ah)"><path d="m236.278 226.917-.117-.552-.335-.235-.016-.903.117-.151-.385-.335-.201-.368-1.623.335-2.98 1.372-.602-.602-.92.903.652.971.15 1.958 1.139-.267v.836l1.171-.167.954-.502.72.67.854.267h1.138v-.268h-1.138l.134-.284.753-.636.535-.62-1.707-.535v-.335Z" fill-rule="evenodd"/></g><g clip-path="url(#ai)"><path d="M243.12 198.647h-.284v-.837h.285Z" fill-rule="evenodd"/></g><g clip-path="url(#aj)"><path d="m245.127 201.424.435-.402.285-1.69-.754-.201.72-1.506-.284-.084-1.138.736-.318-.837-.1-.451-1.993.133-.569.285-1.506 2.276-.301-.117-.469.067-2.962 1.657 1.155.636 2.376-.485-.569 3.062h.67l.72.971 1.02-.335.318-.067.586.67.586-.335 1.623-2.544Z" fill-rule="evenodd"/></g><g clip-path="url(#ak)"><path d="m279.856 202.836.285-1.39h.569l-.284 1.39Z" fill-rule="evenodd"/></g><g clip-path="url(#al)"><path d="m280.882 205.343.385-.82.586-1.674.569-.67.083-3.029-.267-.87-.536-.184-2.008.167-.268-.736-1.138-.82-.57 1.941-1.138.837-.703 2.678v.67l1.708-1.122-.285 1.406.486.15.133-.067.72.369.552.016.67-.2v.569h.569v1.389Z" fill-rule="evenodd"/></g><g clip-path="url(#am)"><path d="m263.905 183.048.15-.285.42-.418.284-.134v.837Z" fill-rule="evenodd"/></g><g clip-path="url(#an)"><path d="m267.04 177.193.167-.368.62.134-.502.653-.285.134Z" fill-rule="evenodd"/></g><g clip-path="url(#ao)"><path d="m266.151 176.846-.736-1.423v-.469l.62-2.142-.503.15-1.054.185-2.11 1.958.386.301.452 1.54.3.67-.367 1.439-.52 4.184.603.201.185.385 1.874-.636.904-.134v.97l1.138-1.137.686-1.406.034-2.059-.352-.418-.084-.301.854-1.791-.803-1.624Z" fill-rule="evenodd"/></g><g clip-path="url(#ap)"><path d="M272.165 141.798v-.67l.57-.585.284-.134-.067 1.037-.134.151Z" fill-rule="evenodd"/></g><g clip-path="url(#aq)"><path d="m271.691 141.54.218.183.519 1.071c1.088 1.49 1.807.402 3.096-1.205l.57-1.322-.704-1.105.486-1.205v-.903l-1.624 2.108-.385.134.787-1.824.803-.904-1.289-.351-1.723 1.121.117-.452.167-.1v-1.105l-1.79 2.51-.637.77-.284.252-.134.351h1.138l.117 1.272z" fill-rule="evenodd"/></g><g clip-path="url(#ar)"><path d="m359.134 87.15.284.267-.25.904-1.055.167-3.063-.619-.285-.418 2.829.1 1.038.067.117-.452Z" fill-rule="evenodd"/></g><g clip-path="url(#as)"><path d="m327.942 110.589-.15 1.121-.553.82h-.954v-6.41l-.569-1.941c-.234-.938-.083-4.82.017-7.23l.017-1.139-.117-.569-.486-1.841-.837-.77-.853-1.54-.167 11.783 1.004 3.481-.168 2.645c-.134 1.874.084 4.033.235 6.059l.452 1.59 1.02 1.456.737-.82 1.289-.57.234-1.991 1.322.452 1.306 1.255h.686l.2-1.891.804-.887.469.602.519 1.34s-.067-2.093.033-3.6c.134-2.175.954-4.25 2.243-6.008l2.142-2.929.57-1.673 2.108-1.791 1.557-.285 4.452-1.958c1.221-1.055 1.07-2.126 2.226-4.57l.82-1.388 1.356-1.992.887-.368c1.89.15 1.874.837 3.548 2.175l4.268.988 2.778-.753 2.628-.235-2.176-1.523-.854-1.088c-1.874-2.677-2.795-3.096-5.523-2.544-1.975.419-5.071 1.29-4.67 1.373l.285.1-2.427 1.758-2.293 2.979-.703 1.874-2.828 2.796-.536-.151-1.422.686-2.712.854c-2.025.72-2.125 1.49-2.761 3.347-.737 2.126-1.524 2.025-2.712 4.034l-2.393 6.828-.335-.117-.2-.351-.202-.084c-.217-.05-.217-3.649 0-5.306l.436-2.778 1.506-3.766.05-.418-1.39 1.289-.802.518-.168-.284-.77.62v1.757l-.418.1-.201.1-.184.92Z" fill-rule="evenodd"/></g><g clip-path="url(#at)"><path d="m316.726 92.256.435-.435.87-.753-.084.652-1.004.971Z" fill-rule="evenodd"/></g><g clip-path="url(#au)"><path d="M319.45 86.058h-.57l.05-.235.318-.25.201-.068Z" fill-rule="evenodd"/></g><g clip-path="url(#av)"><path d="m315.574 95.253 1.59-1.808 1.992-1.121.435-.887-.62-.184 1.089-2.21.652-.384-.518-.653-.971.217.653-1.339.887-1.874-.452-.352-3.917 1.959-1.473.954-1.004.2.586.503.485 3.883-.669 1.037.084.52 1.205-.603.418-.084-.97 1.623-.168.603Z" fill-rule="evenodd"/></g><g clip-path="url(#aw)"><path d="m143.187 260.294.803-.318-.352.485-.502.067Z" fill-rule="evenodd"/></g><g clip-path="url(#ax)"><path d="m212.067 196.98-.267.402-.586.15v-.434l.569-.536.284-.134Z" fill-rule="evenodd"/></g><g clip-path="url(#ay)"><path d="m340.856 154.388.804-.318-.352.485-.502.067Z" fill-rule="evenodd"/></g><g clip-path="url(#az)"><path d="M252.229 142.914h-.57l.05-.234.319-.251.2-.067Z" fill-rule="evenodd"/></g><g clip-path="url(#aA)"><path d="M249.38 142.354v-.451l.57-.52.284-.15-.067.77-.133.15Z" fill-rule="evenodd"/></g><g clip-path="url(#aB)"><path d="m342.232 130.648-.284-2.226.184-.1.017-.385-.201-.92h.853l.118 1.84-.268 1.507Z" fill-rule="evenodd"/></g><g clip-path="url(#aC)"><path d="m339.102 124.1-.57-.703.787.351.067.486Z" fill-rule="evenodd"/></g><g clip-path="url(#aD)"><path d="m269.951 116.497.502-.335-.334.787-.235.033Z" fill-rule="evenodd"/></g><g clip-path="url(#aE)"><path d="M369.86 79.368v.552l-.234-.05-.62-.786.386.184Z" fill-rule="evenodd"/></g><g clip-path="url(#aF)"><path d="m309.479 82.99.284-.552.72-.57 2.41-1.388 1.205-1.172 6.126-3.749c1.07-.402.703.117.652 1.908-.067 1.858.687 4.05 1.892 4.686l1.406-.117c.184-.25-.352-3.046-.653-4.853l.485-3.247.235-.268.1.033.234-.05c.335-.15 1.64-2.46 2.51-3.983l2.796-3.632.853-.887c1.674-1.038-.2 2.627-.05 3.531l.034.184-.134 1.724-.201 1.64-.285 14.813h1.072l2.092-4.804.301-1.356-.318-.234-.184-.385-.234-.067-.285-4.636.285-1.858v-2.795c.033-1.054.3-2.276.87-3.933l.87-2.477 1.205 2.075.335 1.088-.05 2.712.134.133-.92 1.29V73.4l-.118.167-.117.084-.72-.301-.134.083-.117.168-.368 5.205 1.188-1.172.52-.636.719-.25-.034-2.561.954.05.268-.218-.736-2.795 1.473.452 1.338.167.285-2.226 5.44.151 1.07.519.971-.536.503-.351.937.084c2.025.334 5.071 1.338 6.996 2.31l2.31 1.17c1.64.67 3.598.871 5.121 1.524l5.423 3.766.284.552-1.673-.954-.904-.15.15.267 2.06 1.356c1.94.987 7.48 6.795 7.765 7.013l2.795 1.89 1.155.921 1.59 2.009-2.326.753-1.875 1.121h-2.377l-2.761-1.405h-1.707L368.56 93.3l-1.724-.837-.954.954.268.586 3.749.251 1.975-.92 1.69 1.221 2.31.921 2.243-1.557.77 1.507.485 1.59c.268 1.807.335 3.515-.234 4.251l-2.36 2.226.017.268 1.221-.285.1.536-.418.72-.72.686-2.51.318-2.761.569c-.82.184-7.047-.87-10.243-.92-2.21-.05-2.16.368-4.134 1.154l-3.7 1.122-1.004 2.36-1.991 2.51-.904 2.98.017.35-1.005 1.206-1.104 1.774.284 1.088-.569 2.025v2.56l1.138-1.389 1.29-3.9 2.995-6.058 1.054-1.39 1.222-1.89 3.28-.703 1.842-.971c2.125-.854 7.833.636 10.109.703h2.276l-1.389 2.243-4.519 3.313-2.008.77-3.616 3.28.57.603-.118 4.703.352 1.088v.385l-1.992-.803-1.272-.536-1.238-1.79.284-.72-.92.602-1.323 2.394-.954 1.238-.652 1.055-.419 2.376-.853 1.624-.1 2.895-.47.218-2.008-3.063-1.138-.418.1.736.184.368h-.669l-.653-1.289-.033-.401-.067-.887v-3.833h-.57l-.1-.452-.485 2.092v3.632l-1.824-2.192-1.005-1.825-2.845-4.318.05-.82c.285-1.69 1.105-5.657 1.64-6.93l.754-1.706.87-2.779 4.084-5.874c1.473-1.172 7.247-2.31 9.423-2.795l.837-.586v-.804l.435-.066 1.121-.687-1.121-.368-1.657.837-1.406.084-1.49.234c-2.46.987-6.21 2.46-7.28 3.18-1.272.854-4.988 7.247-5.841 10.444-.452 1.74-.72 4.184-1.139 5.02l-1.69 3.13.335.687-.385.736-2.561-.72-.87-2.292-.804.067-.418-.067-1.573-2.661-1.005-.268-.284 2.51.853 1.657 2.143 1.674 1.138 2.51 1.757 1.122 1.892 1.841 1.07.77 1.59 2.527 1.524-.402 1.138 10.31-1.423-.284.184 2.159-.1.15-.937.201v-.552l-.737.117-.619.218.218.92-.268.636-1.155 1.457.418-.05 1.139-.352.853.351.72-1.288.72-.988 1.556.937-1.071 2.092-.234.1-.118.871v1.758l-.2 1.02-.452.285-1.657 1.172-.553 1.54-.385.77.57.702.468-.117 1.724-.519.368.067 1.255-1.272-.133-.77.3-1.138v-2.56l-.167-.385 4.101 1.673 4.737-.418c1.924-.301 3.715-.787 5.556-1.306l1.122.235.435 2.426-1.138 1.842 1.121-.971 1.155-.804-.57-1.405.486-.67 2.394-2.51 3.565-1.708 1.54-.987 1.707-.552c1.707-.52 4.753-2.327 7.23-3.214 1.64-.569 3.38-.837 5.088-1.138l1.02-.117.336.15-.435 1.39-1.34.887-1.94 2.962.05 1.155 1.12-1.824 3.817-3.18.903-1.674.754-.285c1.339-.217 5.02-.217 7.414 0 3.682.352 5.222.92 7.833 2.846 5.406 3.966 5.49 7.682 3.314 15.548-.418 1.557-2.594 7.23-4.117 8.503l-4.67 1.255c-1.958-.268-3.598-.57-4.017-1.674l-.184-1.222-.117-3.715-.017-.887.034-.1-.703-1.808c-.77-1.272-1.69-1.808-4-2.009-1.775-.167-3.314.753-5.206 1.808-2.778 1.54-11.498 7.431-12.167 8.218-1.975 2.326-7.465 7.782-7.766 7.716l-.67-.067-.184.1-.385-1.205-.117-.686-.419.267-.318 2.26-.92 1.875c-2.21 3.012-4.703 3.983-8.52 8.067-2.945 3.146-4.267 3.983-9.138 5.84-.736.285-8.284 2.445-10.159 2.21l-.318-1.74v-1.088l.402.05-1.038-1.055-.519-.853-.184-.067-1.422.318-.921 1.69-.92-.619-.168.301-.536-.117-1.322.62-.786.05-.385-.184-1.205 1.037c-1.138 1.105-1.892.285-3.816.168-1.674-.084-6.678 1.74-7.7 2.678l-.853.736-.218-.82-2.192-.05-1.105-.787-.301 4.804 1.44-1.758 1.64-.418h1.154s-4.401 4.937-7.063 8.485c-2.159 2.862-3.163 4.804-4.92 6.946-1.774 2.143-4.72 5.155-5.624 6.578l-1.004 1.674c-1.473 2.259-13.155 12.067-14.762 13.39l-1.222.568-1.105-.117-.016-.837-.402-.569-.519-1.523-2.845-1.59-.787-.017.168 1.005h-1.155l.586.652 1.238 1.875.904.535.218.469.117.117 2.929.251v.301l-.737.586c-6.159 3.75-16.52 9.524-22.226 11.65-3.967 1.472-8.068 2.46-12.085 3.865-4.217 1.49-10.326 4.402-15.883 6.712-3.264 1.356-3.515 1.44-4.753 2.644-1.925 1.875-5.038 4.268-6.862 6.277l-2.729 3.03c-1.171 1.087-1.573 1.288-2.125 2.828-1.406 4-.686 4.535-4.1 5.724l-1.708 1.657 1.306.05 1.255 1.891-4.402 24.135-.385.402-.167-.285-.335-.117-.82 1.674-.435 1.958.485-.084.15-.1.218.033c1.607.653-.585 1.406-1.707 3.883l.084.301.97-.267.084.401-1.941 6.946c-1.39 3.013-4.034 11.816-4.318 12.704l-1.992 3.933-1.172 1.07-1.088 1.407-2.259 1.171-.335.369.854-.285.72.485.267-.016 1.59-.469c.067 2.711-12.686 22.093-12.77 22.227-1.255 1.975-2.644 4.067-4.234 5.891l-1.524 1.423.57-2.444-.352-1.389-2.059 1.339-.72 1.674-.35.452-.319-.1-1.858.886-.602.703.485-.083.235-.1-.436 1.74 1.523.284.754 1.222c-.218.603-2.143 2.912-3.733 4.553-2.46 2.544-7.163 7.916-8.703 11.264-.368.82-1.54 9.305-1.523 11.113.05 5.724.034 14.544-.284 16.184l-.703 3.984-.335.837h-1.523v1.74l1.037-1.02.268-.034.218.62 1.038-.185s-.05 3.18-.285 5.456c-.318 3.063-2.728 10.846-4.703 13.775-1.172 1.724-4.134 3.38-6.896 3.816l-2.477.2-2.326.436-5.808-2.36-1.155-1.322c-1.339-2.712-.887-4.318.703-6.712l1.875-3.113c2.376-4.954-.92-13.758-2.712-20.486-1.155-4.368-2.828-10.745-2.41-14.494.603-5.423 7.13-16.837 8.118-20.352 1.054-3.8 1.54-10.98 1.84-15.18.235-3.315.017-19.248-.284-20.353l-.569-2.51c-.218-1.992 0-6.126 0-6.126l.854 1.054.435 1.306.853-1.105.586.435.402.118v-2.277l1.004 1.172.285 1.657.703-4.452-1.139.837v-1.942l-.652.1-.586-.786.017-2.578-1.523 1.306-1.808-.285-.1-3.046c.15-1.556-1.222-12.084-1.607-17.574-.134-2.025-.1-3.866 0-5.958.134-2.879 1.958-15.113 2.427-16.335l.284-.553 1.473-1.087 1.707-2.628.084-.469-.703.268-.536 1.674h-.468l.502-1.841-.05-.553-1.189-.502.05-.552.285-2.16c.117-1.137 1.506-4.2 1.875-6.108.351-1.992.87-4.77 1.104-4.87l.92-.201 3.281-4.302.469-.535-.067-.804.15-.385.938-1.44-.268.051-1.59.904-.837-.218-1.104.988c-1.139 1.64-1.69 2.996-2.611 1.623l-1.992-4.736-1.138-1.39-4.335-3.046 1.272-1.07 2.059-3.566-.703-.954-1.791 1.607-.904.753-1.724.15v1.122l-1.774.268-8.486-4.87c-1.389-1.373-2.125-2.344-2.393-4.904l-.168-2.762h-.569v-.904c.151-2.025 2.996-4.97 4.653-5.238h1.892v2.828l1.439-1.79.552-.988 12.82 4.837.47.368 2.66.736 1.155 1.172-.468 1.054-.402 1.088.904 1.34.937-1.976.753-.686.854-1.456 2.26-.536 3.297-1.255.569.134.117.435h.569v.67l.535.334.385.436.703 1.623.653.285.285-3.632h-.57l.118-.402 1.339-2.059c.418-.552 10.008-5.54 12.586-6.56l9.607-5.741 2.845-2.678.988 1.004.485 2.092.067.82 1.372 1.021.47 1.222.183-2.377.419-1.02 1.138-1.49-1.055.2-.217-1.12.703-1.859h-.57l1.741-2.343c.92-1.155 4.92-4.653 7.431-6.644.87-.687 6.963-6.327 9.557-9.072l1.021-.92 1.256.184 1.12.937.269 1.054-.586 1.155-.167 1.574 1.924-1.155.486-.1 1.155 1.388 1.49-1.606.183-1.892.419-1.188.903-1.607-1.004-.954-1.556.57.1-1.306.184-.653-1.289.753-.234-.937-.62-.184.285-.753c.737-1.088 3.9-3.75 5.557-5.707l1.339-1.758c2.025-2.711 12.804-14.059 14.896-16.854l.502-.72 1.071-1.155.586.67.57-.285.4-.1v2.51l1.223-.133 1.221 3.23-.284.67.167 1.12 1.791-2.309-.569-.2.452-2.863.402-.853v-1.356l.3-.184-.82-2.276 1.055-1.306.486-.787-.687.168-1.037.1.87-1.49.569-1.204 1.707-1.758-.82.184-1.105.57-.15-.335-.787.418-.184-.368.368-.904c2.477-3.8 7.498-11.548 7.649-11.28l.703 1.271 1.958-.987.804.1.67.034 1.137-1.523-.385 1.205.1 1.02 1.038-.1.385-.184-.485.988.954 1.707.519-1.74.1-.185.184-.67.268-2.46-.217-1.523.619-1.807-.67-.553-.234-.334-1.222.1-.954-.904.703-1.456-.335-.15v-.335c.67-3.063 15.13-18.411 16.018-19.934l1.707-2.226.987.72-.134 2.058 1.222-.502-.134 1.49-.083.418h.452l1.958-1.674.284-1.673.553-1.54-.352-.887.603-1.239.351-.703h-.602l-.352-.083.92-2.21.034-.937c.034-1.908 12.921-10.812 13.005-10.879l1.255-.502 1.155-.1-.084-.251-.167-.402-1.088.217v-.669l.92-.803 1.942-.201-.57-.553.57-.703 1.707-.552 1.122-1.422 2.56-1.406 7.867-5.038 1.724-1.071 1.238 1.975 1.105-1.775 2.326-1.338v-.938z" fill="#fff200" fill-rule="evenodd"/></g><g clip-path="url(#aG)"><path d="M341.663 66.268v-.419l.352-.653c1.422-1.573 4.652-5.991 5.339-6.46l1.439-.97 1.138-1.39 1.322-.552.352 1.155.318 9.84s-2.678-.418-5.356-.551c-2.444-.118-4.904 0-4.904 0" fill="#fff200" fill-rule="evenodd"/></g><g clip-path="url(#aH)"><path d="m346.05 131.485.1.87 1.038 2.193 2.427 1.34.519-.921 2.66.954 1.44 2.192 1.774.62-.134-1.39-1.004-2.61.285-3.532.72-.653.284-3.883.536-1.038 2.845 1.139 2.41 1.255 2.895.117-.15-1.992-.603-1.908c-.97-2.711-.452-5.138.753-5.992l3.95-2.025c1.557-.887 4.87-3.531 5.724-5.155l.87-2.142 1.992-.703 1.557-.988c.82-.97 3.23-5.456 4.419-8.167 1.941-4.452 2.845-6.93 2.125-8.57-.284-.686-12.486-12.552-15.247-14.845-1.49-1.239-2.595-2.176-4.335-3.247l-6.595-2.076-.652.252.083-.47-.15-.367-4.285-1.925.285-9.005-.57-2.092c-.468-2.092.77-4.017 2.561-5.674l3.85-3.146.084-.519-.653-.351-2.41 1.673.1-.385-.1-1.556-2.494 2.427-2.025 2.175-.887.017-8.704 8.486c-1.975 2.46-4.686 6.644-4.686 6.644l-.82-1.238-.803-1.473c-1.925-4.117-1.356-4.485.451-9.172l.82-1.607.921-.853-1.038-.887-1.54.217.118-1.272-.117-.686-.285.419-2.494 8.753-8.469 7.833c-1.238 1.657-2.56 4.485-3.263 5.188l-10.511 6.46-.218.319c-.418.636-11.766 8.452-13.824 9.54l-3.063 1.523c-2.946 1.305-6.561 2.343-9.39 3.649l-3.732 1.89-2.276 1.641.686.603 3.464-.034-2.242 2.98c-5.206 3.631-10.277 8.87-14.01 13.908l-3.263 4.368c-2.728 3.364-7.414 7.967-8.703 9.841l-1.573 2.36-2.98 3.766c-2.008 2.561-15.732 24.67-16.536 25.373l-1.556 1.524-1.138 2.092c-1.272 2.393-2.812 3.464-4.703 5.858l-2.143 3.062c-2.945 4.335-24.52 27.734-28 30.127l-1.607 1.222-1.189 1.339c-2.627 3.08-9.272 7.431-11.85 9.607-4.05 3.397-4.585 4.335-8.904 6.762-5.79 3.246-16.67 8.301-18.745 9.707l-4.184 1.925-.502-.067-1.105.485c-1.707.87-4.804.502-6.611.117-2.243-.468-15.18-5.523-16.871-5.807l-5.038.2c-3.464 1.222-6.109 6.712-5.623 10.662.602 4.753 2.594 7.013 6.41 9.255 3.464 2.026 7.297 3.833 10.594 5.842 4.252 2.61 5.959 6.443 5.791 11.297-.05 1.624-2.376 11.498-3.699 17.406-.87 3.85-1.422 7.984-1.857 12-1.055 9.574-.754 11.566.435 19.834.519 3.7 2.142 28.085 2.276 34.445.184 9.122.552 23.18-4 32.537-4.034 8.335-6.879 10.058-6.544 16.737.351 6.845 5.205 21.34 5.992 26.042.67 4.134.636 5.574-1.574 8.084-4.351 4.954-4.284 8.854 0 12.82 3.063 2.83 5.908 3.315 10.11 3.449 3.933.133 9.088-1.155 11.464-4.335 4.603-6.193 6.327-15.683 6.477-22.244.151-6.243-1.037-23.28 1.992-31.08 1.942-5.021 9.222-13.189 12.134-16.821 9.741-12.134 20.62-29.106 25.759-44.219 1.69-4.988 2.929-10.41 4.653-15.097l1.037-2.745c.653-1.807 4.887-25.741 6.293-31.315 1.44-5.69 3.331-9.037 7.666-14.243 2.577-3.113 4.82-4.92 8.318-7.03 1.808-1.087 13.021-5.974 16.168-7.045 3.264-1.105 6.46-2.093 9.657-3.164 7.917-2.66 17.725-7.448 25.056-12.218 6.678-4.351 15.9-12.552 20.268-17.925 4.988-6.126 13.674-17.724 14.745-18.645l2.912-2.678 1.139-1.54c1.171-1.255 3.715-2.008 5.406-2.226 2.326-.301 3.464.05 5.824.385 6.745.988 10.344.385 16.402-1.355 5.356-1.54 6.243-2.193 10.528-5.992 5.59-4.954 16.62-16.302 19.23-18.394 4.252-3.431 5.775-3.917 11.298-7.599l3.933-2.159c1.892-.452 3.197 2.393 3.03 4.352l-.385 1.84.067 1.089 2.895 3.03 7.7.551 1.087-.468.502.05 1.59-.753c3.33-2.661 5.373-9.54 6.026-12.335.368-1.54.87-8.151.686-8.971-.804-3.683-3.264-7.114-6.46-9.022l-6.762-1.941c-2.41-.318-5.909-.435-8.118-.268-11.348.77-13.892 3.314-25.39 8.285-2.745 1.188-10.193 3.582-13.892 3.414l-1.723-1.389c-.352-2.243-.285-4.502-.72-7.95-.385-2.98-1.138-6.829-1.138-6.829Zm-36.453-48.487.284-.569.703-.552 2.427-1.39 1.188-1.17 6.143-3.767c1.071-.401.703.118.653 1.925-.067 1.858.686 4.05 1.89 4.687l1.407-.134c.167-.251-.352-3.03-.67-4.837l.502-3.264.235-.268.1.034.234-.034c.335-.167 1.64-2.46 2.494-3.983L330 66.027l.837-.87c1.674-1.038-.2 2.61-.034 3.515l.034.184-.134 1.724-.218 1.656-.284 14.796h1.088l2.092-4.787.301-1.372-.335-.235-.184-.368-.217-.067-.285-4.653.285-1.84v-2.812c.016-1.038.301-2.277.853-3.934l.87-2.46 1.222 2.075.335 1.088-.05 2.695.134.15-.92 1.29v1.606l-.118.15-.117.084-.72-.284-.134.084-.117.15-.385 5.222 1.205-1.171.503-.653.736-.251-.034-2.561.954.05.268-.2-.753-2.796 1.49.452 1.322.15.301-2.225 5.44.167 1.07.519.955-.536.519-.351.937.067c2.008.335 5.071 1.339 6.98 2.31l2.326 1.171c1.623.67 3.581.887 5.121 1.54l5.406 3.75.285.568-1.674-.97-.887-.151.15.284 2.06 1.34c1.94 1.003 7.48 6.794 7.765 7.012l2.795 1.908 1.138.92 1.607 2.009-2.326.753-1.891 1.105h-2.377l-2.745-1.39h-1.707l-2.076 1.674-1.707-.837-.97.938.284.586 3.75.267 1.974-.937 1.69 1.239 2.31.92 2.243-1.573.753 1.523.502 1.573c.251 1.825.335 3.532-.234 4.268l-2.36 2.226.017.251 1.222-.284.1.535-.435.72-.703.703-2.527.301-2.745.586c-.82.167-7.047-.87-10.26-.937-2.193-.034-2.142.385-4.117 1.171l-3.7 1.105-1.003 2.377-1.992 2.51-.904 2.98.017.334-1.004 1.205-1.105 1.774.284 1.088-.569 2.025v2.578l1.139-1.406 1.288-3.9 2.996-6.042 1.055-1.39 1.205-1.89 3.28-.703 1.858-.971c2.109-.87 7.833.636 10.11.686h2.275l-1.389 2.26-4.519 3.314-2.025.77-3.598 3.28.569.602-.118 4.704.352 1.087v.369l-2.009-.787-1.255-.536-1.238-1.79.284-.737-.937.603-1.306 2.393-.954 1.255-.652 1.055-.435 2.376-.854 1.624-.084 2.879-.485.234-1.992-3.08-1.138-.418.1.753.185.368h-.687l-.636-1.288-.05-.402-.05-.887v-3.833h-.57l-.1-.452-.485 2.076v3.648l-1.84-2.209-.988-1.808-2.846-4.318.05-.82c.285-1.707 1.105-5.657 1.64-6.946l.754-1.69.853-2.795 4.101-5.875c1.473-1.171 7.247-2.293 9.423-2.778l.837-.586v-.803l.435-.067 1.121-.687-1.138-.368-1.657.837-1.389.084-1.49.234c-2.46.97-6.209 2.444-7.28 3.163-1.272.854-4.988 7.247-5.841 10.46-.452 1.742-.737 4.185-1.138 5.005l-1.69 3.147.334.67-.385.752-2.578-.736-.853-2.276-.804.067-.435-.084-1.556-2.644-1.004-.285-.285 2.51.854 1.674 2.142 1.674 1.138 2.51 1.757 1.105 1.892 1.841 1.07.787 1.59 2.51 1.524-.401 1.138 10.31-1.423-.268.185 2.142-.118.168-.92.2v-.569l-.737.118-.636.234.235.904-.268.636-1.155 1.456.402-.034 1.138-.351.854.335.72-1.29.719-.987 1.573.938-1.071 2.109-.234.1-.117.854v1.774l-.201 1.004-.452.301-1.657 1.155-.553 1.54-.384.77.569.703.468-.1 1.724-.536.368.083 1.256-1.288-.134-.754.284-1.138.017-2.56-.167-.402 4.1 1.674 4.72-.419c1.942-.284 3.732-.77 5.573-1.289l1.122.235.435 2.41-1.138 1.858 1.104-.971 1.172-.82-.569-1.39.485-.669 2.394-2.527 3.565-1.707 1.523-.971 1.707-.57c1.724-.501 4.77-2.326 7.247-3.196 1.64-.586 3.381-.853 5.088-1.155l1.021-.1.318.134-.418 1.406-1.34.87-1.94 2.962.033 1.172 1.138-1.824 3.816-3.18.904-1.674.753-.285c1.339-.217 5.02-.217 7.414 0 3.666.335 5.205.921 7.833 2.829 5.406 3.967 5.49 7.699 3.314 15.565-.435 1.557-2.61 7.214-4.134 8.503l-4.67 1.255c-1.941-.284-3.581-.569-4-1.69l-.184-1.205-.134-3.733v-.87l.017-.117-.686-1.808c-.787-1.255-1.69-1.79-4-2.008-1.774-.15-3.331.77-5.206 1.807-2.795 1.54-11.498 7.431-12.184 8.235-1.958 2.31-7.465 7.766-7.75 7.699l-.685-.05-.168.083-.402-1.205-.1-.686-.435.285-.301 2.26-.92 1.857c-2.21 3.013-4.704 4-8.52 8.084-2.962 3.13-4.268 3.983-9.155 5.841-.72.285-8.268 2.427-10.143 2.21l-.318-1.758-.016-1.088.401.05-1.02-1.037-.52-.87-.2-.068-1.406.318-.92 1.707-.921-.636-.168.318-.535-.133-1.323.636-.803.05-.368-.184-1.205 1.02c-1.138 1.105-1.891.285-3.816.185-1.674-.1-6.678 1.74-7.7 2.678l-.853.72-.217-.804-2.193-.05-1.105-.804-.3 4.804 1.422-1.757 1.657-.419h1.155s-4.402 4.954-7.08 8.502c-2.142 2.846-3.147 4.804-4.92 6.93-1.758 2.159-4.704 5.155-5.608 6.594l-1.004 1.674c-1.49 2.26-13.155 12.067-14.762 13.39l-1.222.568-1.104-.134-.017-.836-.419-.553-.502-1.54-2.845-1.59-.787-.016.151 1.02h-1.138l.586.653 1.238 1.858.887.536.235.485.1.117 2.946.251v.302l-.737.585c-6.159 3.75-16.519 9.507-22.243 11.633-3.95 1.49-8.067 2.477-12.067 3.883-4.235 1.472-10.327 4.385-15.884 6.694-3.264 1.373-3.515 1.456-4.753 2.645-1.942 1.874-5.038 4.284-6.879 6.293l-2.728 3.03c-1.155 1.07-1.557 1.271-2.109 2.811-1.406 4-.686 4.553-4.117 5.724l-1.69 1.657 1.305.05 1.255 1.908-4.419 24.135-.368.402-.167-.302-.335-.1-.837 1.657-.418 1.958.485-.083.134-.1.234.05c1.607.635-.585 1.405-1.707 3.866l.084.3.954-.267.1.418-1.941 6.946c-1.406 3.013-4.034 11.817-4.335 12.704l-1.975 3.933-1.171 1.054-1.088 1.423-2.26 1.172-.335.351.854-.268.72.486.267-.017 1.574-.469c.083 2.695-12.67 22.076-12.77 22.227-1.256 1.975-2.628 4.067-4.218 5.891l-1.523 1.423.569-2.46-.352-1.373-2.075 1.322-.703 1.674-.352.469-.334-.117-1.841.887-.603.72.485-.084.218-.1-.418 1.74 1.523.268.753 1.238c-.218.603-2.143 2.896-3.733 4.536-2.46 2.544-7.163 7.933-8.703 11.28-.385.804-1.54 9.29-1.523 11.114.05 5.724.034 14.544-.284 16.185l-.72 3.983-.318.837h-1.523v1.74l1.038-1.037.267-.034.218.636 1.038-.184s-.05 3.164-.285 5.456c-.318 3.063-2.728 10.846-4.703 13.775-1.172 1.724-4.15 3.38-6.896 3.816l-2.477.2-2.326.436-5.825-2.377-1.138-1.322c-1.339-2.694-.887-4.301.687-6.695l1.89-3.13c2.377-4.954-.92-13.74-2.71-20.485-1.155-4.369-2.846-10.746-2.427-14.495.602-5.422 7.13-16.82 8.117-20.335 1.071-3.816 1.557-10.996 1.858-15.197.234-3.297.017-19.248-.285-20.336l-.569-2.51c-.217-1.992 0-6.143 0-6.143l.837 1.071.435 1.306.87-1.121.586.451.402.118v-2.293l1.004 1.171.285 1.674.703-4.452-1.138.837v-1.958l-.67.1-.569-.787.017-2.577-1.523 1.305-1.808-.267-.1-3.047c.134-1.573-1.222-12.084-1.607-17.573-.15-2.026-.1-3.867 0-5.976.134-2.878 1.941-15.113 2.41-16.335l.285-.552 1.49-1.071 1.706-2.628.084-.485-.72.284-.535 1.674h-.452l.485-1.858-.033-.536-1.189-.502.05-.569.268-2.142c.118-1.138 1.524-4.201 1.875-6.126.368-1.975.887-4.77 1.121-4.853l.904-.201 3.28-4.318.486-.536-.067-.803.15-.369.938-1.439-.285.05-1.573.904-.837-.234-1.104.987c-1.138 1.64-1.69 3.013-2.611 1.64l-2.009-4.736-1.138-1.39-4.335-3.045 1.272-1.088 2.076-3.565-.72-.938-1.79 1.59-.888.754-1.74.15v1.122l-1.758.267-8.486-4.87c-1.406-1.356-2.125-2.327-2.393-4.904l-.167-2.762h-.57v-.887c.151-2.025 2.997-4.987 4.637-5.238h1.908v2.811l1.44-1.774.551-1.004 12.821 4.837.469.368 2.66.753 1.139 1.155-.452 1.071-.402 1.088.904 1.323.937-1.975.737-.687.87-1.439 2.26-.536 3.297-1.255.569.117.117.436h.57v.669l.535.351.385.419.686 1.623.67.285.284-3.615h-.57l.118-.402 1.322-2.075c.435-.536 10.026-5.524 12.603-6.545l9.607-5.757 2.845-2.678.988 1.004.485 2.092.067.82 1.373 1.038.468 1.222.168-2.377.435-1.02 1.138-1.49-1.055.2-.234-1.137.72-1.858h-.57l1.741-2.327c.904-1.155 4.921-4.653 7.432-6.644.87-.686 6.962-6.344 9.556-9.088l1.021-.921 1.239.184 1.138.937.268 1.072-.586 1.154-.167 1.557 1.924-1.138.47-.117 1.17 1.406 1.474-1.624.2-1.874.402-1.189.92-1.623-1.004-.938-1.556.553.1-1.289.168-.67-1.272.754-.235-.938-.619-.167.285-.753c.736-1.105 3.9-3.766 5.556-5.707l1.34-1.775c2.008-2.694 12.786-14.059 14.878-16.854l.52-.703 1.054-1.154.602.669.57-.284.4-.118v2.51l1.206-.116 1.238 3.23-.284.67.167 1.104 1.791-2.31-.586-.184.469-2.878.385-.837.017-1.356.301-.184-.837-2.293 1.071-1.289.469-.803-.67.184-1.037.1.853-1.49.57-1.221 1.707-1.757-.804.2-1.104.553-.168-.318-.77.401-.184-.368.368-.887c2.477-3.8 7.499-11.548 7.65-11.28l.702 1.255 1.942-.988.82.1.67.05 1.137-1.539-.385 1.222.1 1.004 1.039-.084.384-.184-.502.971.971 1.707.502-1.724.117-.184.184-.686.268-2.444-.234-1.54.636-1.807-.686-.552-.218-.335-1.222.117-.954-.904.703-1.456-.334-.167v-.335c.669-3.063 15.13-18.394 16.017-19.934l1.707-2.226.987.737-.133 2.058 1.221-.502-.15 1.49-.084.402h.469l1.958-1.674.284-1.674.536-1.523-.335-.887.603-1.255.351-.686h-.602l-.352-.1.92-2.193.034-.938c.034-1.908 12.905-10.829 12.988-10.879l1.255-.502 1.155-.1-.067-.268-.167-.385-1.088.2v-.669l.92-.803 1.925-.2-.569-.553.57-.686 1.723-.57 1.122-1.422 2.56-1.39 7.85-5.054 1.724-1.071 1.255 1.975 1.105-1.774 2.326-1.34v-.92Zm23.063 16.72.502-.066.352-.502-.804.334-.083.201-1.356 1.322-.803.52-.168-.285-.77.602v1.774l-.418.084-.2.117-.185.904-.67 5.858-.15 1.121-.552.837h-.954v-6.427l-.57-1.925c-.234-.937-.083-4.837.017-7.247l.017-1.138-.117-.569-.486-1.841-.836-.753-.854-1.557-.184 11.8 1.02 3.464-.166 2.645c-.134 1.874.083 4.05.234 6.059l.452 1.59 1.02 1.473.737-.837 1.289-.57.234-1.974 1.322.452 1.306 1.255h.686l.201-1.891.787-.904.502.602.502 1.356s-.067-2.092.033-3.598c.134-2.193.954-4.268 2.243-6.026l2.142-2.912.57-1.674 2.108-1.807 1.557-.268 4.452-1.975c1.222-1.054 1.071-2.126 2.226-4.57l.82-1.372 1.356-2.008.887-.352c1.908.151 1.874.82 3.531 2.176l4.285.97 2.778-.735 2.628-.235-2.176-1.523-.87-1.088c-1.858-2.694-2.779-3.113-5.507-2.544-1.975.402-5.07 1.272-4.653 1.373l.252.1-2.41 1.74-2.31 2.98-.687 1.874-2.828 2.796-.552-.134-1.406.686-2.712.837c-2.025.72-2.125 1.49-2.761 3.347-.737 2.142-1.523 2.042-2.712 4.05l-2.393 6.83-.335-.118-.2-.368-.201-.067c-.218-.067-.218-3.649 0-5.323l.435-2.778 1.49-3.749Zm26.595-12.569.268.268-.234.904-1.055.167-3.08-.62-.284-.418 2.829.1 1.037.068.134-.452Zm-43.566 8.1 1.59-1.807 1.992-1.121.418-.887-.602-.184 1.087-2.21.636-.368-.502-.67-.97.218.652-1.339.87-1.857-.451-.352-3.9 1.942-1.473.954-1.004.2.586.52.468 3.865-.652 1.038.083.519 1.189-.603.435-.083-.97 1.623-.168.603Zm3.866-9.188h-.569l.05-.234.318-.251.201-.067Zm-2.711 6.193.435-.435.854-.737-.067.636-1.005.971Zm-45.04 49.29.218.184.502 1.072c1.122 1.472 1.825.401 3.113-1.206l.57-1.322-.704-1.104.486-1.222v-.887l-1.64 2.092-.352.134.77-1.825.803-.887-1.305-.351-1.707 1.121.117-.452.167-.117v-1.088l-1.79 2.494-.637.787-.284.234-.134.368h1.138l.134 1.272Zm.47.251v-.67l.568-.585.285-.134-.067 1.038-.134.15Zm-6.01 35.048-.736-1.423v-.452l.62-2.16-.503.152-1.054.2-2.109 1.942.385.301.452 1.54.284.67-.351 1.439-.519 4.184.603.2.184.386 1.874-.636.904-.134v.97l1.138-1.137.686-1.406.034-2.059-.352-.418-.083-.302.853-1.79-.803-1.624Zm.888.351.167-.385.62.15-.503.653-.284.134Zm-3.13 5.858.134-.285.435-.418.285-.134v.837Zm16.971 22.294.385-.82.603-1.674.552-.67.084-3.03-.268-.87-.536-.184-2.008.168-.268-.737-1.138-.82-.57 1.942-1.137.837-.703 2.678v.669l1.707-1.121-.285 1.406.486.15.134-.067.72.368.552.017.67-.2v.568h.568v1.39Zm-1.02-2.511.284-1.39h.569l-.285 1.39Zm-34.73-1.406.435-.402.285-1.69-.77-.2.736-1.507-.284-.084-1.155.737-.301-.837-.1-.469-2.01.15-.568.269-1.49 2.276-.301-.1-.486.05-2.962 1.673 1.172.636 2.36-.485-.57 3.063h.687l.72.97 1.02-.334.318-.084.586.686.586-.334 1.623-2.544Zm-2.008-2.778h-.285v-.837h.285Zm-6.846 28.269-.117-.553-.335-.234-.016-.904.117-.167-.385-.335-.201-.351-1.624.334-2.979 1.373-.586-.603-.937.904.653.954.15 1.975 1.139-.285v.837l1.171-.15.954-.52.72.67.854.285h1.138v-.285h-1.138l.15-.284.737-.62.535-.619-1.707-.535v-.335Zm-2.845-.402-.2.636-.37.2v-.836Zm-39.03 23.65 2.744-2.076.787-.218 3.03-1.724v-.67l-.854.285 1.004-2.042-.084-.3.084-1.608.569-1.02.134-.62-1.256 1.122h-.451v-.837h-.436l-1.54 1.238-.903.318-.57.352-.25 1.004v.77l-.268.92-.469.369-.586.72-.502-.235-1.774 1.69.302.82.368.201-.703 1.741-.084.402.301-.134 1.406-1.74Zm4.35-3.516.503-.334-.335.786-.234.05Zm-37.39 4.586 1.423-1.59h-.67l-2.158 2.41-.87 1.038-1.423 7.147 1.422-.97.854-1.675.351-.217 1.49-4.753-.285-.687Zm-.853 3.164v.552l-.234-.05-.251-.302-.084-.2Zm25.44 2.025.117-.168.084-.468-.62.351-1.857.62-.15-.352-.988.117-.168-.1-.92.468-1.105 2.06.536.669.268.753c.334 1.657.267 4.435.552 5.222l.87 2.125.553 1.507.636.067.2.351.369.084.686-3.08-.72-2.778-.703-1.54 1.138-2.36-.184-1.356.134-.535 1.306-1.122-.05-.117Zm-2.644 3.548h-.57v-.569l.235.05.251.318Zm.569 7.247-.57.268v-1.105h.57Zm4.837 19.499 1.606-.87 2.243.568.703.586-.134-1.121-1.69-3.431-.168-1.306h-.853v-.837l-.318.369-.519.903-.351.235-.938 1.289-1.288 3.062h.569v-.552h.569v-.368l.167-.218.301-.083.385-.168Zm1.707-2.51.435-.838.418-.267-.418 1.104-.435.285Zm-4.553 25.088-1.422 1.506.117 2.276.552.185.92 2.041-.384.87.686.737.335.235-.184.468.301.218 2.008-1.875.385-1.07 1.523-2.629-1.405-3.364-1.088-.786-.1-.603-1.039 2.293-.518.62h-.687Zm0 3.347v-1.389l.57-.284-.118 1.004-.267.569Zm-34.11 48.22 1.021-.452.67-1.005 1.657-4.401-.385 1.02-.368-.234-.62-.117-.77-.586-.786 2.042-1.473 2.042-.234.686.083 1.005Zm1.356-4.47-.217-.066-.302-.251.302-.435.217-.084Zm-24.754 47.032.084 3.498.87 1.84 1.004.587.168 3.665.987 1.64c.201-.017.117-2.61-.117-4.351-.268-1.925-.519-3.766-1.456-5.407Zm2.26 6.761.519.887-.134.352-.235.602-.15.118ZM345.765 70.73h-1.991l1.322 2.51h2.092l1.958.486 2.594.62-1.104-1.29Zm-3.699.552h1.423v-.284h-1.423Zm21.072 4.185 1.825 1.673h.451l-1.824-1.673Zm5.406 7.531v-.67l-.284-.451-6.494-2.51-1.875.97 1.34 1.138.3-.083.754.067 4.368 1.54Zm-7.866 3.331.2-.15.202-.47-.1-1.522-.503-.352h-.753l.402.787.167 1.707Zm10.862 12.82-.853-1.104-.72.552-.703 2.51-2.678 1.792-.787.585-.033.352 1.356-.084 4.134-3.448.92-1.288.368-.703-.518.2Zm-83.032 2.511-.418.77.1.117 3.532-.803.334-.52.787-.233 1.088-1.005-2.578.285v-.837l-1.138.15-.937.971-1.339.452-.284.653Zm89.442-1.39-2.56.955-1.34 1.841-.568.134-.168-.335-1.037.62-2.578.82 1.038.987c1.573.485 3.096-.837 4.502-1.958l1.858-1.256.853-.87Zm-82.379 13.072-3.013-2.527-.05-.368 1.004-1.456-.3-.168.284-.937-.92-.167.434-1.808-2.393.52-1.306.116-.652.419-.72 3.347 1.071-.485c.837-.486 1.523 1.004 1.44 2.66l-.134 1.273 1.908 1.289 1.707-.837-.285.837Zm4.536-5.121-.954.268-.201-.553-.57.134-.602.87 1.272 1.256-.067.485-.385 1.74.62.235.167.703.368 3.08.302.268s.77-2.46 1.556-4.034l1.423-2.527v-.67l-1.088.703-2.042-.62Zm9.557 10.745.518-.837-.016-.301-.57.285.034-.235.301-.284.452.167.352-1.054h-.636l-.553.602-1.857 2.059-1.674-.268-.335-.351-.368 2.426.803-.686.235.067.15.887.251 4 1.105 1.975-.15-1.59c-.168-2.443-.05-3.247.886-4.937Zm-4.352-.301h.285v-.837h-.285Zm11.18 3.264-1.389.234-.1-.15.77-1.59-.352-.202.05-1.422-.753.284c-1.657.753-1.44 2.377-1.238 3.984l-.05.619-.888 1.322-.016.419c.385 1.606 2.745 4.083 4.134 4.284l1.924.218.185.385.284.268.502.067-.653-1.055-.887-.837.118-.619-1.139.552v-.418l.72-1.155-.15-.167v-1.875l-.737-.117.368-.87.084-.402-.753.084-.385.184Zm-18.293.351.117-.586-1.054-1.523-.369-.117-1.673 2.21-1.005 5.154 1.29.603.334-.519.653-.2v.836h1.138l-.201.636 1.238.268 2.662-.067v-.285h-1.138l.1-.452.1-.167.017-.351-.67-1.172-1.255.485v-.937l.218-.502.435-.167.2-.352H298.2l1.02-1.556.118-.402h-.854v-.368l.168-.201.301-.084.1-.184Zm34.177 6.41.284-3.43-1.138-1.725-1.423.988.72 3.096 1.188.937Zm3.699 6.427h.284v-1.389h-.284Zm4.284 3.9h.452l.486-.803.77-3.264v-.67l-.62.335-1.205.62-1.121-.52-.653-.016-.15-.067-.252.067.134 2.326.318 1.456.703.971-.117-1.724-.084-.2-.1-.47.72.285.72 3.348h.284Zm-8.552-1.121-1.122.97-1.355-.318-1.825 1.39-.82 3.816 1.138-.285-.569 2.51h.452c1.674-.92 3.398-5.472 4.034-7.43Zm65.224 9.473-.134-.285-3.85-.418-.284.418h.569v.837h1.422v1.406l1.306.117.184.1.452.57.25-.703-.116-.168.134-.97-.134-.1-.184-.051-.754.084v-.837Zm-1.423 3.347h.569v-.552l-.234.05-.251.301Zm-90.58 11.147.284-.97-.502-1.105.1-.503-.82-1.405-2.376-2.143h-1.523v.686l.569 1.54-.57-.284-.1.452-.117.083.033.854.084.853.034.854-.118.084-.016.301.903-.351 1.105.77.837.334.402.301 1.305.57 1.925.87.452.72 1.456-.285h.653l-.486-.97.201-1.256-.251.184-.502.552-1.188-.602-.636-.134.518.502-.803.335v-.837Zm64.236-1.841.368-.887 1.523-.486.77-.25 2.327-.319-1.942-1.79-2.21.384-.284.503-1.941 1.506-1.373.335.854.351Zm-22.93 2.125 1.992-1.774.854-1.908-.971-1.623h-.452l.184.67v.903l-.485.686-.737.586-1.807 1.908h1.422Zm-6.544 13.089-.72.485-.184-1.02-.502-.603-2.644-.971-.72.301-.15-.62-.302.068-1.054-.536.435-1.372.134-1.44-1.088.62-2.611 2.862.402-.15.837-.135.669 3.9.603-1.038.435.67 1.606-1.289.67.586.351.636.687-.67v1.959h.569l-.603 2.393 1.373-1.289h2.376v-1.104h-.569Zm-36.035 6.41-.686-.97-.97-.42-.553-1.305-.217-.083v.552c.284 1.573.903 3.398.853 4.184l-.853 4.017.083 2.36-.083.586 1.355-1.808 1.356-.97-.335-1.875.469-2.025Zm-90.998 22.31h-.954l-.62.553-1.857 2.778 1.138-.268v.419l-.72 1.69.686.452-.117.285.218.284.703.469.669.753-.167 1.674.786.318.653-.218.318-1.824-.318-.201.502-.804.385-1.405-1.79-2.377Zm-43.299 36.788.937-2.862.067-.586.854-.736 1.44-2.98 1.288-1.372.385-.887-.318-1.355.184-.385h-.285l-1.54.753-.568-.753-.318.067-3.03 1.941-.67 2.46-1.271 2.009v1.339l.468.1.385.184-.284 1.942.468-.1.1-.185h1.708Zm77.76-7.816-1.875.034-1.188-.118.218-.602-.954-1.44-.335-.033-2.142 1.44.452.568.502 1.122.853-.15 3.23-.319.988-.184Zm-117.812 7.532 1.708.837.318-.285.435-1.674-2.276-3.48-.402 1.154-.92.485-.971-.1.2.653-.669.836-.385 1.072.72 1.171.837-.1.318.385Zm85.359 7.515-.837-.436-4.234.235.217 1.422.502.888.352.133v-.569l.653-.067.435-.133.87-.754 1.373-.234.184-.1.468-.1Zm-44.169 31.013 1.138-2.795-2.56-6.895-1.021-.017-.285 1.171-.837 1.222-.703-.837.285 1.674h-.285l-.82-.686-.469-.067 1.423 3.816.753.62.971.501.218 1.858.485.653v-.97Zm-11.682 11.632v-1.104l-1.674-3.314-.485-.803-.536-1.256-.803-.753-.938-.134-.401-.15-1.004 3.062-.285.954-.469-.92-.184-.184-.25.502-.084 1.506.853 2.594.636.335.92 1.004.67-.619.1.084.687-.486.335-.184.133.084.335-.368.804.351Zm39.315 6.662-.201.686-.87.385-.352-.067-1.991 3.213v1.105l1.171-.134.77-.284h1.172l2.493-2.812.436-1.59.217-2.98-.67-.083-.418-.134-.853-.736-.168 1.958-.167.67h-.57Zm-36.47 18.98h-.753l-.469-.82c-.217-1.808-.418-3.264-1.121-3.7l-2.678-1.188v.603l.1.184.084.586-1.54 2.41-.602.083.753 1.139.134 2.075 1.155 1.824.82-.033 1.573 1.406.82 2.242.084-.267.72.585.133-.1.335-2.56.452-1.959Zm8.837 27.314h.419l.87.837.335 1.707 1.221-3.213-.117-1.155-.351-1.138.134-1.071c0-1.557-2.293-2.51-3.13-3.816l-.469-.72-.334-.352v.938l-.151.485-.234.352.2 1.138.05 3.263.988 1.724v1.858h.57Zm-30.193 1.406v.837l1.372 4.05.586.67.25-.067.135-.1.184.083.502.536.753-1.758.134-.15c.285-.285.703-2.862 1.121-4.369l.87-2.092.068-.435-.854.285v-1.406l-.887.15-1.272.653-.535.87-.57-.552-.619 2.795Zm5.707 24.52h.268v-.553l-.268.134-1.004 1.256c-.72 1.975-.82 4.803.837 6.109l1.121 1.037v2.226l.184.385-.536 1.34-.602.886h.937l.302-.301 1.456-2.678v-1.138l-.1-2.008-.269-.87-.418-.118-.703-.268-.134.285-.87-1.473-.201-1.557Zm-9.69 22.846.685 1.506.703 1.105.653.619 1.69 3.08.118 1.422.519.15.452.118.518.218.067-3.381c-.15-1.356-2.058-4.168-3.715-5.423l-.82-.519h-.302v1.105ZM341.781 66.26v-.418l.335-.653c1.439-1.573 4.67-5.975 5.355-6.444l1.423-.97 1.138-1.406 1.34-.552.334 1.171.318 9.841s-2.661-.435-5.34-.569c-2.46-.117-4.903 0-4.903 0m28.185 13.105v.553l-.234-.05-.62-.787.402.184Zm-99.903 37.14.502-.352-.335.787-.234.05Zm69.157 7.598-.569-.703.787.352.05.485Zm3.13 6.545-.285-2.227.168-.1.033-.368-.2-.92h.853l.117 1.824-.268 1.506Zm-92.857 11.699v-.436l.57-.535.284-.134-.067.77-.134.134Zm2.846.569h-.57l.05-.235.319-.25.2-.084Zm88.638 11.465.804-.318-.352.485-.502.067Zm-128.79 42.595-.285.402-.57.167v-.452l.57-.535.285-.134Zm-68.89 63.316.804-.318-.335.485-.52.067Z" fill-rule="evenodd"/></g></svg>