<?xml version="1.0" encoding="UTF-8" standalone="no"?>
<svg
   xmlns:dc="http://purl.org/dc/elements/1.1/"
   xmlns:cc="http://creativecommons.org/ns#"
   xmlns:rdf="http://www.w3.org/1999/02/22-rdf-syntax-ns#"
   xmlns:svg="http://www.w3.org/2000/svg"
   xmlns="http://www.w3.org/2000/svg"
   viewBox="0 0 816 1056"
   height="1056"
   width="816"
   xml:space="preserve"
   id="svg2"
   version="1.1"><metadata
     id="metadata8"><rdf:RDF><cc:Work
         rdf:about=""><dc:format>image/svg+xml</dc:format><dc:type
           rdf:resource="http://purl.org/dc/dcmitype/StillImage" /></cc:Work></rdf:RDF></metadata><defs
     id="defs6"><clipPath
       id="clipPath18"
       clipPathUnits="userSpaceOnUse"><path
         id="path16"
         d="m 680.299,1242.721 h 34.121 v 41.374 h -34.121 z" /></clipPath><clipPath
       id="clipPath30"
       clipPathUnits="userSpaceOnUse"><path
         id="path28"
         d="m 680.299,1242.721 h 34.121 v 41.374 h -34.121 z" /></clipPath><clipPath
       id="clipPath42"
       clipPathUnits="userSpaceOnUse"><path
         id="path40"
         d="m 680.299,1242.721 h 34.121 v 41.374 h -34.121 z" /></clipPath><clipPath
       id="clipPath54"
       clipPathUnits="userSpaceOnUse"><path
         id="path52"
         d="m 680.299,1242.721 h 34.121 v 41.374 h -34.121 z" /></clipPath><clipPath
       id="clipPath66"
       clipPathUnits="userSpaceOnUse"><path
         id="path64"
         d="m 680.299,1242.721 h 34.121 v 41.374 h -34.121 z" /></clipPath><clipPath
       id="clipPath78"
       clipPathUnits="userSpaceOnUse"><path
         id="path76"
         d="m 680.299,1242.721 h 34.121 v 41.374 h -34.121 z" /></clipPath><clipPath
       id="clipPath90"
       clipPathUnits="userSpaceOnUse"><path
         id="path88"
         d="m 680.299,1242.721 h 34.121 v 41.374 h -34.121 z" /></clipPath><clipPath
       id="clipPath102"
       clipPathUnits="userSpaceOnUse"><path
         id="path100"
         d="m 680.299,1242.721 h 34.121 v 41.374 h -34.121 z" /></clipPath><clipPath
       id="clipPath114"
       clipPathUnits="userSpaceOnUse"><path
         id="path112"
         d="m 680.299,1242.721 h 34.121 v 41.374 h -34.121 z" /></clipPath><clipPath
       id="clipPath126"
       clipPathUnits="userSpaceOnUse"><path
         id="path124"
         d="m 680.299,1242.721 h 34.121 v 41.374 h -34.121 z" /></clipPath><clipPath
       id="clipPath138"
       clipPathUnits="userSpaceOnUse"><path
         id="path136"
         d="m 680.299,1242.721 h 34.121 v 41.374 h -34.121 z" /></clipPath><clipPath
       id="clipPath150"
       clipPathUnits="userSpaceOnUse"><path
         id="path148"
         d="m 680.299,1242.721 h 34.121 v 41.374 h -34.121 z" /></clipPath><clipPath
       id="clipPath162"
       clipPathUnits="userSpaceOnUse"><path
         id="path160"
         d="m 680.299,1242.721 h 34.121 v 41.374 h -34.121 z" /></clipPath><clipPath
       id="clipPath174"
       clipPathUnits="userSpaceOnUse"><path
         id="path172"
         d="m 680.299,1242.721 h 34.121 v 41.374 h -34.121 z" /></clipPath><clipPath
       id="clipPath186"
       clipPathUnits="userSpaceOnUse"><path
         id="path184"
         d="m 680.299,1242.721 h 34.121 v 41.374 h -34.121 z" /></clipPath><clipPath
       id="clipPath198"
       clipPathUnits="userSpaceOnUse"><path
         id="path196"
         d="m 680.299,1242.721 h 34.121 v 41.374 h -34.121 z" /></clipPath><clipPath
       id="clipPath210"
       clipPathUnits="userSpaceOnUse"><path
         id="path208"
         d="m 680.299,1242.721 h 34.121 v 41.374 h -34.121 z" /></clipPath><clipPath
       id="clipPath222"
       clipPathUnits="userSpaceOnUse"><path
         id="path220"
         d="m 680.299,1242.721 h 34.121 v 41.374 h -34.121 z" /></clipPath><clipPath
       id="clipPath234"
       clipPathUnits="userSpaceOnUse"><path
         id="path232"
         d="m 680.299,1242.721 h 34.121 v 41.374 h -34.121 z" /></clipPath><clipPath
       id="clipPath244"
       clipPathUnits="userSpaceOnUse"><path
         id="path242"
         d="m 680.299,1242.721 h 34.121 v 41.374 h -34.121 z" /></clipPath><clipPath
       id="clipPath256"
       clipPathUnits="userSpaceOnUse"><path
         id="path254"
         d="m 680.299,1242.721 h 34.121 v 41.374 h -34.121 z" /></clipPath><clipPath
       id="clipPath268"
       clipPathUnits="userSpaceOnUse"><path
         id="path266"
         d="m 680.299,1242.721 h 34.121 v 41.374 h -34.121 z" /></clipPath><clipPath
       id="clipPath280"
       clipPathUnits="userSpaceOnUse"><path
         id="path278"
         d="m 680.299,1242.721 h 34.121 v 41.374 h -34.121 z" /></clipPath><clipPath
       id="clipPath292"
       clipPathUnits="userSpaceOnUse"><path
         id="path290"
         d="m 680.299,1242.721 h 34.121 v 41.374 h -34.121 z" /></clipPath><clipPath
       id="clipPath304"
       clipPathUnits="userSpaceOnUse"><path
         id="path302"
         d="m 680.299,1242.721 h 34.121 v 41.374 h -34.121 z" /></clipPath><clipPath
       id="clipPath316"
       clipPathUnits="userSpaceOnUse"><path
         id="path314"
         d="m 680.299,1242.721 h 34.121 v 41.374 h -34.121 z" /></clipPath><clipPath
       id="clipPath328"
       clipPathUnits="userSpaceOnUse"><path
         id="path326"
         d="m 680.299,1242.721 h 34.121 v 41.374 h -34.121 z" /></clipPath><clipPath
       id="clipPath340"
       clipPathUnits="userSpaceOnUse"><path
         id="path338"
         d="m 680.299,1242.721 h 34.121 v 41.374 h -34.121 z" /></clipPath><clipPath
       id="clipPath352"
       clipPathUnits="userSpaceOnUse"><path
         id="path350"
         d="m 680.299,1242.721 h 34.121 v 41.374 h -34.121 z" /></clipPath><clipPath
       id="clipPath364"
       clipPathUnits="userSpaceOnUse"><path
         id="path362"
         d="m 680.299,1242.721 h 34.121 v 41.374 h -34.121 z" /></clipPath><clipPath
       id="clipPath376"
       clipPathUnits="userSpaceOnUse"><path
         id="path374"
         d="m 680.299,1242.721 h 34.121 v 41.374 h -34.121 z" /></clipPath><clipPath
       id="clipPath388"
       clipPathUnits="userSpaceOnUse"><path
         id="path386"
         d="m 680.299,1242.721 h 34.121 v 41.374 h -34.121 z" /></clipPath><clipPath
       id="clipPath400"
       clipPathUnits="userSpaceOnUse"><path
         id="path398"
         d="m 680.299,1242.721 h 34.121 v 41.374 h -34.121 z" /></clipPath><clipPath
       id="clipPath412"
       clipPathUnits="userSpaceOnUse"><path
         id="path410"
         d="m 680.299,1242.721 h 34.121 v 41.374 h -34.121 z" /></clipPath><clipPath
       id="clipPath424"
       clipPathUnits="userSpaceOnUse"><path
         id="path422"
         d="m 680.299,1242.721 h 34.121 v 41.374 h -34.121 z" /></clipPath><clipPath
       id="clipPath436"
       clipPathUnits="userSpaceOnUse"><path
         id="path434"
         d="m 680.299,1242.721 h 34.121 v 41.374 h -34.121 z" /></clipPath><clipPath
       id="clipPath448"
       clipPathUnits="userSpaceOnUse"><path
         id="path446"
         d="m 680.299,1242.721 h 34.121 v 41.374 h -34.121 z" /></clipPath><clipPath
       id="clipPath460"
       clipPathUnits="userSpaceOnUse"><path
         id="path458"
         d="m 680.299,1242.721 h 34.121 v 41.374 h -34.121 z" /></clipPath><clipPath
       id="clipPath472"
       clipPathUnits="userSpaceOnUse"><path
         id="path470"
         d="m 680.299,1242.721 h 34.121 v 41.374 h -34.121 z" /></clipPath><clipPath
       id="clipPath484"
       clipPathUnits="userSpaceOnUse"><path
         id="path482"
         d="m 680.299,1242.721 h 34.121 v 41.374 h -34.121 z" /></clipPath><clipPath
       id="clipPath496"
       clipPathUnits="userSpaceOnUse"><path
         id="path494"
         d="m 680.299,1242.721 h 34.121 v 41.374 h -34.121 z" /></clipPath><clipPath
       id="clipPath508"
       clipPathUnits="userSpaceOnUse"><path
         id="path506"
         d="m 680.299,1242.721 h 34.121 v 41.374 h -34.121 z" /></clipPath><clipPath
       id="clipPath520"
       clipPathUnits="userSpaceOnUse"><path
         id="path518"
         d="m 680.299,1242.721 h 34.121 v 41.374 h -34.121 z" /></clipPath><clipPath
       id="clipPath532"
       clipPathUnits="userSpaceOnUse"><path
         id="path530"
         d="m 680.299,1242.721 h 34.121 v 41.374 h -34.121 z" /></clipPath><clipPath
       id="clipPath544"
       clipPathUnits="userSpaceOnUse"><path
         id="path542"
         d="m 680.299,1242.721 h 34.121 v 41.374 h -34.121 z" /></clipPath><clipPath
       id="clipPath554"
       clipPathUnits="userSpaceOnUse"><path
         id="path552"
         d="m 680.299,1242.721 h 34.121 v 41.374 h -34.121 z" /></clipPath><clipPath
       id="clipPath564"
       clipPathUnits="userSpaceOnUse"><path
         id="path562"
         d="m 680.299,1242.721 h 34.121 v 41.374 h -34.121 z" /></clipPath><clipPath
       id="clipPath576"
       clipPathUnits="userSpaceOnUse"><path
         id="path574"
         d="m 680.299,1242.721 h 34.121 v 41.374 h -34.121 z" /></clipPath><clipPath
       id="clipPath588"
       clipPathUnits="userSpaceOnUse"><path
         id="path586"
         d="m 680.299,1242.721 h 34.121 v 41.374 h -34.121 z" /></clipPath><clipPath
       id="clipPath600"
       clipPathUnits="userSpaceOnUse"><path
         id="path598"
         d="m 680.299,1242.721 h 34.121 v 41.374 h -34.121 z" /></clipPath><clipPath
       id="clipPath612"
       clipPathUnits="userSpaceOnUse"><path
         id="path610"
         d="m 680.299,1242.721 h 34.121 v 41.374 h -34.121 z" /></clipPath></defs><g
     transform="matrix(1.3333333,0,0,-1.3333333,0,1056)"
     id="g10"><g
       transform="matrix(17.46817,0,0,17.46817,-11876.931,-21656.738)"
       id="g12"><g
         clip-path="url(#clipPath18)"
         id="g14"><g
           transform="translate(681.40874,1282.9829)"
           id="g20"><path
             id="path22"
             style="fill:#1478c7;fill-opacity:1;fill-rule:evenodd;stroke:none"
             d="m 0,0 h 31.902 v -20.207 c 0,-0.948 -0.148,-1.895 -0.294,-2.833 -0.169,-0.875 -0.36,-1.724 -0.589,-2.586 -0.723,-2.357 -1.676,-4.374 -3.155,-6.352 -0.479,-0.582 -0.963,-1.119 -1.494,-1.654 -3.028,-2.787 -6.477,-4.656 -10.433,-5.493 -3.922,0.83 -7.343,2.814 -10.434,5.493 -1.681,1.696 -2.854,3.478 -3.825,5.656 -0.644,1.623 -1.084,3.222 -1.412,4.936 C 0.13,-22.075 0,-21.195 0,-20.222 V 0" /></g></g></g><g
       transform="matrix(17.46817,0,0,17.46817,-11876.931,-21656.738)"
       id="g24"><g
         clip-path="url(#clipPath30)"
         id="g26"><g
           transform="translate(681.40874,1282.9829)"
           id="g32"><path
             id="path34"
             style="fill:none;stroke:#231f20;stroke-width:0.145;stroke-linecap:butt;stroke-linejoin:miter;stroke-miterlimit:22.9260006;stroke-dasharray:none;stroke-opacity:1"
             d="m 0,0 h 31.902 v -20.207 c 0,-0.948 -0.148,-1.895 -0.294,-2.833 -0.169,-0.875 -0.36,-1.724 -0.589,-2.586 -0.723,-2.357 -1.676,-4.374 -3.155,-6.352 -0.479,-0.582 -0.963,-1.119 -1.494,-1.654 -3.029,-2.787 -6.477,-4.656 -10.433,-5.493 -3.922,0.83 -7.343,2.814 -10.434,5.493 -1.681,1.696 -2.854,3.478 -3.825,5.656 -0.644,1.623 -1.084,3.222 -1.412,4.936 C 0.13,-22.075 0,-21.195 0,-20.222 Z" /></g></g></g><g
       transform="matrix(17.46817,0,0,17.46817,-11876.931,-21656.738)"
       id="g36"><g
         clip-path="url(#clipPath42)"
         id="g38"><g
           transform="translate(694.48428,1256.3763)"
           id="g44"><path
             id="path46"
             style="fill:#00a650;fill-opacity:1;fill-rule:evenodd;stroke:none"
             d="m 0,0 c -3.61,-0.581 -7.121,-1.456 -10.484,-3.148 0.677,-1.008 1.323,-2.03 2.001,-3.039 3.223,-3.166 7.053,-5.122 11.22,-6.396 4.102,1.016 7.824,2.837 11.137,6.22 0.914,0.899 1.682,2.133 2.374,3.223 -3.205,1.578 -6.73,2.497 -10.406,3.1 L 0,0" /></g></g></g><g
       transform="matrix(17.46817,0,0,17.46817,-11876.931,-21656.738)"
       id="g48"><g
         clip-path="url(#clipPath54)"
         id="g50"><g
           transform="translate(688.97756,1270.3083)"
           id="g56"><path
             id="path58"
             style="fill:none;stroke:#231f20;stroke-width:0.104;stroke-linecap:butt;stroke-linejoin:miter;stroke-miterlimit:22.9260006;stroke-dasharray:none;stroke-opacity:1"
             d="M 0,0 H 4.687" /></g></g></g><g
       transform="matrix(17.46817,0,0,17.46817,-11876.931,-21656.738)"
       id="g60"><g
         clip-path="url(#clipPath66)"
         id="g62"><g
           transform="translate(691.35831,1270.291)"
           id="g68"><path
             id="path70"
             style="fill:#ed1c24;fill-opacity:1;fill-rule:evenodd;stroke:none"
             d="M 0,0 H 2.034 C 2.034,1.069 1.123,1.935 0,1.935 -1.121,1.935 -2.031,1.069 -2.031,0 H 0" /></g></g></g><g
       transform="matrix(17.46817,0,0,17.46817,-11876.931,-21656.738)"
       id="g72"><g
         clip-path="url(#clipPath78)"
         id="g74"><g
           transform="translate(691.35831,1270.291)"
           id="g80"><path
             id="path82"
             style="fill:none;stroke:#231f20;stroke-width:0.104;stroke-linecap:butt;stroke-linejoin:miter;stroke-miterlimit:22.9260006;stroke-dasharray:none;stroke-opacity:1"
             d="M 0,0 H 2.034 C 2.034,1.069 1.123,1.935 0,1.935 -1.121,1.935 -2.031,1.069 -2.031,0 Z" /></g></g></g><g
       transform="matrix(17.46817,0,0,17.46817,-11876.931,-21656.738)"
       id="g84"><g
         clip-path="url(#clipPath90)"
         id="g86"><g
           transform="translate(680.88968,1283.5023)"
           id="g92"><path
             id="path94"
             style="fill:#fff200;fill-opacity:1;fill-rule:evenodd;stroke:none"
             d="m 0,0 h 32.94 v -20.82 l -0.002,-0.095 -0.002,-0.094 -0.003,-0.093 -0.004,-0.093 -0.005,-0.092 -0.005,-0.093 -0.007,-0.093 -0.005,-0.092 -0.007,-0.093 -0.009,-0.091 -0.008,-0.092 -0.009,-0.092 -0.01,-0.092 -0.01,-0.091 -0.009,-0.092 -0.012,-0.09 -0.011,-0.091 -0.012,-0.09 -0.012,-0.091 -0.012,-0.09 -0.012,-0.09 -0.013,-0.09 -0.014,-0.089 -0.012,-0.09 -0.014,-0.09 -0.012,-0.088 -0.016,-0.089 -0.012,-0.089 -0.013,-0.088 -0.016,-0.088 -0.014,-0.097 -0.017,-0.092 -0.017,-0.084 -0.017,-0.082 -0.016,-0.083 -0.015,-0.082 -0.018,-0.083 -0.017,-0.081 -0.017,-0.083 -0.017,-0.082 -0.017,-0.081 -0.018,-0.083 -0.019,-0.081 -0.017,-0.082 -0.019,-0.082 -0.017,-0.082 -0.019,-0.081 -0.017,-0.082 -0.021,-0.082 -0.019,-0.081 -0.019,-0.081 -0.018,-0.083 -0.021,-0.081 -0.019,-0.081 -0.021,-0.082 -0.02,-0.082 -0.019,-0.081 -0.021,-0.082 -0.021,-0.081 -0.022,-0.083 -0.021,-0.081 -0.022,-0.081 -0.024,-0.093 -0.072,-0.233 -0.071,-0.222 -0.074,-0.221 -0.074,-0.218 -0.076,-0.218 -0.077,-0.215 -0.079,-0.213 -0.081,-0.213 -0.083,-0.21 -0.086,-0.21 -0.086,-0.208 -0.09,-0.207 -0.091,-0.206 -0.095,-0.203 -0.094,-0.204 -0.097,-0.202 -0.101,-0.201 -0.102,-0.2 -0.105,-0.199 -0.108,-0.197 -0.109,-0.198 -0.112,-0.195 -0.115,-0.196 -0.117,-0.194 -0.12,-0.195 -0.124,-0.193 -0.126,-0.192 -0.127,-0.192 -0.133,-0.192 -0.135,-0.191 -0.139,-0.192 -0.146,-0.198 -0.053,-0.066 -0.047,-0.055 -0.045,-0.055 -0.046,-0.055 -0.047,-0.054 -0.045,-0.055 -0.046,-0.054 -0.046,-0.054 -0.048,-0.054 -0.046,-0.053 -0.046,-0.053 -0.048,-0.054 -0.046,-0.053 -0.047,-0.052 -0.048,-0.053 -0.047,-0.053 -0.048,-0.052 -0.046,-0.053 -0.049,-0.051 -0.048,-0.053 -0.048,-0.051 -0.047,-0.052 -0.049,-0.051 -0.05,-0.053 -0.048,-0.051 -0.05,-0.052 -0.048,-0.052 -0.05,-0.051 -0.05,-0.05 -0.05,-0.052 -0.052,-0.051 -0.058,-0.061 -0.298,-0.271 -0.295,-0.258 -0.296,-0.253 -0.299,-0.248 -0.301,-0.241 -0.304,-0.236 -0.307,-0.231 -0.31,-0.225 -0.313,-0.22 -0.314,-0.215 -0.318,-0.208 -0.32,-0.201 -0.324,-0.198 -0.326,-0.191 -0.328,-0.185 -0.333,-0.179 -0.335,-0.175 -0.337,-0.168 -0.34,-0.162 -0.343,-0.156 -0.347,-0.151 -0.349,-0.144 -0.352,-0.139 -0.353,-0.131 -0.359,-0.127 -0.36,-0.119 -0.363,-0.115 -0.367,-0.108 -0.368,-0.102 -0.373,-0.097 -0.376,-0.09 -0.485,-0.106 -0.484,0.106 -0.372,0.092 -0.37,0.097 -0.367,0.102 -0.365,0.111 -0.361,0.117 -0.357,0.123 -0.356,0.129 -0.353,0.136 -0.349,0.142 -0.348,0.147 -0.344,0.154 -0.341,0.16 -0.339,0.165 -0.336,0.171 -0.333,0.176 -0.33,0.181 -0.329,0.189 -0.326,0.192 -0.323,0.198 -0.32,0.203 -0.318,0.207 -0.316,0.213 -0.313,0.218 -0.31,0.223 -0.309,0.226 -0.307,0.232 -0.304,0.236 -0.301,0.24 -0.299,0.244 -0.299,0.249 -0.309,0.266 -0.175,0.178 -0.157,0.164 -0.154,0.164 -0.152,0.166 -0.149,0.167 -0.145,0.167 -0.144,0.168 -0.141,0.169 -0.138,0.17 -0.135,0.171 -0.134,0.172 -0.13,0.173 -0.13,0.176 -0.126,0.177 -0.124,0.177 -0.121,0.178 -0.12,0.181 -0.117,0.182 -0.116,0.183 -0.113,0.184 -0.112,0.187 -0.109,0.187 -0.108,0.19 -0.105,0.191 -0.104,0.194 -0.103,0.195 -0.1,0.198 -0.1,0.198 -0.098,0.202 -0.096,0.203 -0.096,0.205 -0.098,0.217 -0.064,0.165 -0.06,0.156 -0.059,0.155 -0.057,0.155 -0.057,0.155 -0.055,0.154 -0.054,0.155 -0.052,0.155 -0.052,0.156 -0.051,0.154 -0.05,0.155 -0.048,0.156 -0.048,0.156 -0.047,0.155 -0.045,0.156 -0.045,0.156 -0.045,0.156 -0.041,0.157 -0.043,0.157 -0.042,0.157 -0.039,0.158 -0.04,0.158 -0.038,0.157 -0.038,0.16 -0.036,0.158 -0.036,0.16 -0.036,0.16 -0.035,0.16 -0.033,0.161 -0.032,0.162 -0.033,0.162 -0.035,0.175 -0.014,0.105 -0.012,0.089 -0.013,0.09 -0.012,0.088 -0.013,0.09 -0.012,0.089 -0.012,0.089 -0.012,0.088 -0.012,0.088 -0.011,0.089 -0.012,0.088 -0.01,0.089 -0.011,0.089 -0.011,0.088 -0.009,0.089 -0.01,0.089 -0.009,0.089 -0.01,0.089 -0.008,0.089 -0.009,0.09 -0.007,0.091 -0.007,0.09 -0.006,0.091 -0.006,0.091 -0.006,0.092 -0.004,0.092 -0.005,0.092 -0.003,0.094 -0.003,0.093 -0.002,0.094 L 0,-20.836 Z m -0.519,0.519 h 33.977 v -21.249 -0.095 l -0.002,-0.099 -0.002,-0.099 -0.003,-0.097 -0.004,-0.098 -0.005,-0.096 -0.005,-0.097 -0.005,-0.096 -0.009,-0.098 -0.007,-0.095 -0.008,-0.095 -0.009,-0.095 -0.008,-0.095 -0.011,-0.094 -0.01,-0.095 -0.01,-0.093 -0.011,-0.094 -0.012,-0.093 -0.014,-0.092 -0.01,-0.093 -0.012,-0.091 -0.014,-0.093 -0.014,-0.091 -0.012,-0.091 -0.013,-0.09 -0.014,-0.09 -0.014,-0.09 -0.014,-0.09 -0.013,-0.089 -0.012,-0.089 -0.016,-0.089 -0.017,-0.105 -0.019,-0.102 -0.016,-0.084 -0.015,-0.083 -0.017,-0.084 -0.018,-0.084 -0.017,-0.082 -0.017,-0.084 -0.017,-0.084 -0.017,-0.083 -0.018,-0.083 -0.017,-0.083 -0.019,-0.083 -0.019,-0.083 -0.019,-0.082 -0.017,-0.083 -0.019,-0.083 -0.019,-0.084 -0.019,-0.082 -0.019,-0.083 -0.02,-0.082 -0.019,-0.083 -0.019,-0.083 -0.021,-0.082 -0.02,-0.083 -0.021,-0.084 -0.021,-0.083 -0.02,-0.082 -0.023,-0.083 -0.02,-0.082 -0.021,-0.083 -0.022,-0.083 -0.028,-0.103 -0.076,-0.245 -0.072,-0.228 -0.074,-0.224 -0.077,-0.223 -0.078,-0.222 -0.079,-0.22 -0.081,-0.218 -0.083,-0.218 -0.086,-0.215 -0.088,-0.214 -0.087,-0.214 -0.093,-0.212 -0.093,-0.211 -0.095,-0.209 -0.096,-0.209 -0.102,-0.207 -0.103,-0.205 -0.105,-0.205 -0.109,-0.205 -0.11,-0.204 -0.112,-0.202 -0.115,-0.2 -0.119,-0.202 -0.12,-0.199 -0.123,-0.199 -0.126,-0.199 -0.129,-0.198 -0.132,-0.197 -0.134,-0.196 -0.14,-0.196 -0.141,-0.196 -0.157,-0.213 -0.063,-0.076 -0.047,-0.057 -0.046,-0.056 -0.047,-0.056 -0.047,-0.055 -0.047,-0.056 -0.048,-0.056 -0.047,-0.055 -0.046,-0.054 -0.048,-0.054 -0.049,-0.056 -0.048,-0.053 -0.046,-0.055 -0.05,-0.054 -0.047,-0.053 -0.048,-0.055 -0.049,-0.053 -0.049,-0.054 -0.048,-0.052 -0.049,-0.054 -0.049,-0.053 -0.05,-0.052 -0.049,-0.053 -0.051,-0.054 -0.05,-0.052 -0.05,-0.053 -0.05,-0.051 -0.051,-0.053 -0.05,-0.053 -0.052,-0.052 -0.051,-0.052 -0.071,-0.072 -0.312,-0.282 -0.299,-0.263 -0.302,-0.259 -0.304,-0.253 -0.308,-0.246 -0.312,-0.242 -0.312,-0.235 -0.318,-0.23 -0.318,-0.225 -0.322,-0.218 -0.325,-0.213 -0.328,-0.207 -0.33,-0.202 -0.334,-0.196 -0.336,-0.19 -0.34,-0.183 -0.343,-0.178 -0.345,-0.173 -0.349,-0.165 -0.351,-0.16 -0.355,-0.154 -0.356,-0.148 -0.36,-0.143 -0.365,-0.134 -0.366,-0.13 -0.369,-0.123 -0.372,-0.117 -0.375,-0.11 -0.379,-0.104 -0.38,-0.099 -0.384,-0.091 -0.602,-0.133 -0.601,0.133 -0.382,0.091 -0.379,0.101 -0.377,0.106 -0.374,0.113 -0.37,0.12 -0.367,0.126 -0.364,0.132 -0.361,0.139 -0.358,0.146 -0.355,0.15 -0.353,0.159 -0.35,0.162 -0.346,0.17 -0.343,0.174 -0.342,0.181 -0.337,0.185 -0.335,0.192 -0.333,0.196 -0.33,0.202 -0.327,0.207 -0.324,0.212 -0.322,0.217 -0.318,0.223 -0.318,0.226 -0.313,0.23 -0.313,0.236 -0.308,0.24 -0.307,0.245 -0.305,0.248 -0.301,0.253 -0.331,0.283 -0.191,0.195 -0.162,0.167 -0.158,0.17 -0.155,0.171 -0.154,0.171 -0.149,0.17 -0.148,0.173 -0.144,0.174 -0.143,0.176 -0.139,0.176 -0.137,0.176 -0.135,0.18 -0.132,0.179 -0.13,0.181 -0.127,0.183 -0.126,0.184 -0.123,0.185 -0.121,0.187 -0.118,0.189 -0.117,0.189 -0.115,0.192 -0.112,0.193 -0.11,0.194 -0.109,0.197 -0.106,0.198 -0.106,0.201 -0.103,0.201 -0.102,0.204 -0.1,0.205 -0.098,0.209 -0.097,0.209 -0.104,0.231 -0.071,0.18 -0.061,0.158 -0.059,0.158 -0.059,0.158 -0.058,0.158 -0.056,0.157 -0.055,0.158 -0.054,0.16 -0.052,0.158 -0.052,0.157 -0.052,0.158 -0.049,0.158 -0.048,0.16 -0.049,0.159 -0.046,0.158 -0.046,0.159 -0.044,0.16 -0.044,0.16 -0.042,0.159 -0.042,0.16 -0.042,0.161 -0.04,0.16 -0.039,0.162 -0.038,0.161 -0.037,0.162 -0.037,0.162 -0.035,0.164 -0.036,0.162 -0.034,0.164 -0.033,0.164 -0.034,0.164 -0.035,0.19 -0.017,0.118 -0.013,0.089 -0.012,0.089 -0.014,0.089 -0.011,0.09 -0.013,0.09 -0.011,0.089 -0.014,0.089 -0.01,0.09 -0.012,0.09 -0.012,0.089 -0.011,0.092 -0.01,0.089 -0.011,0.091 -0.011,0.091 -0.01,0.091 -0.009,0.092 -0.01,0.091 -0.009,0.092 -0.008,0.094 -0.008,0.093 -0.007,0.093 -0.007,0.094 -0.007,0.096 -0.004,0.094 -0.005,0.096 -0.005,0.097 -0.004,0.097 -0.002,0.096 -0.002,0.099 -0.002,0.099 z" /></g></g></g><g
       transform="matrix(17.46817,0,0,17.46817,-11876.931,-21656.738)"
       id="g96"><g
         clip-path="url(#clipPath102)"
         id="g98"><g
           transform="translate(680.88968,1283.5023)"
           id="g104"><path
             id="path106"
             style="fill:none;stroke:#231f20;stroke-width:0.145;stroke-linecap:butt;stroke-linejoin:miter;stroke-miterlimit:22.9260006;stroke-dasharray:none;stroke-opacity:1"
             d="m 0,0 h 32.94 v -20.821 l -0.002,-0.095 -0.002,-0.093 -0.003,-0.093 -0.004,-0.094 -0.005,-0.092 -0.005,-0.093 -0.007,-0.092 -0.005,-0.093 -0.007,-0.092 -0.009,-0.092 -0.008,-0.091 -0.009,-0.092 -0.01,-0.092 -0.01,-0.092 -0.009,-0.091 -0.012,-0.091 -0.012,-0.09 -0.011,-0.09 -0.012,-0.091 -0.012,-0.09 -0.012,-0.09 -0.013,-0.09 -0.014,-0.089 -0.012,-0.09 -0.014,-0.09 -0.012,-0.088 -0.016,-0.089 -0.012,-0.089 -0.013,-0.088 -0.014,-0.089 -0.016,-0.097 -0.017,-0.091 -0.017,-0.084 -0.017,-0.082 -0.016,-0.083 -0.015,-0.082 -0.018,-0.083 -0.017,-0.082 -0.017,-0.082 -0.017,-0.083 -0.017,-0.081 -0.018,-0.083 -0.019,-0.081 -0.017,-0.081 -0.017,-0.083 -0.019,-0.081 -0.019,-0.082 -0.017,-0.082 -0.021,-0.081 -0.019,-0.082 -0.019,-0.081 -0.018,-0.082 -0.021,-0.081 -0.019,-0.081 -0.021,-0.083 -0.02,-0.081 -0.019,-0.082 -0.021,-0.081 -0.021,-0.081 -0.02,-0.083 -0.023,-0.081 -0.022,-0.082 -0.024,-0.092 -0.072,-0.233 -0.071,-0.222 -0.074,-0.221 -0.074,-0.218 -0.076,-0.218 -0.077,-0.216 -0.079,-0.212 -0.081,-0.214 -0.083,-0.21 -0.086,-0.21 -0.086,-0.208 -0.09,-0.207 -0.091,-0.206 -0.093,-0.203 -0.096,-0.204 -0.097,-0.202 -0.101,-0.201 -0.102,-0.199 -0.105,-0.199 -0.108,-0.198 -0.109,-0.197 -0.112,-0.196 -0.115,-0.196 -0.117,-0.193 -0.12,-0.196 -0.124,-0.193 -0.126,-0.192 -0.127,-0.191 -0.133,-0.193 -0.135,-0.19 -0.139,-0.192 -0.146,-0.198 -0.054,-0.066 -0.046,-0.056 -0.045,-0.054 -0.046,-0.055 -0.046,-0.054 -0.047,-0.055 -0.045,-0.054 -0.046,-0.054 -0.048,-0.054 -0.046,-0.054 -0.047,-0.052 -0.047,-0.054 -0.046,-0.053 -0.047,-0.052 -0.048,-0.054 -0.047,-0.052 -0.048,-0.053 -0.048,-0.053 -0.047,-0.05 -0.048,-0.054 -0.048,-0.05 -0.048,-0.052 -0.048,-0.052 -0.05,-0.052 -0.048,-0.052 -0.049,-0.051 -0.049,-0.052 -0.05,-0.052 -0.05,-0.05 -0.051,-0.051 -0.051,-0.052 -0.058,-0.06 -0.299,-0.271 -0.294,-0.259 -0.296,-0.253 -0.299,-0.247 -0.301,-0.241 -0.304,-0.236 -0.307,-0.231 -0.309,-0.225 -0.314,-0.22 -0.314,-0.215 -0.318,-0.208 -0.32,-0.202 -0.324,-0.198 -0.326,-0.19 -0.328,-0.186 -0.333,-0.179 -0.335,-0.174 -0.337,-0.168 -0.34,-0.162 -0.343,-0.157 -0.347,-0.151 -0.349,-0.143 -0.352,-0.139 -0.354,-0.131 -0.358,-0.127 -0.36,-0.12 -0.363,-0.115 -0.367,-0.108 -0.368,-0.101 -0.373,-0.097 -0.376,-0.09 -0.485,-0.107 -0.484,0.107 -0.372,0.091 -0.37,0.097 -0.367,0.102 -0.365,0.112 -0.361,0.116 -0.357,0.124 -0.356,0.129 -0.353,0.136 -0.349,0.141 -0.348,0.148 -0.344,0.154 -0.341,0.159 -0.339,0.165 -0.336,0.171 -0.333,0.176 -0.33,0.182 -0.329,0.188 -0.326,0.193 -0.323,0.197 -0.32,0.204 -0.318,0.207 -0.316,0.213 -0.313,0.218 -0.31,0.222 -0.309,0.226 -0.307,0.233 -0.304,0.236 -0.301,0.24 -0.299,0.244 -0.299,0.249 -0.309,0.266 -0.175,0.178 -0.157,0.164 -0.154,0.164 -0.152,0.166 -0.149,0.166 -0.145,0.167 -0.144,0.168 -0.141,0.169 -0.138,0.171 -0.135,0.171 -0.134,0.172 -0.13,0.173 -0.13,0.176 -0.126,0.177 -0.124,0.176 -0.121,0.179 -0.12,0.18 -0.117,0.182 -0.116,0.184 -0.113,0.183 -0.112,0.187 -0.109,0.188 -0.108,0.189 -0.105,0.192 -0.104,0.194 -0.103,0.195 -0.1,0.197 -0.1,0.199 -0.098,0.201 -0.096,0.203 -0.096,0.205 -0.098,0.218 -0.064,0.165 -0.06,0.155 -0.059,0.155 -0.057,0.156 -0.057,0.154 -0.055,0.155 -0.054,0.155 -0.052,0.154 -0.052,0.156 -0.051,0.154 -0.05,0.156 -0.048,0.156 -0.048,0.155 -0.047,0.156 -0.045,0.156 -0.045,0.155 -0.045,0.156 -0.041,0.158 -0.043,0.156 -0.042,0.158 -0.039,0.157 -0.04,0.158 -0.038,0.158 -0.038,0.159 -0.036,0.159 -0.036,0.159 -0.036,0.16 -0.035,0.161 -0.033,0.16 -0.032,0.162 -0.033,0.163 -0.035,0.175 -0.014,0.104 -0.012,0.09 -0.013,0.089 -0.012,0.089 -0.013,0.09 -0.012,0.089 -0.012,0.088 -0.012,0.088 -0.012,0.089 -0.011,0.089 -0.012,0.088 -0.01,0.088 -0.011,0.089 -0.011,0.089 -0.009,0.089 -0.01,0.088 -0.009,0.09 -0.01,0.088 -0.008,0.09 -0.009,0.089 -0.007,0.092 -0.007,0.089 -0.006,0.091 -0.006,0.091 -0.006,0.093 -0.004,0.092 -0.005,0.092 -0.003,0.093 -0.003,0.093 -0.002,0.095 L 0,-20.836 Z m -0.519,0.518 h 33.977 v -21.248 -0.096 l -0.002,-0.099 -0.002,-0.098 -0.003,-0.098 -0.005,-0.097 -0.004,-0.097 -0.005,-0.097 -0.005,-0.095 -0.009,-0.098 -0.007,-0.096 -0.008,-0.095 -0.009,-0.094 -0.008,-0.095 -0.011,-0.095 -0.01,-0.095 -0.01,-0.093 -0.011,-0.093 -0.012,-0.093 -0.014,-0.093 -0.01,-0.092 -0.012,-0.091 -0.014,-0.093 -0.014,-0.091 -0.012,-0.091 -0.013,-0.091 -0.014,-0.09 -0.014,-0.09 -0.014,-0.089 -0.013,-0.09 -0.012,-0.088 -0.016,-0.09 -0.017,-0.104 -0.019,-0.102 -0.016,-0.084 -0.015,-0.083 -0.017,-0.085 -0.018,-0.083 -0.017,-0.082 -0.017,-0.084 -0.017,-0.085 -0.017,-0.082 -0.018,-0.084 -0.017,-0.082 -0.019,-0.084 -0.019,-0.083 -0.019,-0.082 -0.017,-0.083 -0.019,-0.083 -0.019,-0.083 -0.019,-0.083 -0.019,-0.082 -0.02,-0.083 -0.019,-0.082 -0.019,-0.084 -0.021,-0.081 -0.02,-0.083 -0.021,-0.084 -0.021,-0.083 -0.02,-0.082 -0.023,-0.083 -0.02,-0.082 -0.021,-0.084 -0.022,-0.083 -0.028,-0.102 -0.076,-0.246 -0.072,-0.227 -0.076,-0.224 -0.075,-0.224 -0.078,-0.221 -0.079,-0.221 -0.081,-0.218 -0.083,-0.218 -0.086,-0.215 -0.088,-0.214 -0.087,-0.214 -0.093,-0.212 -0.093,-0.21 -0.095,-0.21 -0.098,-0.208 -0.1,-0.207 -0.103,-0.206 -0.105,-0.205 -0.109,-0.205 -0.11,-0.203 -0.112,-0.202 -0.115,-0.201 -0.119,-0.201 -0.12,-0.2 -0.123,-0.199 -0.126,-0.199 -0.129,-0.197 -0.134,-0.198 -0.132,-0.195 -0.14,-0.197 -0.141,-0.196 -0.157,-0.212 -0.063,-0.077 -0.047,-0.056 -0.046,-0.056 -0.047,-0.056 -0.047,-0.055 -0.048,-0.057 -0.047,-0.055 -0.047,-0.055 -0.046,-0.055 -0.048,-0.054 -0.049,-0.055 -0.048,-0.053 -0.048,-0.055 -0.048,-0.054 -0.047,-0.054 -0.048,-0.054 -0.049,-0.053 -0.049,-0.054 -0.048,-0.053 -0.049,-0.053 -0.049,-0.053 -0.05,-0.052 -0.049,-0.053 -0.051,-0.054 -0.05,-0.053 -0.05,-0.053 -0.05,-0.051 -0.051,-0.053 -0.05,-0.053 -0.052,-0.052 -0.051,-0.052 -0.071,-0.071 -0.312,-0.282 -0.299,-0.263 -0.302,-0.259 -0.304,-0.253 -0.308,-0.247 -0.312,-0.241 -0.312,-0.235 -0.318,-0.23 -0.318,-0.226 -0.322,-0.217 -0.325,-0.214 -0.328,-0.207 -0.33,-0.202 -0.334,-0.196 -0.336,-0.19 -0.341,-0.182 -0.342,-0.178 -0.345,-0.173 -0.349,-0.165 -0.351,-0.161 -0.355,-0.154 -0.356,-0.147 -0.36,-0.143 -0.365,-0.135 -0.366,-0.13 -0.369,-0.122 -0.372,-0.118 -0.375,-0.11 -0.379,-0.104 -0.38,-0.098 -0.384,-0.092 -0.602,-0.133 -0.601,0.133 -0.382,0.092 -0.379,0.101 -0.377,0.105 -0.374,0.114 -0.37,0.119 -0.367,0.126 -0.364,0.133 -0.361,0.138 -0.358,0.147 -0.355,0.15 -0.353,0.159 -0.35,0.162 -0.346,0.169 -0.343,0.175 -0.342,0.18 -0.337,0.186 -0.335,0.191 -0.333,0.197 -0.33,0.202 -0.327,0.207 -0.324,0.212 -0.322,0.216 -0.318,0.223 -0.318,0.226 -0.313,0.231 -0.313,0.236 -0.308,0.239 -0.307,0.246 -0.305,0.247 -0.301,0.254 -0.331,0.283 -0.191,0.194 -0.162,0.168 -0.158,0.17 -0.155,0.17 -0.154,0.171 -0.149,0.171 -0.148,0.172 -0.144,0.175 -0.143,0.175 -0.139,0.176 -0.137,0.177 -0.135,0.18 -0.132,0.179 -0.13,0.181 -0.127,0.183 -0.126,0.183 -0.123,0.186 -0.121,0.186 -0.118,0.19 -0.117,0.188 -0.115,0.192 -0.112,0.194 -0.11,0.194 -0.109,0.197 -0.106,0.198 -0.106,0.201 -0.103,0.201 -0.102,0.203 -0.1,0.206 -0.098,0.208 -0.097,0.21 -0.104,0.231 -0.071,0.179 -0.061,0.158 -0.059,0.158 -0.059,0.158 -0.058,0.158 -0.056,0.158 -0.055,0.158 -0.054,0.16 -0.052,0.158 -0.052,0.157 -0.052,0.158 -0.049,0.158 -0.048,0.159 -0.049,0.16 -0.046,0.158 -0.046,0.159 -0.044,0.16 -0.044,0.16 -0.042,0.159 -0.042,0.16 -0.042,0.16 -0.04,0.161 -0.039,0.161 -0.038,0.162 -0.037,0.161 -0.037,0.163 -0.035,0.163 -0.036,0.163 -0.034,0.163 -0.033,0.165 -0.034,0.164 -0.035,0.19 -0.017,0.117 -0.013,0.09 -0.012,0.089 -0.014,0.089 -0.011,0.09 -0.013,0.09 -0.011,0.089 -0.014,0.089 -0.01,0.09 -0.012,0.09 -0.012,0.089 -0.011,0.091 -0.01,0.09 -0.011,0.091 -0.011,0.091 -0.01,0.091 -0.009,0.092 -0.01,0.09 -0.009,0.093 -0.008,0.094 -0.008,0.093 -0.007,0.093 -0.007,0.094 -0.007,0.095 -0.004,0.094 -0.005,0.097 -0.005,0.097 -0.004,0.096 -0.002,0.097 -0.002,0.098 -0.002,0.1 z" /></g></g></g><g
       transform="matrix(17.46817,0,0,17.46817,-11876.931,-21656.738)"
       id="g108"><g
         clip-path="url(#clipPath114)"
         id="g110"><g
           transform="translate(697.40732,1264.7198)"
           id="g116"><path
             id="path118"
             style="fill:#ffffff;fill-opacity:1;fill-rule:evenodd;stroke:none"
             d="m 0,0 -4.376,-0.876 0.291,-1.58 1.496,0.372 2.942,0.745 z" /></g></g></g><g
       transform="matrix(17.46817,0,0,17.46817,-11876.931,-21656.738)"
       id="g120"><g
         clip-path="url(#clipPath126)"
         id="g122"><g
           transform="translate(697.40732,1264.7202)"
           id="g128"><path
             id="path130"
             style="fill:none;stroke:#231f20;stroke-width:0.104;stroke-linecap:butt;stroke-linejoin:miter;stroke-miterlimit:22.9260006;stroke-dasharray:none;stroke-opacity:1"
             d="m 0,0 -4.376,-0.877 0.291,-1.579 1.496,0.372 2.942,0.744 z" /></g></g></g><g
       transform="matrix(17.46817,0,0,17.46817,-11876.931,-21656.738)"
       id="g132"><g
         clip-path="url(#clipPath138)"
         id="g134"><g
           transform="translate(689.33525,1261.2005)"
           id="g140"><path
             id="path142"
             style="fill:#ffffff;fill-opacity:1;fill-rule:evenodd;stroke:none"
             d="M 0,0 V 9.107 H 1.245 C 1.248,9.546 1.651,9.863 2.031,9.86 2.409,9.858 2.787,9.52 2.798,9.107 H 4.047 L 4.056,0.815 0,0" /></g></g></g><g
       transform="matrix(17.46817,0,0,17.46817,-11876.931,-21656.738)"
       id="g144"><g
         clip-path="url(#clipPath150)"
         id="g146"><g
           transform="translate(689.33525,1261.2005)"
           id="g152"><path
             id="path154"
             style="fill:none;stroke:#231f20;stroke-width:0.104;stroke-linecap:butt;stroke-linejoin:miter;stroke-miterlimit:22.9260006;stroke-dasharray:none;stroke-opacity:1"
             d="M 0,0 V 9.108 H 1.245 C 1.248,9.546 1.651,9.862 2.031,9.86 2.409,9.858 2.787,9.521 2.798,9.108 H 4.047 L 4.056,0.815 Z" /></g></g></g><g
       transform="matrix(17.46817,0,0,17.46817,-11876.931,-21656.738)"
       id="g156"><g
         clip-path="url(#clipPath162)"
         id="g158"><g
           transform="translate(688.49138,1260.0127)"
           id="g164"><path
             id="path166"
             style="fill:#ed1c24;fill-opacity:1;fill-rule:evenodd;stroke:none"
             d="M 0,0 5.974,1.377 5.983,2.528 0.904,1.341 Z" /></g></g></g><g
       transform="matrix(17.46817,0,0,17.46817,-11876.931,-21656.738)"
       id="g168"><g
         clip-path="url(#clipPath174)"
         id="g170"><g
           transform="translate(688.49138,1260.0127)"
           id="g176"><path
             id="path178"
             style="fill:none;stroke:#231f20;stroke-width:0.104;stroke-linecap:butt;stroke-linejoin:miter;stroke-miterlimit:22.9260006;stroke-dasharray:none;stroke-opacity:1"
             d="M 0,0 5.974,1.377 5.983,2.528 0.904,1.341 Z m 5.867,-3.658 c -3.35,-0.576 -6.579,-1.401 -9.566,-2.717 l -0.84,-0.446" /></g></g></g><g
       transform="matrix(17.46817,0,0,17.46817,-11876.931,-21656.738)"
       id="g180"><g
         clip-path="url(#clipPath186)"
         id="g182"><g
           transform="translate(706.26638,1260.1598)"
           id="g188"><path
             id="path190"
             style="fill:#ed1c24;fill-opacity:1;fill-rule:evenodd;stroke:none"
             d="m 0,0 -5.986,1.377 0.003,1.151 5.08,-1.187 z" /></g></g></g><g
       transform="matrix(17.46817,0,0,17.46817,-11876.931,-21656.738)"
       id="g192"><g
         clip-path="url(#clipPath198)"
         id="g194"><g
           transform="translate(706.26638,1260.1598)"
           id="g200"><path
             id="path202"
             style="fill:none;stroke:#231f20;stroke-width:0.104;stroke-linecap:butt;stroke-linejoin:miter;stroke-miterlimit:22.9260006;stroke-dasharray:none;stroke-opacity:1"
             d="m 0,0 -5.986,1.377 0.003,1.151 5.078,-1.187 z" /></g></g></g><g
       transform="matrix(17.46817,0,0,17.46817,-11876.931,-21656.738)"
       id="g204"><g
         clip-path="url(#clipPath210)"
         id="g206"><g
           transform="translate(698.96859,1263.387)"
           id="g212"><path
             id="path214"
             style="fill:#ed1c24;fill-opacity:1;fill-rule:evenodd;stroke:none"
             d="m 0,0 -2.972,0.543 -3.031,-0.544 3.025,3.363 z" /></g></g></g><g
       transform="matrix(17.46817,0,0,17.46817,-11876.931,-21656.738)"
       id="g216"><g
         clip-path="url(#clipPath222)"
         id="g218"><g
           transform="translate(698.96859,1263.3862)"
           id="g224"><path
             id="path226"
             style="fill:none;stroke:#231f20;stroke-width:0.104;stroke-linecap:butt;stroke-linejoin:miter;stroke-miterlimit:22.9260006;stroke-dasharray:none;stroke-opacity:1"
             d="m 0,0 -2.972,0.543 -3.031,-0.544 3.025,3.363 z" /></g></g></g><g
       transform="matrix(17.46817,0,0,17.46817,-11876.931,-21656.738)"
       id="g228"><g
         clip-path="url(#clipPath234)"
         id="g230"><path
           id="path236"
           style="fill:#ffffff;fill-opacity:1;fill-rule:evenodd;stroke:#231f20;stroke-width:0.103;stroke-linecap:butt;stroke-linejoin:miter;stroke-miterlimit:22.9260006;stroke-dasharray:none;stroke-opacity:1"
           d="m 690.695,1272.089 h 1.332 v 0.855 h -1.332 z" /></g></g><g
       transform="matrix(17.46817,0,0,17.46817,-11876.931,-21656.738)"
       id="g238"><g
         clip-path="url(#clipPath244)"
         id="g240"><g
           transform="translate(690.49081,1272.5267)"
           id="g246"><path
             id="path248"
             style="fill:#ed1c24;fill-opacity:1;fill-rule:evenodd;stroke:none"
             d="M 0,0 H 1.737 L 0.859,2.979 Z" /></g></g></g><g
       transform="matrix(17.46817,0,0,17.46817,-11876.931,-21656.738)"
       id="g250"><g
         clip-path="url(#clipPath256)"
         id="g252"><g
           transform="translate(690.49081,1272.5267)"
           id="g258"><path
             id="path260"
             style="fill:none;stroke:#231f20;stroke-width:0.104;stroke-linecap:butt;stroke-linejoin:miter;stroke-miterlimit:22.9260006;stroke-dasharray:none;stroke-opacity:1"
             d="M 0,0 H 1.737 L 0.859,2.979 Z" /></g></g></g><g
       transform="matrix(17.46817,0,0,17.46817,-11876.931,-21656.738)"
       id="g262"><g
         clip-path="url(#clipPath268)"
         id="g264"><g
           transform="translate(691.35831,1276.2087)"
           id="g270"><path
             id="path272"
             style="fill:#fff200;fill-opacity:1;fill-rule:evenodd;stroke:none"
             d="m 0,0 c 0.193,0 0.349,-0.148 0.349,-0.331 0,-0.182 -0.156,-0.33 -0.349,-0.33 -0.191,0 -0.346,0.148 -0.346,0.33 C -0.346,-0.148 -0.191,0 0,0" /></g></g></g><g
       transform="matrix(17.46817,0,0,17.46817,-11876.931,-21656.738)"
       id="g274"><g
         clip-path="url(#clipPath280)"
         id="g276"><g
           transform="translate(691.35831,1276.2092)"
           id="g282"><path
             id="path284"
             style="fill:none;stroke:#231f20;stroke-width:0.104;stroke-linecap:butt;stroke-linejoin:miter;stroke-miterlimit:22.9260006;stroke-dasharray:none;stroke-opacity:1"
             d="m 0,0 c 0.193,0 0.349,-0.148 0.349,-0.332 0,-0.181 -0.156,-0.33 -0.349,-0.33 -0.191,0 -0.346,0.149 -0.346,0.33 C -0.346,-0.148 -0.191,0 0,0 Z M 0,0 V 1.861 M -0.556,1.308 h 1.115" /></g></g></g><g
       transform="matrix(17.46817,0,0,17.46817,-11876.931,-21656.738)"
       id="g286"><g
         clip-path="url(#clipPath292)"
         id="g288"><g
           transform="translate(700.42483,1256.3547)"
           id="g294"><path
             id="path296"
             style="fill:#ffffff;fill-opacity:1;fill-rule:evenodd;stroke:none"
             d="m 0,0 c 2.852,-0.491 5.617,-1.158 8.221,-2.16 v 2.904 l -1.36,0.45 0.008,1.185 -1.544,0.399 0.011,1.14 -5.451,1.239 V 0.036 L 0,0" /></g></g></g><g
       transform="matrix(17.46817,0,0,17.46817,-11876.931,-21656.738)"
       id="g298"><g
         clip-path="url(#clipPath304)"
         id="g300"><g
           transform="translate(700.42483,1256.3547)"
           id="g306"><path
             id="path308"
             style="fill:none;stroke:#231f20;stroke-width:0.104;stroke-linecap:butt;stroke-linejoin:miter;stroke-miterlimit:22.9260006;stroke-dasharray:none;stroke-opacity:1"
             d="M 0,0 C 2.852,-0.491 5.619,-1.159 8.221,-2.16 V 0.744 L 6.863,1.194 6.869,2.379 5.325,2.778 5.336,3.918 -0.115,5.157 V 0.036 Z m -2.999,10.333 v 2.349" /></g></g></g><g
       transform="matrix(17.46817,0,0,17.46817,-11876.931,-21656.738)"
       id="g310"><g
         clip-path="url(#clipPath316)"
         id="g312"><g
           transform="translate(697.42617,1268.0985)"
           id="g318"><path
             id="path320"
             style="fill:#fff200;fill-opacity:1;fill-rule:evenodd;stroke:none"
             d="m 0,0 c 0.191,0 0.346,-0.149 0.346,-0.33 0,-0.183 -0.155,-0.331 -0.346,-0.331 -0.193,0 -0.348,0.148 -0.348,0.331 C -0.348,-0.149 -0.193,0 0,0" /></g></g></g><g
       transform="matrix(17.46817,0,0,17.46817,-11876.931,-21656.738)"
       id="g322"><g
         clip-path="url(#clipPath328)"
         id="g324"><g
           transform="translate(697.42617,1268.0981)"
           id="g330"><path
             id="path332"
             style="fill:none;stroke:#231f20;stroke-width:0.104;stroke-linecap:butt;stroke-linejoin:miter;stroke-miterlimit:22.9260006;stroke-dasharray:none;stroke-opacity:1"
             d="m 0,0 c 0.191,0 0.346,-0.148 0.346,-0.33 0,-0.183 -0.155,-0.331 -0.346,-0.331 -0.193,0 -0.348,0.148 -0.348,0.331 C -0.348,-0.148 -0.193,0 0,0 Z m 2.867,-11.716 c 3.351,-0.576 6.711,-1.428 9.699,-2.744 l 0.77,-0.466" /></g></g></g><g
       transform="matrix(17.46817,0,0,17.46817,-11876.931,-21656.738)"
       id="g334"><g
         clip-path="url(#clipPath340)"
         id="g336"><g
           transform="translate(700.26999,1258.9777)"
           id="g342"><path
             id="path344"
             style="fill:#ffffff;fill-opacity:1;fill-rule:evenodd;stroke:none"
             d="M 0,0 3.004,-0.645 3.696,-0.62 3.704,0.681 -0.048,1.5 Z" /></g></g></g><g
       transform="matrix(17.46817,0,0,17.46817,-11876.931,-21656.738)"
       id="g346"><g
         clip-path="url(#clipPath352)"
         id="g348"><g
           transform="translate(700.26999,1258.9773)"
           id="g354"><path
             id="path356"
             style="fill:none;stroke:#231f20;stroke-width:0.104;stroke-linecap:butt;stroke-linejoin:miter;stroke-miterlimit:22.9260006;stroke-dasharray:none;stroke-opacity:1"
             d="M 0,0 3.004,-0.645 3.696,-0.62 3.704,0.681 -0.048,1.5 Z" /></g></g></g><g
       transform="matrix(17.46817,0,0,17.46817,-11876.931,-21656.738)"
       id="g358"><g
         clip-path="url(#clipPath364)"
         id="g360"><g
           transform="translate(701.3459,1260.2348)"
           id="g366"><path
             id="path368"
             style="fill:none;stroke:#231f20;stroke-width:0.104;stroke-linecap:butt;stroke-linejoin:miter;stroke-miterlimit:22.9260006;stroke-dasharray:none;stroke-opacity:1"
             d="M 0,0 2.631,-0.601 M 2.63,0.462 V -4.6" /></g></g></g><g
       transform="matrix(17.46817,0,0,17.46817,-11876.931,-21656.738)"
       id="g370"><g
         clip-path="url(#clipPath376)"
         id="g372"><g
           transform="translate(694.05924,1262.4614)"
           id="g378"><path
             id="path380"
             style="fill:#ed1c24;fill-opacity:1;fill-rule:evenodd;stroke:none"
             d="M 0,0 3.375,4.321 C 4.505,2.887 5.603,1.483 6.733,0.05 4.634,0.651 2.376,0.672 0,0" /></g></g></g><g
       transform="matrix(17.46817,0,0,17.46817,-11876.931,-21656.738)"
       id="g382"><g
         clip-path="url(#clipPath388)"
         id="g384"><g
           transform="translate(694.05924,1262.4614)"
           id="g390"><path
             id="path392"
             style="fill:none;stroke:#231f20;stroke-width:0.104;stroke-linecap:butt;stroke-linejoin:miter;stroke-miterlimit:22.9260006;stroke-dasharray:none;stroke-opacity:1"
             d="M 0,0 3.375,4.32 C 4.505,2.887 5.603,1.483 6.733,0.05 4.634,0.651 2.376,0.672 0,0 Z" /></g></g></g><g
       transform="matrix(17.46817,0,0,17.46817,-11876.931,-21656.738)"
       id="g394"><g
         clip-path="url(#clipPath400)"
         id="g396"><g
           transform="translate(690.80832,1267.1637)"
           id="g402"><path
             id="path404"
             style="fill:#fff200;fill-opacity:1;fill-rule:evenodd;stroke:none"
             d="M 0,0 H 1.152 V 1.3 C 1.141,1.647 0.886,1.835 0.576,1.864 0.22,1.828 0.032,1.629 0.003,1.298 L 0,0" /></g></g></g><g
       transform="matrix(17.46817,0,0,17.46817,-11876.931,-21656.738)"
       id="g406"><g
         clip-path="url(#clipPath412)"
         id="g408"><g
           transform="translate(690.80832,1267.1633)"
           id="g414"><path
             id="path416"
             style="fill:none;stroke:#231f20;stroke-width:0.104;stroke-linecap:butt;stroke-linejoin:miter;stroke-miterlimit:22.9260006;stroke-dasharray:none;stroke-opacity:1"
             d="M 0,0 H 1.152 V 1.3 C 1.141,1.647 0.886,1.835 0.576,1.864 0.22,1.828 0.032,1.629 0.003,1.299 Z" /></g></g></g><g
       transform="matrix(17.46817,0,0,17.46817,-11876.931,-21656.738)"
       id="g418"><g
         clip-path="url(#clipPath424)"
         id="g420"><g
           transform="translate(694.36977,1256.3547)"
           id="g426"><path
             id="path428"
             style="fill:#ffffff;fill-opacity:1;fill-rule:evenodd;stroke:none"
             d="m 0,0 c -2.853,-0.491 -5.615,-1.156 -8.218,-2.158 l -0.002,2.869 1.348,0.472 0.003,1.196 1.543,0.399 v 1.009 l 5.442,1.37 V 0.036 L 0,0" /></g></g></g><g
       transform="matrix(17.46817,0,0,17.46817,-11876.931,-21656.738)"
       id="g430"><g
         clip-path="url(#clipPath436)"
         id="g432"><g
           transform="translate(694.36977,1256.3539)"
           id="g438"><path
             id="path440"
             style="fill:none;stroke:#231f20;stroke-width:0.104;stroke-linecap:butt;stroke-linejoin:miter;stroke-miterlimit:22.9260006;stroke-dasharray:none;stroke-opacity:1"
             d="m 0,0 c -2.853,-0.491 -5.615,-1.156 -8.218,-2.157 l -0.002,2.868 1.348,0.473 0.003,1.195 1.543,0.4 v 1.009 l 5.442,1.37 V 0.037 Z" /></g></g></g><g
       transform="matrix(17.46817,0,0,17.46817,-11876.931,-21656.738)"
       id="g442"><g
         clip-path="url(#clipPath448)"
         id="g444"><g
           transform="translate(700.27511,1260.5058)"
           id="g450"><path
             id="path452"
             style="fill:#1478c7;fill-opacity:1;fill-rule:evenodd;stroke:none"
             d="m 0,0 3.002,-0.693 v 0.939 l -3,0.7 z m 0.002,-1.533 2.992,-0.65 v -2.531 l -2.999,0.617 z" /></g></g></g><g
       transform="matrix(17.46817,0,0,17.46817,-11876.931,-21656.738)"
       id="g454"><g
         clip-path="url(#clipPath460)"
         id="g456"><g
           transform="translate(700.27511,1260.5055)"
           id="g462"><path
             id="path464"
             style="fill:none;stroke:#231f20;stroke-width:0.104;stroke-linecap:butt;stroke-linejoin:miter;stroke-miterlimit:22.9260006;stroke-dasharray:none;stroke-opacity:1"
             d="m 0,0 3.002,-0.693 v 0.938 l -3,0.701 z m 0.002,-1.533 2.992,-0.651 v -2.53 l -2.999,0.618 z" /></g></g></g><g
       transform="matrix(17.46817,0,0,17.46817,-11876.931,-21656.738)"
       id="g466"><g
         clip-path="url(#clipPath472)"
         id="g468"><g
           transform="translate(700.2665,1255.572)"
           id="g474"><path
             id="path476"
             style="fill:#ffffff;fill-opacity:1;fill-rule:evenodd;stroke:none"
             d="M 0,0 V 7.021 C -1.833,7.485 -3.76,7.481 -5.779,7.017 V -0.034 C -5.687,-0.587 -0.17,-0.639 0,0" /></g></g></g><g
       transform="matrix(17.46817,0,0,17.46817,-11876.931,-21656.738)"
       id="g478"><g
         clip-path="url(#clipPath484)"
         id="g480"><g
           transform="translate(700.2665,1255.5712)"
           id="g486"><path
             id="path488"
             style="fill:none;stroke:#231f20;stroke-width:0.104;stroke-linecap:butt;stroke-linejoin:miter;stroke-miterlimit:22.9260006;stroke-dasharray:none;stroke-opacity:1"
             d="m 0,0 v 7.022 c -1.833,0.464 -3.76,0.46 -5.779,-0.005 v -7.05 C -5.687,-0.586 -0.17,-0.639 0,0 Z" /></g></g></g><g
       transform="matrix(17.46817,0,0,17.46817,-11876.931,-21656.738)"
       id="g490"><g
         clip-path="url(#clipPath496)"
         id="g492"><g
           transform="translate(692.8981,1260.5614)"
           id="g498"><path
             id="path500"
             style="fill:#fff200;fill-opacity:1;fill-rule:evenodd;stroke:none"
             d="M 0,0 -1.013,-0.216 V -0.797 L 0,-0.582 Z" /></g></g></g><g
       transform="matrix(17.46817,0,0,17.46817,-11876.931,-21656.738)"
       id="g502"><g
         clip-path="url(#clipPath508)"
         id="g504"><g
           transform="translate(692.8981,1260.5605)"
           id="g510"><path
             id="path512"
             style="fill:none;stroke:#231f20;stroke-width:0.104;stroke-linecap:butt;stroke-linejoin:miter;stroke-miterlimit:22.9260006;stroke-dasharray:none;stroke-opacity:1"
             d="M 0,0 -1.013,-0.215 V -0.797 L 0,-0.581 Z" /></g></g></g><g
       transform="matrix(17.46817,0,0,17.46817,-11876.931,-21656.738)"
       id="g514"><g
         clip-path="url(#clipPath520)"
         id="g516"><g
           transform="translate(690.92447,1260.1125)"
           id="g522"><path
             id="path524"
             style="fill:#fff200;fill-opacity:1;fill-rule:evenodd;stroke:none"
             d="M 0,0 -1.014,-0.216 V -0.797 L 0,-0.582 Z" /></g></g></g><g
       transform="matrix(17.46817,0,0,17.46817,-11876.931,-21656.738)"
       id="g526"><g
         clip-path="url(#clipPath532)"
         id="g528"><g
           transform="translate(690.92447,1260.1117)"
           id="g534"><path
             id="path536"
             style="fill:none;stroke:#231f20;stroke-width:0.104;stroke-linecap:butt;stroke-linejoin:miter;stroke-miterlimit:22.9260006;stroke-dasharray:none;stroke-opacity:1"
             d="M 0,0 -1.014,-0.215 V -0.797 L 0,-0.581 Z" /></g></g></g><g
       transform="matrix(17.46817,0,0,17.46817,-11876.931,-21656.738)"
       id="g538"><g
         clip-path="url(#clipPath544)"
         id="g540"><path
           id="path546"
           style="fill:#fff200;fill-opacity:1;fill-rule:evenodd;stroke:none"
           d="m 697.047,1257.584 h 0.992 v 0.547 h -0.992 z" /></g></g><g
       transform="matrix(17.46817,0,0,17.46817,-11876.931,-21656.738)"
       id="g548"><g
         clip-path="url(#clipPath554)"
         id="g550"><path
           id="path556"
           style="fill:none;stroke:#231f20;stroke-width:0.104;stroke-linecap:butt;stroke-linejoin:miter;stroke-miterlimit:22.9260006;stroke-dasharray:none;stroke-opacity:1"
           d="m 697.047,1258.13 h 0.992 v -0.547 h -0.992 z" /></g></g><g
       transform="matrix(17.46817,0,0,17.46817,-11876.931,-21656.738)"
       id="g558"><g
         clip-path="url(#clipPath564)"
         id="g560"><g
           transform="translate(696.10586,1261.0266)"
           id="g566"><path
             id="path568"
             style="fill:#fff200;fill-opacity:1;fill-rule:evenodd;stroke:none"
             d="m 0,0 -0.852,-0.194 v -0.68 L 0,-0.68 Z" /></g></g></g><g
       transform="matrix(17.46817,0,0,17.46817,-11876.931,-21656.738)"
       id="g570"><g
         clip-path="url(#clipPath576)"
         id="g572"><g
           transform="translate(696.10586,1261.0266)"
           id="g578"><path
             id="path580"
             style="fill:none;stroke:#231f20;stroke-width:0.104;stroke-linecap:butt;stroke-linejoin:miter;stroke-miterlimit:22.9260006;stroke-dasharray:none;stroke-opacity:1"
             d="m 0,0 -0.852,-0.194 v -0.68 L 0,-0.68 Z" /></g></g></g><g
       transform="matrix(17.46817,0,0,17.46817,-11876.931,-21656.738)"
       id="g582"><g
         clip-path="url(#clipPath588)"
         id="g584"><g
           transform="translate(698.37991,1261.7505)"
           id="g590"><path
             id="path592"
             style="fill:#fff200;fill-opacity:1;fill-rule:evenodd;stroke:none"
             d="M 0,0 0.974,-0.11 V -1.121 L 0,-1.011 Z" /></g></g></g><g
       transform="matrix(17.46817,0,0,17.46817,-11876.931,-21656.738)"
       id="g594"><g
         clip-path="url(#clipPath600)"
         id="g596"><g
           transform="translate(698.37991,1261.7505)"
           id="g602"><path
             id="path604"
             style="fill:none;stroke:#231f20;stroke-width:0.104;stroke-linecap:butt;stroke-linejoin:miter;stroke-miterlimit:22.9260006;stroke-dasharray:none;stroke-opacity:1"
             d="M 0,0 0.976,-0.11 V -1.121 L 0,-1.011 Z M 5.628,-3.247 1.89,-2.411" /></g></g></g><g
       transform="matrix(17.46817,0,0,17.46817,-11876.931,-21656.738)"
       id="g606"><g
         clip-path="url(#clipPath612)"
         id="g608"><g
           transform="translate(681.40874,1282.9829)"
           id="g614"><path
             id="path616"
             style="fill:none;stroke:#231f20;stroke-width:0.145;stroke-linecap:butt;stroke-linejoin:miter;stroke-miterlimit:22.9260006;stroke-dasharray:none;stroke-opacity:1"
             d="m 0,0 h 31.902 v -20.207 c 0,-0.948 -0.148,-1.895 -0.294,-2.833 -0.169,-0.875 -0.36,-1.724 -0.589,-2.586 -0.723,-2.357 -1.676,-4.374 -3.155,-6.352 -0.479,-0.582 -0.963,-1.119 -1.494,-1.654 -3.029,-2.787 -6.477,-4.656 -10.433,-5.493 -3.922,0.83 -7.343,2.814 -10.434,5.493 -1.681,1.696 -2.854,3.478 -3.825,5.656 -0.644,1.623 -1.084,3.222 -1.412,4.936 C 0.13,-22.075 0,-21.195 0,-20.222 Z" /></g></g></g></g></svg>