<svg xmlns="http://www.w3.org/2000/svg" version="1.1" viewBox="335.34 188.37 378.48 462.41">
<g id="#ffffffff">
<path fill="#ffffff" opacity="1.00" d=" M 363.32 216.34 C 415.01 216.41 466.69 216.32 518.38 216.39 C 518.37 261.70 518.51 307.02 518.31 352.33 C 484.35 318.88 451.00 284.81 417.03 251.37 C 411.09 257.04 405.27 262.84 399.63 268.81 C 402.91 271.97 406.00 275.33 409.37 278.41 C 401.38 287.11 392.62 295.08 384.48 303.64 C 402.13 320.97 419.43 338.64 437.03 356.02 C 444.92 348.59 452.34 340.67 460.12 333.12 C 461.30 331.51 463.40 332.13 464.41 333.57 C 477.73 346.94 491.14 360.22 504.41 373.63 C 457.39 373.98 410.35 373.72 363.33 373.76 C 363.32 321.29 363.34 268.81 363.32 216.34 Z"/>
<path fill="#ffffff" opacity="1.00" d=" M 428.98 307.25 C 430.36 305.94 431.75 304.64 433.13 303.33 C 433.74 303.47 434.95 303.76 435.56 303.91 C 436.08 306.67 433.74 308.32 432.02 310.04 C 433.61 311.84 435.22 313.69 435.95 316.03 C 435.18 316.27 433.64 316.74 432.87 316.98 C 431.57 315.71 430.25 314.44 428.93 313.19 C 427.62 314.41 426.32 315.64 425.03 316.88 C 424.49 316.66 423.42 316.22 422.88 316.00 C 422.73 315.56 422.43 314.69 422.28 314.25 C 423.46 312.91 424.64 311.57 425.81 310.21 C 424.54 308.79 423.27 307.37 422.04 305.93 C 422.99 305.16 423.95 304.40 424.91 303.64 C 426.25 304.85 427.61 306.05 428.98 307.25 Z"/>
<path fill="#ffffff" opacity="1.00" d=" M 550.07 384.35 C 555.00 383.40 560.02 383.81 565.00 383.75 C 604.54 383.73 644.09 383.78 683.64 383.72 C 683.90 411.47 683.67 439.23 683.75 466.99 C 683.88 472.93 682.63 478.76 681.51 484.56 C 677.49 504.85 669.45 524.45 657.28 541.23 C 645.18 558.02 629.52 572.02 612.27 583.35 C 586.56 600.20 557.90 612.17 528.57 621.10 C 528.47 564.07 528.56 507.03 528.53 450.00 C 528.67 432.65 528.25 415.30 528.72 397.96 C 535.33 404.45 541.86 411.03 548.38 417.61 C 550.22 419.72 553.47 420.57 554.24 423.51 C 555.50 426.91 557.99 429.99 561.44 431.32 C 563.83 432.03 566.33 432.27 568.82 432.44 C 566.32 437.75 564.68 443.85 566.28 449.67 C 567.24 454.45 569.88 458.63 572.98 462.30 C 569.29 467.55 565.91 473.41 565.71 479.99 C 565.74 491.55 574.11 502.49 585.27 505.52 C 593.61 508.22 602.91 505.56 609.21 499.63 C 614.28 503.77 620.37 506.83 627.00 507.22 C 641.72 507.08 655.09 492.98 653.48 478.15 C 653.00 472.43 649.74 467.54 646.21 463.23 C 651.24 457.45 654.16 449.57 652.92 441.89 C 651.72 428.92 638.97 418.19 625.98 419.25 C 620.04 418.98 614.74 422.11 609.96 425.26 C 606.33 422.52 602.47 419.88 597.99 418.75 C 591.90 417.61 585.64 418.30 579.73 420.03 C 580.24 413.19 575.06 407.10 568.40 406.01 C 568.29 404.51 568.86 402.64 567.44 401.60 C 561.73 395.77 555.82 390.14 550.07 384.35 Z"/>
<path fill="#ffffff" opacity="1.00" d=" M 589.56 436.76 C 595.51 434.95 601.60 441.87 598.68 447.48 C 596.29 454.20 584.85 452.76 584.19 445.68 C 583.31 441.77 585.77 437.86 589.56 436.76 Z"/>
<path fill="#ffffff" opacity="1.00" d=" M 624.35 438.16 C 628.90 436.05 634.90 439.96 634.65 445.02 C 635.25 449.20 631.24 453.42 626.99 452.77 C 621.24 453.56 617.34 446.12 620.40 441.53 C 621.38 440.09 622.71 438.83 624.35 438.16 Z"/>
<path fill="#ffffff" opacity="1.00" d=" M 588.44 473.42 C 593.07 470.51 600.23 474.38 599.62 480.06 C 600.66 486.90 590.62 490.59 586.50 485.50 C 582.97 482.04 584.07 475.63 588.44 473.42 Z"/>
<path fill="#ffffff" opacity="1.00" d=" M 624.52 473.61 C 627.31 473.23 630.93 472.64 632.93 475.14 C 635.91 478.03 636.26 483.28 633.03 486.13 C 629.81 489.80 623.38 489.01 620.96 484.84 C 619.11 480.96 620.15 475.33 624.52 473.61 Z"/>
</g>
<g id="#231f1fff">
<path fill="#231f1f" opacity="1.00" d=" M 335.34 188.37 C 461.50 188.42 587.66 188.39 713.82 188.38 C 713.79 279.60 713.83 370.82 713.80 462.04 C 713.10 503.05 694.92 542.49 667.25 572.31 C 640.70 600.98 606.50 621.71 570.42 636.16 C 556.61 641.73 542.41 646.32 528.04 650.22 C 522.91 651.76 517.72 649.76 512.74 648.58 C 472.97 638.39 434.32 621.66 402.21 595.73 C 374.67 573.57 352.59 543.91 342.33 509.84 C 338.38 496.25 335.49 482.20 335.36 468.00 C 335.33 374.79 335.37 281.58 335.34 188.37 M 340.62 194.39 C 340.74 283.95 340.63 373.50 340.68 463.06 C 341.45 477.71 343.17 492.41 347.53 506.48 C 357.00 539.12 377.44 567.93 403.33 589.67 C 435.77 617.17 475.76 634.42 516.79 644.49 C 520.66 645.62 524.81 646.39 528.74 645.06 C 574.03 632.65 618.23 612.20 652.57 579.58 C 679.50 554.38 699.51 521.09 705.86 484.51 C 709.49 466.55 708.35 448.19 708.51 430.00 C 708.51 351.35 708.53 272.71 708.50 194.06 C 706.69 193.87 704.87 193.73 703.07 193.71 C 586.71 193.69 470.36 193.71 354.00 193.70 C 349.53 193.63 345.04 193.60 340.62 194.39 Z"/>
<path fill="#231f1f" opacity="1.00" d=" M 350.65 203.72 C 466.61 203.69 582.58 203.68 698.54 203.73 C 698.67 285.82 698.56 367.91 698.60 450.00 C 698.91 465.12 697.36 480.33 693.27 494.92 C 684.32 528.94 662.92 558.74 636.06 581.04 C 604.92 607.04 567.16 624.01 528.33 634.92 C 525.55 635.81 522.56 635.85 519.75 635.10 C 480.76 625.40 442.65 609.32 411.48 583.54 C 385.34 561.97 364.64 532.97 356.03 499.94 C 352.40 487.28 351.12 474.11 350.61 461.00 C 350.63 375.24 350.55 289.48 350.65 203.72 M 363.32 216.34 C 363.34 268.81 363.32 321.29 363.33 373.76 C 410.35 373.72 457.39 373.98 504.41 373.63 C 491.14 360.22 477.73 346.94 464.41 333.57 C 463.40 332.13 461.30 331.51 460.12 333.12 C 452.34 340.67 444.92 348.59 437.03 356.02 C 419.43 338.64 402.13 320.97 384.48 303.64 C 392.62 295.08 401.38 287.11 409.37 278.41 C 406.00 275.33 402.91 271.97 399.63 268.81 C 405.27 262.84 411.09 257.04 417.03 251.37 C 451.00 284.81 484.35 318.88 518.31 352.33 C 518.51 307.02 518.37 261.70 518.38 216.39 C 466.69 216.32 415.01 216.41 363.32 216.34 M 528.51 217.54 C 528.13 263.64 528.56 309.74 528.30 355.85 C 534.03 349.71 539.54 343.27 546.26 338.17 C 551.78 334.04 555.20 327.89 560.16 323.20 C 574.25 309.61 587.41 295.07 601.84 281.83 C 605.63 277.98 609.01 273.72 613.15 270.20 C 620.10 264.40 625.53 257.06 632.29 251.06 C 635.15 253.41 637.80 256.00 640.17 258.85 C 643.12 262.41 646.83 265.29 649.50 269.08 C 647.13 272.45 644.04 275.23 641.22 278.21 C 642.65 280.27 644.09 282.34 645.86 284.14 C 652.28 290.43 659.01 296.43 664.92 303.23 C 661.22 308.98 655.58 312.99 651.02 317.98 C 644.89 324.54 638.10 330.44 632.02 337.05 C 627.90 341.57 623.41 345.73 619.14 350.10 C 617.06 351.98 614.95 354.27 612.06 354.76 C 609.70 354.18 608.03 352.25 606.34 350.66 C 600.14 344.30 594.25 337.54 586.90 332.47 C 580.07 339.46 572.72 345.93 566.18 353.20 C 559.35 360.57 551.07 366.56 545.07 374.70 C 557.34 375.85 569.69 375.00 582.00 375.25 C 613.00 375.30 644.01 375.16 675.01 375.33 C 677.85 375.29 680.69 374.99 683.52 374.69 C 683.87 345.80 683.58 316.90 683.67 288.00 C 683.54 264.50 683.95 241.00 683.46 217.50 C 655.31 217.25 627.15 217.47 599.00 217.40 C 575.50 217.50 552.00 217.18 528.51 217.54 M 407.31 268.97 C 410.08 272.49 413.63 275.29 416.50 278.74 C 408.66 287.44 399.63 294.98 392.00 303.88 C 407.02 318.88 421.98 333.93 437.06 348.85 C 445.46 340.69 453.56 332.23 462.00 324.11 C 478.45 340.24 494.55 356.72 510.98 372.87 C 514.34 369.61 517.70 366.34 520.90 362.92 C 514.42 355.81 507.36 349.24 500.65 342.35 C 475.16 316.84 449.63 291.37 424.15 265.85 C 421.82 263.56 419.79 260.90 417.00 259.15 C 413.51 262.12 409.95 265.20 407.31 268.97 M 597.63 293.64 C 589.81 301.14 582.78 309.45 574.58 316.56 C 545.80 345.43 516.75 374.06 488.22 403.16 C 490.61 407.31 494.72 410.11 497.94 413.60 C 516.61 395.39 534.64 376.53 553.23 358.23 C 564.83 347.05 575.74 335.17 587.69 324.37 C 596.29 332.15 603.98 340.88 612.64 348.59 C 627.53 333.58 642.52 318.66 657.48 303.72 C 649.65 295.08 640.98 287.26 632.97 278.79 C 635.91 275.22 639.24 271.98 642.78 268.98 C 639.53 265.54 636.19 262.16 632.73 258.93 C 620.65 270.10 609.41 282.14 597.63 293.64 M 528.49 390.59 C 536.44 398.15 543.93 406.18 551.87 413.75 C 555.27 410.37 558.71 407.03 561.71 403.28 C 553.90 395.84 546.35 388.11 538.73 380.46 C 535.15 383.66 531.76 387.07 528.49 390.59 M 364.28 384.19 C 364.24 404.79 364.25 425.40 364.27 446.00 C 364.48 459.13 363.24 472.48 366.75 485.31 C 369.78 503.26 376.04 521.04 387.49 535.41 C 396.20 549.06 407.26 561.09 419.81 571.30 C 429.18 579.11 438.42 587.64 449.97 592.10 C 456.77 594.73 462.79 598.97 469.54 601.70 C 476.44 604.51 482.74 608.58 489.73 611.18 C 499.16 614.87 508.60 618.75 518.51 620.96 C 518.64 553.31 518.50 485.65 518.58 418.00 C 518.67 412.34 518.65 406.68 518.23 401.04 C 511.24 406.39 505.80 413.37 499.43 419.38 C 496.64 422.00 494.68 425.33 491.98 428.02 C 489.01 430.61 485.02 431.41 481.40 432.66 C 482.53 437.66 484.04 442.77 483.30 447.94 C 482.47 453.33 479.73 458.14 477.16 462.87 C 480.02 467.59 483.39 472.43 483.65 478.14 C 485.25 492.56 472.30 506.52 457.88 506.47 C 451.36 506.78 445.63 503.25 440.15 500.22 C 435.19 503.05 430.16 506.10 424.48 507.18 C 409.40 508.38 394.74 494.21 395.89 478.98 C 396.32 473.05 399.99 468.15 402.60 463.03 C 399.58 457.74 396.21 452.21 396.28 445.91 C 395.46 431.57 408.87 418.81 423.00 419.25 C 428.97 419.01 434.39 421.88 439.29 424.96 C 443.77 422.43 448.14 419.23 453.37 418.54 C 458.60 417.92 463.87 418.63 469.05 419.41 C 470.64 415.84 471.67 411.59 475.10 409.26 C 477.63 407.41 480.24 405.54 481.95 402.84 C 486.60 395.71 493.90 390.95 499.09 384.27 C 489.41 383.51 479.70 383.94 470.00 383.84 C 451.67 383.87 433.33 383.83 415.00 383.84 C 398.10 384.06 381.17 383.39 364.28 384.19 M 550.07 384.35 C 555.82 390.14 561.73 395.77 567.44 401.60 C 568.86 402.64 568.29 404.51 568.40 406.01 C 575.06 407.10 580.24 413.19 579.73 420.03 C 585.64 418.30 591.90 417.61 597.99 418.75 C 602.47 419.88 606.33 422.52 609.96 425.26 C 614.74 422.11 620.04 418.98 625.98 419.25 C 638.97 418.19 651.72 428.92 652.92 441.89 C 654.16 449.57 651.24 457.45 646.21 463.23 C 649.74 467.54 653.00 472.43 653.48 478.15 C 655.09 492.98 641.72 507.08 627.00 507.22 C 620.37 506.83 614.28 503.77 609.21 499.63 C 602.91 505.56 593.61 508.22 585.27 505.52 C 574.11 502.49 565.74 491.55 565.71 479.99 C 565.91 473.41 569.29 467.55 572.98 462.30 C 569.88 458.63 567.24 454.45 566.28 449.67 C 564.68 443.85 566.32 437.75 568.82 432.44 C 566.33 432.27 563.83 432.03 561.44 431.32 C 557.99 429.99 555.50 426.91 554.24 423.51 C 553.47 420.57 550.22 419.72 548.38 417.61 C 541.86 411.03 535.33 404.45 528.72 397.96 C 528.25 415.30 528.67 432.65 528.53 450.00 C 528.56 507.03 528.47 564.07 528.57 621.10 C 557.90 612.17 586.56 600.20 612.27 583.35 C 629.52 572.02 645.18 558.02 657.28 541.23 C 669.45 524.45 677.49 504.85 681.51 484.56 C 682.63 478.76 683.88 472.93 683.75 466.99 C 683.67 439.23 683.90 411.47 683.64 383.72 C 644.09 383.78 604.54 383.73 565.00 383.75 C 560.02 383.81 555.00 383.40 550.07 384.35 M 479.63 411.81 C 475.22 413.94 473.65 420.41 476.96 424.10 C 480.22 428.44 488.30 427.61 490.39 422.48 C 491.05 419.43 491.29 415.56 488.61 413.38 C 486.43 410.78 482.60 411.06 479.63 411.81 M 563.55 411.64 C 559.61 413.43 557.08 418.57 559.33 422.57 C 561.80 428.70 572.20 428.18 574.10 421.80 C 576.65 415.60 569.59 409.27 563.55 411.64 M 436.49 445.02 C 436.37 450.11 438.94 454.70 441.78 458.73 C 444.73 457.00 447.82 455.52 450.96 454.16 C 449.21 451.55 447.14 448.95 446.55 445.79 C 445.63 440.47 449.22 434.89 454.37 433.38 C 461.25 430.73 469.59 436.64 469.47 444.00 C 469.71 448.24 466.77 451.60 464.14 454.57 C 467.49 456.08 470.81 457.69 474.25 459.01 C 478.04 453.20 480.94 446.08 478.82 439.11 C 476.39 428.10 464.05 420.34 453.11 423.35 C 443.36 425.37 435.85 435.06 436.49 445.02 M 587.32 423.20 C 579.80 424.75 573.48 430.64 571.13 437.90 C 569.07 445.37 570.94 453.58 576.06 459.40 C 578.92 457.54 581.96 455.96 585.09 454.59 C 582.84 451.43 579.92 448.16 580.34 443.99 C 580.09 439.41 583.45 435.35 587.50 433.61 C 593.50 430.72 601.17 434.97 602.80 441.22 C 604.61 445.99 601.20 450.41 598.78 454.22 C 601.92 455.53 604.99 457.00 608.03 458.53 C 611.32 453.74 614.08 448.07 613.24 442.10 C 612.23 435.90 609.05 429.70 603.55 426.36 C 598.78 423.42 592.86 421.72 587.32 423.20 M 403.37 435.30 C 400.72 439.63 401.08 444.92 401.51 449.77 C 402.84 456.45 407.76 462.33 414.08 464.87 C 420.51 467.79 428.30 466.95 434.20 463.17 C 435.29 462.37 437.07 461.73 436.74 460.06 C 435.88 457.15 434.09 454.62 432.81 451.90 C 430.40 453.42 428.11 455.22 425.38 456.16 C 420.73 457.50 415.26 455.50 412.73 451.33 C 410.96 448.72 411.00 445.39 411.40 442.39 C 412.43 436.75 418.46 433.02 423.98 433.77 C 427.30 434.36 429.98 436.54 432.57 438.55 C 433.73 435.23 435.11 432.01 436.70 428.89 C 433.89 427.02 431.00 425.09 427.66 424.36 C 418.34 421.71 407.67 426.68 403.37 435.30 M 612.99 428.86 C 614.54 432.05 615.97 435.29 617.08 438.67 C 619.75 436.55 622.51 434.18 626.01 433.68 C 630.99 433.27 635.88 436.36 637.91 440.88 C 640.56 447.26 636.33 455.14 629.52 456.38 C 624.68 457.63 620.54 454.31 616.86 451.71 C 615.43 454.84 613.81 457.88 612.23 460.94 C 616.31 463.75 620.84 466.53 625.96 466.56 C 633.87 467.14 642.04 462.87 645.82 455.83 C 649.56 449.59 649.62 441.39 646.18 435.02 C 642.05 427.21 632.76 422.45 624.00 423.86 C 619.94 424.48 616.32 426.54 612.99 428.86 M 455.36 436.66 C 451.88 437.28 450.53 441.18 450.38 444.28 C 449.74 448.89 454.66 453.49 459.21 452.19 C 461.78 451.61 464.62 450.25 465.39 447.50 C 466.15 444.46 465.95 440.78 463.76 438.35 C 461.40 436.61 458.20 436.29 455.36 436.66 M 589.56 436.76 C 585.77 437.86 583.31 441.77 584.19 445.68 C 584.85 452.76 596.29 454.20 598.68 447.48 C 601.60 441.87 595.51 434.95 589.56 436.76 M 416.73 439.73 C 415.12 441.67 414.29 444.27 414.53 446.78 C 415.03 451.22 420.14 454.35 424.35 453.18 C 427.44 451.85 429.44 448.96 431.76 446.64 C 430.29 443.56 429.39 439.59 425.99 438.06 C 422.95 436.85 418.99 437.20 416.73 439.73 M 624.35 438.16 C 622.71 438.83 621.38 440.09 620.40 441.53 C 617.34 446.12 621.24 453.56 626.99 452.77 C 631.24 453.42 635.25 449.20 634.65 445.02 C 634.90 439.96 628.90 436.05 624.35 438.16 M 443.02 463.73 C 444.31 466.92 445.79 470.03 447.11 473.21 C 450.28 471.48 453.35 469.17 457.02 468.65 C 461.57 468.90 466.00 471.65 467.91 475.85 C 470.94 482.72 465.66 491.82 457.93 491.70 C 453.57 492.31 450.13 489.29 446.91 486.87 C 445.59 490.02 444.07 493.08 442.38 496.05 C 450.21 503.44 463.49 503.71 471.53 496.51 C 477.97 491.02 480.25 481.59 477.69 473.63 C 475.30 466.37 468.82 460.60 461.27 459.24 C 454.86 457.49 448.39 460.44 443.02 463.73 M 585.23 460.01 C 578.71 462.20 573.51 467.79 571.71 474.41 C 571.03 478.40 571.00 482.55 571.74 486.53 C 574.34 495.61 583.55 502.27 593.02 501.73 C 598.22 501.96 602.92 499.38 607.01 496.44 C 605.43 493.43 604.90 489.36 602.21 487.25 C 599.34 489.08 596.67 491.91 592.98 491.68 C 588.09 492.19 583.30 488.94 581.67 484.37 C 578.63 478.13 583.69 470.41 590.11 469.04 C 594.66 467.74 598.72 471.08 602.33 473.37 C 603.67 470.31 605.15 467.32 606.81 464.43 C 601.11 458.93 592.60 458.14 585.23 460.01 M 406.13 466.09 C 403.21 470.19 400.50 474.80 400.46 480.00 C 400.02 485.54 402.17 491.07 405.72 495.27 C 411.37 501.69 421.06 504.54 429.14 501.39 C 437.56 498.49 443.69 489.94 443.49 481.00 C 443.64 475.88 441.24 471.18 438.52 467.01 C 435.20 468.41 431.94 469.95 428.59 471.28 C 430.84 474.11 433.48 477.17 433.48 481.00 C 433.64 487.11 428.11 492.67 422.01 492.54 C 415.86 492.75 410.16 487.16 410.42 480.99 C 410.22 476.80 413.34 473.65 415.87 470.72 C 412.54 469.35 409.35 467.69 406.13 466.09 M 634.02 470.79 C 636.31 473.54 638.76 476.47 639.37 480.12 C 639.60 485.41 636.01 490.68 630.85 492.11 C 624.16 494.27 616.43 488.94 616.29 481.87 C 615.79 477.85 618.49 474.58 620.58 471.47 C 617.51 469.92 614.42 468.38 611.33 466.88 C 608.15 471.26 605.86 476.48 606.35 482.01 C 606.19 492.71 615.58 501.91 626.06 502.61 C 636.41 503.50 646.90 495.86 648.73 485.53 C 650.60 478.63 647.70 471.51 643.48 466.09 C 640.37 467.75 637.25 469.37 634.02 470.79 M 456.39 472.49 C 453.09 473.21 450.10 475.91 449.42 479.26 C 448.88 484.10 453.84 488.96 458.74 487.77 C 463.80 487.43 466.86 481.43 465.01 476.97 C 463.25 474.11 459.78 472.11 456.39 472.49 M 421.42 473.39 C 419.38 473.68 417.34 474.39 415.78 475.76 C 414.50 478.16 414.17 481.17 415.06 483.76 C 417.14 488.04 423.91 490.52 427.35 486.35 C 432.34 481.94 428.35 471.88 421.42 473.39 M 588.44 473.42 C 584.07 475.63 582.97 482.04 586.50 485.50 C 590.62 490.59 600.66 486.90 599.62 480.06 C 600.23 474.38 593.07 470.51 588.44 473.42 M 624.52 473.61 C 620.15 475.33 619.11 480.96 620.96 484.84 C 623.38 489.01 629.81 489.80 633.03 486.13 C 636.26 483.28 635.91 478.03 632.93 475.14 C 630.93 472.64 627.31 473.23 624.52 473.61 Z"/>
<path fill="#231f1f" opacity="1.00" d=" M 429.01 299.76 C 430.58 298.46 432.16 297.19 433.80 295.98 C 437.13 299.09 440.33 302.34 443.29 305.81 C 442.08 307.26 440.87 308.71 439.66 310.16 C 440.81 311.78 441.98 313.40 443.12 315.04 C 439.97 318.39 436.77 321.71 433.33 324.77 C 431.89 323.52 430.46 322.28 429.03 321.05 C 427.60 322.11 426.19 323.19 424.77 324.26 C 421.35 321.34 418.20 318.12 415.08 314.88 C 416.07 313.32 417.09 311.77 418.09 310.22 C 417.06 308.82 416.04 307.42 415.04 306.01 C 418.20 302.75 421.40 299.53 424.69 296.40 C 426.13 297.51 427.56 298.64 429.01 299.76 M 428.98 307.25 C 427.61 306.05 426.25 304.85 424.91 303.64 C 423.95 304.40 422.99 305.16 422.04 305.93 C 423.27 307.37 424.54 308.79 425.81 310.21 C 424.64 311.57 423.46 312.91 422.28 314.25 C 422.43 314.69 422.73 315.56 422.88 316.00 C 423.42 316.22 424.49 316.66 425.03 316.88 C 426.32 315.64 427.62 314.41 428.93 313.19 C 430.25 314.44 431.57 315.71 432.87 316.98 C 433.64 316.74 435.18 316.27 435.95 316.03 C 435.22 313.69 433.61 311.84 432.02 310.04 C 433.74 308.32 436.08 306.67 435.56 303.91 C 434.95 303.76 433.74 303.47 433.13 303.33 C 431.75 304.64 430.36 305.94 428.98 307.25 Z"/>
<path fill="#231f1f" opacity="1.00" d=" M 606.21 305.89 C 609.41 302.55 612.66 299.24 616.02 296.03 C 617.58 297.26 619.14 298.51 620.70 299.77 C 622.11 298.61 623.52 297.46 624.95 296.31 C 628.33 299.45 631.50 302.80 634.77 306.04 C 633.71 307.42 632.65 308.79 631.58 310.16 C 632.54 311.74 633.51 313.31 634.47 314.89 C 631.38 318.20 628.31 321.53 625.04 324.67 C 623.67 323.43 622.30 322.19 620.93 320.96 C 619.30 322.25 617.67 323.55 616.05 324.84 C 612.70 321.61 609.41 318.30 606.22 314.92 C 607.58 313.36 608.98 311.82 610.39 310.30 C 608.99 308.83 607.59 307.36 606.21 305.89 M 625.03 302.30 C 623.67 303.52 622.33 304.75 620.99 305.98 C 618.80 305.02 616.63 304.06 614.44 303.12 C 614.10 303.99 613.76 304.85 613.43 305.72 C 614.46 306.91 615.49 308.11 616.52 309.30 C 615.43 311.20 614.35 313.11 613.28 315.02 C 614.11 315.56 614.95 316.10 615.79 316.65 C 619.45 314.51 623.60 315.30 627.39 316.59 C 625.64 311.93 628.43 306.36 625.03 302.30 Z"/>
</g>
<g id="#fcc045ff">
<path fill="#fcc045" opacity="1.00" d=" M 340.62 194.39 C 345.04 193.60 349.53 193.63 354.00 193.70 C 470.36 193.71 586.71 193.69 703.07 193.71 C 704.87 193.73 706.69 193.87 708.50 194.06 C 708.53 272.71 708.51 351.35 708.51 430.00 C 708.35 448.19 709.49 466.55 705.86 484.51 C 699.51 521.09 679.50 554.38 652.57 579.58 C 618.23 612.20 574.03 632.65 528.74 645.06 C 524.81 646.39 520.66 645.62 516.79 644.49 C 475.76 634.42 435.77 617.17 403.33 589.67 C 377.44 567.93 357.00 539.12 347.53 506.48 C 343.17 492.41 341.45 477.71 340.68 463.06 C 340.63 373.50 340.74 283.95 340.62 194.39 M 350.65 203.72 C 350.55 289.48 350.63 375.24 350.61 461.00 C 351.12 474.11 352.40 487.28 356.03 499.94 C 364.64 532.97 385.34 561.97 411.48 583.54 C 442.65 609.32 480.76 625.40 519.75 635.10 C 522.56 635.85 525.55 635.81 528.33 634.92 C 567.16 624.01 604.92 607.04 636.06 581.04 C 662.92 558.74 684.32 528.94 693.27 494.92 C 697.36 480.33 698.91 465.12 698.60 450.00 C 698.56 367.91 698.67 285.82 698.54 203.73 C 582.58 203.68 466.61 203.69 350.65 203.72 Z"/>
<path fill="#fcc045" opacity="1.00" d=" M 407.31 268.97 C 409.95 265.20 413.51 262.12 417.00 259.15 C 419.79 260.90 421.82 263.56 424.15 265.85 C 449.63 291.37 475.16 316.84 500.65 342.35 C 507.36 349.24 514.42 355.81 520.90 362.92 C 517.70 366.34 514.34 369.61 510.98 372.87 C 494.55 356.72 478.45 340.24 462.00 324.11 C 453.56 332.23 445.46 340.69 437.06 348.85 C 421.98 333.93 407.02 318.88 392.00 303.88 C 399.63 294.98 408.66 287.44 416.50 278.74 C 413.63 275.29 410.08 272.49 407.31 268.97 M 429.01 299.76 C 427.56 298.64 426.13 297.51 424.69 296.40 C 421.40 299.53 418.20 302.75 415.04 306.01 C 416.04 307.42 417.06 308.82 418.09 310.22 C 417.09 311.77 416.07 313.32 415.08 314.88 C 418.20 318.12 421.35 321.34 424.77 324.26 C 426.19 323.19 427.60 322.11 429.03 321.05 C 430.46 322.28 431.89 323.52 433.33 324.77 C 436.77 321.71 439.97 318.39 443.12 315.04 C 441.98 313.40 440.81 311.78 439.66 310.16 C 440.87 308.71 442.08 307.26 443.29 305.81 C 440.33 302.34 437.13 299.09 433.80 295.98 C 432.16 297.19 430.58 298.46 429.01 299.76 Z"/>
<path fill="#fcc045" opacity="1.00" d=" M 597.63 293.64 C 609.41 282.14 620.65 270.10 632.73 258.93 C 636.19 262.16 639.53 265.54 642.78 268.98 C 639.24 271.98 635.91 275.22 632.97 278.79 C 640.98 287.26 649.65 295.08 657.48 303.72 C 642.52 318.66 627.53 333.58 612.64 348.59 C 603.98 340.88 596.29 332.15 587.69 324.37 C 575.74 335.17 564.83 347.05 553.23 358.23 C 534.64 376.53 516.61 395.39 497.94 413.60 C 494.72 410.11 490.61 407.31 488.22 403.16 C 516.75 374.06 545.80 345.43 574.58 316.56 C 582.78 309.45 589.81 301.14 597.63 293.64 M 606.21 305.89 C 607.59 307.36 608.99 308.83 610.39 310.30 C 608.98 311.82 607.58 313.36 606.22 314.92 C 609.41 318.30 612.70 321.61 616.05 324.84 C 617.67 323.55 619.30 322.25 620.93 320.96 C 622.30 322.19 623.67 323.43 625.04 324.67 C 628.31 321.53 631.38 318.20 634.47 314.89 C 633.51 313.31 632.54 311.74 631.58 310.16 C 632.65 308.79 633.71 307.42 634.77 306.04 C 631.50 302.80 628.33 299.45 624.95 296.31 C 623.52 297.46 622.11 298.61 620.70 299.77 C 619.14 298.51 617.58 297.26 616.02 296.03 C 612.66 299.24 609.41 302.55 606.21 305.89 Z"/>
<path fill="#fcc045" opacity="1.00" d=" M 528.49 390.59 C 531.76 387.07 535.15 383.66 538.73 380.46 C 546.35 388.11 553.90 395.84 561.71 403.28 C 558.71 407.03 555.27 410.37 551.87 413.75 C 543.93 406.18 536.44 398.15 528.49 390.59 Z"/>
<path fill="#fcc045" opacity="1.00" d=" M 479.63 411.81 C 482.60 411.06 486.43 410.78 488.61 413.38 C 491.29 415.56 491.05 419.43 490.39 422.48 C 488.30 427.61 480.22 428.44 476.96 424.10 C 473.65 420.41 475.22 413.94 479.63 411.81 Z"/>
<path fill="#fcc045" opacity="1.00" d=" M 563.55 411.64 C 569.59 409.27 576.65 415.60 574.10 421.80 C 572.20 428.18 561.80 428.70 559.33 422.57 C 557.08 418.57 559.61 413.43 563.55 411.64 Z"/>
<path fill="#fcc045" opacity="1.00" d=" M 436.49 445.02 C 435.85 435.06 443.36 425.37 453.11 423.35 C 464.05 420.34 476.39 428.10 478.82 439.11 C 480.94 446.08 478.04 453.20 474.25 459.01 C 470.81 457.69 467.49 456.08 464.14 454.57 C 466.77 451.60 469.71 448.24 469.47 444.00 C 469.59 436.64 461.25 430.73 454.37 433.38 C 449.22 434.89 445.63 440.47 446.55 445.79 C 447.14 448.95 449.21 451.55 450.96 454.16 C 447.82 455.52 444.73 457.00 441.78 458.73 C 438.94 454.70 436.37 450.11 436.49 445.02 Z"/>
<path fill="#fcc045" opacity="1.00" d=" M 587.32 423.20 C 592.86 421.72 598.78 423.42 603.55 426.36 C 609.05 429.70 612.23 435.90 613.24 442.10 C 614.08 448.07 611.32 453.74 608.03 458.53 C 604.99 457.00 601.92 455.53 598.78 454.22 C 601.20 450.41 604.61 445.99 602.80 441.22 C 601.17 434.97 593.50 430.72 587.50 433.61 C 583.45 435.35 580.09 439.41 580.34 443.99 C 579.92 448.16 582.84 451.43 585.09 454.59 C 581.96 455.96 578.92 457.54 576.06 459.40 C 570.94 453.58 569.07 445.37 571.13 437.90 C 573.48 430.64 579.80 424.75 587.32 423.20 Z"/>
<path fill="#fcc045" opacity="1.00" d=" M 403.37 435.30 C 407.67 426.68 418.34 421.71 427.66 424.36 C 431.00 425.09 433.89 427.02 436.70 428.89 C 435.11 432.01 433.73 435.23 432.57 438.55 C 429.98 436.54 427.30 434.36 423.98 433.77 C 418.46 433.02 412.43 436.75 411.40 442.39 C 411.00 445.39 410.96 448.72 412.73 451.33 C 415.26 455.50 420.73 457.50 425.38 456.16 C 428.11 455.22 430.40 453.42 432.81 451.90 C 434.09 454.62 435.88 457.15 436.74 460.06 C 437.07 461.73 435.29 462.37 434.20 463.17 C 428.30 466.95 420.51 467.79 414.08 464.87 C 407.76 462.33 402.84 456.45 401.51 449.77 C 401.08 444.92 400.72 439.63 403.37 435.30 Z"/>
<path fill="#fcc045" opacity="1.00" d=" M 612.99 428.86 C 616.32 426.54 619.94 424.48 624.00 423.86 C 632.76 422.45 642.05 427.21 646.18 435.02 C 649.62 441.39 649.56 449.59 645.82 455.83 C 642.04 462.87 633.87 467.14 625.96 466.56 C 620.84 466.53 616.31 463.75 612.23 460.94 C 613.81 457.88 615.43 454.84 616.86 451.71 C 620.54 454.31 624.68 457.63 629.52 456.38 C 636.33 455.14 640.56 447.26 637.91 440.88 C 635.88 436.36 630.99 433.27 626.01 433.68 C 622.51 434.18 619.75 436.55 617.08 438.67 C 615.97 435.29 614.54 432.05 612.99 428.86 Z"/>
<path fill="#fcc045" opacity="1.00" d=" M 443.02 463.73 C 448.39 460.44 454.86 457.49 461.27 459.24 C 468.82 460.60 475.30 466.37 477.69 473.63 C 480.25 481.59 477.97 491.02 471.53 496.51 C 463.49 503.71 450.21 503.44 442.38 496.05 C 444.07 493.08 445.59 490.02 446.91 486.87 C 450.13 489.29 453.57 492.31 457.93 491.70 C 465.66 491.82 470.94 482.72 467.91 475.85 C 466.00 471.65 461.57 468.90 457.02 468.65 C 453.35 469.17 450.28 471.48 447.11 473.21 C 445.79 470.03 444.31 466.92 443.02 463.73 Z"/>
<path fill="#fcc045" opacity="1.00" d=" M 585.23 460.01 C 592.60 458.14 601.11 458.93 606.81 464.43 C 605.15 467.32 603.67 470.31 602.33 473.37 C 598.72 471.08 594.66 467.74 590.11 469.04 C 583.69 470.41 578.63 478.13 581.67 484.37 C 583.30 488.94 588.09 492.19 592.98 491.68 C 596.67 491.91 599.34 489.08 602.21 487.25 C 604.90 489.36 605.43 493.43 607.01 496.44 C 602.92 499.38 598.22 501.96 593.02 501.73 C 583.55 502.27 574.34 495.61 571.74 486.53 C 571.00 482.55 571.03 478.40 571.71 474.41 C 573.51 467.79 578.71 462.20 585.23 460.01 Z"/>
<path fill="#fcc045" opacity="1.00" d=" M 406.13 466.09 C 409.35 467.69 412.54 469.35 415.87 470.72 C 413.34 473.65 410.22 476.80 410.42 480.99 C 410.16 487.16 415.86 492.75 422.01 492.54 C 428.11 492.67 433.64 487.11 433.48 481.00 C 433.48 477.17 430.84 474.11 428.59 471.28 C 431.94 469.95 435.20 468.41 438.52 467.01 C 441.24 471.18 443.64 475.88 443.49 481.00 C 443.69 489.94 437.56 498.49 429.14 501.39 C 421.06 504.54 411.37 501.69 405.72 495.27 C 402.17 491.07 400.02 485.54 400.46 480.00 C 400.50 474.80 403.21 470.19 406.13 466.09 Z"/>
<path fill="#fcc045" opacity="1.00" d=" M 634.02 470.79 C 637.25 469.37 640.37 467.75 643.48 466.09 C 647.70 471.51 650.60 478.63 648.73 485.53 C 646.90 495.86 636.41 503.50 626.06 502.61 C 615.58 501.91 606.19 492.71 606.35 482.01 C 605.86 476.48 608.15 471.26 611.33 466.88 C 614.42 468.38 617.51 469.92 620.58 471.47 C 618.49 474.58 615.79 477.85 616.29 481.87 C 616.43 488.94 624.16 494.27 630.85 492.11 C 636.01 490.68 639.60 485.41 639.37 480.12 C 638.76 476.47 636.31 473.54 634.02 470.79 Z"/>
</g>
<g id="#1a4b76ff">
<path fill="#1a4b76" opacity="1.00" d=" M 528.51 217.54 C 552.00 217.18 575.50 217.50 599.00 217.40 C 627.15 217.47 655.31 217.25 683.46 217.50 C 683.95 241.00 683.54 264.50 683.67 288.00 C 683.58 316.90 683.87 345.80 683.52 374.69 C 680.69 374.99 677.85 375.29 675.01 375.33 C 644.01 375.16 613.00 375.30 582.00 375.25 C 569.69 375.00 557.34 375.85 545.07 374.70 C 551.07 366.56 559.35 360.57 566.18 353.20 C 572.72 345.93 580.07 339.46 586.90 332.47 C 594.25 337.54 600.14 344.30 606.34 350.66 C 608.03 352.25 609.70 354.18 612.06 354.76 C 614.95 354.27 617.06 351.98 619.14 350.10 C 623.41 345.73 627.90 341.57 632.02 337.05 C 638.10 330.44 644.89 324.54 651.02 317.98 C 655.58 312.99 661.22 308.98 664.92 303.23 C 659.01 296.43 652.28 290.43 645.86 284.14 C 644.09 282.34 642.65 280.27 641.22 278.21 C 644.04 275.23 647.13 272.45 649.50 269.08 C 646.83 265.29 643.12 262.41 640.17 258.85 C 637.80 256.00 635.15 253.41 632.29 251.06 C 625.53 257.06 620.10 264.40 613.15 270.20 C 609.01 273.72 605.63 277.98 601.84 281.83 C 587.41 295.07 574.25 309.61 560.16 323.20 C 555.20 327.89 551.78 334.04 546.26 338.17 C 539.54 343.27 534.03 349.71 528.30 355.85 C 528.56 309.74 528.13 263.64 528.51 217.54 Z"/>
<path fill="#1a4b76" opacity="1.00" d=" M 625.03 302.30 C 628.43 306.36 625.64 311.93 627.39 316.59 C 623.60 315.30 619.45 314.51 615.79 316.65 C 614.95 316.10 614.11 315.56 613.28 315.02 C 614.35 313.11 615.43 311.20 616.52 309.30 C 615.49 308.11 614.46 306.91 613.43 305.72 C 613.76 304.85 614.10 303.99 614.44 303.12 C 616.63 304.06 618.80 305.02 620.99 305.98 C 622.33 304.75 623.67 303.52 625.03 302.30 Z"/>
<path fill="#1a4b76" opacity="1.00" d=" M 364.28 384.19 C 381.17 383.39 398.10 384.06 415.00 383.84 C 433.33 383.83 451.67 383.87 470.00 383.84 C 479.70 383.94 489.41 383.51 499.09 384.27 C 493.90 390.95 486.60 395.71 481.95 402.84 C 480.24 405.54 477.63 407.41 475.10 409.26 C 471.67 411.59 470.64 415.84 469.05 419.41 C 463.87 418.63 458.60 417.92 453.37 418.54 C 448.14 419.23 443.77 422.43 439.29 424.96 C 434.39 421.88 428.97 419.01 423.00 419.25 C 408.87 418.81 395.46 431.57 396.28 445.91 C 396.21 452.21 399.58 457.74 402.60 463.03 C 399.99 468.15 396.32 473.05 395.89 478.98 C 394.74 494.21 409.40 508.38 424.48 507.18 C 430.16 506.10 435.19 503.05 440.15 500.22 C 445.63 503.25 451.36 506.78 457.88 506.47 C 472.30 506.52 485.25 492.56 483.65 478.14 C 483.39 472.43 480.02 467.59 477.16 462.87 C 479.73 458.14 482.47 453.33 483.30 447.94 C 484.04 442.77 482.53 437.66 481.40 432.66 C 485.02 431.41 489.01 430.61 491.98 428.02 C 494.68 425.33 496.64 422.00 499.43 419.38 C 505.80 413.37 511.24 406.39 518.23 401.04 C 518.65 406.68 518.67 412.34 518.58 418.00 C 518.50 485.65 518.64 553.31 518.51 620.96 C 508.60 618.75 499.16 614.87 489.73 611.18 C 482.74 608.58 476.44 604.51 469.54 601.70 C 462.79 598.97 456.77 594.73 449.97 592.10 C 438.42 587.64 429.18 579.11 419.81 571.30 C 407.26 561.09 396.20 549.06 387.49 535.41 C 376.04 521.04 369.78 503.26 366.75 485.31 C 363.24 472.48 364.48 459.13 364.27 446.00 C 364.25 425.40 364.24 404.79 364.28 384.19 Z"/>
<path fill="#1a4b76" opacity="1.00" d=" M 455.36 436.66 C 458.20 436.29 461.40 436.61 463.76 438.35 C 465.95 440.78 466.15 444.46 465.39 447.50 C 464.62 450.25 461.78 451.61 459.21 452.19 C 454.66 453.49 449.74 448.89 450.38 444.28 C 450.53 441.18 451.88 437.28 455.36 436.66 Z"/>
<path fill="#1a4b76" opacity="1.00" d=" M 416.73 439.73 C 418.99 437.20 422.95 436.85 425.99 438.06 C 429.39 439.59 430.29 443.56 431.76 446.64 C 429.44 448.96 427.44 451.85 424.35 453.18 C 420.14 454.35 415.03 451.22 414.53 446.78 C 414.29 444.27 415.12 441.67 416.73 439.73 Z"/>
<path fill="#1a4b76" opacity="1.00" d=" M 456.39 472.49 C 459.78 472.11 463.25 474.11 465.01 476.97 C 466.86 481.43 463.80 487.43 458.74 487.77 C 453.84 488.96 448.88 484.10 449.42 479.26 C 450.10 475.91 453.09 473.21 456.39 472.49 Z"/>
<path fill="#1a4b76" opacity="1.00" d=" M 421.42 473.39 C 428.35 471.88 432.34 481.94 427.35 486.35 C 423.91 490.52 417.14 488.04 415.06 483.76 C 414.17 481.17 414.50 478.16 415.78 475.76 C 417.34 474.39 419.38 473.68 421.42 473.39 Z"/>
</g>
</svg>