<?xml version="1.0" encoding="UTF-8" standalone="no"?>
<svg
   xmlns:dc="http://purl.org/dc/elements/1.1/"
   xmlns:cc="http://creativecommons.org/ns#"
   xmlns:rdf="http://www.w3.org/1999/02/22-rdf-syntax-ns#"
   xmlns:svg="http://www.w3.org/2000/svg"
   xmlns="http://www.w3.org/2000/svg"
   viewBox="0 0 816 1056"
   height="1056"
   width="816"
   xml:space="preserve"
   id="svg2"
   version="1.1"><metadata
     id="metadata8"><rdf:RDF><cc:Work
         rdf:about=""><dc:format>image/svg+xml</dc:format><dc:type
           rdf:resource="http://purl.org/dc/dcmitype/StillImage" /></cc:Work></rdf:RDF></metadata><defs
     id="defs6"><clipPath
       id="clipPath18"
       clipPathUnits="userSpaceOnUse"><path
         id="path16"
         d="m 478.843,661.094 h 92.359 v 107.717 h -92.359 z" /></clipPath><clipPath
       id="clipPath30"
       clipPathUnits="userSpaceOnUse"><path
         id="path28"
         d="m 478.843,661.094 h 92.359 v 107.717 h -92.359 z" /></clipPath><clipPath
       id="clipPath42"
       clipPathUnits="userSpaceOnUse"><path
         id="path40"
         d="m 478.843,661.094 h 92.359 v 107.717 h -92.359 z" /></clipPath><clipPath
       id="clipPath54"
       clipPathUnits="userSpaceOnUse"><path
         id="path52"
         d="m 478.843,661.094 h 92.359 v 107.717 h -92.359 z" /></clipPath><clipPath
       id="clipPath66"
       clipPathUnits="userSpaceOnUse"><path
         id="path64"
         d="m 478.843,661.094 h 92.359 v 107.717 h -92.359 z" /></clipPath><clipPath
       id="clipPath78"
       clipPathUnits="userSpaceOnUse"><path
         id="path76"
         d="m 478.843,661.094 h 92.359 v 107.717 h -92.359 z" /></clipPath><clipPath
       id="clipPath90"
       clipPathUnits="userSpaceOnUse"><path
         id="path88"
         d="m 478.843,661.094 h 92.359 v 107.717 h -92.359 z" /></clipPath><clipPath
       id="clipPath102"
       clipPathUnits="userSpaceOnUse"><path
         id="path100"
         d="m 478.843,661.094 h 92.359 v 107.717 h -92.359 z" /></clipPath><clipPath
       id="clipPath114"
       clipPathUnits="userSpaceOnUse"><path
         id="path112"
         d="m 478.843,661.094 h 92.359 v 107.717 h -92.359 z" /></clipPath><clipPath
       id="clipPath126"
       clipPathUnits="userSpaceOnUse"><path
         id="path124"
         d="m 478.843,661.094 h 92.359 v 107.717 h -92.359 z" /></clipPath><clipPath
       id="clipPath138"
       clipPathUnits="userSpaceOnUse"><path
         id="path136"
         d="m 478.843,661.094 h 92.359 v 107.717 h -92.359 z" /></clipPath><clipPath
       id="clipPath150"
       clipPathUnits="userSpaceOnUse"><path
         id="path148"
         d="m 478.843,661.094 h 92.359 v 107.717 h -92.359 z" /></clipPath><clipPath
       id="clipPath162"
       clipPathUnits="userSpaceOnUse"><path
         id="path160"
         d="m 478.843,661.094 h 92.359 v 107.717 h -92.359 z" /></clipPath><clipPath
       id="clipPath174"
       clipPathUnits="userSpaceOnUse"><path
         id="path172"
         d="m 478.843,661.094 h 92.359 v 107.717 h -92.359 z" /></clipPath><clipPath
       id="clipPath186"
       clipPathUnits="userSpaceOnUse"><path
         id="path184"
         d="m 478.843,661.094 h 92.359 v 107.717 h -92.359 z" /></clipPath><clipPath
       id="clipPath198"
       clipPathUnits="userSpaceOnUse"><path
         id="path196"
         d="m 478.843,661.094 h 92.359 v 107.717 h -92.359 z" /></clipPath><clipPath
       id="clipPath210"
       clipPathUnits="userSpaceOnUse"><path
         id="path208"
         d="m 478.843,661.094 h 92.359 v 107.717 h -92.359 z" /></clipPath><clipPath
       id="clipPath222"
       clipPathUnits="userSpaceOnUse"><path
         id="path220"
         d="m 478.843,661.094 h 92.359 v 107.717 h -92.359 z" /></clipPath><clipPath
       id="clipPath234"
       clipPathUnits="userSpaceOnUse"><path
         id="path232"
         d="m 478.843,661.094 h 92.359 v 107.717 h -92.359 z" /></clipPath><clipPath
       id="clipPath246"
       clipPathUnits="userSpaceOnUse"><path
         id="path244"
         d="m 478.843,661.094 h 92.359 v 107.717 h -92.359 z" /></clipPath><clipPath
       id="clipPath258"
       clipPathUnits="userSpaceOnUse"><path
         id="path256"
         d="m 478.843,661.094 h 92.359 v 107.717 h -92.359 z" /></clipPath><clipPath
       id="clipPath270"
       clipPathUnits="userSpaceOnUse"><path
         id="path268"
         d="m 478.843,661.094 h 92.359 v 107.717 h -92.359 z" /></clipPath><clipPath
       id="clipPath282"
       clipPathUnits="userSpaceOnUse"><path
         id="path280"
         d="m 478.843,661.094 h 92.359 v 107.717 h -92.359 z" /></clipPath><clipPath
       id="clipPath294"
       clipPathUnits="userSpaceOnUse"><path
         id="path292"
         d="m 478.843,661.094 h 92.359 v 107.717 h -92.359 z" /></clipPath><clipPath
       id="clipPath306"
       clipPathUnits="userSpaceOnUse"><path
         id="path304"
         d="m 478.843,661.094 h 92.359 v 107.717 h -92.359 z" /></clipPath><clipPath
       id="clipPath318"
       clipPathUnits="userSpaceOnUse"><path
         id="path316"
         d="m 478.843,661.094 h 92.359 v 107.717 h -92.359 z" /></clipPath><clipPath
       id="clipPath330"
       clipPathUnits="userSpaceOnUse"><path
         id="path328"
         d="m 478.843,661.094 h 92.359 v 107.717 h -92.359 z" /></clipPath><clipPath
       id="clipPath342"
       clipPathUnits="userSpaceOnUse"><path
         id="path340"
         d="m 478.843,661.094 h 92.359 v 107.717 h -92.359 z" /></clipPath><clipPath
       id="clipPath354"
       clipPathUnits="userSpaceOnUse"><path
         id="path352"
         d="m 478.843,661.094 h 92.359 v 107.717 h -92.359 z" /></clipPath><clipPath
       id="clipPath366"
       clipPathUnits="userSpaceOnUse"><path
         id="path364"
         d="m 478.843,661.094 h 92.359 v 107.717 h -92.359 z" /></clipPath></defs><g
     transform="matrix(1.3333333,0,0,-1.3333333,0,1056)"
     id="g10"><g
       transform="matrix(8.8821411,0,0,8.8821411,-4371.2735,-6043.0404)"
       id="g12"><g
         clip-path="url(#clipPath18)"
         id="g14"><g
           transform="translate(556.82683,727.92522)"
           id="g20"><path
             id="path22"
             style="fill:#000000;fill-opacity:1;fill-rule:evenodd;stroke:none"
             d="m 0,0 -0.188,-1.643 c -2.414,-16.823 -14.633,-30.783 -31.544,-34.267 -16.743,3.449 -28.644,17.725 -31.543,34.079 l -0.189,1.55 -0.141,1.548 V 40.885 H 0.094 V 1.643 Z" /></g></g></g><g
       transform="matrix(8.8821411,0,0,8.8821411,-4371.2735,-6043.0404)"
       id="g24"><g
         clip-path="url(#clipPath30)"
         id="g26"><g
           transform="translate(556.70354,727.93321)"
           id="g32"><path
             id="path34"
             style="fill:#ffffff;fill-opacity:1;fill-rule:evenodd;stroke:none"
             d="m 0,0 -0.188,-1.638 c -2.404,-16.768 -14.576,-30.684 -31.42,-34.156 -16.679,3.438 -28.534,17.667 -31.421,33.969 l -0.188,1.544 -0.141,1.544 V 40.754 H 0.094 V 1.637 Z" /></g></g></g><g
       transform="matrix(8.8821411,0,0,8.8821411,-4371.2735,-6043.0404)"
       id="g36"><g
         clip-path="url(#clipPath42)"
         id="g38"><g
           transform="translate(556.04534,727.9782)"
           id="g44"><path
             id="path46"
             style="fill:#000000;fill-opacity:1;fill-rule:evenodd;stroke:none"
             d="m 0,0 -0.184,-1.609 c -2.365,-16.549 -14.229,-30.143 -30.767,-33.564 -16.373,3.387 -27.928,17.295 -30.767,33.38 l -0.184,1.517 -0.138,1.517 V 40.045 H 0.092 V 1.609 Z" /></g></g></g><g
       transform="matrix(8.8821411,0,0,8.8821411,-4371.2735,-6043.0404)"
       id="g48"><g
         clip-path="url(#clipPath54)"
         id="g50"><g
           transform="translate(544.37364,704.13793)"
           id="g56"><path
             id="path58"
             style="fill:#0095da;fill-opacity:1;fill-rule:evenodd;stroke:none"
             d="m 0,0 c -12.749,6.327 -25.5,6.521 -38.249,-0.015 -5.745,6.033 -9.649,13.923 -11.153,22.196 l -0.184,1.517 -0.138,1.471 V 63.238 H 11.12 V 25.537 L 11.028,23.974 10.844,22.365 C 9.633,13.892 5.771,6.003 0,0" /></g></g></g><g
       transform="matrix(8.8821411,0,0,8.8821411,-4371.2735,-6043.0404)"
       id="g60"><g
         clip-path="url(#clipPath66)"
         id="g62"><g
           transform="translate(503.68905,725.32921)"
           id="g68"><path
             id="path70"
             style="fill:#000000;fill-opacity:1;fill-rule:evenodd;stroke:none"
             d="m 0,0 -0.134,0.176 -0.113,0.186 -0.168,0.393 -0.098,0.41 c -0.025,0.214 -0.036,0.414 -0.034,0.63 0.013,0.214 0.035,0.42 0.068,0.632 0.085,0.428 0.203,0.825 0.356,1.232 C 0.055,4.101 0.258,4.517 0.496,4.93 0.644,5.175 0.798,5.408 0.97,5.637 L 1.634,6.468 C 1.798,6.028 1.973,5.591 2.113,5.142 2.225,4.741 2.299,4.352 2.341,3.938 2.354,3.752 2.361,3.57 2.362,3.384 2.351,2.991 2.309,2.624 2.228,2.239 2.161,1.974 2.081,1.726 1.983,1.471 1.868,1.208 1.742,0.968 1.594,0.722 L 1.342,0.361 C 1.083,0.039 0.799,-0.247 0.513,-0.545 Z" /></g></g></g><g
       transform="matrix(8.8821411,0,0,8.8821411,-4371.2735,-6043.0404)"
       id="g72"><g
         clip-path="url(#clipPath78)"
         id="g74"><g
           transform="translate(511.02796,727.23619)"
           id="g80"><path
             id="path82"
             style="fill:#000000;fill-opacity:1;fill-rule:evenodd;stroke:none"
             d="m 0,0 -0.346,-0.067 c -0.188,-0.012 -0.364,-0.011 -0.552,0 -0.202,0.021 -0.397,0.051 -0.597,0.089 -0.439,0.099 -0.849,0.229 -1.268,0.396 -0.283,0.124 -0.552,0.256 -0.822,0.408 -0.193,0.118 -0.375,0.24 -0.558,0.376 L -4.472,1.49 c -0.153,0.161 -0.279,0.314 -0.404,0.497 l -0.104,0.187 -0.083,0.199 -0.06,0.209 -0.032,0.22 -10e-4,0.652 0.815,0.085 c 0.189,-0.002 0.368,-0.014 0.555,-0.036 0.188,-0.032 0.367,-0.071 0.551,-0.119 0.374,-0.115 0.717,-0.257 1.067,-0.432 l 0.34,-0.189 C -1.225,2.399 -0.691,1.984 -0.19,1.49 -0.03,1.324 0.12,1.157 0.265,0.98 L 0.787,0.301 Z" /></g></g></g><g
       transform="matrix(8.8821411,0,0,8.8821411,-4371.2735,-6043.0404)"
       id="g84"><g
         clip-path="url(#clipPath90)"
         id="g86"><g
           transform="translate(513.75725,724.62492)"
           id="g92"><path
             id="path94"
             style="fill:#000000;fill-opacity:1;fill-rule:evenodd;stroke:none"
             d="m 0,0 -0.29,-0.141 c -0.666,-0.205 -1.384,-0.197 -2.074,-0.162 -0.46,0.035 -0.905,0.092 -1.358,0.181 -0.219,0.051 -0.433,0.106 -0.648,0.17 -0.273,0.094 -0.519,0.197 -0.774,0.332 l -0.333,0.229 -0.149,0.136 -0.133,0.156 -0.497,0.771 1.015,0.223 c 0.685,0.12 1.366,0.166 2.061,0.16 0.421,-0.012 0.827,-0.045 1.243,-0.109 0.269,-0.051 0.523,-0.112 0.784,-0.193 L -0.79,1.609 c 0.178,-0.09 0.334,-0.182 0.497,-0.296 L -0.009,1.051 0.113,0.897 0.44,0.368 Z" /></g></g></g><g
       transform="matrix(8.8821411,0,0,8.8821411,-4371.2735,-6043.0404)"
       id="g96"><g
         clip-path="url(#clipPath102)"
         id="g98"><g
           transform="translate(505.01046,721.31322)"
           id="g104"><path
             id="path106"
             style="fill:#000000;fill-opacity:1;fill-rule:evenodd;stroke:none"
             d="m 0,0 c -0.055,0.168 -0.095,0.326 -0.127,0.5 -0.023,0.179 -0.036,0.352 -0.041,0.532 0.005,0.384 0.046,0.743 0.116,1.12 L 0.037,2.53 C 0.196,3.096 0.402,3.61 0.696,4.121 0.826,4.327 0.96,4.515 1.117,4.703 1.238,4.832 1.358,4.946 1.494,5.059 L 1.781,5.261 2.175,5.213 2.393,5.026 2.492,4.863 C 2.549,4.719 2.586,4.589 2.617,4.436 2.747,3.551 2.664,2.639 2.467,1.77 L 2.336,1.318 C 2.254,1.094 2.167,0.888 2.06,0.676 L 1.81,0.288 1.66,0.112 1.491,-0.049 1.302,-0.191 1.093,-0.309 0.865,-0.398 0.226,-0.546 Z" /></g></g></g><g
       transform="matrix(8.8821411,0,0,8.8821411,-4371.2735,-6043.0404)"
       id="g108"><g
         clip-path="url(#clipPath114)"
         id="g110"><g
           transform="translate(508.75275,717.05529)"
           id="g116"><path
             id="path118"
             style="fill:#000000;fill-opacity:1;fill-rule:evenodd;stroke:none"
             d="m 0,0 -0.138,0.147 -0.224,0.329 c -0.093,0.187 -0.167,0.365 -0.235,0.562 -0.061,0.208 -0.11,0.411 -0.152,0.624 -0.073,0.451 -0.108,0.89 -0.117,1.347 l 0.007,0.451 c 0.033,0.608 0.1,1.191 0.282,1.774 0.06,0.16 0.122,0.3 0.205,0.448 L -0.274,5.819 0.173,6.271 0.767,5.695 C 0.877,5.555 0.973,5.418 1.066,5.267 1.22,4.988 1.336,4.715 1.439,4.415 1.516,4.157 1.576,3.905 1.625,3.64 1.656,3.433 1.679,3.231 1.695,3.023 1.71,2.663 1.699,2.323 1.66,1.965 1.627,1.751 1.586,1.546 1.534,1.335 1.471,1.125 1.402,0.929 1.318,0.727 1.221,0.526 1.12,0.344 1,0.156 L 0.555,-0.449 Z" /></g></g></g><g
       transform="matrix(8.8821411,0,0,8.8821411,-4371.2735,-6043.0404)"
       id="g120"><g
         clip-path="url(#clipPath126)"
         id="g122"><g
           transform="translate(510.82915,722.58202)"
           id="g128"><path
             id="path130"
             style="fill:#000000;fill-opacity:1;fill-rule:evenodd;stroke:none"
             d="M 0,0 0.355,0.292 C 0.543,0.418 0.725,0.524 0.929,0.625 1.13,0.71 1.323,0.779 1.533,0.841 1.739,0.89 1.939,0.926 2.149,0.954 2.356,0.972 2.557,0.98 2.764,0.98 3.168,0.964 3.547,0.915 3.942,0.83 4.303,0.741 4.642,0.632 4.986,0.492 5.186,0.404 5.378,0.31 5.57,0.204 L 6.389,-0.285 5.539,-0.874 5.119,-1.106 C 4.896,-1.204 4.679,-1.285 4.447,-1.359 4.214,-1.421 3.985,-1.473 3.748,-1.516 3.281,-1.584 2.831,-1.612 2.359,-1.608 l -0.435,0.021 c -0.585,0.051 -1.167,0.134 -1.709,0.373 l -0.246,0.15 -0.124,0.118 -0.116,0.184 -0.077,0.412 z" /></g></g></g><g
       transform="matrix(8.8821411,0,0,8.8821411,-4371.2735,-6043.0404)"
       id="g132"><g
         clip-path="url(#clipPath138)"
         id="g134"><g
           transform="translate(517.90355,715.97252)"
           id="g140"><path
             id="path142"
             style="fill:#000000;fill-opacity:1;fill-rule:evenodd;stroke:none"
             d="M 0,0 0.446,0.113 C 0.67,0.146 0.879,0.164 1.106,0.168 1.325,0.159 1.529,0.139 1.745,0.105 1.953,0.061 2.149,0.009 2.351,-0.056 2.545,-0.128 2.73,-0.206 2.918,-0.295 3.277,-0.482 3.598,-0.688 3.919,-0.934 4.065,-1.053 4.206,-1.175 4.346,-1.303 4.633,-1.582 4.888,-1.869 5.123,-2.195 l 0.532,-0.792 -1.021,-0.17 -0.478,-0.03 c -0.244,0.007 -0.475,0.026 -0.716,0.059 -0.238,0.043 -0.466,0.094 -0.7,0.156 -0.451,0.138 -0.87,0.305 -1.294,0.51 l -0.385,0.205 c -0.507,0.297 -0.998,0.62 -1.385,1.067 l -0.158,0.241 -0.062,0.16 -0.026,0.215 0.106,0.406 z" /></g></g></g><g
       transform="matrix(8.8821411,0,0,8.8821411,-4371.2735,-6043.0404)"
       id="g144"><g
         clip-path="url(#clipPath150)"
         id="g146"><g
           transform="translate(519.75666,718.32073)"
           id="g152"><path
             id="path154"
             style="fill:#000000;fill-opacity:1;fill-rule:evenodd;stroke:none"
             d="m 0,0 c -0.17,-0.08 -0.337,-0.148 -0.514,-0.211 -0.311,-0.094 -0.61,-0.157 -0.931,-0.201 -0.331,-0.033 -0.65,-0.044 -0.982,-0.036 -0.199,0.011 -0.395,0.027 -0.593,0.049 -0.46,0.065 -0.891,0.162 -1.332,0.308 -0.298,0.108 -0.572,0.229 -0.851,0.38 -0.395,0.238 -0.755,0.525 -1.127,0.798 0.389,0.193 0.771,0.403 1.177,0.557 1.049,0.348 2.182,0.413 3.272,0.267 C -1.604,1.865 -1.343,1.806 -1.074,1.727 -0.878,1.658 -0.696,1.584 -0.509,1.495 -0.326,1.395 -0.166,1.292 0,1.167 L 0.153,1.032 0.749,0.406 Z" /></g></g></g><g
       transform="matrix(8.8821411,0,0,8.8821411,-4371.2735,-6043.0404)"
       id="g156"><g
         clip-path="url(#clipPath162)"
         id="g158"><g
           transform="translate(512.14756,713.87468)"
           id="g164"><path
             id="path166"
             style="fill:#000000;fill-opacity:1;fill-rule:evenodd;stroke:none"
             d="m 0,0 -0.149,0.147 -0.25,0.331 C -0.507,0.664 -0.594,0.844 -0.677,1.042 -0.75,1.248 -0.811,1.45 -0.865,1.662 -0.96,2.103 -1.013,2.53 -1.038,2.98 l -0.008,0.437 c 0.012,0.583 0.064,1.142 0.227,1.705 0.053,0.153 0.11,0.288 0.187,0.431 L -0.54,5.686 -0.165,6.081 0.266,5.815 C 0.545,5.55 0.727,5.205 0.898,4.865 1.065,4.513 1.199,4.164 1.315,3.793 1.394,3.504 1.455,3.222 1.502,2.926 1.529,2.688 1.545,2.459 1.55,2.219 L 1.522,1.731 C 1.485,1.473 1.436,1.236 1.366,0.985 L 1.173,0.491 1.047,0.248 0.602,-0.474 Z" /></g></g></g><g
       transform="matrix(8.8821411,0,0,8.8821411,-4371.2735,-6043.0404)"
       id="g168"><g
         clip-path="url(#clipPath174)"
         id="g170"><g
           transform="translate(515.84674,710.95452)"
           id="g176"><path
             id="path178"
             style="fill:#000000;fill-opacity:1;fill-rule:evenodd;stroke:none"
             d="M 0,0 -0.18,0.129 -0.339,0.278 -0.603,0.62 C -0.718,0.817 -0.811,1.007 -0.9,1.216 -0.981,1.438 -1.049,1.656 -1.111,1.883 -1.222,2.361 -1.291,2.828 -1.333,3.317 L -1.355,3.79 c -0.004,0.494 0.018,0.965 0.113,1.451 0.044,0.173 0.092,0.325 0.163,0.49 l 0.089,0.152 0.125,0.15 0.399,0.286 L 0.003,6.024 0.182,5.88 0.343,5.721 0.617,5.363 0.835,4.966 C 0.927,4.752 1.003,4.544 1.073,4.321 1.132,4.094 1.182,3.87 1.224,3.639 1.291,3.178 1.323,2.732 1.323,2.267 L 1.305,1.835 C 1.269,1.397 1.211,0.984 1.081,0.563 1.023,0.409 0.963,0.282 0.878,0.142 L 0.537,-0.273 Z" /></g></g></g><g
       transform="matrix(8.8821411,0,0,8.8821411,-4371.2735,-6043.0404)"
       id="g180"><g
         clip-path="url(#clipPath186)"
         id="g182"><g
           transform="translate(504.20585,725.54381)"
           id="g188"><path
             id="path190"
             style="fill:#3c8476;fill-opacity:1;fill-rule:evenodd;stroke:none"
             d="M 0,0 C -1.328,1.273 0.093,4.169 0.949,5.204 1.509,3.755 1.613,1.606 0,0" /></g></g></g><g
       transform="matrix(8.8821411,0,0,8.8821411,-4371.2735,-6043.0404)"
       id="g192"><g
         clip-path="url(#clipPath198)"
         id="g194"><g
           transform="translate(510.97146,727.77519)"
           id="g200"><path
             id="path202"
             style="fill:#3c8476;fill-opacity:1;fill-rule:evenodd;stroke:none"
             d="M 0,0 C -0.987,-0.464 -4.69,0.842 -4.575,2.45 -2.996,2.691 -0.91,1.221 0,0" /></g></g></g><g
       transform="matrix(8.8821411,0,0,8.8821411,-4371.2735,-6043.0404)"
       id="g204"><g
         clip-path="url(#clipPath210)"
         id="g206"><g
           transform="translate(513.51274,725.10308)"
           id="g212"><path
             id="path214"
             style="fill:#3c8476;fill-opacity:1;fill-rule:evenodd;stroke:none"
             d="M 0,0 C -0.476,-0.509 -4.51,-0.364 -5.165,0.847 -3.863,1.157 -0.696,1.29 0,0" /></g></g></g><g
       transform="matrix(8.8821411,0,0,8.8821411,-4371.2735,-6043.0404)"
       id="g216"><g
         clip-path="url(#clipPath222)"
         id="g218"><g
           transform="translate(505.55056,721.37736)"
           id="g224"><path
             id="path226"
             style="fill:#3c8476;fill-opacity:1;fill-rule:evenodd;stroke:none"
             d="M 0,0 C -0.564,1.209 0.243,3.919 1.378,4.653 1.781,4.743 1.868,0.29 0,0" /></g></g></g><g
       transform="matrix(8.8821411,0,0,8.8821411,-4371.2735,-6043.0404)"
       id="g228"><g
         clip-path="url(#clipPath234)"
         id="g230"><g
           transform="translate(509.21065,717.35832)"
           id="g236"><path
             id="path238"
             style="fill:#3c8476;fill-opacity:1;fill-rule:evenodd;stroke:none"
             d="M 0,0 C -1.124,0.78 -0.918,4.701 -0.271,5.237 0.729,4.369 1.228,1.56 0,0" /></g></g></g><g
       transform="matrix(8.8821411,0,0,8.8821411,-4371.2735,-6043.0404)"
       id="g240"><g
         clip-path="url(#clipPath246)"
         id="g242"><g
           transform="translate(511.04676,722.05791)"
           id="g248"><path
             id="path250"
             style="fill:#3c8476;fill-opacity:1;fill-rule:evenodd;stroke:none"
             d="M 0,0 C 1.481,1.594 4.034,0.933 5.205,0.206 3.479,-1.087 -0.022,-0.457 0,0" /></g></g></g><g
       transform="matrix(8.8821411,0,0,8.8821411,-4371.2735,-6043.0404)"
       id="g252"><g
         clip-path="url(#clipPath258)"
         id="g254"><g
           transform="translate(517.87586,715.4052)"
           id="g260"><path
             id="path262"
             style="fill:#3c8476;fill-opacity:1;fill-rule:evenodd;stroke:none"
             d="M 0,0 C 2.02,0.809 4.046,-0.879 4.795,-2.037 2.681,-2.469 -0.215,-0.404 0,0" /></g></g></g><g
       transform="matrix(8.8821411,0,0,8.8821411,-4371.2735,-6043.0404)"
       id="g264"><g
         clip-path="url(#clipPath270)"
         id="g266"><g
           transform="translate(519.65485,718.86077)"
           id="g272"><path
             id="path274"
             style="fill:#3c8476;fill-opacity:1;fill-rule:evenodd;stroke:none"
             d="M 0,0 C -1.402,-0.814 -3.976,-0.512 -5.225,0.459 -4.156,1.029 -1.105,1.27 0,0" /></g></g></g><g
       transform="matrix(8.8821411,0,0,8.8821411,-4371.2735,-6043.0404)"
       id="g276"><g
         clip-path="url(#clipPath282)"
         id="g278"><g
           transform="translate(512.61196,714.17583)"
           id="g284"><path
             id="path286"
             style="fill:#3c8476;fill-opacity:1;fill-rule:evenodd;stroke:none"
             d="M 0,0 C -1.297,0.901 -1.133,4.602 -0.543,5.111 -0.344,5.045 1.452,2.172 0,0" /></g></g></g><g
       transform="matrix(8.8821411,0,0,8.8821411,-4371.2735,-6043.0404)"
       id="g288"><g
         clip-path="url(#clipPath294)"
         id="g290"><g
           transform="translate(516.24616,711.3388)"
           id="g296"><path
             id="path298"
             style="fill:#3c8476;fill-opacity:1;fill-rule:evenodd;stroke:none"
             d="M 0,0 C -1.394,0.571 -1.499,4.978 -0.846,5.304 0.756,4.419 0.544,0.547 0,0" /></g></g></g><g
       transform="matrix(8.8821411,0,0,8.8821411,-4371.2735,-6043.0404)"
       id="g300"><g
         clip-path="url(#clipPath306)"
         id="g302"><g
           transform="translate(505.57586,735.51658)"
           id="g308"><path
             id="path310"
             style="fill:#000000;fill-opacity:1;fill-rule:nonzero;stroke:none"
             d="m 0,0 c 0,-0.047 0.002,-0.228 0.004,-0.376 0.001,-0.087 0.002,-0.155 0.003,-0.196 v -0.002 0.002 -0.002 c 0.07,-8.669 4.04,-12.079 9.733,-16.97 0.782,-0.672 1.598,-1.373 2.463,-2.139 0.101,-0.089 0.202,-0.178 0.024,-0.38 -0.178,-0.201 -0.279,-0.112 -0.38,-0.023 -0.833,0.738 -1.662,1.45 -2.457,2.133 -5.804,4.986 -9.852,8.463 -9.924,17.376 v 0.001 c 0,0.017 -0.001,0.104 -0.002,0.193 -0.001,0.148 -0.004,0.331 -0.004,0.383 0,0.135 0,0.27 0.27,0.27 C 0,0.27 0,0.135 0,0" /></g></g></g><g
       transform="matrix(8.8821411,0,0,8.8821411,-4371.2735,-6043.0404)"
       id="g312"><g
         clip-path="url(#clipPath318)"
         id="g314"><g
           transform="translate(535.85475,764.58549)"
           id="g320"><path
             id="path322"
             style="fill:#000000;fill-opacity:1;fill-rule:evenodd;stroke:none"
             d="m 0,0 c 0.551,-2.126 -0.022,-2.369 -0.586,-4.326 0.373,-0.976 0.698,-2.296 0.651,-3.289 -0.051,-1.104 -0.745,-3.081 -0.97,-3.715 0.663,-1.232 0.374,-2.446 0.266,-3.157 1.017,-1.101 0.222,-2.524 0.042,-3.067 0.573,-1.445 -0.54,-3.231 -0.911,-3.777 -0.064,-0.226 0.548,-0.431 0.054,-1.578 -0.423,-0.979 -1.113,-1.995 -1.774,-2.926 0.834,-0.585 1.206,-1.596 1.277,-2.518 -0.107,-0.78 -0.218,-1.755 -0.697,-2.358 0.319,-0.567 1.038,-0.674 1.619,-0.668 2.509,0.025 2.939,1.15 4.647,2.051 1.604,0.846 2.704,0.796 3.867,-0.55 1.76,0.411 3.645,-0.859 3.437,-2.886 1.305,-0.55 2.4,-3.503 1.453,-4.659 1.462,-1.846 2.064,-4.79 -0.825,-5.561 -1.206,-0.195 -2.67,-0.104 -3.87,0.357 -3.812,1.466 -4.318,2.901 -8.555,1.967 -1.387,-0.306 -2.158,-1.409 -3.408,-1.967 -1.903,-0.848 -4.298,-0.855 -6.306,-0.354 -11.419,2.846 -15.509,10.584 -18.705,11.82 -0.225,0.186 -2.099,-0.363 -1.351,1.002 0.567,1.032 0.549,0.811 0.688,1.895 0.443,2.049 1.897,2.433 2.519,2.539 1.718,0.292 3.66,-0.561 5.407,-0.755 0.343,-0.071 1.471,-0.127 1.852,-0.023 -0.027,0.378 -2.699,3.439 -3.169,4.144 -0.779,1.168 -1.854,4.28 -2.317,5.585 -0.622,1.755 -1.548,3.299 -2.572,4.876 -0.91,1.403 -2.141,2.857 -2.607,4.468 -0.141,0.489 0.357,1.398 0.789,1.58 0.132,0.056 1.077,-0.619 1.552,-1.048 0.525,-0.473 0.811,-1.062 1.295,-1.72 0.365,0.057 2.542,-0.105 2.944,-0.302 0.425,-0.208 2.013,-1.355 2.123,-1.523 0.302,-0.231 0.789,0.02 1.052,-0.018 1.089,-0.158 1.852,-0.772 2.544,-1.363 0.15,-0.128 0.51,0.061 0.702,-0.003 0.638,-0.212 1.437,-0.479 1.88,-1.099 1.064,-0.071 1.971,-0.731 2.698,-1.457 1.86,1.966 3.983,4.103 5.761,6.126 0.943,1.073 2.054,1.99 3.086,2.979 0.426,0.55 1.012,0.987 1.296,1.679 0.834,1.188 0.944,2.786 2.395,3.599 0.255,0.143 0.65,0.296 0.727,0" /></g></g></g><g
       transform="matrix(8.8821411,0,0,8.8821411,-4371.2735,-6043.0404)"
       id="g324"><g
         clip-path="url(#clipPath330)"
         id="g326"><g
           transform="translate(535.40265,763.9346)"
           id="g332"><path
             id="path334"
             style="fill:#ffffff;fill-opacity:1;fill-rule:evenodd;stroke:none"
             d="m 0,0 c 0.457,-1.654 -1.065,-3.378 -0.599,-3.889 0.339,-1.497 0.889,-3.925 0.093,-4.982 -0.195,-0.674 -0.762,-1.312 -0.55,-2.003 0.301,-0.514 0.605,-2.051 0.054,-2.962 1.389,-1.553 0.044,-2.352 0.106,-2.926 0.615,-0.459 -0.164,-3.55 -0.971,-3.726 0.054,-0.425 0.436,-0.567 0.49,-1.01 -0.231,-0.869 -0.725,-1.558 -1.204,-2.285 -0.142,-0.408 -0.39,-0.833 -0.816,-1.046 -0.354,-0.603 0.444,-0.745 0.621,-1.188 0.887,-0.869 0.745,-2.181 0.372,-3.21 -0.656,-1.578 -2.412,-1.897 -3.937,-2.163 -0.142,-0.071 0,-0.16 -0.053,-0.284 0.124,-0.195 0.275,-0.127 0.488,-0.198 0.587,-0.108 3.123,1.001 3.307,1.339 0.314,-0.799 2.609,-0.934 4.186,-0.36 1.118,0.407 1.951,1.117 2.891,1.755 0.763,0.23 1.437,0.603 2.182,0.16 0.482,-0.3 0.751,-0.649 1.028,-0.993 1.33,0.728 3.649,-0.617 2.986,-2.252 -0.005,-0.304 0.955,-0.671 1.165,-1.1 0.719,-0.863 0.901,-2.136 0.625,-2.872 -0.239,-0.33 -0.428,-0.753 -0.093,-0.94 1.649,-1.828 1.157,-4.328 -0.16,-4.504 -1.188,-0.443 -2.146,-0.106 -3.334,0 -0.441,0.136 -1.878,0.722 -2.27,1.011 -2.675,1.508 -4.681,1.837 -6.935,1.17 -1.082,-0.213 -1.777,-0.55 -2.749,-1.419 -0.571,-0.473 -1.921,-0.989 -2.945,-1.134 -1.463,-0.085 -2.586,-0.171 -4.079,0.266 -2.111,0.55 -4.223,1.436 -6.121,2.411 -1.748,1.032 -4.646,2.771 -5.976,4.096 -2.398,1.853 -4.994,5.048 -6.608,5.318 -0.266,0.018 -0.641,-0.105 -0.92,0.001 0.231,0.497 0.629,0.941 0.664,1.526 0.904,3.805 2.864,2.57 5.818,2.305 1.419,-0.319 2.82,-0.603 4.328,-0.124 0.38,0.048 0.803,0.283 0.833,0.053 0.015,-0.522 0.162,-1.077 0.178,-1.49 0.058,-0.271 0.239,-0.427 0.372,-0.443 0.266,0.018 0.408,0.248 0.39,0.443 -0.443,1.951 -0.077,4.026 0.349,5.941 0.452,1.436 1.939,5.142 4.032,7.163 1.367,1.68 4.821,4.858 6.66,7.081 2.166,2.08 3.564,3.559 4.337,4.888 0.256,0.588 0.843,2.527 1.703,2.642 C -0.042,0.044 -0.002,0.072 0,0" /></g></g></g><g
       transform="matrix(8.8821411,0,0,8.8821411,-4371.2735,-6043.0404)"
       id="g336"><g
         clip-path="url(#clipPath342)"
         id="g338"><g
           transform="translate(508.06145,755.73759)"
           id="g344"><path
             id="path346"
             style="fill:#ffffff;fill-opacity:1;fill-rule:evenodd;stroke:none"
             d="m 0,0 c 0.124,-0.337 0.568,-0.479 0.887,-0.355 1.33,0.018 2.582,0.043 3.416,-0.95 0.557,-0.48 1.188,-1.411 2.206,-0.929 1.257,-0.111 2.116,-0.812 2.093,-1.082 0.071,-0.337 0.568,-0.266 0.816,-0.39 0.373,0.195 0.797,0.069 1.169,-0.127 0.16,-0.283 0.612,-0.389 0.701,-0.708 0.45,-0.173 0.631,-0.016 0.986,-0.158 0.816,-0.124 1.277,-0.709 1.773,-1.294 -2.984,-3.784 -4.308,-6.316 -4.758,-11.199 l -0.904,-0.171 c -0.731,0.638 -1.212,1.614 -1.984,2.448 -2.45,2.642 -2.963,5.721 -3.882,7.822 -1.277,2.943 -3.335,5.479 -4.913,8.263 -0.142,0.39 -0.018,0.833 0.23,1.171 C -1.224,1.755 -0.638,0.975 0,0" /></g></g></g><g
       transform="matrix(8.8821411,0,0,8.8821411,-4371.2735,-6043.0404)"
       id="g348"><g
         clip-path="url(#clipPath354)"
         id="g350"><g
           transform="translate(508.33715,736.38402)"
           id="g356"><path
             id="path358"
             style="fill:#000000;fill-opacity:1;fill-rule:evenodd;stroke:none"
             d="M 0,0 C -0.709,-0.225 -0.842,0.89 -0.213,1.009 0.458,1.135 0.687,0.218 0,0" /></g></g></g><g
       transform="matrix(8.8821411,0,0,8.8821411,-4371.2735,-6043.0404)"
       id="g360"><g
         clip-path="url(#clipPath366)"
         id="g362"><g
           transform="translate(543.93444,703.68999)"
           id="g368"><path
             id="path370"
             style="fill:#ffcb05;fill-opacity:1;fill-rule:evenodd;stroke:none"
             d="m 0,0 c -12.47,6.237 -24.942,6.439 -37.412,0.021 4.974,-5.075 11.28,-8.772 18.572,-10.174 C -11.478,-8.738 -5.04,-5.077 0,0" /></g></g></g></g></svg>