<?xml version="1.0" encoding="UTF-8" ?>
<!DOCTYPE svg PUBLIC "-//W3C//DTD SVG 1.1//EN" "http://www.w3.org/Graphics/SVG/1.1/DTD/svg11.dtd">
<svg width="400pt" height="478pt" viewBox="0 0 400 478" version="1.1" xmlns="http://www.w3.org/2000/svg">
<g id="#686e83ff">
<path fill="#686e83" opacity="1.00" d=" M 0.00 0.00 L 1.27 0.00 L 1.41 0.75 C 1.20 4.16 1.00 7.58 0.98 11.00 C 1.03 86.33 0.95 161.66 1.03 236.99 C 0.98 240.04 0.65 243.08 0.29 246.12 L 0.00 244.91 L 0.00 0.00 Z" />
</g>
<g id="#30343fff">
<path fill="#30343f" opacity="1.00" d=" M 1.27 0.00 L 399.00 0.00 C 399.00 0.45 399.02 1.35 399.03 1.80 L 398.19 1.63 C 393.81 1.13 389.39 1.36 385.00 1.32 C 264.33 1.33 143.67 1.32 23.00 1.32 C 15.87 1.34 8.74 1.21 1.61 1.56 L 1.41 0.75 L 1.27 0.00 Z" />
</g>
<g id="#48526eff">
<path fill="#48526e" opacity="1.00" d=" M 399.00 0.00 L 400.00 0.00 L 400.00 107.67 C 399.63 102.12 399.17 96.57 399.29 91.00 C 399.58 61.27 398.83 31.54 399.03 1.80 C 399.02 1.35 399.00 0.45 399.00 0.00 Z" />
</g>
<g id="#3c3620ff">
<path fill="#3c3620" opacity="1.00" d=" M 1.41 0.75 L 1.61 1.56 C 2.03 3.33 2.26 5.15 2.28 6.97 C 2.24 65.64 2.26 124.32 2.26 183.00 C 2.34 205.16 2.07 227.33 2.43 249.49 C 2.06 250.20 1.31 251.61 0.94 252.32 C 0.76 250.25 0.55 248.18 0.29 246.12 C 0.65 243.08 0.98 240.04 1.03 236.99 C 0.95 161.66 1.03 86.33 0.98 11.00 C 1.00 7.58 1.20 4.16 1.41 0.75 Z" />
</g>
<g id="#ffd32eff">
<path fill="#ffd32e" opacity="1.00" d=" M 1.61 1.56 C 8.74 1.21 15.87 1.34 23.00 1.32 C 143.67 1.32 264.33 1.33 385.00 1.32 C 389.39 1.36 393.81 1.13 398.19 1.63 C 398.41 73.75 398.45 145.88 398.59 218.00 C 398.54 228.02 398.72 238.05 398.54 248.07 C 397.66 279.93 390.22 311.64 376.41 340.39 C 361.54 371.50 339.61 399.07 313.34 421.32 C 290.37 440.77 264.18 456.56 235.87 466.87 C 225.58 470.55 215.00 473.49 204.21 475.28 C 199.54 476.14 194.92 474.67 190.42 473.60 C 158.86 465.65 129.00 451.37 102.49 432.54 C 74.01 412.28 49.54 386.15 32.29 355.69 C 13.78 323.43 4.16 286.53 2.43 249.49 C 2.07 227.33 2.34 205.16 2.26 183.00 C 2.26 124.32 2.24 65.64 2.28 6.97 C 2.26 5.15 2.03 3.33 1.61 1.56 M 5.48 7.94 C 5.57 85.29 5.47 162.64 5.53 239.99 C 5.78 284.67 18.33 329.54 43.34 366.73 C 63.23 396.64 90.30 421.46 120.98 439.99 C 143.82 453.75 168.71 464.27 194.72 470.25 C 197.43 470.83 200.21 471.58 203.00 471.10 C 213.60 469.46 224.01 466.68 234.13 463.13 C 266.53 451.55 296.18 432.74 321.28 409.28 C 352.23 380.31 375.89 343.19 387.21 302.21 C 393.34 280.39 395.97 257.65 395.56 235.00 C 395.41 158.12 395.34 81.24 395.14 4.35 C 265.78 4.35 136.43 4.31 7.07 4.37 C 5.01 4.04 5.65 6.75 5.48 7.94 Z" />
</g>
<g id="#343c55ff">
<path fill="#343c55" opacity="1.00" d=" M 398.19 1.63 L 399.03 1.80 C 398.83 31.54 399.58 61.27 399.29 91.00 C 399.17 96.57 399.63 102.12 400.00 107.67 L 400.00 256.26 C 398.03 283.03 392.03 309.59 381.15 334.17 C 366.34 368.09 343.18 398.10 315.09 422.09 C 290.25 443.24 261.63 460.22 230.60 470.49 C 220.93 473.92 210.78 475.57 200.85 478.00 L 200.20 478.00 C 194.46 476.04 188.46 475.03 182.65 473.30 C 153.95 465.11 126.78 451.78 102.40 434.59 C 73.09 413.88 47.89 387.05 30.30 355.69 C 12.47 324.20 2.83 288.38 0.94 252.32 C 1.31 251.61 2.06 250.20 2.43 249.49 C 4.16 286.53 13.78 323.43 32.29 355.69 C 49.54 386.15 74.01 412.28 102.49 432.54 C 129.00 451.37 158.86 465.65 190.42 473.60 C 194.92 474.67 199.54 476.14 204.21 475.28 C 215.00 473.49 225.58 470.55 235.87 466.87 C 264.18 456.56 290.37 440.77 313.34 421.32 C 339.61 399.07 361.54 371.50 376.41 340.39 C 390.22 311.64 397.66 279.93 398.54 248.07 C 398.72 238.05 398.54 228.02 398.59 218.00 C 398.45 145.88 398.41 73.75 398.19 1.63 Z" />
</g>
<g id="#363435ff">
<path fill="#363435" opacity="1.00" d=" M 5.48 7.94 C 5.65 6.75 5.01 4.04 7.07 4.37 C 136.43 4.31 265.78 4.35 395.14 4.35 C 395.34 81.24 395.41 158.12 395.56 235.00 C 395.97 257.65 393.34 280.39 387.21 302.21 C 375.89 343.19 352.23 380.31 321.28 409.28 C 296.18 432.74 266.53 451.55 234.13 463.13 C 224.01 466.68 213.60 469.46 203.00 471.10 C 200.21 471.58 197.43 470.83 194.72 470.25 C 168.71 464.27 143.82 453.75 120.98 439.99 C 90.30 421.46 63.23 396.64 43.34 366.73 C 18.33 329.54 5.78 284.67 5.53 239.99 C 5.47 162.64 5.57 85.29 5.48 7.94 M 7.16 6.09 C 7.20 83.39 7.16 160.70 7.18 238.01 C 7.10 282.15 19.03 326.61 43.33 363.65 C 62.10 392.58 87.62 416.88 116.67 435.35 C 141.34 450.97 168.55 462.79 197.12 469.04 C 199.96 469.86 202.92 469.52 205.78 468.95 C 237.21 463.17 266.57 448.85 292.58 430.57 C 323.43 408.67 349.72 380.01 367.58 346.58 C 383.82 316.37 392.79 282.33 393.76 248.06 C 393.94 167.40 393.48 86.74 393.47 6.08 C 360.31 5.76 327.15 6.05 294.00 5.98 C 198.40 6.02 102.77 5.76 7.16 6.09 Z" />
<path fill="#363435" opacity="1.00" d=" M 178.25 120.04 C 178.29 114.47 184.60 110.23 189.78 112.17 C 193.57 113.26 196.10 117.07 196.00 120.96 C 196.37 133.39 195.77 145.82 195.91 158.26 C 190.01 158.28 184.11 158.28 178.20 158.25 C 178.25 145.51 178.10 132.77 178.25 120.04 Z" />
<path fill="#363435" opacity="1.00" d=" M 205.46 120.05 C 205.58 114.60 211.65 110.32 216.82 112.10 C 220.65 113.16 223.38 116.98 223.28 120.94 C 223.37 133.38 223.29 145.81 223.25 158.25 C 217.30 158.28 211.36 158.29 205.41 158.24 C 205.45 145.51 205.23 132.78 205.46 120.05 Z" />
</g>
<g id="#fefefbff">
<path fill="#fefefb" opacity="1.00" d=" M 7.16 6.09 C 102.77 5.76 198.40 6.02 294.00 5.98 C 327.15 6.05 360.31 5.76 393.47 6.08 C 393.48 86.74 393.94 167.40 393.76 248.06 C 392.79 282.33 383.82 316.37 367.58 346.58 C 349.72 380.01 323.43 408.67 292.58 430.57 C 266.57 448.85 237.21 463.17 205.78 468.95 C 202.92 469.52 199.96 469.86 197.12 469.04 C 168.55 462.79 141.34 450.97 116.67 435.35 C 87.62 416.88 62.10 392.58 43.33 363.65 C 19.03 326.61 7.10 282.15 7.18 238.01 C 7.16 160.70 7.20 83.39 7.16 6.09 M 11.70 10.13 C 11.70 86.08 11.69 162.04 11.70 237.99 C 11.90 275.55 20.53 313.31 38.68 346.33 C 56.87 379.88 84.19 408.08 116.05 428.92 C 140.34 444.76 167.27 456.76 195.58 463.21 C 198.59 463.97 201.73 464.14 204.78 463.55 C 218.99 461.16 232.77 456.66 245.98 450.97 C 279.28 436.50 309.23 414.44 333.22 387.20 C 363.06 353.55 382.73 310.79 387.65 265.99 C 389.89 248.08 389.05 230.00 389.18 212.00 C 389.04 144.71 388.70 77.42 388.72 10.13 C 263.04 10.13 137.37 10.14 11.70 10.13 Z" />
</g>
<g id="#363532ff">
<path fill="#363532" opacity="1.00" d=" M 11.70 10.13 C 137.37 10.14 263.04 10.13 388.72 10.13 C 388.70 77.42 389.04 144.71 389.18 212.00 C 389.05 230.00 389.89 248.08 387.65 265.99 C 382.73 310.79 363.06 353.55 333.22 387.20 C 309.23 414.44 279.28 436.50 245.98 450.97 C 232.77 456.66 218.99 461.16 204.78 463.55 C 201.73 464.14 198.59 463.97 195.58 463.21 C 167.27 456.76 140.34 444.76 116.05 428.92 C 84.19 408.08 56.87 379.88 38.68 346.33 C 20.53 313.31 11.90 275.55 11.70 237.99 C 11.69 162.04 11.70 86.08 11.70 10.13 M 16.02 14.06 L 16.10 15.09 C 16.13 83.63 16.09 152.16 16.12 220.69 L 16.21 221.61 C 23.51 221.61 30.81 221.51 38.10 221.72 C 38.20 228.40 38.11 235.08 38.19 241.76 C 41.11 241.80 44.03 241.82 46.95 241.82 C 47.14 215.53 47.09 189.24 47.01 162.95 C 42.06 162.85 37.12 162.84 32.17 162.78 C 31.64 148.80 31.95 134.78 32.06 120.79 C 35.30 120.74 38.54 120.70 41.79 120.66 C 51.38 102.92 60.84 85.10 70.41 67.35 C 73.34 61.74 76.68 56.34 79.12 50.49 C 79.35 49.82 79.80 48.48 80.02 47.81 C 80.46 47.81 81.35 47.82 81.79 47.83 C 82.13 48.30 82.80 49.23 83.13 49.70 L 82.49 50.34 C 94.91 73.78 107.45 97.16 120.19 120.42 L 119.31 120.47 C 122.74 120.97 126.21 121.22 129.68 121.34 C 129.57 135.15 129.57 148.97 129.69 162.78 C 124.77 162.82 119.85 162.84 114.93 162.93 C 114.78 189.22 114.73 215.52 115.02 241.81 C 120.96 241.95 126.91 241.95 132.86 241.79 C 133.04 235.12 132.97 228.44 133.01 221.76 C 137.91 221.64 142.80 221.62 147.69 221.66 C 147.74 176.81 147.72 131.96 147.71 87.12 C 142.81 86.95 137.91 86.95 133.02 86.93 C 132.96 73.23 132.93 59.52 133.02 45.82 C 139.69 45.60 146.37 45.60 153.04 45.81 C 153.14 52.48 153.06 59.15 153.19 65.82 C 159.13 66.03 165.08 66.03 171.02 65.84 C 171.24 59.17 171.19 52.50 171.15 45.83 C 178.08 45.60 185.01 45.63 191.93 45.83 C 192.31 52.13 191.97 58.45 192.08 64.76 L 192.05 65.80 C 197.94 65.90 203.83 65.92 209.72 65.76 C 209.74 59.09 209.68 52.42 209.81 45.75 C 216.53 45.57 223.25 45.57 229.96 45.77 C 229.98 52.44 229.91 59.11 230.12 65.78 C 236.07 65.92 242.01 65.91 247.96 65.78 C 248.17 59.11 248.11 52.44 248.10 45.78 C 254.83 45.56 261.57 45.57 268.31 45.76 C 268.53 59.51 268.50 73.26 268.32 87.01 C 263.55 87.03 258.78 87.04 254.01 87.10 C 253.78 131.83 253.88 176.57 253.95 221.31 C 258.86 221.47 263.79 221.44 268.69 221.89 C 268.79 228.45 268.44 235.02 268.91 241.58 C 274.60 241.55 280.30 241.54 285.99 241.59 C 286.71 215.50 286.54 189.36 286.33 163.26 C 281.45 163.27 276.57 163.27 271.69 163.22 C 271.55 149.09 271.56 134.95 271.69 120.83 C 275.44 120.32 280.98 122.35 282.84 117.85 C 294.25 96.57 305.66 75.29 317.15 54.06 C 317.78 52.77 318.40 51.46 318.75 50.07 C 317.18 47.59 314.42 45.78 313.65 42.85 C 313.42 38.91 317.64 36.68 318.60 33.12 C 319.68 28.75 319.84 24.23 320.61 19.80 C 321.28 24.23 321.12 28.75 321.86 33.17 C 322.98 36.28 326.52 38.00 327.36 41.26 C 327.81 45.02 323.99 47.20 322.28 50.07 C 323.72 54.77 326.56 58.86 328.78 63.19 C 339.04 82.32 349.41 101.39 359.52 120.60 C 362.78 120.71 366.05 120.75 369.33 120.82 C 369.48 134.95 369.47 149.09 369.33 163.22 C 364.44 163.26 359.55 163.27 354.67 163.25 C 354.46 189.36 354.36 215.48 354.75 241.59 C 357.39 241.57 360.04 241.57 362.69 241.59 C 362.73 234.84 362.62 228.08 362.84 221.32 C 370.40 221.19 378.04 221.92 385.54 220.64 C 385.47 220.09 385.31 219.00 385.23 218.45 C 385.79 207.65 385.33 196.82 385.45 186.00 C 385.24 128.70 385.43 71.39 384.91 14.10 C 380.94 13.99 376.97 13.93 373.00 13.95 C 254.01 14.05 135.01 13.81 16.02 14.06 M 318.28 36.92 C 315.39 38.35 313.49 42.35 315.79 45.11 C 317.87 48.91 324.02 48.42 325.58 44.42 C 328.12 40.24 322.56 34.66 318.28 36.92 M 134.47 47.21 C 134.43 59.96 134.46 72.72 134.45 85.47 C 178.59 85.48 222.73 85.51 266.86 85.45 C 266.80 72.71 266.84 59.96 266.84 47.22 C 261.12 47.24 255.40 47.24 249.68 47.22 C 249.66 53.94 249.65 60.65 249.70 67.36 C 242.62 67.41 235.54 67.38 228.47 67.38 C 228.46 60.66 228.43 53.94 228.49 47.22 C 222.75 47.24 217.01 47.24 211.27 47.22 C 211.31 53.94 211.28 60.66 211.28 67.38 C 204.21 67.39 197.15 67.39 190.08 67.38 C 190.12 60.67 190.10 53.96 190.09 47.25 C 184.33 47.22 178.56 47.25 172.80 47.22 C 172.80 53.94 172.78 60.66 172.81 67.37 C 165.74 67.40 158.66 67.39 151.59 67.38 C 151.60 60.66 151.56 53.94 151.62 47.22 C 145.90 47.23 140.18 47.25 134.47 47.21 M 283.46 120.74 C 286.54 120.76 289.62 120.76 292.70 120.77 C 292.67 127.48 292.69 134.19 292.68 140.89 C 298.41 140.88 304.13 140.88 309.86 140.89 C 309.84 134.18 309.84 127.48 309.85 120.77 C 316.96 120.76 324.06 120.75 331.17 120.77 C 331.19 127.47 331.19 134.18 331.16 140.89 C 336.89 140.89 342.62 140.88 348.35 140.89 C 348.35 134.18 348.37 127.48 348.34 120.78 C 351.39 120.76 354.44 120.76 357.50 120.75 C 345.19 97.80 332.87 74.86 320.53 51.93 C 308.06 74.81 295.81 97.80 283.46 120.74 M 43.94 120.72 C 47.02 120.74 50.10 120.74 53.18 120.75 C 53.16 127.46 53.18 134.17 53.16 140.88 C 58.89 140.87 64.61 140.87 70.34 140.88 C 70.34 134.17 70.36 127.46 70.33 120.76 C 77.41 120.72 84.49 120.73 91.57 120.76 C 91.53 127.47 91.55 134.17 91.56 140.88 C 97.29 140.86 103.01 140.87 108.74 140.88 C 108.72 134.17 108.73 127.46 108.73 120.75 C 111.83 120.74 114.93 120.74 118.03 120.71 C 105.64 97.79 93.38 74.80 80.96 51.90 C 68.55 74.80 56.30 97.79 43.94 120.72 M 149.11 87.47 C 149.16 132.04 149.10 176.60 149.13 221.17 C 150.64 221.19 152.14 221.20 153.65 221.23 C 153.56 227.93 153.62 234.64 153.60 241.35 C 159.34 241.35 165.07 241.36 170.81 241.34 C 170.77 234.62 170.79 227.91 170.79 221.19 C 177.90 221.21 185.01 221.17 192.12 221.23 C 192.12 227.93 192.13 234.63 192.11 241.34 C 197.83 241.36 203.55 241.35 209.28 241.34 C 209.26 234.62 209.29 227.91 209.26 221.19 C 216.33 221.19 223.40 221.21 230.47 221.19 C 230.47 227.90 230.50 234.61 230.44 241.33 C 236.19 241.37 241.94 241.36 247.69 241.34 C 247.62 234.63 247.68 227.92 247.66 221.21 C 249.21 221.20 250.76 221.19 252.32 221.18 C 252.30 176.61 252.34 132.04 252.30 87.47 C 217.90 87.50 183.51 87.51 149.11 87.47 M 33.88 122.76 C 33.89 135.56 33.86 148.36 33.90 161.17 C 65.23 161.21 96.55 161.18 127.88 161.18 C 127.90 148.37 127.87 135.56 127.90 122.75 C 122.17 122.75 116.45 122.73 110.73 122.75 C 110.73 129.46 110.71 136.17 110.75 142.87 C 103.68 142.88 96.61 142.87 89.54 142.88 C 89.53 136.17 89.52 129.46 89.55 122.76 C 83.81 122.73 78.07 122.73 72.33 122.76 C 72.35 129.47 72.34 136.17 72.35 142.88 C 65.28 142.87 58.22 142.88 51.16 142.88 C 51.18 136.17 51.18 129.46 51.16 122.76 C 45.40 122.73 39.64 122.74 33.88 122.76 M 273.47 122.78 C 273.50 135.58 273.49 148.38 273.48 161.18 C 304.82 161.23 336.17 161.22 367.51 161.18 C 367.49 148.38 367.48 135.58 367.51 122.79 C 361.79 122.75 356.06 122.75 350.34 122.78 C 350.37 129.48 350.37 136.19 350.35 142.90 C 343.29 142.91 336.23 142.91 329.17 142.90 C 329.17 136.19 329.18 129.48 329.17 122.77 C 323.40 122.75 317.64 122.75 311.87 122.78 C 311.84 129.48 311.86 136.19 311.86 142.89 C 304.80 142.92 297.74 142.91 290.68 142.90 C 290.68 136.19 290.67 129.48 290.69 122.77 C 284.95 122.75 279.21 122.75 273.47 122.78 M 48.52 163.18 C 48.50 189.24 48.50 215.30 48.52 241.35 C 50.93 241.35 53.34 241.35 55.76 241.34 C 55.70 234.62 55.73 227.91 55.73 221.19 C 62.78 221.21 69.83 221.19 76.87 221.19 C 76.87 227.91 76.86 234.62 76.88 241.33 C 82.63 241.36 88.39 241.36 94.15 241.33 C 94.15 234.62 94.16 227.91 94.14 221.20 C 100.56 221.19 106.98 221.20 113.40 221.19 C 113.43 201.85 113.41 182.51 113.41 163.17 C 91.78 163.20 70.15 163.19 48.52 163.18 M 288.11 163.21 C 288.13 182.53 288.10 201.86 288.12 221.19 C 294.50 221.20 300.88 221.20 307.26 221.19 C 307.25 227.90 307.28 234.62 307.24 241.34 C 312.96 241.36 318.68 241.35 324.40 241.35 C 324.39 234.63 324.43 227.91 324.38 221.19 C 331.45 221.20 338.52 221.20 345.60 221.20 C 345.56 227.91 345.58 234.63 345.58 241.35 C 348.01 241.35 350.46 241.35 352.90 241.34 C 352.85 215.30 352.87 189.25 352.89 163.21 C 331.29 163.21 309.70 163.22 288.11 163.21 M 16.15 223.19 C 15.99 240.50 16.22 257.89 19.15 275.00 C 25.00 312.53 40.88 348.52 65.13 377.80 C 65.97 379.12 67.61 378.76 68.93 378.85 C 71.86 378.86 74.80 378.81 77.73 378.81 C 77.67 363.54 77.75 348.27 77.71 333.00 C 77.10 315.35 91.52 298.47 109.08 296.44 C 129.12 294.22 147.86 313.14 146.91 332.96 C 146.91 348.24 146.84 363.52 146.96 378.80 C 150.56 378.82 154.16 378.82 157.76 378.83 C 157.71 359.55 157.80 340.28 157.74 321.01 C 157.07 298.08 176.90 276.24 200.00 275.60 C 224.05 275.19 245.19 298.17 243.79 321.98 C 243.76 340.93 243.79 359.87 243.80 378.82 C 247.32 378.81 250.84 378.81 254.36 378.83 C 254.36 363.54 254.38 348.24 254.36 332.95 C 253.68 314.88 268.93 297.56 287.04 296.34 C 306.66 295.05 324.36 313.60 323.60 332.95 C 323.57 348.24 323.60 363.54 323.60 378.83 C 327.52 378.61 331.57 379.31 335.40 378.45 C 355.31 354.41 370.05 326.04 378.00 295.83 C 384.46 272.21 385.81 247.59 385.24 223.21 C 378.40 223.21 371.56 223.21 364.72 223.20 C 364.72 229.91 364.69 236.63 364.74 243.34 C 357.68 243.39 350.62 243.36 343.56 243.35 C 343.56 236.63 343.54 229.92 343.58 223.20 C 337.85 223.20 332.12 223.20 326.39 223.20 C 326.45 229.92 326.41 236.63 326.42 243.35 C 319.36 243.36 312.29 243.38 305.23 243.34 C 305.27 236.63 305.24 229.92 305.26 223.21 C 299.54 223.21 293.83 223.22 288.11 223.20 C 288.15 229.92 288.12 236.64 288.15 243.35 C 281.04 243.39 273.93 243.38 266.83 243.34 C 266.84 236.63 266.82 229.92 266.84 223.21 C 261.12 223.21 255.40 223.21 249.67 223.19 C 249.68 229.91 249.64 236.62 249.70 243.34 C 242.88 243.27 236.04 243.57 229.23 243.23 L 228.50 242.83 C 228.35 236.29 228.53 229.74 228.45 223.19 C 222.72 223.22 216.99 223.20 211.26 223.21 C 211.29 229.92 211.27 236.64 211.28 243.35 C 204.22 243.36 197.15 243.36 190.08 243.35 C 190.12 236.64 190.10 229.94 190.10 223.23 C 184.33 223.19 178.56 223.21 172.79 223.20 C 172.78 229.92 172.76 236.63 172.81 243.35 C 165.74 243.38 158.66 243.36 151.59 243.35 C 151.60 236.63 151.56 229.92 151.62 223.20 C 145.89 223.20 140.15 223.20 134.42 223.21 C 134.48 229.92 134.45 236.64 134.45 243.35 C 127.38 243.37 120.32 243.38 113.27 243.34 C 113.30 236.63 113.28 229.91 113.28 223.20 C 107.57 223.20 101.86 223.22 96.14 223.20 C 96.17 229.91 96.16 236.63 96.16 243.34 C 89.06 243.37 81.96 243.37 74.85 243.35 C 74.86 236.63 74.84 229.91 74.87 223.20 C 69.16 223.20 63.45 223.21 57.74 223.19 C 57.72 229.91 57.70 236.63 57.75 243.35 C 50.70 243.37 43.64 243.37 36.58 243.35 C 36.57 236.64 36.56 229.92 36.60 223.20 C 29.78 223.20 22.97 223.22 16.15 223.19 M 159.74 321.01 C 159.79 340.27 159.73 359.52 159.75 378.78 C 163.85 378.75 167.95 378.89 172.05 378.54 L 172.24 379.41 C 184.81 378.82 197.42 379.30 210.00 379.13 C 216.21 379.07 222.48 379.62 228.62 378.43 C 228.47 359.29 228.56 340.15 228.56 321.00 C 229.01 307.52 218.65 294.57 205.64 291.49 C 190.79 288.39 176.82 300.69 173.54 314.58 L 173.16 315.71 L 172.13 314.71 C 174.98 300.26 189.36 287.42 204.58 289.73 C 218.92 292.37 230.42 306.34 230.08 320.96 C 230.08 340.23 230.10 359.50 230.08 378.77 C 233.99 378.77 237.89 378.76 241.80 378.77 C 241.78 359.84 241.77 340.91 241.78 321.97 C 243.15 299.22 222.97 277.24 200.00 277.61 C 177.98 278.31 159.11 299.15 159.74 321.01 M 102.87 299.90 C 89.36 304.69 79.22 318.50 79.71 332.98 C 79.74 348.25 79.70 363.52 79.71 378.78 C 83.35 378.77 86.99 378.78 90.64 378.78 C 90.58 364.18 90.65 349.59 90.60 335.00 C 89.92 322.80 100.63 310.82 113.00 310.92 C 124.83 311.73 134.70 323.19 134.15 334.97 C 134.12 349.57 134.18 364.18 134.13 378.78 C 137.72 378.77 141.31 378.78 144.90 378.78 C 144.88 363.17 144.88 347.56 144.90 331.95 C 145.18 319.61 137.31 308.05 126.77 302.11 C 119.60 298.02 110.66 297.08 102.87 299.90 M 256.37 332.95 C 256.37 348.22 256.41 363.50 256.35 378.78 C 259.98 378.77 263.61 378.77 267.24 378.78 C 267.24 364.17 267.28 349.56 267.24 334.95 C 266.54 322.95 276.92 311.26 289.00 310.90 C 301.05 311.30 311.40 322.96 310.71 334.94 C 310.66 349.56 310.73 364.17 310.70 378.79 C 314.34 378.77 317.98 378.77 321.62 378.78 C 321.54 363.50 321.59 348.23 321.58 332.95 C 322.39 314.05 304.37 295.94 285.22 298.52 C 269.02 300.87 255.73 316.52 256.37 332.95 M 92.83 328.71 C 91.90 332.40 91.76 336.22 91.84 340.01 C 92.06 353.03 91.70 366.05 92.04 379.06 C 105.63 379.19 119.22 379.29 132.80 379.01 C 132.87 364.00 132.85 348.99 132.83 333.98 C 132.93 329.96 131.53 326.11 129.32 322.81 C 125.26 316.45 117.80 311.44 110.00 312.57 C 101.84 314.04 94.95 320.76 92.83 328.71 M 270.83 324.88 C 267.78 330.44 268.53 336.91 268.50 343.00 C 268.61 355.02 268.31 367.05 268.64 379.07 C 282.20 379.20 295.76 379.22 309.31 379.06 C 309.64 365.04 309.28 351.02 309.47 337.00 C 309.61 333.11 309.12 329.18 307.45 325.63 C 304.36 318.74 297.67 313.11 290.00 312.43 C 281.83 312.05 274.34 317.79 270.83 324.88 M 67.96 380.80 C 68.16 381.31 68.58 382.32 68.79 382.83 L 69.58 382.74 C 70.97 384.56 72.37 386.37 73.92 388.06 C 103.34 419.60 141.29 443.07 182.58 455.48 C 190.48 457.55 198.60 460.77 206.87 458.96 C 224.70 455.62 241.83 449.15 257.97 440.97 C 284.17 427.33 308.32 409.29 327.85 387.08 C 329.93 385.25 331.78 383.16 333.46 380.95 C 316.65 380.22 299.82 380.79 283.00 380.61 C 240.67 380.66 198.33 380.57 156.00 380.63 C 126.65 380.72 97.30 380.37 67.96 380.80 Z" />
</g>
<g id="#ba534fff">
<path fill="#ba534f" opacity="1.00" d=" M 16.02 14.06 C 135.01 13.81 254.01 14.05 373.00 13.95 C 376.97 13.93 380.94 13.99 384.91 14.10 C 385.43 71.39 385.24 128.70 385.45 186.00 C 385.33 196.82 385.79 207.65 385.23 218.45 C 384.70 215.00 384.35 211.51 384.32 208.02 C 384.51 143.70 384.03 79.39 383.84 15.08 C 261.26 14.99 138.68 14.96 16.10 15.09 L 16.02 14.06 Z" />
</g>
<g id="#e63337ff">
<path fill="#e63337" opacity="1.00" d=" M 16.10 15.09 C 138.68 14.96 261.26 14.99 383.84 15.08 C 384.03 79.39 384.51 143.70 384.32 208.02 C 384.35 211.51 384.70 215.00 385.23 218.45 C 385.31 219.00 385.47 220.09 385.54 220.64 C 378.04 221.92 370.40 221.19 362.84 221.32 C 362.62 228.08 362.73 234.84 362.69 241.59 C 360.04 241.57 357.39 241.57 354.75 241.59 C 354.36 215.48 354.46 189.36 354.67 163.25 C 359.55 163.27 364.44 163.26 369.33 163.22 C 369.47 149.09 369.48 134.95 369.33 120.82 C 366.05 120.75 362.78 120.71 359.52 120.60 C 349.41 101.39 339.04 82.32 328.78 63.19 C 326.56 58.86 323.72 54.77 322.28 50.07 C 323.99 47.20 327.81 45.02 327.36 41.26 C 326.52 38.00 322.98 36.28 321.86 33.17 C 321.12 28.75 321.28 24.23 320.61 19.80 C 319.84 24.23 319.68 28.75 318.60 33.12 C 317.64 36.68 313.42 38.91 313.65 42.85 C 314.42 45.78 317.18 47.59 318.75 50.07 C 318.40 51.46 317.78 52.77 317.15 54.06 C 305.66 75.29 294.25 96.57 282.84 117.85 C 280.98 122.35 275.44 120.32 271.69 120.83 C 271.56 134.95 271.55 149.09 271.69 163.22 C 276.57 163.27 281.45 163.27 286.33 163.26 C 286.54 189.36 286.71 215.50 285.99 241.59 C 280.30 241.54 274.60 241.55 268.91 241.58 C 268.44 235.02 268.79 228.45 268.69 221.89 C 268.66 221.52 268.61 220.78 268.59 220.41 C 264.01 220.22 259.43 220.29 254.86 220.22 C 254.45 181.81 254.85 143.40 254.66 105.00 C 254.61 99.44 254.71 93.89 254.92 88.34 C 259.49 88.37 264.13 88.72 268.65 87.84 C 270.04 85.13 269.66 81.97 269.76 79.03 C 269.48 67.72 269.75 56.42 269.58 45.11 C 262.08 44.31 254.53 44.37 247.02 44.91 C 246.81 51.51 246.77 58.12 246.77 64.73 C 241.62 64.76 236.46 64.76 231.30 64.72 C 231.41 58.09 231.36 51.46 231.07 44.84 C 223.70 44.37 216.30 44.38 208.93 44.82 C 208.64 51.44 208.59 58.07 208.69 64.69 C 203.15 64.72 197.62 64.74 192.08 64.76 C 191.97 58.45 192.31 52.13 191.93 45.83 L 191.83 44.85 C 184.66 44.22 177.45 44.55 170.27 44.92 C 170.31 51.55 170.28 58.18 170.05 64.81 C 164.80 64.85 159.55 64.84 154.31 64.79 C 154.40 58.14 154.36 51.50 154.11 44.86 C 146.71 44.44 139.30 44.44 131.91 44.87 C 131.51 59.25 131.49 73.66 131.92 88.05 C 136.85 88.21 141.77 88.30 146.70 88.34 C 146.62 132.42 146.62 176.51 146.70 220.59 C 141.77 220.58 136.83 220.65 131.89 220.83 C 131.64 227.48 131.61 234.14 131.70 240.80 C 126.49 240.83 121.29 240.83 116.09 240.80 C 115.54 215.16 115.50 189.50 115.87 163.86 C 120.79 163.74 125.71 163.67 130.63 163.63 C 130.56 149.14 130.56 134.66 130.63 120.17 C 127.15 120.17 123.67 120.23 120.19 120.42 C 107.45 97.16 94.91 73.78 82.49 50.34 L 83.13 49.70 C 85.09 47.45 88.13 45.32 88.19 42.09 C 87.01 38.47 84.32 35.52 83.38 31.81 C 82.30 27.72 81.78 23.52 80.66 19.44 C 80.52 21.15 80.40 22.85 80.31 24.56 C 80.03 28.04 79.64 31.52 78.97 34.95 C 76.84 36.91 73.79 38.79 73.66 41.99 C 74.15 45.46 77.02 47.90 79.12 50.49 C 76.68 56.34 73.34 61.74 70.41 67.35 C 60.84 85.10 51.38 102.92 41.79 120.66 C 38.54 120.70 35.30 120.74 32.06 120.79 C 31.95 134.78 31.64 148.80 32.17 162.78 L 32.30 163.62 C 36.85 163.92 41.43 163.85 45.99 163.92 C 46.26 183.61 45.91 203.30 46.15 223.00 C 46.24 228.95 46.19 234.90 45.93 240.85 C 43.73 240.83 41.53 240.82 39.32 240.81 C 39.39 234.14 39.37 227.48 39.13 220.81 C 31.46 220.47 23.79 220.50 16.12 220.69 C 16.09 152.16 16.13 83.63 16.10 15.09 Z" />
<path fill="#e63337" opacity="1.00" d=" M 173.54 314.58 C 176.82 300.69 190.79 288.39 205.64 291.49 C 218.65 294.57 229.01 307.52 228.56 321.00 C 228.56 340.15 228.47 359.29 228.62 378.43 C 210.50 377.39 192.33 378.45 174.19 377.91 C 174.09 365.94 174.23 353.97 174.17 342.00 C 174.09 332.86 174.59 323.69 173.54 314.58 Z" />
<path fill="#e63337" opacity="1.00" d=" M 92.83 328.71 C 94.95 320.76 101.84 314.04 110.00 312.57 C 117.80 311.44 125.26 316.45 129.32 322.81 C 131.36 329.33 131.62 336.22 131.46 343.00 C 131.19 354.65 131.67 366.29 131.18 377.94 C 118.48 377.92 105.78 377.98 93.07 377.90 C 92.81 361.50 93.26 345.10 92.83 328.71 Z" />
<path fill="#e63337" opacity="1.00" d=" M 270.83 324.88 C 274.34 317.79 281.83 312.05 290.00 312.43 C 297.67 313.11 304.36 318.74 307.45 325.63 C 308.31 332.72 308.35 339.87 308.30 347.00 C 308.17 357.27 308.52 367.54 308.07 377.81 C 295.35 377.74 282.64 377.77 269.92 377.79 C 269.45 367.53 269.82 357.26 269.68 347.00 C 269.60 339.62 269.63 332.19 270.83 324.88 Z" />
</g>
<g id="#955f43ff">
<path fill="#955f43" opacity="1.00" d=" M 80.66 19.44 C 81.78 23.52 82.30 27.72 83.38 31.81 C 84.32 35.52 87.01 38.47 88.19 42.09 C 88.13 45.32 85.09 47.45 83.13 49.70 C 82.80 49.23 82.13 48.30 81.79 47.83 C 84.34 46.31 87.33 43.65 85.97 40.34 C 84.73 36.00 78.21 35.46 76.29 39.55 C 74.16 42.92 77.28 46.15 80.02 47.81 C 79.80 48.48 79.35 49.82 79.12 50.49 C 77.02 47.90 74.15 45.46 73.66 41.99 C 73.79 38.79 76.84 36.91 78.97 34.95 C 80.25 35.51 81.54 36.05 82.83 36.59 C 82.18 32.54 81.29 28.54 80.31 24.56 C 80.40 22.85 80.52 21.15 80.66 19.44 Z" />
</g>
<g id="#443b3bff">
<path fill="#443b3b" opacity="1.00" d=" M 80.31 24.56 C 81.29 28.54 82.18 32.54 82.83 36.59 C 81.54 36.05 80.25 35.51 78.97 34.95 C 79.64 31.52 80.03 28.04 80.31 24.56 Z" />
</g>
<g id="#fff107ff">
<path fill="#fff107" opacity="1.00" d=" M 76.29 39.55 C 78.21 35.46 84.73 36.00 85.97 40.34 C 87.33 43.65 84.34 46.31 81.79 47.83 C 81.35 47.82 80.46 47.81 80.02 47.81 C 77.28 46.15 74.16 42.92 76.29 39.55 Z" />
</g>
<g id="#fff10bff">
<path fill="#fff10b" opacity="1.00" d=" M 318.28 36.92 C 322.56 34.66 328.12 40.24 325.58 44.42 C 324.02 48.42 317.87 48.91 315.79 45.11 C 313.49 42.35 315.39 38.35 318.28 36.92 Z" />
</g>
<g id="#a64c48ff">
<path fill="#a64c48" opacity="1.00" d=" M 208.93 44.82 C 216.30 44.38 223.70 44.37 231.07 44.84 C 231.36 51.46 231.41 58.09 231.30 64.72 C 236.46 64.76 241.62 64.76 246.77 64.73 C 246.77 58.12 246.81 51.51 247.02 44.91 C 254.53 44.37 262.08 44.31 269.58 45.11 C 269.75 56.42 269.48 67.72 269.76 79.03 C 269.66 81.97 270.04 85.13 268.65 87.84 C 264.13 88.72 259.49 88.37 254.92 88.34 C 254.71 93.89 254.61 99.44 254.66 105.00 C 254.85 143.40 254.45 181.81 254.86 220.22 C 259.43 220.29 264.01 220.22 268.59 220.41 C 268.61 220.78 268.66 221.52 268.69 221.89 C 263.79 221.44 258.86 221.47 253.95 221.31 C 253.88 176.57 253.78 131.83 254.01 87.10 C 258.78 87.04 263.55 87.03 268.32 87.01 C 268.50 73.26 268.53 59.51 268.31 45.76 C 261.57 45.57 254.83 45.56 248.10 45.78 C 248.11 52.44 248.17 59.11 247.96 65.78 C 242.01 65.91 236.07 65.92 230.12 65.78 C 229.91 59.11 229.98 52.44 229.96 45.77 C 223.25 45.57 216.53 45.57 209.81 45.75 C 209.68 52.42 209.74 59.09 209.72 65.76 C 203.83 65.92 197.94 65.90 192.05 65.80 L 192.08 64.76 C 197.62 64.74 203.15 64.72 208.69 64.69 C 208.59 58.07 208.64 51.44 208.93 44.82 Z" />
</g>
<g id="#994d49ff">
<path fill="#994d49" opacity="1.00" d=" M 131.91 44.87 C 139.30 44.44 146.71 44.44 154.11 44.86 C 154.36 51.50 154.40 58.14 154.31 64.79 C 159.55 64.84 164.80 64.85 170.05 64.81 C 170.28 58.18 170.31 51.55 170.27 44.92 C 177.45 44.55 184.66 44.22 191.83 44.85 L 191.93 45.83 C 185.01 45.63 178.08 45.60 171.15 45.83 C 171.19 52.50 171.24 59.17 171.02 65.84 C 165.08 66.03 159.13 66.03 153.19 65.82 C 153.06 59.15 153.14 52.48 153.04 45.81 C 146.37 45.60 139.69 45.60 133.02 45.82 C 132.93 59.52 132.96 73.23 133.02 86.93 C 137.91 86.95 142.81 86.95 147.71 87.12 C 147.72 131.96 147.74 176.81 147.69 221.66 C 142.80 221.62 137.91 221.64 133.01 221.76 C 132.97 228.44 133.04 235.12 132.86 241.79 C 126.91 241.95 120.96 241.95 115.02 241.81 C 114.73 215.52 114.78 189.22 114.93 162.93 C 119.85 162.84 124.77 162.82 129.69 162.78 C 129.57 148.97 129.57 135.15 129.68 121.34 C 126.21 121.22 122.74 120.97 119.31 120.47 L 120.19 120.42 C 123.67 120.23 127.15 120.17 130.63 120.17 C 130.56 134.66 130.56 149.14 130.63 163.63 C 125.71 163.67 120.79 163.74 115.87 163.86 C 115.50 189.50 115.54 215.16 116.09 240.80 C 121.29 240.83 126.49 240.83 131.70 240.80 C 131.61 234.14 131.64 227.48 131.89 220.83 C 136.83 220.65 141.77 220.58 146.70 220.59 C 146.62 176.51 146.62 132.42 146.70 88.34 C 141.77 88.30 136.85 88.21 131.92 88.05 C 131.49 73.66 131.51 59.25 131.91 44.87 Z" />
</g>
<g id="#fefefeff">
<path fill="#fefefe" opacity="1.00" d=" M 134.47 47.21 C 140.18 47.25 145.90 47.23 151.62 47.22 C 151.56 53.94 151.60 60.66 151.59 67.38 C 158.66 67.39 165.74 67.40 172.81 67.37 C 172.78 60.66 172.80 53.94 172.80 47.22 C 178.56 47.25 184.33 47.22 190.09 47.25 C 190.10 53.96 190.12 60.67 190.08 67.38 C 197.15 67.39 204.21 67.39 211.28 67.38 C 211.28 60.66 211.31 53.94 211.27 47.22 C 217.01 47.24 222.75 47.24 228.49 47.22 C 228.43 53.94 228.46 60.66 228.47 67.38 C 235.54 67.38 242.62 67.41 249.70 67.36 C 249.65 60.65 249.66 53.94 249.68 47.22 C 255.40 47.24 261.12 47.24 266.84 47.22 C 266.84 59.96 266.80 72.71 266.86 85.45 C 222.73 85.51 178.59 85.48 134.45 85.47 C 134.46 72.72 134.43 59.96 134.47 47.21 Z" />
<path fill="#fefefe" opacity="1.00" d=" M 283.46 120.74 C 295.81 97.80 308.06 74.81 320.53 51.93 C 332.87 74.86 345.19 97.80 357.50 120.75 C 354.44 120.76 351.39 120.76 348.34 120.78 C 348.37 127.48 348.35 134.18 348.35 140.89 C 342.62 140.88 336.89 140.89 331.16 140.89 C 331.19 134.18 331.19 127.47 331.17 120.77 C 324.06 120.75 316.96 120.76 309.85 120.77 C 309.84 127.48 309.84 134.18 309.86 140.89 C 304.13 140.88 298.41 140.88 292.68 140.89 C 292.69 134.19 292.67 127.48 292.70 120.77 C 289.62 120.76 286.54 120.76 283.46 120.74 Z" />
<path fill="#fefefe" opacity="1.00" d=" M 43.94 120.72 C 56.30 97.79 68.55 74.80 80.96 51.90 C 93.38 74.80 105.64 97.79 118.03 120.71 C 114.93 120.74 111.83 120.74 108.73 120.75 C 108.73 127.46 108.72 134.17 108.74 140.88 C 103.01 140.87 97.29 140.86 91.56 140.88 C 91.55 134.17 91.53 127.47 91.57 120.76 C 84.49 120.73 77.41 120.72 70.33 120.76 C 70.36 127.46 70.34 134.17 70.34 140.88 C 64.61 140.87 58.89 140.87 53.16 140.88 C 53.18 134.17 53.16 127.46 53.18 120.75 C 50.10 120.74 47.02 120.74 43.94 120.72 Z" />
<path fill="#fefefe" opacity="1.00" d=" M 149.11 87.47 C 183.51 87.51 217.90 87.50 252.30 87.47 C 252.34 132.04 252.30 176.61 252.32 221.18 C 250.76 221.19 249.21 221.20 247.66 221.21 C 247.68 227.92 247.62 234.63 247.69 241.34 C 241.94 241.36 236.19 241.37 230.44 241.33 C 230.50 234.61 230.47 227.90 230.47 221.19 C 223.40 221.21 216.33 221.19 209.26 221.19 C 209.29 227.91 209.26 234.62 209.28 241.34 C 203.55 241.35 197.83 241.36 192.11 241.34 C 192.13 234.63 192.12 227.93 192.12 221.23 C 185.01 221.17 177.90 221.21 170.79 221.19 C 170.79 227.91 170.77 234.62 170.81 241.34 C 165.07 241.36 159.34 241.35 153.60 241.35 C 153.62 234.64 153.56 227.93 153.65 221.23 C 152.14 221.20 150.64 221.19 149.13 221.17 C 149.10 176.60 149.16 132.04 149.11 87.47 M 178.25 120.04 C 178.10 132.77 178.25 145.51 178.20 158.25 C 184.11 158.28 190.01 158.28 195.91 158.26 C 195.77 145.82 196.37 133.39 196.00 120.96 C 196.10 117.07 193.57 113.26 189.78 112.17 C 184.60 110.23 178.29 114.47 178.25 120.04 M 205.46 120.05 C 205.23 132.78 205.45 145.51 205.41 158.24 C 211.36 158.29 217.30 158.28 223.25 158.25 C 223.29 145.81 223.37 133.38 223.28 120.94 C 223.38 116.98 220.65 113.16 216.82 112.10 C 211.65 110.32 205.58 114.60 205.46 120.05 Z" />
<path fill="#fefefe" opacity="1.00" d=" M 33.88 122.76 C 39.64 122.74 45.40 122.73 51.16 122.76 C 51.18 129.46 51.18 136.17 51.16 142.88 C 58.22 142.88 65.28 142.87 72.35 142.88 C 72.34 136.17 72.35 129.47 72.33 122.76 C 78.07 122.73 83.81 122.73 89.55 122.76 C 89.52 129.46 89.53 136.17 89.54 142.88 C 96.61 142.87 103.68 142.88 110.75 142.87 C 110.71 136.17 110.73 129.46 110.73 122.75 C 116.45 122.73 122.17 122.75 127.90 122.75 C 127.87 135.56 127.90 148.37 127.88 161.18 C 96.55 161.18 65.23 161.21 33.90 161.17 C 33.86 148.36 33.89 135.56 33.88 122.76 Z" />
<path fill="#fefefe" opacity="1.00" d=" M 273.47 122.78 C 279.21 122.75 284.95 122.75 290.69 122.77 C 290.67 129.48 290.68 136.19 290.68 142.90 C 297.74 142.91 304.80 142.92 311.86 142.89 C 311.86 136.19 311.84 129.48 311.87 122.78 C 317.64 122.75 323.40 122.75 329.17 122.77 C 329.18 129.48 329.17 136.19 329.17 142.90 C 336.23 142.91 343.29 142.91 350.35 142.90 C 350.37 136.19 350.37 129.48 350.34 122.78 C 356.06 122.75 361.79 122.75 367.51 122.79 C 367.48 135.58 367.49 148.38 367.51 161.18 C 336.17 161.22 304.82 161.23 273.48 161.18 C 273.49 148.38 273.50 135.58 273.47 122.78 Z" />
<path fill="#fefefe" opacity="1.00" d=" M 48.52 163.18 C 70.15 163.19 91.78 163.20 113.41 163.17 C 113.41 182.51 113.43 201.85 113.40 221.19 C 106.98 221.20 100.56 221.19 94.14 221.20 C 94.16 227.91 94.15 234.62 94.15 241.33 C 88.39 241.36 82.63 241.36 76.88 241.33 C 76.86 234.62 76.87 227.91 76.87 221.19 C 69.83 221.19 62.78 221.21 55.73 221.19 C 55.73 227.91 55.70 234.62 55.76 241.34 C 53.34 241.35 50.93 241.35 48.52 241.35 C 48.50 215.30 48.50 189.24 48.52 163.18 Z" />
<path fill="#fefefe" opacity="1.00" d=" M 288.11 163.21 C 309.70 163.22 331.29 163.21 352.89 163.21 C 352.87 189.25 352.85 215.30 352.90 241.34 C 350.46 241.35 348.01 241.35 345.58 241.35 C 345.58 234.63 345.56 227.91 345.60 221.20 C 338.52 221.20 331.45 221.20 324.38 221.19 C 324.43 227.91 324.39 234.63 324.40 241.35 C 318.68 241.35 312.96 241.36 307.24 241.34 C 307.28 234.62 307.25 227.90 307.26 221.19 C 300.88 221.20 294.50 221.20 288.12 221.19 C 288.10 201.86 288.13 182.53 288.11 163.21 Z" />
<path fill="#fefefe" opacity="1.00" d=" M 16.15 223.19 C 22.97 223.22 29.78 223.20 36.60 223.20 C 36.56 229.92 36.57 236.64 36.58 243.35 C 43.64 243.37 50.70 243.37 57.75 243.35 C 57.70 236.63 57.72 229.91 57.74 223.19 C 63.45 223.21 69.16 223.20 74.87 223.20 C 74.84 229.91 74.86 236.63 74.85 243.35 C 81.96 243.37 89.06 243.37 96.16 243.34 C 96.16 236.63 96.17 229.91 96.14 223.20 C 101.86 223.22 107.57 223.20 113.28 223.20 C 113.28 229.91 113.30 236.63 113.27 243.34 C 120.32 243.38 127.38 243.37 134.45 243.35 C 134.45 236.64 134.48 229.92 134.42 223.21 C 140.15 223.20 145.89 223.20 151.62 223.20 C 151.56 229.92 151.60 236.63 151.59 243.35 C 158.66 243.36 165.74 243.38 172.81 243.35 C 172.76 236.63 172.78 229.92 172.79 223.20 C 178.56 223.21 184.33 223.19 190.10 223.23 C 190.10 229.94 190.12 236.64 190.08 243.35 C 197.15 243.36 204.22 243.36 211.28 243.35 C 211.27 236.64 211.29 229.92 211.26 223.21 C 216.99 223.20 222.72 223.22 228.45 223.19 C 228.53 229.74 228.35 236.29 228.50 242.83 L 229.23 243.23 C 236.04 243.57 242.88 243.27 249.70 243.34 C 249.64 236.62 249.68 229.91 249.67 223.19 C 255.40 223.21 261.12 223.21 266.84 223.21 C 266.82 229.92 266.84 236.63 266.83 243.34 C 273.93 243.38 281.04 243.39 288.15 243.35 C 288.12 236.64 288.15 229.92 288.11 223.20 C 293.83 223.22 299.54 223.21 305.26 223.21 C 305.24 229.92 305.27 236.63 305.23 243.34 C 312.29 243.38 319.36 243.36 326.42 243.35 C 326.41 236.63 326.45 229.92 326.39 223.20 C 332.12 223.20 337.85 223.20 343.58 223.20 C 343.54 229.92 343.56 236.63 343.56 243.35 C 350.62 243.36 357.68 243.39 364.74 243.34 C 364.69 236.63 364.72 229.91 364.72 223.20 C 371.56 223.21 378.40 223.21 385.24 223.21 C 385.81 247.59 384.46 272.21 378.00 295.83 C 370.05 326.04 355.31 354.41 335.40 378.45 C 331.57 379.31 327.52 378.61 323.60 378.83 C 323.60 363.54 323.57 348.24 323.60 332.95 C 324.36 313.60 306.66 295.05 287.04 296.34 C 268.93 297.56 253.68 314.88 254.36 332.95 C 254.38 348.24 254.36 363.54 254.36 378.83 C 250.84 378.81 247.32 378.81 243.80 378.82 C 243.79 359.87 243.76 340.93 243.79 321.98 C 245.19 298.17 224.05 275.19 200.00 275.60 C 176.90 276.24 157.07 298.08 157.74 321.01 C 157.80 340.28 157.71 359.55 157.76 378.83 C 154.16 378.82 150.56 378.82 146.96 378.80 C 146.84 363.52 146.91 348.24 146.91 332.96 C 147.86 313.14 129.12 294.22 109.08 296.44 C 91.52 298.47 77.10 315.35 77.71 333.00 C 77.75 348.27 77.67 363.54 77.73 378.81 C 74.80 378.81 71.86 378.86 68.93 378.85 C 67.61 378.76 65.97 379.12 65.13 377.80 C 40.88 348.52 25.00 312.53 19.15 275.00 C 16.22 257.89 15.99 240.50 16.15 223.19 Z" />
<path fill="#fefefe" opacity="1.00" d=" M 0.00 244.91 L 0.29 246.12 C 0.55 248.18 0.76 250.25 0.94 252.32 C 2.83 288.38 12.47 324.20 30.30 355.69 C 47.89 387.05 73.09 413.88 102.40 434.59 C 126.78 451.78 153.95 465.11 182.65 473.30 C 188.46 475.03 194.46 476.04 200.20 478.00 L 0.00 478.00 L 0.00 244.91 Z" />
<path fill="#fefefe" opacity="1.00" d=" M 381.15 334.17 C 392.03 309.59 398.03 283.03 400.00 256.26 L 400.00 478.00 L 200.85 478.00 C 210.78 475.57 220.93 473.92 230.60 470.49 C 261.63 460.22 290.25 443.24 315.09 422.09 C 343.18 398.10 366.34 368.09 381.15 334.17 Z" />
<path fill="#fefefe" opacity="1.00" d=" M 159.74 321.01 C 159.11 299.15 177.98 278.31 200.00 277.61 C 222.97 277.24 243.15 299.22 241.78 321.97 C 241.77 340.91 241.78 359.84 241.80 378.77 C 237.89 378.76 233.99 378.77 230.08 378.77 C 230.10 359.50 230.08 340.23 230.08 320.96 C 230.42 306.34 218.92 292.37 204.58 289.73 C 189.36 287.42 174.98 300.26 172.13 314.71 C 171.31 319.43 171.65 324.24 171.61 329.00 C 171.60 343.35 171.61 357.70 171.57 372.05 C 171.58 374.21 171.61 376.40 172.05 378.54 C 167.95 378.89 163.85 378.75 159.75 378.78 C 159.73 359.52 159.79 340.27 159.74 321.01 Z" />
<path fill="#fefefe" opacity="1.00" d=" M 102.87 299.90 C 110.66 297.08 119.60 298.02 126.77 302.11 C 137.31 308.05 145.18 319.61 144.90 331.95 C 144.88 347.56 144.88 363.17 144.90 378.78 C 141.31 378.78 137.72 378.77 134.13 378.78 C 134.18 364.18 134.12 349.57 134.15 334.97 C 134.70 323.19 124.83 311.73 113.00 310.92 C 100.63 310.82 89.92 322.80 90.60 335.00 C 90.65 349.59 90.58 364.18 90.64 378.78 C 86.99 378.78 83.35 378.77 79.71 378.78 C 79.70 363.52 79.74 348.25 79.71 332.98 C 79.22 318.50 89.36 304.69 102.87 299.90 Z" />
<path fill="#fefefe" opacity="1.00" d=" M 256.37 332.95 C 255.73 316.52 269.02 300.87 285.22 298.52 C 304.37 295.94 322.39 314.05 321.58 332.95 C 321.59 348.23 321.54 363.50 321.62 378.78 C 317.98 378.77 314.34 378.77 310.70 378.79 C 310.73 364.17 310.66 349.56 310.71 334.94 C 311.40 322.96 301.05 311.30 289.00 310.90 C 276.92 311.26 266.54 322.95 267.24 334.95 C 267.28 349.56 267.24 364.17 267.24 378.78 C 263.61 378.77 259.98 378.77 256.35 378.78 C 256.41 363.50 256.37 348.22 256.37 332.95 Z" />
</g>
<g id="#a3534fff">
<path fill="#a3534f" opacity="1.00" d=" M 32.17 162.78 C 37.12 162.84 42.06 162.85 47.01 162.95 C 47.09 189.24 47.14 215.53 46.95 241.82 C 44.03 241.82 41.11 241.80 38.19 241.76 C 38.11 235.08 38.20 228.40 38.10 221.72 C 30.81 221.51 23.51 221.61 16.21 221.61 L 16.12 220.69 C 23.79 220.50 31.46 220.47 39.13 220.81 C 39.37 227.48 39.39 234.14 39.32 240.81 C 41.53 240.82 43.73 240.83 45.93 240.85 C 46.19 234.90 46.24 228.95 46.15 223.00 C 45.91 203.30 46.26 183.61 45.99 163.92 C 41.43 163.85 36.85 163.92 32.30 163.62 L 32.17 162.78 Z" />
</g>
<g id="#4d2a24ff">
<path fill="#4d2a24" opacity="1.00" d=" M 172.13 314.71 L 173.16 315.71 C 172.88 329.47 173.11 343.24 173.03 357.00 C 172.91 364.47 173.59 372.01 172.24 379.41 L 172.05 378.54 C 171.61 376.40 171.58 374.21 171.57 372.05 C 171.61 357.70 171.60 343.35 171.61 329.00 C 171.65 324.24 171.31 319.43 172.13 314.71 Z" />
</g>
<g id="#be524eff">
<path fill="#be524e" opacity="1.00" d=" M 173.16 315.71 L 173.54 314.58 C 174.59 323.69 174.09 332.86 174.17 342.00 C 174.23 353.97 174.09 365.94 174.19 377.91 C 192.33 378.45 210.50 377.39 228.62 378.43 C 222.48 379.62 216.21 379.07 210.00 379.13 C 197.42 379.30 184.81 378.82 172.24 379.41 C 173.59 372.01 172.91 364.47 173.03 357.00 C 173.11 343.24 172.88 329.47 173.16 315.71 Z" />
</g>
<g id="#bd4e4bff">
<path fill="#bd4e4b" opacity="1.00" d=" M 129.32 322.81 C 131.53 326.11 132.93 329.96 132.83 333.98 C 132.85 348.99 132.87 364.00 132.80 379.01 C 119.22 379.29 105.63 379.19 92.04 379.06 C 91.70 366.05 92.06 353.03 91.84 340.01 C 91.76 336.22 91.90 332.40 92.83 328.71 C 93.26 345.10 92.81 361.50 93.07 377.90 C 105.78 377.98 118.48 377.92 131.18 377.94 C 131.67 366.29 131.19 354.65 131.46 343.00 C 131.62 336.22 131.36 329.33 129.32 322.81 Z" />
</g>
<g id="#c64647ff">
<path fill="#c64647" opacity="1.00" d=" M 268.50 343.00 C 268.53 336.91 267.78 330.44 270.83 324.88 C 269.63 332.19 269.60 339.62 269.68 347.00 C 269.82 357.26 269.45 367.53 269.92 377.79 C 282.64 377.77 295.35 377.74 308.07 377.81 C 308.52 367.54 308.17 357.27 308.30 347.00 C 308.35 339.87 308.31 332.72 307.45 325.63 C 309.12 329.18 309.61 333.11 309.47 337.00 C 309.28 351.02 309.64 365.04 309.31 379.06 C 295.76 379.22 282.20 379.20 268.64 379.07 C 268.31 367.05 268.61 355.02 268.50 343.00 Z" />
</g>
<g id="#238a5bff">
<path fill="#238a5b" opacity="1.00" d=" M 67.96 380.80 C 97.30 380.37 126.65 380.72 156.00 380.63 C 198.33 380.57 240.67 380.66 283.00 380.61 C 299.82 380.79 316.65 380.22 333.46 380.95 C 331.78 383.16 329.93 385.25 327.85 387.08 C 328.92 385.43 329.92 383.73 330.93 382.04 C 248.95 381.87 166.98 382.07 85.00 381.94 C 79.85 381.87 74.70 382.10 69.58 382.74 L 68.79 382.83 C 68.58 382.32 68.16 381.31 67.96 380.80 Z" />
</g>
<g id="#039652ff">
<path fill="#039652" opacity="1.00" d=" M 69.58 382.74 C 74.70 382.10 79.85 381.87 85.00 381.94 C 166.98 382.07 248.95 381.87 330.93 382.04 C 329.92 383.73 328.92 385.43 327.85 387.08 C 308.32 409.29 284.17 427.33 257.97 440.97 C 241.83 449.15 224.70 455.62 206.87 458.96 C 198.60 460.77 190.48 457.55 182.58 455.48 C 141.29 443.07 103.34 419.60 73.92 388.06 C 72.37 386.37 70.97 384.56 69.58 382.74 Z" />
</g>
</svg>
