<?xml version="1.0" encoding="UTF-8" standalone="no"?>
<svg
   xmlns:dc="http://purl.org/dc/elements/1.1/"
   xmlns:cc="http://creativecommons.org/ns#"
   xmlns:rdf="http://www.w3.org/1999/02/22-rdf-syntax-ns#"
   xmlns:svg="http://www.w3.org/2000/svg"
   xmlns="http://www.w3.org/2000/svg"
   viewBox="0 0 1175.4333 1855.7467"
   height="1855.7467"
   width="1175.4333"
   xml:space="preserve"
   id="svg2"
   version="1.1"><metadata
     id="metadata8"><rdf:RDF><cc:Work
         rdf:about=""><dc:format>image/svg+xml</dc:format><dc:type
           rdf:resource="http://purl.org/dc/dcmitype/StillImage" /></cc:Work></rdf:RDF></metadata><defs
     id="defs6"><clipPath
       id="clipPath20"
       clipPathUnits="userSpaceOnUse"><path
         id="path18"
         d="M 32768,32768 H -32768 V -32768 H 32768 Z" /></clipPath><clipPath
       id="clipPath32"
       clipPathUnits="userSpaceOnUse"><path
         id="path30"
         d="M 12.7707,462.132 H 867.64 V 1376.49 H 12.7707 Z" /></clipPath><clipPath
       id="clipPath138"
       clipPathUnits="userSpaceOnUse"><path
         id="path136"
         d="m 623.883,1243.371 h 33.999 v 40.724 h -33.999 z" /></clipPath><clipPath
       id="clipPath146"
       clipPathUnits="userSpaceOnUse"><path
         id="path144"
         d="m 793.231,1242.993 h 32.557 v 41.102 h -32.557 z" /></clipPath><clipPath
       id="clipPath154"
       clipPathUnits="userSpaceOnUse"><path
         id="path152"
         d="M 0,0 H 881.575 V 1391.811 H 0 Z" /></clipPath><clipPath
       id="clipPath162"
       clipPathUnits="userSpaceOnUse"><path
         id="path160"
         d="M 32768,32768 H -32768 V -32768 H 32768 Z" /></clipPath><clipPath
       id="clipPath176"
       clipPathUnits="userSpaceOnUse"><path
         id="path174"
         d="M 0,0 H 881.575 V 1391.811 H 0 Z" /></clipPath><clipPath
       id="clipPath184"
       clipPathUnits="userSpaceOnUse"><path
         id="path182"
         d="M 32768,32768 H -32768 V -32768 H 32768 Z" /></clipPath></defs><g
     transform="matrix(1.3333333,0,0,-1.3333333,0,1855.7467)"
     id="g10"><g
       id="g12"><g
         id="g14"><g
           clip-path="url(#clipPath20)"
           id="g16"><g
             id="g22" /></g></g></g><g
       id="g24"><g
         id="g26"><g
           clip-path="url(#clipPath32)"
           id="g28"><g
             id="g34"><g
               transform="matrix(21.5289,0,0,21.5289,18.152878,1371.1041)"
               id="g36"><path
                 id="path38"
                 style="fill:#ced61b;fill-opacity:1;fill-rule:nonzero;stroke:none"
                 d="m 0,0 1.151,-22.417 0.007,-0.444 0.042,-0.495 0.069,-0.516 0.095,-0.567 0.126,-0.585 0.156,-0.618 0.188,-0.643 0.217,-0.665 0.262,-0.681 0.287,-0.698 0.323,-0.719 0.368,-0.721 0.399,-0.729 0.43,-0.745 0.478,-0.735 0.517,-0.736 0.565,-0.729 0.597,-0.727 0.643,-0.721 0.689,-0.698 0.73,-0.69 0.773,-0.673 0.823,-0.644 0.877,-0.625 0.918,-0.595 0.965,-0.564 1.016,-0.534 1.077,-0.492 1.118,-0.463 1.176,-0.414 1.223,-0.368 1.283,-0.32 1.356,0.369 1.292,0.396 1.224,0.449 1.169,0.486 1.102,0.517 1.044,0.553 0.987,0.583 0.933,0.6 0.876,0.637 0.824,0.649 0.766,0.674 0.721,0.688 0.675,0.706 0.619,0.713 0.58,0.728 0.533,0.729 0.493,0.734 0.446,0.738 0.409,0.737 0.376,0.733 0.328,0.721 0.298,0.722 0.258,0.705 0.227,0.688 0.196,0.682 0.172,0.65 0.135,0.634 0.117,0.611 0.079,0.587 0.062,0.557 0.039,0.525 0.015,0.487 L 39.208,0 Z" /></g><g
               transform="matrix(21.5289,0,0,21.5289,833.25299,1346.5083)"
               id="g40"><path
                 id="path42"
                 style="fill:#ffffff;fill-opacity:1;fill-rule:evenodd;stroke:none"
                 d="m 0,0 h -36.49 l 1.09,-21.218 0.024,-0.447 0.054,-0.486 0.087,-0.509 0.11,-0.54 0.139,-0.571 0.164,-0.589 0.196,-0.61 0.238,-0.627 0.257,-0.648 0.291,-0.659 0.32,-0.665 0.36,-0.675 0.384,-0.688 0.43,-0.682 0.455,-0.681 0.496,-0.691 0.523,-0.672 0.566,-0.673 0.603,-0.659 0.642,-0.65 0.673,-0.633 0.713,-0.611 0.76,-0.596 0.791,-0.571 0.831,-0.549 0.877,-0.516 0.917,-0.496 0.958,-0.453 1.003,-0.424 1.041,-0.373 1.089,-0.347 1.127,-0.296 1.175,0.291 1.122,0.336 1.073,0.382 1.028,0.416 0.978,0.455 0.934,0.484 0.892,0.516 0.84,0.542 0.807,0.572 0.75,0.595 0.721,0.618 0.674,0.636 0.636,0.648 0.594,0.659 0.557,0.672 0.523,0.683 0.48,0.682 0.446,0.689 0.415,0.679 0.377,0.684 0.346,0.68 0.311,0.664 0.276,0.66 0.249,0.651 0.222,0.627 0.187,0.61 0.156,0.586 0.134,0.566 0.1,0.538 0.086,0.512 0.048,0.476 0.034,0.446 z" /></g><g
               transform="matrix(21.5289,0,0,21.5289,800.0202,1320.215)"
               id="g44"><path
                 id="path46"
                 style="fill:#297fcb;fill-opacity:1;fill-rule:evenodd;stroke:none"
                 d="m 0,0 h -33.386 l 0.979,-19.48 0.017,-0.455 0.045,-0.476 0.07,-0.511 0.102,-0.524 0.127,-0.554 0.156,-0.573 0.18,-0.596 0.22,-0.602 0.243,-0.619 0.273,-0.634 0.299,-0.635 0.337,-0.644 0.359,-0.647 0.402,-0.652 0.422,-0.643 0.463,-0.641 0.491,-0.643 0.526,-0.626 0.556,-0.618 0.588,-0.611 0.626,-0.589 0.66,-0.579 0.689,-0.549 0.729,-0.531 0.761,-0.508 0.799,-0.48 0.832,-0.455 0.868,-0.421 0.901,-0.383 0.939,-0.352 0.98,-0.307 1.017,-0.274 1.035,0.283 0.996,0.311 0.954,0.36 0.918,0.394 0.879,0.422 0.846,0.463 0.805,0.483 0.77,0.512 0.728,0.532 0.698,0.554 0.659,0.582 0.627,0.594 0.586,0.603 0.557,0.619 0.523,0.635 0.496,0.633 0.453,0.645 0.423,0.647 0.393,0.643 0.361,0.652 0.327,0.639 0.3,0.636 0.265,0.626 0.242,0.62 0.214,0.602 0.179,0.589 0.148,0.57 0.126,0.549 0.095,0.532 0.069,0.502 0.042,0.477 0.013,0.447 z" /></g><g
               transform="matrix(21.5289,0,0,21.5289,176.23727,951.39874)"
               id="g48"><path
                 id="path50"
                 style="fill:#ced61b;fill-opacity:1;fill-rule:evenodd;stroke:none"
                 d="M 0,0 0.204,-0.258 0.392,-0.516 0.564,-0.784 0.72,-1.049 0.852,-1.316 0.971,-1.582 1.081,-1.855 1.167,-2.122 1.236,-2.395 1.285,-2.661 1.323,-2.935 1.34,-3.202 1.347,-3.476 1.33,-3.741 1.299,-4.009 1.252,-4.275 1.184,-4.541 1.105,-4.799 1.002,-5.066 0.884,-5.316 0.753,-5.575 0.603,-5.828 0.43,-6.069 0.25,-6.311 0.045,-6.545 -0.173,-6.782 -0.41,-7.016 -0.667,-7.237 -0.934,-7.455 -1.225,-7.667 -1.528,-7.869 -1.851,-8.073 -1.607,-8.167 -1.286,-8.262 -0.894,-8.364 -0.447,-8.457 0.07,-8.552 0.634,-8.638 1.252,-8.724 1.92,-8.81 2.625,-8.888 3.369,-8.96 4.145,-9.02 4.943,-9.077 5.774,-9.123 6.613,-9.155 7.473,-9.179 8.345,-9.192 h 0.869 l 0.869,0.013 0.871,0.032 0.861,0.046 0.847,0.064 0.823,0.077 0.806,0.103 0.775,0.116 0.744,0.142 0.714,0.165 0.667,0.18 0.618,0.21 0.572,0.229 0.519,0.258 0.453,0.283 0.391,0.311 0.72,0.464 0.66,0.478 0.597,0.484 0.539,0.495 0.485,0.501 0.431,0.5 0.375,0.509 0.323,0.511 0.274,0.508 0.219,0.509 0.172,0.5 0.126,0.495 0.086,0.485 0.033,0.469 v 0.463 l -0.049,0.447 -0.086,0.423 -0.123,0.414 -0.166,0.384 -0.195,0.369 -0.228,0.344 -0.266,0.313 -0.291,0.282 -0.328,0.259 -0.353,0.228 -0.377,0.188 -0.409,0.148 -0.43,0.111 -0.446,0.077 -0.479,0.03 -0.491,-0.013 -0.509,-0.065 1.188,-2.686 0.237,0.251 0.219,0.211 0.212,0.171 0.204,0.127 0.188,0.094 0.18,0.054 0.173,0.025 L 22.315,2.585 22.462,2.549 22.598,2.483 22.724,2.389 22.83,2.281 22.925,2.147 23.011,1.99 23.084,1.827 23.137,1.645 23.176,1.442 23.208,1.236 23.215,1.028 V 0.798 L 23.199,0.581 23.163,0.346 23.113,0.117 23.043,-0.108 22.965,-0.328 22.863,-0.547 22.745,-0.751 22.613,-0.947 22.455,-1.135 22.282,-1.307 22.095,-1.464 21.885,-1.595 21.601,-1.747 21.319,-1.893 21.037,-2.028 20.746,-2.16 20.464,-2.279 20.185,-2.395 19.902,-2.504 19.621,-2.608 19.337,-2.7 19.047,-2.796 18.765,-2.873 18.482,-2.951 18.195,-3.021 17.913,-3.094 17.621,-3.156 17.331,-3.209 17.04,-3.265 16.753,-3.312 16.454,-3.353 16.163,-3.39 15.866,-3.421 15.57,-3.452 15.272,-3.476 14.971,-3.5 14.669,-3.525 14.362,-3.54 14.055,-3.554 13.752,-3.562 13.436,-3.57 H 13.124 L 12.81,-3.578 H 12.49 V 17.139 H 11.877 V -3.509 h -0.398 l -0.393,0.009 -0.399,0.017 -0.4,0.024 -0.393,0.029 -0.39,0.048 -0.393,0.046 -0.392,0.062 -0.39,0.065 L 7.936,-3.14 7.551,-3.053 7.17,-2.967 6.786,-2.873 6.4,-2.772 6.024,-2.661 5.648,-2.545 5.273,-2.426 4.906,-2.303 4.528,-2.168 4.16,-2.028 3.8,-1.878 3.439,-1.73 l -0.36,0.148 -0.352,0.164 -0.354,0.167 -0.35,0.164 -0.348,0.172 -0.345,0.173 -0.335,0.18 -0.337,0.187 -0.33,0.19 z" /></g><g
               transform="matrix(21.5289,0,0,21.5289,527.76086,854.79242)"
               id="g52"><path
                 id="path54"
                 style="fill:#297fcb;fill-opacity:1;fill-rule:nonzero;stroke:none"
                 d="m 0,0 -0.086,-0.025 -0.087,-0.037 -0.069,-0.062 -0.063,-0.078 -0.041,-0.089 -0.031,-0.085 -0.008,-0.092 0.008,-0.087 0.031,-0.088 0.041,-0.087 0.063,-0.068 0.069,-0.062 0.087,-0.05 0.086,-0.021 0.094,-0.008 0.086,0.008 0.086,0.021 0.087,0.042 0.072,0.061 0.062,0.072 0.046,0.088 0.024,0.092 0.008,0.092 L 0.557,-0.376 0.533,-0.283 0.487,-0.196 0.425,-0.124 0.353,-0.062 0.266,-0.025 0.18,0.008 0.094,0.016 Z" /></g><g
               transform="matrix(21.5289,0,0,21.5289,521.03705,840.65558)"
               id="g56"><path
                 id="path58"
                 style="fill:#297fcb;fill-opacity:1;fill-rule:evenodd;stroke:none"
                 d="m 0,0 0.197,-0.204 -4.68,-4.724 -0.197,0.204 z" /></g><g
               transform="matrix(21.5289,0,0,21.5289,259.71286,875.19598)"
               id="g60"><path
                 id="path62"
                 style="fill:#297fcb;fill-opacity:1;fill-rule:nonzero;stroke:none"
                 d="m 0,0 -0.086,-0.022 -0.086,-0.04 -0.068,-0.063 -0.067,-0.077 -0.038,-0.078 -0.031,-0.095 -0.009,-0.087 0.009,-0.092 0.031,-0.088 0.038,-0.085 0.067,-0.07 0.068,-0.063 0.086,-0.047 L 0,-0.932 0.094,-0.94 l 0.087,0.008 0.086,0.025 0.086,0.037 0.069,0.065 0.066,0.07 0.044,0.086 0.024,0.095 0.009,0.092 -0.009,0.087 -0.024,0.095 -0.044,0.086 -0.066,0.069 -0.069,0.063 -0.086,0.04 -0.086,0.028 -0.087,0.008 z" /></g><g
               transform="matrix(21.5289,0,0,21.5289,252.94574,861.039)"
               id="g64"><path
                 id="path66"
                 style="fill:#297fcb;fill-opacity:1;fill-rule:evenodd;stroke:none"
                 d="m 0,0 0.197,-0.204 -4.678,-4.721 -0.196,0.202 z" /></g><g
               transform="matrix(21.5289,0,0,21.5289,312.51151,864.05542)"
               id="g68"><path
                 id="path70"
                 style="fill:#297fcb;fill-opacity:1;fill-rule:nonzero;stroke:none"
                 d="m 0,0 -0.086,-0.022 -0.086,-0.048 -0.069,-0.062 -0.065,-0.077 -0.038,-0.078 -0.032,-0.087 -0.008,-0.093 0.008,-0.095 0.032,-0.087 0.038,-0.077 0.065,-0.081 0.069,-0.062 0.086,-0.045 0.086,-0.025 0.095,-0.008 0.087,0.008 0.084,0.025 0.088,0.037 0.068,0.064 0.062,0.078 0.049,0.079 0.024,0.094 0.009,0.095 -0.009,0.093 -0.024,0.087 -0.049,0.085 -0.062,0.07 L 0.354,-0.07 0.266,-0.022 0.182,0 0.095,0.009 Z" /></g><g
               transform="matrix(21.5289,0,0,21.5289,305.73904,849.92981)"
               id="g72"><path
                 id="path74"
                 style="fill:#297fcb;fill-opacity:1;fill-rule:evenodd;stroke:none"
                 d="M 0,0 0.197,-0.213 -4.48,-4.935 -4.676,-4.723 Z" /></g><g
               transform="matrix(21.5289,0,0,21.5289,358.23938,856.45856)"
               id="g76"><path
                 id="path78"
                 style="fill:#297fcb;fill-opacity:1;fill-rule:nonzero;stroke:none"
                 d="m 0,0 -0.087,-0.021 -0.086,-0.04 -0.071,-0.063 -0.061,-0.078 -0.041,-0.077 -0.029,-0.089 -0.008,-0.092 0.008,-0.094 0.029,-0.086 0.041,-0.082 0.061,-0.076 0.071,-0.062 0.086,-0.046 0.087,-0.025 0.093,-0.007 0.086,0.007 0.086,0.025 0.086,0.038 0.074,0.061 0.061,0.082 0.04,0.077 0.022,0.094 0.007,0.094 -0.007,0.092 -0.022,0.089 -0.04,0.086 -0.061,0.069 -0.074,0.063 -0.086,0.04 -0.086,0.03 -0.086,0.007 z" /></g><g
               transform="matrix(21.5289,0,0,21.5289,355.02917,840.93451)"
               id="g80"><path
                 id="path82"
                 style="fill:#297fcb;fill-opacity:1;fill-rule:evenodd;stroke:none"
                 d="M 0,0 V 0 L 0.033,-0.045 0.048,-0.098 0.04,-0.154 0.007,-0.193 -3.746,-3.97 l -0.296,0.049 3.853,3.93 0.042,0.024 0.053,0.008 0.048,-0.008 z" /></g><g
               transform="matrix(21.5289,0,0,21.5289,411.89209,851.75195)"
               id="g84"><path
                 id="path86"
                 style="fill:#297fcb;fill-opacity:1;fill-rule:nonzero;stroke:none"
                 d="m 0,0 -0.086,-0.023 -0.086,-0.037 -0.073,-0.065 -0.061,-0.078 -0.038,-0.079 -0.032,-0.085 -0.008,-0.095 0.008,-0.093 0.032,-0.087 0.038,-0.077 0.061,-0.079 0.073,-0.061 0.086,-0.049 L 0,-0.932 0.094,-0.94 l 0.086,0.008 0.085,0.024 0.088,0.04 0.069,0.062 0.061,0.079 0.041,0.077 0.025,0.095 0.007,0.093 -0.007,0.095 -0.025,0.085 -0.041,0.087 -0.061,0.07 L 0.353,-0.06 0.265,-0.023 0.18,0.009 0.094,0.017 Z" /></g><g
               transform="matrix(21.5289,0,0,21.5289,404.93958,835.93042)"
               id="g88"><path
                 id="path90"
                 style="fill:#297fcb;fill-opacity:1;fill-rule:evenodd;stroke:none"
                 d="m 0,0 0.197,-0.205 -3.409,-3.43 -0.085,0.266 z" /></g><g
               transform="matrix(21.5289,0,0,21.5289,467.88889,851.26807)"
               id="g92"><path
                 id="path94"
                 style="fill:#297fcb;fill-opacity:1;fill-rule:nonzero;stroke:none"
                 d="m 0,0 -0.086,-0.024 -0.086,-0.038 -0.07,-0.065 -0.066,-0.077 -0.038,-0.079 -0.03,-0.086 -0.009,-0.095 0.009,-0.093 0.03,-0.087 0.038,-0.077 0.066,-0.078 0.07,-0.062 0.086,-0.048 L 0,-0.932 0.094,-0.94 l 0.086,0.008 0.086,0.023 0.086,0.039 0.071,0.063 0.062,0.078 0.039,0.077 0.024,0.095 0.008,0.093 L 0.548,-0.369 0.524,-0.283 0.485,-0.196 0.423,-0.127 0.352,-0.062 0.266,-0.024 0.18,0.008 0.094,0.015 Z" /></g><g
               transform="matrix(21.5289,0,0,21.5289,466.9021,843.67603)"
               id="g96"><path
                 id="path98"
                 style="fill:#297fcb;fill-opacity:1;fill-rule:evenodd;stroke:none"
                 d="m 0,0 0.209,-0.219 -3.792,-3.855 -0.045,0.378 z" /></g><g
               transform="matrix(21.5289,0,0,21.5289,586.81818,864.73383)"
               id="g100"><path
                 id="path102"
                 style="fill:#297fcb;fill-opacity:1;fill-rule:nonzero;stroke:none"
                 d="m 0,0 -0.086,-0.023 -0.086,-0.045 -0.07,-0.066 -0.065,-0.078 -0.038,-0.078 -0.032,-0.085 -0.008,-0.095 0.008,-0.094 0.032,-0.086 0.038,-0.078 0.065,-0.078 0.07,-0.063 0.086,-0.048 0.086,-0.022 0.094,-0.007 0.087,0.007 0.085,0.022 0.087,0.04 0.069,0.062 0.065,0.078 0.045,0.079 0.025,0.094 L 0.565,-0.47 0.557,-0.375 0.532,-0.29 0.487,-0.203 0.422,-0.134 0.353,-0.068 0.266,-0.023 0.181,0 0.094,0.009 Z" /></g><g
               transform="matrix(21.5289,0,0,21.5289,580.026,850.5592)"
               id="g104"><path
                 id="path106"
                 style="fill:#297fcb;fill-opacity:1;fill-rule:evenodd;stroke:none"
                 d="M 0,0 0.197,-0.21 -4.481,-4.934 -4.677,-4.72 Z" /></g><g
               transform="matrix(21.5289,0,0,21.5289,162.55048,718.3869)"
               id="g108"><path
                 id="path110"
                 style="fill:#ffffff;fill-opacity:1;fill-rule:evenodd;stroke:none"
                 d="M 0,0 H 0.037 L 0.086,-0.008 H 0.127 0.173 L 0.219,-0.017 H 0.258 0.307 0.345 L 0.532,-0.008 0.713,0 l 0.188,0.025 0.18,0.021 0.188,0.041 0.189,0.041 0.18,0.045 0.188,0.045 0.18,0.065 0.189,0.054 0.18,0.061 0.189,0.073 0.18,0.061 0.185,0.072 0.18,0.076 0.188,0.072 0.182,0.072 0.179,0.071 0.189,0.068 0.18,0.071 0.18,0.069 0.189,0.065 0.18,0.062 0.18,0.055 0.18,0.056 0.18,0.045 0.181,0.048 0.179,0.037 0.18,0.034 0.18,0.022 L 6.009,1.542 6.189,1.55 6.393,1.542 6.59,1.527 6.793,1.497 6.999,1.455 7.201,1.411 7.404,1.357 7.61,1.292 7.812,1.214 8.014,1.135 8.219,1.058 8.425,0.963 8.626,0.878 8.838,0.776 9.043,0.68 9.247,0.579 9.449,0.485 9.653,0.386 9.858,0.283 10.062,0.189 10.264,0.087 10.468,0 l 0.204,-0.093 0.205,-0.08 0.202,-0.076 0.196,-0.078 0.204,-0.065 0.205,-0.055 0.194,-0.045 0.203,-0.04 0.197,-0.033 0.205,-0.012 0.196,-0.009 0.194,0.009 0.188,0.021 0.188,0.032 0.197,0.037 0.188,0.057 0.188,0.054 0.188,0.062 0.189,0.073 0.188,0.076 0.188,0.087 0.188,0.088 0.186,0.085 0.188,0.094 0.189,0.102 0.187,0.095 0.188,0.099 0.19,0.094 0.187,0.093 0.189,0.104 0.188,0.094 0.196,0.085 0.189,0.086 0.193,0.087 0.189,0.078 0.196,0.072 0.196,0.063 0.196,0.052 0.205,0.058 0.193,0.037 0.205,0.033 0.205,0.021 L 18.822,1.55 18.986,1.542 19.15,1.527 19.314,1.505 19.479,1.471 19.644,1.434 19.809,1.386 19.973,1.341 20.137,1.285 20.301,1.23 20.465,1.168 20.624,1.103 20.788,1.034 20.951,0.963 21.116,0.895 21.28,0.824 21.447,0.752 21.604,0.68 21.767,0.604 21.931,0.532 22.095,0.471 22.262,0.398 22.419,0.337 22.582,0.283 22.745,0.218 22.911,0.173 23.077,0.128 23.241,0.087 23.405,0.046 23.569,0.025 23.732,0 23.9,-0.008 24.064,-0.017 h 0.045 l 0.062,-0.006 0.094,-0.009 0.094,-0.008 0.119,-0.013 0.126,-0.008 0.124,-0.017 0.134,-0.008 0.124,-0.007 0.127,-0.008 0.117,-0.008 h 0.111 0.095 l 0.069,0.008 0.054,0.015 0.033,0.016 0.14,0.174 0.135,0.179 0.123,0.173 0.118,0.18 0.11,0.171 0.11,0.181 0.094,0.18 0.094,0.173 0.095,0.18 0.086,0.18 0.077,0.18 0.078,0.18 0.078,0.181 0.071,0.18 0.078,0.18 0.073,0.185 L 27.079,2.75 26.985,2.717 26.885,2.68 26.758,2.647 26.633,2.616 26.492,2.586 26.349,2.552 26.202,2.53 26.061,2.507 25.92,2.483 25.779,2.468 25.653,2.451 25.543,2.435 25.449,2.427 25.363,2.422 H 25.309 25.104 L 24.908,2.435 24.715,2.451 24.51,2.477 24.314,2.507 24.117,2.538 23.93,2.578 23.732,2.625 23.539,2.671 23.352,2.726 23.163,2.779 22.967,2.844 22.778,2.905 22.59,2.975 22.409,3.044 22.221,3.118 22.025,3.205 21.837,3.29 21.649,3.377 21.46,3.455 21.267,3.541 21.078,3.626 20.89,3.705 20.702,3.783 20.513,3.844 20.325,3.917 20.129,3.97 19.933,4.02 19.739,4.058 19.535,4.089 19.33,4.105 19.126,4.111 18.883,4.105 18.649,4.089 18.422,4.067 18.195,4.033 17.975,3.995 17.754,3.947 17.545,3.893 17.332,3.832 17.12,3.759 16.917,3.681 16.713,3.595 16.509,3.508 16.312,3.414 16.119,3.32 15.922,3.221 15.725,3.118 15.57,3.008 15.411,2.905 15.247,2.797 15.076,2.693 14.895,2.594 14.714,2.492 14.535,2.405 14.339,2.32 14.142,2.232 13.94,2.16 13.736,2.099 13.523,2.046 13.314,2.004 13.085,1.966 12.858,1.951 12.63,1.943 12.405,1.951 12.192,1.974 11.988,2.013 11.791,2.07 11.602,2.132 11.422,2.21 11.25,2.287 11.079,2.381 10.907,2.468 10.734,2.569 10.561,2.663 10.39,2.766 10.209,2.86 10.022,2.955 9.824,3.04 9.621,3.118 9.449,3.189 9.269,3.258 9.096,3.336 8.924,3.414 8.744,3.492 8.572,3.574 8.399,3.652 8.228,3.73 8.048,3.799 7.875,3.86 7.694,3.926 7.515,3.97 7.335,4.02 7.155,4.05 6.974,4.067 6.786,4.074 6.566,4.067 6.355,4.05 6.144,4.02 5.939,3.978 5.729,3.932 5.525,3.869 5.32,3.807 5.116,3.737 4.915,3.665 4.71,3.586 4.505,3.508 4.301,3.431 4.1,3.345 3.895,3.266 3.691,3.189 3.479,3.118 3.297,3.062 3.126,3.008 2.945,2.955 2.773,2.898 2.602,2.852 2.429,2.804 2.25,2.759 2.076,2.709 1.896,2.671 1.725,2.64 1.544,2.602 1.372,2.578 1.192,2.552 1.011,2.53 0.831,2.515 0.643,2.507 H 0.501 L 0.36,2.515 0.226,2.522 0.094,2.53 -0.04,2.545 -0.172,2.561 -0.306,2.586 -0.439,2.607 -0.573,2.631 -0.697,2.657 -0.831,2.68 -0.962,2.709 -1.089,2.741 -1.223,2.774 -1.347,2.812 -1.482,2.844 -1.45,2.766 l 0.047,-0.103 0.047,-0.118 0.062,-0.14 0.065,-0.155 0.078,-0.168 0.086,-0.186 0.094,-0.187 0.094,-0.204 0.108,-0.213 0.11,-0.21 0.119,-0.22 0.123,-0.22 0.135,-0.218 0.139,-0.211 z" /></g><g
               transform="matrix(21.5289,0,0,21.5289,236.77151,631.68738)"
               id="g112"><path
                 id="path114"
                 style="fill:#ffffff;fill-opacity:1;fill-rule:evenodd;stroke:none"
                 d="M 0,0 0.156,0.065 0.313,0.134 0.472,0.189 0.628,0.254 0.784,0.307 0.948,0.361 1.106,0.41 1.278,0.456 1.442,0.496 1.622,0.533 1.803,0.566 1.991,0.59 2.188,0.614 2.396,0.628 2.61,0.643 2.835,0.652 3.04,0.643 3.236,0.628 3.441,0.598 3.636,0.558 3.838,0.511 4.035,0.456 4.239,0.394 4.436,0.315 4.638,0.238 4.834,0.16 5.03,0.065 5.235,-0.02 5.432,-0.124 5.627,-0.217 5.828,-0.319 6.025,-0.413 6.221,-0.516 6.418,-0.618 6.621,-0.71 6.816,-0.812 7.013,-0.899 7.209,-0.992 7.405,-1.07 7.601,-1.148 7.803,-1.229 8,-1.291 8.196,-1.344 8.392,-1.393 8.589,-1.43 8.79,-1.462 l 0.197,-0.017 0.195,-0.009 0.197,0.009 0.188,0.025 0.197,0.032 0.188,0.038 0.194,0.056 0.196,0.054 0.187,0.06 0.199,0.071 0.196,0.081 0.187,0.086 0.198,0.086 0.192,0.086 0.189,0.094 0.196,0.099 0.196,0.095 0.196,0.103 0.197,0.094 0.188,0.093 0.193,0.102 0.205,0.095 0.196,0.085 0.198,0.087 0.195,0.086 0.203,0.078 0.195,0.07 0.205,0.065 0.197,0.054 0.203,0.053 0.201,0.041 0.206,0.03 0.203,0.023 0.206,0.009 0.201,-0.009 0.213,-0.023 0.212,-0.03 0.211,-0.041 0.219,-0.045 0.213,-0.062 0.21,-0.056 0.213,-0.071 0.202,-0.061 0.197,-0.073 0.187,-0.078 0.18,-0.07 0.166,-0.07 0.157,-0.07 0.139,-0.065 0.126,-0.062 0.127,0.11 0.124,0.112 0.127,0.115 0.131,0.11 0.134,0.11 0.132,0.119 0.127,0.116 0.131,0.126 0.135,0.123 0.133,0.135 0.133,0.141 0.135,0.149 0.124,0.148 0.127,0.165 0.123,0.164 0.125,0.18 -0.053,-0.007 h -0.072 l -0.094,0.007 -0.108,0.016 -0.11,0.008 -0.127,0.023 -0.131,0.023 -0.134,0.024 -0.14,0.033 -0.134,0.021 -0.126,0.032 -0.126,0.033 -0.111,0.029 -0.101,0.033 -0.086,0.024 -0.063,0.029 -0.196,0.086 -0.187,0.086 -0.188,0.087 -0.19,0.08 -0.193,0.086 -0.188,0.087 -0.188,0.078 -0.188,0.078 -0.188,0.062 -0.19,0.069 L 16.776,3.072 16.58,3.119 16.386,3.159 16.182,3.188 15.977,3.205 15.773,3.213 15.529,3.205 15.296,3.188 15.068,3.167 14.842,3.135 14.621,3.095 14.4,3.048 14.192,2.994 13.977,2.93 13.766,2.861 13.565,2.782 13.36,2.696 13.156,2.61 12.958,2.516 12.765,2.422 12.569,2.319 12.372,2.217 12.216,2.111 12.05,2.001 11.879,1.889 11.706,1.786 11.527,1.679 11.329,1.586 11.141,1.484 10.939,1.397 10.735,1.311 10.522,1.232 10.312,1.16 10.092,1.106 9.875,1.06 9.645,1.028 9.42,1.004 9.182,0.996 8.957,1.004 8.744,1.036 8.549,1.074 8.36,1.13 8.18,1.2 8.008,1.279 7.844,1.364 7.678,1.459 7.515,1.553 7.348,1.655 7.185,1.756 7.02,1.856 6.84,1.951 6.659,2.045 6.472,2.14 6.267,2.217 6.095,2.29 5.916,2.36 5.743,2.438 5.571,2.516 5.391,2.594 5.219,2.672 5.047,2.75 4.874,2.831 4.694,2.901 4.521,2.962 4.342,3.025 4.162,3.072 3.982,3.119 3.801,3.15 3.621,3.167 3.433,3.175 3.213,3.167 3.002,3.15 2.789,3.126 2.576,3.089 2.368,3.048 2.164,2.994 1.95,2.938 1.747,2.877 1.537,2.814 1.333,2.742 1.128,2.662 0.917,2.594 0.714,2.516 0.501,2.438 0.296,2.368 0.087,2.29 -0.007,2.258 -0.109,2.224 -0.211,2.188 -0.313,2.147 -0.424,2.117 -0.532,2.077 -0.642,2.037 -0.752,2.001 -0.872,1.959 -0.986,1.922 -1.096,1.889 -1.214,1.852 -1.338,1.819 -1.457,1.786 -1.576,1.756 -1.698,1.734 l 0.053,-0.135 0.053,-0.124 0.066,-0.119 0.06,-0.11 0.072,-0.099 0.076,-0.102 0.088,-0.095 0.093,-0.093 0.102,-0.095 0.111,-0.094 0.126,-0.095 0.132,-0.102 0.142,-0.11 0.165,-0.107 0.172,-0.12 z" /></g><g
               transform="matrix(21.5289,0,0,21.5289,161.50452,1220.7097)"
               id="g116"><path
                 id="path118"
                 style="fill:#ffffff;fill-opacity:1;fill-rule:evenodd;stroke:none"
                 d="M 0,0 0.393,0.024 0.794,0.053 1.184,0.085 1.577,0.11 1.969,0.147 2.359,0.18 2.752,0.212 3.144,0.241 3.534,0.275 3.927,0.306 4.32,0.336 4.709,0.368 5.103,0.397 5.495,0.422 5.885,0.446 6.279,0.471 6.67,0.484 7.068,0.5 7.461,0.508 7.854,0.516 H 8.252 L 8.653,0.508 9.043,0.5 9.443,0.484 9.845,0.471 10.242,0.439 10.65,0.405 11.049,0.368 11.458,0.32 l 0.407,-0.062 0.409,-0.062 0.404,-0.07 0.668,-0.213 0.627,-0.204 0.611,-0.196 0.58,-0.186 0.549,-0.188 0.533,-0.189 0.508,-0.18 0.488,-0.172 0.46,-0.18 0.456,-0.173 0.431,-0.18 0.414,-0.172 0.408,-0.171 0.391,-0.182 0.376,-0.181 0.368,-0.179 0.36,-0.188 0.361,-0.196 0.345,-0.197 0.351,-0.194 0.339,-0.212 0.345,-0.214 0.345,-0.224 0.343,-0.225 0.345,-0.246 0.354,-0.25 0.353,-0.259 0.367,-0.274 0.375,-0.282 0.377,-0.289 0.4,-0.314 0.407,-0.32 -1.544,-0.143 -0.321,0.347 -0.327,0.336 -0.332,0.321 -0.335,0.305 -0.337,0.29 -0.339,0.282 -0.344,0.266 -0.353,0.258 -0.344,0.241 -0.36,0.238 -0.352,0.226 -0.368,0.22 -0.361,0.202 -0.37,0.205 -0.375,0.188 -0.376,0.188 -0.383,0.18 -0.385,0.173 -0.392,0.164 -0.392,0.155 -0.391,0.16 -0.408,0.157 -0.398,0.147 -0.417,0.147 -0.415,0.144 -0.417,0.139 -0.422,0.143 -0.422,0.14 -0.431,0.139 -0.441,0.142 -0.438,0.141 -0.446,0.141 -0.391,0.08 -0.385,0.061 -0.399,0.063 -0.39,0.047 -0.401,0.037 L 10.21,0 9.804,0.024 9.398,0.04 H 8.989 8.583 8.167 L 7.751,0.024 7.335,0 6.921,-0.025 6.498,-0.054 6.073,-0.087 5.652,-0.135 5.229,-0.181 4.804,-0.227 4.373,-0.283 3.943,-0.336 3.513,-0.402 3.08,-0.463 2.65,-0.533 2.219,-0.604 1.79,-0.673 1.356,-0.746 0.917,-0.824 0.486,-0.901 0.048,-0.971 -0.382,-1.05 -0.821,-1.128 Z" /></g><g
               transform="matrix(21.5289,0,0,21.5289,196.4245,1222.3781)"
               id="g120"><path
                 id="path122"
                 style="fill:#ffffff;fill-opacity:1;fill-rule:evenodd;stroke:none"
                 d="M 0,0 10.939,3.156 V 2.544 L 0.089,-0.439 Z" /></g><g
               transform="matrix(21.5289,0,0,21.5289,668.81018,1119.3435)"
               id="g124"><path
                 id="path126"
                 style="fill:#ffffff;fill-opacity:1;fill-rule:evenodd;stroke:none"
                 d="M 0,0 -10.447,7.966 V 7.33 l 9.161,-6.891 z" /></g><g
               transform="matrix(21.5289,0,0,21.5289,349.61935,882.46814)"
               id="g128"><path
                 id="path130"
                 style="fill:#ffffff;fill-opacity:1;fill-rule:evenodd;stroke:none"
                 d="m 0,0 -1.245,0.304 -4.168,4.044 -1.082,0.991 -0.917,0.964 -0.761,0.934 -0.61,0.909 -0.462,0.868 -0.313,0.838 -0.18,0.79 -0.048,0.754 0.086,0.705 0.205,0.657 0.319,0.609 0.438,0.557 0.549,0.504 0.651,0.444 0.754,0.376 0.844,0.324 0.933,0.249 1.02,0.181 1.097,0.106 1.175,0.042 1.238,-0.042 1.309,-0.115 1.362,-0.205 1.42,-0.289 1.471,-0.375 1.522,-0.463 1.552,-0.556 1.597,-0.657 1.622,-0.752 1.647,-0.854 1.666,-0.955 1.687,-1.065 -0.815,0.218 -0.762,0.172 -0.72,0.134 -0.68,0.086 -0.636,0.046 -0.587,0.008 -0.55,-0.032 L 11.12,10.392 10.649,10.299 10.227,10.173 9.834,10.024 9.489,9.844 9.175,9.651 8.901,9.422 8.666,9.187 8.463,8.929 8.299,8.655 8.164,8.373 8.064,8.073 8.001,7.778 7.97,7.463 7.962,7.151 7.992,6.836 8.056,6.532 8.143,6.218 8.258,5.913 8.409,5.615 8.582,5.325 8.785,5.053 9.012,4.786 9.27,4.533 9.544,4.307 13.172,1.283 12.655,0.992 9.065,3.877 7.898,4.8 6.788,5.623 5.735,6.344 4.733,6.963 3.793,7.496 2.901,7.942 2.061,8.309 1.27,8.593 0.534,8.802 -0.149,8.95 -0.79,9.031 -1.378,9.053 -1.92,9.023 -2.419,8.945 -2.873,8.818 -3.282,8.655 -3.651,8.45 -3.972,8.216 -4.253,7.958 -4.496,7.667 -4.707,7.368 -4.873,7.057 -4.998,6.734 -5.092,6.406 -5.147,6.086 -5.171,5.762 l 0.008,-0.303 0.046,-0.3 0.072,-0.274 0.109,-0.251 0.134,-0.225 0.163,-0.188 z" /></g><g
               id="g132"><g
                 clip-path="url(#clipPath138)"
                 id="g134" /></g><g
               id="g140"><g
                 clip-path="url(#clipPath146)"
                 id="g142" /></g></g></g></g></g><g
       id="g148"><g
         clip-path="url(#clipPath154)"
         id="g150"><g
           id="g156"><g
             id="g158" /><g
             id="g168"><g
               id="g166"
               clip-path="url(#clipPath162)"><g
                 id="g164" /></g></g></g></g></g><g
       id="g170"><g
         clip-path="url(#clipPath176)"
         id="g172"><g
           id="g178"><g
             id="g180" /><g
             id="g190"><g
               style="opacity:0.82000703"
               id="g188"
               clip-path="url(#clipPath184)"><g
                 id="g186" /></g></g></g></g></g></g></svg>