<?xml version="1.0" encoding="UTF-8" standalone="no"?>
<svg
   xmlns:dc="http://purl.org/dc/elements/1.1/"
   xmlns:cc="http://creativecommons.org/ns#"
   xmlns:rdf="http://www.w3.org/1999/02/22-rdf-syntax-ns#"
   xmlns:svg="http://www.w3.org/2000/svg"
   xmlns="http://www.w3.org/2000/svg"
   viewBox="0 0 793.70135 1122.52"
   height="1122.52"
   width="793.70135"
   xml:space="preserve"
   id="svg2"
   version="1.1"><metadata
     id="metadata8"><rdf:RDF><cc:Work
         rdf:about=""><dc:format>image/svg+xml</dc:format><dc:type
           rdf:resource="http://purl.org/dc/dcmitype/StillImage" /></cc:Work></rdf:RDF></metadata><defs
     id="defs6"><clipPath
       id="clipPath18"
       clipPathUnits="userSpaceOnUse"><path
         id="path16"
         d="m 219.864,751.858 h 155.548 v 74.889 H 219.864 Z" /></clipPath><clipPath
       id="clipPath30"
       clipPathUnits="userSpaceOnUse"><path
         id="path28"
         d="m 219.864,751.858 h 155.548 v 74.889 H 219.864 Z" /></clipPath><clipPath
       id="clipPath42"
       clipPathUnits="userSpaceOnUse"><path
         id="path40"
         d="m 219.864,751.858 h 155.548 v 74.889 H 219.864 Z" /></clipPath><clipPath
       id="clipPath54"
       clipPathUnits="userSpaceOnUse"><path
         id="path52"
         d="m 219.864,751.858 h 155.548 v 74.889 H 219.864 Z" /></clipPath><clipPath
       id="clipPath66"
       clipPathUnits="userSpaceOnUse"><path
         id="path64"
         d="m 219.864,751.858 h 155.548 v 74.889 H 219.864 Z" /></clipPath><clipPath
       id="clipPath78"
       clipPathUnits="userSpaceOnUse"><path
         id="path76"
         d="m 219.864,751.858 h 155.548 v 74.889 H 219.864 Z" /></clipPath><clipPath
       id="clipPath90"
       clipPathUnits="userSpaceOnUse"><path
         id="path88"
         d="m 219.864,751.858 h 155.548 v 74.889 H 219.864 Z" /></clipPath><clipPath
       id="clipPath102"
       clipPathUnits="userSpaceOnUse"><path
         id="path100"
         d="m 219.864,751.858 h 155.548 v 74.889 H 219.864 Z" /></clipPath><clipPath
       id="clipPath114"
       clipPathUnits="userSpaceOnUse"><path
         id="path112"
         d="m 219.864,751.858 h 155.548 v 74.889 H 219.864 Z" /></clipPath><clipPath
       id="clipPath126"
       clipPathUnits="userSpaceOnUse"><path
         id="path124"
         d="m 219.864,751.858 h 155.548 v 74.889 H 219.864 Z" /></clipPath><clipPath
       id="clipPath138"
       clipPathUnits="userSpaceOnUse"><path
         id="path136"
         d="m 219.864,751.858 h 155.548 v 74.889 H 219.864 Z" /></clipPath><clipPath
       id="clipPath150"
       clipPathUnits="userSpaceOnUse"><path
         id="path148"
         d="m 219.864,751.858 h 155.548 v 74.889 H 219.864 Z" /></clipPath><clipPath
       id="clipPath160"
       clipPathUnits="userSpaceOnUse"><path
         id="path158"
         d="m 219.864,751.858 h 155.548 v 74.889 H 219.864 Z" /></clipPath><clipPath
       id="clipPath172"
       clipPathUnits="userSpaceOnUse"><path
         id="path170"
         d="m 219.864,751.858 h 155.548 v 74.889 H 219.864 Z" /></clipPath><clipPath
       id="clipPath184"
       clipPathUnits="userSpaceOnUse"><path
         id="path182"
         d="m 219.864,751.858 h 155.548 v 74.889 H 219.864 Z" /></clipPath><clipPath
       id="clipPath196"
       clipPathUnits="userSpaceOnUse"><path
         id="path194"
         d="m 219.864,751.858 h 155.548 v 74.889 H 219.864 Z" /></clipPath><clipPath
       id="clipPath208"
       clipPathUnits="userSpaceOnUse"><path
         id="path206"
         d="m 219.864,751.858 h 155.548 v 74.889 H 219.864 Z" /></clipPath><clipPath
       id="clipPath220"
       clipPathUnits="userSpaceOnUse"><path
         id="path218"
         d="m 219.864,751.858 h 155.548 v 74.889 H 219.864 Z" /></clipPath><clipPath
       id="clipPath232"
       clipPathUnits="userSpaceOnUse"><path
         id="path230"
         d="m 219.864,751.858 h 155.548 v 74.889 H 219.864 Z" /></clipPath><clipPath
       id="clipPath244"
       clipPathUnits="userSpaceOnUse"><path
         id="path242"
         d="m 219.864,751.858 h 155.548 v 74.889 H 219.864 Z" /></clipPath><clipPath
       id="clipPath256"
       clipPathUnits="userSpaceOnUse"><path
         id="path254"
         d="m 219.864,751.858 h 155.548 v 74.889 H 219.864 Z" /></clipPath><clipPath
       id="clipPath266"
       clipPathUnits="userSpaceOnUse"><path
         id="path264"
         d="m 219.864,751.858 h 155.548 v 74.889 H 219.864 Z" /></clipPath><clipPath
       id="clipPath278"
       clipPathUnits="userSpaceOnUse"><path
         id="path276"
         d="m 219.864,751.858 h 155.548 v 74.889 H 219.864 Z" /></clipPath></defs><g
     transform="matrix(1.3333333,0,0,-1.3333333,0,1122.52)"
     id="g10"><g
       transform="matrix(10.896164,0,0,10.896164,-2945.7119,-8116.6409)"
       id="g12"><g
         clip-path="url(#clipPath18)"
         id="g14"><g
           transform="translate(271.40748,820.85964)"
           id="g20"><path
             id="path22"
             style="fill:#1b252d;fill-opacity:1;fill-rule:evenodd;stroke:none"
             d="m 0,0 v -32.807 c 0,-14.859 10.708,-27.494 26.04,-30.726 l 0.208,-0.044 0.206,0.044 c 7.288,1.529 13.885,5.329 18.572,10.699 4.912,5.627 7.508,12.559 7.508,20.047 V 0 Z" /></g></g></g><g
       transform="matrix(10.896164,0,0,10.896164,-2945.7119,-8116.6409)"
       id="g24"><g
         clip-path="url(#clipPath30)"
         id="g26"><g
           transform="translate(272.62037,819.39314)"
           id="g32"><path
             id="path34"
             style="fill:#ffffff;fill-opacity:1;fill-rule:evenodd;stroke:none"
             d="m 0,0 v -31.292 c 0,-14.175 10.213,-26.227 24.839,-29.31 l 0.196,-0.043 0.197,0.043 c 6.952,1.459 13.245,5.084 17.716,10.206 4.686,5.367 7.16,11.98 7.16,19.12 l 0,31.276 z" /></g></g></g><g
       transform="matrix(10.896164,0,0,10.896164,-2945.7119,-8116.6409)"
       id="g36"><g
         clip-path="url(#clipPath42)"
         id="g38"><g
           transform="translate(296.9938,784.61852)"
           id="g44"><path
             id="path46"
             style="fill:#1b252d;fill-opacity:1;fill-rule:nonzero;stroke:none"
             d="m 0,0 c 0.138,-0.12 0.221,-0.273 0.225,-0.392 0.212,-0.196 0.525,-0.565 0.857,-1.218 0.125,0.36 0.426,2.348 -1.248,2.741 -0.777,-1.262 -1.938,-1.158 -1.938,-1.158 -0.157,-0.004 -0.287,0.12 -0.292,0.277 -0.004,0.155 0.113,0.285 0.27,0.288 0.321,0.044 2.161,0.323 1.77,1.114 -0.481,0.975 -2.31,-0.831 -2.31,-0.831 l -0.296,0.452 c 0.434,0.416 1.197,0.651 1.197,0.651 0,0 0.042,0.434 -1.437,-0.227 C -3.494,1.567 -3.671,0.998 -3.671,0.998 -3.702,0.901 -3.793,0.83 -3.9,0.826 -4.036,0.823 -4.151,0.931 -4.154,1.068 c -0.001,0.038 0.007,0.074 0.021,0.106 0,0 0.262,0.62 0.611,0.879 0.49,0.364 1.901,0.51 1.901,0.51 0,0 -1.784,0.546 -2.856,-0.104 C -4.848,2.234 -4.694,1.51 -5.04,1.326 c 0,0 -1.261,-0.277 -1.59,-0.555 -0.184,-0.155 -0.257,-0.479 -0.257,-0.479 0,0 -3.2,-1.172 -3.265,-1.52 -0.066,-0.348 0.138,-0.792 0.193,-0.777 0.054,0.014 10e-4,0.264 0.19,0.317 0.217,0.064 0.289,-0.041 0.435,0.029 0.193,0.092 0.197,0.324 0.264,0.348 0.085,0.031 0.098,-0.355 -0.223,-0.627 -0.261,-0.22 -0.544,-0.086 -0.581,-0.139 -0.038,-0.052 -0.13,-1.243 0.13,-1.504 0.024,-0.022 0.093,-0.03 0.196,-0.024 0.04,-0.261 0.136,-0.52 0.383,-0.831 0,0 0.182,0.055 0.167,0.268 -0.014,0.188 0.099,0.37 0.302,0.688 0.528,0.093 1.078,0.197 1.193,0.141 0.226,-0.11 1.126,-0.992 1.121,-1.28 -0.004,-0.19 -0.756,-0.878 -1.019,-0.973 -0.306,-0.113 -1.942,-0.037 -1.942,-0.037 -0.047,-0.051 -0.044,-0.569 0.132,-0.647 0.175,-0.077 1.115,-0.117 1.216,-0.214 0,0 0.233,-0.261 0.134,-0.902 -0.081,-0.528 -0.612,-0.775 -0.431,-1.481 0.413,0.372 0.619,0.658 0.722,0.853 -0.036,0.082 -0.03,0.207 0.02,0.335 0.077,0.198 0.233,0.329 0.349,0.295 0.115,-0.036 0.148,-0.225 0.069,-0.422 -0.045,-0.115 -0.115,-0.209 -0.19,-0.261 -0.074,-0.181 -0.259,-0.527 -0.696,-0.981 0.361,0.107 1.085,0.508 1.462,1.175 -0.451,1.943 0.355,2.65 0.804,2.886 0.077,0.04 0.176,0.032 0.245,-0.027 0.093,-0.079 0.106,-0.219 0.027,-0.311 -0.012,-0.013 -0.023,-0.023 -0.036,-0.033 -0.324,-0.256 -0.738,-0.887 -0.338,-2.379 0.376,0.54 0.523,0.915 0.579,1.151 -0.048,0.075 -0.077,0.188 -0.071,0.316 0.014,0.225 0.129,0.41 0.256,0.412 0.128,0.004 0.223,-0.177 0.21,-0.402 -0.009,-0.148 -0.06,-0.279 -0.131,-0.352 -0.037,-0.245 -0.174,-0.745 -0.645,-1.471 0.284,0.178 1.201,0.982 1.229,2.112 -0.667,1.179 -0.59,2.004 -0.328,2.546 0.057,0.117 0.195,0.171 0.318,0.121 0.112,-0.043 0.174,-0.162 0.154,-0.278 -0.086,-0.479 0.024,-1.205 0.72,-2.243 0.117,0.602 0.107,0.997 0.07,1.244 -0.067,0.065 -0.128,0.169 -0.162,0.294 -0.067,0.248 -0.008,0.488 0.13,0.537 0.139,0.049 0.305,-0.113 0.371,-0.362 0.032,-0.114 0.034,-0.227 0.016,-0.32 0.053,-0.272 0.1,-0.765 -0.023,-1.522 0.247,0.324 0.656,1.033 0.676,1.827 -1.959,1.457 -1.793,2.795 -1.526,3.364 0.067,0.142 0.237,0.201 0.378,0.134 0.121,-0.057 0.184,-0.191 0.156,-0.318 -0.09,-0.523 0.058,-1.477 1.705,-2.563 l 0.003,0.006 c -0.098,0.824 -0.274,1.306 -0.421,1.581 v -0.003 c -0.114,0.033 -0.242,0.135 -0.339,0.288 -0.156,0.243 -0.176,0.521 -0.043,0.621 0.131,0.1 0.365,-0.018 0.521,-0.262 0.094,-0.15 0.14,-0.311 0.13,-0.437 h 0.005 c 0.172,-0.272 0.465,-0.866 0.631,-1.952 0.123,0.408 0.331,2.023 -0.683,3.142 0.039,0.032 0.083,0.059 0.133,0.077 0.148,0.053 0.306,0.018 0.418,-0.076 0.452,-0.388 1.118,-0.792 2.083,-1.045 -0.247,0.518 -0.47,0.821 -0.641,1 -0.1,0.005 -0.223,0.058 -0.336,0.155 -0.191,0.165 -0.279,0.394 -0.192,0.51 C -0.418,0.206 -0.192,0.165 0,0 m -5.142,-0.293 c -0.128,-0.191 -0.5,-0.443 -0.856,-0.413 -0.002,0.001 0.001,-0.136 -0.208,-0.22 -0.119,-0.047 -0.211,0.019 -0.235,0.09 -0.017,0.054 0,0.117 0,0.117 -0.154,-0.091 -0.388,-0.197 -0.509,-0.102 l -0.031,0.023 0.49,0.546 0.025,-0.013 c 0.429,-0.291 1.01,-0.045 1.163,0.091 l 0.014,0.013 0.191,-0.065 z" /></g></g></g><g
       transform="matrix(10.896164,0,0,10.896164,-2945.7119,-8116.6409)"
       id="g48"><g
         clip-path="url(#clipPath54)"
         id="g50"><g
           transform="translate(291.01809,773.62461)"
           id="g56"><path
             id="path58"
             style="fill:#1b252d;fill-opacity:1;fill-rule:nonzero;stroke:none"
             d="m 0,0 c -0.035,-0.188 -0.055,-0.409 -0.056,-0.663 0.277,0.231 0.446,0.421 0.548,0.569 -0.01,0.069 0.006,0.155 0.051,0.243 C 0.626,0.307 0.768,0.402 0.861,0.363 0.955,0.324 0.963,0.163 0.881,0.005 0.829,-0.096 0.752,-0.171 0.68,-0.204 0.571,-0.384 0.377,-0.642 0.031,-0.952 0.335,-0.824 1.43,-0.207 1.884,0.662 1.883,0.835 1.893,0.992 1.914,1.135 1.368,0.743 0.886,0.521 0.877,0.549 0.85,0.64 0.825,0.726 0.801,0.813 0.607,0.485 0.324,0.218 0,0" /></g></g></g><g
       transform="matrix(10.896164,0,0,10.896164,-2945.7119,-8116.6409)"
       id="g60"><g
         clip-path="url(#clipPath66)"
         id="g62"><g
           transform="translate(291.01809,773.62461)"
           id="g68"><path
             id="path70"
             style="fill:#1b252d;fill-opacity:1;fill-rule:nonzero;stroke:none"
             d="M 0,0 C -0.001,-0.001 0,0 0,0" /></g></g></g><g
       transform="matrix(10.896164,0,0,10.896164,-2945.7119,-8116.6409)"
       id="g72"><g
         clip-path="url(#clipPath78)"
         id="g74"><g
           transform="translate(290.57632,776.1635)"
           id="g80"><path
             id="path82"
             style="fill:#1b252d;fill-opacity:1;fill-rule:nonzero;stroke:none"
             d="M 0,0 C 0,0 -0.002,0 0,0" /></g></g></g><g
       transform="matrix(10.896164,0,0,10.896164,-2945.7119,-8116.6409)"
       id="g84"><g
         clip-path="url(#clipPath90)"
         id="g86"><g
           transform="translate(296.20431,782.85839)"
           id="g92"><path
             id="path94"
             style="fill:#1b252d;fill-opacity:1;fill-rule:nonzero;stroke:none"
             d="m 0,0 c 0.123,-0.416 0.15,-0.862 0.123,-1.29 0.144,-0.515 0.479,-1.199 1.211,-2.017 0.098,0.625 0.07,1.022 0.018,1.261 -0.085,0.047 -0.167,0.152 -0.215,0.291 -0.078,0.222 -0.041,0.447 0.082,0.5 0.123,0.053 0.285,-0.083 0.363,-0.306 0.046,-0.132 0.052,-0.263 0.023,-0.361 0.066,-0.213 0.156,-0.654 0.091,-1.385 0.201,0.411 0.553,1.313 0.287,2.191 0.006,0.003 0.011,0.009 0.017,0.011 0.099,0.034 0.207,-0.005 0.263,-0.089 0.154,-0.234 0.387,-0.495 0.734,-0.775 -0.009,0.511 -0.086,0.831 -0.159,1.02 -0.081,0.018 -0.172,0.105 -0.23,0.231 -0.08,0.174 -0.068,0.357 0.027,0.409 0.096,0.054 0.237,-0.045 0.317,-0.217 0.043,-0.092 0.062,-0.186 0.055,-0.262 0.089,-0.169 0.245,-0.554 0.29,-1.247 C 3.456,-1.598 3.7,-0.036 2.274,0.918 2.429,0.059 2.295,-0.798 2.256,-0.792 1.182,-0.621 0.469,-0.329 0,0" /></g></g></g><g
       transform="matrix(10.896164,0,0,10.896164,-2945.7119,-8116.6409)"
       id="g96"><g
         clip-path="url(#clipPath102)"
         id="g98"><g
           transform="translate(299.39691,778.00688)"
           id="g104"><path
             id="path106"
             style="fill:#1b252d;fill-opacity:1;fill-rule:nonzero;stroke:none"
             d="M 0,0 C 0.199,0.231 0.906,1.413 0.25,2.316 0.166,2.069 0.087,1.914 0.073,1.924 -0.263,2.147 -0.538,2.363 -0.76,2.571 h -0.001 c -0.034,-0.343 -0.13,-0.668 -0.257,-0.974 0.049,-0.343 0.245,-0.805 0.742,-1.385 0.09,0.546 0.071,0.881 0.028,1.082 -0.067,0.04 -0.132,0.12 -0.173,0.228 -0.067,0.177 -0.042,0.36 0.056,0.406 0.098,0.046 0.233,-0.062 0.302,-0.239 C -0.021,1.575 -0.014,1.46 -0.041,1.38 0.02,1.178 0.101,0.74 0,0" /></g></g></g><g
       transform="matrix(10.896164,0,0,10.896164,-2945.7119,-8116.6409)"
       id="g108"><g
         clip-path="url(#clipPath114)"
         id="g110"><g
           transform="translate(294.51089,780.41723)"
           id="g116"><path
             id="path118"
             style="fill:#1b252d;fill-opacity:1;fill-rule:nonzero;stroke:none"
             d="M 0,0 C -0.002,0 0,-0.001 0,0" /></g></g></g><g
       transform="matrix(10.896164,0,0,10.896164,-2945.7119,-8116.6409)"
       id="g120"><g
         clip-path="url(#clipPath126)"
         id="g122"><g
           transform="translate(294.98012,780.09093)"
           id="g128"><path
             id="path130"
             style="fill:#1b252d;fill-opacity:1;fill-rule:nonzero;stroke:none"
             d="m 0,0 c -0.016,-0.38 -0.145,-0.766 -0.326,-1.121 -0.02,-0.53 0.069,-1.265 0.404,-2.261 0.282,0.575 0.39,0.983 0.424,1.255 -0.068,0.1 -0.108,0.259 -0.098,0.436 0.017,0.308 0.173,0.562 0.348,0.565 0.177,0.005 0.306,-0.243 0.289,-0.551 C 1.032,-1.846 0.982,-1.999 0.908,-2.103 0.892,-2.394 0.808,-2.9 0.494,-3.625 0.918,-3.186 1.747,-2.12 1.949,-0.973 1.561,-0.493 1.311,-0.055 1.161,0.342 1.029,-0.165 0.875,-0.504 0.847,-0.49 0.534,-0.325 0.253,-0.163 0,0" /></g></g></g><g
       transform="matrix(10.896164,0,0,10.896164,-2945.7119,-8116.6409)"
       id="g132"><g
         clip-path="url(#clipPath138)"
         id="g134"><g
           transform="translate(293.63681,775.34539)"
           id="g140"><path
             id="path142"
             style="fill:#1b252d;fill-opacity:1;fill-rule:nonzero;stroke:none"
             d="m 0,0 c -0.149,-0.291 -0.241,-0.768 -0.113,-1.552 0.295,0.341 0.449,0.6 0.529,0.785 -0.03,0.068 -0.035,0.165 -0.006,0.268 0.048,0.176 0.169,0.304 0.272,0.284 C 0.785,-0.235 0.827,-0.394 0.781,-0.57 0.752,-0.677 0.695,-0.766 0.632,-0.816 0.56,-1.03 0.394,-1.383 0.016,-1.846 0.292,-1.711 1.261,-1.021 1.201,0.075 1.099,0.001 1.038,-0.034 1.033,-0.023 0.891,0.307 0.776,0.615 0.683,0.905 0.523,0.576 0.275,0.269 0,0" /></g></g></g><g
       transform="matrix(10.896164,0,0,10.896164,-2945.7119,-8116.6409)"
       id="g144"><g
         clip-path="url(#clipPath150)"
         id="g146"><g
           transform="translate(290.86208,771.42869)"
           id="g152" /></g></g><g
       transform="matrix(10.896164,0,0,10.896164,-2945.7119,-8116.6409)"
       id="g154"><g
         clip-path="url(#clipPath160)"
         id="g156"><g
           transform="translate(291.35872,771.65611)"
           id="g162"><path
             id="path164"
             style="fill:#1b252d;fill-opacity:1;fill-rule:nonzero;stroke:none"
             d="M 0,0 C -0.034,0.471 0.076,0.768 0.138,0.894 0.655,1.132 1.244,1.477 1.61,1.908 1.624,1.819 1.641,1.727 1.66,1.632 1.519,1.533 0.83,1.028 0.718,0.299 0.477,0.205 0.232,0.101 0,0" /></g></g></g><g
       transform="matrix(10.896164,0,0,10.896164,-2945.7119,-8116.6409)"
       id="g166"><g
         clip-path="url(#clipPath172)"
         id="g168"><g
           transform="translate(290.86208,771.42869)"
           id="g174"><path
             id="path176"
             style="fill:#1b252d;fill-opacity:1;fill-rule:nonzero;stroke:none"
             d="M 0,0 C -0.055,0.344 0.012,0.7 0.055,0.883 -0.238,0.777 -0.436,0.73 -0.437,0.744 -0.445,0.841 -0.452,0.935 -0.457,1.026 -1.496,0.59 -3.256,0.316 -3.256,0.316 c 0,0 -3.65,0.261 -4.449,-0.926 -0.091,-0.135 -0.035,-0.122 -0.03,-0.121 0,0 0.217,0.562 1.267,0.443 0,0 -1.01,-0.111 -1.19,-0.828 -0.066,-0.264 -0.085,-0.928 0.005,-1.078 0.064,-0.108 0.346,-0.205 0.346,-0.205 0,0 0.01,0.781 0.047,0.94 0.158,0.654 1.049,0.557 1.049,0.557 0,0 -0.785,-0.16 -0.831,-0.709 -0.022,-0.261 -0.08,-1.06 0.003,-1.148 0.093,-0.097 0.386,-0.217 0.386,-0.217 0,0 -0.001,0.804 0.057,1.072 0.043,0.202 0.32,0.506 0.754,0.456 0,0 0.161,0.767 4.58,0.827 C -0.461,-0.194 -0.452,-0.209 0,0" /></g></g></g><g
       transform="matrix(10.896164,0,0,10.896164,-2945.7119,-8116.6409)"
       id="g178"><g
         clip-path="url(#clipPath184)"
         id="g180"><g
           transform="translate(292.35421,776.88157)"
           id="g186"><path
             id="path188"
             style="fill:#1b252d;fill-opacity:1;fill-rule:nonzero;stroke:none"
             d="M 0,0 C 0.284,0.363 0.487,0.792 0.475,1.267 0.633,1.029 0.816,0.78 1.028,0.517 1.045,0.496 1.331,0.74 1.654,1.128 1.655,0.823 1.69,0.483 1.768,0.109 1.452,-0.729 0.776,-1.437 0.387,-1.774 c 0.326,0.584 0.42,0.989 0.446,1.194 0.063,0.074 0.11,0.188 0.124,0.318 C 0.981,-0.038 0.896,0.146 0.769,0.15 0.641,0.154 0.518,-0.025 0.494,-0.249 0.477,-0.387 0.509,-0.516 0.561,-0.59 0.509,-0.823 0.371,-1.187 0.028,-1.703 -0.14,-0.926 -0.112,-0.384 0,0" /></g></g></g><g
       transform="matrix(10.896164,0,0,10.896164,-2945.7119,-8116.6409)"
       id="g190"><g
         clip-path="url(#clipPath196)"
         id="g192"><g
           transform="translate(290.57632,776.1635)"
           id="g198"><path
             id="path200"
             style="fill:#1b252d;fill-opacity:1;fill-rule:nonzero;stroke:none"
             d="M 0,0 C 0.048,-0.159 0.108,-0.327 0.173,-0.5 0.183,-0.526 0.572,-0.351 1.01,-0.023 1,-0.338 1.028,-0.707 1.108,-1.135 0.617,-2.107 -0.564,-2.663 -0.916,-2.777 c 0.639,0.508 0.903,0.915 1.005,1.118 0.078,0.044 0.156,0.131 0.211,0.242 0.093,0.19 0.077,0.382 -0.035,0.426 -0.112,0.045 -0.278,-0.074 -0.372,-0.264 -0.059,-0.125 -0.076,-0.249 -0.047,-0.333 -0.123,-0.194 -0.369,-0.48 -0.853,-0.838 0.047,0.992 0.258,1.543 0.475,1.85 C -0.32,-0.416 -0.138,-0.232 0,0" /></g></g></g><g
       transform="matrix(10.896164,0,0,10.896164,-2945.7119,-8116.6409)"
       id="g202"><g
         clip-path="url(#clipPath208)"
         id="g204"><g
           transform="translate(299.38382,770.25571)"
           id="g210"><path
             id="path212"
             style="fill:#1b252d;fill-opacity:1;fill-rule:nonzero;stroke:none"
             d="m 0,0 c 0,0 0.299,1.173 4.742,0.052 0,0 0.597,0.15 1.259,0.164 0,0 -3.831,1.713 -3.32,3.43 0.387,1.297 2.586,1.293 3.822,1.104 0.005,0 0.009,0 0.014,-0.001 C 6.613,4.739 6.686,4.654 6.676,4.556 6.668,4.467 6.593,4.4 6.506,4.397 5.236,4.348 3.415,4.497 3.33,3.489 c -0.175,-2.057 6.856,-4.22 6.856,-4.22 0.047,-0.017 0.077,-0.065 0.075,-0.117 -0.002,-0.065 -0.057,-0.118 -0.124,-0.114 -1.455,0.346 -3.15,0.844 -3.15,0.844 C 5.889,-0.063 4.651,-0.482 4.651,-0.482 2.541,0.343 0.848,0.19 0.355,-0.227 0.271,-0.295 0.322,-0.292 0.322,-0.294 c 0,0 0.653,0.239 0.943,-0.035 0,0 -1.153,0.024 -1.384,-0.677 -0.086,-0.257 -0.149,-0.803 -0.071,-0.959 0.056,-0.113 0.331,-0.23 0.331,-0.23 0,0 0.067,0.778 0.116,0.934 0.206,0.64 1.097,0.413 1.097,0.413 0,0 -0.696,0.017 -0.782,-0.527 -0.041,-0.258 -0.17,-1.218 -0.092,-1.31 0.085,-0.104 0.458,-0.221 0.458,-0.221 0,0 0.069,0.938 0.147,1.202 0.058,0.197 0.374,0.5 0.925,0.408 0,0 -0.491,-0.189 -0.531,-0.513 -0.04,-0.325 -0.124,-1.227 -0.124,-1.227 0,0 0.13,-0.14 0.467,-0.134 0.388,0.006 0.994,0.338 0.994,0.338 0,0 1.037,-0.242 2.233,0.224 l 2.511,0.483 c 0,0 4.361,-0.756 4.907,-0.004 0.821,1.127 -1.924,2.8 -1.924,2.8 1.223,-0.074 1.355,-0.369 1.355,-0.369 l 0.45,-0.492 c 0.229,-0.026 1.041,0.787 1.498,1.336 0.429,0.513 1.786,3.395 0.908,5.755 -1.526,4.105 -7.316,3.126 -7.595,6.237 -0.242,2.706 3.769,2.306 4.035,1.419 0,0 -0.488,-1.361 0.407,-2.107 0,0 1.407,-1.224 2.819,-0.446 -1.454,-0.051 -1.856,0.804 -2.03,1.136 -0.121,0.058 -0.229,0.231 -0.264,0.443 -0.046,0.269 0.043,0.5 0.199,0.514 0.154,0.015 0.317,-0.192 0.363,-0.463 0.021,-0.126 0.014,-0.244 -0.017,-0.334 0.138,-0.33 0.374,-1.161 2.034,-1.072 0.171,0.101 0.429,0.438 0.558,0.655 0,0 -0.752,-0.563 -1.43,-0.14 -0.808,0.503 -0.467,1.243 -0.902,1.826 -0.357,0.481 -0.754,0.499 -0.754,0.499 -1.375,2.199 -6.295,2.019 -6.398,-1.604 -0.128,-4.592 6.262,-3.38 7.959,-7.144 0.556,-1.231 -0.429,-1.606 -0.429,-1.606 0,0 0.498,-1.097 0.52,-1.719 C 13.848,2.45 13.67,1.566 13.439,1.602 l 0.026,1.125 c 0,0 -0.676,1.934 -1.12,2.174 -1.744,0.95 -2.318,1.165 -3.187,1.238 -0.574,0.047 -1.814,0.106 -1.814,0.106 0,0 -3.12,0.954 -4.073,1.03 0,0 -1.849,1.185 -2.652,1.476 C 0.487,7.81 -0.113,6.918 -0.141,6.945 -0.846,7.621 -1.197,8.2 -1.346,8.677 -1.558,8.325 -1.748,8.104 -1.766,8.12 -1.859,8.211 -1.946,8.298 -2.03,8.385 -2.154,7.823 -2.516,7.239 -2.935,6.721 -3.006,6.395 -3.008,5.954 -2.877,5.355 c 0.352,0.46 0.5,0.79 0.562,1.001 -0.045,0.07 -0.063,0.187 -0.044,0.313 0.033,0.201 0.152,0.356 0.268,0.345 0.114,-0.01 0.182,-0.18 0.15,-0.381 C -1.96,6.514 -2.009,6.411 -2.071,6.347 -2.113,6.132 -2.25,5.681 -2.714,5.036 c 0.212,0.119 0.852,0.528 1.114,1.237 0.006,0.02 0.017,0.039 0.032,0.055 0.053,0.064 0.121,0.063 0.182,0.029 0.059,-0.035 0.051,-0.116 0.035,-0.178 -0.352,-1.326 -1.906,-1.89 -1.924,-1.836 -0.217,0.666 -0.31,1.208 -0.32,1.65 C -3.781,5.807 -3.963,5.642 -4.122,5.505 -3.918,3.659 -6.259,2.591 -6.275,2.65 -6.288,2.699 -6.3,2.747 -6.311,2.794 -6.449,2.671 -6.783,2.31 -6.838,1.875 c 0.873,0.309 1.666,0.477 1.931,0.2 0,0 -1.931,-0.411 -4.667,-1.999 0,0 -4.095,0.123 -4.817,-0.676 -0.079,-0.09 -0.03,-0.097 -0.031,-0.098 0,0 0.346,0.286 0.932,0.081 0,0 -1.15,-0.06 -1.33,-0.777 -0.066,-0.265 -0.088,-0.811 10e-4,-0.961 0.066,-0.109 0.347,-0.205 0.347,-0.205 0,0 0.01,0.78 0.047,0.939 0.159,0.655 1.064,0.493 1.064,0.493 0,0 -0.694,-0.034 -0.741,-0.583 -0.022,-0.26 -0.081,-1.06 0.003,-1.147 0.094,-0.097 0.475,-0.186 0.475,-0.186 0,0 0,0.774 0.057,1.042 0.043,0.203 0.337,0.526 0.893,0.476 0,0 -0.476,-0.224 -0.49,-0.55 -0.017,-0.327 -0.043,-0.94 -0.043,-0.94 0,0 0.249,-0.173 0.501,-0.126 0.252,0.047 0.695,0.247 0.695,0.247 0,0 0.856,-0.091 2.014,0.462 1.44,0.689 4.646,0.754 5.881,1.284 0.97,0.416 3.62,4.346 3.62,4.346 0.623,0.03 1.409,0.242 1.409,0.242 0,0 -0.186,-0.44 -1.063,-0.54 0,0 -1.288,-1.993 -2.189,-3.126 0,0 1.57,0.213 2.339,0.227" /></g></g></g><g
       transform="matrix(10.896164,0,0,10.896164,-2945.7119,-8116.6409)"
       id="g214"><g
         clip-path="url(#clipPath220)"
         id="g216"><g
           transform="translate(289.13302,779.34898)"
           id="g222"><path
             id="path224"
             style="fill:#1b252d;fill-opacity:1;fill-rule:nonzero;stroke:none"
             d="M 0,0 C 0.328,0.225 0.827,0.716 0.83,0.87 0.831,0.927 0.795,1.012 0.735,1.109 0.706,1.111 0.675,1.115 0.644,1.116 -1.307,1.221 -1.533,0.476 -2.895,0.327 -3.378,0.275 -4.059,0.696 -4.149,0.361 -4.24,0.027 -3.305,-0.31 -2.862,-0.285 c 0.487,0.028 0.946,0.24 1.435,0.217 0.079,0.316 0.276,0.45 0.365,0.434 0.033,-0.007 -0.016,-0.168 -0.014,-0.4 0,0 0.853,-0.013 1.076,0.034" /></g></g></g><g
       transform="matrix(10.896164,0,0,10.896164,-2945.7119,-8116.6409)"
       id="g226"><g
         clip-path="url(#clipPath232)"
         id="g228"><g
           transform="translate(287.7683,773.63407)"
           id="g234"><path
             id="path236"
             style="fill:#1b252d;fill-opacity:1;fill-rule:nonzero;stroke:none"
             d="M 0,0 C 0.132,0.967 0.471,1.421 0.782,1.63 0.797,1.529 0.817,1.422 0.837,1.313 0.841,1.292 1.113,1.346 1.46,1.487 1.317,1.186 1.207,0.806 1.15,0.311 0.81,0.044 0.435,-0.104 0.201,-0.165 0.458,0.105 0.59,0.316 0.65,0.44 0.718,0.479 0.785,0.557 0.831,0.655 0.91,0.824 0.893,0.99 0.795,1.028 0.695,1.066 0.551,0.958 0.473,0.791 0.421,0.681 0.41,0.572 0.436,0.499 0.36,0.374 0.228,0.206 0,0" /></g></g></g><g
       transform="matrix(10.896164,0,0,10.896164,-2945.7119,-8116.6409)"
       id="g238"><g
         clip-path="url(#clipPath244)"
         id="g240"><g
           transform="translate(286.61019,772.39677)"
           id="g246"><path
             id="path248"
             style="fill:#1b252d;fill-opacity:1;fill-rule:nonzero;stroke:none"
             d="M 0,0 C 0.048,0.421 0.528,1.235 0.658,1.377 0.721,1.443 0.902,1.546 0.902,1.546 0.789,1.142 0.695,0.883 0.693,0.616 1.019,0.674 1.934,0.952 2.295,1.166 2.244,0.943 2.203,0.637 2.241,0.435 2.247,0.399 3.036,0.549 3.808,0.892 3.795,0.767 3.757,0.681 3.754,0.538 3.068,-0.002 1.63,-0.14 1.63,-0.14 1.629,0.044 1.632,0.262 1.694,0.504 1.215,0.317 0.516,0.087 0,0" /></g></g></g><g
       transform="matrix(10.896164,0,0,10.896164,-2945.7119,-8116.6409)"
       id="g250"><g
         clip-path="url(#clipPath256)"
         id="g252"><path
           id="path258"
           style="fill:#cd202f;fill-opacity:1;fill-rule:evenodd;stroke:none"
           d="m 323.941,790.389 h -52.534 v 30.47 h 52.534 z" /></g></g><g
       transform="matrix(10.896164,0,0,10.896164,-2945.7119,-8116.6409)"
       id="g260"><g
         clip-path="url(#clipPath266)"
         id="g262"><g
           transform="translate(297.75231,805.59901)"
           id="g268"><path
             id="path270"
             style="fill:#ffffff;fill-opacity:1;fill-rule:evenodd;stroke:none"
             d="M 0,0 -3.986,11.877 0,7.891 4.123,11.877 0,0 12.267,3.993 8.213,0 12.267,-3.942 0,0 4.123,-11.825 0,-8.118 -3.986,-11.825 Z" /></g></g></g><g
       transform="matrix(10.896164,0,0,10.896164,-2945.7119,-8116.6409)"
       id="g272"><g
         clip-path="url(#clipPath278)"
         id="g274"><g
           transform="translate(285.32851,809.5918)"
           id="g280"><path
             id="path282"
             style="fill:#ffffff;fill-opacity:1;fill-rule:evenodd;stroke:none"
             d="M 0,0 12.424,-3.993 0,-7.935 4.271,-3.993 Z" /></g></g></g></g></svg>