<?xml version="1.0" encoding="UTF-8" standalone="no"?>
<svg
   xmlns:dc="http://purl.org/dc/elements/1.1/"
   xmlns:cc="http://creativecommons.org/ns#"
   xmlns:rdf="http://www.w3.org/1999/02/22-rdf-syntax-ns#"
   xmlns:svg="http://www.w3.org/2000/svg"
   xmlns="http://www.w3.org/2000/svg"
   viewBox="0 0 793.70135 1122.52"
   height="1122.52"
   width="793.70135"
   xml:space="preserve"
   id="svg2"
   version="1.1"><metadata
     id="metadata8"><rdf:RDF><cc:Work
         rdf:about=""><dc:format>image/svg+xml</dc:format><dc:type
           rdf:resource="http://purl.org/dc/dcmitype/StillImage" /></cc:Work></rdf:RDF></metadata><defs
     id="defs6" /><g
     transform="matrix(1.3333333,0,0,-1.3333333,0,1122.52)"
     id="g10"><g
       transform="matrix(6.1960449,0,0,6.1960449,11.511856,829.58313)"
       id="g12"><path
         id="path14"
         style="fill:#231f20;fill-opacity:1;fill-rule:nonzero;stroke:none"
         d="M 0,0 V 0.434 H 0.434 Z M 0.434,0.434 0.868,0 V -46.671 H 0 V 0 Z m 0.434,-47.105 z m -0.868,0 h 0.868 l 0.052,-2.862 c 0.929,-26.286 17.808,-49.323 42.828,-57.594 l 2.317,-0.703 -0.234,-0.837 -2.352,0.714 c -25.36,8.381 -42.493,31.745 -43.428,58.389 z m 46.069,-61.994 -0.12,-0.035 -0.118,0.033 z m -0.238,-0.002 0.234,0.837 -0.238,-0.002 2.428,0.767 c 24.411,8.31 41.044,31.571 42.539,57.107 l 0.103,2.601 0.868,-0.014 -0.103,-2.638 C 90.09,-76.817 72.081,-101.045 46.069,-108.665 Z m 45.936,61.303 -0.002,-0.007 0.002,0.086 z m -0.002,-0.007 -0.87,0.007 V 0 h 0.872 V -47.364 Z M 91.331,0.434 h 0.436 V 0 Z M 91.767,0 91.331,-0.434 H 0.434 V 0.434 H 91.331 L 91.767,0" /></g><g
       transform="matrix(6.1960449,0,0,6.1960449,14.200973,829.58313)"
       id="g16"><path
         id="path18"
         style="fill:#ffffff;fill-opacity:1;fill-rule:nonzero;stroke:none"
         d="M 0,0 H 90.897 V -47.364 C 90.357,-75.399 71.863,-100.546 45.514,-108.249 20.465,-101.203 -0.093,-77.597 0,-46.671 V 0" /></g><g
       transform="matrix(6.1960449,0,0,6.1960449,25.694626,815.729)"
       id="g20"><path
         id="path22"
         style="fill:#005322;fill-opacity:1;fill-rule:nonzero;stroke:none"
         d="M 0,0 V 0.453 H 0.451 Z M 0.451,0.453 0.902,0 V -44.644 H 0 V 0 Z m 0.451,-45.097 z m -0.902,0 h 0.902 l 0.048,-2.737 c 0.876,-25.041 16.846,-47.121 40.698,-55.057 l 2.203,-0.673 -0.244,-0.874 -2.238,0.684 C 17.16,-95.248 0.931,-72.83 0.049,-47.413 Z m 43.854,-59.339 -0.124,-0.037 -0.123,0.035 z m -0.247,-0.002 0.244,0.874 -0.248,-0.002 2.307,0.734 c 23.269,7.971 39.012,30.265 40.423,54.593 l 0.098,2.486 0.902,-0.014 -0.098,-2.525 C 85.749,-73.41 68.685,-96.66 43.854,-103.983 Z m 43.728,58.678 -0.002,-0.007 0.002,0.095 z m -0.002,-0.007 -0.904,0.007 V 0 h 0.906 V -45.307 Z M 86.882,0.453 h 0.453 V 0 Z M 87.335,0 86.882,-0.453 H 0.451 V 0.453 H 86.882 L 87.335,0" /></g><g
       transform="matrix(6.1960449,0,0,6.1960449,28.489075,815.729)"
       id="g24"><path
         id="path26"
         style="fill:#00a650;fill-opacity:1;fill-rule:nonzero;stroke:none"
         d="M 0,0 H 86.431 V -45.307 C 85.918,-72.125 68.333,-96.179 43.278,-103.548 19.46,-96.808 -0.089,-74.228 0,-44.644 V 0" /></g><g
       transform="matrix(6.1960449,0,0,6.1960449,28.674927,816.9187)"
       id="g28"><path
         id="path30"
         style="fill:#ffdd00;fill-opacity:1;fill-rule:nonzero;stroke:none"
         d="M 0,0 C 14.378,-17.399 28.756,-34.798 43.135,-52.196 L 86.631,0.362 0,0" /></g><g
       transform="matrix(6.1960449,0,0,6.1960449,25.589294,817.15997)"
       id="g32"><path
         id="path34"
         style="fill:#231f20;fill-opacity:1;fill-rule:nonzero;stroke:none"
         d="M 0,0 V 0.454 H 0.451 Z M 0.451,0.454 0.902,0 V -44.725 H 0 V 0 Z m 0.451,-45.179 z m -0.902,0 h 0.902 l 0.048,-2.742 c 0.874,-25.062 16.822,-47.196 40.698,-55.157 l 2.203,-0.674 -0.244,-0.875 -2.238,0.685 c -24.233,8.076 -40.44,30.553 -41.32,55.989 z m 43.854,-59.446 -0.124,-0.037 -0.123,0.035 z m -0.247,-0.002 0.244,0.875 -0.248,-0.002 2.308,0.736 c 23.29,7.994 39.014,30.344 40.422,54.691 l 0.098,2.491 0.902,-0.014 -0.098,-2.53 C 85.752,-73.515 68.709,-96.827 43.854,-104.171 Z m 43.728,58.784 -0.002,-0.007 0.002,0.095 z m -0.002,-0.007 -0.904,0.007 V 0 h 0.906 v -45.389 z m -0.451,45.85 h 0.453 V 0 Z M 87.335,0 86.882,-0.454 H 0.451 V 0.454 H 86.882 L 87.335,0" /></g><g
       transform="matrix(6.1960449,0,0,6.1960449,158.68051,548.48084)"
       id="g36"><path
         id="path38"
         style="fill:#231f20;fill-opacity:1;fill-rule:nonzero;stroke:none"
         d="m 0,0 -0.354,0.354 0.342,0.368 z M 0.736,0.735 0,0 -0.012,0.722 c 1.384,1.462 2.875,3.09 4.681,4.034 L 4.807,4.827 5.274,3.897 5.151,3.834 C 3.54,2.998 2.174,1.513 0.937,0.215 L 0.748,0.013 Z M 4.807,4.827 5.15,4.999 5.416,4.72 Z m 0,0 L 5.416,4.72 15.003,-5.323 14.251,-6.039 4.664,4.004 Z m 10.196,-10.15 0.003,-0.003 -0.033,0.035 z m -0.752,-0.716 0.752,0.716 0.003,-0.003 c 1.326,-1.397 2.255,-2.883 2.987,-4.659 l 0.064,-0.16 -0.958,-0.395 -0.065,0.154 c -0.65,1.584 -1.485,2.953 -2.654,4.21 l -0.132,0.14 z m 2.949,-4.658 -0.064,0.067 -0.037,0.09 z m -0.101,0.157 0.858,0.553 26.255,-27.984 -0.757,-0.71 -26.255,27.984 z m 26.372,-28.157 -0.012,0.012 -0.004,0.004 z m -0.016,0.016 0.742,0.726 1.376,-1.34 -0.726,-0.742 -1.376,1.34 z m 1.629,-1.489 -0.135,0.034 -0.102,0.099 z m -0.237,0.133 0.726,0.742 -0.237,0.133 0.123,-0.032 c 1.194,-0.324 1.628,-0.72 1.9,-1.928 l 0.024,-0.098 -1.011,-0.238 -0.021,0.089 c -0.2,0.907 -0.381,0.954 -1.267,1.199 z m 2.536,-1.183 v -0.002 l 0.004,-0.019 z m -1.011,-0.238 1.011,0.238 0.004,-0.021 c 0.22,-0.957 -2.088,-2.921 -2.977,-2.903 l -0.149,0.003 0.093,1.034 0.002,10e-4 c 0.288,0.045 0.689,0.346 0.915,0.521 l 0.101,0.083 0.1,0.086 c 0.306,0.277 0.694,0.653 0.88,1.025 l 0.011,0.03 0.002,0.004 -0.002,-0.023 0.005,-0.057 z m -2.111,-2.683 -0.053,0.005 -0.052,0.016 z m 0.093,1.034 -0.093,-1.034 -0.105,0.021 c -1.192,0.359 -1.765,0.792 -2.061,2.039 l -0.026,0.11 1.01,0.231 0.022,-0.091 c 0.209,-0.851 0.449,-0.993 1.261,-1.267 l 0.097,-0.03 z m -1.405,1.611 0.098,-0.101 0.032,-0.143 z m 0.13,-0.244 -0.88,-0.475 -1.264,1.312 0.749,0.719 1.265,-1.312 z m -1.401,1.564 0.006,-0.008 -0.033,0.035 z m 0.006,-0.008 -0.743,-0.727 L 0,0 l 0.736,0.735 40.942,-40.911 0.006,-0.008" /></g><g
       transform="matrix(6.1960449,0,0,6.1960449,160.96063,550.76093)"
       id="g40"><path
         id="path42"
         style="fill:#ffffff;fill-opacity:1;fill-rule:nonzero;stroke:none"
         d="m 0,0 40.941,-40.911 1.265,-1.312 c 0.251,-1.093 0.595,-1.42 1.733,-1.768 0.768,-0.07 2.675,1.742 2.57,2.284 -0.242,1.023 -0.394,1.354 -1.667,1.674 l -1.376,1.34 -26.256,27.983 c -0.688,1.679 -1.489,3.112 -2.951,4.662 L 4.672,3.995 C 3.274,3.295 2.052,2.208 0,0" /></g><g
       transform="matrix(6.1960449,0,0,6.1960449,105.2581,515.45581)"
       id="g44"><path
         id="path46"
         style="fill:#231f20;fill-opacity:1;fill-rule:nonzero;stroke:none"
         d="M 0,0 -0.329,0.503 0.215,0.756 Z M 0.215,0.756 0.655,-0.186 0.869,0.57 1.165,0.134 c 4.59,-6.115 12.526,-11.622 18.615,-16.219 l 0.828,-0.604 -0.613,-0.838 -0.828,0.604 C 12.954,-12.22 4.499,-6.388 0,0 Z m 20.578,-18.03 -0.224,-0.671 -0.574,0.418 z m -0.798,-0.253 -0.185,0.584 1.417,4.231 0.984,-0.331 -1.418,-4.231 z m 1.232,4.815 0.002,0.002 -0.073,-0.215 z m 0.984,-0.331 -0.984,0.331 0.002,0.002 c 0.14,0.412 -0.682,1.219 -0.924,1.459 l -0.087,0.084 0.72,0.748 0.093,-0.09 c 0.611,-0.61 1.468,-1.507 1.203,-2.457 l -0.025,-0.078 z m -1.273,2.624 z m 0,0 -0.72,-0.748 -0.687,0.661 C 18.755,-9.532 7.673,0.228 11.322,1.749 L 11.585,1.84 11.849,0.836 11.747,0.8 11.689,0.768 c -0.359,-0.333 0.817,-2.115 1.017,-2.351 l 0.269,-0.37 0.297,-0.389 c 1.906,-2.402 4.14,-4.624 6.32,-6.776 l 0.662,-0.643 z M 11.585,1.84 11.88,1.916 12.091,1.699 Z m 0,0 0.506,-0.141 0.758,-0.783 -0.747,-0.722 -0.758,0.783 z m 1.245,-1.664 -0.372,-0.35 -0.356,0.368 z m -0.728,0.018 0.747,0.722 -0.728,0.017 0.187,0.176 c 1.883,1.766 3.796,3.5 5.746,5.19 l 0.197,0.17 0.675,-0.786 -0.193,-0.167 C 16.728,3.778 14.764,1.993 12.83,0.176 Z M 19.003,6.389 19.295,6.001 18.926,5.683 Z M 18.926,5.683 18.251,6.469 18.175,5.763 18.072,5.899 c -0.9,1.12 -2.213,2.686 -3.378,3.512 l -0.028,0.016 0.003,-0.002 0.055,-0.008 0.065,1.036 0.161,-0.028 c 1.233,-0.534 3.192,-2.959 4.053,-4.036 z m -4.503,4.649 0.161,0.134 0.205,-0.013 z M 14.789,10.453 14.724,9.417 15.09,9.538 14.899,9.379 C 13.034,7.826 11.17,6.272 9.305,4.719 L 9.115,4.56 8.448,5.354 8.639,5.513 c 1.928,1.606 3.856,3.212 5.784,4.819 z M 9.115,4.56 9.086,4.537 9.071,4.526 Z M 8.448,5.354 9.115,4.56 9.071,4.526 C 6.48,2.78 3.745,1.266 0.917,-0.062 L 0.655,-0.186 0.215,0.756 0.474,0.877 C 3.16,2.14 5.761,3.57 8.233,5.215 L 8.492,5.388 8.448,5.354" /></g><g
       transform="matrix(6.1960449,0,0,6.1960449,107.95337,517.22797)"
       id="g48"><path
         id="path50"
         style="fill:#ffffff;fill-opacity:1;fill-rule:nonzero;stroke:none"
         d="m 0,0 c 2.783,1.297 5.565,2.8 8.347,4.672 2.034,1.695 3.941,3.283 5.975,4.977 0.514,-0.032 2.724,-2.387 3.832,-3.858 -2.08,-1.797 -4.113,-3.643 -6.113,-5.522 l -0.759,0.783 c -2.129,-0.553 1.423,-5.007 8.862,-12.13 0.975,-0.936 1.319,-1.56 1.14,-2.085 l -1.417,-4.231 C 11,-10.939 3.121,-4.773 0,0" /></g><g
       transform="matrix(6.1960449,0,0,6.1960449,439.36768,554.24915)"
       id="g52"><path
         id="path54"
         style="fill:#231f20;fill-opacity:1;fill-rule:nonzero;stroke:none"
         d="M 0,0 0.342,-0.368 -0.012,-0.722 Z M -0.748,0.013 -0.76,-0.71 -0.949,-0.507 C -2.185,0.79 -3.552,2.276 -5.162,3.112 l -0.123,0.063 0.466,0.929 0.139,-0.07 C -2.875,3.089 -1.385,1.462 0,0 l -0.012,-0.722 z m -4.68,3.985 0.266,0.278 0.343,-0.172 z m 0.609,0.106 0.143,-0.822 -9.587,-10.043 -0.752,0.716 9.587,10.043 z m -10.199,-10.152 0.003,0.003 0.03,0.031 z m 0.755,-0.713 0.003,0.003 -0.131,-0.14 c -1.17,-1.257 -2.005,-2.627 -2.655,-4.21 l -0.065,-0.154 -0.958,0.395 0.065,0.159 c 0.73,1.775 1.661,3.264 2.986,4.66 l 0.003,0.003 z m -2.848,-4.501 -0.037,-0.09 -0.064,-0.068 z m 0,0 -0.101,-0.158 -26.255,-27.983 -0.757,0.709 26.255,27.984 z m -26.356,-28.141 -0.004,-0.004 -0.012,-0.012 z m 0,0 -0.016,-0.016 -1.376,-1.34 -0.726,0.741 1.377,1.34 z m -1.392,-1.356 -0.102,-0.1 -0.134,-0.033 z m 0,0 -0.236,-0.133 c -0.886,-0.247 -1.067,-0.29 -1.268,-1.199 l -0.021,-0.089 -1.011,0.237 0.024,0.099 c 0.272,1.207 0.705,1.605 1.9,1.928 l 0.123,0.032 -0.237,-0.134 z m -2.54,-1.204 0.004,0.018 v 0.002 z m 1.015,-0.217 0.004,0.02 0.005,0.058 -0.002,0.023 0.002,-0.005 c 0.226,-0.543 1.427,-1.639 2.007,-1.745 h 0.002 l 0.093,-1.034 -0.148,-0.003 c -0.89,-0.018 -3.198,1.945 -2.978,2.903 l 0.004,0.02 z m 2.216,-2.662 -0.052,-0.016 -0.053,-0.005 z m -0.198,1.013 -0.105,-0.021 0.097,0.03 c 0.813,0.273 1.052,0.415 1.261,1.267 l 0.022,0.091 1.01,-0.232 -0.026,-0.109 c -0.297,-1.248 -0.868,-1.68 -2.061,-2.039 l -0.105,-0.021 z m 1.275,1.367 0.033,0.142 0.097,0.102 z m 0,0 0.13,0.244 1.265,1.312 0.749,-0.719 -1.264,-1.312 z m 1.395,1.556 0.006,0.008 0.027,0.026 z m 0,0 0.006,0.008 40.942,40.911 0.736,-0.735 -40.941,-40.911 -0.743,0.727" /></g><g
       transform="matrix(6.1960449,0,0,6.1960449,437.01315,552.04968)"
       id="g56"><path
         id="path58"
         style="fill:#ffffff;fill-opacity:1;fill-rule:nonzero;stroke:none"
         d="m 0,0 -40.941,-40.911 -1.265,-1.312 c -0.251,-1.093 -0.594,-1.42 -1.733,-1.769 -0.768,-0.069 -2.675,1.743 -2.57,2.285 0.242,1.023 0.394,1.354 1.667,1.673 l 1.376,1.34 26.256,27.984 c 0.688,1.679 1.489,3.111 2.951,4.662 L -4.672,3.995 C -3.274,3.295 -2.052,2.208 0,0" /></g><g
       transform="matrix(6.1960449,0,0,6.1960449,491.38354,521.43512)"
       id="g60"><path
         id="path62"
         style="fill:#231f20;fill-opacity:1;fill-rule:nonzero;stroke:none"
         d="M 0,0 0.544,-0.253 0.215,-0.756 Z M 0,0 0.215,-0.756 C -4.283,-7.143 -12.74,-12.977 -18.952,-17.679 l -0.828,-0.604 -0.613,0.838 0.828,0.604 c 6.09,4.598 14.024,10.103 18.614,16.219 l 0.297,0.436 0.214,-0.756 z m -19.78,-18.283 -0.574,-0.418 -0.225,0.671 z m 0,0 -0.799,0.253 -1.417,4.231 0.984,0.331 1.417,-4.231 z m -1.234,4.817 0.002,-0.002 0.071,-0.212 z m -0.982,-0.333 0.002,-0.001 -0.026,0.078 c -0.264,0.95 0.593,1.847 1.204,2.457 l 0.092,0.09 0.721,-0.748 -0.087,-0.084 c -0.243,-0.241 -1.064,-1.046 -0.924,-1.459 l 0.002,-0.002 z m 1.272,2.624 z m 0,0 0.685,0.658 0.661,0.643 c 2.181,2.152 4.415,4.373 6.321,6.776 l 0.297,0.389 0.269,0.37 c 0.2,0.237 1.375,2.018 1.017,2.351 l -0.058,0.032 -0.102,0.036 0.264,1.004 0.263,-0.091 c 3.649,-1.521 -7.434,-11.281 -8.209,-12.255 l -0.687,-0.661 z m 8.848,12.118 0.211,0.217 0.295,-0.076 z m 0.506,0.141 0.241,-0.863 -0.758,-0.783 -0.747,0.722 0.758,0.783 z m -0.517,-1.646 -0.356,-0.368 -0.373,0.35 z m 0,0 -0.729,-0.018 c -1.934,1.817 -3.897,3.602 -5.903,5.34 l -0.193,0.167 0.676,0.786 0.196,-0.169 c 1.951,-1.691 3.863,-3.425 5.747,-5.19 l 0.187,-0.177 -0.728,-0.017 z m -6.825,5.489 -0.368,0.318 0.292,0.388 z m 0,0 -0.076,0.706 c 0.86,1.076 2.821,3.503 4.053,4.036 l 0.161,0.028 0.065,-1.036 0.055,0.008 0.003,0.002 -0.029,-0.016 C -15.645,7.83 -16.957,6.263 -17.857,5.143 l -0.103,-0.136 -0.076,0.706 z m 4.138,4.77 0.205,0.013 0.16,-0.134 z m 0,0 0.365,-0.121 c 1.929,-1.607 3.857,-3.213 5.785,-4.819 L -8.234,4.598 -8.9,3.804 -9.09,3.963 c -1.865,1.554 -3.73,3.107 -5.594,4.66 l -0.191,0.159 0.366,-0.121 z M -8.857,3.771 -8.872,3.781 -8.9,3.804 Z m 0.623,0.827 -0.043,0.034 0.259,-0.173 C -5.547,2.813 -2.945,1.384 -0.259,0.121 L 0,0 -0.44,-0.942 -0.702,-0.818 C -3.53,0.51 -6.265,2.024 -8.857,3.771 L -8.9,3.804 -8.234,4.598" /></g><g
       transform="matrix(6.1960449,0,0,6.1960449,490.02039,518.51678)"
       id="g64"><path
         id="path66"
         style="fill:#ffffff;fill-opacity:1;fill-rule:nonzero;stroke:none"
         d="m 0,0 c -2.783,1.297 -5.566,2.8 -8.347,4.672 -2.034,1.695 -3.941,3.283 -5.975,4.977 -0.514,-0.032 -2.724,-2.387 -3.832,-3.858 2.08,-1.797 4.113,-3.643 6.113,-5.521 l 0.758,0.783 c 2.13,-0.554 -1.422,-5.008 -8.861,-12.131 -0.975,-0.936 -1.319,-1.559 -1.14,-2.085 l 1.417,-4.23 C -11,-10.939 -3.121,-4.773 0,0" /></g><g
       transform="matrix(6.1960449,0,0,6.1960449,250.51828,794.7984)"
       id="g68"><path
         id="path70"
         style="fill:#231f20;fill-opacity:1;fill-rule:nonzero;stroke:none"
         d="M 0,0 C 0.3,0.341 0.682,0.464 1.064,0.628 1.105,1.119 1.487,1.583 1.979,1.474 2.142,1.433 2.32,1.31 2.47,1.31 2.92,1.269 3.425,1.296 3.848,1.446 4.285,1.61 4.708,2.047 5.172,2.006 5.349,1.979 5.677,1.856 5.759,1.583 L 5.827,1.324 C 5.84,1.119 5.704,0.901 5.745,0.737 5.84,0.382 6.263,0.273 6.482,-0.041 6.946,-0.71 7.383,-1.255 8.037,-1.733 8.215,-1.87 8.351,-2.02 8.447,-2.211 c 0.478,-0.873 0.737,-1.815 1.501,-2.483 0.641,-0.574 1.228,-1.105 1.965,-1.61 1.133,-0.778 1.239,-2.141 1.078,-3.358 -0.237,-1.79 0.093,-3.732 0.71,-5.963 0.381,-1.378 0.921,-2.665 1.228,-4.039 0.119,-0.533 0.162,-0.729 0.205,-1.259 0.136,-1.687 -0.215,-3.002 -0.614,-3.979 -0.09,-0.22 -0.355,-0.635 -0.243,-2.485 0.102,-1.678 0.984,-3.862 0.403,-5.942 -0.128,-0.46 -0.272,-0.827 -0.475,-1.319 -0.128,-0.313 -0.145,-0.5 -0.204,-0.769 -0.105,-0.476 0.142,-1.272 0.169,-1.914 l -0.183,-0.046 c -0.062,-0.56 -0.351,-1.122 -0.914,-1.146 -1.419,-0.061 -2.598,-0.022 -3.542,-0.155 -0.308,-0.044 -0.837,-0.263 -1.509,-0.237 -0.482,0.019 -1.059,0.238 -1.264,0.618 -0.133,0.246 -0.288,0.654 -0.208,0.898 0.283,0.869 2.023,1.088 2.577,1.005 0.47,-0.072 0.597,-0.085 0.996,-0.186 -0.262,0.325 -0.644,0.795 -0.83,1.209 -0.197,0.44 -0.075,0.956 -0.29,1.46 -0.311,0.724 -1.175,0.701 -1.593,1.433 -0.799,-0.726 -0.464,-2.537 -0.682,-3.411 -0.137,-0.642 -0.545,-1.236 -1.242,-1.078 -0.449,0.101 -0.713,0.156 -1.16,0.158 -0.545,0.002 -1.601,-0.052 -1.965,-0.243 -0.484,-0.254 -1.55,-0.346 -2.069,-0.156 -0.358,0.131 -0.712,0.534 -0.741,0.988 -0.071,1.103 0.305,1.223 1.27,0.836 0.167,-0.066 0.33,-0.053 0.582,-0.018 0.524,0.074 1.521,0.506 1.571,1.559 0.024,0.509 -0.216,1.024 -0.313,1.584 -0.026,0.15 -0.342,0.047 -0.266,0.411 0.055,0.266 0.019,0.492 -0.077,0.738 l -0.225,-0.148 c -0.165,0.368 -0.282,0.88 -0.442,1.263 l -0.218,-0.122 c -0.259,0.804 -0.202,1.805 0,2.613 0.329,1.312 -1.172,4.682 0.406,5.345 -0.574,0.395 -0.487,1.763 -0.657,2.235 -0.039,0.11 -0.017,0.159 -0.025,0.26 -0.008,0.086 -0.012,0.488 0.003,0.619 0.104,0.957 -1.024,0.935 -1.268,0.764 -0.149,-0.105 -0.242,-0.671 0.118,-0.807 0.508,-0.191 0.575,-0.416 0.506,-0.697 -0.082,-0.332 -0.617,-1.071 -0.83,-1.23 -0.234,-0.175 -0.505,-0.096 -0.75,-0.014 -0.642,0.178 -1.207,0.555 -1.57,1.065 -0.204,0.287 -0.33,0.701 -0.527,0.968 -0.041,0.055 -0.231,0.138 -0.264,0.259 -0.152,0.563 -0.002,1.052 0.3,1.543 0.5,0.812 1.392,1.336 2.02,1.801 0.621,0.46 0.641,1.255 0.737,1.992 0.003,0.024 -0.008,0.728 -0.014,0.86 -0.017,0.355 0.109,0.837 0.386,1.106 0.778,0.754 1.088,1.169 1.264,1.814 0.071,0.263 2.077,4.011 -1.159,4.466 -0.757,0.107 -1.689,0.022 -2.399,0.555 -0.086,0.064 -0.278,0.334 -0.08,0.345 4.579,0.269 0.244,1.02 0.053,1.092 -0.368,0.138 -0.556,0.438 -0.822,0.884 -0.116,0.195 -0.142,0.577 0.109,0.655 0.852,0.265 1.787,0.255 2.539,0.723 C -0.601,-0.491 -0.218,-0.273 0,0" /></g><g
       transform="matrix(6.1960449,0,0,6.1960449,247.32733,662.42633)"
       id="g72"><path
         id="path74"
         style="fill:#231f20;fill-opacity:1;fill-rule:nonzero;stroke:none"
         d="M 0,0 C 0.262,-0.285 0.53,-0.336 0.929,-0.229 0.559,-0.152 0.458,-0.05 0.258,0.398 -0.098,0.452 -0.171,0.276 0,0" /></g><g
       transform="matrix(6.1960449,0,0,6.1960449,247.32733,662.42633)"
       id="g76"><path
         id="path78"
         style="fill:none;stroke:#231f20;stroke-width:0.06;stroke-linecap:butt;stroke-linejoin:miter;stroke-miterlimit:10;stroke-dasharray:none;stroke-opacity:1"
         d="M 0,0 C 0.262,-0.285 0.53,-0.336 0.929,-0.229 0.559,-0.152 0.459,-0.05 0.258,0.398 -0.098,0.452 -0.172,0.276 0,0 Z" /></g><g
       transform="matrix(6.1960449,0,0,6.1960449,247.46982,662.63086)"
       id="g80"><path
         id="path82"
         style="fill:#ed1c24;fill-opacity:1;fill-rule:nonzero;stroke:none"
         d="M 0,0 C 0.185,-0.226 0.464,-0.342 0.76,-0.262 0.546,-0.206 0.318,-0.046 0.205,0.326 -0.048,0.356 -0.123,0.254 0,0" /></g><g
       transform="matrix(6.1960449,0,0,6.1960449,250.01645,664.88593)"
       id="g84"><path
         id="path86"
         style="fill:#231f20;fill-opacity:1;fill-rule:nonzero;stroke:none"
         d="M 0,0 C 0.308,-0.235 0.581,-0.239 0.954,-0.064 0.577,-0.053 0.46,0.03 0.185,0.436 -0.176,0.428 -0.217,0.243 0,0" /></g><g
       transform="matrix(6.1960449,0,0,6.1960449,250.01645,664.88593)"
       id="g88"><path
         id="path90"
         style="fill:none;stroke:#231f20;stroke-width:0.06;stroke-linecap:butt;stroke-linejoin:miter;stroke-miterlimit:10;stroke-dasharray:none;stroke-opacity:1"
         d="M 0,0 C 0.308,-0.235 0.581,-0.239 0.954,-0.064 0.577,-0.053 0.46,0.03 0.185,0.436 -0.176,0.428 -0.217,0.243 0,0 Z" /></g><g
       transform="matrix(6.1960449,0,0,6.1960449,250.12177,665.10907)"
       id="g92"><path
         id="path94"
         style="fill:#ed1c24;fill-opacity:1;fill-rule:nonzero;stroke:none"
         d="M 0,0 C 0.221,-0.19 0.516,-0.256 0.794,-0.126 0.573,-0.109 0.321,0.01 0.145,0.357 -0.109,0.342 -0.165,0.229 0,0" /></g><g
       transform="matrix(6.1960449,0,0,6.1960449,252.7984,667.43903)"
       id="g96"><path
         id="path98"
         style="fill:#231f20;fill-opacity:1;fill-rule:nonzero;stroke:none"
         d="M 0,0 C 0.37,-0.115 0.627,-0.026 0.919,0.267 0.56,0.148 0.422,0.186 0.025,0.474 -0.311,0.342 -0.287,0.154 0,0" /></g><g
       transform="matrix(6.1960449,0,0,6.1960449,252.7984,667.43903)"
       id="g100"><path
         id="path102"
         style="fill:none;stroke:#231f20;stroke-width:0.06;stroke-linecap:butt;stroke-linejoin:miter;stroke-miterlimit:10;stroke-dasharray:none;stroke-opacity:1"
         d="M 0,0 C 0.37,-0.115 0.627,-0.026 0.919,0.267 0.56,0.148 0.422,0.186 0.025,0.474 -0.311,0.343 -0.287,0.154 0,0 Z" /></g><g
       transform="matrix(6.1960449,0,0,6.1960449,252.82327,667.68671)"
       id="g104"><path
         id="path106"
         style="fill:#ed1c24;fill-opacity:1;fill-rule:nonzero;stroke:none"
         d="M 0,0 C 0.273,-0.103 0.573,-0.064 0.789,0.153 0.576,0.094 0.299,0.119 0.015,0.385 -0.22,0.284 -0.234,0.158 0,0" /></g><g
       transform="matrix(6.1960449,0,0,6.1960449,253.67209,670.9519)"
       id="g108"><path
         id="path110"
         style="fill:#231f20;fill-opacity:1;fill-rule:nonzero;stroke:none"
         d="M 0,0 C 0.37,-0.115 0.627,-0.026 0.919,0.267 0.56,0.148 0.422,0.186 0.025,0.473 -0.311,0.342 -0.287,0.154 0,0" /></g><g
       transform="matrix(6.1960449,0,0,6.1960449,253.67209,670.9519)"
       id="g112"><path
         id="path114"
         style="fill:none;stroke:#231f20;stroke-width:0.06;stroke-linecap:butt;stroke-linejoin:miter;stroke-miterlimit:10;stroke-dasharray:none;stroke-opacity:1"
         d="M 0,0 C 0.37,-0.115 0.627,-0.026 0.919,0.267 0.56,0.148 0.422,0.186 0.025,0.474 -0.311,0.342 -0.287,0.154 0,0 Z" /></g><g
       transform="matrix(6.1960449,0,0,6.1960449,253.69687,671.1936)"
       id="g116"><path
         id="path118"
         style="fill:#ed1c24;fill-opacity:1;fill-rule:nonzero;stroke:none"
         d="M 0,0 C 0.273,-0.103 0.573,-0.064 0.789,0.153 0.576,0.094 0.299,0.119 0.015,0.385 -0.22,0.284 -0.234,0.158 0,0" /></g><g
       transform="matrix(6.1960449,0,0,6.1960449,247.12909,576.79681)"
       id="g120"><path
         id="path122"
         style="fill:#231f20;fill-opacity:1;fill-rule:nonzero;stroke:none"
         d="m 0,0 c -0.378,-0.085 -0.556,-0.291 -0.662,-0.69 0.251,0.282 0.389,0.318 0.877,0.268 C 0.441,-0.141 0.325,0.01 0,0" /></g><g
       transform="matrix(6.1960449,0,0,6.1960449,247.12909,576.79681)"
       id="g124"><path
         id="path126"
         style="fill:none;stroke:#231f20;stroke-width:0.06;stroke-linecap:butt;stroke-linejoin:miter;stroke-miterlimit:10;stroke-dasharray:none;stroke-opacity:1"
         d="m 0,0 c -0.378,-0.085 -0.556,-0.291 -0.662,-0.69 0.251,0.282 0.389,0.318 0.877,0.268 C 0.441,-0.141 0.325,0.01 0,0 Z" /></g><g
       transform="matrix(6.1960449,0,0,6.1960449,247.23441,576.57373)"
       id="g128"><path
         id="path130"
         style="fill:#ed1c24;fill-opacity:1;fill-rule:nonzero;stroke:none"
         d="m 0,0 c -0.288,-0.047 -0.528,-0.231 -0.607,-0.527 0.155,0.158 0.408,0.275 0.787,0.186 C 0.332,-0.136 0.281,-0.02 0,0" /></g><g
       transform="matrix(6.1960449,0,0,6.1960449,246.07574,572.55859)"
       id="g132"><path
         id="path134"
         style="fill:#231f20;fill-opacity:1;fill-rule:nonzero;stroke:none"
         d="m 0,0 c -0.357,-0.149 -0.497,-0.383 -0.532,-0.795 0.198,0.322 0.328,0.381 0.817,0.416 C 0.459,-0.062 0.319,0.066 0,0" /></g><g
       transform="matrix(6.1960449,0,0,6.1960449,246.07574,572.55859)"
       id="g136"><path
         id="path138"
         style="fill:none;stroke:#231f20;stroke-width:0.06;stroke-linecap:butt;stroke-linejoin:miter;stroke-miterlimit:10;stroke-dasharray:none;stroke-opacity:1"
         d="m 0,0 c -0.357,-0.149 -0.497,-0.383 -0.532,-0.795 0.198,0.322 0.328,0.381 0.817,0.416 C 0.459,-0.062 0.319,0.067 0,0 Z" /></g><g
       transform="matrix(6.1960449,0,0,6.1960449,246.21823,572.36047)"
       id="g140"><path
         id="path142"
         style="fill:#ed1c24;fill-opacity:1;fill-rule:nonzero;stroke:none"
         d="m 0,0 c -0.275,-0.096 -0.48,-0.319 -0.506,-0.624 0.125,0.182 0.354,0.341 0.743,0.32 C 0.351,-0.077 0.281,0.029 0,0" /></g><g
       transform="matrix(6.1960449,0,0,6.1960449,246.79446,568.62445)"
       id="g144"><path
         id="path146"
         style="fill:#231f20;fill-opacity:1;fill-rule:nonzero;stroke:none"
         d="m 0,0 c -0.285,-0.262 -0.336,-0.53 -0.229,-0.929 0.077,0.37 0.179,0.471 0.627,0.671 C 0.452,0.099 0.277,0.172 0,0" /></g><g
       transform="matrix(6.1960449,0,0,6.1960449,246.79446,568.62445)"
       id="g148"><path
         id="path150"
         style="fill:none;stroke:#231f20;stroke-width:0.06;stroke-linecap:butt;stroke-linejoin:miter;stroke-miterlimit:10;stroke-dasharray:none;stroke-opacity:1"
         d="m 0,0 c -0.285,-0.262 -0.336,-0.53 -0.229,-0.929 0.077,0.37 0.179,0.471 0.627,0.671 C 0.452,0.099 0.277,0.172 0,0 Z" /></g><g
       transform="matrix(6.1960449,0,0,6.1960449,246.99899,568.48187)"
       id="g152"><path
         id="path154"
         style="fill:#ed1c24;fill-opacity:1;fill-rule:nonzero;stroke:none"
         d="m 0,0 c -0.226,-0.185 -0.342,-0.464 -0.262,-0.76 0.056,0.214 0.216,0.442 0.588,0.555 C 0.356,0.048 0.254,0.123 0,0" /></g><g
       transform="matrix(6.1960449,0,0,6.1960449,249.60129,566.10883)"
       id="g156"><path
         id="path158"
         style="fill:#231f20;fill-opacity:1;fill-rule:nonzero;stroke:none"
         d="m 0,0 c -0.285,-0.262 -0.336,-0.53 -0.229,-0.929 0.077,0.37 0.179,0.471 0.627,0.671 C 0.452,0.098 0.277,0.172 0,0" /></g><g
       transform="matrix(6.1960449,0,0,6.1960449,249.60129,566.10883)"
       id="g160"><path
         id="path162"
         style="fill:none;stroke:#231f20;stroke-width:0.06;stroke-linecap:butt;stroke-linejoin:miter;stroke-miterlimit:10;stroke-dasharray:none;stroke-opacity:1"
         d="m 0,0 c -0.285,-0.262 -0.336,-0.53 -0.229,-0.929 0.077,0.37 0.179,0.47 0.627,0.671 C 0.452,0.098 0.277,0.172 0,0 Z" /></g><g
       transform="matrix(6.1960449,0,0,6.1960449,249.80579,565.96625)"
       id="g164"><path
         id="path166"
         style="fill:#ed1c24;fill-opacity:1;fill-rule:nonzero;stroke:none"
         d="m 0,0 c -0.226,-0.185 -0.342,-0.464 -0.262,-0.76 0.056,0.214 0.216,0.442 0.588,0.555 C 0.356,0.048 0.254,0.123 0,0" /></g><g
       transform="matrix(6.1960449,0,0,6.1960449,290.06149,564.75189)"
       id="g168"><path
         id="path170"
         style="fill:#231f20;fill-opacity:1;fill-rule:nonzero;stroke:none"
         d="m 0,0 c -0.378,-0.085 -0.556,-0.291 -0.662,-0.69 0.251,0.282 0.39,0.318 0.877,0.268 C 0.441,-0.141 0.325,0.01 0,0" /></g><g
       transform="matrix(6.1960449,0,0,6.1960449,290.06149,564.75189)"
       id="g172"><path
         id="path174"
         style="fill:none;stroke:#231f20;stroke-width:0.06;stroke-linecap:butt;stroke-linejoin:miter;stroke-miterlimit:10;stroke-dasharray:none;stroke-opacity:1"
         d="m 0,0 c -0.378,-0.085 -0.556,-0.291 -0.662,-0.69 0.251,0.282 0.39,0.318 0.877,0.267 C 0.441,-0.141 0.325,0.01 0,0 Z" /></g><g
       transform="matrix(6.1960449,0,0,6.1960449,290.16681,564.52875)"
       id="g176"><path
         id="path178"
         style="fill:#ed1c24;fill-opacity:1;fill-rule:nonzero;stroke:none"
         d="m 0,0 c -0.288,-0.047 -0.528,-0.231 -0.607,-0.527 0.155,0.158 0.408,0.275 0.787,0.186 C 0.332,-0.136 0.281,-0.02 0,0" /></g><g
       transform="matrix(6.1960449,0,0,6.1960449,290.22873,561.32526)"
       id="g180"><path
         id="path182"
         style="fill:#231f20;fill-opacity:1;fill-rule:nonzero;stroke:none"
         d="m 0,0 c -0.357,-0.149 -0.497,-0.383 -0.532,-0.795 0.198,0.322 0.328,0.381 0.817,0.416 C 0.459,-0.062 0.319,0.067 0,0" /></g><g
       transform="matrix(6.1960449,0,0,6.1960449,290.22873,561.32526)"
       id="g184"><path
         id="path186"
         style="fill:none;stroke:#231f20;stroke-width:0.06;stroke-linecap:butt;stroke-linejoin:miter;stroke-miterlimit:10;stroke-dasharray:none;stroke-opacity:1"
         d="m 0,0 c -0.357,-0.149 -0.497,-0.383 -0.532,-0.795 0.198,0.322 0.328,0.381 0.817,0.416 C 0.459,-0.062 0.319,0.067 0,0 Z" /></g><g
       transform="matrix(6.1960449,0,0,6.1960449,290.36508,561.12067)"
       id="g188"><path
         id="path190"
         style="fill:#ed1c24;fill-opacity:1;fill-rule:nonzero;stroke:none"
         d="m 0,0 c -0.275,-0.096 -0.48,-0.319 -0.506,-0.625 0.125,0.183 0.354,0.342 0.742,0.321 C 0.351,-0.077 0.28,0.029 0,0" /></g><g
       transform="matrix(6.1960449,0,0,6.1960449,291.30069,557.68829)"
       id="g192"><path
         id="path194"
         style="fill:#231f20;fill-opacity:1;fill-rule:nonzero;stroke:none"
         d="m 0,0 c -0.285,-0.262 -0.336,-0.53 -0.228,-0.929 0.076,0.37 0.178,0.471 0.626,0.671 C 0.452,0.099 0.277,0.172 0,0" /></g><g
       transform="matrix(6.1960449,0,0,6.1960449,291.30069,557.68829)"
       id="g196"><path
         id="path198"
         style="fill:none;stroke:#231f20;stroke-width:0.06;stroke-linecap:butt;stroke-linejoin:miter;stroke-miterlimit:10;stroke-dasharray:none;stroke-opacity:1"
         d="m 0,0 c -0.285,-0.262 -0.336,-0.53 -0.228,-0.929 0.076,0.37 0.178,0.471 0.626,0.671 C 0.452,0.099 0.277,0.172 0,0 Z" /></g><g
       transform="matrix(6.1960449,0,0,6.1960449,291.50519,557.54578)"
       id="g200"><path
         id="path202"
         style="fill:#ed1c24;fill-opacity:1;fill-rule:nonzero;stroke:none"
         d="m 0,0 c -0.226,-0.185 -0.342,-0.464 -0.262,-0.76 0.056,0.214 0.216,0.442 0.588,0.555 C 0.356,0.048 0.254,0.123 0,0" /></g><g
       transform="matrix(6.1960449,0,0,6.1960449,294.42346,555.92865)"
       id="g204"><path
         id="path206"
         style="fill:#231f20;fill-opacity:1;fill-rule:nonzero;stroke:none"
         d="m 0,0 c -0.285,-0.262 -0.336,-0.53 -0.228,-0.929 0.076,0.37 0.178,0.471 0.626,0.671 C 0.452,0.098 0.277,0.172 0,0" /></g><g
       transform="matrix(6.1960449,0,0,6.1960449,294.42346,555.92865)"
       id="g208"><path
         id="path210"
         style="fill:none;stroke:#231f20;stroke-width:0.06;stroke-linecap:butt;stroke-linejoin:miter;stroke-miterlimit:10;stroke-dasharray:none;stroke-opacity:1"
         d="m 0,0 c -0.285,-0.262 -0.336,-0.53 -0.229,-0.929 0.077,0.37 0.179,0.471 0.627,0.671 C 0.452,0.098 0.277,0.172 0,0 Z" /></g><g
       transform="matrix(6.1960449,0,0,6.1960449,294.62799,555.78607)"
       id="g212"><path
         id="path214"
         style="fill:#ed1c24;fill-opacity:1;fill-rule:nonzero;stroke:none"
         d="m 0,0 c -0.226,-0.185 -0.342,-0.464 -0.262,-0.76 0.056,0.214 0.216,0.442 0.588,0.555 C 0.356,0.048 0.254,0.123 0,0" /></g><g
       transform="matrix(6.1960449,0,0,6.1960449,235.53625,768.87439)"
       id="g216"><path
         id="path218"
         style="fill:#231f20;fill-opacity:1;fill-rule:nonzero;stroke:none"
         d="M 0,0 C -0.032,0.13 -0.039,0.27 0.094,0.478 0.13,0.286 0.197,0.188 0.335,-0.087 L 0.074,-0.114 0,0" /></g><g
       transform="matrix(6.1960449,0,0,6.1960449,235.53625,768.87439)"
       id="g220"><path
         id="path222"
         style="fill:none;stroke:#231f20;stroke-width:0.06;stroke-linecap:butt;stroke-linejoin:miter;stroke-miterlimit:10;stroke-dasharray:none;stroke-opacity:1"
         d="M 0,0 C -0.032,0.13 -0.039,0.27 0.094,0.478 0.13,0.286 0.197,0.188 0.335,-0.087 L 0.074,-0.114 Z" /></g><g
       transform="matrix(6.1960449,0,0,6.1960449,236.07532,771.36499)"
       id="g224"><path
         id="path226"
         style="fill:#ed1c24;fill-opacity:1;fill-rule:nonzero;stroke:none"
         d="M 0,0 C 0.019,-0.083 0.084,-0.259 0.199,-0.451 L -0.014,-0.475 C -0.074,-0.481 -0.105,-0.084 0,0" /></g><g
       transform="matrix(6.1960449,0,0,6.1960449,257.09235,680.63019)"
       id="g228"><path
         id="path230"
         style="fill:#ffffff;fill-opacity:1;fill-rule:nonzero;stroke:none"
         d="M 0,0 C 0.124,3.387 1.091,2.93 1.758,5.76 L 1.825,6.035 C 1.585,6.032 1.31,5.968 0.911,5.849 1.159,6.131 1.621,6.522 1.903,6.667 L 1.937,6.866 C 1.677,6.848 1.097,6.621 0.78,6.592 0.963,6.831 1.527,7.102 2.026,7.279 l 0.01,0.236 C 1.794,7.484 1.271,7.263 0.998,7.263 1.206,7.439 1.638,7.812 2.089,7.973 L 2.097,8.201 C 1.863,8.238 1.376,8.146 1.01,8.016 1.064,8.25 1.902,8.518 2.19,8.626 L 2.193,8.898 C 1.92,8.907 1.365,8.703 1.225,8.602 1.322,8.901 1.967,9.26 2.157,9.319 L 2.152,9.529 C 1.943,9.476 1.616,9.423 1.272,9.295 1.424,9.6 1.978,9.785 2.163,9.903 L 2.159,10.042 C 2.008,10.027 1.563,9.881 1.322,9.792 c 0.143,0.21 0.627,0.434 0.831,0.518 v 0.298 C 2.009,10.563 1.481,10.483 1.231,10.311 c 0.156,0.327 0.726,0.503 0.882,0.612 l -0.009,0.108 c -0.149,0.002 -0.766,-0.17 -0.895,-0.266 0.106,0.187 0.639,0.561 0.776,0.645 L 1.971,11.533 C 1.813,11.576 1.5,11.455 1.377,11.386 c 0.081,0.134 0.348,0.42 0.534,0.513 -0.038,0.118 -0.06,0.172 -0.084,0.246 -0.109,0.087 -0.514,-0.115 -0.605,-0.218 0.049,0.144 0.286,0.35 0.392,0.428 -0.16,0.587 -1.467,0.863 -1.959,0.905 l -0.53,0.038 C -0.101,13.26 1.279,13.246 1.728,12.547 L 1.802,12.393 C 1.217,11.967 1.845,12.385 1.882,12.308 1.928,12.212 2,11.993 2.035,11.883 2.051,11.836 1.59,11.535 1.707,11.589 l 0.411,0.073 C 2.151,11.523 2.184,11.367 2.165,11.359 1.96,11.276 1.551,11.02 1.555,10.982 l 0.668,0.18 0.021,-0.296 -0.764,-0.368 c 0.152,0.047 0.773,0.281 0.776,0.232 L 2.272,10.304 1.803,10.029 C 1.895,10.025 2.29,10.195 2.29,10.15 L 2.302,9.9 1.605,9.492 2.295,9.667 2.287,9.321 C 2.285,9.231 1.702,8.957 1.596,8.882 L 2.295,9.04 C 2.3,8.95 2.299,8.674 2.293,8.584 2.288,8.505 1.592,8.28 1.492,8.261 1.266,8.217 2.272,8.389 2.267,8.328 2.259,8.23 2.251,8.035 2.243,7.939 L 1.432,7.475 2.191,7.688 C 2.179,7.569 2.148,7.359 2.146,7.242 2.145,7.222 1.362,6.865 1.237,6.803 L 2.11,6.989 C 2.094,6.852 2.08,6.78 2.065,6.651 L 1.276,6.053 1.994,6.153 1.97,5.994 C 1.599,3.42 0.169,3.445 0.156,-0.353 0.149,-0.227 0.049,-0.05 0,0" /></g><g
       transform="matrix(6.1960449,0,0,6.1960449,319.69098,747.42346)"
       id="g232"><path
         id="path234"
         style="fill:#ffffff;fill-opacity:1;fill-rule:nonzero;stroke:none"
         d="M 0,0 0.091,0.168 0.229,0.078 C 1.458,-0.954 0.295,-5.14 1.384,-7.141 l 0.119,-0.254 -0.17,-0.086 -0.124,0.265 c -1.091,1.979 0.015,6.12 -1.096,7.142 z m 1.503,-7.395 0.002,-0.002 0.001,-0.004 z m -0.17,-0.086 0.17,0.086 0.003,-0.006 C 1.854,-8.213 2.211,-9.498 1.123,-9.912 l -0.068,-0.024 -0.058,0.182 0.06,0.021 c 0.909,0.335 0.596,1.446 0.329,2.121 L 1.33,-7.476 Z M 1.055,-9.936 1.052,-9.937 H 1.049 Z M 0.997,-9.754 1.055,-9.936 1.049,-9.937 c -2.719,-0.582 -5.152,1.779 -7.516,-1.191 l -0.226,-0.307 -0.157,0.108 0.233,0.317 c 2.372,2.942 4.649,0.881 7.392,1.209 l 0.227,0.049 z m -7.69,-1.681 -0.048,-0.071 -0.076,0.041 z m -0.157,0.108 0.157,-0.108 -0.124,-0.03 c -1.125,0.635 -1.784,1.896 -0.919,3.058 l 0.102,0.131 0.147,-0.121 -0.095,-0.123 c -0.773,-1.038 -0.201,-2.132 0.782,-2.735 l 0.074,-0.042 z m -0.784,3.051 0.004,0.005 0.003,0.003 z m 0.147,-0.121 -0.147,0.121 0.007,0.008 c 1.387,1.485 3.165,3.025 5.292,1.872 l 0.241,-0.146 -0.104,-0.16 -0.23,0.139 C -4.413,-5.477 -6.12,-6.939 -7.419,-8.33 l -0.074,-0.075 z m 5.423,1.824 0.205,-0.351 -0.339,0.222 z m -0.134,-0.129 0.104,0.16 -0.135,-0.128 -0.171,0.274 c -1.921,2.729 -4.548,1.588 -3.032,6.348 l 0.17,0.493 0.179,-0.064 -0.167,-0.488 c -1.486,-4.625 1.084,-3.408 3.009,-6.182 l 0.177,-0.284 -0.134,-0.129" /></g><g
       transform="matrix(6.1960449,0,0,6.1960449,268.66037,687.82996)"
       id="g236"><path
         id="path238"
         style="fill:#ffffff;fill-opacity:1;fill-rule:nonzero;stroke:none"
         d="m 0,0 c -0.326,-0.209 -0.423,-0.464 -0.386,-0.875 0.139,0.351 0.257,0.432 0.733,0.552 C 0.462,0.018 0.302,0.121 0,0" /></g><g
       transform="matrix(6.1960449,0,0,6.1960449,268.66037,687.82996)"
       id="g240"><path
         id="path242"
         style="fill:none;stroke:#ffffff;stroke-width:0.06;stroke-linecap:butt;stroke-linejoin:miter;stroke-miterlimit:10;stroke-dasharray:none;stroke-opacity:1"
         d="m 0,0 c -0.326,-0.209 -0.423,-0.464 -0.386,-0.875 0.139,0.351 0.257,0.432 0.733,0.552 C 0.462,0.018 0.302,0.121 0,0 Z" /></g><g
       transform="matrix(6.1960449,0,0,6.1960449,268.83383,687.65637)"
       id="g244"><path
         id="path246"
         style="fill:#ed1c24;fill-opacity:1;fill-rule:nonzero;stroke:none"
         d="m 0,0 c -0.254,-0.143 -0.417,-0.397 -0.39,-0.703 0.092,0.201 0.289,0.398 0.676,0.444 C 0.359,-0.014 0.271,0.077 0,0" /></g><g
       transform="matrix(6.1960449,0,0,6.1960449,269.89957,684.19904)"
       id="g248"><path
         id="path250"
         style="fill:#ffffff;fill-opacity:1;fill-rule:nonzero;stroke:none"
         d="m 0,0 c -0.285,-0.262 -0.336,-0.53 -0.229,-0.929 0.077,0.37 0.179,0.471 0.627,0.671 C 0.452,0.099 0.277,0.172 0,0" /></g><g
       transform="matrix(6.1960449,0,0,6.1960449,269.89957,684.19904)"
       id="g252"><path
         id="path254"
         style="fill:none;stroke:#ffffff;stroke-width:0.06;stroke-linecap:butt;stroke-linejoin:miter;stroke-miterlimit:10;stroke-dasharray:none;stroke-opacity:1"
         d="m 0,0 c -0.285,-0.262 -0.336,-0.53 -0.229,-0.929 0.077,0.37 0.179,0.471 0.627,0.671 C 0.452,0.099 0.277,0.172 0,0 Z" /></g><g
       transform="matrix(6.1960449,0,0,6.1960449,270.09784,684.05688)"
       id="g256"><path
         id="path258"
         style="fill:#ed1c24;fill-opacity:1;fill-rule:nonzero;stroke:none"
         d="m 0,0 c -0.226,-0.185 -0.342,-0.464 -0.262,-0.76 0.055,0.214 0.215,0.442 0.588,0.555 C 0.356,0.048 0.254,0.123 0,0" /></g><g
       transform="matrix(6.1960449,0,0,6.1960449,271.65295,680.65485)"
       id="g260"><path
         id="path262"
         style="fill:#ffffff;fill-opacity:1;fill-rule:nonzero;stroke:none"
         d="M 0,0 C -0.178,-0.344 -0.135,-0.613 0.103,-0.951 0.048,-0.577 0.11,-0.448 0.462,-0.107 0.391,0.247 0.201,0.256 0,0" /></g><g
       transform="matrix(6.1960449,0,0,6.1960449,271.65295,680.65485)"
       id="g264"><path
         id="path266"
         style="fill:none;stroke:#ffffff;stroke-width:0.06;stroke-linecap:butt;stroke-linejoin:miter;stroke-miterlimit:10;stroke-dasharray:none;stroke-opacity:1"
         d="M 0,0 C -0.178,-0.344 -0.135,-0.613 0.103,-0.951 0.048,-0.578 0.11,-0.448 0.462,-0.107 0.391,0.247 0.201,0.256 0,0 Z" /></g><g
       transform="matrix(6.1960449,0,0,6.1960449,271.89465,680.58673)"
       id="g268"><path
         id="path270"
         style="fill:#ea2640;fill-opacity:1;fill-rule:nonzero;stroke:none"
         d="m 0,0 c -0.149,-0.251 -0.163,-0.553 0.014,-0.804 -0.022,0.22 0.051,0.489 0.363,0.723 C 0.318,0.167 0.196,0.203 0,0" /></g><g
       transform="matrix(6.1960449,0,0,6.1960449,274.72623,678.41821)"
       id="g272"><path
         id="path274"
         style="fill:#ffffff;fill-opacity:1;fill-rule:nonzero;stroke:none"
         d="M 0,0 C -0.178,-0.344 -0.135,-0.613 0.103,-0.951 0.048,-0.578 0.11,-0.448 0.462,-0.107 0.391,0.247 0.201,0.256 0,0" /></g><g
       transform="matrix(6.1960449,0,0,6.1960449,274.72623,678.41821)"
       id="g276"><path
         id="path278"
         style="fill:none;stroke:#ffffff;stroke-width:0.06;stroke-linecap:butt;stroke-linejoin:miter;stroke-miterlimit:10;stroke-dasharray:none;stroke-opacity:1"
         d="M 0,0 C -0.178,-0.344 -0.135,-0.613 0.103,-0.951 0.048,-0.578 0.11,-0.448 0.462,-0.107 0.391,0.247 0.201,0.256 0,0 Z" /></g><g
       transform="matrix(6.1960449,0,0,6.1960449,274.96173,678.35016)"
       id="g280"><path
         id="path282"
         style="fill:#ea2640;fill-opacity:1;fill-rule:nonzero;stroke:none"
         d="m 0,0 c -0.149,-0.251 -0.163,-0.553 0.014,-0.804 -0.021,0.22 0.051,0.489 0.363,0.723 C 0.318,0.167 0.196,0.203 0,0" /></g><g
       transform="matrix(6.1960449,0,0,6.1960449,250.52451,792.51831)"
       id="g284"><path
         id="path286"
         style="fill:#ffffff;fill-opacity:1;fill-rule:nonzero;stroke:none"
         d="M 0,0 C 0.205,0.056 0.364,-0.228 0.906,-0.302 0.88,-0.737 0.609,-0.91 0.272,-0.867 -0.135,-0.807 -0.457,-0.172 0,0" /></g><g
       transform="matrix(6.1960449,0,0,6.1960449,252.6373,790.72162)"
       id="g288"><path
         id="path290"
         style="fill:#231f20;fill-opacity:1;fill-rule:nonzero;stroke:none"
         d="M 0,0 C 0.701,0.078 0.383,-0.719 -0.131,-0.446 0.11,-0.299 0.208,-0.132 0,0" /></g><g
       transform="matrix(6.1960449,0,0,6.1960449,236.47812,774.54364)"
       id="g292"><path
         id="path294"
         style="fill:#231f20;fill-opacity:1;fill-rule:nonzero;stroke:none"
         d="m 0,0 c -0.032,-0.13 -0.039,-0.27 0.094,-0.478 0.036,0.192 0.099,0.266 0.237,0.541 L 0.074,0.114 0,0" /></g><g
       transform="matrix(6.1960449,0,0,6.1960449,236.47812,774.54364)"
       id="g296"><path
         id="path298"
         style="fill:none;stroke:#231f20;stroke-width:0.06;stroke-linecap:butt;stroke-linejoin:miter;stroke-miterlimit:10;stroke-dasharray:none;stroke-opacity:1"
         d="m 0,0 c -0.032,-0.13 -0.039,-0.27 0.094,-0.478 0.036,0.192 0.099,0.266 0.237,0.541 L 0.074,0.114 Z" /></g><g
       transform="matrix(6.1960449,0,0,6.1960449,237.01712,772.05292)"
       id="g300"><path
         id="path302"
         style="fill:#ea2640;fill-opacity:1;fill-rule:nonzero;stroke:none"
         d="M 0,0 C 0.019,0.083 0.073,0.231 0.188,0.423 L -0.014,0.475 C -0.072,0.489 -0.105,0.084 0,0" /></g></g></svg>