<?xml version="1.0" encoding="UTF-8" standalone="no"?>
<svg
   xmlns:dc="http://purl.org/dc/elements/1.1/"
   xmlns:cc="http://creativecommons.org/ns#"
   xmlns:rdf="http://www.w3.org/1999/02/22-rdf-syntax-ns#"
   xmlns:svg="http://www.w3.org/2000/svg"
   xmlns="http://www.w3.org/2000/svg"
   viewBox="0 0 816 1056"
   height="1056"
   width="816"
   xml:space="preserve"
   id="svg2"
   version="1.1"><metadata
     id="metadata8"><rdf:RDF><cc:Work
         rdf:about=""><dc:format>image/svg+xml</dc:format><dc:type
           rdf:resource="http://purl.org/dc/dcmitype/StillImage" /></cc:Work></rdf:RDF></metadata><defs
     id="defs6"><clipPath
       id="clipPath18"
       clipPathUnits="userSpaceOnUse"><path
         id="path16"
         d="M 0,644.032 H 595.275 V 841.89 L 0,841.89 Z" /></clipPath><clipPath
       id="clipPath30"
       clipPathUnits="userSpaceOnUse"><path
         id="path28"
         d="M 0,644.032 H 595.275 V 841.89 L 0,841.89 Z" /></clipPath><clipPath
       id="clipPath42"
       clipPathUnits="userSpaceOnUse"><path
         id="path40"
         d="M 0,644.032 H 595.275 V 841.89 L 0,841.89 Z" /></clipPath><clipPath
       id="clipPath54"
       clipPathUnits="userSpaceOnUse"><path
         id="path52"
         d="M 0,644.032 H 595.275 V 841.89 L 0,841.89 Z" /></clipPath><clipPath
       id="clipPath66"
       clipPathUnits="userSpaceOnUse"><path
         id="path64"
         d="M 0,644.032 H 595.275 V 841.89 L 0,841.89 Z" /></clipPath><clipPath
       id="clipPath78"
       clipPathUnits="userSpaceOnUse"><path
         id="path76"
         d="M 0,644.032 H 595.275 V 841.89 L 0,841.89 Z" /></clipPath><clipPath
       id="clipPath90"
       clipPathUnits="userSpaceOnUse"><path
         id="path88"
         d="M 0,644.032 H 595.275 V 841.89 L 0,841.89 Z" /></clipPath><clipPath
       id="clipPath102"
       clipPathUnits="userSpaceOnUse"><path
         id="path100"
         d="M 0,644.032 H 595.275 V 841.89 L 0,841.89 Z" /></clipPath><clipPath
       id="clipPath114"
       clipPathUnits="userSpaceOnUse"><path
         id="path112"
         d="M 0,644.032 H 595.275 V 841.89 L 0,841.89 Z" /></clipPath><clipPath
       id="clipPath126"
       clipPathUnits="userSpaceOnUse"><path
         id="path124"
         d="M 0,644.032 H 595.275 V 841.89 L 0,841.89 Z" /></clipPath><clipPath
       id="clipPath138"
       clipPathUnits="userSpaceOnUse"><path
         id="path136"
         d="M 0,644.032 H 595.275 V 841.89 L 0,841.89 Z" /></clipPath><clipPath
       id="clipPath150"
       clipPathUnits="userSpaceOnUse"><path
         id="path148"
         d="M 0,644.032 H 595.275 V 841.89 L 0,841.89 Z" /></clipPath><clipPath
       id="clipPath162"
       clipPathUnits="userSpaceOnUse"><path
         id="path160"
         d="M 0,644.032 H 595.275 V 841.89 L 0,841.89 Z" /></clipPath><clipPath
       id="clipPath174"
       clipPathUnits="userSpaceOnUse"><path
         id="path172"
         d="M 0,644.032 H 595.275 V 841.89 L 0,841.89 Z" /></clipPath><clipPath
       id="clipPath186"
       clipPathUnits="userSpaceOnUse"><path
         id="path184"
         d="M 0,644.032 H 595.275 V 841.89 L 0,841.89 Z" /></clipPath><clipPath
       id="clipPath198"
       clipPathUnits="userSpaceOnUse"><path
         id="path196"
         d="M 0,644.032 H 595.275 V 841.89 L 0,841.89 Z" /></clipPath><clipPath
       id="clipPath210"
       clipPathUnits="userSpaceOnUse"><path
         id="path208"
         d="M 0,644.032 H 595.275 V 841.89 L 0,841.89 Z" /></clipPath><clipPath
       id="clipPath222"
       clipPathUnits="userSpaceOnUse"><path
         id="path220"
         d="M 0,644.032 H 595.275 V 841.89 L 0,841.89 Z" /></clipPath><clipPath
       id="clipPath234"
       clipPathUnits="userSpaceOnUse"><path
         id="path232"
         d="M 0,644.032 H 595.275 V 841.89 L 0,841.89 Z" /></clipPath><clipPath
       id="clipPath246"
       clipPathUnits="userSpaceOnUse"><path
         id="path244"
         d="M 0,644.032 H 595.275 V 841.89 L 0,841.89 Z" /></clipPath><clipPath
       id="clipPath258"
       clipPathUnits="userSpaceOnUse"><path
         id="path256"
         d="M 0,644.032 H 595.275 V 841.89 L 0,841.89 Z" /></clipPath><clipPath
       id="clipPath270"
       clipPathUnits="userSpaceOnUse"><path
         id="path268"
         d="M 0,644.032 H 595.275 V 841.89 L 0,841.89 Z" /></clipPath><clipPath
       id="clipPath282"
       clipPathUnits="userSpaceOnUse"><path
         id="path280"
         d="M 0,644.032 H 595.275 V 841.89 L 0,841.89 Z" /></clipPath><clipPath
       id="clipPath294"
       clipPathUnits="userSpaceOnUse"><path
         id="path292"
         d="M 0,644.032 H 595.275 V 841.89 L 0,841.89 Z" /></clipPath><clipPath
       id="clipPath306"
       clipPathUnits="userSpaceOnUse"><path
         id="path304"
         d="M 0,644.032 H 595.275 V 841.89 L 0,841.89 Z" /></clipPath><clipPath
       id="clipPath318"
       clipPathUnits="userSpaceOnUse"><path
         id="path316"
         d="M 0,644.032 H 595.275 V 841.89 L 0,841.89 Z" /></clipPath><clipPath
       id="clipPath330"
       clipPathUnits="userSpaceOnUse"><path
         id="path328"
         d="M 0,644.032 H 595.275 V 841.89 L 0,841.89 Z" /></clipPath><clipPath
       id="clipPath342"
       clipPathUnits="userSpaceOnUse"><path
         id="path340"
         d="M 0,644.032 H 595.275 V 841.89 L 0,841.89 Z" /></clipPath><clipPath
       id="clipPath354"
       clipPathUnits="userSpaceOnUse"><path
         id="path352"
         d="M 0,644.032 H 595.275 V 841.89 L 0,841.89 Z" /></clipPath><clipPath
       id="clipPath366"
       clipPathUnits="userSpaceOnUse"><path
         id="path364"
         d="M 0,644.032 H 595.275 V 841.89 L 0,841.89 Z" /></clipPath><clipPath
       id="clipPath378"
       clipPathUnits="userSpaceOnUse"><path
         id="path376"
         d="M 0,644.032 H 595.275 V 841.89 L 0,841.89 Z" /></clipPath><clipPath
       id="clipPath390"
       clipPathUnits="userSpaceOnUse"><path
         id="path388"
         d="M 0,644.032 H 595.275 V 841.89 L 0,841.89 Z" /></clipPath><clipPath
       id="clipPath402"
       clipPathUnits="userSpaceOnUse"><path
         id="path400"
         d="M 0,644.032 H 595.275 V 841.89 L 0,841.89 Z" /></clipPath><clipPath
       id="clipPath414"
       clipPathUnits="userSpaceOnUse"><path
         id="path412"
         d="M 0,644.032 H 595.275 V 841.89 L 0,841.89 Z" /></clipPath><clipPath
       id="clipPath426"
       clipPathUnits="userSpaceOnUse"><path
         id="path424"
         d="M 0,644.032 H 595.275 V 841.89 L 0,841.89 Z" /></clipPath><clipPath
       id="clipPath438"
       clipPathUnits="userSpaceOnUse"><path
         id="path436"
         d="M 0,644.032 H 595.275 V 841.89 L 0,841.89 Z" /></clipPath><clipPath
       id="clipPath450"
       clipPathUnits="userSpaceOnUse"><path
         id="path448"
         d="M 0,644.032 H 595.275 V 841.89 L 0,841.89 Z" /></clipPath><clipPath
       id="clipPath462"
       clipPathUnits="userSpaceOnUse"><path
         id="path460"
         d="M 0,644.032 H 595.275 V 841.89 L 0,841.89 Z" /></clipPath><clipPath
       id="clipPath474"
       clipPathUnits="userSpaceOnUse"><path
         id="path472"
         d="M 0,644.032 H 595.275 V 841.89 L 0,841.89 Z" /></clipPath><clipPath
       id="clipPath486"
       clipPathUnits="userSpaceOnUse"><path
         id="path484"
         d="M 0,644.032 H 595.275 V 841.89 L 0,841.89 Z" /></clipPath><clipPath
       id="clipPath498"
       clipPathUnits="userSpaceOnUse"><path
         id="path496"
         d="M 0,644.032 H 595.275 V 841.89 L 0,841.89 Z" /></clipPath><clipPath
       id="clipPath510"
       clipPathUnits="userSpaceOnUse"><path
         id="path508"
         d="M 0,644.032 H 595.275 V 841.89 L 0,841.89 Z" /></clipPath><clipPath
       id="clipPath522"
       clipPathUnits="userSpaceOnUse"><path
         id="path520"
         d="M 0,644.032 H 595.275 V 841.89 L 0,841.89 Z" /></clipPath><clipPath
       id="clipPath534"
       clipPathUnits="userSpaceOnUse"><path
         id="path532"
         d="M 0,644.032 H 595.275 V 841.89 L 0,841.89 Z" /></clipPath><clipPath
       id="clipPath546"
       clipPathUnits="userSpaceOnUse"><path
         id="path544"
         d="M 0,644.032 H 595.275 V 841.89 L 0,841.89 Z" /></clipPath><clipPath
       id="clipPath558"
       clipPathUnits="userSpaceOnUse"><path
         id="path556"
         d="M 0,644.032 H 595.275 V 841.89 L 0,841.89 Z" /></clipPath><clipPath
       id="clipPath570"
       clipPathUnits="userSpaceOnUse"><path
         id="path568"
         d="M 0,644.032 H 595.275 V 841.89 L 0,841.89 Z" /></clipPath><clipPath
       id="clipPath582"
       clipPathUnits="userSpaceOnUse"><path
         id="path580"
         d="M 0,644.032 H 595.275 V 841.89 L 0,841.89 Z" /></clipPath><clipPath
       id="clipPath594"
       clipPathUnits="userSpaceOnUse"><path
         id="path592"
         d="M 0,644.032 H 595.275 V 841.89 L 0,841.89 Z" /></clipPath><clipPath
       id="clipPath606"
       clipPathUnits="userSpaceOnUse"><path
         id="path604"
         d="M 0,644.032 H 595.275 V 841.89 L 0,841.89 Z" /></clipPath><clipPath
       id="clipPath618"
       clipPathUnits="userSpaceOnUse"><path
         id="path616"
         d="M 0,644.032 H 595.275 V 841.89 L 0,841.89 Z" /></clipPath><clipPath
       id="clipPath630"
       clipPathUnits="userSpaceOnUse"><path
         id="path628"
         d="M 0,644.032 H 595.275 V 841.89 L 0,841.89 Z" /></clipPath><clipPath
       id="clipPath642"
       clipPathUnits="userSpaceOnUse"><path
         id="path640"
         d="M 0,644.032 H 595.275 V 841.89 L 0,841.89 Z" /></clipPath><clipPath
       id="clipPath654"
       clipPathUnits="userSpaceOnUse"><path
         id="path652"
         d="M 0,644.032 H 595.275 V 841.89 L 0,841.89 Z" /></clipPath><clipPath
       id="clipPath666"
       clipPathUnits="userSpaceOnUse"><path
         id="path664"
         d="M 0,644.032 H 595.275 V 841.89 L 0,841.89 Z" /></clipPath><clipPath
       id="clipPath678"
       clipPathUnits="userSpaceOnUse"><path
         id="path676"
         d="M 0,644.032 H 595.275 V 841.89 L 0,841.89 Z" /></clipPath><clipPath
       id="clipPath690"
       clipPathUnits="userSpaceOnUse"><path
         id="path688"
         d="M 0,644.032 H 595.275 V 841.89 L 0,841.89 Z" /></clipPath><clipPath
       id="clipPath702"
       clipPathUnits="userSpaceOnUse"><path
         id="path700"
         d="M 0,644.032 H 595.275 V 841.89 L 0,841.89 Z" /></clipPath><clipPath
       id="clipPath714"
       clipPathUnits="userSpaceOnUse"><path
         id="path712"
         d="M 0,644.032 H 595.275 V 841.89 L 0,841.89 Z" /></clipPath><clipPath
       id="clipPath726"
       clipPathUnits="userSpaceOnUse"><path
         id="path724"
         d="M 0,644.032 H 595.275 V 841.89 L 0,841.89 Z" /></clipPath><clipPath
       id="clipPath738"
       clipPathUnits="userSpaceOnUse"><path
         id="path736"
         d="M 0,644.032 H 595.275 V 841.89 L 0,841.89 Z" /></clipPath><clipPath
       id="clipPath750"
       clipPathUnits="userSpaceOnUse"><path
         id="path748"
         d="M 0,644.032 H 595.275 V 841.89 L 0,841.89 Z" /></clipPath><clipPath
       id="clipPath762"
       clipPathUnits="userSpaceOnUse"><path
         id="path760"
         d="M 0,644.032 H 595.275 V 841.89 L 0,841.89 Z" /></clipPath><clipPath
       id="clipPath774"
       clipPathUnits="userSpaceOnUse"><path
         id="path772"
         d="M 0,644.032 H 595.275 V 841.89 L 0,841.89 Z" /></clipPath><clipPath
       id="clipPath786"
       clipPathUnits="userSpaceOnUse"><path
         id="path784"
         d="M 0,644.032 H 595.275 V 841.89 L 0,841.89 Z" /></clipPath><clipPath
       id="clipPath798"
       clipPathUnits="userSpaceOnUse"><path
         id="path796"
         d="M 0,644.032 H 595.275 V 841.89 L 0,841.89 Z" /></clipPath><clipPath
       id="clipPath810"
       clipPathUnits="userSpaceOnUse"><path
         id="path808"
         d="M 0,644.032 H 595.275 V 841.89 L 0,841.89 Z" /></clipPath><clipPath
       id="clipPath822"
       clipPathUnits="userSpaceOnUse"><path
         id="path820"
         d="M 0,644.032 H 595.275 V 841.89 L 0,841.89 Z" /></clipPath><clipPath
       id="clipPath834"
       clipPathUnits="userSpaceOnUse"><path
         id="path832"
         d="M 0,644.032 H 595.275 V 841.89 L 0,841.89 Z" /></clipPath><clipPath
       id="clipPath846"
       clipPathUnits="userSpaceOnUse"><path
         id="path844"
         d="M 0,644.032 H 595.275 V 841.89 L 0,841.89 Z" /></clipPath><clipPath
       id="clipPath858"
       clipPathUnits="userSpaceOnUse"><path
         id="path856"
         d="M 0,644.032 H 595.275 V 841.89 L 0,841.89 Z" /></clipPath><clipPath
       id="clipPath870"
       clipPathUnits="userSpaceOnUse"><path
         id="path868"
         d="M 0,644.032 H 595.275 V 841.89 L 0,841.89 Z" /></clipPath><clipPath
       id="clipPath882"
       clipPathUnits="userSpaceOnUse"><path
         id="path880"
         d="M 0,644.032 H 595.275 V 841.89 L 0,841.89 Z" /></clipPath><clipPath
       id="clipPath894"
       clipPathUnits="userSpaceOnUse"><path
         id="path892"
         d="M 0,644.032 H 595.275 V 841.89 L 0,841.89 Z" /></clipPath><clipPath
       id="clipPath906"
       clipPathUnits="userSpaceOnUse"><path
         id="path904"
         d="M 0,644.032 H 595.275 V 841.89 L 0,841.89 Z" /></clipPath><clipPath
       id="clipPath918"
       clipPathUnits="userSpaceOnUse"><path
         id="path916"
         d="M 0,644.032 H 595.275 V 841.89 L 0,841.89 Z" /></clipPath></defs><g
     transform="matrix(1.3333333,0,0,-1.3333333,0,1056)"
     id="g10"><g
       transform="matrix(6.9942017,0,0,6.9942017,-3279.3674,-4631.4012)"
       id="g12"><g
         clip-path="url(#clipPath18)"
         id="g14"><g
           transform="translate(549.84056,715.46307)"
           id="g20"><path
             id="path22"
             style="fill:#ffffff;fill-opacity:1;fill-rule:nonzero;stroke:none"
             d="M 0,0 C 0.918,2.882 1.283,5.823 1.412,8.858 V 56.66 H -78.962 V 8.505 c 0.035,-1.176 0.07,-2.471 0.283,-3.647 0.305,-2.023 0.799,-4.034 1.388,-5.975 0.988,-2.918 2.293,-5.812 3.775,-8.529 2.105,-3.622 4.611,-7.221 7.493,-10.279 2.399,-2.624 5.023,-5.071 7.904,-7.153 3.847,-3.022 8.352,-5.187 12.903,-6.892 2.13,-0.625 4.283,-1.199 6.447,-1.67 l 2.295,0.471 2.35,0.61 c 1.79,0.553 3.577,1.236 5.329,1.918 2.882,1.189 5.669,2.845 8.269,4.529 0.566,0.34 1.118,0.752 1.624,1.153 3.105,2.351 5.951,5.034 8.481,7.986 2.223,2.518 4.152,5.422 5.892,8.304 1.576,2.918 3.094,5.929 4.059,9.117 C -0.318,-1.047 -0.13,-0.518 0,0" /></g></g></g><g
       transform="matrix(6.9942017,0,0,6.9942017,-3279.3674,-4631.4012)"
       id="g24"><g
         clip-path="url(#clipPath30)"
         id="g26"><g
           transform="translate(510.55097,681.36258)"
           id="g32"><path
             id="path34"
             style="fill:#00773c;fill-opacity:1;fill-rule:nonzero;stroke:none"
             d="m 0,0 -0.246,89.374 -38.161,0.035 V 42.657 c 0.035,-0.731 0.07,-1.507 0.104,-2.238 1.021,-9.216 5.901,-17.909 11.941,-24.772 0.358,-0.395 0.799,-0.881 1.194,-1.277 2.794,-3.093 6.144,-5.714 9.576,-8.078 0.474,-0.301 1.007,-0.649 1.494,-0.927 3.281,-1.82 6.782,-3.526 10.422,-4.487 z" /></g></g></g><g
       transform="matrix(6.9942017,0,0,6.9942017,-3279.3674,-4631.4012)"
       id="g36"><g
         clip-path="url(#clipPath42)"
         id="g38"><g
           transform="translate(489.92876,713.94537)"
           id="g44"><path
             id="path46"
             style="fill:#ffde1b;fill-opacity:1;fill-rule:nonzero;stroke:none"
             d="m 0,0 c 0,0 -0.719,-0.127 -1.518,1.246 -0.799,1.375 -1.294,2.941 -1.023,3.052 l -4.903,43.935 c 0,0 2.718,5.501 7.68,5.501 4.964,0 7.714,-5.722 7.714,-5.722 L 3.462,4.321 c 0,0 0.518,0.029 0.385,-0.486 C 3.713,3.321 2.824,1.129 2.122,0.5 1.421,-0.127 1.341,-0.068 1.207,-0.087 1.073,-0.107 0,0 0,0" /></g></g></g><g
       transform="matrix(6.9942017,0,0,6.9942017,-3279.3674,-4631.4012)"
       id="g48"><g
         clip-path="url(#clipPath54)"
         id="g50"><g
           transform="translate(511.66217,681.31296)"
           id="g56"><path
             id="path58"
             style="fill:#0074bb;fill-opacity:1;fill-rule:nonzero;stroke:#000003;stroke-width:0.21600001;stroke-linecap:round;stroke-linejoin:round;stroke-miterlimit:4;stroke-dasharray:none;stroke-opacity:1"
             d="m 0,0 -0.138,89.436 38.462,0.022 V 43.042 C 38.209,40.423 37.884,37.826 37.201,35.287 36.887,34.233 36.575,33.155 36.227,32.112 34.614,27.591 32.308,23.336 29.502,19.44 27.775,16.914 25.574,14.607 23.428,12.438 22.292,11.407 21.18,10.329 19.975,9.378 18.292,7.976 16.461,6.759 14.572,5.646 11.244,3.583 7.547,2.052 3.803,0.904 L 1.518,0.302 Z" /></g></g></g><g
       transform="matrix(6.9942017,0,0,6.9942017,-3279.3674,-4631.4012)"
       id="g60"><g
         clip-path="url(#clipPath66)"
         id="g62"><g
           transform="translate(480.28971,712.8399)"
           id="g68"><path
             id="path70"
             style="fill:#ffde1b;fill-opacity:1;fill-rule:nonzero;stroke:none"
             d="m 0,0 c -7.976,-0.73 -2.098,10.584 4.649,2.771 3.165,-3.71 5.424,-14.642 5.124,-22.687 l 1.112,-1.019 c 3.698,12.809 10.538,13.354 13.876,11.707 3.479,-1.889 2.62,-6.908 -2.074,-7.651 4.404,-1.483 6.143,3.688 5.657,6.155 -0.835,4.28 -11.292,9.24 -17.62,-6.549 L 10.666,0.962 9.657,0.951 9.622,-6.921 C 9.367,-0.753 5.716,8.092 -0.974,7.593 -8.415,7.129 -4.962,-3.107 0,0" /></g></g></g><g
       transform="matrix(6.9942017,0,0,6.9942017,-3279.3674,-4631.4012)"
       id="g72"><g
         clip-path="url(#clipPath78)"
         id="g74"><g
           transform="translate(480.28971,712.8399)"
           id="g80"><path
             id="path82"
             style="fill:none;stroke:#000003;stroke-width:0.21600001;stroke-linecap:round;stroke-linejoin:round;stroke-miterlimit:4;stroke-dasharray:none;stroke-opacity:1"
             d="m 0,0 c -7.976,-0.73 -2.098,10.584 4.649,2.771 3.165,-3.71 5.424,-14.642 5.124,-22.687 l 1.112,-1.019 c 3.698,12.809 10.538,13.354 13.876,11.707 3.479,-1.889 2.62,-6.908 -2.074,-7.651 4.404,-1.483 6.143,3.688 5.657,6.155 -0.835,4.28 -11.292,9.24 -17.62,-6.549 L 10.666,0.962 9.657,0.951 9.622,-6.921 C 9.367,-0.753 5.716,8.092 -0.974,7.593 -8.415,7.129 -4.962,-3.107 0,0 Z" /></g></g></g><g
       transform="matrix(6.9942017,0,0,6.9942017,-3279.3674,-4631.4012)"
       id="g84"><g
         clip-path="url(#clipPath90)"
         id="g86"><g
           transform="translate(533.44418,751.02976)"
           id="g92"><path
             id="path94"
             style="fill:#ffde1b;fill-opacity:1;fill-rule:nonzero;stroke:none"
             d="m 0,0 c -1.542,-1.413 -0.301,-2.828 0.707,-4.231 -0.996,0.278 -1.981,0.58 -2.979,0.835 0.186,3.628 -3.094,3.617 -3.061,0.046 -0.972,-0.255 -1.913,-0.557 -2.863,-0.835 1.009,1.403 2.249,2.817 0.719,4.232 C -4.996,0.394 -2.481,0.371 0,0" /></g></g></g><g
       transform="matrix(6.9942017,0,0,6.9942017,-3279.3674,-4631.4012)"
       id="g96"><g
         clip-path="url(#clipPath102)"
         id="g98"><g
           transform="translate(533.44418,751.02976)"
           id="g104"><path
             id="path106"
             style="fill:none;stroke:#000003;stroke-width:0.21600001;stroke-linecap:round;stroke-linejoin:round;stroke-miterlimit:4;stroke-dasharray:none;stroke-opacity:1"
             d="m 0,0 c -1.542,-1.413 -0.301,-2.828 0.707,-4.231 -0.996,0.278 -1.981,0.58 -2.979,0.835 0.186,3.628 -3.094,3.617 -3.061,0.046 -0.972,-0.255 -1.913,-0.557 -2.863,-0.835 1.009,1.403 2.249,2.817 0.719,4.232 C -4.996,0.394 -2.481,0.371 0,0 Z" /></g></g></g><g
       transform="matrix(6.9942017,0,0,6.9942017,-3279.3674,-4631.4012)"
       id="g108"><g
         clip-path="url(#clipPath114)"
         id="g110"><g
           transform="translate(529.90255,748.25943)"
           id="g116"><path
             id="path118"
             style="fill:#ffde1b;fill-opacity:1;fill-rule:nonzero;stroke:none"
             d="m 0,0 c -2.978,0.046 -7.082,-1.38 -8.369,-5.031 -0.545,-7.524 -2.575,-17.644 -7.547,-22.083 l -0.58,-3.281 c 16.45,-1.415 16.45,-1.403 33.746,0.428 -0.29,1.124 -0.581,2.249 -0.846,3.351 C 10.491,-22.56 8.521,-11.963 8.033,-4.382 6.909,-1.38 3.154,-0.071 0,0" /></g></g></g><g
       transform="matrix(6.9942017,0,0,6.9942017,-3279.3674,-4631.4012)"
       id="g120"><g
         clip-path="url(#clipPath126)"
         id="g122"><g
           transform="translate(529.90255,748.25943)"
           id="g128"><path
             id="path130"
             style="fill:none;stroke:#000003;stroke-width:0.21600001;stroke-linecap:round;stroke-linejoin:round;stroke-miterlimit:4;stroke-dasharray:none;stroke-opacity:1"
             d="m 0,0 c -2.978,0.046 -7.082,-1.38 -8.369,-5.031 -0.545,-7.524 -2.575,-17.644 -7.547,-22.083 l -0.58,-3.281 c 16.45,-1.415 16.45,-1.403 33.746,0.428 -0.29,1.124 -0.581,2.249 -0.846,3.351 C 10.491,-22.56 8.521,-11.963 8.033,-4.382 6.909,-1.38 3.154,-0.071 0,0 Z" /></g></g></g><g
       transform="matrix(6.9942017,0,0,6.9942017,-3279.3674,-4631.4012)"
       id="g132"><g
         clip-path="url(#clipPath138)"
         id="g134"><g
           transform="translate(531.71615,711.11639)"
           id="g140"><path
             id="path142"
             style="fill:#ffde1b;fill-opacity:1;fill-rule:nonzero;stroke:none"
             d="m 0,0 -0.439,3.7 c 0.742,0.591 0.963,1.459 0.963,2.387 0,1.646 -1.104,3.002 -2.436,3.002 -1.332,0 -2.434,-1.356 -2.434,-3.002 0,-1.183 0.579,-2.144 1.334,-2.539 l -0.512,-3.56 C -2.341,-0.093 -1.17,-0.138 0,0" /></g></g></g><g
       transform="matrix(6.9942017,0,0,6.9942017,-3279.3674,-4631.4012)"
       id="g144"><g
         clip-path="url(#clipPath150)"
         id="g146"><g
           transform="translate(531.71615,711.11639)"
           id="g152"><path
             id="path154"
             style="fill:none;stroke:#000003;stroke-width:0.21600001;stroke-linecap:round;stroke-linejoin:round;stroke-miterlimit:4;stroke-dasharray:none;stroke-opacity:1"
             d="m 0,0 -0.439,3.7 c 0.742,0.591 0.963,1.459 0.963,2.387 0,1.646 -1.104,3.002 -2.436,3.002 -1.332,0 -2.434,-1.356 -2.434,-3.002 0,-1.183 0.579,-2.144 1.334,-2.539 l -0.512,-3.56 C -2.341,-0.093 -1.17,-0.138 0,0 Z" /></g></g></g><g
       transform="matrix(6.9942017,0,0,6.9942017,-3279.3674,-4631.4012)"
       id="g156"><g
         clip-path="url(#clipPath162)"
         id="g158"><g
           transform="translate(521.31978,742.10342)"
           id="g164"><path
             id="path166"
             style="fill:#ffde1b;fill-opacity:1;fill-rule:nonzero;stroke:none"
             d="m 0,0 c 5.621,0.869 11.244,0.869 16.785,0 0.394,0.51 0.44,0.997 0.012,1.53 C 11.244,2.481 5.621,2.434 -0.013,1.426 -0.535,0.939 -0.488,0.463 0,0" /></g></g></g><g
       transform="matrix(6.9942017,0,0,6.9942017,-3279.3674,-4631.4012)"
       id="g168"><g
         clip-path="url(#clipPath174)"
         id="g170"><g
           transform="translate(521.31978,742.10342)"
           id="g176"><path
             id="path178"
             style="fill:none;stroke:#000003;stroke-width:0.21600001;stroke-linecap:round;stroke-linejoin:round;stroke-miterlimit:4;stroke-dasharray:none;stroke-opacity:1"
             d="m 0,0 c 5.621,0.869 11.244,0.869 16.785,0 0.394,0.51 0.44,0.997 0.012,1.53 C 11.244,2.481 5.621,2.434 -0.013,1.426 -0.535,0.939 -0.488,0.463 0,0 Z" /></g></g></g><g
       transform="matrix(6.9942017,0,0,6.9942017,-3279.3674,-4631.4012)"
       id="g180"><g
         clip-path="url(#clipPath186)"
         id="g182"><g
           transform="translate(528.07785,727.2422)"
           id="g188"><path
             id="path190"
             style="fill:#ffde1b;fill-opacity:1;fill-rule:nonzero;stroke:#000003;stroke-width:0.21600001;stroke-linecap:round;stroke-linejoin:round;stroke-miterlimit:4;stroke-dasharray:none;stroke-opacity:1"
             d="m 0,0 0.347,5.831 c -1.16,-0.058 -2.318,-0.069 -3.478,-0.186 0.128,0.881 0.163,1.738 0.383,2.609 l 3.141,0.139 v 3.304 L 2.862,11.65 V 8.393 L 6.444,8.301 C 6.492,7.442 6.548,6.572 6.584,5.726 5.412,5.854 4.219,5.82 3.049,5.878 L 3.246,0.046 Z" /></g></g></g><g
       transform="matrix(6.9942017,0,0,6.9942017,-3279.3674,-4631.4012)"
       id="g192"><g
         clip-path="url(#clipPath198)"
         id="g194"><g
           transform="translate(525.36489,752.06125)"
           id="g200"><path
             id="path202"
             style="fill:#ffde1b;fill-opacity:1;fill-rule:nonzero;stroke:none"
             d="m 0,0 0.023,-1.217 c 3.014,0.451 5.924,0.371 8.578,0.023 L 8.613,0.023 C 5.947,0.383 4.601,0.487 0,0" /></g></g></g><g
       transform="matrix(6.9942017,0,0,6.9942017,-3279.3674,-4631.4012)"
       id="g204"><g
         clip-path="url(#clipPath210)"
         id="g206"><g
           transform="translate(525.36489,752.06125)"
           id="g212"><path
             id="path214"
             style="fill:none;stroke:#000003;stroke-width:0.21600001;stroke-linecap:round;stroke-linejoin:round;stroke-miterlimit:4;stroke-dasharray:none;stroke-opacity:1"
             d="m 0,0 0.023,-1.217 c 3.014,0.451 5.924,0.371 8.578,0.023 L 8.613,0.023 C 5.947,0.383 4.601,0.487 0,0 Z" /></g></g></g><g
       transform="matrix(6.9942017,0,0,6.9942017,-3279.3674,-4631.4012)"
       id="g216"><g
         clip-path="url(#clipPath222)"
         id="g218"><g
           transform="translate(546.63462,721.41132)"
           id="g224"><path
             id="path226"
             style="fill:#ffde1b;fill-opacity:1;fill-rule:nonzero;stroke:none"
             d="m 0,0 -1.611,1.588 c -9.24,1.6 -21.168,1.541 -30.176,-0.557 l -1.076,-1.495 C -23.012,1.634 -11.094,1.634 0,0" /></g></g></g><g
       transform="matrix(6.9942017,0,0,6.9942017,-3279.3674,-4631.4012)"
       id="g228"><g
         clip-path="url(#clipPath234)"
         id="g230"><g
           transform="translate(546.63462,721.41132)"
           id="g236"><path
             id="path238"
             style="fill:none;stroke:#000003;stroke-width:0.21600001;stroke-linecap:round;stroke-linejoin:round;stroke-miterlimit:4;stroke-dasharray:none;stroke-opacity:1"
             d="m 0,0 -1.611,1.588 c -9.24,1.6 -21.168,1.541 -30.176,-0.557 l -1.076,-1.495 C -23.012,1.634 -11.094,1.634 0,0 Z" /></g></g></g><g
       transform="matrix(6.9942017,0,0,6.9942017,-3279.3674,-4631.4012)"
       id="g240"><g
         clip-path="url(#clipPath246)"
         id="g242"><g
           transform="translate(513.50526,717.7481)"
           id="g248"><path
             id="path250"
             style="fill:#ffde1b;fill-opacity:1;fill-rule:nonzero;stroke:none"
             d="M 0,0 C 10.166,2.098 22.245,2.098 33.536,0.499 34.324,0.383 34.324,3.513 32.98,3.767 22.048,5.356 10.156,5.356 0.278,3.257 -0.811,2.968 -0.673,-0.162 0,0" /></g></g></g><g
       transform="matrix(6.9942017,0,0,6.9942017,-3279.3674,-4631.4012)"
       id="g252"><g
         clip-path="url(#clipPath258)"
         id="g254"><g
           transform="translate(513.50526,717.7481)"
           id="g260"><path
             id="path262"
             style="fill:none;stroke:#000003;stroke-width:0.21600001;stroke-linecap:round;stroke-linejoin:round;stroke-miterlimit:4;stroke-dasharray:none;stroke-opacity:1"
             d="M 0,0 C 10.166,2.098 22.245,2.098 33.536,0.499 34.324,0.383 34.324,3.513 32.98,3.767 22.048,5.356 10.156,5.356 0.278,3.257 -0.811,2.968 -0.673,-0.162 0,0 Z" /></g></g></g><g
       transform="matrix(6.9942017,0,0,6.9942017,-3279.3674,-4631.4012)"
       id="g264"><g
         clip-path="url(#clipPath270)"
         id="g266"><g
           transform="translate(521.27327,742.17343)"
           id="g272"><path
             id="path274"
             style="fill:#ffde1b;fill-opacity:1;fill-rule:nonzero;stroke:none"
             d="m 0,0 c 5.622,0.87 11.244,0.87 16.785,0 0.393,0.51 0.441,0.997 0.011,1.542 C 11.244,2.481 5.622,2.434 -0.012,1.426 -0.534,0.951 -0.488,0.463 0,0" /></g></g></g><g
       transform="matrix(6.9942017,0,0,6.9942017,-3279.3674,-4631.4012)"
       id="g276"><g
         clip-path="url(#clipPath282)"
         id="g278"><g
           transform="translate(521.27327,742.17343)"
           id="g284"><path
             id="path286"
             style="fill:none;stroke:#000003;stroke-width:0.21600001;stroke-linecap:round;stroke-linejoin:round;stroke-miterlimit:4;stroke-dasharray:none;stroke-opacity:1"
             d="m 0,0 c 5.622,0.87 11.244,0.87 16.785,0 0.393,0.51 0.441,0.997 0.011,1.542 C 11.244,2.481 5.622,2.434 -0.012,1.426 -0.534,0.951 -0.488,0.463 0,0 Z M 16.368,2.202 C 11.233,3.141 5.865,3.064 0.72,2.057" /></g></g></g><g
       transform="matrix(6.9942017,0,0,6.9942017,-3279.3674,-4631.4012)"
       id="g288"><g
         clip-path="url(#clipPath294)"
         id="g290"><g
           transform="translate(521.27327,741.37289)"
           id="g296"><path
             id="path298"
             style="fill:#ffde1b;fill-opacity:1;fill-rule:nonzero;stroke:none"
             d="M 0,0 C 5.622,0.87 11.244,0.87 16.785,0 Z" /></g></g></g><g
       transform="matrix(6.9942017,0,0,6.9942017,-3279.3674,-4631.4012)"
       id="g300"><g
         clip-path="url(#clipPath306)"
         id="g302"><g
           transform="translate(521.27327,741.37289)"
           id="g308"><path
             id="path310"
             style="fill:none;stroke:#000003;stroke-width:0.21600001;stroke-linecap:round;stroke-linejoin:round;stroke-miterlimit:4;stroke-dasharray:none;stroke-opacity:1"
             d="m 0,0 c 5.622,0.87 11.244,0.87 16.785,0 m -55.605,20.693 4.984,-43.923 m -3.921,45.592 4,-41.558 m -2.76,43.019 3.049,-39.414 m -1.773,40.272 2.41,-44.677 m -1.124,45.453 c 0.673,-21.827 1.263,-37.919 1.206,-33.107 m 0.208,33.582 0.487,-34.881 m 0.881,35.206 0.07,-21.84 m 1.426,21.736 -0.568,-23.626 m 1.867,23.255 -1.218,-38.127 m 2.446,37.315 -2.052,-41.222 m 3.269,40.202 -2.724,-45.396 m 3.964,44.029 -3.002,-37.919 m 4.219,35.878 -4.659,-45.117" /></g></g></g><g
       transform="matrix(6.9942017,0,0,6.9942017,-3279.3674,-4631.4012)"
       id="g312"><g
         clip-path="url(#clipPath318)"
         id="g314"><g
           transform="translate(549.27959,715.61499)"
           id="g320"><path
             id="path322"
             style="fill:#ffde1b;fill-opacity:1;fill-rule:nonzero;stroke:none"
             d="M 0,0 C 0.905,2.84 1.264,5.739 1.392,8.73 V 55.841 H -77.82 V 8.381 c 0.035,-1.158 0.07,-2.434 0.279,-3.593 0.301,-1.994 0.788,-3.976 1.368,-5.889 0.974,-2.875 2.26,-5.727 3.721,-8.405 2.075,-3.57 4.544,-7.117 7.384,-10.131 2.365,-2.586 4.95,-4.998 7.79,-7.049 3.791,-2.978 8.231,-5.112 12.716,-6.793 2.099,-0.615 4.222,-1.182 6.354,-1.646 l 2.261,0.464 2.317,0.602 c 1.764,0.546 3.525,1.218 5.252,1.891 2.84,1.171 5.587,2.803 8.149,4.463 0.557,0.335 1.102,0.741 1.6,1.136 3.061,2.317 5.866,4.961 8.359,7.871 2.19,2.481 4.092,5.343 5.807,8.184 1.553,2.875 3.049,5.843 4,8.985 C -0.313,-1.032 -0.128,-0.51 0,0 M 3.211,57.661 V 8.695 C 3.164,7.129 3.026,5.576 2.817,4.023 2.295,1.101 1.484,-1.635 0.464,-4.429 c -0.985,-2.399 -2.088,-4.694 -3.35,-6.989 -1.404,-2.365 -2.933,-4.627 -4.615,-6.828 -1.842,-2.238 -3.756,-4.314 -5.854,-6.318 -1.657,-1.472 -3.385,-2.875 -5.158,-4.197 -2.585,-1.727 -5.147,-3.223 -7.952,-4.578 -2.191,-0.951 -4.406,-1.774 -6.688,-2.481 l -2.377,-0.615 -2.689,-0.545 c -2.365,0.476 -4.626,1.055 -6.934,1.763 l -2.109,0.8 -2.075,0.892 -2.006,0.973 -1.97,1.079 -1.901,1.135 -1.844,1.218 c -1.785,1.298 -3.489,2.631 -5.17,4.07 -2.098,1.946 -4.092,3.998 -5.97,6.166 -1.739,2.168 -3.328,4.417 -4.822,6.735 l -1.02,1.739 c -1.229,2.285 -2.319,4.603 -3.258,7.002 l -0.603,1.751 -0.533,1.738 c -0.406,1.669 -0.754,3.35 -1.008,5.055 l -0.151,1.656 -0.047,1.578 v 49.291 z" /></g></g></g><g
       transform="matrix(6.9942017,0,0,6.9942017,-3279.3674,-4631.4012)"
       id="g324"><g
         clip-path="url(#clipPath330)"
         id="g326"><g
           transform="translate(549.27959,715.61499)"
           id="g332"><path
             id="path334"
             style="fill:none;stroke:#000003;stroke-width:0.21600001;stroke-linecap:round;stroke-linejoin:round;stroke-miterlimit:4;stroke-dasharray:none;stroke-opacity:1"
             d="M 0,0 C 0.905,2.84 1.264,5.739 1.392,8.73 V 55.841 H -77.82 V 8.381 c 0.035,-1.158 0.07,-2.434 0.279,-3.593 0.301,-1.994 0.788,-3.976 1.368,-5.889 0.974,-2.875 2.26,-5.727 3.721,-8.405 2.075,-3.57 4.544,-7.117 7.384,-10.131 2.365,-2.586 4.95,-4.998 7.79,-7.049 3.791,-2.978 8.231,-5.112 12.716,-6.793 2.099,-0.615 4.222,-1.182 6.354,-1.646 l 2.261,0.464 2.317,0.602 c 1.764,0.546 3.525,1.218 5.252,1.891 2.84,1.171 5.587,2.803 8.149,4.463 0.557,0.335 1.102,0.741 1.6,1.136 3.061,2.317 5.866,4.961 8.359,7.871 2.19,2.481 4.092,5.343 5.807,8.184 1.553,2.875 3.049,5.843 4,8.985 C -0.313,-1.032 -0.128,-0.51 0,0 Z M 3.211,57.661 V 8.695 C 3.164,7.129 3.026,5.576 2.817,4.023 2.295,1.101 1.484,-1.635 0.464,-4.429 c -0.985,-2.399 -2.088,-4.694 -3.35,-6.989 -1.404,-2.365 -2.933,-4.627 -4.615,-6.828 -1.842,-2.238 -3.756,-4.314 -5.854,-6.318 -1.657,-1.472 -3.385,-2.875 -5.158,-4.197 -2.585,-1.727 -5.147,-3.223 -7.952,-4.578 -2.191,-0.951 -4.406,-1.774 -6.688,-2.481 l -2.377,-0.615 -2.689,-0.545 c -2.365,0.476 -4.626,1.055 -6.934,1.763 l -2.109,0.8 -2.075,0.892 -2.006,0.973 -1.97,1.079 -1.901,1.135 -1.844,1.218 c -1.785,1.298 -3.489,2.631 -5.17,4.07 -2.098,1.946 -4.092,3.998 -5.97,6.166 -1.739,2.168 -3.328,4.417 -4.822,6.735 l -1.02,1.739 c -1.229,2.285 -2.319,4.603 -3.258,7.002 l -0.603,1.751 -0.533,1.738 c -0.406,1.669 -0.754,3.35 -1.008,5.055 l -0.151,1.656 -0.047,1.578 v 49.291 z" /></g></g></g><g
       transform="matrix(6.9942017,0,0,6.9942017,-3279.3674,-4631.4012)"
       id="g336"><g
         clip-path="url(#clipPath342)"
         id="g338"><g
           transform="translate(510.23655,681.40677)"
           id="g344"><path
             id="path346"
             style="fill:none;stroke:#000003;stroke-width:0.21600001;stroke-linecap:round;stroke-linejoin:round;stroke-miterlimit:4;stroke-dasharray:none;stroke-opacity:1"
             d="m 0,0 c -1.125,0.277 -2.272,0.52 -3.362,0.834 -3.64,0.961 -7.141,2.667 -10.422,4.486 -0.487,0.279 -1.02,0.627 -1.494,0.928 -3.431,2.364 -6.782,4.985 -9.576,8.078 -0.395,0.396 -0.835,0.882 -1.194,1.277 -6.039,6.863 -10.92,15.557 -11.94,24.772 -0.035,0.731 -0.069,1.507 -0.104,2.238 V 89.365 H 39.751 V 42.949 C 39.634,40.329 39.309,37.731 38.625,35.194 38.313,34.139 38.001,33.06 37.653,32.018 36.041,27.497 33.733,23.241 30.928,19.347 29.201,16.82 26.999,14.513 24.854,12.345 23.719,11.313 22.605,10.234 21.4,9.284 19.718,7.882 17.886,6.664 15.997,5.552 12.67,3.488 8.972,1.958 5.229,0.81 L 2.945,0.208 0.846,-0.221 C 0.568,-0.151 0.29,-0.071 0,0" /></g></g></g><g
       transform="matrix(6.9942017,0,0,6.9942017,-3279.3674,-4631.4012)"
       id="g348"><g
         clip-path="url(#clipPath354)"
         id="g350"><g
           transform="translate(490.03074,713.95788)"
           id="g356"><path
             id="path358"
             style="fill:#ffde1b;fill-opacity:1;fill-rule:nonzero;stroke:none"
             d="M 0,0 C -1.344,-0.383 -3.304,4.045 -2.654,4.3 -2.179,4.508 -0.684,3.836 -0.405,3.27 -0.463,3.164 -0.347,2.828 -0.568,2.828 -1.009,3.407 -1.113,1.622 0,0" /></g></g></g><g
       transform="matrix(6.9942017,0,0,6.9942017,-3279.3674,-4631.4012)"
       id="g360"><g
         clip-path="url(#clipPath366)"
         id="g362"><g
           transform="translate(490.03074,713.95788)"
           id="g368"><path
             id="path370"
             style="fill:none;stroke:#000003;stroke-width:0.21600001;stroke-linecap:round;stroke-linejoin:round;stroke-miterlimit:4;stroke-dasharray:none;stroke-opacity:1"
             d="M 0,0 C -1.344,-0.383 -3.304,4.045 -2.654,4.3 -2.179,4.508 -0.684,3.836 -0.405,3.27 -0.463,3.164 -0.347,2.828 -0.568,2.828 -1.009,3.407 -1.113,1.622 0,0 Z" /></g></g></g><g
       transform="matrix(6.9942017,0,0,6.9942017,-3279.3674,-4631.4012)"
       id="g372"><g
         clip-path="url(#clipPath378)"
         id="g374"><g
           transform="translate(490.91194,713.95788)"
           id="g380"><path
             id="path382"
             style="fill:#ffde1b;fill-opacity:1;fill-rule:nonzero;stroke:none"
             d="M 0,0 C 1.345,-0.383 3.304,4.045 2.655,4.3 2.18,4.508 0.685,3.813 0.406,3.245 0.464,3.14 0.302,2.851 0.522,2.851 0.962,3.43 1.113,1.622 0,0" /></g></g></g><g
       transform="matrix(6.9942017,0,0,6.9942017,-3279.3674,-4631.4012)"
       id="g384"><g
         clip-path="url(#clipPath390)"
         id="g386"><g
           transform="translate(490.91194,713.95788)"
           id="g392"><path
             id="path394"
             style="fill:none;stroke:#000003;stroke-width:0.21600001;stroke-linecap:round;stroke-linejoin:round;stroke-miterlimit:4;stroke-dasharray:none;stroke-opacity:1"
             d="M 0,0 C 1.345,-0.383 3.304,4.045 2.655,4.3 2.18,4.508 0.685,3.813 0.406,3.245 0.464,3.14 0.302,2.851 0.522,2.851 0.962,3.43 1.113,1.622 0,0 Z" /></g></g></g><g
       transform="matrix(6.9942017,0,0,6.9942017,-3279.3674,-4631.4012)"
       id="g396"><g
         clip-path="url(#clipPath402)"
         id="g398"><g
           transform="translate(490.45995,718.42096)"
           id="g404"><path
             id="path406"
             style="fill:#ffde1b;fill-opacity:1;fill-rule:nonzero;stroke:none"
             d="m 0,0 c -0.903,-0.023 -1.53,-2.377 -0.579,-4.463 0.544,0.012 0.08,0.718 0.602,0.788 C 0.499,-3.78 0.059,-4.451 0.649,-4.486 1.461,-2.586 0.858,-0.012 0,0" /></g></g></g><g
       transform="matrix(6.9942017,0,0,6.9942017,-3279.3674,-4631.4012)"
       id="g408"><g
         clip-path="url(#clipPath414)"
         id="g410"><g
           transform="translate(490.45995,718.42096)"
           id="g416"><path
             id="path418"
             style="fill:none;stroke:#000003;stroke-width:0.21600001;stroke-linecap:round;stroke-linejoin:round;stroke-miterlimit:4;stroke-dasharray:none;stroke-opacity:1"
             d="m 0,0 c -0.903,-0.023 -1.53,-2.377 -0.579,-4.463 0.544,0.012 0.08,0.718 0.602,0.788 C 0.499,-3.78 0.059,-4.451 0.649,-4.486 1.461,-2.586 0.858,-0.012 0,0 Z" /></g></g></g><g
       transform="matrix(6.9942017,0,0,6.9942017,-3279.3674,-4631.4012)"
       id="g420"><g
         clip-path="url(#clipPath426)"
         id="g422"><g
           transform="translate(490.03074,717.99127)"
           id="g428"><path
             id="path430"
             style="fill:#ffde1b;fill-opacity:1;fill-rule:nonzero;stroke:none"
             d="M 0,0 C -1.344,-0.382 -3.304,4.046 -2.654,4.301 -2.179,4.51 -0.684,3.837 -0.405,3.269 -0.463,3.165 -0.347,2.828 -0.568,2.828 -1.009,3.408 -1.113,1.623 0,0" /></g></g></g><g
       transform="matrix(6.9942017,0,0,6.9942017,-3279.3674,-4631.4012)"
       id="g432"><g
         clip-path="url(#clipPath438)"
         id="g434"><g
           transform="translate(490.03074,717.99127)"
           id="g440"><path
             id="path442"
             style="fill:none;stroke:#000003;stroke-width:0.21600001;stroke-linecap:round;stroke-linejoin:round;stroke-miterlimit:4;stroke-dasharray:none;stroke-opacity:1"
             d="M 0,0 C -1.344,-0.382 -3.304,4.046 -2.654,4.301 -2.179,4.51 -0.684,3.837 -0.405,3.269 -0.463,3.165 -0.347,2.828 -0.568,2.828 -1.009,3.408 -1.113,1.623 0,0 Z" /></g></g></g><g
       transform="matrix(6.9942017,0,0,6.9942017,-3279.3674,-4631.4012)"
       id="g444"><g
         clip-path="url(#clipPath450)"
         id="g446"><g
           transform="translate(490.91194,717.99127)"
           id="g452"><path
             id="path454"
             style="fill:#ffde1b;fill-opacity:1;fill-rule:nonzero;stroke:none"
             d="M 0,0 C 1.345,-0.382 3.304,4.046 2.655,4.301 2.18,4.51 0.685,3.814 0.406,3.246 0.464,3.142 0.302,2.852 0.522,2.852 0.962,3.431 1.113,1.623 0,0" /></g></g></g><g
       transform="matrix(6.9942017,0,0,6.9942017,-3279.3674,-4631.4012)"
       id="g456"><g
         clip-path="url(#clipPath462)"
         id="g458"><g
           transform="translate(490.91194,717.99127)"
           id="g464"><path
             id="path466"
             style="fill:none;stroke:#000003;stroke-width:0.21600001;stroke-linecap:round;stroke-linejoin:round;stroke-miterlimit:4;stroke-dasharray:none;stroke-opacity:1"
             d="M 0,0 C 1.345,-0.382 3.304,4.046 2.655,4.301 2.18,4.51 0.685,3.814 0.406,3.246 0.464,3.142 0.302,2.852 0.522,2.852 0.962,3.431 1.113,1.623 0,0 Z" /></g></g></g><g
       transform="matrix(6.9942017,0,0,6.9942017,-3279.3674,-4631.4012)"
       id="g468"><g
         clip-path="url(#clipPath474)"
         id="g470"><g
           transform="translate(490.45995,722.45454)"
           id="g476"><path
             id="path478"
             style="fill:#ffde1b;fill-opacity:1;fill-rule:nonzero;stroke:none"
             d="m 0,0 c -0.903,-0.023 -1.53,-2.377 -0.579,-4.463 0.544,0.011 0.08,0.719 0.602,0.788 C 0.499,-3.779 0.059,-4.452 0.649,-4.486 1.461,-2.585 0.858,-0.012 0,0" /></g></g></g><g
       transform="matrix(6.9942017,0,0,6.9942017,-3279.3674,-4631.4012)"
       id="g480"><g
         clip-path="url(#clipPath486)"
         id="g482"><g
           transform="translate(490.45995,722.45454)"
           id="g488"><path
             id="path490"
             style="fill:none;stroke:#000003;stroke-width:0.21600001;stroke-linecap:round;stroke-linejoin:round;stroke-miterlimit:4;stroke-dasharray:none;stroke-opacity:1"
             d="m 0,0 c -0.903,-0.023 -1.53,-2.377 -0.579,-4.463 0.544,0.011 0.08,0.719 0.602,0.788 C 0.499,-3.779 0.059,-4.452 0.649,-4.486 1.461,-2.585 0.858,-0.012 0,0 Z" /></g></g></g><g
       transform="matrix(6.9942017,0,0,6.9942017,-3279.3674,-4631.4012)"
       id="g492"><g
         clip-path="url(#clipPath498)"
         id="g494"><g
           transform="translate(490.03074,722.02558)"
           id="g500"><path
             id="path502"
             style="fill:#ffde1b;fill-opacity:1;fill-rule:nonzero;stroke:none"
             d="M 0,0 C -1.344,-0.382 -3.304,4.046 -2.654,4.301 -2.179,4.509 -0.684,3.838 -0.405,3.27 -0.463,3.166 -0.347,2.829 -0.568,2.829 -1.009,3.408 -1.113,1.622 0,0" /></g></g></g><g
       transform="matrix(6.9942017,0,0,6.9942017,-3279.3674,-4631.4012)"
       id="g504"><g
         clip-path="url(#clipPath510)"
         id="g506"><g
           transform="translate(490.03074,722.02558)"
           id="g512"><path
             id="path514"
             style="fill:none;stroke:#000003;stroke-width:0.21600001;stroke-linecap:round;stroke-linejoin:round;stroke-miterlimit:4;stroke-dasharray:none;stroke-opacity:1"
             d="M 0,0 C -1.344,-0.382 -3.304,4.046 -2.654,4.301 -2.179,4.509 -0.684,3.838 -0.405,3.27 -0.463,3.166 -0.347,2.829 -0.568,2.829 -1.009,3.408 -1.113,1.622 0,0 Z" /></g></g></g><g
       transform="matrix(6.9942017,0,0,6.9942017,-3279.3674,-4631.4012)"
       id="g516"><g
         clip-path="url(#clipPath522)"
         id="g518"><g
           transform="translate(490.91194,722.02558)"
           id="g524"><path
             id="path526"
             style="fill:#ffde1b;fill-opacity:1;fill-rule:nonzero;stroke:none"
             d="M 0,0 C 1.345,-0.382 3.304,4.046 2.655,4.301 2.18,4.509 0.685,3.814 0.406,3.245 0.464,3.143 0.302,2.852 0.522,2.852 0.962,3.432 1.113,1.622 0,0" /></g></g></g><g
       transform="matrix(6.9942017,0,0,6.9942017,-3279.3674,-4631.4012)"
       id="g528"><g
         clip-path="url(#clipPath534)"
         id="g530"><g
           transform="translate(490.91194,722.02558)"
           id="g536"><path
             id="path538"
             style="fill:none;stroke:#000003;stroke-width:0.21600001;stroke-linecap:round;stroke-linejoin:round;stroke-miterlimit:4;stroke-dasharray:none;stroke-opacity:1"
             d="M 0,0 C 1.345,-0.382 3.304,4.046 2.655,4.301 2.18,4.509 0.685,3.814 0.406,3.245 0.464,3.143 0.302,2.852 0.522,2.852 0.962,3.432 1.113,1.622 0,0 Z" /></g></g></g><g
       transform="matrix(6.9942017,0,0,6.9942017,-3279.3674,-4631.4012)"
       id="g540"><g
         clip-path="url(#clipPath546)"
         id="g542"><g
           transform="translate(490.45995,726.48872)"
           id="g548"><path
             id="path550"
             style="fill:#ffde1b;fill-opacity:1;fill-rule:nonzero;stroke:none"
             d="m 0,0 c -0.903,-0.023 -1.53,-2.377 -0.579,-4.463 0.544,0.011 0.08,0.718 0.602,0.789 C 0.499,-3.779 0.059,-4.452 0.649,-4.486 1.461,-2.586 0.858,-0.012 0,0" /></g></g></g><g
       transform="matrix(6.9942017,0,0,6.9942017,-3279.3674,-4631.4012)"
       id="g552"><g
         clip-path="url(#clipPath558)"
         id="g554"><g
           transform="translate(490.45995,726.48872)"
           id="g560"><path
             id="path562"
             style="fill:none;stroke:#000003;stroke-width:0.21600001;stroke-linecap:round;stroke-linejoin:round;stroke-miterlimit:4;stroke-dasharray:none;stroke-opacity:1"
             d="m 0,0 c -0.903,-0.023 -1.53,-2.377 -0.579,-4.463 0.544,0.011 0.08,0.718 0.602,0.789 C 0.499,-3.779 0.059,-4.452 0.649,-4.486 1.461,-2.586 0.858,-0.012 0,0 Z" /></g></g></g><g
       transform="matrix(6.9942017,0,0,6.9942017,-3279.3674,-4631.4012)"
       id="g564"><g
         clip-path="url(#clipPath570)"
         id="g566"><g
           transform="translate(490.03074,726.06013)"
           id="g572"><path
             id="path574"
             style="fill:#ffde1b;fill-opacity:1;fill-rule:nonzero;stroke:none"
             d="M 0,0 C -1.344,-0.383 -3.304,4.046 -2.654,4.3 -2.179,4.509 -0.684,3.836 -0.405,3.268 -0.463,3.164 -0.347,2.829 -0.568,2.829 -1.009,3.408 -1.113,1.623 0,0" /></g></g></g><g
       transform="matrix(6.9942017,0,0,6.9942017,-3279.3674,-4631.4012)"
       id="g576"><g
         clip-path="url(#clipPath582)"
         id="g578"><g
           transform="translate(490.03074,726.06013)"
           id="g584"><path
             id="path586"
             style="fill:none;stroke:#000003;stroke-width:0.21600001;stroke-linecap:round;stroke-linejoin:round;stroke-miterlimit:4;stroke-dasharray:none;stroke-opacity:1"
             d="M 0,0 C -1.344,-0.383 -3.304,4.046 -2.654,4.3 -2.179,4.509 -0.684,3.836 -0.405,3.268 -0.463,3.164 -0.347,2.829 -0.568,2.829 -1.009,3.408 -1.113,1.623 0,0 Z" /></g></g></g><g
       transform="matrix(6.9942017,0,0,6.9942017,-3279.3674,-4631.4012)"
       id="g588"><g
         clip-path="url(#clipPath594)"
         id="g590"><g
           transform="translate(490.91194,726.06013)"
           id="g596"><path
             id="path598"
             style="fill:#ffde1b;fill-opacity:1;fill-rule:nonzero;stroke:none"
             d="M 0,0 C 1.345,-0.383 3.304,4.046 2.655,4.3 2.18,4.509 0.685,3.814 0.406,3.245 0.464,3.141 0.302,2.851 0.522,2.851 0.962,3.431 1.113,1.623 0,0" /></g></g></g><g
       transform="matrix(6.9942017,0,0,6.9942017,-3279.3674,-4631.4012)"
       id="g600"><g
         clip-path="url(#clipPath606)"
         id="g602"><g
           transform="translate(490.91194,726.06013)"
           id="g608"><path
             id="path610"
             style="fill:none;stroke:#000003;stroke-width:0.21600001;stroke-linecap:round;stroke-linejoin:round;stroke-miterlimit:4;stroke-dasharray:none;stroke-opacity:1"
             d="M 0,0 C 1.345,-0.383 3.304,4.046 2.655,4.3 2.18,4.509 0.685,3.814 0.406,3.245 0.464,3.141 0.302,2.851 0.522,2.851 0.962,3.431 1.113,1.623 0,0 Z" /></g></g></g><g
       transform="matrix(6.9942017,0,0,6.9942017,-3279.3674,-4631.4012)"
       id="g612"><g
         clip-path="url(#clipPath618)"
         id="g614"><g
           transform="translate(490.45995,730.52272)"
           id="g620"><path
             id="path622"
             style="fill:#ffde1b;fill-opacity:1;fill-rule:nonzero;stroke:none"
             d="m 0,0 c -0.903,-0.023 -1.53,-2.377 -0.579,-4.462 0.544,0.01 0.08,0.718 0.602,0.788 C 0.499,-3.78 0.059,-4.452 0.649,-4.486 1.461,-2.585 0.858,-0.012 0,0" /></g></g></g><g
       transform="matrix(6.9942017,0,0,6.9942017,-3279.3674,-4631.4012)"
       id="g624"><g
         clip-path="url(#clipPath630)"
         id="g626"><g
           transform="translate(490.45995,730.52272)"
           id="g632"><path
             id="path634"
             style="fill:none;stroke:#000003;stroke-width:0.21600001;stroke-linecap:round;stroke-linejoin:round;stroke-miterlimit:4;stroke-dasharray:none;stroke-opacity:1"
             d="m 0,0 c -0.903,-0.023 -1.53,-2.377 -0.579,-4.462 0.544,0.01 0.08,0.718 0.602,0.788 C 0.499,-3.78 0.059,-4.452 0.649,-4.486 1.461,-2.585 0.858,-0.012 0,0 Z" /></g></g></g><g
       transform="matrix(6.9942017,0,0,6.9942017,-3279.3674,-4631.4012)"
       id="g636"><g
         clip-path="url(#clipPath642)"
         id="g638"><g
           transform="translate(490.03074,730.09413)"
           id="g644"><path
             id="path646"
             style="fill:#ffde1b;fill-opacity:1;fill-rule:nonzero;stroke:none"
             d="M 0,0 C -1.344,-0.383 -3.304,4.045 -2.654,4.3 -2.179,4.509 -0.684,3.836 -0.405,3.269 -0.463,3.164 -0.347,2.828 -0.568,2.828 -1.009,3.408 -1.113,1.623 0,0" /></g></g></g><g
       transform="matrix(6.9942017,0,0,6.9942017,-3279.3674,-4631.4012)"
       id="g648"><g
         clip-path="url(#clipPath654)"
         id="g650"><g
           transform="translate(490.03074,730.09413)"
           id="g656"><path
             id="path658"
             style="fill:none;stroke:#000003;stroke-width:0.21600001;stroke-linecap:round;stroke-linejoin:round;stroke-miterlimit:4;stroke-dasharray:none;stroke-opacity:1"
             d="M 0,0 C -1.344,-0.383 -3.304,4.045 -2.654,4.3 -2.179,4.509 -0.684,3.836 -0.405,3.269 -0.463,3.164 -0.347,2.828 -0.568,2.828 -1.009,3.408 -1.113,1.623 0,0 Z" /></g></g></g><g
       transform="matrix(6.9942017,0,0,6.9942017,-3279.3674,-4631.4012)"
       id="g660"><g
         clip-path="url(#clipPath666)"
         id="g662"><g
           transform="translate(490.91194,730.09413)"
           id="g668"><path
             id="path670"
             style="fill:#ffde1b;fill-opacity:1;fill-rule:nonzero;stroke:none"
             d="M 0,0 C 1.345,-0.383 3.304,4.045 2.655,4.3 2.18,4.509 0.685,3.814 0.406,3.245 0.464,3.141 0.302,2.852 0.522,2.852 0.962,3.43 1.113,1.623 0,0" /></g></g></g><g
       transform="matrix(6.9942017,0,0,6.9942017,-3279.3674,-4631.4012)"
       id="g672"><g
         clip-path="url(#clipPath678)"
         id="g674"><g
           transform="translate(490.91194,730.09413)"
           id="g680"><path
             id="path682"
             style="fill:none;stroke:#000003;stroke-width:0.21600001;stroke-linecap:round;stroke-linejoin:round;stroke-miterlimit:4;stroke-dasharray:none;stroke-opacity:1"
             d="M 0,0 C 1.345,-0.383 3.304,4.045 2.655,4.3 2.18,4.509 0.685,3.814 0.406,3.245 0.464,3.141 0.302,2.852 0.522,2.852 0.962,3.43 1.113,1.623 0,0 Z" /></g></g></g><g
       transform="matrix(6.9942017,0,0,6.9942017,-3279.3674,-4631.4012)"
       id="g684"><g
         clip-path="url(#clipPath690)"
         id="g686"><g
           transform="translate(490.45995,734.55672)"
           id="g692"><path
             id="path694"
             style="fill:#ffde1b;fill-opacity:1;fill-rule:nonzero;stroke:none"
             d="m 0,0 c -0.903,-0.023 -1.53,-2.376 -0.579,-4.463 0.544,0.011 0.08,0.719 0.602,0.788 C 0.499,-3.779 0.059,-4.452 0.649,-4.486 1.461,-2.585 0.858,-0.012 0,0" /></g></g></g><g
       transform="matrix(6.9942017,0,0,6.9942017,-3279.3674,-4631.4012)"
       id="g696"><g
         clip-path="url(#clipPath702)"
         id="g698"><g
           transform="translate(490.45995,734.55672)"
           id="g704"><path
             id="path706"
             style="fill:none;stroke:#000003;stroke-width:0.21600001;stroke-linecap:round;stroke-linejoin:round;stroke-miterlimit:4;stroke-dasharray:none;stroke-opacity:1"
             d="m 0,0 c -0.903,-0.023 -1.53,-2.376 -0.579,-4.463 0.544,0.011 0.08,0.719 0.602,0.788 C 0.499,-3.779 0.059,-4.452 0.649,-4.486 1.461,-2.585 0.858,-0.012 0,0 Z" /></g></g></g><g
       transform="matrix(6.9942017,0,0,6.9942017,-3279.3674,-4631.4012)"
       id="g708"><g
         clip-path="url(#clipPath714)"
         id="g710"><g
           transform="translate(490.03074,734.12838)"
           id="g716"><path
             id="path718"
             style="fill:#ffde1b;fill-opacity:1;fill-rule:nonzero;stroke:none"
             d="M 0,0 C -1.344,-0.383 -3.304,4.045 -2.654,4.3 -2.179,4.509 -0.684,3.837 -0.405,3.269 -0.463,3.164 -0.347,2.827 -0.568,2.827 -1.009,3.408 -1.113,1.622 0,0" /></g></g></g><g
       transform="matrix(6.9942017,0,0,6.9942017,-3279.3674,-4631.4012)"
       id="g720"><g
         clip-path="url(#clipPath726)"
         id="g722"><g
           transform="translate(490.03074,734.12838)"
           id="g728"><path
             id="path730"
             style="fill:none;stroke:#000003;stroke-width:0.21600001;stroke-linecap:round;stroke-linejoin:round;stroke-miterlimit:4;stroke-dasharray:none;stroke-opacity:1"
             d="M 0,0 C -1.344,-0.383 -3.304,4.045 -2.654,4.3 -2.179,4.509 -0.684,3.837 -0.405,3.269 -0.463,3.164 -0.347,2.827 -0.568,2.827 -1.009,3.408 -1.113,1.622 0,0 Z" /></g></g></g><g
       transform="matrix(6.9942017,0,0,6.9942017,-3279.3674,-4631.4012)"
       id="g732"><g
         clip-path="url(#clipPath738)"
         id="g734"><g
           transform="translate(490.91194,734.12838)"
           id="g740"><path
             id="path742"
             style="fill:#ffde1b;fill-opacity:1;fill-rule:nonzero;stroke:none"
             d="M 0,0 C 1.345,-0.383 3.304,4.045 2.655,4.3 2.18,4.509 0.685,3.814 0.406,3.245 0.464,3.141 0.302,2.852 0.522,2.852 0.962,3.431 1.113,1.622 0,0" /></g></g></g><g
       transform="matrix(6.9942017,0,0,6.9942017,-3279.3674,-4631.4012)"
       id="g744"><g
         clip-path="url(#clipPath750)"
         id="g746"><g
           transform="translate(490.91194,734.12838)"
           id="g752"><path
             id="path754"
             style="fill:none;stroke:#000003;stroke-width:0.21600001;stroke-linecap:round;stroke-linejoin:round;stroke-miterlimit:4;stroke-dasharray:none;stroke-opacity:1"
             d="M 0,0 C 1.345,-0.383 3.304,4.045 2.655,4.3 2.18,4.509 0.685,3.814 0.406,3.245 0.464,3.141 0.302,2.852 0.522,2.852 0.962,3.431 1.113,1.622 0,0 Z" /></g></g></g><g
       transform="matrix(6.9942017,0,0,6.9942017,-3279.3674,-4631.4012)"
       id="g756"><g
         clip-path="url(#clipPath762)"
         id="g758"><g
           transform="translate(490.45995,738.59121)"
           id="g764"><path
             id="path766"
             style="fill:#ffde1b;fill-opacity:1;fill-rule:nonzero;stroke:none"
             d="m 0,0 c -0.903,-0.023 -1.53,-2.377 -0.579,-4.463 0.544,0.011 0.08,0.718 0.602,0.789 C 0.499,-3.779 0.059,-4.452 0.649,-4.487 1.461,-2.585 0.858,-0.012 0,0" /></g></g></g><g
       transform="matrix(6.9942017,0,0,6.9942017,-3279.3674,-4631.4012)"
       id="g768"><g
         clip-path="url(#clipPath774)"
         id="g770"><g
           transform="translate(490.45995,738.59121)"
           id="g776"><path
             id="path778"
             style="fill:none;stroke:#000003;stroke-width:0.21600001;stroke-linecap:round;stroke-linejoin:round;stroke-miterlimit:4;stroke-dasharray:none;stroke-opacity:1"
             d="m 0,0 c -0.903,-0.023 -1.53,-2.377 -0.579,-4.463 0.544,0.011 0.08,0.718 0.602,0.789 C 0.499,-3.779 0.059,-4.452 0.649,-4.487 1.461,-2.585 0.858,-0.012 0,0 Z" /></g></g></g><g
       transform="matrix(6.9942017,0,0,6.9942017,-3279.3674,-4631.4012)"
       id="g780"><g
         clip-path="url(#clipPath786)"
         id="g782"><g
           transform="translate(490.03074,738.16213)"
           id="g788"><path
             id="path790"
             style="fill:#ffde1b;fill-opacity:1;fill-rule:nonzero;stroke:none"
             d="M 0,0 C -1.344,-0.383 -3.304,4.046 -2.654,4.301 -2.179,4.509 -0.684,3.837 -0.405,3.269 -0.463,3.164 -0.347,2.829 -0.568,2.829 -1.009,3.409 -1.113,1.623 0,0" /></g></g></g><g
       transform="matrix(6.9942017,0,0,6.9942017,-3279.3674,-4631.4012)"
       id="g792"><g
         clip-path="url(#clipPath798)"
         id="g794"><g
           transform="translate(490.03074,738.16213)"
           id="g800"><path
             id="path802"
             style="fill:none;stroke:#000003;stroke-width:0.21600001;stroke-linecap:round;stroke-linejoin:round;stroke-miterlimit:4;stroke-dasharray:none;stroke-opacity:1"
             d="M 0,0 C -1.344,-0.383 -3.304,4.046 -2.654,4.301 -2.179,4.509 -0.684,3.837 -0.405,3.269 -0.463,3.164 -0.347,2.829 -0.568,2.829 -1.009,3.409 -1.113,1.623 0,0 Z" /></g></g></g><g
       transform="matrix(6.9942017,0,0,6.9942017,-3279.3674,-4631.4012)"
       id="g804"><g
         clip-path="url(#clipPath810)"
         id="g806"><g
           transform="translate(490.91194,738.16213)"
           id="g812"><path
             id="path814"
             style="fill:#ffde1b;fill-opacity:1;fill-rule:nonzero;stroke:none"
             d="M 0,0 C 1.345,-0.383 3.304,4.046 2.655,4.301 2.18,4.509 0.685,3.813 0.406,3.245 0.464,3.141 0.302,2.852 0.522,2.852 0.962,3.432 1.113,1.623 0,0" /></g></g></g><g
       transform="matrix(6.9942017,0,0,6.9942017,-3279.3674,-4631.4012)"
       id="g816"><g
         clip-path="url(#clipPath822)"
         id="g818"><g
           transform="translate(490.91194,738.16213)"
           id="g824"><path
             id="path826"
             style="fill:none;stroke:#000003;stroke-width:0.21600001;stroke-linecap:round;stroke-linejoin:round;stroke-miterlimit:4;stroke-dasharray:none;stroke-opacity:1"
             d="M 0,0 C 1.345,-0.383 3.304,4.046 2.655,4.301 2.18,4.509 0.685,3.813 0.406,3.245 0.464,3.141 0.302,2.852 0.522,2.852 0.962,3.432 1.113,1.623 0,0 Z" /></g></g></g><g
       transform="matrix(6.9942017,0,0,6.9942017,-3279.3674,-4631.4012)"
       id="g828"><g
         clip-path="url(#clipPath834)"
         id="g830"><g
           transform="translate(490.45995,742.62521)"
           id="g836"><path
             id="path838"
             style="fill:#ffde1b;fill-opacity:1;fill-rule:nonzero;stroke:none"
             d="m 0,0 c -0.903,-0.023 -1.53,-2.376 -0.579,-4.463 0.544,0.012 0.08,0.718 0.602,0.789 C 0.499,-3.779 0.059,-4.451 0.649,-4.486 1.461,-2.585 0.858,-0.012 0,0" /></g></g></g><g
       transform="matrix(6.9942017,0,0,6.9942017,-3279.3674,-4631.4012)"
       id="g840"><g
         clip-path="url(#clipPath846)"
         id="g842"><g
           transform="translate(490.45995,742.62521)"
           id="g848"><path
             id="path850"
             style="fill:none;stroke:#000003;stroke-width:0.21600001;stroke-linecap:round;stroke-linejoin:round;stroke-miterlimit:4;stroke-dasharray:none;stroke-opacity:1"
             d="m 0,0 c -0.903,-0.023 -1.53,-2.376 -0.579,-4.463 0.544,0.012 0.08,0.718 0.602,0.789 C 0.499,-3.779 0.059,-4.451 0.649,-4.486 1.461,-2.585 0.858,-0.012 0,0 Z" /></g></g></g><g
       transform="matrix(6.9942017,0,0,6.9942017,-3279.3674,-4631.4012)"
       id="g852"><g
         clip-path="url(#clipPath858)"
         id="g854"><g
           transform="translate(490.03074,742.19662)"
           id="g860"><path
             id="path862"
             style="fill:#ffde1b;fill-opacity:1;fill-rule:nonzero;stroke:none"
             d="M 0,0 C -1.344,-0.383 -3.304,4.046 -2.654,4.3 -2.179,4.508 -0.684,3.836 -0.405,3.268 -0.463,3.164 -0.347,2.828 -0.568,2.828 -1.009,3.407 -1.113,1.623 0,0" /></g></g></g><g
       transform="matrix(6.9942017,0,0,6.9942017,-3279.3674,-4631.4012)"
       id="g864"><g
         clip-path="url(#clipPath870)"
         id="g866"><g
           transform="translate(490.03074,742.19662)"
           id="g872"><path
             id="path874"
             style="fill:none;stroke:#000003;stroke-width:0.21600001;stroke-linecap:round;stroke-linejoin:round;stroke-miterlimit:4;stroke-dasharray:none;stroke-opacity:1"
             d="M 0,0 C -1.344,-0.383 -3.304,4.046 -2.654,4.3 -2.179,4.508 -0.684,3.836 -0.405,3.268 -0.463,3.164 -0.347,2.828 -0.568,2.828 -1.009,3.407 -1.113,1.623 0,0 Z" /></g></g></g><g
       transform="matrix(6.9942017,0,0,6.9942017,-3279.3674,-4631.4012)"
       id="g876"><g
         clip-path="url(#clipPath882)"
         id="g878"><g
           transform="translate(490.91194,742.19662)"
           id="g884"><path
             id="path886"
             style="fill:#ffde1b;fill-opacity:1;fill-rule:nonzero;stroke:none"
             d="M 0,0 C 1.345,-0.383 3.304,4.046 2.655,4.3 2.18,4.508 0.685,3.813 0.406,3.245 0.464,3.141 0.302,2.851 0.522,2.851 0.962,3.431 1.113,1.623 0,0" /></g></g></g><g
       transform="matrix(6.9942017,0,0,6.9942017,-3279.3674,-4631.4012)"
       id="g888"><g
         clip-path="url(#clipPath894)"
         id="g890"><g
           transform="translate(490.91194,742.19662)"
           id="g896"><path
             id="path898"
             style="fill:none;stroke:#000003;stroke-width:0.21600001;stroke-linecap:round;stroke-linejoin:round;stroke-miterlimit:4;stroke-dasharray:none;stroke-opacity:1"
             d="M 0,0 C 1.345,-0.383 3.304,4.046 2.655,4.3 2.18,4.508 0.685,3.813 0.406,3.245 0.464,3.141 0.302,2.851 0.522,2.851 0.962,3.431 1.113,1.623 0,0 Z" /></g></g></g><g
       transform="matrix(6.9942017,0,0,6.9942017,-3279.3674,-4631.4012)"
       id="g900"><g
         clip-path="url(#clipPath906)"
         id="g902"><g
           transform="translate(490.45995,746.65921)"
           id="g908"><path
             id="path910"
             style="fill:#ffde1b;fill-opacity:1;fill-rule:nonzero;stroke:none"
             d="m 0,0 c -0.903,-0.023 -1.53,-2.377 -0.579,-4.463 0.544,0.012 0.08,0.719 0.602,0.788 C 0.499,-3.78 0.059,-4.451 0.649,-4.486 1.461,-2.585 0.858,-0.012 0,0" /></g></g></g><g
       transform="matrix(6.9942017,0,0,6.9942017,-3279.3674,-4631.4012)"
       id="g912"><g
         clip-path="url(#clipPath918)"
         id="g914"><g
           transform="translate(490.45995,746.65921)"
           id="g920"><path
             id="path922"
             style="fill:none;stroke:#000003;stroke-width:0.21600001;stroke-linecap:round;stroke-linejoin:round;stroke-miterlimit:4;stroke-dasharray:none;stroke-opacity:1"
             d="m 0,0 c -0.903,-0.023 -1.53,-2.377 -0.579,-4.463 0.544,0.012 0.08,0.719 0.602,0.788 C 0.499,-3.78 0.059,-4.451 0.649,-4.486 1.461,-2.585 0.858,-0.012 0,0 Z" /></g></g></g></g></svg>