<?xml version="1.0" encoding="UTF-8" standalone="no"?>
<svg
   xmlns:dc="http://purl.org/dc/elements/1.1/"
   xmlns:cc="http://creativecommons.org/ns#"
   xmlns:rdf="http://www.w3.org/1999/02/22-rdf-syntax-ns#"
   xmlns:svg="http://www.w3.org/2000/svg"
   xmlns="http://www.w3.org/2000/svg"
   viewBox="0 0 793.70135 1122.52"
   height="1122.52"
   width="793.70135"
   xml:space="preserve"
   id="svg2"
   version="1.1"><metadata
     id="metadata8"><rdf:RDF><cc:Work
         rdf:about=""><dc:format>image/svg+xml</dc:format><dc:type
           rdf:resource="http://purl.org/dc/dcmitype/StillImage" /></cc:Work></rdf:RDF></metadata><defs
     id="defs6"><clipPath
       id="clipPath18"
       clipPathUnits="userSpaceOnUse"><path
         id="path16"
         d="M 0,0 H 595.275 V 676.85 H 0 Z" /></clipPath><clipPath
       id="clipPath26"
       clipPathUnits="userSpaceOnUse"><path
         id="path24"
         d="M 0,0 H 595.276 V 841.89 H 0 Z" /></clipPath><clipPath
       id="clipPath34"
       clipPathUnits="userSpaceOnUse"><path
         id="path32"
         d="M 32768,32768 H -32768 V -32768 H 32768 Z" /></clipPath><clipPath
       id="clipPath48"
       clipPathUnits="userSpaceOnUse"><path
         id="path46"
         d="M 0,0 H 595.276 V 841.89 H 0 Z" /></clipPath><clipPath
       id="clipPath56"
       clipPathUnits="userSpaceOnUse"><path
         id="path54"
         d="M 0,0 H 595.276 V 841.89 H 0 Z" /></clipPath><clipPath
       id="clipPath64"
       clipPathUnits="userSpaceOnUse"><path
         id="path62"
         d="M 0,0 H 595.276 V 841.89 H 0 Z" /></clipPath><clipPath
       id="clipPath72"
       clipPathUnits="userSpaceOnUse"><path
         id="path70"
         d="m 486.113,698.032 h 73.021 v 90.708 h -73.021 z" /></clipPath><clipPath
       id="clipPath84"
       clipPathUnits="userSpaceOnUse"><path
         id="path82"
         d="m 486.113,698.032 h 73.021 v 90.708 h -73.021 z" /></clipPath><clipPath
       id="clipPath96"
       clipPathUnits="userSpaceOnUse"><path
         id="path94"
         d="m 486.113,698.032 h 73.021 v 90.708 h -73.021 z" /></clipPath><clipPath
       id="clipPath108"
       clipPathUnits="userSpaceOnUse"><path
         id="path106"
         d="m 486.113,698.032 h 73.021 v 90.708 h -73.021 z" /></clipPath><clipPath
       id="clipPath120"
       clipPathUnits="userSpaceOnUse"><path
         id="path118"
         d="m 486.113,698.032 h 73.021 v 90.708 h -73.021 z" /></clipPath><clipPath
       id="clipPath132"
       clipPathUnits="userSpaceOnUse"><path
         id="path130"
         d="m 486.113,698.032 h 73.021 v 90.708 h -73.021 z" /></clipPath><clipPath
       id="clipPath142"
       clipPathUnits="userSpaceOnUse"><path
         id="path140"
         d="m 486.113,698.032 h 73.021 v 90.708 h -73.021 z" /></clipPath><clipPath
       id="clipPath152"
       clipPathUnits="userSpaceOnUse"><path
         id="path150"
         d="m 486.113,698.032 h 73.021 v 90.708 h -73.021 z" /></clipPath><clipPath
       id="clipPath162"
       clipPathUnits="userSpaceOnUse"><path
         id="path160"
         d="m 486.113,698.032 h 73.021 v 90.708 h -73.021 z" /></clipPath><clipPath
       id="clipPath172"
       clipPathUnits="userSpaceOnUse"><path
         id="path170"
         d="m 486.113,698.032 h 73.021 v 90.708 h -73.021 z" /></clipPath><clipPath
       id="clipPath184"
       clipPathUnits="userSpaceOnUse"><path
         id="path182"
         d="m 486.113,698.032 h 73.021 v 90.708 h -73.021 z" /></clipPath><clipPath
       id="clipPath196"
       clipPathUnits="userSpaceOnUse"><path
         id="path194"
         d="m 486.113,698.032 h 73.021 v 90.708 h -73.021 z" /></clipPath><clipPath
       id="clipPath208"
       clipPathUnits="userSpaceOnUse"><path
         id="path206"
         d="m 486.113,698.032 h 73.021 v 90.708 h -73.021 z" /></clipPath><clipPath
       id="clipPath220"
       clipPathUnits="userSpaceOnUse"><path
         id="path218"
         d="m 486.113,698.032 h 73.021 v 90.708 h -73.021 z" /></clipPath><clipPath
       id="clipPath232"
       clipPathUnits="userSpaceOnUse"><path
         id="path230"
         d="m 486.113,698.032 h 73.021 v 90.708 h -73.021 z" /></clipPath><clipPath
       id="clipPath242"
       clipPathUnits="userSpaceOnUse"><path
         id="path240"
         d="m 486.113,698.032 h 73.021 v 90.708 h -73.021 z" /></clipPath><clipPath
       id="clipPath254"
       clipPathUnits="userSpaceOnUse"><path
         id="path252"
         d="m 486.113,698.032 h 73.021 v 90.708 h -73.021 z" /></clipPath><clipPath
       id="clipPath266"
       clipPathUnits="userSpaceOnUse"><path
         id="path264"
         d="m 486.113,698.032 h 73.021 v 90.708 h -73.021 z" /></clipPath><clipPath
       id="clipPath276"
       clipPathUnits="userSpaceOnUse"><path
         id="path274"
         d="m 486.113,698.032 h 73.021 v 90.708 h -73.021 z" /></clipPath><clipPath
       id="clipPath288"
       clipPathUnits="userSpaceOnUse"><path
         id="path286"
         d="m 486.113,698.032 h 73.021 v 90.708 h -73.021 z" /></clipPath><clipPath
       id="clipPath300"
       clipPathUnits="userSpaceOnUse"><path
         id="path298"
         d="m 486.113,698.032 h 73.021 v 90.708 h -73.021 z" /></clipPath><clipPath
       id="clipPath312"
       clipPathUnits="userSpaceOnUse"><path
         id="path310"
         d="m 486.113,698.032 h 73.021 v 90.708 h -73.021 z" /></clipPath><clipPath
       id="clipPath324"
       clipPathUnits="userSpaceOnUse"><path
         id="path322"
         d="m 486.113,698.032 h 73.021 v 90.708 h -73.021 z" /></clipPath><clipPath
       id="clipPath336"
       clipPathUnits="userSpaceOnUse"><path
         id="path334"
         d="m 486.113,698.032 h 73.021 v 90.708 h -73.021 z" /></clipPath><clipPath
       id="clipPath344"
       clipPathUnits="userSpaceOnUse"><path
         id="path342"
         d="M 0,0 H 595.276 V 841.89 H 0 Z" /></clipPath><clipPath
       id="clipPath352"
       clipPathUnits="userSpaceOnUse"><path
         id="path350"
         d="M 0,0 H 595.276 V 841.89 H 0 Z" /></clipPath><clipPath
       id="clipPath360"
       clipPathUnits="userSpaceOnUse"><path
         id="path358"
         d="M 0,0 H 595.276 V 841.89 H 0 Z" /></clipPath><clipPath
       id="clipPath368"
       clipPathUnits="userSpaceOnUse"><path
         id="path366"
         d="M 0,0 H 595.276 V 841.89 H 0 Z" /></clipPath><clipPath
       id="clipPath376"
       clipPathUnits="userSpaceOnUse"><path
         id="path374"
         d="M 0,0 H 595.276 V 841.89 H 0 Z" /></clipPath><clipPath
       id="clipPath384"
       clipPathUnits="userSpaceOnUse"><path
         id="path382"
         d="M 0,0 H 595.276 V 841.89 H 0 Z" /></clipPath><clipPath
       id="clipPath392"
       clipPathUnits="userSpaceOnUse"><path
         id="path390"
         d="M 0,0 H 595.276 V 841.89 H 0 Z" /></clipPath><clipPath
       id="clipPath400"
       clipPathUnits="userSpaceOnUse"><path
         id="path398"
         d="M 0,0 H 595.276 V 841.89 H 0 Z" /></clipPath><clipPath
       id="clipPath408"
       clipPathUnits="userSpaceOnUse"><path
         id="path406"
         d="M 0,0 H 595.276 V 841.89 H 0 Z" /></clipPath><clipPath
       id="clipPath416"
       clipPathUnits="userSpaceOnUse"><path
         id="path414"
         d="M 0,0 H 595.276 V 841.89 H 0 Z" /></clipPath><clipPath
       id="clipPath424"
       clipPathUnits="userSpaceOnUse"><path
         id="path422"
         d="M 0,0 H 595.276 V 841.89 H 0 Z" /></clipPath><clipPath
       id="clipPath432"
       clipPathUnits="userSpaceOnUse"><path
         id="path430"
         d="M 0,0 H 595.276 V 841.89 H 0 Z" /></clipPath><clipPath
       id="clipPath440"
       clipPathUnits="userSpaceOnUse"><path
         id="path438"
         d="M 0,0 H 595.276 V 841.89 H 0 Z" /></clipPath><clipPath
       id="clipPath448"
       clipPathUnits="userSpaceOnUse"><path
         id="path446"
         d="M 0,0 H 595.276 V 841.89 H 0 Z" /></clipPath><clipPath
       id="clipPath456"
       clipPathUnits="userSpaceOnUse"><path
         id="path454"
         d="M 0,0 H 595.276 V 841.89 H 0 Z" /></clipPath><clipPath
       id="clipPath464"
       clipPathUnits="userSpaceOnUse"><path
         id="path462"
         d="M 0,0 H 595.276 V 841.89 H 0 Z" /></clipPath><clipPath
       id="clipPath472"
       clipPathUnits="userSpaceOnUse"><path
         id="path470"
         d="M 0,0 H 595.276 V 841.89 H 0 Z" /></clipPath><clipPath
       id="clipPath480"
       clipPathUnits="userSpaceOnUse"><path
         id="path478"
         d="M 0,0 H 595.276 V 841.89 H 0 Z" /></clipPath><clipPath
       id="clipPath488"
       clipPathUnits="userSpaceOnUse"><path
         id="path486"
         d="M 0,0 H 595.276 V 841.89 H 0 Z" /></clipPath><clipPath
       id="clipPath496"
       clipPathUnits="userSpaceOnUse"><path
         id="path494"
         d="M 0,0 H 595.276 V 841.89 H 0 Z" /></clipPath><clipPath
       id="clipPath504"
       clipPathUnits="userSpaceOnUse"><path
         id="path502"
         d="M 0,0 H 595.276 V 841.89 H 0 Z" /></clipPath><clipPath
       id="clipPath512"
       clipPathUnits="userSpaceOnUse"><path
         id="path510"
         d="M 0,0 H 595.276 V 841.89 H 0 Z" /></clipPath><clipPath
       id="clipPath520"
       clipPathUnits="userSpaceOnUse"><path
         id="path518"
         d="M 0,0 H 595.276 V 841.89 H 0 Z" /></clipPath><clipPath
       id="clipPath528"
       clipPathUnits="userSpaceOnUse"><path
         id="path526"
         d="M 0,0 H 595.276 V 841.89 H 0 Z" /></clipPath><clipPath
       id="clipPath536"
       clipPathUnits="userSpaceOnUse"><path
         id="path534"
         d="M 0,0 H 595.276 V 841.89 H 0 Z" /></clipPath><clipPath
       id="clipPath544"
       clipPathUnits="userSpaceOnUse"><path
         id="path542"
         d="M 0,0 H 595.276 V 841.89 H 0 Z" /></clipPath><clipPath
       id="clipPath552"
       clipPathUnits="userSpaceOnUse"><path
         id="path550"
         d="M 0,0 H 595.276 V 841.89 H 0 Z" /></clipPath><clipPath
       id="clipPath560"
       clipPathUnits="userSpaceOnUse"><path
         id="path558"
         d="M 0,0 H 595.276 V 841.89 H 0 Z" /></clipPath><clipPath
       id="clipPath568"
       clipPathUnits="userSpaceOnUse"><path
         id="path566"
         d="M 0,0 H 595.276 V 841.89 H 0 Z" /></clipPath><clipPath
       id="clipPath576"
       clipPathUnits="userSpaceOnUse"><path
         id="path574"
         d="M 0,0 H 595.276 V 841.89 H 0 Z" /></clipPath><clipPath
       id="clipPath584"
       clipPathUnits="userSpaceOnUse"><path
         id="path582"
         d="M 0,0 H 595.276 V 841.89 H 0 Z" /></clipPath><clipPath
       id="clipPath592"
       clipPathUnits="userSpaceOnUse"><path
         id="path590"
         d="M 0,0 H 595.276 V 841.89 H 0 Z" /></clipPath><clipPath
       id="clipPath600"
       clipPathUnits="userSpaceOnUse"><path
         id="path598"
         d="M 0,0 H 595.276 V 841.89 H 0 Z" /></clipPath><clipPath
       id="clipPath608"
       clipPathUnits="userSpaceOnUse"><path
         id="path606"
         d="M 0,0 H 595.276 V 841.89 H 0 Z" /></clipPath></defs><g
     transform="matrix(1.3333333,0,0,-1.3333333,0,1122.52)"
     id="g10"><g
       id="g12"><g
         clip-path="url(#clipPath18)"
         id="g14" /></g><g
       id="g20"><g
         clip-path="url(#clipPath26)"
         id="g22"><g
           id="g28"><g
             id="g30" /><g
             id="g40"><g
               style="opacity:0.89999402"
               id="g38"
               clip-path="url(#clipPath34)"><g
                 id="g36" /></g></g></g></g></g><g
       id="g42"><g
         clip-path="url(#clipPath48)"
         id="g44" /></g><g
       id="g50"><g
         clip-path="url(#clipPath56)"
         id="g52" /></g><g
       id="g58"><g
         clip-path="url(#clipPath64)"
         id="g60" /></g><g
       transform="matrix(8.0248718,0,0,8.0248718,-3897.3353,-5492.5677)"
       id="g66"><g
         clip-path="url(#clipPath72)"
         id="g68"><g
           transform="translate(522.55422,699.11971)"
           id="g74"><path
             id="path76"
             style="fill:#00aa8a;fill-opacity:1;fill-rule:evenodd;stroke:none"
             d="m 0,0 c 19.099,0 34.641,15.599 34.641,34.698 0,1.476 -0.08,2.955 -0.246,4.376 v 48.9 H -34.942 V 33.138 h 0.301 C -33.819,14.75 -18.552,0 0,0" /></g></g></g><g
       transform="matrix(8.0248718,0,0,8.0248718,-3897.3353,-5492.5677)"
       id="g78"><g
         clip-path="url(#clipPath84)"
         id="g80"><g
           transform="translate(487.77586,731.13483)"
           id="g86"><path
             id="path88"
             style="fill:#373535;fill-opacity:1;fill-rule:evenodd;stroke:none"
             d="m 0,0 h 19.592 c 14.01,9.579 29.141,10.18 45.586,0 h 3.97 V 1.67 C 47.912,12.998 25.475,15.379 1.094,1.78 Z" /></g></g></g><g
       transform="matrix(8.0248718,0,0,8.0248718,-3897.3353,-5492.5677)"
       id="g90"><g
         clip-path="url(#clipPath96)"
         id="g92"><g
           transform="translate(487.77586,731.13483)"
           id="g98"><path
             id="path100"
             style="fill:none;stroke:#373535;stroke-width:0.23;stroke-linecap:butt;stroke-linejoin:miter;stroke-miterlimit:22.9260006;stroke-dasharray:none;stroke-opacity:1"
             d="m 0,0 h 19.592 c 14.01,9.579 29.141,10.18 45.586,0 h 3.97 V 1.67 C 47.912,12.998 25.475,15.379 1.094,1.78 Z" /></g></g></g><g
       transform="matrix(8.0248718,0,0,8.0248718,-3897.3353,-5492.5677)"
       id="g102"><g
         clip-path="url(#clipPath108)"
         id="g104"><g
           transform="translate(488.13218,730.58874)"
           id="g110"><path
             id="path112"
             style="fill:#0079b1;fill-opacity:1;fill-rule:evenodd;stroke:none"
             d="M 0,0 C 22.958,-0.082 45.915,-0.163 68.9,-0.246 65.562,-19.401 52.317,-27.745 34.695,-31.167 14.886,-30.045 3.311,-19.62 0,0" /></g></g></g><g
       transform="matrix(8.0248718,0,0,8.0248718,-3897.3353,-5492.5677)"
       id="g114"><g
         clip-path="url(#clipPath120)"
         id="g116"><g
           transform="translate(556.9492,787.33834)"
           id="g122"><path
             id="path124"
             style="fill:#0079b1;fill-opacity:1;fill-rule:evenodd;stroke:none"
             d="M 0,0 V -42.166 L -30.29,0 Z" /></g></g></g><g
       transform="matrix(8.0248718,0,0,8.0248718,-3897.3353,-5492.5677)"
       id="g126"><g
         clip-path="url(#clipPath132)"
         id="g128"><path
           id="path134"
           style="fill:#ffffff;fill-opacity:1;fill-rule:evenodd;stroke:none"
           d="m 489.884,723.913 h 65.206 v 2.244 h -65.206 z" /></g></g><g
       transform="matrix(8.0248718,0,0,8.0248718,-3897.3353,-5492.5677)"
       id="g136"><g
         clip-path="url(#clipPath142)"
         id="g138"><path
           id="path144"
           style="fill:#ffffff;fill-opacity:1;fill-rule:evenodd;stroke:none"
           d="m 490.978,718.358 h 62.74 v 2.244 h -62.74 z" /></g></g><g
       transform="matrix(8.0248718,0,0,8.0248718,-3897.3353,-5492.5677)"
       id="g146"><g
         clip-path="url(#clipPath152)"
         id="g148"><path
           id="path154"
           style="fill:#ffffff;fill-opacity:1;fill-rule:evenodd;stroke:none"
           d="m 495.028,712.856 h 55.349 v 2.245 h -55.349 z" /></g></g><g
       transform="matrix(8.0248718,0,0,8.0248718,-3897.3353,-5492.5677)"
       id="g156"><g
         clip-path="url(#clipPath162)"
         id="g158"><path
           id="path164"
           style="fill:#ffffff;fill-opacity:1;fill-rule:evenodd;stroke:none"
           d="m 499.953,707.441 h 45.742 v 2.243 h -45.742 z" /></g></g><g
       transform="matrix(8.0248718,0,0,8.0248718,-3897.3353,-5492.5677)"
       id="g166"><g
         clip-path="url(#clipPath172)"
         id="g168"><g
           transform="translate(504.85147,704.07454)"
           id="g174"><path
             id="path176"
             style="fill:#ffffff;fill-opacity:1;fill-rule:evenodd;stroke:none"
             d="M 0,0 H 33.985 C 29.551,-2.541 24.133,-4.175 17.73,-4.925 11.164,-4.486 5.254,-2.852 0,0" /></g></g></g><g
       transform="matrix(8.0248718,0,0,8.0248718,-3897.3353,-5492.5677)"
       id="g178"><g
         clip-path="url(#clipPath184)"
         id="g180"><g
           transform="translate(554.6787,745.7202)"
           id="g186"><path
             id="path188"
             style="fill:#ffffff;fill-opacity:1;fill-rule:evenodd;stroke:none"
             d="m 0,0 h 1.889 l 0.902,0.055 -30.483,41.783 -1.914,-0.876 z" /></g></g></g><g
       transform="matrix(8.0248718,0,0,8.0248718,-3897.3353,-5492.5677)"
       id="g190"><g
         clip-path="url(#clipPath196)"
         id="g192"><g
           transform="translate(488.62528,751.93181)"
           id="g198"><path
             id="path200"
             style="fill:#ffffff;fill-opacity:1;fill-rule:evenodd;stroke:none"
             d="m 0,0 h 2.38 l 15.186,21.398 2.682,-3.065 0.219,3.174 h -0.793 l 2.708,5.199 1.121,2.162 1.26,6.567 3.146,-0.11 1.56,-6.457 0.984,-2.162 2.628,-3.503 V 21.289 H 32.397 V 0 h 4.624 V -6.239 H 67.943 66.492 L -0.549,-6.677 Z" /></g></g></g><g
       transform="matrix(8.0248718,0,0,8.0248718,-3897.3353,-5492.5677)"
       id="g202"><g
         clip-path="url(#clipPath208)"
         id="g204"><g
           transform="translate(510.98016,760.76902)"
           id="g210"><path
             id="path212"
             style="fill:#ffffff;fill-opacity:1;fill-rule:evenodd;stroke:none"
             d="m 0,0 6.293,-8.592 v -2.681 H 2.517 1.805 l -1.257,0.055 v -0.055 h -1.096 v 2.681 H 0.548 L -7.115,1.971 -7.059,2.026 -7.388,2.517 -4.598,6.404 0,-0.054 Z m -22.273,-11.847 h -0.575 v -3.339 h 0.355 v 0.683 h 32.892 v 1.97 H -1.806 v 3.941 h -12.697 v -3.941 h -7.77 z M 1.259,13.791 1.286,14.256 H 6.648 V 13.791 H 6.293 V -6.567 l -4.488,6.13 v 14.228 z" /></g></g></g><g
       transform="matrix(8.0248718,0,0,8.0248718,-3897.3353,-5492.5677)"
       id="g214"><g
         clip-path="url(#clipPath220)"
         id="g216"><g
           transform="translate(495.32847,752.83452)"
           id="g222"><path
             id="path224"
             style="fill:#f04d4f;fill-opacity:1;fill-rule:evenodd;stroke:none"
             d="M 0,0 7.332,10.124 14.994,0 Z" /></g></g></g><g
       transform="matrix(8.0248718,0,0,8.0248718,-3897.3353,-5492.5677)"
       id="g226"><g
         clip-path="url(#clipPath232)"
         id="g228"><path
           id="path234"
           style="fill:#373535;fill-opacity:1;fill-rule:evenodd;stroke:none"
           d="m 513.963,770.101 h 2.08 v 1.943 h -2.08 z" /></g></g><g
       transform="matrix(8.0248718,0,0,8.0248718,-3897.3353,-5492.5677)"
       id="g236"><g
         clip-path="url(#clipPath242)"
         id="g238"><g
           transform="translate(509.61197,731.62878)"
           id="g244"><path
             id="path246"
             style="fill:#ffffff;fill-opacity:1;fill-rule:evenodd;stroke:none"
             d="M 0,0 H -3.995 C 2.846,5.089 11.301,8.1 20.467,8.1 29.552,8.1 38.007,5.089 44.821,0 H 40.825 C 34.886,3.72 27.91,5.855 20.467,5.855 12.943,5.855 5.937,3.693 0,0" /></g></g></g><g
       transform="matrix(8.0248718,0,0,8.0248718,-3897.3353,-5492.5677)"
       id="g248"><g
         clip-path="url(#clipPath254)"
         id="g250"><g
           transform="translate(487.77586,746.07604)"
           id="g256"><path
             id="path258"
             style="fill:#ffffff;fill-opacity:1;fill-rule:evenodd;stroke:none"
             d="M 0,0 69.228,-0.274 V -13.38 C 47.338,-1.341 24.327,0.109 -0.273,-13.653 Z" /></g></g></g><g
       transform="matrix(8.0248718,0,0,8.0248718,-3897.3353,-5492.5677)"
       id="g260"><g
         clip-path="url(#clipPath266)"
         id="g262"><path
           id="path268"
           style="fill:#ffffff;fill-opacity:1;fill-rule:evenodd;stroke:none"
           d="m 488.133,729.408 h 68.16 v 2.244 h -68.16 z" /></g></g><g
       transform="matrix(8.0248718,0,0,8.0248718,-3897.3353,-5492.5677)"
       id="g270"><g
         clip-path="url(#clipPath276)"
         id="g272"><g
           transform="translate(486.65446,788.32394)"
           id="g278"><path
             id="path280"
             style="fill:#373535;fill-opacity:1;fill-rule:evenodd;stroke:none"
             d="m 0,0 h 71.526 l -0.049,-53.367 -0.006,-0.484 C 71.471,-73.716 55.93,-90.188 35.764,-90.188 14.94,-90.188 0,-73.36 0,-53.11 Z m 2.435,-55.739 v -0.054 h 0.028 c 0.683,-17.731 15.378,-31.96 33.301,-31.96 17.839,0 33.273,16.528 33.273,31.933 v 1.368 c 0,0 0.026,0 0.026,0.028 h -0.026 l 0.026,52.126 H 2.463 L 2.435,-53.851 Z" /></g></g></g><g
       transform="matrix(8.0248718,0,0,8.0248718,-3897.3353,-5492.5677)"
       id="g282"><g
         clip-path="url(#clipPath288)"
         id="g284"><g
           transform="translate(487.88627,733.07831)"
           id="g290"><path
             id="path292"
             style="fill:#373535;fill-opacity:1;fill-rule:evenodd;stroke:none"
             d="M 0,0 C 22.355,13.133 45.614,13.381 69.391,0.244 69.309,-0.328 69.229,-0.903 69.147,-1.504 47.803,11.411 24.818,12.395 0.245,-1.751 0.163,-1.149 0.082,-0.574 0,0" /></g></g></g><g
       transform="matrix(8.0248718,0,0,8.0248718,-3897.3353,-5492.5677)"
       id="g294"><g
         clip-path="url(#clipPath300)"
         id="g296"><g
           transform="translate(510.95327,760.74216)"
           id="g302"><path
             id="path304"
             style="fill:#373535;fill-opacity:1;fill-rule:evenodd;stroke:none"
             d="m 0,0 6.292,-8.592 v -2.654 l -3.777,-0.028 v 0.028 H 1.833 l -1.259,0.027 v -0.027 H -0.52 v 2.682 H 0.574 L -7.088,1.998 -7.431,2.427 -4.598,6.403 0,-0.027 Z m -1.943,-7.306 -6.266,8.674 -6.212,-8.674 z m -13.79,-1.286 -1.178,0.055 L -4.598,8.537 -3.831,7.497 -3.858,7.47 0.574,1.341 v 12.478 h 1.259 v -14.23 l 4.459,-6.155 v 20.385 h 1.26 v -25.065 h 4.11 v -1.259 h -0.005 v -1.97 h 33.681 v -1.258 h -67.803 v 1.258 h 32.862 v 1.97 H -1.779 v 3.941 h -12.696 v -3.941 h -7.772 v 1.259 h 6.514 z" /></g></g></g><g
       transform="matrix(8.0248718,0,0,8.0248718,-3897.3353,-5492.5677)"
       id="g306"><g
         clip-path="url(#clipPath312)"
         id="g308"><g
           transform="translate(510.78875,774.45066)"
           id="g314"><path
             id="path316"
             style="fill:#f04d4f;fill-opacity:1;fill-rule:evenodd;stroke:none"
             d="M 0,0 H 8.455 C 7.003,1.067 7.225,3.292 4.24,3.292 0.815,3.292 1.369,1.067 0,0 M 3.558,5.5 4.241,10.836 4.788,5.5 C 5.171,5.309 5.472,4.871 5.472,4.378 5.472,3.694 4.898,3.119 4.214,3.119 c -0.684,0 -1.259,0.575 -1.259,1.259 0,0.466 0.246,0.903 0.603,1.122" /></g></g></g><g
       transform="matrix(8.0248718,0,0,8.0248718,-3897.3353,-5492.5677)"
       id="g318"><g
         clip-path="url(#clipPath324)"
         id="g320"><g
           transform="translate(514.59445,778.17629)"
           id="g326"><path
             id="path328"
             style="fill:#f04d4f;fill-opacity:1;fill-rule:evenodd;stroke:none"
             d="m 0,0 -0.4,-1.067 1.673,0.133 -0.49,0.801 z" /></g></g></g><g
       id="g330"><g
         clip-path="url(#clipPath336)"
         id="g332" /></g><g
       id="g338"><g
         clip-path="url(#clipPath344)"
         id="g340" /></g><g
       id="g346"><g
         clip-path="url(#clipPath352)"
         id="g348" /></g><g
       id="g354"><g
         clip-path="url(#clipPath360)"
         id="g356" /></g><g
       id="g362"><g
         clip-path="url(#clipPath368)"
         id="g364" /></g><g
       id="g370"><g
         clip-path="url(#clipPath376)"
         id="g372" /></g><g
       id="g378"><g
         clip-path="url(#clipPath384)"
         id="g380" /></g><g
       id="g386"><g
         clip-path="url(#clipPath392)"
         id="g388" /></g><g
       id="g394"><g
         clip-path="url(#clipPath400)"
         id="g396" /></g><g
       id="g402"><g
         clip-path="url(#clipPath408)"
         id="g404" /></g><g
       id="g410"><g
         clip-path="url(#clipPath416)"
         id="g412" /></g><g
       id="g418"><g
         clip-path="url(#clipPath424)"
         id="g420" /></g><g
       id="g426"><g
         clip-path="url(#clipPath432)"
         id="g428" /></g><g
       id="g434"><g
         clip-path="url(#clipPath440)"
         id="g436" /></g><g
       id="g442"><g
         clip-path="url(#clipPath448)"
         id="g444" /></g><g
       id="g450"><g
         clip-path="url(#clipPath456)"
         id="g452" /></g><g
       id="g458"><g
         clip-path="url(#clipPath464)"
         id="g460" /></g><g
       id="g466"><g
         clip-path="url(#clipPath472)"
         id="g468" /></g><g
       id="g474"><g
         clip-path="url(#clipPath480)"
         id="g476" /></g><g
       id="g482"><g
         clip-path="url(#clipPath488)"
         id="g484" /></g><g
       id="g490"><g
         clip-path="url(#clipPath496)"
         id="g492" /></g><g
       id="g498"><g
         clip-path="url(#clipPath504)"
         id="g500" /></g><g
       id="g506"><g
         clip-path="url(#clipPath512)"
         id="g508" /></g><g
       id="g514"><g
         clip-path="url(#clipPath520)"
         id="g516" /></g><g
       id="g522"><g
         clip-path="url(#clipPath528)"
         id="g524" /></g><g
       id="g530"><g
         clip-path="url(#clipPath536)"
         id="g532" /></g><g
       id="g538"><g
         clip-path="url(#clipPath544)"
         id="g540" /></g><g
       id="g546"><g
         clip-path="url(#clipPath552)"
         id="g548" /></g><g
       id="g554"><g
         clip-path="url(#clipPath560)"
         id="g556" /></g><g
       id="g562"><g
         clip-path="url(#clipPath568)"
         id="g564" /></g><g
       id="g570"><g
         clip-path="url(#clipPath576)"
         id="g572" /></g><g
       id="g578"><g
         clip-path="url(#clipPath584)"
         id="g580" /></g><g
       id="g586"><g
         clip-path="url(#clipPath592)"
         id="g588" /></g><g
       id="g594"><g
         clip-path="url(#clipPath600)"
         id="g596" /></g><g
       id="g602"><g
         clip-path="url(#clipPath608)"
         id="g604" /></g></g></svg>