<?xml version="1.0" encoding="UTF-8" standalone="no"?>
<svg
   xmlns:dc="http://purl.org/dc/elements/1.1/"
   xmlns:cc="http://creativecommons.org/ns#"
   xmlns:rdf="http://www.w3.org/1999/02/22-rdf-syntax-ns#"
   xmlns:svg="http://www.w3.org/2000/svg"
   xmlns="http://www.w3.org/2000/svg"
   viewBox="0 0 794.66669 1122.6667"
   height="1122.6667"
   width="794.66669"
   xml:space="preserve"
   id="svg2"
   version="1.1"><metadata
     id="metadata8"><rdf:RDF><cc:Work
         rdf:about=""><dc:format>image/svg+xml</dc:format><dc:type
           rdf:resource="http://purl.org/dc/dcmitype/StillImage" /></cc:Work></rdf:RDF></metadata><defs
     id="defs6"><clipPath
       id="clipPath14"
       clipPathUnits="userSpaceOnUse"><path
         id="path12"
         d="M -9,-9 H 605 V 851 H -9 Z" /></clipPath><clipPath
       id="clipPath22"
       clipPathUnits="userSpaceOnUse"><path
         style="clip-rule:evenodd"
         id="path20"
         d="M -9,-9 H 605 V 851 H -9 Z" /></clipPath><clipPath
       id="clipPath34"
       clipPathUnits="userSpaceOnUse"><path
         style="clip-rule:evenodd"
         id="path32"
         d="M -9,-9 H 605 V 851 H -9 Z" /></clipPath><clipPath
       id="clipPath46"
       clipPathUnits="userSpaceOnUse"><path
         style="clip-rule:evenodd"
         id="path44"
         d="M -9,-9 H 605 V 851 H -9 Z" /></clipPath><clipPath
       id="clipPath58"
       clipPathUnits="userSpaceOnUse"><path
         style="clip-rule:evenodd"
         id="path56"
         d="M -9,-9 H 605 V 851 H -9 Z" /></clipPath><clipPath
       id="clipPath70"
       clipPathUnits="userSpaceOnUse"><path
         style="clip-rule:evenodd"
         id="path68"
         d="M -9,-9 H 605 V 851 H -9 Z" /></clipPath><clipPath
       id="clipPath82"
       clipPathUnits="userSpaceOnUse"><path
         style="clip-rule:evenodd"
         id="path80"
         d="M -9,-9 H 605 V 851 H -9 Z" /></clipPath><clipPath
       id="clipPath94"
       clipPathUnits="userSpaceOnUse"><path
         style="clip-rule:evenodd"
         id="path92"
         d="M -9,-9 H 605 V 851 H -9 Z" /></clipPath><clipPath
       id="clipPath106"
       clipPathUnits="userSpaceOnUse"><path
         style="clip-rule:evenodd"
         id="path104"
         d="M -9,-9 H 605 V 851 H -9 Z" /></clipPath><clipPath
       id="clipPath118"
       clipPathUnits="userSpaceOnUse"><path
         style="clip-rule:evenodd"
         id="path116"
         d="M -9,-9 H 605 V 851 H -9 Z" /></clipPath><clipPath
       id="clipPath130"
       clipPathUnits="userSpaceOnUse"><path
         style="clip-rule:evenodd"
         id="path128"
         d="M -9,-9 H 605 V 851 H -9 Z" /></clipPath></defs><g
     clip-path="url(#clipPath14)"
     transform="matrix(1.3333333,0,0,-1.3333333,0,1122.6667)"
     id="g10"><g
       transform="matrix(1.3647614,0,0,1.3647614,-107.88553,-170.17062)"
       id="g16"><g
         clip-path="url(#clipPath22)"
         id="g18"><g
           transform="translate(93.0756,727.4001)"
           id="g24"><path
             id="path26"
             style="fill:#231f20;fill-opacity:1;fill-rule:evenodd;stroke:#231f20;stroke-width:0.21600001;stroke-linecap:butt;stroke-linejoin:miter;stroke-miterlimit:10;stroke-dasharray:none;stroke-opacity:1"
             d="m 0,0 h 409.124 v -319.559 h -0.03 c 0.009,-0.797 0.03,-1.591 0.03,-2.389 v 0 c 0,-112.511 -92.051,-204.562 -204.562,-204.562 v 0 C 92.052,-526.51 0,-434.459 0,-321.948 v 0 c 0,0.798 0.021,1.592 0.03,2.389 H 0 Z m -8.512,8.513 h 426.149 v -328.072 h -0.031 c 0.009,-0.797 0.031,-1.591 0.031,-2.389 v 0 c 0,-117.193 -95.882,-213.075 -213.075,-213.075 v 0 c -117.192,0 -213.074,95.882 -213.074,213.075 v 0 c 0,0.798 0.021,1.592 0.029,2.389 H -8.512 Z M 0,0 h 409.124 v -319.559 h -0.03 c 0.009,-0.797 0.03,-1.591 0.03,-2.389 v 0 c 0,-112.511 -92.051,-204.562 -204.562,-204.562 v 0 C 92.052,-526.51 0,-434.459 0,-321.948 v 0 c 0,0.798 0.021,1.592 0.03,2.389 H 0 Z" /></g></g></g><g
       transform="matrix(1.3647614,0,0,1.3647614,-107.88553,-170.17062)"
       id="g28"><g
         clip-path="url(#clipPath34)"
         id="g30"><g
           transform="translate(93.0756,727.4001)"
           id="g36"><path
             id="path38"
             style="fill:#c02033;fill-opacity:1;fill-rule:evenodd;stroke:none"
             d="m 0,0 h 409.124 v -319.559 h -0.03 c 0.009,-0.797 0.03,-1.591 0.03,-2.389 v 0 c 0,-112.511 -92.051,-204.562 -204.562,-204.562 v 0 C 92.052,-526.51 0,-434.459 0,-321.948 v 0 c 0,0.798 0.021,1.592 0.03,2.389 H 0" /></g></g></g><g
       transform="matrix(1.3647614,0,0,1.3647614,-107.88553,-170.17062)"
       id="g40"><g
         clip-path="url(#clipPath46)"
         id="g42"><g
           transform="translate(93.0756,727.4001)"
           id="g48"><path
             id="path50"
             style="fill:none;stroke:#231f20;stroke-width:0.21600001;stroke-linecap:butt;stroke-linejoin:miter;stroke-miterlimit:10;stroke-dasharray:none;stroke-opacity:1"
             d="m 0,0 h 409.124 v -319.559 h -0.03 c 0.009,-0.797 0.03,-1.591 0.03,-2.389 v 0 c 0,-112.511 -92.051,-204.562 -204.562,-204.562 v 0 C 92.052,-526.51 0,-434.459 0,-321.948 v 0 c 0,0.798 0.021,1.592 0.03,2.389 H 0 Z" /></g></g></g><g
       transform="matrix(1.3647614,0,0,1.3647614,-107.88553,-170.17062)"
       id="g52"><g
         clip-path="url(#clipPath58)"
         id="g54"><g
           transform="translate(167.3235,449.9521)"
           id="g60"><path
             id="path62"
             style="fill:#ffffff;fill-opacity:1;fill-rule:evenodd;stroke:none"
             d="m 0,0 v -22.241 h 9.745 c 2.48,-2.728 4.691,-5.715 4.732,-9.506 -0.041,-3.785 -2.244,-6.767 -4.72,-9.491 H 8.022 L 5.97,-43.325 5.153,-44.198 c -8.387,-9.388 -12.846,-20.838 -13.01,-33.428 0.153,-11.765 4.037,-22.487 11.439,-31.629 L 4.3,-110.097 H 0.955 l -0.111,-4.507 c -0.096,-1.258 -0.571,-2.31 -1.441,-3.222 -0.977,-0.933 -2.18,-1.414 -3.53,-1.448 h -4.198 v -26.853 h 283.728 v 26.744 l -4.505,0.117 -0.249,0.019 -0.246,0.031 -0.238,0.043 -0.236,0.055 -0.232,0.066 -0.227,0.077 -0.222,0.088 -0.216,0.098 -0.212,0.109 -0.207,0.119 -0.2,0.129 -0.195,0.139 -0.188,0.148 -0.179,0.154 -0.171,0.164 -0.165,0.174 -0.156,0.18 -0.149,0.188 -0.137,0.194 -0.13,0.2 -0.118,0.207 -0.109,0.212 -0.098,0.217 -0.089,0.223 -0.076,0.226 -0.066,0.23 -0.054,0.237 -0.044,0.241 -0.031,0.245 -0.019,0.249 -0.112,4.507 h -3.348 l 0.719,0.843 c 7.402,9.141 11.285,19.863 11.438,31.628 -0.17,13.01 -4.935,24.807 -13.826,34.3 l -2.052,2.088 h -1.637 c -2.331,2.683 -4.42,5.665 -4.624,9.236 -0.142,4.004 2.019,6.99 4.536,9.761 h 9.745 v 22.173 l -149.571,0.038 -6.435,7.226 -3.177,4.788 -5.443,8.878 -2.085,4.401 -1.21,3.405 -0.872,3.855 -0.531,3.439 0.044,2.108 0.044,2.049 0.483,2.726 1.227,5.494 1.02,3.976 0.676,3.331 0.232,3.052 0.056,3.363 -0.349,4.02 -0.725,2.895 -0.225,1.855 -0.288,2.018 -0.179,2.488 0.044,2.061 0.169,2.171 0.558,2.281 1.528,3.904 0.548,0.768 3.398,-0.28 3.806,-0.259 0.949,-0.044 0.984,-0.008 0.957,0.019 0.924,0.039 0.881,0.05 0.828,0.054 0.765,0.05 0.695,0.044 0.648,0.035 0.623,0.036 0.595,0.04 0.577,0.046 0.579,0.052 0.596,0.065 0.615,0.075 0.646,0.089 0.686,0.099 0.724,0.115 0.739,0.124 0.746,0.133 0.751,0.14 0.745,0.149 0.727,0.15 0.71,0.155 0.682,0.158 0.665,0.163 0.641,0.166 0.628,0.171 0.618,0.174 0.616,0.178 0.627,0.183 0.646,0.193 0.674,0.204 0.704,0.216 0.718,0.225 0.725,0.232 0.725,0.235 0.722,0.241 0.704,0.241 0.677,0.239 0.647,0.233 0.63,0.235 0.617,0.235 0.602,0.238 0.596,0.241 0.592,0.248 0.583,0.251 0.59,0.261 0.598,0.276 0.6,0.289 0.587,0.291 0.572,0.291 0.543,0.282 0.382,0.201 0.28,-0.54 0.314,-0.519 0.247,-0.387 0.232,-0.346 0.213,-0.3 0.192,-0.263 0.177,-0.236 0.153,-0.198 0.136,-0.179 0.15,-0.202 0.16,-0.21 0.169,-0.221 0.175,-0.217 0.177,-0.217 0.194,-0.225 0.209,-0.236 0.231,-0.248 0.26,-0.269 0.267,-0.259 0.244,-0.23 0.221,-0.201 0.192,-0.181 0.188,-0.178 0.17,-0.167 0.166,-0.172 0.19,-0.207 0.213,-0.235 0.224,-0.253 0.233,-0.266 0.243,-0.283 0.259,-0.302 0.271,-0.319 0.285,-0.336 0.311,-0.369 0.344,-0.409 0.36,-0.428 0.361,-0.431 0.351,-0.424 0.329,-0.4 0.292,-0.361 0.226,-0.282 0.156,-0.205 0.094,-0.125 0.045,-0.065 0.033,-0.05 0.067,-0.109 0.131,-0.205 0.182,-0.278 0.235,-0.348 0.289,-0.427 0.347,-0.506 0.382,-0.558 0.398,-0.58 0.392,-0.579 0.369,-0.548 0.321,-0.488 0.247,-0.382 0.173,-0.285 0.128,-0.217 0.084,-0.155 0.074,-0.142 0.2,-0.412 0.154,-0.314 0.188,-0.361 0.204,-0.389 0.225,-0.422 0.234,-0.438 0.23,-0.431 0.219,-0.422 0.2,-0.392 0.165,-0.337 0.119,-0.256 0.076,-0.182 0.03,-0.076 0.005,-0.016 0.01,-0.031 0.035,-0.141 0.077,-0.294 0.11,-0.392 0.138,-0.456 0.16,-0.535 0.192,-0.643 0.214,-0.723 0.229,-0.772 0.24,-0.798 0.242,-0.796 0.238,-0.769 0.224,-0.696 0.206,-0.63 0.2,-0.6 0.198,-0.584 0.202,-0.571 0.203,-0.566 0.215,-0.568 0.224,-0.571 0.233,-0.567 0.24,-0.568 0.252,-0.575 0.263,-0.582 0.268,-0.569 0.274,-0.563 0.28,-0.552 0.287,-0.542 0.285,-0.505 0.262,-0.444 0.257,-0.418 0.273,-0.42 0.289,-0.407 0.304,-0.399 0.329,-0.398 0.347,-0.395 0.386,-0.419 0.471,-0.483 0.533,-0.513 0.546,-0.508 0.543,-0.489 0.515,-0.464 0.466,-0.416 0.379,-0.345 0.132,-0.123 0.009,-0.213 0.009,-0.228 0.008,-0.177 0.003,-0.136 0.002,-0.138 -0.001,-0.178 v -0.214 l 0.001,-0.279 0.014,-0.336 0.026,-0.371 0.047,-0.36 0.051,-0.314 0.061,-0.311 0.076,-0.323 0.088,-0.311 0.102,-0.324 0.126,-0.33 0.129,-0.307 0.152,-0.326 0.188,-0.364 0.2,-0.336 0.183,-0.291 0.165,-0.247 0.146,-0.217 0.121,-0.176 0.091,-0.136 0.057,-0.089 0.155,-0.264 0.095,-0.163 0.082,-0.141 0.082,-0.146 0.088,-0.153 0.085,-0.154 0.034,-0.061 -0.013,-0.118 -0.028,-0.213 -0.024,-0.2 -0.023,-0.206 -0.018,-0.175 -0.019,-0.177 -0.017,-0.189 -0.013,-0.159 -0.012,-0.139 -0.012,-0.139 -0.023,-0.278 -0.017,-0.08 -0.052,-0.255 -0.07,-0.418 -0.04,-0.554 0.017,-0.64 0.095,-0.602 0.111,-0.468 0.118,-0.396 0.136,-0.4 0.16,-0.396 0.178,-0.398 0.216,-0.418 0.249,-0.423 0.263,-0.387 0.248,-0.333 0.264,-0.323 0.3,-0.337 0.331,-0.33 0.365,-0.327 0.411,-0.321 0.441,-0.302 0.463,-0.27 0.489,-0.25 0.493,-0.208 0.463,-0.174 0.449,-0.144 0.443,-0.129 0.445,-0.111 0.437,-0.096 0.436,-0.078 0.467,-0.069 0.486,-0.045 0.454,-0.022 0.41,-0.003 0.38,0.005 0.345,0.015 0.289,0.013 0.257,0.014 0.268,0.011 0.298,0.018 0.319,0.023 0.349,0.033 0.375,0.046 0.409,0.068 0.431,0.091 0.444,0.118 0.451,0.144 0.432,0.167 0.39,0.168 0.346,0.164 0.294,0.148 0.257,0.131 0.231,0.119 0.199,0.103 0.183,0.091 0.42,0.208 0.258,0.134 0.277,0.149 0.302,0.177 0.314,0.196 0.316,0.216 0.298,0.216 0.285,0.22 0.277,0.223 0.28,0.235 0.279,0.246 0.281,0.261 0.277,0.273 0.298,0.317 0.306,0.366 0.268,0.369 0.218,0.34 0.177,0.307 0.129,0.243 0.094,0.181 0.062,0.121 0.034,0.063 0.035,0.06 0.067,0.11 0.106,0.172 0.15,0.254 0.171,0.321 0.187,0.399 0.19,0.501 0.149,0.556 0.09,0.531 0.044,0.481 0.008,0.417 -0.009,0.387 -0.027,0.348 -0.03,0.292 -0.032,0.258 -0.037,0.29 -0.058,0.353 -0.07,0.358 -0.071,0.32 -0.067,0.292 -0.064,0.262 -0.049,0.209 -0.032,0.147 -0.024,0.127 -0.022,0.128 -0.021,0.137 -0.017,0.116 -0.013,0.103 -0.011,0.091 -0.006,0.072 -0.006,0.074 -0.006,0.132 -0.018,0.36 -0.005,0.109 -0.001,0.082 0.009,0.032 0.048,0.149 0.169,0.477 0.108,0.311 0.12,0.375 0.108,0.392 0.071,0.31 0.057,0.261 0.047,0.261 0.047,0.28 0.034,0.28 0.026,0.259 0.019,0.254 0.021,0.276 0.017,0.297 0.018,0.309 0.017,0.347 0.016,0.389 0.008,0.422 v 0.435 l -0.013,0.454 -0.029,0.479 -0.052,0.46 -0.062,0.43 -0.074,0.404 -0.078,0.39 -0.087,0.368 -0.087,0.341 -0.083,0.305 -0.082,0.287 -0.079,0.258 -0.076,0.246 -0.101,0.297 -0.135,0.349 -0.167,0.366 -0.187,0.36 -0.196,0.331 -0.191,0.298 -0.174,0.256 -0.179,0.265 -0.227,0.316 -0.271,0.361 -0.321,0.389 -0.366,0.404 -0.426,0.415 -0.477,0.407 -0.486,0.358 -0.467,0.311 -0.465,0.285 -0.469,0.268 -0.463,0.243 -0.446,0.223 -0.437,0.206 -0.48,0.212 -0.544,0.205 -0.525,0.166 -0.307,0.083 0.012,0.109 0.122,0.037 0.34,0.11 0.366,0.122 0.379,0.132 0.39,0.144 0.394,0.153 0.39,0.167 0.356,0.165 0.334,0.166 0.328,0.173 0.325,0.184 0.314,0.19 0.317,0.207 0.312,0.221 0.372,0.285 0.451,0.411 0.402,0.466 0.22,0.31 0.039,0.022 0.149,0.085 0.156,0.087 0.18,0.099 0.186,0.102 0.16,0.09 0.126,0.069 0.092,0.047 0.052,0.026 0.042,0.018 0.039,0.015 0.037,0.013 0.076,0.022 0.126,0.032 0.16,0.037 0.179,0.036 0.194,0.035 0.203,0.033 0.181,0.027 0.164,0.021 0.129,0.014 0.117,0.009 0.128,0.006 0.117,0.004 h 0.119 l 0.118,-0.001 0.122,-0.005 0.127,-0.005 0.05,-0.003 0.16,-0.043 0.633,-0.177 0.331,-0.097 0.345,-0.101 0.343,-0.107 0.336,-0.109 0.298,-0.104 0.251,-0.094 0.23,-0.093 0.241,-0.106 0.263,-0.123 0.273,-0.131 0.282,-0.143 0.308,-0.155 0.327,-0.166 0.322,-0.159 0.312,-0.158 0.317,-0.156 0.29,-0.144 0.266,-0.133 0.244,-0.127 0.216,-0.116 0.178,-0.102 0.142,-0.087 0.124,-0.083 0.112,-0.079 0.107,-0.08 0.117,-0.092 0.142,-0.119 0.19,-0.161 0.229,-0.194 0.242,-0.204 0.242,-0.21 0.268,-0.237 0.306,-0.276 0.336,-0.305 0.364,-0.327 0.391,-0.344 0.414,-0.352 0.405,-0.329 0.384,-0.304 0.382,-0.294 0.385,-0.291 0.393,-0.287 0.405,-0.29 0.427,-0.295 0.445,-0.298 0.452,-0.292 0.474,-0.301 0.506,-0.311 0.516,-0.311 0.525,-0.309 0.537,-0.311 0.543,-0.304 0.53,-0.289 0.52,-0.274 0.52,-0.264 0.519,-0.249 0.507,-0.235 0.491,-0.22 0.478,-0.207 0.463,-0.192 0.432,-0.175 0.418,-0.164 0.432,-0.161 0.427,-0.144 0.397,-0.124 0.353,-0.098 0.307,-0.082 0.27,-0.068 0.225,-0.058 0.185,-0.048 0.184,-0.054 0.196,-0.056 0.208,-0.061 0.236,-0.067 0.288,-0.076 0.327,-0.075 0.342,-0.069 0.356,-0.056 0.364,-0.05 0.369,-0.038 0.338,-0.026 0.315,-0.019 0.303,-0.018 0.296,-0.015 0.276,-0.016 0.275,-0.017 0.319,-0.024 0.376,-0.027 0.396,-0.03 0.406,-0.029 0.401,-0.029 0.397,-0.027 0.389,-0.025 0.333,-0.017 0.256,-0.015 0.243,-0.015 0.258,-0.016 0.267,-0.011 0.291,-0.01 h 0.312 l 0.328,0.007 0.351,0.02 0.362,0.028 0.378,0.039 0.355,0.045 0.329,0.046 0.317,0.045 0.299,0.047 0.261,0.041 0.194,0.03 0.135,0.017 0.138,0.017 0.173,0.019 0.234,0.029 0.305,0.046 0.358,0.072 0.376,0.095 0.355,0.109 0.338,0.114 0.344,0.128 0.339,0.134 0.336,0.14 0.336,0.147 0.335,0.154 0.337,0.164 0.332,0.172 0.303,0.167 0.296,0.172 0.291,0.183 0.28,0.186 0.265,0.187 0.245,0.181 0.237,0.182 0.243,0.192 0.254,0.207 0.267,0.227 0.263,0.232 0.256,0.234 0.256,0.237 0.255,0.247 0.242,0.243 0.26,0.272 0.263,0.298 0.242,0.295 0.206,0.27 0.175,0.24 0.148,0.21 0.116,0.166 0.077,0.111 0.051,0.068 0.017,0.021 0.017,0.02 0.078,0.089 0.148,0.172 0.194,0.239 0.238,0.328 0.232,0.38 0.21,0.399 0.163,0.371 0.123,0.313 0.11,0.304 0.107,0.325 0.095,0.328 0.087,0.328 0.078,0.343 0.074,0.376 0.057,0.375 0.044,0.356 0.03,0.337 0.025,0.331 0.015,0.332 0.009,0.314 0.004,0.288 v 0.33 l -0.011,0.338 -0.017,0.317 -0.025,0.304 -0.029,0.288 -0.03,0.257 -0.028,0.226 -0.028,0.218 -0.026,0.216 -0.024,0.193 -0.02,0.201 -0.027,0.246 -0.032,0.304 -0.048,0.356 -0.062,0.384 -0.086,0.417 -0.113,0.448 -0.128,0.412 -0.125,0.361 -0.136,0.357 -0.152,0.37 -0.164,0.357 -0.169,0.346 -0.189,0.356 -0.223,0.385 -0.263,0.398 -0.264,0.359 -0.249,0.308 -0.241,0.282 -0.214,0.235 -0.177,0.193 -0.143,0.153 -0.107,0.12 -0.093,0.106 -0.102,0.12 -0.132,0.157 -0.179,0.209 -0.24,0.26 -0.284,0.281 -0.312,0.273 -0.358,0.285 -0.368,0.252 -0.321,0.203 -0.321,0.188 -0.33,0.181 -0.314,0.159 -0.305,0.148 -0.307,0.139 -0.336,0.144 -0.393,0.147 -0.385,0.121 -0.311,0.083 -0.267,0.066 -0.194,0.044 -0.117,0.029 -0.093,0.025 -0.137,0.043 -0.235,0.075 -0.271,0.088 -0.273,0.09 -0.273,0.093 -0.267,0.093 -0.222,0.082 -0.17,0.067 -0.155,0.067 -0.14,0.065 -0.11,0.053 -0.067,0.034 -0.046,0.028 -0.028,0.016 -0.005,0.003 -0.005,0.005 -0.044,0.035 -0.039,0.166 -0.056,0.234 -0.072,0.295 -0.095,0.351 -0.104,0.33 -0.088,0.261 -0.07,0.192 -0.047,0.136 -0.01,0.028 v 0.017 l 0.007,0.265 -0.001,0.38 -0.019,0.479 -0.055,0.56 -0.096,0.585 -0.124,0.557 -0.132,0.537 -0.147,0.553 -0.155,0.561 -0.16,0.551 -0.158,0.525 -0.153,0.485 -0.161,0.488 -0.192,0.504 -0.216,0.477 -0.204,0.382 -0.163,0.28 -0.047,0.075 -0.039,0.135 -0.045,0.157 -0.043,0.174 -0.042,0.181 -0.034,0.164 -0.028,0.157 -0.022,0.151 -0.014,0.11 -0.008,0.1 -0.007,0.128 -0.004,0.165 -0.003,0.205 -0.002,0.244 -0.003,0.283 -0.005,0.32 -0.012,0.312 -0.009,0.297 -0.009,0.303 -0.008,0.303 -0.006,0.277 -0.003,0.254 0.001,0.221 0.006,0.209 0.008,0.2 0.011,0.182 0.013,0.166 0.016,0.157 0.018,0.152 0.019,0.133 0.01,0.064 0.006,0.011 0.066,0.144 0.105,0.233 0.076,0.194 0.003,0.008 0.024,0.049 0.102,0.214 0.146,0.352 0.145,0.444 0.105,0.465 0.07,0.453 0.034,0.405 0.017,0.358 0.007,0.346 0.001,0.335 -0.005,0.322 -0.009,0.306 -0.012,0.293 -0.016,0.287 -0.022,0.288 -0.029,0.277 -0.033,0.262 -0.042,0.273 -0.049,0.253 -0.044,0.213 -0.046,0.201 -0.049,0.205 -0.049,0.196 -0.055,0.212 -0.066,0.227 -0.078,0.259 -0.09,0.26 -0.098,0.267 -0.11,0.266 -0.12,0.276 -0.118,0.239 -0.098,0.198 -0.124,0.229 -0.151,0.266 -0.17,0.267 -0.165,0.245 -0.188,0.26 -0.233,0.308 -0.287,0.341 -0.284,0.317 -0.272,0.293 -0.257,0.278 -0.116,0.124 -0.065,0.274 -0.153,0.428 -0.102,0.259 -0.077,0.184 -0.053,0.133 -0.037,0.093 -0.019,0.054 -0.01,0.034 -0.024,0.096 -0.048,0.204 -0.051,0.23 -0.045,0.212 -0.038,0.21 -0.037,0.221 -0.03,0.224 -0.026,0.242 -0.021,0.287 -0.018,0.368 -0.013,0.457 -0.009,0.514 -0.001,0.538 0.003,0.526 0.002,0.18 0.27,0.192 0.345,0.285 0.279,0.259 0.241,0.245 0.215,0.237 0.201,0.236 0.186,0.232 0.167,0.226 0.15,0.209 0.145,0.216 0.124,0.197 0.126,0.209 0.154,0.283 0.168,0.362 0.145,0.393 0.107,0.374 0.071,0.328 0.05,0.285 0.034,0.252 0.032,0.265 0.024,0.303 0.015,0.336 -0.001,0.365 -0.018,0.375 -0.04,0.397 -0.061,0.398 -0.066,0.33 -0.072,0.317 -0.088,0.329 -0.099,0.337 -0.117,0.342 -0.12,0.322 -0.132,0.332 -0.159,0.379 -0.191,0.413 -0.2,0.407 -0.206,0.404 -0.209,0.403 -0.204,0.386 -0.186,0.355 -0.16,0.305 -0.139,0.282 -0.133,0.267 -0.118,0.239 -0.1,0.203 -0.168,0.35 -0.072,0.16 -0.085,0.195 -0.084,0.201 -0.078,0.195 -0.084,0.239 -0.109,0.324 -0.13,0.394 -0.153,0.435 -0.176,0.473 -0.224,0.526 -0.303,0.596 -0.392,0.596 -0.434,0.527 -0.448,0.431 -0.393,0.315 -0.269,0.189 -0.076,0.052 -0.085,0.079 -0.165,0.154 -0.167,0.156 -0.175,0.166 -0.174,0.161 -0.164,0.157 -0.163,0.153 -0.18,0.173 -0.191,0.178 -0.169,0.159 -0.162,0.149 -0.267,0.252 -0.112,0.11 -0.112,0.115 -0.133,0.141 -0.16,0.175 -0.172,0.192 -0.181,0.205 -0.187,0.219 -0.189,0.224 -0.165,0.2 -0.141,0.177 -0.114,0.148 -0.078,0.105 -0.059,0.084 -0.04,0.059 -0.031,0.051 -0.028,0.049 -0.025,0.044 -0.025,0.052 -0.033,0.068 -0.036,0.12 -0.038,0.136 -0.05,0.175 -0.063,0.219 -0.066,0.205 -0.049,0.163 -0.052,0.171 -0.096,0.331 -0.04,0.152 -0.035,0.13 -0.026,0.113 -0.015,0.072 -0.01,0.065 -0.02,0.14 -0.028,0.223 -0.045,0.31 -0.064,0.372 -0.091,0.419 -0.116,0.434 -0.119,0.386 -0.116,0.352 -0.124,0.363 -0.141,0.387 -0.154,0.395 -0.162,0.403 -0.179,0.415 -0.199,0.445 -0.235,0.488 -0.26,0.513 -0.27,0.514 -0.268,0.507 -0.26,0.481 -0.228,0.421 -0.181,0.334 -0.165,0.311 -0.205,0.357 -0.222,0.345 -0.188,0.272 -0.144,0.205 -0.022,0.053 -0.236,0.443 -0.202,0.345 -0.197,0.327 -0.184,0.3 -0.153,0.248 -0.082,0.135 -0.028,0.05 -0.057,0.105 -0.085,0.148 -0.068,0.12 -0.068,0.125 -0.067,0.123 -0.047,0.092 -0.018,0.038 -0.013,0.032 -0.022,0.055 -0.027,0.077 -0.03,0.09 -0.032,0.112 -0.038,0.132 -0.033,0.126 -0.038,0.152 -0.041,0.166 -0.035,0.151 -0.03,0.141 -0.032,0.161 -0.036,0.192 -0.038,0.203 -0.035,0.199 -0.036,0.193 -0.038,0.213 -0.038,0.197 -0.03,0.158 -0.025,0.123 -0.019,0.108 -0.016,0.086 -0.01,0.068 -0.009,0.062 -0.004,0.036 -0.002,0.017 -0.001,0.102 v 0.197 l -0.007,0.266 -0.015,0.33 -0.048,0.457 -0.105,0.551 -0.155,0.494 -0.187,0.471 -0.233,0.429 -0.201,0.315 -0.117,0.159 -0.02,0.028 -0.006,0.008 -0.047,0.078 -0.114,0.188 -0.145,0.245 -0.165,0.276 -0.178,0.3 -0.188,0.31 -0.185,0.304 -0.177,0.289 -0.182,0.295 -0.179,0.277 -0.167,0.253 -0.15,0.221 -0.139,0.206 -0.13,0.187 -0.105,0.157 -0.092,0.137 -0.089,0.141 -0.086,0.136 -0.073,0.122 -0.074,0.126 -0.088,0.156 -0.097,0.166 -0.097,0.169 -0.114,0.197 -0.136,0.231 -0.148,0.238 -0.135,0.212 -0.116,0.179 -0.109,0.172 -0.097,0.152 -0.063,0.104 -0.037,0.065 -0.029,0.056 -0.028,0.057 -0.02,0.044 -0.024,0.058 -0.036,0.095 -0.044,0.123 -0.048,0.137 -0.057,0.163 -0.072,0.204 -0.061,0.163 -0.038,0.105 -0.037,0.105 -0.044,0.133 -0.05,0.147 -0.057,0.165 -0.162,0.815 -0.016,0.606 0.026,0.056 0.051,0.103 0.06,0.113 0.09,0.158 0.113,0.191 0.131,0.216 0.141,0.229 0.141,0.232 0.142,0.235 0.124,0.21 0.112,0.189 0.096,0.165 0.079,0.134 0.072,0.118 0.063,0.102 0.063,0.095 0.065,0.095 0.081,0.111 0.112,0.147 0.133,0.171 0.16,0.202 0.172,0.216 0.17,0.216 0.181,0.234 0.195,0.263 0.16,0.234 0.138,0.208 0.125,0.201 0.103,0.173 0.086,0.15 0.078,0.137 0.06,0.11 0.037,0.068 0.04,0.067 0.064,0.109 0.073,0.122 0.095,0.16 0.121,0.218 0.127,0.243 0.124,0.261 0.124,0.289 0.113,0.295 0.093,0.278 0.075,0.25 0.063,0.23 0.051,0.2 0.042,0.169 0.031,0.13 0.03,0.118 0.07,0.279 0.075,0.317 0.041,0.199 0.036,0.186 0.03,0.179 0.039,0.234 0.028,0.236 0.022,0.178 0.019,0.184 0.024,0.217 0.018,0.227 0.018,0.224 0.014,0.235 0.013,0.253 0.007,0.236 0.007,0.224 0.004,0.245 0.002,0.255 -0.002,0.26 -0.003,0.26 -0.006,0.28 -0.009,0.304 -0.015,0.314 -0.017,0.308 -0.021,0.299 -0.02,0.31 -0.024,0.307 -0.024,0.314 -0.024,0.325 -0.024,0.342 -0.028,0.384 -0.031,0.415 -0.033,0.429 -0.033,0.443 -0.034,0.437 -0.03,0.421 -0.028,0.388 -0.022,0.344 -0.017,0.292 -0.011,0.265 -0.008,0.256 -0.007,0.284 -0.012,0.324 -0.018,0.352 -0.027,0.372 -0.041,0.426 -0.059,0.436 -0.064,0.408 -0.068,0.39 -0.068,0.372 -0.124,0.641 -0.051,0.273 -0.038,0.227 -0.029,0.177 -0.022,0.166 -0.024,0.179 -0.025,0.206 -0.034,0.243 -0.041,0.273 -0.057,0.299 -0.072,0.332 -0.082,0.304 -0.075,0.258 -0.085,0.262 -0.103,0.292 -0.112,0.274 -0.112,0.258 -0.125,0.258 -0.137,0.265 -0.152,0.266 -0.155,0.252 -0.163,0.243 -0.181,0.253 -0.186,0.236 -0.185,0.222 -0.195,0.215 -0.202,0.214 -0.191,0.184 -0.175,0.167 -0.212,0.189 -0.245,0.207 -0.285,0.217 -0.307,0.214 -0.331,0.204 -0.364,0.201 -0.364,0.17 -0.331,0.142 -0.329,0.124 -0.33,0.114 -0.308,0.094 -0.296,0.084 -0.296,0.076 -0.315,0.076 -0.329,0.065 -0.307,0.056 -0.317,0.047 -0.317,0.042 -0.311,0.031 -0.308,0.027 -0.301,0.017 -0.375,0.015 -0.481,-0.016 -0.466,-0.051 -0.346,-0.067 -0.145,-0.033 h -0.011 l -0.234,-0.005 -0.354,-0.001 -0.415,0.002 -0.442,0.005 -0.448,0.008 -0.421,0.009 -0.357,0.01 -0.232,0.009 -0.079,0.048 -0.397,0.211 -0.389,0.162 -0.287,0.11 -0.221,0.078 -0.189,0.068 -0.019,0.017 -0.115,0.104 -0.148,0.138 -0.186,0.171 -0.217,0.197 -0.211,0.184 -0.195,0.174 -0.215,0.192 -0.221,0.198 -0.207,0.187 -0.195,0.178 -0.181,0.167 -0.158,0.147 -0.113,0.106 -0.117,0.114 -0.054,0.056 -0.061,0.062 -0.072,0.074 -0.114,0.117 -0.136,0.142 -0.153,0.156 -0.163,0.17 -0.187,0.192 -0.201,0.21 -0.211,0.217 -0.205,0.212 -0.201,0.203 -0.188,0.188 -0.146,0.141 -0.119,0.119 -0.132,0.128 -0.154,0.149 -0.172,0.154 -0.172,0.152 -0.172,0.142 -0.185,0.152 -0.205,0.159 -0.208,0.162 -0.218,0.162 -0.225,0.165 -0.229,0.161 -0.215,0.152 -0.226,0.154 -0.239,0.162 -0.22,0.14 -0.198,0.129 -0.221,0.138 -0.24,0.15 -0.255,0.149 -0.253,0.145 -0.262,0.142 -0.305,0.158 -0.307,0.141 -0.275,0.119 -0.268,0.107 -0.26,0.099 -0.259,0.089 -0.243,0.081 -0.225,0.07 -0.243,0.073 -0.281,0.075 -0.26,0.067 -0.245,0.057 -0.25,0.055 -0.25,0.05 -0.228,0.043 -0.2,0.037 -0.202,0.037 -0.207,0.035 -0.195,0.035 -0.215,0.035 -0.254,0.041 -0.266,0.036 -0.283,0.035 -0.309,0.027 -0.334,0.021 -0.346,0.004 -0.311,-0.006 -0.276,-0.014 -0.243,-0.016 -0.223,-0.02 -0.175,-0.016 -0.128,-0.011 -0.123,-0.008 -0.133,-0.008 -0.144,-0.005 -0.207,-0.007 -0.264,-0.008 -0.311,-0.017 -0.358,-0.028 -0.409,-0.051 -0.463,-0.084 -0.463,-0.12 -0.398,-0.128 -0.339,-0.126 -0.292,-0.119 -0.256,-0.112 -0.197,-0.089 -0.133,-0.059 -0.161,-0.07 -0.206,-0.093 -0.21,-0.099 -0.182,-0.093 -0.175,-0.091 -0.033,-0.016 -0.004,-0.002 -0.02,-0.007 -0.079,-0.025 -0.134,-0.042 -0.301,-0.093 -0.198,-0.067 -0.268,-0.092 -0.185,-0.076 -0.161,0.088 -0.524,0.295 -0.568,0.328 -0.575,0.333 -0.539,0.32 -0.468,0.283 -0.34,0.213 -0.18,0.12 -0.081,0.06 -0.068,0.058 -0.106,0.095 -0.177,0.162 -0.292,0.26 -0.415,0.319 -0.489,0.316 -0.486,0.256 -0.426,0.193 -0.376,0.146 -0.326,0.113 -0.268,0.086 -0.185,0.058 -0.123,0.041 -0.131,0.049 -0.179,0.069 -0.226,0.092 -0.259,0.106 -0.278,0.114 -0.296,0.118 -1.583,0.619 -0.778,0.013 -0.121,0.004 -0.237,0.004 -0.416,0.015 -0.688,0.017 -0.899,0.02 -1.031,0.016 -1.09,0.02 -1.086,0.023 -0.995,0.026 -0.821,0.032 -0.242,0.016 -0.361,0.195 -0.389,0.166 -0.229,0.1 -0.245,0.109 -0.25,0.115 -0.238,0.11 -0.199,0.098 -0.161,0.081 -0.123,0.067 -0.083,0.048 -0.032,0.02 -0.017,0.012 -0.048,0.038 -0.083,0.068 -0.137,0.113 -0.175,0.145 -0.167,0.134 -0.137,0.116 -0.16,0.135 -0.174,0.153 -0.187,0.165 -0.385,0.346 -0.201,0.182 -0.192,0.174 -0.177,0.165 -0.191,0.18 -0.212,0.202 -0.23,0.217 -0.242,0.228 -0.264,0.244 -0.285,0.261 -0.293,0.26 -0.295,0.261 -0.316,0.28 -0.333,0.294 -0.337,0.29 -0.335,0.289 -0.338,0.284 -0.353,0.292 -0.355,0.276 -0.332,0.251 -0.318,0.234 -0.301,0.217 -0.275,0.195 -0.242,0.173 -0.221,0.16 -0.204,0.152 -0.19,0.144 -0.178,0.137 -0.177,0.14 -0.193,0.155 -0.207,0.163 -0.216,0.169 -0.234,0.179 -0.248,0.185 -0.213,0.155 -0.194,0.144 -0.22,0.161 -0.25,0.182 -0.278,0.192 -0.296,0.2 -0.327,0.209 -0.368,0.228 -0.406,0.235 -0.416,0.235 -0.433,0.238 -0.441,0.24 -0.438,0.234 -0.417,0.223 -0.384,0.203 -0.348,0.188 -0.303,0.161 -0.269,0.146 -0.268,0.145 -0.276,0.15 -0.296,0.154 -0.308,0.157 -0.328,0.159 -0.363,0.172 -0.398,0.176 -0.404,0.175 -0.413,0.173 -0.423,0.174 -0.414,0.165 -0.389,0.154 -0.375,0.144 -0.355,0.133 -0.343,0.122 -0.328,0.109 -0.281,0.084 -0.259,0.075 -0.225,0.059 -0.162,0.042 -0.141,0.039 -0.132,0.038 -0.157,0.047 -0.197,0.061 -0.195,0.058 -0.203,0.063 -0.214,0.064 -0.209,0.063 -0.194,0.054 -0.189,0.055 -0.142,0.036 -0.092,0.026 -0.109,0.031 -0.212,0.057 -0.248,0.052 -0.213,0.041 -0.234,0.036 -0.228,0.032 -0.248,0.032 -0.256,0.031 -0.282,0.032 -0.313,0.034 -0.335,0.03 -0.346,0.03 -0.369,0.024 -0.386,0.022 -0.397,0.015 -0.405,0.012 -0.421,0.01 -0.428,0.007 -0.427,0.003 -0.424,0.002 -0.403,-0.002 -0.404,-10e-4 -0.411,-0.009 -0.387,-0.01 -0.36,-0.015 -0.336,-0.014 -0.314,-0.014 -0.295,-0.011 -0.282,-0.006 -0.292,-0.003 h -0.335 l -0.359,0.004 -0.375,0.005 -0.374,0.008 -0.352,0.008 -0.328,0.014 -0.292,0.014 -0.266,0.018 -0.242,0.019 -0.19,0.016 -0.142,0.015 -0.089,0.011 -0.043,0.008 -0.023,0.005 -0.026,0.006 -0.034,0.011 -0.014,0.004 -0.015,0.006 -0.045,0.022 -0.084,0.043 -0.123,0.066 -0.149,0.085 -0.192,0.11 -0.185,0.107 -0.147,0.087 -0.157,0.099 -0.191,0.125 -0.236,0.158 -0.267,0.176 -0.287,0.186 -0.324,0.199 -0.367,0.212 -0.362,0.183 -0.314,0.149 -0.286,0.124 -0.272,0.114 -0.24,0.091 -0.197,0.076 -0.178,0.069 -0.191,0.077 -0.237,0.096 -0.257,0.104 -0.271,0.109 -0.289,0.116 -0.296,0.115 -0.288,0.112 -0.295,0.112 -0.3,0.109 -0.28,0.096 -0.257,0.085 -0.253,0.078 -0.247,0.075 -0.236,0.067 -0.211,0.058 -0.195,0.053 -0.214,0.061 -0.213,0.057 -0.202,0.057 -0.242,0.069 -0.286,0.078 -0.315,0.079 -0.333,0.078 -0.383,0.075 -0.404,0.063 -0.377,0.04 -0.351,0.027 -0.347,0.014 -0.345,0.006 -0.341,-0.008 -0.332,-0.015 -0.325,-0.026 -0.335,-0.035 -0.356,-0.051 -0.34,-0.059 -0.329,-0.07 -0.322,-0.078 -0.302,-0.083 -0.283,-0.084 -0.264,-0.085 -0.254,-0.084 -0.265,-0.093 -0.273,-0.1 -0.267,-0.105 -0.287,-0.116 -0.314,-0.139 -0.318,-0.151 -0.331,-0.171 -0.358,-0.203 -0.36,-0.232 -0.331,-0.233 -0.292,-0.225 -0.241,-0.196 -0.217,-0.182 -0.176,-0.152 -0.144,-0.122 -0.165,-0.136 -0.224,-0.19 -0.231,-0.204 -0.194,-0.176 -0.036,-0.034 -0.148,0.025 -0.152,0.032 -0.129,0.028 -0.12,0.031 -0.123,0.034 -0.092,0.027 -0.106,0.035 -0.145,0.053 -0.158,0.058 -0.17,0.066 -0.209,0.081 -0.255,0.103 -0.274,0.106 -0.263,0.105 -0.288,0.116 -0.296,0.121 -0.288,0.119 -0.282,0.121 -0.272,0.119 -0.255,0.114 -0.243,0.112 -0.242,0.116 -0.243,0.12 -0.248,0.124 -0.258,0.131 -0.253,0.13 -0.258,0.134 -0.27,0.142 -0.257,0.135 -0.245,0.132 -0.261,0.144 -0.274,0.152 -0.284,0.156 -0.278,0.153 -0.283,0.156 -0.294,0.16 -0.255,0.136 -0.227,0.126 -0.233,0.126 -0.258,0.143 -0.294,0.155 -0.311,0.162 -0.347,0.172 -0.39,0.189 -0.44,0.203 -0.468,0.213 -0.493,0.219 -0.504,0.223 -0.506,0.222 -0.484,0.212 -0.47,0.206 -0.695,0.308 -0.302,0.138 -0.296,0.136 -0.318,0.146 -0.316,0.14 -0.334,0.144 -0.364,0.144 -0.364,0.134 -0.349,0.115 -0.322,0.101 -0.333,0.094 -0.353,0.086 -0.366,0.075 -0.353,0.061 -0.347,0.046 -0.395,0.044 -0.437,0.029 -0.417,0.015 -0.399,0.003 -0.387,-0.002 -0.367,-0.008 -0.331,-0.008 -0.288,-0.01 -0.277,-0.006 -0.278,-0.009 -0.264,-0.01 -0.251,-0.012 -0.257,-0.013 -0.25,-0.018 -0.235,-0.016 -0.223,-0.02 -0.207,-0.018 -0.197,-0.018 -0.177,-0.016 -0.21,-0.017 -0.262,-0.025 -0.299,-0.038 -0.32,-0.049 -0.332,-0.064 -0.346,-0.078 -0.331,-0.091 -0.306,-0.089 -0.316,-0.099 -0.312,-0.106 -0.318,-0.116 -0.308,-0.121 -0.304,-0.127 -0.308,-0.141 -0.307,-0.154 -0.304,-0.167 -0.292,-0.182 -0.281,-0.191 -0.249,-0.192 -0.211,-0.17 -0.19,-0.166 -0.163,-0.145 -0.165,-0.152 -0.185,-0.171 -0.219,-0.21 -0.23,-0.234 -0.245,-0.262 -0.27,-0.315 -0.276,-0.361 -0.267,-0.399 -0.239,-0.419 -0.195,-0.402 -0.16,-0.386 -0.125,-0.354 -0.102,-0.329 -0.076,-0.284 -0.064,-0.249 -0.064,-0.275 -0.07,-0.337 -0.056,-0.354 -0.041,-0.321 -0.025,-0.261 -0.02,-0.212 -0.017,-0.185 -0.015,-0.148 -0.017,-0.133 -0.03,-0.202 -0.033,-0.242 -0.034,-0.232 -0.033,-0.228 -0.033,-0.214 -0.033,-0.201 -0.032,-0.18 -0.027,-0.142 -0.03,-0.136 -0.033,-0.145 -0.038,-0.15 -0.037,-0.143 -0.037,-0.129 -0.037,-0.127 -0.035,-0.112 -0.029,-0.094 -0.016,-0.046 -0.009,-0.01 -0.078,-0.094 -0.101,-0.118 -0.126,-0.149 -0.14,-0.167 -0.143,-0.173 -0.141,-0.175 -0.131,-0.161 -0.119,-0.145 -0.115,-0.139 -0.103,-0.12 -0.093,-0.104 -0.084,-0.09 -0.096,-0.099 -0.109,-0.11 -0.102,-0.1 -0.086,-0.081 -0.095,-0.085 -0.087,-0.077 -0.076,-0.062 -0.069,-0.056 -0.043,-0.031 -0.038,-0.026 -0.041,-0.027 -0.069,-0.041 -0.107,-0.062 -0.142,-0.08 -0.188,-0.106 -0.196,-0.112 -0.203,-0.113 -0.235,-0.126 -0.286,-0.151 -0.312,-0.165 -0.33,-0.175 -0.331,-0.178 -0.34,-0.191 -0.355,-0.21 -0.315,-0.21 -0.279,-0.194 -0.263,-0.202 -0.229,-0.189 -0.19,-0.168 -0.138,-0.129 -0.088,-0.081 -0.039,-0.035 -0.02,-0.017 -0.047,-0.038 -0.133,-0.105 -0.229,-0.19 -0.295,-0.272 -0.326,-0.35 -0.336,-0.43 -0.298,-0.478 -0.238,-0.47 -0.172,-0.419 -0.123,-0.353 -0.09,-0.294 -0.073,-0.252 -0.061,-0.217 -0.048,-0.171 -0.051,-0.169 -0.074,-0.242 -0.082,-0.277 -0.079,-0.272 -0.075,-0.261 -0.073,-0.249 -0.071,-0.238 -0.064,-0.21 -0.054,-0.169 -0.06,-0.174 -0.066,-0.192 -0.062,-0.17 -0.054,-0.147 -0.105,0.044 -0.408,0.151 -0.444,0.14 -0.394,0.099 -0.326,0.076 -0.337,0.07 -0.355,0.064 -0.37,0.055 -0.362,0.042 -0.386,0.033 -0.437,0.021 -0.459,-0.004 -0.431,-0.025 -0.38,-0.038 -0.33,-0.042 -0.284,-0.042 -0.227,-0.032 -0.174,-0.025 -0.165,-0.019 -0.205,-0.022 -0.23,-0.022 -0.24,-0.023 -0.261,-0.025 -0.265,-0.026 -0.278,-0.029 -0.291,-0.036 -0.278,-0.037 -0.257,-0.039 -0.232,-0.037 -0.226,-0.041 -0.225,-0.043 -0.228,-0.049 -0.217,-0.047 -0.239,-0.055 -0.274,-0.065 -0.306,-0.075 -0.332,-0.081 -0.363,-0.093 -0.375,-0.095 -0.383,-0.1 -0.382,-0.1 -0.37,-0.1 -0.391,-0.107 -0.428,-0.13 -0.394,-0.134 -0.328,-0.116 -0.264,-0.093 -0.2,-0.069 -0.072,-0.022 -0.124,0.014 -0.568,0.068 -0.466,0.037 h -0.641 l -0.759,-0.108 -0.633,-0.194 h -0.308 l -0.33,-0.012 -0.322,-0.01 -0.353,-0.013 -0.375,-0.013 -0.376,-0.016 -0.366,-0.015 -0.361,-0.014 -0.317,-0.013 -0.269,-0.009 -0.273,-0.005 -0.304,-0.004 -0.328,-0.005 -0.355,-0.011 -0.393,-0.017 -0.426,-0.037 -0.446,-0.055 -0.401,-0.073 -0.367,-0.078 -0.38,-0.098 -0.385,-0.116 -0.393,-0.143 -0.376,-0.161 -0.369,-0.182 -0.393,-0.224 -0.429,-0.288 -0.399,-0.324 -0.346,-0.328 -0.31,-0.341 -0.272,-0.347 -0.235,-0.343 -0.201,-0.342 -0.175,-0.34 -0.177,-0.403 -0.165,-0.5 -0.134,-0.63 -0.037,-0.644 0.037,-0.646 0.133,-0.625 0.168,-0.512 0.189,-0.427 0.238,-0.451 0.3,-0.436 0.281,-0.347 0.233,-0.248 0.179,-0.183 0.156,-0.15 0.239,-0.233 0.157,-0.157 0.2,-0.192 0.209,-0.202 0.215,-0.201 0.224,-0.211 0.238,-0.215 0.235,-0.212 0.225,-0.196 0.236,-0.204 0.247,-0.204 0.226,-0.184 0.216,-0.17 0.195,-0.157 0.195,-0.154 0.192,-0.155 0.177,-0.144 0.187,-0.16 0.225,-0.191 0.235,-0.203 0.246,-0.211 0.265,-0.228 0.278,-0.232 0.284,-0.235 0.276,-0.219 0.257,-0.202 0.259,-0.201 0.269,-0.205 0.268,-0.198 0.278,-0.203 0.303,-0.21 0.314,-0.208 0.296,-0.181 0.247,-0.147 0.252,-0.143 0.29,-0.156 0.325,-0.154 0.367,-0.157 0.392,-0.137 0.387,-0.115 0.416,-0.101 0.445,-0.084 0.441,-0.062 0.406,-0.043 0.374,-0.029 0.352,-0.025 0.328,-0.018 0.291,-0.015 0.249,-0.011 0.239,-0.013 0.262,-0.01 0.255,-0.007 h 0.239 0.238 l 0.258,0.007 0.267,0.009 0.271,0.014 0.304,0.015 0.346,0.023 0.356,0.024 0.365,0.027 0.37,0.03 0.367,0.032 0.362,0.036 0.37,0.042 0.375,0.052 0.359,0.066 0.283,0.062 0.195,0.046 0.141,0.031 0.102,0.022 0.07,0.013 0.072,0.011 0.125,0.012 0.204,0.017 0.25,0.017 0.286,0.018 0.335,0.021 0.384,0.029 0.413,0.038 0.443,0.052 0.46,0.064 0.446,0.076 0.411,0.075 0.388,0.071 0.363,0.065 0.342,0.058 0.319,0.046 0.332,0.041 0.794,0.081 0.45,0.041 0.404,0.033 0.378,0.022 0.349,0.013 0.305,0.002 0.261,-0.008 0.255,-0.021 0.254,-0.027 0.223,-0.032 0.203,-0.036 0.204,-0.045 0.229,-0.06 0.263,-0.078 0.304,-0.098 0.313,-0.11 0.305,-0.115 0.303,-0.122 0.306,-0.133 0.33,-0.155 0.372,-0.186 0.43,-0.225 0.47,-0.257 0.506,-0.292 0.568,-0.345 0.635,-0.398 0.683,-0.434 0.723,-0.463 0.762,-0.481 0.791,-0.492 0.812,-0.484 0.83,-0.479 0.854,-0.471 0.848,-0.46 0.835,-0.449 0.809,-0.441 0.772,-0.431 0.722,-0.419 0.671,-0.412 0.655,-0.426 0.659,-0.44 0.638,-0.44 0.613,-0.437 0.586,-0.436 0.561,-0.432 0.533,-0.431 0.486,-0.408 0.45,-0.409 0.453,-0.44 0.457,-0.472 0.448,-0.48 0.429,-0.479 0.406,-0.462 0.374,-0.431 0.328,-0.374 0.184,-0.21 0.071,-0.131 0.201,-0.343 0.217,-0.367 0.249,-0.424 0.273,-0.468 0.285,-0.493 0.287,-0.508 0.285,-0.511 0.262,-0.486 0.24,-0.462 0.234,-0.463 0.23,-0.462 0.217,-0.447 0.204,-0.431 0.191,-0.423 0.184,-0.431 0.177,-0.443 0.169,-0.447 0.165,-0.483 0.171,-0.533 0.17,-0.565 0.166,-0.582 0.162,-0.598 0.16,-0.602 0.152,-0.599 0.141,-0.564 0.124,-0.522 0.112,-0.509 0.106,-0.514 0.103,-0.516 0.099,-0.53 0.104,-0.546 0.109,-0.57 0.074,-0.369 0.178,-1.786 0.013,-0.149 0.004,-0.071 0.002,-0.052 0.001,-0.074 -0.013,-0.349 -0.011,-0.315 -0.012,-0.379 -0.016,-0.429 -0.024,-0.499 -0.032,-0.578 -0.031,-0.636 -0.035,-0.685 -0.029,-0.72 -0.024,-0.747 -0.011,-0.743 -0.007,-0.745 -0.002,-0.777 0.002,-0.81 0.007,-0.826 0.013,-0.838 0.022,-0.837 0.031,-0.827 0.043,-0.797 0.053,-0.77 0.064,-0.754 0.074,-0.738 0.082,-0.711 0.087,-0.692 0.094,-0.676 0.095,-0.659 0.099,-0.632 0.094,-0.601 0.097,-0.582 0.101,-0.568 0.109,-0.568 0.121,-0.581 0.137,-0.605 0.154,-0.644 0.177,-0.688 0.199,-0.761 0.228,-0.824 0.245,-0.864 0.26,-0.885 0.266,-0.892 0.272,-0.877 0.269,-0.847 0.263,-0.792 0.257,-0.746 0.258,-0.722 0.26,-0.697 0.258,-0.664 0.255,-0.643 0.255,-0.619 0.249,-0.596 0.249,-0.579 0.254,-0.581 0.261,-0.561 0.253,-0.526 0.244,-0.485 0.231,-0.459 0.225,-0.442 0.214,-0.423 0.299,-0.602 1.809,-2.98 0.413,-0.681 -1.077,-1.78 -3.704,-6.897 -4.394,-8.678 -2.826,-6.072 L 76.335,91.21 73.559,82.673 71.176,73.968 68.708,61.734 67.566,54.37 66.74,46.093 66.229,36.65 l -0.207,-9.509 0.62,-11.076 1.143,-9.973 1.222,-6.109 z m 139.742,135.259 0.42,-0.268 0.437,-0.283 0.907,-0.583 0.486,-0.302 0.502,-0.307 0.514,-0.298 0.528,-0.297 0.549,-0.296 0.54,-0.283 0.527,-0.27 0.512,-0.26 0.478,-0.239 0.43,-0.215 0.391,-0.196 0.378,-0.189 0.351,-0.166 0.303,-0.141 0.249,-0.111 0.188,-0.087 0.147,-0.07 0.118,-0.058 0.118,-0.064 0.349,-0.203 0.159,-0.097 0.132,-0.082 0.106,-0.071 0.093,-0.066 0.082,-0.063 0.089,-0.073 0.127,-0.111 0.142,-0.126 0.11,-0.105 0.016,-0.096 0.025,-0.193 0.028,-0.202 0.004,-0.039 -0.204,-0.148 -0.24,-0.177 -0.283,-0.221 -0.282,-0.237 -0.23,-0.207 -0.17,-0.155 -0.114,-0.103 -0.072,-0.063 -0.042,-0.033 -0.035,-0.025 -0.036,-0.023 -0.061,-0.035 -0.133,-0.066 -0.21,-0.096 -0.273,-0.12 -0.334,-0.146 -0.384,-0.171 -0.425,-0.199 -0.435,-0.216 -0.424,-0.22 -0.434,-0.228 -0.458,-0.245 -0.469,-0.253 -0.472,-0.261 -0.465,-0.262 -0.447,-0.262 -0.418,-0.255 -0.385,-0.248 -0.35,-0.236 -0.335,-0.239 -0.314,-0.237 -0.3,-0.241 -0.283,-0.242 -0.26,-0.235 -0.242,-0.226 -0.243,-0.237 -0.249,-0.251 -0.255,-0.275 -0.258,-0.295 -0.268,-0.334 -0.274,-0.38 -0.269,-0.431 -0.269,-0.51 -0.24,-0.594 -0.168,-0.605 -0.095,-0.547 -0.041,-0.427 -0.016,-0.33 -0.004,-0.225 -0.004,-0.098 -10e-4,-0.022 -0.009,-0.081 -0.021,-0.173 -0.026,-0.229 -0.028,-0.29 -0.026,-0.356 -0.009,-0.413 0.018,-0.488 0.069,-0.551 0.129,-0.589 0.181,-0.528 0.176,-0.415 0.145,-0.29 0.093,-0.178 0.045,-0.089 0.001,-10e-4 0.02,-0.056 -0.081,-0.045 -0.761,-0.405 -0.349,-0.185 -0.315,-0.166 -0.299,-0.151 -0.309,-0.153 -0.334,-0.157 -0.377,-0.171 -0.446,-0.193 -0.535,-0.227 -0.596,-0.245 -0.644,-0.262 -0.672,-0.266 -0.683,-0.266 -0.674,-0.255 -0.652,-0.238 -0.616,-0.216 -0.591,-0.199 -0.579,-0.186 -0.576,-0.177 -0.576,-0.168 -0.581,-0.163 -0.587,-0.159 -0.59,-0.157 -0.609,-0.155 -0.615,-0.159 -0.593,-0.148 -0.584,-0.142 -0.58,-0.136 -0.575,-0.128 -0.571,-0.118 -0.57,-0.111 -0.577,-0.101 -0.599,-0.097 -0.603,-0.091 -0.604,-0.083 -0.61,-0.075 -0.621,-0.069 -0.624,-0.061 -0.632,-0.054 -0.651,-0.047 -0.671,-0.043 -0.68,-0.034 -0.693,-0.028 -0.702,-0.021 -0.705,-0.013 -0.702,-0.005 h -0.426 l 0.367,1.706 0.064,0.379 0.049,0.265 0.057,0.298 0.064,0.342 0.067,0.377 0.065,0.414 0.058,0.442 0.051,0.49 0.031,0.518 0.018,0.501 0.007,0.479 10e-4,0.453 -10e-4,0.406 0.003,0.356 0.005,0.282 0.011,0.226 0.016,0.21 0.018,0.196 0.014,0.147 0.014,0.102 0.007,0.05 0.006,0.03 0.013,0.048 0.046,0.164 0.047,0.169 0.198,0.242 0.315,0.357 0.4,0.437 0.461,0.495 0.495,0.528 0.517,0.55 0.524,0.563 0.508,0.558 0.492,0.548 0.506,0.565 0.516,0.579 0.518,0.581 0.505,0.569 0.486,0.551 0.449,0.513 0.403,0.462 0.354,0.408 0.33,0.379 0.311,0.359 0.293,0.343 0.276,0.331 0.271,0.334 0.26,0.338 0.284,0.386 0.307,0.479 0.268,0.511 0.185,0.44 0.055,0.06 0.288,0.355 0.254,0.365 0.169,0.267 0.131,0.212 0.139,0.238 0.146,0.258 0.148,0.273 0.166,0.313 0.197,0.377 0.245,0.47 0.314,0.613 0.374,0.745 0.416,0.829 0.873,1.741 0.411,0.817 0.361,0.707 0.289,0.553 0.215,0.4 0.165,0.296 0.119,0.204 0.089,0.145 0.087,0.133 0.101,0.152 0.144,0.217 0.173,0.27 0.166,0.267 0.144,0.234 0.122,0.197 0.107,0.17 0.086,0.134 0.063,0.091 0.046,0.063 0.034,0.042 0.026,0.028 0.033,0.035 0.048,0.045 0.068,0.059 0.089,0.075 0.122,0.098 0.162,0.128 0.181,0.143 0.154,0.122 0.133,0.102 0.129,0.094 0.143,0.104 0.154,0.108 0.182,0.125 0.221,0.147 0.5,0.329 0.34,0.296 0.118,-0.116 0.665,-0.701 0.721,-0.756 0.782,-0.781 0.818,-0.712 0.738,-0.551 0.64,-0.436 0.591,-0.368 0.528,-0.304 0.465,-0.257 0.401,-0.216 0.345,-0.194 0.349,-0.207 z m -39.191,44.688 0.083,-0.057 0.102,-0.077 0.148,-0.126 0.218,-0.201 0.301,-0.304 0.387,-0.41 0.445,-0.489 0.478,-0.533 0.494,-0.561 0.503,-0.575 0.497,-0.571 0.48,-0.546 0.462,-0.526 0.451,-0.506 0.434,-0.493 0.419,-0.476 0.402,-0.467 0.386,-0.457 0.369,-0.457 0.37,-0.473 3.085,-4.05 0.512,-0.61 0.451,-0.536 0.454,-0.541 0.453,-0.539 0.454,-0.539 0.453,-0.534 0.451,-0.533 0.447,-0.517 0.44,-0.512 0.444,-0.51 0.438,-0.503 0.432,-0.49 0.42,-0.476 0.41,-0.466 0.397,-0.454 0.53,-0.603 0.218,-0.201 -0.803,-0.668 -0.904,-0.801 -0.87,-0.872 -0.764,-0.841 -0.733,-0.813 -0.75,-0.842 -0.758,-0.86 -0.766,-0.878 -0.765,-0.887 -0.755,-0.89 -0.735,-0.875 -5.32,-6.407 -0.539,-0.72 -1.538,2.753 -0.163,0.488 -0.296,0.879 -0.297,0.865 -0.289,0.852 -0.279,0.828 -0.258,0.795 -0.235,0.757 -0.211,0.728 -0.195,0.706 -0.18,0.673 -0.159,0.628 -0.142,0.606 -0.131,0.6 -0.119,0.607 -0.111,0.631 -0.101,0.665 -0.092,0.709 -0.079,0.769 -0.072,0.819 -0.062,0.852 -0.055,0.859 -0.05,0.853 -0.048,0.827 -0.044,0.766 -0.037,0.677 -0.025,0.62 -0.02,0.596 -0.014,0.594 -0.016,0.594 -0.015,0.606 -0.021,0.635 -0.028,0.655 -0.192,3.637 -0.115,0.722 -0.078,0.514 -0.08,0.531 -0.083,0.547 -0.084,0.541 -0.086,0.54 -0.093,0.534 -0.092,0.518 -0.093,0.471 -0.087,0.43 -0.089,0.413 -0.091,0.404 -0.096,0.399 -0.099,0.403 -0.106,0.415 -0.117,0.453 -0.134,0.497 -0.142,0.526 -0.152,0.556 -0.161,0.582 -0.071,0.244 0.114,-0.007 0.468,-0.045 0.25,-0.036 0.033,-0.007 0.023,-0.013 0.288,-0.156 0.335,-0.165 0.223,-0.111 0.169,-0.089 0.19,-0.108 0.199,-0.118 0.219,-0.139 0.244,-0.156 0.254,-0.165 0.291,-0.191 0.336,-0.214 0.302,-0.18 0.206,-0.121" /></g></g></g><g
       transform="matrix(1.3647614,0,0,1.3647614,-107.88553,-170.17062)"
       id="g64"><g
         clip-path="url(#clipPath70)"
         id="g66"><g
           transform="translate(315.5114,550.1682)"
           id="g72"><path
             id="path74"
             style="fill:#231f20;fill-opacity:1;fill-rule:evenodd;stroke:none"
             d="m 0,0 c -0.604,1.177 -5.257,11.26 -5.351,11.56 -0.099,0.315 -0.429,1.346 -0.627,1.879 -0.196,0.534 -0.475,0.835 -0.557,1.319 -0.081,0.488 0.026,1.032 0.072,1.531 0.047,0.499 -0.034,0.956 0.206,1.46 0.241,0.506 0.682,0.981 1.183,1.46 0.501,0.48 0.959,0.858 1.807,1.392 0.849,0.533 2.305,1.308 3.269,1.805 0.961,0.5 1.838,0.788 2.502,1.183 0.667,0.398 0.986,0.8 1.461,1.183 0.475,0.382 1.014,0.701 1.391,1.112 0.377,0.41 0.689,0.766 0.833,1.322 0.146,0.554 0.081,1.233 0,1.879 -0.081,0.639 -0.164,1.346 -0.487,1.942 -0.323,0.6 -0.875,1.088 -1.39,1.533 -0.513,0.441 -1.052,0.761 -1.669,1.112 -0.613,0.346 -1.054,0.485 -2.017,0.972 -0.961,0.489 -2.538,1.252 -3.752,1.947 -1.219,0.695 -2.351,1.483 -3.547,2.223 -1.195,0.745 -2.105,1.052 -3.616,2.227 -1.511,1.174 -6.769,4.804 -14,17.764 l -2.684,3.101 c -1.005,1.154 -2.189,2.477 -3.34,3.818 -1.153,1.341 -2.386,2.823 -3.58,4.236 l -3.041,3.993 c -1.077,1.414 -2.247,2.676 -3.46,4.057 -1.213,1.382 -2.819,3.265 -3.817,4.234 -0.999,0.97 -1.423,1.072 -2.148,1.551 -0.726,0.479 -1.456,0.963 -2.207,1.312 -0.748,0.348 -0.841,0.606 -2.266,0.776 -1.424,0.169 -5.043,0.258 -6.202,0.238 -1.159,-0.02 -12.019,3.128 -12.137,2.915 -0.774,0.877 -2.211,2.611 -3.714,3.911 -1.502,1.3 -3.293,2.587 -5.246,3.834 -1.954,1.245 -4.455,2.455 -6.456,3.63 -2.002,1.179 -4.033,2.589 -5.55,3.431 -1.515,0.844 -2.429,1.242 -3.53,1.614 -1.1,0.374 -1.906,0.539 -3.026,0.607 -1.118,0.067 -2.503,-0.085 -3.631,-0.203 -1.129,-0.117 -2.201,-0.386 -3.128,-0.505 -0.927,-0.117 -1.749,-0.118 -2.421,-0.201 -0.673,-0.083 -0.925,-0.217 -1.615,-0.305 -0.69,-0.081 -1.832,-0.166 -2.522,-0.2 -0.69,-0.033 -0.974,-0.033 -1.614,0 -0.638,0.034 -1.607,0.066 -2.219,0.2 -0.614,0.139 -0.87,0.288 -1.414,0.607 -0.542,0.322 -1.193,0.825 -1.816,1.312 -0.62,0.488 -1.328,1.125 -1.916,1.614 -0.589,0.489 -1.092,0.858 -1.614,1.312 -0.523,0.455 -1.126,1.025 -1.512,1.412 -0.387,0.386 -0.663,0.602 -0.807,0.907 -0.144,0.305 -0.144,0.505 0,0.808 0.144,0.304 0.407,0.665 0.807,0.909 0.398,0.244 0.868,0.402 1.512,0.503 0.645,0.102 1.48,0.068 2.32,0.101 0.842,0.035 2.068,0.084 2.725,0.102 0.654,0.015 0.884,-0.052 1.211,0 0.325,0.051 0.241,0.267 0.704,0.302 0.465,0.034 1.284,-0.204 2.019,-0.102 0.734,0.102 1.481,0.471 2.32,0.709 0.841,0.234 2.017,0.535 2.724,0.704 0.707,0.169 0.941,0.219 1.513,0.302 0.573,0.084 1.278,0.136 1.916,0.203 0.64,0.067 1.273,0.218 1.92,0.203 0.644,-0.017 1.288,-0.136 1.915,-0.304 0.627,-0.17 1.274,-0.554 1.816,-0.707 0.542,-0.152 0.972,-0.185 1.413,-0.202 0.438,-0.016 0.869,-0.105 1.21,0.102 0.342,0.208 0.403,0.637 0.606,1.008 0.201,0.371 0.403,0.739 0.604,1.211 0.2,0.472 0.404,1.008 0.606,1.614 0.201,0.606 0.42,1.429 0.604,2.017 0.186,0.589 0.283,1.117 0.505,1.514 0.224,0.399 0.507,0.538 0.809,0.808 0.303,0.27 0.468,0.468 1.006,0.808 0.54,0.335 1.633,0.874 2.221,1.209 0.588,0.336 0.891,0.486 1.312,0.806 0.421,0.322 0.822,0.706 1.209,1.11 0.389,0.406 0.789,0.925 1.11,1.311 0.32,0.389 0.604,0.688 0.807,1.01 0.204,0.321 0.268,0.504 0.403,0.907 0.136,0.404 0.286,0.941 0.404,1.514 0.119,0.572 0.219,1.326 0.302,1.917 0.085,0.589 0.085,1.107 0.202,1.613 0.12,0.508 0.231,0.966 0.505,1.412 0.276,0.449 0.755,0.89 1.111,1.213 0.355,0.32 0.549,0.485 1.007,0.704 0.457,0.222 1.176,0.471 1.718,0.607 0.539,0.136 0.972,0.15 1.511,0.2 0.539,0.052 1.026,0.085 1.716,0.102 0.688,0.018 1.71,0.067 2.421,0 0.71,-0.069 1.122,-0.166 1.817,-0.405 0.692,-0.235 1.327,-0.571 2.32,-1.008 0.991,-0.437 2.672,-1.16 3.63,-1.614 0.96,-0.453 1.394,-0.722 2.12,-1.11 0.724,-0.387 1.479,-0.823 2.219,-1.21 0.739,-0.386 1.447,-0.755 2.219,-1.109 0.773,-0.353 1.732,-0.74 2.421,-1.009 0.689,-0.271 1.141,-0.454 1.714,-0.606 0.576,-0.151 1.293,-0.27 1.718,-0.302 0.421,-0.033 0.484,0.016 0.806,0.102 0.322,0.084 0.7,0.148 1.111,0.403 0.408,0.255 0.855,0.74 1.31,1.109 0.454,0.368 0.903,0.805 1.412,1.11 0.509,0.303 1.074,0.52 1.613,0.706 0.54,0.185 1.056,0.335 1.616,0.403 0.557,0.067 1.121,0.075 1.715,0 0.591,-0.074 1.243,-0.289 1.816,-0.443 0.572,-0.156 1.003,-0.267 1.614,-0.484 0.615,-0.217 1.449,-0.56 2.06,-0.808 0.613,-0.249 1.036,-0.375 1.619,-0.687 0.578,-0.311 1.277,-0.841 1.856,-1.173 0.578,-0.328 1.042,-0.622 1.614,-0.807 0.574,-0.182 0.983,-0.221 1.776,-0.281 0.797,-0.061 2.04,-0.082 2.99,-0.082 0.95,0 1.742,0.075 2.707,0.082 0.962,0.007 2.194,0 3.069,-0.041 0.874,-0.041 1.662,-0.135 2.181,-0.204 0.519,-0.066 0.524,-0.093 0.93,-0.2 0.403,-0.108 0.976,-0.288 1.492,-0.445 0.518,-0.154 0.869,-0.208 1.616,-0.484 0.75,-0.276 2.028,-0.786 2.868,-1.171 0.844,-0.384 1.299,-0.658 2.182,-1.13 0.88,-0.47 2.287,-1.205 3.109,-1.698 0.821,-0.491 1.246,-0.835 1.818,-1.251 0.572,-0.416 0.99,-0.781 1.614,-1.252 0.627,-0.472 1.379,-0.963 2.142,-1.575 0.76,-0.615 1.722,-1.475 2.423,-2.1 0.699,-0.627 1.218,-1.15 1.778,-1.656 0.558,-0.505 1.113,-1.005 1.575,-1.374 0.457,-0.37 0.628,-0.544 1.169,-0.847 0.542,-0.305 1.468,-0.714 2.061,-0.97 0.594,-0.255 0,-0.437 1.496,-0.565 1.492,-0.13 5.98,-0.149 7.387,-0.203 1.409,-0.051 0.544,0.029 1.052,-0.122 0.509,-0.146 1.367,-0.53 1.979,-0.765 0.614,-0.238 1.131,-0.32 1.696,-0.646 0.566,-0.328 0.692,-0.682 1.656,-1.293 0.964,-0.614 3.253,-1.939 4.121,-2.384 0.866,-0.446 0.713,-0.248 1.05,-0.281 0.334,-0.035 0.609,-0.002 0.927,0.079 0.321,0.082 0.629,0.276 0.971,0.407 0.344,0.125 0.752,0.226 1.089,0.362 0.338,0.135 0.533,0.275 0.928,0.444 0.399,0.168 0.933,0.448 1.455,0.564 0.523,0.115 1.145,0.088 1.656,0.122 0.512,0.032 0.928,0.1 1.414,0.081 0.486,-0.018 0.996,-0.115 1.494,-0.203 0.499,-0.087 1.008,-0.182 1.497,-0.324 0.484,-0.141 0.924,-0.287 1.413,-0.523 0.485,-0.238 1.002,-0.567 1.494,-0.889 0.491,-0.323 1.057,-0.732 1.453,-1.05 0.398,-0.317 0.534,-0.458 0.928,-0.849 0.399,-0.39 1.079,-1.109 1.455,-1.493 0.377,-0.386 0.398,-0.423 0.806,-0.807 0.412,-0.385 1.166,-1.065 1.656,-1.494 0.492,-0.433 0.831,-0.806 1.293,-1.091 0.463,-0.286 1.07,-0.424 1.455,-0.606 0.384,-0.181 0.506,-0.377 0.847,-0.486 0.342,-0.109 0.431,-0.128 1.171,-0.16 0.742,-0.034 2.509,-0.061 3.271,-0.042 0.765,0.021 0.794,0.169 1.295,0.163 0.502,-0.009 1.147,-0.081 1.695,-0.203 0.547,-0.121 1.132,-0.299 1.574,-0.525 0.445,-0.225 0.752,-0.509 1.051,-0.807 0.299,-0.299 0.53,-0.609 0.726,-0.97 0.199,-0.36 0.329,-0.71 0.445,-1.171 0.115,-0.461 0.129,-0.888 0.243,-1.575 0.114,-0.687 0.349,-1.728 0.443,-2.543 0.093,-0.816 0.062,-1.402 0.122,-2.344 0.06,-0.941 0.177,-2.364 0.241,-3.31 0.068,-0.952 0.137,-1.698 0.163,-2.383 0.026,-0.688 0.019,-1.226 0,-1.737 -0.021,-0.513 -0.068,-0.95 -0.119,-1.333 -0.056,-0.385 -0.116,-0.619 -0.205,-0.97 -0.088,-0.352 -0.179,-0.778 -0.323,-1.13 -0.14,-0.352 -0.343,-0.654 -0.525,-0.97 -0.18,-0.317 -0.268,-0.511 -0.564,-0.929 -0.298,-0.418 -0.868,-1.083 -1.214,-1.575 -0.343,-0.49 -0.528,-0.842 -0.845,-1.373 -0.318,-0.532 -0.802,-1.277 -1.053,-1.819 -0.249,-0.54 -0.457,-0.918 -0.441,-1.413 L 59.52,70.014 59.803,68.6 c 0.134,-0.392 0.249,-0.755 0.404,-1.171 0.154,-0.419 0.288,-0.868 0.525,-1.335 0.235,-0.464 0.604,-0.981 0.888,-1.453 0.285,-0.471 0.497,-0.882 0.807,-1.371 0.312,-0.493 0.66,-0.958 1.051,-1.577 0.39,-0.619 0.995,-1.643 1.292,-2.14 0.296,-0.501 0.387,-0.475 0.486,-0.849 0.094,-0.373 0.031,-0.915 0.08,-1.332 0.048,-0.418 0.113,-0.7 0.201,-1.174 0.088,-0.47 0.196,-1.129 0.323,-1.652 0.128,-0.527 0.261,-1.037 0.445,-1.496 0.182,-0.46 0.538,-1.043 0.648,-1.252 0.107,-0.207 0.968,-1.534 1.008,-1.738 0.04,-0.201 0.558,-0.78 0.848,-1.33 0.29,-0.553 1.287,-2.335 1.736,-3.313 0.453,-0.977 0.755,-1.822 0.969,-2.544 0.217,-0.724 0.196,-1.217 0.325,-1.778 0.127,-0.559 0.302,-1.11 0.443,-1.574 0.143,-0.466 0.207,-0.798 0.403,-1.212 0.198,-0.413 0.377,-0.732 0.767,-1.253 0.392,-0.518 1.091,-1.332 1.576,-1.857 0.485,-0.525 0.881,-0.863 1.332,-1.292 0.452,-0.432 0.951,-0.896 1.374,-1.292 0.425,-0.399 0.798,-0.449 1.171,-1.093 0.373,-0.64 0.693,-1.903 1.011,-2.665 0.317,-0.76 0.505,-1.117 0.888,-1.896 0.384,-0.783 1.084,-2.031 1.414,-2.786 0.329,-0.758 0.471,-1.219 0.564,-1.74 0.096,-0.514 0.055,-0.967 0,-1.332 -0.053,-0.364 -0.124,-0.501 -0.323,-0.807 -0.196,-0.306 -0.519,-0.718 -0.848,-1.009 -0.325,-0.293 -0.819,-0.498 -1.089,-0.727 -0.272,-0.232 -0.376,-0.375 -0.528,-0.646 -0.146,-0.274 -0.299,-0.119 -0.361,-0.97 -0.061,-0.85 -0.068,-2.971 0,-4.08 0.067,-1.106 0.248,-1.867 0.403,-2.545 C 80.192,9.645 80.427,9.25 80.561,8.828 80.695,8.4 80.5,8.294 80.845,7.777 81.188,7.26 82.169,6.323 82.581,5.798 c 0.412,-0.527 0.536,-0.772 0.727,-1.172 0.189,-0.399 0.303,-0.801 0.403,-1.212 0.102,-0.412 0.168,-0.725 0.203,-1.252 0.033,-0.527 0.054,-1.42 0,-1.897 -0.055,-0.479 -0.196,-0.582 -0.325,-0.93 -0.125,-0.346 -0.33,-0.636 -0.437,-1.147 -0.108,-0.511 -0.181,-1.168 -0.205,-1.889 -0.028,-0.72 0.019,-1.686 0.038,-2.423 0.021,-0.74 -0.014,-1.331 0.084,-2.011 0.097,-0.683 0.28,-1.443 0.493,-2.053 0.213,-0.613 0.478,-0.724 0.781,-1.602 0.301,-0.882 0.834,-2.693 1.025,-3.657 0.193,-0.964 0.028,-1.488 0.124,-2.095 0.096,-0.604 0.289,-0.962 0.453,-1.519 0.163,-0.555 0.268,-1.29 0.532,-1.806 0.266,-0.517 0.611,-0.88 1.028,-1.234 0.415,-0.353 0.811,-0.579 1.437,-0.862 0.625,-0.283 1.648,-0.608 2.3,-0.82 0.65,-0.212 1.05,-0.224 1.601,-0.452 0.552,-0.227 1.221,-0.565 1.685,-0.903 0.462,-0.341 0.684,-0.678 1.065,-1.109 0.387,-0.433 0.887,-0.913 1.233,-1.48 0.346,-0.566 0.635,-1.245 0.823,-1.889 0.185,-0.642 0.211,-1.32 0.288,-1.929 0.074,-0.61 0.157,-1.121 0.163,-1.725 0.006,-0.604 -0.019,-1.304 -0.122,-1.889 -0.105,-0.586 -0.293,-1.172 -0.492,-1.604 -0.204,-0.429 -0.413,-0.56 -0.7,-0.943 -0.289,-0.383 -0.586,-0.88 -1.026,-1.356 -0.441,-0.473 -1.08,-1.059 -1.603,-1.478 -0.521,-0.417 -0.928,-0.711 -1.519,-1.026 -0.592,-0.317 -1.441,-0.677 -2.014,-0.863 -0.569,-0.186 -0.8,-0.158 -1.394,-0.248 -0.597,-0.088 -1.511,-0.245 -2.177,-0.287 -0.666,-0.041 -1.014,0 -1.806,0.042 -0.796,0.042 -2.095,0.144 -2.959,0.206 -0.861,0.061 -1.57,0.067 -2.216,0.164 -0.647,0.096 -1.002,0.233 -1.645,0.409 -0.642,0.181 -1.277,0.294 -2.217,0.66 -0.938,0.364 -2.202,0.895 -3.408,1.517 -1.208,0.626 -2.695,1.5 -3.819,2.219 -1.125,0.719 -1.991,1.361 -2.917,2.095 -0.925,0.733 -1.901,1.689 -2.628,2.3 -0.727,0.608 -1.046,0.921 -1.725,1.354 -0.68,0.433 -1.519,0.822 -2.341,1.234 -0.823,0.409 -1.674,0.874 -2.587,1.229 -0.912,0.358 -2.204,0.72 -2.876,0.905 -0.671,0.186 -0.674,0.179 -1.15,0.206 -0.474,0.028 -1.057,0.033 -1.682,-0.043 -0.627,-0.074 -1.462,-0.22 -2.053,-0.408 -0.594,-0.186 -0.994,-0.433 -1.48,-0.7 -0.487,-0.266 -1.057,-0.578 -1.436,-0.903 -0.382,-0.326 -0.4,-0.685 -0.823,-1.027 -0.425,-0.341 -1.01,-0.682 -1.684,-0.986 -0.673,-0.302 -1.758,-0.649 -2.339,-0.82 -0.586,-0.172 -0.86,-0.033 -1.153,-0.203 -0.29,-0.176 -0.285,-0.434 -0.448,-0.742 -0.167,-0.308 -0.391,-0.71 -0.537,-1.11 -0.142,-0.4 -0.252,-0.556 -0.328,-1.271 -0.076,-0.716 -0.201,-2.336 -0.123,-3 0.079,-0.662 0.296,-0.606 0.575,-0.821 0.279,-0.214 0.451,-0.233 1.026,-0.41 0.575,-0.177 1.561,-0.294 2.423,-0.657 0.862,-0.365 1.988,-0.949 2.711,-1.52 0.724,-0.569 1.194,-1.303 1.561,-1.85 0.365,-0.544 0.438,-0.795 0.616,-1.393 0.178,-0.602 0.383,-1.392 0.451,-2.177 0.071,-0.788 0,-1.85 -0.039,-2.507 -0.043,-0.657 -0.069,-0.867 -0.206,-1.435 -0.137,-0.571 -0.506,-1.386 -0.618,-1.973 -0.11,-0.586 -0.059,-1.032 -0.039,-1.52 0.019,-0.485 0.07,-0.841 0.163,-1.396 0.097,-0.554 0.335,-1.353 0.411,-1.93 0.076,-0.578 0.143,-1.046 0.042,-1.518 -0.101,-0.473 -0.384,-0.815 -0.616,-1.234 -0.233,-0.416 -0.386,-0.83 -0.781,-1.274 -0.394,-0.44 -1.038,-0.981 -1.56,-1.353 -0.523,-0.371 -0.988,-0.576 -1.559,-0.864 -0.577,-0.288 -1.247,-0.676 -1.891,-0.86 -0.645,-0.189 -1.239,-0.214 -1.932,-0.249 -0.692,-0.034 -1.449,-0.09 -2.216,0.042 -0.769,0.132 -1.697,0.39 -2.342,0.74 -0.642,0.349 -1.066,0.804 -1.438,1.315 -0.369,0.509 -0.63,1.179 -0.739,1.683 -0.106,0.502 0.08,0.846 0.115,1.245 0.038,0.402 0.059,0.749 0.101,1.159 0.042,0.412 0.118,0.941 0.152,1.312 0.032,0.369 0.136,0.57 0.052,0.907 -0.089,0.34 -0.339,0.665 -0.556,1.06 -0.22,0.395 -0.471,0.84 -0.755,1.313 -0.288,0.469 -0.731,1.038 -0.961,1.511 -0.228,0.475 -0.327,0.828 -0.402,1.312 -0.077,0.484 -0.027,1.026 -0.053,1.565 -0.024,0.537 -0.04,1.264 -0.098,1.664 -0.06,0.398 -0.074,0.424 -0.253,0.704 -0.178,0.284 -0.075,0.245 -0.806,0.959 -0.734,0.717 -2.672,2.351 -3.584,3.332 -0.91,0.976 -1.233,1.431 -1.866,2.521 -0.632,1.09 -1.334,2.595 -1.917,3.984 -0.581,1.388 -1.018,2.674 -1.562,4.338 -0.547,1.665 -1.321,4.364 -1.715,5.649 -0.397,1.286 -0.261,1.166 -0.657,2.068 -0.397,0.902 -1.235,2.413 -1.714,3.331 -0.48,0.915 -0.496,1.107 -1.162,2.168 -0.664,1.061 -2.169,3.221 -2.825,4.188 -0.655,0.964 -0.477,0.806 -1.106,1.612 -0.633,0.808 -1.886,2.296 -2.678,3.23 -0.786,0.931 -1.435,1.695 -2.067,2.369 -0.63,0.673 -1.235,1.153 -1.715,1.664 C 4.165,-7.12 3.906,-6.784 3.486,-6.22 3.065,-5.656 2.735,-5.282 2.123,-4.252 1.518,-3.23 0.845,-1.645 0,0" /></g></g></g><g
       transform="matrix(1.3647614,0,0,1.3647614,-107.88553,-170.17062)"
       id="g76"><g
         clip-path="url(#clipPath82)"
         id="g78"><g
           transform="translate(171.5754,445.699)"
           id="g84"><path
             id="path86"
             style="fill:#231f20;fill-opacity:1;fill-rule:evenodd;stroke:none"
             d="m 0,0 v -10.14 -3.596 h 258.574 v 6.65 7.02" /></g></g></g><g
       transform="matrix(1.3647614,0,0,1.3647614,-107.88553,-170.17062)"
       id="g88"><g
         clip-path="url(#clipPath94)"
         id="g90"><g
           transform="translate(182.6637,427.4821)"
           id="g96"><path
             id="path98"
             style="fill:#231f20;fill-opacity:1;fill-rule:evenodd;stroke:none"
             d="m 0,0 h 236.399 c -2.188,-2.465 -3.521,-5.719 -3.521,-9.277 0,-3.557 1.333,-6.812 3.521,-9.277 H 0 c 2.189,2.465 3.522,5.72 3.522,9.277 C 3.522,-5.719 2.189,-2.465 0,0" /></g></g></g><g
       transform="matrix(1.3647614,0,0,1.3647614,-107.88553,-170.17062)"
       id="g100"><g
         clip-path="url(#clipPath106)"
         id="g102"><g
           transform="translate(177.1279,340.1881)"
           id="g108"><path
             id="path110"
             style="fill:#231f20;fill-opacity:1;fill-rule:evenodd;stroke:none"
             d="m 0,0 c -8.274,8.219 -13.409,19.597 -13.409,32.137 0,12.54 5.135,23.918 13.409,32.137 H 247.471 C 255.743,56.055 260.88,44.677 260.88,32.137 260.88,19.597 255.743,8.219 247.471,0" /></g></g></g><g
       transform="matrix(1.3647614,0,0,1.3647614,-107.88553,-170.17062)"
       id="g112"><g
         clip-path="url(#clipPath118)"
         id="g114"><g
           transform="translate(163.2504,308.0767)"
           id="g120"><path
             id="path122"
             style="fill:#231f20;fill-opacity:1;fill-rule:evenodd;stroke:none"
             d="m 0,0 h 275.225 v 18.349 c -5.052,0 -9.173,4.123 -9.173,9.177 H 9.177 c 0,-5.054 -4.122,-9.177 -9.176,-9.177 0,0 0,0 -0.001,0" /></g></g></g><g
       transform="matrix(1.3647614,0,0,1.3647614,-107.88553,-170.17062)"
       id="g124"><g
         clip-path="url(#clipPath130)"
         id="g126"><g
           transform="translate(240.5529,449.9113)"
           id="g132"><path
             id="path134"
             style="fill:#231f20;fill-opacity:1;fill-rule:evenodd;stroke:none"
             d="m 0,0 -1.356,6.775 -1.109,9.683 -0.604,10.794 0.201,9.282 0.502,9.282 0.807,8.072 1.11,7.161 2.422,12.004 2.32,8.475 2.722,8.371 3.734,10.192 2.724,5.851 4.34,8.573 3.631,6.759 2.321,3.837 -1.716,2.821 -1.716,2.827 c -0.604,1.243 -1.193,2.285 -1.814,3.732 -0.624,1.448 -1.277,3.042 -1.917,4.944 -0.641,1.898 -1.447,4.638 -1.918,6.456 -0.471,1.816 -0.655,2.824 -0.907,4.438 -0.253,1.616 -0.488,3.344 -0.605,5.245 -0.118,1.903 -0.118,4.305 -0.102,6.155 0.017,1.85 0.167,3.801 0.2,4.944 0.036,1.142 0.067,1.28 0,1.916 l -0.2,2.018 c -0.302,1.478 -0.521,2.873 -0.908,4.438 -0.386,1.565 -0.873,3.443 -1.413,4.946 -0.539,1.499 -1.141,2.703 -1.816,4.032 -0.053,0.104 -0.11,0.209 -0.166,0.317 l 0.578,-0.152 1.067,-0.28 1.082,-0.286 1.077,-0.28 1.036,-0.266 0.969,-0.24 0.884,-0.212 0.798,-0.174 0.77,-0.142 0.706,-0.066 0.714,0.001 0.24,-0.002 c 0.358,-1.103 0.751,-2.579 1.027,-3.616 0.317,-1.203 0.485,-1.898 0.713,-3.101 0.23,-1.204 0.439,-2.744 0.657,-4.116 l 0.179,-3.4 c 0.087,-1.671 0.06,-3.041 0.178,-5.01 0.121,-1.969 0.24,-4.718 0.536,-6.799 0.301,-2.083 0.679,-3.596 1.254,-5.666 0.578,-2.071 1.474,-4.493 2.205,-6.739 l 4.833,-8.65 4.294,5.728 5.249,6.32 c 1.891,2.277 4.035,4.704 5.845,6.682 0.562,0.614 1.377,1.208 2.197,1.781 l 0.583,-1.019 1.339,-2.203 1.29,-2.008 1.243,-1.82 1.191,-1.646 1.138,-1.477 1.08,-1.319 0.153,-0.176 c -0.636,-0.42 -0.979,-0.67 -1.423,-1.022 -0.498,-0.393 -0.912,-0.701 -1.32,-1.18 -0.41,-0.481 -0.719,-1.043 -1.115,-1.671 -0.392,-0.624 -0.529,-0.727 -1.249,-2.085 -0.72,-1.357 -2.364,-4.704 -3.06,-6.048 -0.696,-1.344 -0.798,-1.526 -1.113,-2.017 -0.314,-0.487 -0.542,-0.541 -0.763,-0.902 -0.223,-0.364 -0.114,-0.62 -0.558,-1.252 -0.444,-0.63 -1.1,-1.369 -2.086,-2.504 -0.985,-1.135 -2.584,-2.931 -3.823,-4.31 -1.24,-1.38 -2.882,-3.028 -3.616,-3.962 -0.736,-0.936 -0.589,-1.027 -0.765,-1.599 -0.175,-0.574 -0.219,-0.985 -0.279,-1.809 -0.056,-0.825 0.012,-2.175 -0.07,-3.128 -0.08,-0.953 -0.278,-1.717 -0.415,-2.573 l -0.765,-3.545 -0.975,-2.851 1.114,-0.139 3.267,-0.07 c 1.97,-0.042 4.032,0.013 5.912,0.139 1.876,0.127 3.624,0.336 5.354,0.625 1.728,0.293 3.334,0.684 5.005,1.115 1.667,0.425 3.277,0.866 5.004,1.46 1.728,0.591 3.939,1.481 5.355,2.083 1.414,0.604 2.05,0.962 3.129,1.532 0.035,0.019 0.069,0.037 0.105,0.056 l 0.133,-0.264 0.429,-0.858 0.472,-0.946 0.494,-1.002 0.501,-1.027 0.487,-1.02 0.454,-0.976 0.403,-0.902 0.329,-0.769 0.084,-0.218 0.586,-1.517 0.32,-0.571 c -0.971,-0.516 -2.123,-1.11 -3.209,-1.6 -1.441,-0.649 -2.876,-1.218 -4.543,-1.816 -1.663,-0.597 -3.73,-1.25 -5.447,-1.766 -1.716,-0.511 -3.118,-0.924 -4.841,-1.312 -1.725,-0.386 -3.824,-0.772 -5.499,-1.005 -1.674,-0.239 -2.696,-0.306 -4.541,-0.405 -1.84,-0.102 -4.341,-0.35 -6.506,-0.204 l -3.732,0.255 -3.632,0.299 -2.016,0.254 -2.272,-3.179 -1.816,-4.639 -0.703,-2.874 -0.205,-2.624 -0.05,-2.371 0.203,-2.825 0.302,-2.119 0.251,-2.067 0.707,-2.825 0.303,-3.48 -0.051,-3.026 -0.203,-2.674 -0.603,-2.976 -1.01,-3.936 -1.261,-5.647 -0.555,-3.13 -0.052,-2.369 -0.051,-2.471 0.608,-3.937 0.958,-4.235 1.363,-3.833 2.27,-4.792 5.598,-9.13 L 34.558,4.706 38.749,0" /></g></g></g></g></svg>