<?xml version="1.0" encoding="UTF-8" ?>
<!DOCTYPE svg PUBLIC "-//W3C//DTD SVG 1.1//EN" "http://www.w3.org/Graphics/SVG/1.1/DTD/svg11.dtd">
<svg width="400pt" height="478pt" viewBox="0 0 400 478" version="1.1" xmlns="http://www.w3.org/2000/svg">
<g id="#686d83ff">
<path fill="#686d83" opacity="1.00" d=" M 0.00 0.00 L 0.96 0.00 C 1.00 78.67 0.95 157.33 0.99 236.00 C 0.97 239.37 0.64 242.73 0.27 246.08 L 0.00 244.87 L 0.00 0.00 Z" />
</g>
<g id="#353537ff">
<path fill="#353537" opacity="1.00" d=" M 0.96 0.00 L 398.71 0.00 L 398.65 0.75 L 398.55 1.53 C 361.70 1.09 324.85 1.46 288.00 1.34 C 192.75 1.35 97.51 1.32 2.27 1.35 C 2.27 74.23 2.26 147.12 2.26 220.00 C 2.32 229.88 2.08 239.77 2.53 249.65 C 2.11 250.29 1.26 251.59 0.83 252.24 C 0.70 250.18 0.52 248.12 0.27 246.08 C 0.64 242.73 0.97 239.37 0.99 236.00 C 0.95 157.33 1.00 78.67 0.96 0.00 Z" />
<path fill="#353537" opacity="1.00" d=" M 5.48 7.94 C 5.65 6.75 5.01 4.04 7.07 4.37 C 136.43 4.32 265.79 4.35 395.15 4.36 C 395.32 74.24 395.38 144.12 395.53 214.00 C 395.44 232.62 396.29 251.34 393.72 269.86 C 388.26 314.81 368.34 357.59 338.44 391.49 C 314.42 418.92 284.48 441.15 251.29 456.24 C 235.27 463.32 218.44 469.11 201.00 471.26 C 187.56 469.30 174.56 464.86 161.86 460.11 C 130.60 447.95 101.63 429.81 77.21 406.79 C 51.44 382.48 31.14 352.25 19.25 318.83 C 9.49 291.71 5.18 262.78 5.51 234.00 C 5.49 158.65 5.55 83.29 5.48 7.94 M 7.17 6.07 C 7.18 77.72 7.17 149.36 7.18 221.00 C 7.22 234.20 6.86 247.44 8.24 260.59 C 11.38 296.61 22.93 332.00 42.54 362.44 C 61.39 391.90 87.21 416.63 116.67 435.35 C 140.83 450.66 167.44 462.29 195.37 468.66 C 197.86 469.20 200.42 469.89 202.99 469.39 C 218.47 466.97 233.51 462.13 247.86 455.91 C 278.98 442.29 307.25 422.24 330.60 397.59 C 363.20 363.52 385.42 319.33 391.70 272.48 C 394.57 253.78 393.75 234.83 393.83 216.00 C 393.74 146.02 393.55 76.05 393.46 6.07 C 264.70 5.82 135.92 5.88 7.17 6.07 Z" />
<path fill="#353537" opacity="1.00" d=" M 208.20 39.48 C 211.93 41.33 215.60 44.09 217.00 48.18 C 218.14 51.37 216.90 54.69 215.75 57.69 C 214.92 53.72 215.27 48.99 212.07 45.97 C 210.20 44.19 208.70 42.06 208.20 39.48 Z" />
<path fill="#353537" opacity="1.00" d=" M 228.48 75.31 C 231.14 83.53 229.35 93.05 223.40 99.41 C 219.26 104.16 212.93 106.49 206.69 105.99 C 210.03 104.99 213.57 104.39 216.63 102.62 C 222.20 99.42 226.16 93.74 227.54 87.49 C 228.52 83.50 228.08 79.36 228.48 75.31 Z" />
<path fill="#353537" opacity="1.00" d=" M 142.46 107.12 C 144.72 105.54 148.27 104.10 150.35 106.75 C 152.08 109.13 149.17 110.93 147.61 112.31 C 147.50 110.74 147.37 109.18 147.25 107.62 C 145.65 107.44 144.06 107.27 142.46 107.12 Z" />
<path fill="#353537" opacity="1.00" d=" M 163.90 104.56 C 165.98 105.59 168.71 106.48 169.25 109.07 C 170.09 113.33 167.18 117.23 164.07 119.80 C 165.38 116.65 168.08 113.71 167.46 110.07 C 166.81 107.94 165.10 106.38 163.90 104.56 Z" />
<path fill="#353537" opacity="1.00" d=" M 77.45 166.88 C 78.87 167.99 80.14 169.30 81.61 170.35 C 83.61 170.93 85.72 170.79 87.76 171.15 C 83.94 174.15 77.95 171.76 77.45 166.88 Z" />
<path fill="#353537" opacity="1.00" d=" M 205.68 200.65 C 208.66 197.67 210.79 193.88 214.11 191.26 C 212.85 195.34 210.12 199.65 205.68 200.65 Z" />
<path fill="#353537" opacity="1.00" d=" M 209.40 206.41 C 211.60 202.84 213.73 199.13 216.58 196.02 C 215.87 200.31 213.45 204.52 209.40 206.41 Z" />
<path fill="#353537" opacity="1.00" d=" M 212.91 211.70 C 215.02 208.04 216.63 204.08 219.08 200.62 C 218.84 204.96 217.00 209.66 212.91 211.70 Z" />
<path fill="#353537" opacity="1.00" d=" M 79.76 238.87 C 79.81 233.25 86.82 229.65 91.39 232.95 C 89.17 233.38 86.84 233.18 84.68 233.91 C 82.66 235.13 81.50 237.32 79.76 238.87 Z" />
<path fill="#353537" opacity="1.00" d=" M 161.75 254.61 C 165.86 253.83 168.09 249.81 171.51 247.76 C 169.39 253.32 163.18 257.74 157.12 256.00 C 152.52 254.64 148.16 252.51 143.42 251.62 C 139.54 250.56 135.33 250.77 131.68 248.94 C 137.16 248.06 142.61 249.85 147.88 251.15 C 152.51 252.24 156.81 255.44 161.75 254.61 Z" />
<path fill="#353537" opacity="1.00" d=" M 324.86 265.01 C 325.63 261.66 325.08 257.94 327.03 254.94 C 327.69 260.09 326.58 265.25 325.37 270.23 C 324.34 273.61 323.57 277.42 320.65 279.75 C 321.84 274.77 324.24 270.13 324.86 265.01 Z" />
<path fill="#353537" opacity="1.00" d=" M 312.28 293.29 C 314.91 290.29 316.08 286.25 319.09 283.54 C 317.04 291.36 311.26 299.01 303.28 301.36 C 305.92 298.27 309.80 296.54 312.28 293.29 Z" />
<path fill="#353537" opacity="1.00" d=" M 311.57 358.05 C 309.90 352.67 305.52 347.59 306.65 341.69 C 308.70 346.27 309.96 351.17 312.38 355.60 C 314.44 358.98 311.68 362.90 308.86 364.83 C 305.44 366.97 301.61 368.51 297.65 369.27 C 301.81 364.94 310.53 365.17 311.57 358.05 Z" />
</g>
<g id="#48526eff">
<path fill="#48526e" opacity="1.00" d=" M 398.71 0.00 L 400.00 0.00 L 400.00 106.15 L 399.95 107.17 C 399.57 102.13 399.17 97.07 399.25 92.01 C 399.36 72.34 399.02 52.67 399.00 33.00 C 398.90 22.25 399.27 11.49 398.65 0.75 L 398.71 0.00 Z" />
</g>
<g id="#ffd32eff">
<path fill="#ffd32e" opacity="1.00" d=" M 2.27 1.35 C 97.51 1.32 192.75 1.35 288.00 1.34 C 324.85 1.46 361.70 1.09 398.55 1.53 C 398.22 3.99 398.25 6.49 398.19 8.97 C 398.40 56.09 398.33 103.20 398.52 150.32 C 398.35 181.89 398.64 213.46 398.55 245.04 C 398.01 291.11 383.13 336.86 356.36 374.37 C 335.77 403.47 308.87 427.97 278.38 446.36 C 256.30 459.65 232.18 469.94 206.79 474.78 C 203.29 475.51 199.64 475.74 196.14 474.86 C 166.45 468.21 138.17 455.80 112.63 439.33 C 85.34 421.71 61.17 399.05 42.74 372.23 C 17.78 336.38 4.39 293.15 2.53 249.65 C 2.08 239.77 2.32 229.88 2.26 220.00 C 2.26 147.12 2.27 74.23 2.27 1.35 M 5.48 7.94 C 5.55 83.29 5.49 158.65 5.51 234.00 C 5.18 262.78 9.49 291.71 19.25 318.83 C 31.14 352.25 51.44 382.48 77.21 406.79 C 101.63 429.81 130.60 447.95 161.86 460.11 C 174.56 464.86 187.56 469.30 201.00 471.26 C 218.44 469.11 235.27 463.32 251.29 456.24 C 284.48 441.15 314.42 418.92 338.44 391.49 C 368.34 357.59 388.26 314.81 393.72 269.86 C 396.29 251.34 395.44 232.62 395.53 214.00 C 395.38 144.12 395.32 74.24 395.15 4.36 C 265.79 4.35 136.43 4.32 7.07 4.37 C 5.01 4.04 5.65 6.75 5.48 7.94 Z" />
</g>
<g id="#323633ff">
<path fill="#323633" opacity="1.00" d=" M 398.55 1.53 L 398.65 0.75 C 399.27 11.49 398.90 22.25 399.00 33.00 C 399.02 52.67 399.36 72.34 399.25 92.01 C 399.17 97.07 399.57 102.13 399.95 107.17 C 398.47 121.53 400.69 136.01 398.52 150.32 C 398.33 103.20 398.40 56.09 398.19 8.97 C 398.25 6.49 398.22 3.99 398.55 1.53 Z" />
<path fill="#323633" opacity="1.00" d=" M 11.70 10.13 C 137.37 10.15 263.04 10.15 388.71 10.13 C 388.75 54.09 388.86 98.04 388.89 142.00 C 389.29 165.66 389.06 189.33 389.17 213.00 C 389.07 229.92 389.81 246.90 387.89 263.75 C 384.83 293.54 375.52 322.66 360.70 348.68 C 342.03 381.62 315.03 409.59 283.55 430.51 C 260.99 445.40 236.02 457.15 209.46 462.68 C 205.19 463.54 200.74 464.51 196.42 463.37 C 167.09 456.84 139.24 444.31 114.24 427.72 C 82.13 406.34 54.77 377.38 36.93 343.05 C 19.79 310.53 11.77 273.64 11.70 237.00 C 11.70 161.37 11.69 85.75 11.70 10.13 M 16.02 14.09 C 15.81 87.72 15.98 161.36 15.92 235.00 C 15.70 255.74 18.15 276.53 23.40 296.60 C 24.89 302.24 26.38 307.91 28.90 313.20 C 30.61 319.66 33.49 325.73 36.16 331.84 C 50.93 364.10 74.15 392.19 102.11 413.90 C 129.08 434.83 160.35 450.38 193.55 458.48 C 197.27 459.44 201.16 460.10 204.99 459.34 C 224.97 455.88 244.09 448.41 261.96 438.92 C 295.73 420.78 325.31 394.71 347.12 363.14 C 366.95 334.37 379.82 300.76 383.77 266.01 C 384.57 256.36 385.67 246.70 385.45 237.00 C 385.39 203.33 385.32 169.66 385.29 135.98 C 385.27 133.44 385.11 130.91 384.83 128.39 C 385.34 123.95 385.36 119.47 385.30 115.00 C 385.02 81.37 385.44 47.73 384.89 14.11 C 350.93 13.71 316.96 14.05 283.00 13.94 C 196.66 13.93 110.33 13.95 24.00 13.93 C 21.34 13.94 18.68 14.01 16.02 14.09 Z" />
</g>
<g id="#fdfefbff">
<path fill="#fdfefb" opacity="1.00" d=" M 7.17 6.07 C 135.92 5.88 264.70 5.82 393.46 6.07 C 393.55 76.05 393.74 146.02 393.83 216.00 C 393.75 234.83 394.57 253.78 391.70 272.48 C 385.42 319.33 363.20 363.52 330.60 397.59 C 307.25 422.24 278.98 442.29 247.86 455.91 C 233.51 462.13 218.47 466.97 202.99 469.39 C 200.42 469.89 197.86 469.20 195.37 468.66 C 167.44 462.29 140.83 450.66 116.67 435.35 C 87.21 416.63 61.39 391.90 42.54 362.44 C 22.93 332.00 11.38 296.61 8.24 260.59 C 6.86 247.44 7.22 234.20 7.18 221.00 C 7.17 149.36 7.18 77.72 7.17 6.07 M 11.70 10.13 C 11.69 85.75 11.70 161.37 11.70 237.00 C 11.77 273.64 19.79 310.53 36.93 343.05 C 54.77 377.38 82.13 406.34 114.24 427.72 C 139.24 444.31 167.09 456.84 196.42 463.37 C 200.74 464.51 205.19 463.54 209.46 462.68 C 236.02 457.15 260.99 445.40 283.55 430.51 C 315.03 409.59 342.03 381.62 360.70 348.68 C 375.52 322.66 384.83 293.54 387.89 263.75 C 389.81 246.90 389.07 229.92 389.17 213.00 C 389.06 189.33 389.29 165.66 388.89 142.00 C 388.86 98.04 388.75 54.09 388.71 10.13 C 263.04 10.15 137.37 10.15 11.70 10.13 Z" />
</g>
<g id="#c55d5dff">
<path fill="#c55d5d" opacity="1.00" d=" M 16.02 14.09 C 18.68 14.01 21.34 13.94 24.00 13.93 C 110.33 13.95 196.66 13.93 283.00 13.94 C 316.96 14.05 350.93 13.71 384.89 14.11 C 385.44 47.73 385.02 81.37 385.30 115.00 C 385.36 119.47 385.34 123.95 384.83 128.39 C 383.64 118.97 384.19 109.47 384.08 100.00 C 383.90 71.70 384.06 43.39 383.79 15.09 C 326.86 14.87 269.93 15.06 213.00 15.00 C 147.66 15.10 82.31 14.81 16.97 15.15 C 16.62 23.09 16.73 31.05 16.78 39.00 C 16.74 103.00 16.83 167.00 16.73 231.00 C 17.09 253.53 18.90 276.22 25.05 297.99 C 26.54 303.00 27.82 308.07 28.90 313.20 C 26.38 307.91 24.89 302.24 23.40 296.60 C 18.15 276.53 15.70 255.74 15.92 235.00 C 15.98 161.36 15.81 87.72 16.02 14.09 Z" />
</g>
<g id="#ef494dff">
<path fill="#ef494d" opacity="1.00" d=" M 16.97 15.15 C 82.31 14.81 147.66 15.10 213.00 15.00 C 269.93 15.06 326.86 14.87 383.79 15.09 C 384.06 43.39 383.90 71.70 384.08 100.00 C 384.19 109.47 383.64 118.97 384.83 128.39 C 385.11 130.91 385.27 133.44 385.29 135.98 C 385.32 169.66 385.39 203.33 385.45 237.00 C 385.67 246.70 384.57 256.36 383.77 266.01 C 379.82 300.76 366.95 334.37 347.12 363.14 C 325.31 394.71 295.73 420.78 261.96 438.92 C 244.09 448.41 224.97 455.88 204.99 459.34 C 201.16 460.10 197.27 459.44 193.55 458.48 C 160.35 450.38 129.08 434.83 102.11 413.90 C 74.15 392.19 50.93 364.10 36.16 331.84 C 33.49 325.73 30.61 319.66 28.90 313.20 C 27.82 308.07 26.54 303.00 25.05 297.99 C 18.90 276.22 17.09 253.53 16.73 231.00 C 16.83 167.00 16.74 103.00 16.78 39.00 C 16.73 31.05 16.62 23.09 16.97 15.15 M 203.86 31.13 C 202.39 35.76 202.16 40.63 202.20 45.45 C 199.15 42.69 195.93 40.09 192.23 38.25 C 190.65 42.24 189.47 46.36 188.36 50.50 C 184.81 49.94 181.23 49.67 177.66 49.24 C 177.71 50.47 178.08 51.66 178.62 52.76 C 178.98 52.64 179.69 52.39 180.05 52.27 C 180.48 52.60 181.34 53.25 181.77 53.58 L 180.74 53.12 C 181.72 54.81 182.76 56.47 183.81 58.13 C 180.48 56.22 177.42 53.90 174.18 51.84 C 171.75 50.21 168.20 49.70 165.85 51.77 C 163.41 53.72 163.76 57.14 163.47 59.93 C 165.56 58.91 167.57 57.59 169.87 57.10 C 173.23 59.42 176.01 62.52 179.57 64.60 C 178.32 65.68 177.06 66.75 175.91 67.94 C 173.21 70.57 173.26 74.84 170.54 77.48 C 161.56 86.71 150.75 94.68 138.16 98.08 C 135.76 99.08 131.53 99.60 131.71 102.97 C 131.69 107.79 131.41 113.35 134.68 117.30 C 136.89 119.41 139.25 121.63 142.15 122.74 C 149.08 123.05 153.25 116.46 158.93 113.64 C 156.58 120.21 149.91 123.32 143.53 124.69 C 144.51 129.82 150.60 130.33 154.76 131.33 C 159.99 132.68 163.35 127.73 166.41 124.42 C 170.59 119.18 177.32 117.45 183.36 115.34 C 187.20 114.17 190.95 112.44 194.98 112.07 C 197.41 112.35 199.49 113.82 201.67 114.85 C 197.13 120.62 191.18 125.00 185.37 129.39 C 180.54 132.95 175.70 136.58 170.27 139.19 C 162.61 142.97 154.26 145.94 148.12 152.14 C 145.07 155.27 140.76 156.65 137.54 159.54 C 134.61 162.73 133.46 167.19 130.24 170.19 C 126.69 173.49 124.52 177.85 122.94 182.36 C 114.33 177.41 105.70 172.32 98.18 165.78 C 95.29 163.37 92.69 160.51 89.33 158.71 C 85.83 156.79 81.69 158.07 78.14 159.15 C 72.94 160.86 71.54 166.76 69.19 171.06 C 66.72 177.26 60.67 180.63 56.25 185.24 C 51.42 190.23 46.29 195.31 43.76 201.93 C 41.46 207.80 36.28 211.82 33.30 217.28 C 31.57 220.29 32.57 223.88 32.08 227.17 C 31.36 233.60 31.70 240.14 33.43 246.40 C 40.83 244.00 46.66 238.38 51.61 232.61 C 54.26 229.71 54.41 225.67 54.34 221.97 C 54.20 217.76 55.77 213.78 57.00 209.83 C 59.49 209.70 61.97 209.59 64.45 209.39 C 69.06 201.32 72.93 192.35 80.52 186.54 C 82.91 184.53 86.97 184.54 89.08 186.96 C 92.29 190.49 94.58 194.75 97.63 198.42 C 105.25 207.85 113.36 217.00 122.85 224.59 C 113.89 224.80 104.95 226.54 95.98 225.55 C 92.63 225.17 89.41 223.85 86.01 223.99 C 83.17 224.28 80.69 225.84 78.21 227.13 C 75.76 228.52 72.98 230.06 72.04 232.92 C 70.52 237.13 70.10 241.64 68.89 245.94 C 67.56 251.20 63.44 255.03 60.02 258.99 C 55.61 264.03 49.68 268.24 47.69 274.93 C 46.13 280.08 42.06 283.83 39.46 288.41 C 37.93 291.07 36.19 294.06 36.93 297.26 C 38.39 304.08 36.46 311.15 38.15 317.96 C 38.64 319.12 38.53 321.02 40.00 321.43 C 44.98 319.84 48.89 316.15 52.69 312.72 C 56.18 309.30 60.32 305.34 59.91 300.01 C 59.59 294.08 60.41 288.18 61.36 282.35 C 63.56 281.88 65.87 281.74 67.95 280.85 C 69.62 279.09 70.52 276.77 71.53 274.60 C 74.84 266.90 78.16 259.05 83.44 252.46 C 85.48 249.84 88.60 248.04 91.98 248.16 C 98.59 247.72 104.13 251.91 110.22 253.72 C 120.88 257.28 132.31 255.90 143.23 257.93 C 146.68 258.53 149.48 260.73 152.24 262.71 C 159.69 268.17 168.45 271.56 177.37 273.69 C 191.41 277.09 205.87 277.96 220.16 279.70 C 220.81 283.79 221.52 287.93 223.17 291.77 C 226.62 300.06 233.26 306.33 239.00 313.04 C 241.54 316.21 244.40 320.08 243.50 324.40 C 242.24 329.72 238.01 333.63 233.80 336.80 C 223.57 344.20 212.12 349.69 201.57 356.60 C 199.67 357.93 197.61 359.22 196.35 361.22 C 194.79 363.67 194.52 367.14 191.76 368.67 C 188.46 371.00 184.05 372.30 182.20 376.21 C 178.61 383.36 171.77 389.58 172.43 398.22 C 182.28 399.34 193.28 397.85 200.58 390.56 C 204.01 387.49 203.78 382.53 205.66 378.63 C 207.02 375.86 208.90 373.23 211.43 371.42 C 215.06 370.92 218.83 372.65 222.36 371.31 C 225.79 369.47 227.65 365.85 229.72 362.72 C 233.94 355.40 241.02 350.27 248.31 346.30 C 255.40 342.46 264.21 341.10 269.60 334.62 C 272.03 331.99 272.32 328.29 272.86 324.93 C 277.92 329.34 282.52 334.35 285.71 340.30 C 288.12 344.99 291.99 349.42 291.85 354.97 C 291.80 360.36 287.74 364.59 283.81 367.78 C 273.03 376.11 260.40 381.56 249.15 389.17 C 247.14 390.63 244.86 392.12 243.99 394.57 C 243.02 396.64 242.73 399.29 240.59 400.56 C 237.23 403.15 232.57 404.41 230.55 408.44 C 226.77 415.50 220.70 421.74 220.38 430.19 C 227.53 431.36 235.13 431.01 241.74 427.79 C 246.27 425.61 251.12 422.34 252.04 417.02 C 252.93 412.56 254.86 408.28 258.09 405.03 C 261.34 401.29 266.65 405.79 270.62 403.67 C 274.31 401.71 276.15 397.72 278.41 394.41 C 281.75 388.87 286.89 384.74 292.19 381.17 C 298.28 377.10 305.45 375.16 311.92 371.82 C 316.11 369.51 320.08 365.72 320.72 360.75 C 321.31 356.39 319.45 352.22 317.55 348.42 C 311.89 337.43 309.82 324.46 312.42 312.33 C 313.14 308.09 316.88 305.55 319.58 302.57 C 328.95 292.63 334.12 279.41 336.37 266.09 C 342.26 270.79 348.67 275.32 356.27 276.60 C 358.94 277.44 362.38 277.19 364.37 279.43 C 364.91 282.87 364.17 286.42 364.93 289.84 C 365.84 292.28 368.71 292.92 370.72 294.18 C 369.60 288.36 370.84 282.62 372.10 276.96 C 373.28 272.74 369.30 270.11 366.49 267.87 C 368.94 262.61 371.41 257.00 370.82 251.05 C 370.39 244.51 366.91 238.80 363.66 233.31 C 362.41 231.22 361.19 228.22 363.07 226.13 C 365.75 222.98 370.24 224.49 373.78 224.53 C 372.15 221.27 370.19 217.49 366.26 216.71 C 360.75 215.42 356.33 219.80 351.96 222.37 C 351.32 218.40 352.08 213.97 355.73 211.69 C 360.37 207.69 366.77 209.48 372.05 210.92 C 370.42 207.47 368.72 203.69 365.27 201.72 C 361.47 199.52 356.92 200.53 352.77 200.52 C 357.70 195.19 363.80 190.99 368.09 185.07 C 374.51 176.70 377.04 165.65 375.58 155.27 C 372.14 159.61 370.61 165.02 367.84 169.75 C 364.11 176.26 359.64 182.90 352.71 186.31 C 356.25 176.11 363.11 167.00 364.25 156.03 C 365.18 144.66 356.94 134.42 346.84 130.15 C 332.99 123.52 313.49 131.99 310.65 147.53 C 309.03 158.06 309.17 169.05 305.09 179.06 C 303.62 182.77 300.49 185.35 297.76 188.11 C 301.86 189.24 306.04 188.41 309.74 186.44 C 309.61 191.20 309.12 196.30 311.40 200.68 C 312.63 203.13 315.09 204.56 317.27 206.07 C 317.63 200.34 316.45 194.27 318.86 188.85 C 320.93 184.42 323.04 180.01 325.11 175.58 C 326.12 181.59 325.49 187.70 325.84 193.75 C 333.43 185.44 336.52 172.86 332.11 162.27 C 335.21 162.20 338.46 162.59 341.42 161.44 C 344.21 160.30 345.50 157.37 347.04 155.00 C 343.68 154.56 340.37 153.71 337.42 152.01 C 338.72 150.18 339.74 147.89 341.87 146.85 C 345.44 145.31 350.22 146.19 352.42 149.59 C 354.89 153.31 353.98 158.26 352.09 162.04 C 346.04 174.33 336.61 184.75 331.57 197.58 C 328.98 204.28 327.46 211.91 330.06 218.85 C 333.98 229.60 341.87 238.22 349.42 246.58 C 351.13 248.61 353.15 250.95 352.79 253.82 C 352.51 257.69 347.79 260.35 344.30 258.84 C 341.20 257.54 338.52 255.18 336.77 252.33 C 335.01 248.53 334.37 244.30 332.40 240.59 C 328.88 233.40 322.19 228.47 315.31 224.74 C 307.42 220.64 298.94 217.70 290.29 215.67 C 281.40 213.55 272.21 213.45 263.26 211.78 C 256.52 210.54 250.33 207.50 244.01 205.01 C 236.45 201.87 228.63 198.93 222.16 193.80 C 218.31 190.76 215.08 186.13 215.55 181.01 C 216.36 174.27 220.75 168.60 225.68 164.22 C 227.35 171.72 217.49 175.51 218.67 182.93 C 220.36 191.38 232.07 194.97 238.66 189.74 C 235.20 187.79 231.05 186.61 228.41 183.48 C 227.20 179.52 230.53 176.17 231.64 172.59 C 233.50 168.47 231.22 164.20 230.58 160.10 C 231.82 156.50 235.10 154.01 237.59 151.25 C 238.55 154.22 239.38 157.47 238.42 160.56 C 237.47 163.38 235.53 165.71 234.34 168.41 C 232.24 172.94 234.05 179.06 238.64 181.29 C 241.09 182.73 243.96 181.87 246.58 181.56 C 245.04 178.17 242.85 174.84 242.75 171.00 C 243.30 165.84 246.88 161.30 246.43 155.98 C 246.10 152.06 243.01 149.30 240.46 146.64 C 242.19 143.60 243.93 140.55 245.56 137.45 C 246.16 137.37 247.36 137.22 247.96 137.15 C 248.91 141.26 248.71 145.51 247.52 149.55 C 246.16 154.24 246.15 160.35 250.39 163.61 C 254.35 166.21 259.11 163.93 262.65 161.69 C 260.57 160.33 258.14 159.35 256.50 157.42 C 255.29 153.28 256.98 149.05 257.75 144.99 C 259.83 145.78 261.86 146.79 264.06 147.19 C 266.13 146.98 267.98 145.93 269.88 145.17 C 268.13 142.95 266.15 140.83 265.00 138.20 C 263.46 134.35 263.83 129.93 261.78 126.25 C 259.43 122.42 255.36 120.20 251.67 117.88 C 252.27 114.41 252.86 110.93 253.63 107.49 C 259.29 112.94 259.37 121.62 264.65 127.33 C 267.80 131.23 273.76 132.89 278.24 130.33 C 280.90 128.97 281.39 125.78 282.30 123.24 C 279.09 123.10 274.60 124.97 272.55 121.50 C 269.87 117.00 267.89 112.01 264.10 108.25 C 267.09 108.07 270.30 108.38 273.07 107.02 C 276.25 105.31 275.81 101.23 276.34 98.20 C 274.35 99.08 272.48 100.44 270.28 100.70 C 266.88 98.81 265.29 95.02 262.72 92.26 C 259.68 88.65 255.16 86.96 251.10 84.81 C 247.53 83.18 246.91 78.88 245.82 75.55 C 252.49 77.05 255.50 83.69 260.82 87.19 C 264.18 89.50 268.34 88.29 271.83 87.06 C 268.91 84.33 265.69 81.94 262.95 79.02 C 260.17 76.15 257.47 72.89 253.60 71.47 C 250.08 70.05 246.12 70.68 242.56 69.46 C 240.89 68.24 239.49 66.69 238.00 65.26 C 242.19 67.07 246.73 68.01 251.26 67.05 C 245.71 63.23 240.98 58.40 235.69 54.26 C 232.13 51.36 227.50 52.70 223.84 54.59 C 222.70 50.80 221.63 46.90 219.40 43.57 C 215.68 37.93 210.03 33.78 203.86 31.13 Z" />
</g>
<g id="#513d3cff">
<path fill="#513d3c" opacity="1.00" d=" M 203.86 31.13 C 210.03 33.78 215.68 37.93 219.40 43.57 C 221.63 46.90 222.70 50.80 223.84 54.59 C 227.50 52.70 232.13 51.36 235.69 54.26 C 240.98 58.40 245.71 63.23 251.26 67.05 C 246.73 68.01 242.19 67.07 238.00 65.26 C 239.49 66.69 240.89 68.24 242.56 69.46 C 246.12 70.68 250.08 70.05 253.60 71.47 C 257.47 72.89 260.17 76.15 262.95 79.02 C 265.69 81.94 268.91 84.33 271.83 87.06 C 268.34 88.29 264.18 89.50 260.82 87.19 C 255.50 83.69 252.49 77.05 245.82 75.55 C 246.91 78.88 247.53 83.18 251.10 84.81 C 255.16 86.96 259.68 88.65 262.72 92.26 C 265.29 95.02 266.88 98.81 270.28 100.70 C 272.48 100.44 274.35 99.08 276.34 98.20 C 275.81 101.23 276.25 105.31 273.07 107.02 C 270.30 108.38 267.09 108.07 264.10 108.25 C 267.89 112.01 269.87 117.00 272.55 121.50 C 274.60 124.97 279.09 123.10 282.30 123.24 C 281.39 125.78 280.90 128.97 278.24 130.33 C 273.76 132.89 267.80 131.23 264.65 127.33 C 259.37 121.62 259.29 112.94 253.63 107.49 C 252.86 110.93 252.27 114.41 251.67 117.88 C 255.36 120.20 259.43 122.42 261.78 126.25 C 263.83 129.93 263.46 134.35 265.00 138.20 C 266.15 140.83 268.13 142.95 269.88 145.17 C 267.98 145.93 266.13 146.98 264.06 147.19 C 261.86 146.79 259.83 145.78 257.75 144.99 C 256.98 149.05 255.29 153.28 256.50 157.42 C 258.14 159.35 260.57 160.33 262.65 161.69 C 259.11 163.93 254.35 166.21 250.39 163.61 C 246.15 160.35 246.16 154.24 247.52 149.55 C 248.71 145.51 248.91 141.26 247.96 137.15 C 247.36 137.22 246.16 137.37 245.56 137.45 C 243.93 140.55 242.19 143.60 240.46 146.64 C 243.01 149.30 246.10 152.06 246.43 155.98 C 246.88 161.30 243.30 165.84 242.75 171.00 C 242.85 174.84 245.04 178.17 246.58 181.56 C 243.96 181.87 241.09 182.73 238.64 181.29 C 234.05 179.06 232.24 172.94 234.34 168.41 C 235.53 165.71 237.47 163.38 238.42 160.56 C 239.38 157.47 238.55 154.22 237.59 151.25 C 235.10 154.01 231.82 156.50 230.58 160.10 C 231.22 164.20 233.50 168.47 231.64 172.59 C 230.53 176.17 227.20 179.52 228.41 183.48 C 231.05 186.61 235.20 187.79 238.66 189.74 C 232.07 194.97 220.36 191.38 218.67 182.93 C 217.49 175.51 227.35 171.72 225.68 164.22 C 220.75 168.60 216.36 174.27 215.55 181.01 C 215.08 186.13 218.31 190.76 222.16 193.80 C 228.63 198.93 236.45 201.87 244.01 205.01 C 250.33 207.50 256.52 210.54 263.26 211.78 C 272.21 213.45 281.40 213.55 290.29 215.67 C 298.94 217.70 307.42 220.64 315.31 224.74 C 322.19 228.47 328.88 233.40 332.40 240.59 C 334.37 244.30 335.01 248.53 336.77 252.33 C 338.52 255.18 341.20 257.54 344.30 258.84 C 347.79 260.35 352.51 257.69 352.79 253.82 C 353.15 250.95 351.13 248.61 349.42 246.58 C 341.87 238.22 333.98 229.60 330.06 218.85 C 327.46 211.91 328.98 204.28 331.57 197.58 C 336.61 184.75 346.04 174.33 352.09 162.04 C 353.98 158.26 354.89 153.31 352.42 149.59 C 350.22 146.19 345.44 145.31 341.87 146.85 C 339.74 147.89 338.72 150.18 337.42 152.01 C 340.37 153.71 343.68 154.56 347.04 155.00 C 345.50 157.37 344.21 160.30 341.42 161.44 C 338.46 162.59 335.21 162.20 332.11 162.27 C 336.52 172.86 333.43 185.44 325.84 193.75 C 325.49 187.70 326.12 181.59 325.11 175.58 C 323.04 180.01 320.93 184.42 318.86 188.85 C 316.45 194.27 317.63 200.34 317.27 206.07 C 315.09 204.56 312.63 203.13 311.40 200.68 C 309.12 196.30 309.61 191.20 309.74 186.44 C 306.04 188.41 301.86 189.24 297.76 188.11 C 300.49 185.35 303.62 182.77 305.09 179.06 C 309.17 169.05 309.03 158.06 310.65 147.53 C 313.49 131.99 332.99 123.52 346.84 130.15 C 356.94 134.42 365.18 144.66 364.25 156.03 C 363.11 167.00 356.25 176.11 352.71 186.31 C 359.64 182.90 364.11 176.26 367.84 169.75 C 370.61 165.02 372.14 159.61 375.58 155.27 C 377.04 165.65 374.51 176.70 368.09 185.07 C 363.80 190.99 357.70 195.19 352.77 200.52 C 356.92 200.53 361.47 199.52 365.27 201.72 C 368.72 203.69 370.42 207.47 372.05 210.92 C 366.77 209.48 360.37 207.69 355.73 211.69 C 352.08 213.97 351.32 218.40 351.96 222.37 C 356.33 219.80 360.75 215.42 366.26 216.71 C 370.19 217.49 372.15 221.27 373.78 224.53 C 370.24 224.49 365.75 222.98 363.07 226.13 C 361.19 228.22 362.41 231.22 363.66 233.31 C 366.91 238.80 370.39 244.51 370.82 251.05 C 371.41 257.00 368.94 262.61 366.49 267.87 C 369.30 270.11 373.28 272.74 372.10 276.96 C 370.84 282.62 369.60 288.36 370.72 294.18 C 368.71 292.92 365.84 292.28 364.93 289.84 C 364.17 286.42 364.91 282.87 364.37 279.43 C 362.38 277.19 358.94 277.44 356.27 276.60 C 348.67 275.32 342.26 270.79 336.37 266.09 C 334.12 279.41 328.95 292.63 319.58 302.57 C 316.88 305.55 313.14 308.09 312.42 312.33 C 309.82 324.46 311.89 337.43 317.55 348.42 C 319.45 352.22 321.31 356.39 320.72 360.75 C 320.08 365.72 316.11 369.51 311.92 371.82 C 305.45 375.16 298.28 377.10 292.19 381.17 C 286.89 384.74 281.75 388.87 278.41 394.41 C 276.15 397.72 274.31 401.71 270.62 403.67 C 266.65 405.79 261.34 401.29 258.09 405.03 C 254.86 408.28 252.93 412.56 252.04 417.02 C 251.12 422.34 246.27 425.61 241.74 427.79 C 235.13 431.01 227.53 431.36 220.38 430.19 C 220.70 421.74 226.77 415.50 230.55 408.44 C 232.57 404.41 237.23 403.15 240.59 400.56 C 242.73 399.29 243.02 396.64 243.99 394.57 C 244.86 392.12 247.14 390.63 249.15 389.17 C 260.40 381.56 273.03 376.11 283.81 367.78 C 287.74 364.59 291.80 360.36 291.85 354.97 C 291.99 349.42 288.12 344.99 285.71 340.30 C 282.52 334.35 277.92 329.34 272.86 324.93 C 272.32 328.29 272.03 331.99 269.60 334.62 C 264.21 341.10 255.40 342.46 248.31 346.30 C 241.02 350.27 233.94 355.40 229.72 362.72 C 227.65 365.85 225.79 369.47 222.36 371.31 C 218.83 372.65 215.06 370.92 211.43 371.42 C 208.90 373.23 207.02 375.86 205.66 378.63 C 203.78 382.53 204.01 387.49 200.58 390.56 C 193.28 397.85 182.28 399.34 172.43 398.22 C 171.77 389.58 178.61 383.36 182.20 376.21 C 184.05 372.30 188.46 371.00 191.76 368.67 C 194.52 367.14 194.79 363.67 196.35 361.22 C 197.61 359.22 199.67 357.93 201.57 356.60 C 212.12 349.69 223.57 344.20 233.80 336.80 C 238.01 333.63 242.24 329.72 243.50 324.40 C 244.40 320.08 241.54 316.21 239.00 313.04 C 233.26 306.33 226.62 300.06 223.17 291.77 C 221.52 287.93 220.81 283.79 220.16 279.70 C 205.87 277.96 191.41 277.09 177.37 273.69 C 168.45 271.56 159.69 268.17 152.24 262.71 C 149.48 260.73 146.68 258.53 143.23 257.93 C 132.31 255.90 120.88 257.28 110.22 253.72 C 104.13 251.91 98.59 247.72 91.98 248.16 C 88.60 248.04 85.48 249.84 83.44 252.46 C 78.16 259.05 74.84 266.90 71.53 274.60 C 70.52 276.77 69.62 279.09 67.95 280.85 C 65.87 281.74 63.56 281.88 61.36 282.35 C 60.41 288.18 59.59 294.08 59.91 300.01 C 60.32 305.34 56.18 309.30 52.69 312.72 C 48.89 316.15 44.98 319.84 40.00 321.43 C 38.53 321.02 38.64 319.12 38.15 317.96 C 36.46 311.15 38.39 304.08 36.93 297.26 C 36.19 294.06 37.93 291.07 39.46 288.41 C 42.06 283.83 46.13 280.08 47.69 274.93 C 49.68 268.24 55.61 264.03 60.02 258.99 C 63.44 255.03 67.56 251.20 68.89 245.94 C 70.10 241.64 70.52 237.13 72.04 232.92 C 72.98 230.06 75.76 228.52 78.21 227.13 C 80.69 225.84 83.17 224.28 86.01 223.99 C 89.41 223.85 92.63 225.17 95.98 225.55 C 104.95 226.54 113.89 224.80 122.85 224.59 C 113.36 217.00 105.25 207.85 97.63 198.42 C 94.58 194.75 92.29 190.49 89.08 186.96 C 86.97 184.54 82.91 184.53 80.52 186.54 C 72.93 192.35 69.06 201.32 64.45 209.39 C 61.97 209.59 59.49 209.70 57.00 209.83 C 55.77 213.78 54.20 217.76 54.34 221.97 C 54.41 225.67 54.26 229.71 51.61 232.61 C 46.66 238.38 40.83 244.00 33.43 246.40 C 31.70 240.14 31.36 233.60 32.08 227.17 C 32.57 223.88 31.57 220.29 33.30 217.28 C 36.28 211.82 41.46 207.80 43.76 201.93 C 46.29 195.31 51.42 190.23 56.25 185.24 C 60.67 180.63 66.72 177.26 69.19 171.06 C 71.54 166.76 72.94 160.86 78.14 159.15 C 81.69 158.07 85.83 156.79 89.33 158.71 C 92.69 160.51 95.29 163.37 98.18 165.78 C 105.70 172.32 114.33 177.41 122.94 182.36 C 124.52 177.85 126.69 173.49 130.24 170.19 C 133.46 167.19 134.61 162.73 137.54 159.54 C 140.76 156.65 145.07 155.27 148.12 152.14 C 154.26 145.94 162.61 142.97 170.27 139.19 C 175.70 136.58 180.54 132.95 185.37 129.39 C 191.18 125.00 197.13 120.62 201.67 114.85 C 199.49 113.82 197.41 112.35 194.98 112.07 C 190.95 112.44 187.20 114.17 183.36 115.34 C 177.32 117.45 170.59 119.18 166.41 124.42 C 163.35 127.73 159.99 132.68 154.76 131.33 C 150.60 130.33 144.51 129.82 143.53 124.69 C 149.91 123.32 156.58 120.21 158.93 113.64 C 153.25 116.46 149.08 123.05 142.15 122.74 C 139.25 121.63 136.89 119.41 134.68 117.30 C 131.41 113.35 131.69 107.79 131.71 102.97 C 131.53 99.60 135.76 99.08 138.16 98.08 C 150.75 94.68 161.56 86.71 170.54 77.48 C 173.26 74.84 173.21 70.57 175.91 67.94 C 177.06 66.75 178.32 65.68 179.57 64.60 C 176.01 62.52 173.23 59.42 169.87 57.10 C 167.57 57.59 165.56 58.91 163.47 59.93 C 163.76 57.14 163.41 53.72 165.85 51.77 C 168.20 49.70 171.75 50.21 174.18 51.84 C 177.42 53.90 180.48 56.22 183.81 58.13 C 182.76 56.47 181.72 54.81 180.74 53.12 L 181.77 53.58 C 185.07 55.15 188.59 56.23 191.79 58.02 C 188.66 58.58 185.44 59.24 182.26 58.69 C 177.26 57.86 174.61 51.75 169.22 52.11 C 166.77 52.13 165.87 54.84 164.50 56.42 C 166.53 55.99 168.55 55.20 170.67 55.30 C 173.48 56.72 174.90 59.86 177.62 61.40 C 179.47 62.33 181.46 62.94 183.38 63.69 C 180.12 66.37 176.66 68.92 174.26 72.45 C 176.84 73.88 179.65 76.20 182.80 75.27 C 187.04 73.83 190.74 71.05 195.15 70.02 C 200.78 68.71 206.80 69.39 212.11 71.62 C 205.64 71.69 198.87 70.05 192.67 72.69 C 185.53 75.31 181.29 81.96 175.98 86.97 C 168.69 93.86 160.76 100.63 151.16 103.98 C 161.90 96.02 173.85 89.03 181.75 77.91 C 179.50 76.94 177.26 75.96 175.04 74.93 C 167.21 83.66 158.18 91.60 147.40 96.46 C 142.88 98.60 137.99 99.78 133.32 101.52 C 133.71 105.27 133.47 109.08 134.16 112.80 C 134.76 117.48 140.58 117.75 142.53 121.64 C 148.98 120.26 153.45 115.25 158.16 111.05 C 158.84 112.37 159.61 113.66 160.09 115.08 C 157.80 121.51 150.92 124.25 144.95 126.21 C 149.14 128.15 153.78 130.39 158.50 129.59 C 163.70 126.97 165.77 120.57 171.25 118.28 C 178.91 114.78 187.02 112.24 195.13 110.06 C 198.58 111.06 201.58 113.36 205.21 113.90 C 214.35 115.56 223.87 110.29 228.36 102.34 C 230.98 98.18 231.41 93.12 233.77 88.85 C 234.82 102.33 223.14 114.94 209.85 115.95 C 206.93 116.54 203.22 115.44 201.12 118.09 C 194.17 125.29 186.00 131.13 177.78 136.78 C 168.50 143.10 156.67 145.45 148.79 153.84 C 145.56 157.50 139.98 158.10 137.28 162.30 C 133.18 169.56 130.95 177.65 129.13 185.73 C 128.03 180.87 129.65 176.13 130.81 171.47 C 126.68 175.96 124.38 181.92 124.47 188.02 C 124.57 193.53 123.52 198.93 122.45 204.30 C 121.00 211.69 123.86 218.95 126.91 225.54 C 131.60 224.43 136.26 222.98 141.14 223.25 C 141.45 216.10 142.96 208.87 146.73 202.70 C 152.21 193.26 162.16 186.50 173.05 185.27 C 178.58 184.65 184.73 185.14 189.19 188.82 C 183.83 188.03 178.53 185.89 173.04 186.92 C 160.24 188.41 149.11 197.96 145.11 210.12 C 143.53 214.45 143.10 219.08 142.85 223.65 C 146.60 224.91 150.45 226.18 153.55 228.75 C 149.66 228.54 146.16 226.75 142.50 225.64 C 139.16 224.61 135.63 225.16 132.24 225.58 C 136.82 227.91 142.07 229.38 145.52 233.45 C 140.10 231.68 135.38 228.10 129.66 227.20 C 116.74 224.21 103.44 230.34 90.67 226.24 C 84.94 224.08 79.70 228.28 75.06 231.09 C 70.71 237.18 72.50 245.87 67.99 251.98 C 63.12 258.69 56.87 264.23 51.58 270.59 C 49.20 273.35 49.58 277.41 47.22 280.18 C 43.18 285.58 38.72 291.13 37.71 298.03 C 44.62 297.00 51.27 294.64 58.25 293.95 C 58.76 289.37 59.18 284.77 60.12 280.25 C 62.44 280.06 64.77 279.93 67.09 279.85 C 72.13 270.06 75.50 259.22 82.76 250.73 C 85.48 247.52 89.83 246.07 93.96 246.48 C 100.27 246.84 105.51 250.79 111.47 252.40 C 120.32 255.04 129.64 254.72 138.75 255.59 C 144.88 256.14 150.66 258.38 156.32 260.65 C 160.09 262.10 164.83 262.91 168.30 260.30 C 173.31 256.51 176.99 251.07 182.62 248.07 C 180.38 251.91 176.85 254.67 173.71 257.72 C 171.25 259.94 168.87 262.64 165.50 263.40 C 161.11 264.45 156.83 262.49 152.68 261.30 C 162.19 267.79 173.28 271.56 184.55 273.57 C 204.97 277.16 225.85 277.66 246.09 282.35 C 246.19 279.96 246.29 277.57 246.43 275.19 C 240.37 273.84 234.27 272.60 228.09 271.89 C 217.04 270.50 205.81 270.47 194.89 268.07 C 190.28 266.99 185.48 265.76 181.78 262.63 C 187.80 263.80 193.42 266.57 199.56 267.31 C 215.25 269.58 231.32 269.43 246.71 273.67 C 248.45 269.99 250.45 266.28 253.71 263.71 C 258.17 259.83 263.88 257.95 268.75 254.73 C 271.02 253.34 270.95 250.36 271.88 248.15 C 272.15 250.20 273.29 252.72 271.58 254.45 C 269.02 257.13 265.44 258.43 262.26 260.19 C 256.71 262.97 251.15 266.94 248.98 273.01 C 246.85 279.07 248.13 285.62 249.29 291.75 C 250.69 298.40 253.48 304.86 258.00 310.00 C 264.41 317.35 273.19 322.08 279.74 329.28 C 284.80 334.53 288.04 341.12 291.60 347.39 C 293.70 351.08 294.37 355.71 292.58 359.65 C 290.17 365.19 285.20 369.00 280.36 372.32 C 271.04 378.54 260.97 383.50 251.54 389.53 C 248.68 391.28 246.17 393.55 244.12 396.21 C 246.56 397.46 249.09 398.53 251.54 399.79 C 248.89 400.07 245.80 398.70 243.51 400.52 C 239.37 403.49 234.57 405.61 231.09 409.44 C 237.60 410.90 244.36 411.49 250.52 414.25 C 252.60 409.11 255.90 404.59 259.97 400.85 C 263.52 401.98 267.99 404.17 271.30 401.30 C 275.53 397.36 277.39 391.58 281.53 387.56 C 287.15 382.23 293.61 377.71 300.86 374.90 C 306.78 372.20 313.89 370.48 317.58 364.62 C 320.56 360.23 318.91 354.65 316.64 350.35 C 310.24 338.42 307.89 324.15 311.05 310.91 C 311.43 308.98 312.35 307.18 313.90 305.93 C 324.48 296.75 331.13 283.61 333.87 270.00 C 335.66 260.41 335.49 249.98 330.87 241.17 C 327.32 234.25 320.79 229.47 314.05 225.94 C 306.12 221.87 297.61 218.97 288.93 217.03 C 280.20 215.08 271.20 215.00 262.44 213.29 C 255.53 211.98 249.23 208.75 242.72 206.24 C 234.99 203.03 226.96 199.94 220.47 194.51 C 216.28 191.06 213.13 185.73 214.00 180.15 C 215.29 172.34 220.62 165.72 226.96 161.26 C 227.35 163.14 227.96 165.01 227.96 166.95 C 227.04 172.94 219.64 176.31 220.26 182.72 C 221.78 189.23 229.53 191.51 235.42 190.23 C 232.02 187.97 226.84 186.47 226.16 181.83 C 226.42 177.45 230.20 174.18 230.68 169.81 C 231.29 166.22 229.48 162.91 227.98 159.79 C 231.05 156.08 234.12 152.37 237.34 148.79 C 239.50 151.30 241.18 154.43 240.66 157.85 C 240.77 164.04 233.65 168.08 235.28 174.47 C 235.88 178.77 240.23 180.46 244.01 180.94 C 242.71 177.17 240.41 173.35 241.26 169.21 C 242.28 164.56 245.51 160.26 244.63 155.30 C 244.07 151.58 240.64 149.47 237.98 147.26 C 240.90 142.95 243.27 138.32 245.75 133.75 C 247.59 135.55 249.94 137.28 250.24 140.05 C 251.30 147.02 245.90 154.38 250.01 160.97 C 252.00 164.17 256.06 162.83 259.08 162.43 C 257.27 160.42 254.65 158.65 254.39 155.72 C 253.95 150.67 257.02 145.69 255.28 140.68 C 253.99 136.30 249.69 134.07 245.99 132.03 C 247.08 128.52 248.10 125.00 249.24 121.51 C 252.90 124.34 255.94 128.10 257.08 132.66 C 258.54 136.92 258.34 142.28 262.15 145.33 C 263.86 145.58 265.58 145.33 267.30 145.24 C 265.57 142.42 263.35 139.75 262.62 136.44 C 261.78 133.00 262.05 129.13 259.87 126.15 C 257.37 122.66 253.30 120.91 249.62 118.97 C 250.75 114.23 251.28 109.38 252.47 104.65 C 261.81 109.98 259.81 123.56 269.10 128.86 C 273.23 131.29 278.18 129.37 280.68 125.58 C 277.88 125.16 274.49 125.89 272.26 123.72 C 269.11 120.56 268.43 115.82 265.57 112.45 C 262.05 108.06 256.77 105.76 252.49 102.29 C 251.28 97.39 250.56 92.35 249.03 87.51 C 250.95 88.66 253.08 89.65 254.50 91.46 C 256.99 94.69 257.48 98.94 259.63 102.35 C 263.11 107.25 271.63 108.25 275.06 102.73 C 272.68 102.29 269.90 102.72 267.90 101.10 C 264.40 98.21 262.73 93.66 259.01 90.99 C 255.71 88.33 251.50 87.28 247.95 85.08 C 245.78 81.41 244.26 77.38 242.49 73.51 C 245.42 73.89 248.53 74.20 251.04 75.94 C 254.96 78.29 257.12 82.55 260.74 85.24 C 263.12 87.09 266.28 86.82 269.11 87.05 C 265.31 83.79 261.75 80.28 258.39 76.57 C 254.23 72.10 247.82 71.33 242.05 71.90 C 239.81 69.18 237.54 66.39 234.55 64.46 C 231.22 62.19 227.20 61.46 223.43 60.28 C 224.93 58.63 226.20 55.82 228.84 56.08 C 233.09 56.78 235.74 60.59 238.98 63.04 C 241.23 65.01 244.18 65.74 247.00 66.44 C 241.96 62.71 238.41 56.93 232.47 54.51 C 228.45 52.81 225.17 56.28 222.41 58.65 C 221.80 54.58 221.32 50.36 219.33 46.67 C 216.21 40.62 210.58 36.41 204.80 33.08 C 202.96 40.57 204.34 48.26 206.36 55.54 C 201.00 55.37 195.28 56.20 190.31 53.71 C 187.15 52.16 183.50 50.45 180.05 52.27 C 179.69 52.39 178.98 52.64 178.62 52.76 C 178.08 51.66 177.71 50.47 177.66 49.24 C 181.23 49.67 184.81 49.94 188.36 50.50 C 189.47 46.36 190.65 42.24 192.23 38.25 C 195.93 40.09 199.15 42.69 202.20 45.45 C 202.16 40.63 202.39 35.76 203.86 31.13 M 193.06 40.28 C 191.60 44.13 190.72 48.17 190.31 52.26 C 194.76 54.02 199.59 53.95 204.29 53.82 C 201.75 48.46 198.46 43.14 193.06 40.28 M 228.25 56.92 C 227.50 57.76 226.76 58.60 226.01 59.45 C 229.47 60.67 232.91 61.98 236.42 63.05 C 234.13 60.48 231.33 58.44 228.25 56.92 M 252.36 91.53 C 252.62 94.76 252.59 98.16 253.92 101.17 C 255.25 102.58 256.97 103.55 258.58 104.61 C 256.95 100.06 255.34 95.41 252.36 91.53 M 250.22 124.54 C 249.48 126.61 248.77 128.69 248.06 130.77 C 251.33 133.15 254.34 135.87 257.05 138.87 C 255.89 133.65 254.23 128.32 250.22 124.54 M 317.53 137.53 C 313.17 141.90 311.75 148.14 311.48 154.11 C 310.23 165.60 309.70 178.41 301.61 187.50 C 305.31 186.88 308.52 184.90 311.66 182.95 C 311.13 189.97 310.01 198.15 315.63 203.57 C 315.67 197.94 315.14 191.95 317.88 186.79 C 319.58 183.71 321.20 180.58 322.16 177.18 C 322.63 175.12 324.11 173.59 325.69 172.27 C 327.78 177.75 327.46 183.67 327.42 189.42 C 330.24 184.37 332.46 178.79 332.52 172.93 C 332.82 167.81 330.43 163.17 328.11 158.78 C 331.61 159.47 335.07 161.02 338.70 160.52 C 341.18 160.25 342.87 158.26 344.56 156.65 C 341.68 155.80 337.22 155.68 336.63 151.93 C 336.39 147.52 341.04 144.39 345.08 144.31 C 350.27 143.92 354.90 148.25 355.67 153.24 C 356.46 157.31 354.38 161.13 352.62 164.65 C 346.44 176.53 337.26 186.79 332.63 199.49 C 330.39 205.76 329.35 212.88 331.95 219.21 C 336.37 230.47 345.21 239.07 352.85 248.16 C 356.62 252.39 353.96 259.64 348.48 260.70 C 343.52 262.16 339.69 258.03 336.49 254.92 C 336.59 257.86 336.59 260.80 336.51 263.75 C 342.45 269.21 349.52 273.86 357.63 275.19 C 360.39 275.89 364.11 275.56 365.68 278.45 C 367.47 282.68 364.36 288.09 368.14 291.67 C 367.74 286.00 370.26 280.74 370.55 275.18 C 370.58 271.52 366.46 270.60 363.81 269.38 C 366.50 263.93 369.57 258.26 369.26 251.99 C 368.91 244.79 364.90 238.57 361.30 232.58 C 359.65 230.25 359.90 226.91 361.92 224.90 C 364.13 222.27 367.82 222.30 370.88 221.52 C 368.86 219.97 366.77 217.92 364.01 218.20 C 359.30 218.32 355.57 221.72 353.58 225.77 C 351.89 223.83 349.87 221.77 349.87 219.01 C 349.96 214.05 353.94 209.96 358.37 208.25 C 361.82 206.77 365.60 207.56 369.20 207.83 C 367.30 205.73 365.46 203.26 362.63 202.38 C 358.39 201.00 354.08 202.88 349.90 203.51 C 351.69 197.09 357.96 193.83 362.21 189.21 C 369.87 182.02 374.44 171.70 374.24 161.16 C 369.69 169.89 365.31 179.17 357.47 185.49 C 355.15 187.49 352.21 188.50 349.27 189.17 C 353.25 178.49 360.34 168.94 362.35 157.54 C 364.13 147.22 357.25 137.28 348.29 132.75 C 338.51 127.15 325.26 129.50 317.53 137.53 M 75.58 162.57 C 72.25 167.16 70.83 172.88 67.47 177.44 C 60.20 183.50 53.14 189.98 47.62 197.72 C 45.48 200.53 45.43 204.37 43.02 207.02 C 39.53 212.00 34.05 216.27 33.47 222.73 C 39.85 221.38 46.10 219.37 52.61 218.74 C 53.72 215.01 54.79 211.27 56.04 207.58 C 58.32 207.82 60.59 208.29 62.90 208.15 C 64.84 206.16 65.81 203.48 67.17 201.10 C 70.42 194.77 74.65 188.74 80.49 184.53 C 83.67 182.18 88.31 183.34 90.75 186.21 C 93.19 189.16 95.07 192.51 97.46 195.49 C 105.29 205.54 113.86 215.12 123.76 223.17 C 122.53 219.10 120.86 215.12 120.47 210.85 C 119.89 205.95 121.51 201.19 122.23 196.40 C 122.90 192.41 122.77 188.36 122.84 184.34 C 112.76 178.26 102.42 172.34 93.87 164.14 C 91.18 161.87 88.19 158.74 84.32 159.40 C 81.34 160.08 77.83 160.25 75.58 162.57 M 34.53 224.48 C 32.47 231.03 33.20 238.01 34.75 244.58 C 40.94 241.11 46.47 236.42 50.86 230.84 C 53.26 227.98 52.82 224.06 52.55 220.61 C 46.38 220.96 40.41 222.66 34.53 224.48 M 221.91 280.04 C 222.63 287.30 225.42 294.28 229.95 300.02 C 234.50 306.43 241.18 311.32 244.49 318.58 C 247.19 325.09 242.56 331.70 237.72 335.73 C 226.65 344.81 213.35 350.55 201.58 358.61 C 199.40 360.08 197.59 362.02 195.95 364.07 C 198.32 365.27 200.83 366.16 203.22 367.32 C 200.95 367.64 198.67 367.20 196.40 367.35 C 192.06 370.96 186.35 372.75 182.77 377.25 C 189.34 378.55 196.16 379.07 202.27 382.03 C 204.22 376.75 207.61 372.14 211.81 368.43 C 215.09 369.73 219.04 371.54 222.41 369.46 C 225.73 366.95 227.39 362.97 229.71 359.64 C 232.62 354.99 237.17 351.74 241.49 348.51 C 247.98 343.71 255.89 341.58 263.02 337.99 C 267.60 335.53 271.71 330.71 270.84 325.18 C 270.96 322.98 268.82 321.88 267.41 320.61 C 261.77 316.31 256.21 311.57 252.64 305.34 C 248.83 298.92 247.22 291.49 246.38 284.15 C 238.31 282.32 230.15 280.86 221.91 280.04 M 40.26 299.61 C 38.06 306.17 38.79 313.25 40.41 319.86 C 46.67 316.24 52.40 311.52 56.74 305.72 C 58.88 302.88 58.43 299.14 58.10 295.84 C 52.00 296.23 46.12 297.97 40.26 299.61 M 173.71 396.60 C 184.39 398.09 197.30 394.99 202.73 384.81 C 197.19 380.40 189.74 380.24 183.04 379.26 C 178.72 384.26 174.87 389.97 173.71 396.60 M 231.24 411.86 C 226.76 416.56 223.34 422.41 221.97 428.80 C 232.63 430.62 245.77 427.23 251.02 416.96 C 245.28 413.05 238.01 412.07 231.24 411.86 Z" />
</g>
<g id="#fefefeff">
<path fill="#fefefe" opacity="1.00" d=" M 204.80 33.08 C 210.58 36.41 216.21 40.62 219.33 46.67 C 221.32 50.36 221.80 54.58 222.41 58.65 C 225.17 56.28 228.45 52.81 232.47 54.51 C 238.41 56.93 241.96 62.71 247.00 66.44 C 244.18 65.74 241.23 65.01 238.98 63.04 C 235.74 60.59 233.09 56.78 228.84 56.08 C 226.20 55.82 224.93 58.63 223.43 60.28 C 227.20 61.46 231.22 62.19 234.55 64.46 C 237.54 66.39 239.81 69.18 242.05 71.90 C 247.82 71.33 254.23 72.10 258.39 76.57 C 261.75 80.28 265.31 83.79 269.11 87.05 C 266.28 86.82 263.12 87.09 260.74 85.24 C 257.12 82.55 254.96 78.29 251.04 75.94 C 248.53 74.20 245.42 73.89 242.49 73.51 C 244.26 77.38 245.78 81.41 247.95 85.08 C 251.50 87.28 255.71 88.33 259.01 90.99 C 262.73 93.66 264.40 98.21 267.90 101.10 C 269.90 102.72 272.68 102.29 275.06 102.73 C 271.63 108.25 263.11 107.25 259.63 102.35 C 257.48 98.94 256.99 94.69 254.50 91.46 C 253.08 89.65 250.95 88.66 249.03 87.51 C 250.56 92.35 251.28 97.39 252.49 102.29 C 256.77 105.76 262.05 108.06 265.57 112.45 C 268.43 115.82 269.11 120.56 272.26 123.72 C 274.49 125.89 277.88 125.16 280.68 125.58 C 278.18 129.37 273.23 131.29 269.10 128.86 C 259.81 123.56 261.81 109.98 252.47 104.65 C 251.28 109.38 250.75 114.23 249.62 118.97 C 253.30 120.91 257.37 122.66 259.87 126.15 C 262.05 129.13 261.78 133.00 262.62 136.44 C 263.35 139.75 265.57 142.42 267.30 145.24 C 265.58 145.33 263.86 145.58 262.15 145.33 C 258.34 142.28 258.54 136.92 257.08 132.66 C 255.94 128.10 252.90 124.34 249.24 121.51 C 248.10 125.00 247.08 128.52 245.99 132.03 C 249.69 134.07 253.99 136.30 255.28 140.68 C 257.02 145.69 253.95 150.67 254.39 155.72 C 254.65 158.65 257.27 160.42 259.08 162.43 C 256.06 162.83 252.00 164.17 250.01 160.97 C 245.90 154.38 251.30 147.02 250.24 140.05 C 249.94 137.28 247.59 135.55 245.75 133.75 C 243.27 138.32 240.90 142.95 237.98 147.26 C 240.64 149.47 244.07 151.58 244.63 155.30 C 245.51 160.26 242.28 164.56 241.26 169.21 C 240.41 173.35 242.71 177.17 244.01 180.94 C 240.23 180.46 235.88 178.77 235.28 174.47 C 233.65 168.08 240.77 164.04 240.66 157.85 C 241.18 154.43 239.50 151.30 237.34 148.79 C 234.12 152.37 231.05 156.08 227.98 159.79 C 229.48 162.91 231.29 166.22 230.68 169.81 C 230.20 174.18 226.42 177.45 226.16 181.83 C 226.84 186.47 232.02 187.97 235.42 190.23 C 229.53 191.51 221.78 189.23 220.26 182.72 C 219.64 176.31 227.04 172.94 227.96 166.95 C 227.96 165.01 227.35 163.14 226.96 161.26 C 220.62 165.72 215.29 172.34 214.00 180.15 C 213.13 185.73 216.28 191.06 220.47 194.51 C 226.96 199.94 234.99 203.03 242.72 206.24 C 249.23 208.75 255.53 211.98 262.44 213.29 C 271.20 215.00 280.20 215.08 288.93 217.03 C 297.61 218.97 306.12 221.87 314.05 225.94 C 320.79 229.47 327.32 234.25 330.87 241.17 C 335.49 249.98 335.66 260.41 333.87 270.00 C 331.13 283.61 324.48 296.75 313.90 305.93 C 312.35 307.18 311.43 308.98 311.05 310.91 C 307.89 324.15 310.24 338.42 316.64 350.35 C 318.91 354.65 320.56 360.23 317.58 364.62 C 313.89 370.48 306.78 372.20 300.86 374.90 C 293.61 377.71 287.15 382.23 281.53 387.56 C 277.39 391.58 275.53 397.36 271.30 401.30 C 267.99 404.17 263.52 401.98 259.97 400.85 C 255.90 404.59 252.60 409.11 250.52 414.25 C 244.36 411.49 237.60 410.90 231.09 409.44 C 234.57 405.61 239.37 403.49 243.51 400.52 C 245.80 398.70 248.89 400.07 251.54 399.79 C 249.09 398.53 246.56 397.46 244.12 396.21 C 246.17 393.55 248.68 391.28 251.54 389.53 C 260.97 383.50 271.04 378.54 280.36 372.32 C 285.20 369.00 290.17 365.19 292.58 359.65 C 294.37 355.71 293.70 351.08 291.60 347.39 C 288.04 341.12 284.80 334.53 279.74 329.28 C 273.19 322.08 264.41 317.35 258.00 310.00 C 253.48 304.86 250.69 298.40 249.29 291.75 C 248.13 285.62 246.85 279.07 248.98 273.01 C 251.15 266.94 256.71 262.97 262.26 260.19 C 265.44 258.43 269.02 257.13 271.58 254.45 C 273.29 252.72 272.15 250.20 271.88 248.15 C 270.95 250.36 271.02 253.34 268.75 254.73 C 263.88 257.95 258.17 259.83 253.71 263.71 C 250.45 266.28 248.45 269.99 246.71 273.67 C 231.32 269.43 215.25 269.58 199.56 267.31 C 193.42 266.57 187.80 263.80 181.78 262.63 C 185.48 265.76 190.28 266.99 194.89 268.07 C 205.81 270.47 217.04 270.50 228.09 271.89 C 234.27 272.60 240.37 273.84 246.43 275.19 C 246.29 277.57 246.19 279.96 246.09 282.35 C 225.85 277.66 204.97 277.16 184.55 273.57 C 173.28 271.56 162.19 267.79 152.68 261.30 C 156.83 262.49 161.11 264.45 165.50 263.40 C 168.87 262.64 171.25 259.94 173.71 257.72 C 176.85 254.67 180.38 251.91 182.62 248.07 C 176.99 251.07 173.31 256.51 168.30 260.30 C 164.83 262.91 160.09 262.10 156.32 260.65 C 150.66 258.38 144.88 256.14 138.75 255.59 C 129.64 254.72 120.32 255.04 111.47 252.40 C 105.51 250.79 100.27 246.84 93.96 246.48 C 89.83 246.07 85.48 247.52 82.76 250.73 C 75.50 259.22 72.13 270.06 67.09 279.85 C 64.77 279.93 62.44 280.06 60.12 280.25 C 59.18 284.77 58.76 289.37 58.25 293.95 C 51.27 294.64 44.62 297.00 37.71 298.03 C 38.72 291.13 43.18 285.58 47.22 280.18 C 49.58 277.41 49.20 273.35 51.58 270.59 C 56.87 264.23 63.12 258.69 67.99 251.98 C 72.50 245.87 70.71 237.18 75.06 231.09 C 79.70 228.28 84.94 224.08 90.67 226.24 C 103.44 230.34 116.74 224.21 129.66 227.20 C 135.38 228.10 140.10 231.68 145.52 233.45 C 142.07 229.38 136.82 227.91 132.24 225.58 C 135.63 225.16 139.16 224.61 142.50 225.64 C 146.16 226.75 149.66 228.54 153.55 228.75 C 150.45 226.18 146.60 224.91 142.85 223.65 C 143.10 219.08 143.53 214.45 145.11 210.12 C 149.11 197.96 160.24 188.41 173.04 186.92 C 178.53 185.89 183.83 188.03 189.19 188.82 C 184.73 185.14 178.58 184.65 173.05 185.27 C 162.16 186.50 152.21 193.26 146.73 202.70 C 142.96 208.87 141.45 216.10 141.14 223.25 C 136.26 222.98 131.60 224.43 126.91 225.54 C 123.86 218.95 121.00 211.69 122.45 204.30 C 123.52 198.93 124.57 193.53 124.47 188.02 C 124.38 181.92 126.68 175.96 130.81 171.47 C 129.65 176.13 128.03 180.87 129.13 185.73 C 130.95 177.65 133.18 169.56 137.28 162.30 C 139.98 158.10 145.56 157.50 148.79 153.84 C 156.67 145.45 168.50 143.10 177.78 136.78 C 186.00 131.13 194.17 125.29 201.12 118.09 C 203.22 115.44 206.93 116.54 209.85 115.95 C 223.14 114.94 234.82 102.33 233.77 88.85 C 231.41 93.12 230.98 98.18 228.36 102.34 C 223.87 110.29 214.35 115.56 205.21 113.90 C 201.58 113.36 198.58 111.06 195.13 110.06 C 187.02 112.24 178.91 114.78 171.25 118.28 C 165.77 120.57 163.70 126.97 158.50 129.59 C 153.78 130.39 149.14 128.15 144.95 126.21 C 150.92 124.25 157.80 121.51 160.09 115.08 C 159.61 113.66 158.84 112.37 158.16 111.05 C 153.45 115.25 148.98 120.26 142.53 121.64 C 140.58 117.75 134.76 117.48 134.16 112.80 C 133.47 109.08 133.71 105.27 133.32 101.52 C 137.99 99.78 142.88 98.60 147.40 96.46 C 158.18 91.60 167.21 83.66 175.04 74.93 C 177.26 75.96 179.50 76.94 181.75 77.91 C 173.85 89.03 161.90 96.02 151.16 103.98 C 160.76 100.63 168.69 93.86 175.98 86.97 C 181.29 81.96 185.53 75.31 192.67 72.69 C 198.87 70.05 205.64 71.69 212.11 71.62 C 206.80 69.39 200.78 68.71 195.15 70.02 C 190.74 71.05 187.04 73.83 182.80 75.27 C 179.65 76.20 176.84 73.88 174.26 72.45 C 176.66 68.92 180.12 66.37 183.38 63.69 C 181.46 62.94 179.47 62.33 177.62 61.40 C 174.90 59.86 173.48 56.72 170.67 55.30 C 168.55 55.20 166.53 55.99 164.50 56.42 C 165.87 54.84 166.77 52.13 169.22 52.11 C 174.61 51.75 177.26 57.86 182.26 58.69 C 185.44 59.24 188.66 58.58 191.79 58.02 C 188.59 56.23 185.07 55.15 181.77 53.58 C 181.34 53.25 180.48 52.60 180.05 52.27 C 183.50 50.45 187.15 52.16 190.31 53.71 C 195.28 56.20 201.00 55.37 206.36 55.54 C 204.34 48.26 202.96 40.57 204.80 33.08 M 208.20 39.48 C 208.70 42.06 210.20 44.19 212.07 45.97 C 215.27 48.99 214.92 53.72 215.75 57.69 C 216.90 54.69 218.14 51.37 217.00 48.18 C 215.60 44.09 211.93 41.33 208.20 39.48 M 190.22 80.39 C 191.94 80.49 193.66 80.61 195.38 80.75 C 195.55 82.97 195.46 85.19 195.35 87.41 C 196.88 86.57 198.92 86.21 199.85 84.61 C 201.22 82.67 199.55 80.48 199.18 78.49 C 202.81 77.48 206.60 77.52 210.33 77.23 C 203.65 75.97 195.09 74.29 190.22 80.39 M 228.48 75.31 C 228.08 79.36 228.52 83.50 227.54 87.49 C 226.16 93.74 222.20 99.42 216.63 102.62 C 213.57 104.39 210.03 104.99 206.69 105.99 C 212.93 106.49 219.26 104.16 223.40 99.41 C 229.35 93.05 231.14 83.53 228.48 75.31 M 142.46 107.12 C 144.06 107.27 145.65 107.44 147.25 107.62 C 147.37 109.18 147.50 110.74 147.61 112.31 C 149.17 110.93 152.08 109.13 150.35 106.75 C 148.27 104.10 144.72 105.54 142.46 107.12 M 163.90 104.56 C 165.10 106.38 166.81 107.94 167.46 110.07 C 168.08 113.71 165.38 116.65 164.07 119.80 C 167.18 117.23 170.09 113.33 169.25 109.07 C 168.71 106.48 165.98 105.59 163.90 104.56 M 205.68 200.65 C 210.12 199.65 212.85 195.34 214.11 191.26 C 210.79 193.88 208.66 197.67 205.68 200.65 M 209.40 206.41 C 213.45 204.52 215.87 200.31 216.58 196.02 C 213.73 199.13 211.60 202.84 209.40 206.41 M 212.91 211.70 C 217.00 209.66 218.84 204.96 219.08 200.62 C 216.63 204.08 215.02 208.04 212.91 211.70 M 79.76 238.87 C 81.50 237.32 82.66 235.13 84.68 233.91 C 86.84 233.18 89.17 233.38 91.39 232.95 C 86.82 229.65 79.81 233.25 79.76 238.87 M 161.75 254.61 C 156.81 255.44 152.51 252.24 147.88 251.15 C 142.61 249.85 137.16 248.06 131.68 248.94 C 135.33 250.77 139.54 250.56 143.42 251.62 C 148.16 252.51 152.52 254.64 157.12 256.00 C 163.18 257.74 169.39 253.32 171.51 247.76 C 168.09 249.81 165.86 253.83 161.75 254.61 M 324.86 265.01 C 324.24 270.13 321.84 274.77 320.65 279.75 C 323.57 277.42 324.34 273.61 325.37 270.23 C 326.58 265.25 327.69 260.09 327.03 254.94 C 325.08 257.94 325.63 261.66 324.86 265.01 M 312.28 293.29 C 309.80 296.54 305.92 298.27 303.28 301.36 C 311.26 299.01 317.04 291.36 319.09 283.54 C 316.08 286.25 314.91 290.29 312.28 293.29 M 311.57 358.05 C 310.53 365.17 301.81 364.94 297.65 369.27 C 301.61 368.51 305.44 366.97 308.86 364.83 C 311.68 362.90 314.44 358.98 312.38 355.60 C 309.96 351.17 308.70 346.27 306.65 341.69 C 305.52 347.59 309.90 352.67 311.57 358.05 Z" />
<path fill="#fefefe" opacity="1.00" d=" M 193.06 40.28 C 198.46 43.14 201.75 48.46 204.29 53.82 C 199.59 53.95 194.76 54.02 190.31 52.26 C 190.72 48.17 191.60 44.13 193.06 40.28 Z" />
<path fill="#fefefe" opacity="1.00" d=" M 317.53 137.53 C 325.26 129.50 338.51 127.15 348.29 132.75 C 357.25 137.28 364.13 147.22 362.35 157.54 C 360.34 168.94 353.25 178.49 349.27 189.17 C 352.21 188.50 355.15 187.49 357.47 185.49 C 365.31 179.17 369.69 169.89 374.24 161.16 C 374.44 171.70 369.87 182.02 362.21 189.21 C 357.96 193.83 351.69 197.09 349.90 203.51 C 354.08 202.88 358.39 201.00 362.63 202.38 C 365.46 203.26 367.30 205.73 369.20 207.83 C 365.60 207.56 361.82 206.77 358.37 208.25 C 353.94 209.96 349.96 214.05 349.87 219.01 C 349.87 221.77 351.89 223.83 353.58 225.77 C 355.57 221.72 359.30 218.32 364.01 218.20 C 366.77 217.92 368.86 219.97 370.88 221.52 C 367.82 222.30 364.13 222.27 361.92 224.90 C 359.90 226.91 359.65 230.25 361.30 232.58 C 364.90 238.57 368.91 244.79 369.26 251.99 C 369.57 258.26 366.50 263.93 363.81 269.38 C 366.46 270.60 370.58 271.52 370.55 275.18 C 370.26 280.74 367.74 286.00 368.14 291.67 C 364.36 288.09 367.47 282.68 365.68 278.45 C 364.11 275.56 360.39 275.89 357.63 275.19 C 349.52 273.86 342.45 269.21 336.51 263.75 C 336.59 260.80 336.59 257.86 336.49 254.92 C 339.69 258.03 343.52 262.16 348.48 260.70 C 353.96 259.64 356.62 252.39 352.85 248.16 C 345.21 239.07 336.37 230.47 331.95 219.21 C 329.35 212.88 330.39 205.76 332.63 199.49 C 337.26 186.79 346.44 176.53 352.62 164.65 C 354.38 161.13 356.46 157.31 355.67 153.24 C 354.90 148.25 350.27 143.92 345.08 144.31 C 341.04 144.39 336.39 147.52 336.63 151.93 C 337.22 155.68 341.68 155.80 344.56 156.65 C 342.87 158.26 341.18 160.25 338.70 160.52 C 335.07 161.02 331.61 159.47 328.11 158.78 C 330.43 163.17 332.82 167.81 332.52 172.93 C 332.46 178.79 330.24 184.37 327.42 189.42 C 327.46 183.67 327.78 177.75 325.69 172.27 C 324.11 173.59 322.63 175.12 322.16 177.18 C 321.20 180.58 319.58 183.71 317.88 186.79 C 315.14 191.95 315.67 197.94 315.63 203.57 C 310.01 198.15 311.13 189.97 311.66 182.95 C 308.52 184.90 305.31 186.88 301.61 187.50 C 309.70 178.41 310.23 165.60 311.48 154.11 C 311.75 148.14 313.17 141.90 317.53 137.53 Z" />
<path fill="#fefefe" opacity="1.00" d=" M 75.58 162.57 C 77.83 160.25 81.34 160.08 84.32 159.40 C 88.19 158.74 91.18 161.87 93.87 164.14 C 102.42 172.34 112.76 178.26 122.84 184.34 C 122.77 188.36 122.90 192.41 122.23 196.40 C 121.51 201.19 119.89 205.95 120.47 210.85 C 120.86 215.12 122.53 219.10 123.76 223.17 C 113.86 215.12 105.29 205.54 97.46 195.49 C 95.07 192.51 93.19 189.16 90.75 186.21 C 88.31 183.34 83.67 182.18 80.49 184.53 C 74.65 188.74 70.42 194.77 67.17 201.10 C 65.81 203.48 64.84 206.16 62.90 208.15 C 60.59 208.29 58.32 207.82 56.04 207.58 C 54.79 211.27 53.72 215.01 52.61 218.74 C 46.10 219.37 39.85 221.38 33.47 222.73 C 34.05 216.27 39.53 212.00 43.02 207.02 C 45.43 204.37 45.48 200.53 47.62 197.72 C 53.14 189.98 60.20 183.50 67.47 177.44 C 70.83 172.88 72.25 167.16 75.58 162.57 M 77.45 166.88 C 77.95 171.76 83.94 174.15 87.76 171.15 C 85.72 170.79 83.61 170.93 81.61 170.35 C 80.14 169.30 78.87 167.99 77.45 166.88 Z" />
<path fill="#fefefe" opacity="1.00" d=" M 34.53 224.48 C 40.41 222.66 46.38 220.96 52.55 220.61 C 52.82 224.06 53.26 227.98 50.86 230.84 C 46.47 236.42 40.94 241.11 34.75 244.58 C 33.20 238.01 32.47 231.03 34.53 224.48 Z" />
<path fill="#fefefe" opacity="1.00" d=" M 221.91 280.04 C 230.15 280.86 238.31 282.32 246.38 284.15 C 247.22 291.49 248.83 298.92 252.64 305.34 C 256.21 311.57 261.77 316.31 267.41 320.61 C 268.82 321.88 270.96 322.98 270.84 325.18 C 271.71 330.71 267.60 335.53 263.02 337.99 C 255.89 341.58 247.98 343.71 241.49 348.51 C 237.17 351.74 232.62 354.99 229.71 359.64 C 227.39 362.97 225.73 366.95 222.41 369.46 C 219.04 371.54 215.09 369.73 211.81 368.43 C 207.61 372.14 204.22 376.75 202.27 382.03 C 196.16 379.07 189.34 378.55 182.77 377.25 C 186.35 372.75 192.06 370.96 196.40 367.35 C 198.67 367.20 200.95 367.64 203.22 367.32 C 200.83 366.16 198.32 365.27 195.95 364.07 C 197.59 362.02 199.40 360.08 201.58 358.61 C 213.35 350.55 226.65 344.81 237.72 335.73 C 242.56 331.70 247.19 325.09 244.49 318.58 C 241.18 311.32 234.50 306.43 229.95 300.02 C 225.42 294.28 222.63 287.30 221.91 280.04 Z" />
<path fill="#fefefe" opacity="1.00" d=" M 40.26 299.61 C 46.12 297.97 52.00 296.23 58.10 295.84 C 58.43 299.14 58.88 302.88 56.74 305.72 C 52.40 311.52 46.67 316.24 40.41 319.86 C 38.79 313.25 38.06 306.17 40.26 299.61 Z" />
<path fill="#fefefe" opacity="1.00" d=" M 173.71 396.60 C 174.87 389.97 178.72 384.26 183.04 379.26 C 189.74 380.24 197.19 380.40 202.73 384.81 C 197.30 394.99 184.39 398.09 173.71 396.60 Z" />
<path fill="#fefefe" opacity="1.00" d=" M 231.24 411.86 C 238.01 412.07 245.28 413.05 251.02 416.96 C 245.77 427.23 232.63 430.62 221.97 428.80 C 223.34 422.41 226.76 416.56 231.24 411.86 Z" />
</g>
<g id="#bb5857ff">
<path fill="#bb5857" opacity="1.00" d=" M 228.25 56.92 C 231.33 58.44 234.13 60.48 236.42 63.05 C 232.91 61.98 229.47 60.67 226.01 59.45 C 226.76 58.60 227.50 57.76 228.25 56.92 Z" />
</g>
<g id="#363435ff">
<path fill="#363435" opacity="1.00" d=" M 190.22 80.39 C 195.09 74.29 203.65 75.97 210.33 77.23 C 206.60 77.52 202.81 77.48 199.18 78.49 C 199.55 80.48 201.22 82.67 199.85 84.61 C 198.92 86.21 196.88 86.57 195.35 87.41 C 195.46 85.19 195.55 82.97 195.38 80.75 C 193.66 80.61 191.94 80.49 190.22 80.39 Z" />
</g>
<g id="#d24a4cff">
<path fill="#d24a4c" opacity="1.00" d=" M 252.36 91.53 C 255.34 95.41 256.95 100.06 258.58 104.61 C 256.97 103.55 255.25 102.58 253.92 101.17 C 252.59 98.16 252.62 94.76 252.36 91.53 Z" />
</g>
<g id="#4d5b78ff">
<path fill="#4d5b78" opacity="1.00" d=" M 399.95 107.17 L 400.00 106.15 L 400.00 257.27 C 397.95 284.47 391.60 311.41 380.30 336.28 C 365.17 370.02 341.78 399.80 313.51 423.54 C 288.43 444.55 259.58 461.35 228.35 471.31 C 219.39 474.31 210.07 475.89 200.88 478.00 L 200.17 478.00 C 193.88 476.09 187.40 474.83 181.10 472.95 C 155.04 465.32 130.26 453.46 107.72 438.35 C 80.13 419.85 55.90 396.12 37.79 368.21 C 15.22 333.83 2.93 293.20 0.83 252.24 C 1.26 251.59 2.11 250.29 2.53 249.65 C 4.39 293.15 17.78 336.38 42.74 372.23 C 61.17 399.05 85.34 421.71 112.63 439.33 C 138.17 455.80 166.45 468.21 196.14 474.86 C 199.64 475.74 203.29 475.51 206.79 474.78 C 232.18 469.94 256.30 459.65 278.38 446.36 C 308.87 427.97 335.77 403.47 356.36 374.37 C 383.13 336.86 398.01 291.11 398.55 245.04 C 398.64 213.46 398.35 181.89 398.52 150.32 C 400.69 136.01 398.47 121.53 399.95 107.17 Z" />
</g>
<g id="#f9434aff">
<path fill="#f9434a" opacity="1.00" d=" M 250.22 124.54 C 254.23 128.32 255.89 133.65 257.05 138.87 C 254.34 135.87 251.33 133.15 248.06 130.77 C 248.77 128.69 249.48 126.61 250.22 124.54 Z" />
</g>
</svg>
