<?xml version="1.0" encoding="UTF-8" standalone="no"?>
<svg
   xmlns:dc="http://purl.org/dc/elements/1.1/"
   xmlns:cc="http://creativecommons.org/ns#"
   xmlns:rdf="http://www.w3.org/1999/02/22-rdf-syntax-ns#"
   xmlns:svg="http://www.w3.org/2000/svg"
   xmlns="http://www.w3.org/2000/svg"
   viewBox="0 0 816 1056"
   height="1056"
   width="816"
   xml:space="preserve"
   id="svg2"
   version="1.1"><metadata
     id="metadata8"><rdf:RDF><cc:Work
         rdf:about=""><dc:format>image/svg+xml</dc:format><dc:type
           rdf:resource="http://purl.org/dc/dcmitype/StillImage" /></cc:Work></rdf:RDF></metadata><defs
     id="defs6"><clipPath
       id="clipPath18"
       clipPathUnits="userSpaceOnUse"><path
         id="path16"
         d="m 623.883,1243.371 h 33.999 v 40.724 h -33.999 z" /></clipPath><clipPath
       id="clipPath30"
       clipPathUnits="userSpaceOnUse"><path
         id="path28"
         d="m 623.883,1243.371 h 33.999 v 40.724 h -33.999 z" /></clipPath><clipPath
       id="clipPath42"
       clipPathUnits="userSpaceOnUse"><path
         id="path40"
         d="m 623.883,1243.371 h 33.999 v 40.724 h -33.999 z" /></clipPath><clipPath
       id="clipPath54"
       clipPathUnits="userSpaceOnUse"><path
         id="path52"
         d="m 623.883,1243.371 h 33.999 v 40.724 h -33.999 z" /></clipPath><clipPath
       id="clipPath66"
       clipPathUnits="userSpaceOnUse"><path
         id="path64"
         d="m 623.883,1243.371 h 33.999 v 40.724 h -33.999 z" /></clipPath><clipPath
       id="clipPath78"
       clipPathUnits="userSpaceOnUse"><path
         id="path76"
         d="m 623.883,1243.371 h 33.999 v 40.724 h -33.999 z" /></clipPath><clipPath
       id="clipPath90"
       clipPathUnits="userSpaceOnUse"><path
         id="path88"
         d="m 623.883,1243.371 h 33.999 v 40.724 h -33.999 z" /></clipPath><clipPath
       id="clipPath102"
       clipPathUnits="userSpaceOnUse"><path
         id="path100"
         d="m 623.883,1243.371 h 33.999 v 40.724 h -33.999 z" /></clipPath><clipPath
       id="clipPath114"
       clipPathUnits="userSpaceOnUse"><path
         id="path112"
         d="m 623.883,1243.371 h 33.999 v 40.724 h -33.999 z" /></clipPath><clipPath
       id="clipPath126"
       clipPathUnits="userSpaceOnUse"><path
         id="path124"
         d="m 623.883,1243.371 h 33.999 v 40.724 h -33.999 z" /></clipPath><clipPath
       id="clipPath138"
       clipPathUnits="userSpaceOnUse"><path
         id="path136"
         d="m 623.883,1243.371 h 33.999 v 40.724 h -33.999 z" /></clipPath><clipPath
       id="clipPath150"
       clipPathUnits="userSpaceOnUse"><path
         id="path148"
         d="m 623.883,1243.371 h 33.999 v 40.724 h -33.999 z" /></clipPath><clipPath
       id="clipPath162"
       clipPathUnits="userSpaceOnUse"><path
         id="path160"
         d="m 623.883,1243.371 h 33.999 v 40.724 h -33.999 z" /></clipPath><clipPath
       id="clipPath174"
       clipPathUnits="userSpaceOnUse"><path
         id="path172"
         d="m 623.883,1243.371 h 33.999 v 40.724 h -33.999 z" /></clipPath><clipPath
       id="clipPath186"
       clipPathUnits="userSpaceOnUse"><path
         id="path184"
         d="m 623.883,1243.371 h 33.999 v 40.724 h -33.999 z" /></clipPath><clipPath
       id="clipPath198"
       clipPathUnits="userSpaceOnUse"><path
         id="path196"
         d="m 623.883,1243.371 h 33.999 v 40.724 h -33.999 z" /></clipPath><clipPath
       id="clipPath210"
       clipPathUnits="userSpaceOnUse"><path
         id="path208"
         d="m 623.883,1243.371 h 33.999 v 40.724 h -33.999 z" /></clipPath><clipPath
       id="clipPath222"
       clipPathUnits="userSpaceOnUse"><path
         id="path220"
         d="m 623.883,1243.371 h 33.999 v 40.724 h -33.999 z" /></clipPath><clipPath
       id="clipPath234"
       clipPathUnits="userSpaceOnUse"><path
         id="path232"
         d="m 623.883,1243.371 h 33.999 v 40.724 h -33.999 z" /></clipPath><clipPath
       id="clipPath246"
       clipPathUnits="userSpaceOnUse"><path
         id="path244"
         d="m 623.883,1243.371 h 33.999 v 40.724 h -33.999 z" /></clipPath><clipPath
       id="clipPath258"
       clipPathUnits="userSpaceOnUse"><path
         id="path256"
         d="m 623.883,1243.371 h 33.999 v 40.724 h -33.999 z" /></clipPath><clipPath
       id="clipPath270"
       clipPathUnits="userSpaceOnUse"><path
         id="path268"
         d="m 623.883,1243.371 h 33.999 v 40.724 h -33.999 z" /></clipPath></defs><g
     transform="matrix(1.3333333,0,0,-1.3333333,0,1056)"
     id="g10"><g
       transform="matrix(16.915085,0,0,16.915085,-10538.068,-20940.25)"
       id="g12"><g
         clip-path="url(#clipPath18)"
         id="g14"><g
           transform="translate(640.87049,1244.9378)"
           id="g20"><path
             id="path22"
             style="fill:#009e5a;fill-opacity:1;fill-rule:evenodd;stroke:none"
             d="M 0,0 C -8.394,1.634 -14.653,8.719 -15.372,17.123 H 15.374 C 14.653,8.58 8.264,1.608 0,0" /></g></g></g><g
       transform="matrix(16.915085,0,0,16.915085,-10538.068,-20940.25)"
       id="g24"><g
         clip-path="url(#clipPath30)"
         id="g26"><g
           transform="translate(625.49771,1262.0604)"
           id="g32"><path
             id="path34"
             style="fill:#1a68bb;fill-opacity:1;fill-rule:evenodd;stroke:none"
             d="M 0,0 C -0.002,0.007 -0.002,0.014 -0.002,0.02 -0.047,0.551 -0.071,1.084 -0.071,1.622 V 20.481 H 30.816 V 1.619 1.614 c 0,-0.543 -0.023,-1.082 -0.068,-1.612 l 0,-0.002 z" /></g></g></g><g
       transform="matrix(16.915085,0,0,16.915085,-10538.068,-20940.25)"
       id="g36"><g
         clip-path="url(#clipPath42)"
         id="g38"><g
           transform="translate(625.49771,1262.0604)"
           id="g44"><path
             id="path46"
             style="fill:#ffffff;fill-opacity:1;fill-rule:evenodd;stroke:none"
             d="m 0,0 c -0.012,0.142 -0.023,0.284 -0.032,0.425 v 1.632 0.209 3.494 0.148 2.55 h 30.81 V 5.908 5.76 2.266 2.057 0.411 C 30.771,0.274 30.76,0.136 30.748,0 h -1.215 l 0.142,2.007 c 0,0.017 0,0.032 0.002,0.05 h -0.13 c -0.057,0 -0.104,0.047 -0.104,0.105 0,0.057 0.047,0.104 0.104,0.104 h 0.117 c -0.102,0.749 -0.871,1.328 -1.736,1.328 -0.864,0 -1.633,-0.579 -1.736,-1.328 h 0.117 c 0.057,0 0.104,-0.047 0.104,-0.104 0,-0.057 -0.047,-0.105 -0.104,-0.105 H 26.18 c 0.001,-0.018 0.001,-0.033 0.003,-0.05 L 26.32,0 h -1.806 l 0.14,2.007 c 0.002,0.017 0.002,0.032 0.003,0.05 h -0.131 c -0.057,0 -0.106,0.047 -0.106,0.105 0,0.057 0.049,0.104 0.106,0.104 h 0.119 c -0.101,0.749 -0.872,1.328 -1.736,1.328 -0.865,0 -1.635,-0.579 -1.737,-1.328 h 0.114 c 0.058,0 0.106,-0.047 0.106,-0.104 0,-0.057 -0.048,-0.105 -0.106,-0.105 H 21.16 c 0,-0.018 0.002,-0.033 0.004,-0.05 L 21.3,0 h -1.809 l 0.14,2.007 c 0.002,0.017 0.002,0.032 0.004,0.05 h -0.132 c -0.057,0 -0.104,0.047 -0.104,0.105 0,0.057 0.047,0.104 0.104,0.104 h 0.119 c -0.102,0.749 -0.871,1.328 -1.736,1.328 -0.865,0 -1.635,-0.579 -1.736,-1.328 h 0.115 c 0.058,0 0.104,-0.047 0.104,-0.104 0,-0.057 -0.046,-0.105 -0.104,-0.105 h -0.128 c 0,-0.018 0.002,-0.033 0.003,-0.05 L 16.278,0 h -1.81 l 0.14,2.007 c 0.002,0.017 0.002,0.032 0.004,0.05 h -0.131 c -0.058,0 -0.104,0.047 -0.104,0.105 0,0.057 0.046,0.104 0.104,0.104 h 0.118 c -0.102,0.749 -0.871,1.328 -1.736,1.328 -0.864,0 -1.635,-0.579 -1.736,-1.328 h 0.115 c 0.058,0 0.104,-0.047 0.104,-0.104 0,-0.057 -0.046,-0.105 -0.104,-0.105 h -0.127 c 0,-0.018 10e-4,-0.033 0.003,-0.05 L 11.255,0 h -1.81 l 0.141,2.007 c 10e-4,0.017 10e-4,0.032 0.003,0.05 h -0.13 c -0.057,0 -0.105,0.047 -0.105,0.105 0,0.057 0.048,0.104 0.105,0.104 H 9.577 C 9.474,3.015 8.705,3.594 7.84,3.594 6.976,3.594 6.207,3.015 6.103,2.266 H 6.22 C 6.279,2.266 6.325,2.219 6.325,2.162 6.325,2.105 6.277,2.057 6.22,2.057 H 6.092 c 0,-0.018 0.002,-0.033 0.002,-0.05 L 6.232,0 H 4.423 l 0.14,2.007 c 0.001,0.017 0.001,0.032 0.003,0.05 H 4.437 c -0.058,0 -0.104,0.047 -0.104,0.105 0,0.057 0.046,0.104 0.104,0.104 H 4.554 C 4.452,3.015 3.682,3.594 2.818,3.594 1.952,3.594 1.185,3.015 1.081,2.266 h 0.118 c 0.057,0 0.104,-0.047 0.104,-0.104 0,-0.057 -0.047,-0.105 -0.104,-0.105 H 1.068 C 1.07,2.039 1.07,2.024 1.07,2.007 L 1.209,0 Z m 25.416,7.505 c 0.182,0 0.329,-0.148 0.329,-0.328 0,-0.181 -0.147,-0.329 -0.329,-0.329 -0.179,0 -0.326,0.148 -0.326,0.329 0,0.18 0.147,0.328 0.326,0.328 m -5.02,0 c 0.18,0 0.326,-0.148 0.326,-0.328 0,-0.181 -0.146,-0.329 -0.326,-0.329 -0.181,0 -0.329,0.148 -0.329,0.329 0,0.18 0.148,0.328 0.329,0.328 m -5.024,0 c 0.182,0 0.329,-0.148 0.329,-0.328 0,-0.181 -0.147,-0.329 -0.329,-0.329 -0.181,0 -0.328,0.148 -0.328,0.329 0,0.18 0.147,0.328 0.328,0.328 m -5.022,0 c 0.181,0 0.328,-0.148 0.328,-0.328 0,-0.181 -0.147,-0.329 -0.328,-0.329 -0.18,0 -0.326,0.148 -0.326,0.329 0,0.18 0.146,0.328 0.326,0.328 m -5.021,0 C 5.508,7.505 5.656,7.357 5.656,7.177 5.656,6.996 5.508,6.848 5.329,6.848 5.147,6.848 5,6.996 5,7.177 5,7.357 5.147,7.505 5.329,7.505 M 0.875,5.908 H 1.019 C 1.058,5.908 1.093,5.876 1.093,5.834 1.093,5.792 1.058,5.76 1.019,5.76 H 0.875 L 0.879,4.02 H 4.753 L 4.757,5.76 H 4.616 c -0.042,0 -0.074,0.032 -0.074,0.074 0,0.042 0.032,0.074 0.074,0.074 H 4.759 V 5.936 C 4.759,6.81 3.887,7.524 2.818,7.524 1.749,7.524 0.875,6.81 0.875,5.936 Z m 5.023,0 H 6.042 C 6.081,5.908 6.116,5.876 6.116,5.834 6.116,5.792 6.081,5.76 6.042,5.76 H 5.898 L 5.901,4.02 H 9.776 L 9.781,5.76 H 9.638 c -0.04,0 -0.073,0.032 -0.073,0.074 0,0.042 0.033,0.074 0.073,0.074 H 9.781 V 5.936 C 9.781,6.81 8.909,7.524 7.84,7.524 6.77,7.524 5.898,6.81 5.898,5.936 Z m 5.023,0 h 0.142 c 0.041,0 0.074,-0.032 0.074,-0.074 0,-0.042 -0.033,-0.074 -0.074,-0.074 h -0.142 l 0.001,-1.74 h 3.875 l 0.007,1.74 H 14.66 c -0.039,0 -0.075,0.032 -0.075,0.074 0,0.042 0.036,0.074 0.075,0.074 h 0.144 v 0.028 c 0,0.874 -0.872,1.588 -1.943,1.588 -1.069,0 -1.94,-0.714 -1.94,-1.588 z m 5.021,0 h 0.143 c 0.04,0 0.074,-0.032 0.074,-0.074 0,-0.042 -0.034,-0.074 -0.074,-0.074 h -0.143 l 0.003,-1.74 h 3.875 l 0.005,1.74 h -0.142 c -0.041,0 -0.074,0.032 -0.074,0.074 0,0.042 0.033,0.074 0.074,0.074 h 0.142 l 0.002,0.028 c 0,0.874 -0.874,1.588 -1.943,1.588 -1.069,0 -1.942,-0.714 -1.942,-1.588 z m 5.023,0 h 0.143 c 0.04,0 0.073,-0.032 0.073,-0.074 0,-0.042 -0.033,-0.074 -0.073,-0.074 h -0.143 l 0.001,-1.74 h 3.877 l 0.005,1.74 h -0.144 c -0.039,0 -0.072,0.032 -0.072,0.074 0,0.042 0.033,0.074 0.072,0.074 h 0.144 v 0.028 c 0,0.874 -0.872,1.588 -1.943,1.588 -1.069,0 -1.94,-0.714 -1.94,-1.588 z m 5.022,0 h 0.142 c 0.042,0 0.074,-0.032 0.074,-0.074 0,-0.042 -0.032,-0.074 -0.074,-0.074 h -0.142 l 0.002,-1.74 h 3.875 l 0.007,1.74 h -0.144 c -0.04,0 -0.074,0.032 -0.074,0.074 0,0.042 0.034,0.074 0.074,0.074 h 0.144 v 0.028 c 0,0.874 -0.874,1.588 -1.943,1.588 -1.069,0 -1.942,-0.714 -1.942,-1.588 z" /></g></g></g><g
       transform="matrix(16.915085,0,0,16.915085,-10538.068,-20940.25)"
       id="g48"><g
         clip-path="url(#clipPath54)"
         id="g50"><g
           transform="translate(625.49771,1262.0604)"
           id="g56"><path
             id="path58"
             style="fill:none;stroke:#231f20;stroke-width:0.113;stroke-linecap:butt;stroke-linejoin:miter;stroke-miterlimit:2.61299992;stroke-dasharray:none;stroke-opacity:1"
             d="m 0,0 c -0.012,0.142 -0.023,0.284 -0.032,0.425 v 1.632 0.209 3.494 0.148 2.55 h 30.81 V 5.908 5.76 2.266 2.057 0.411 C 30.771,0.274 30.76,0.136 30.748,0 h -1.215 l 0.142,2.007 c 0,0.017 0,0.032 0.002,0.05 h -0.13 c -0.057,0 -0.104,0.047 -0.104,0.105 0,0.057 0.047,0.104 0.104,0.104 h 0.117 c -0.102,0.749 -0.871,1.328 -1.736,1.328 -0.864,0 -1.633,-0.579 -1.736,-1.328 h 0.117 c 0.057,0 0.104,-0.047 0.104,-0.104 0,-0.057 -0.047,-0.105 -0.104,-0.105 H 26.18 c 0.001,-0.018 0.001,-0.033 0.003,-0.05 L 26.32,0 h -1.806 l 0.14,2.007 c 0.002,0.017 0.002,0.032 0.003,0.05 h -0.131 c -0.057,0 -0.106,0.047 -0.106,0.105 0,0.057 0.049,0.104 0.106,0.104 h 0.119 c -0.101,0.749 -0.872,1.328 -1.736,1.328 -0.865,0 -1.635,-0.579 -1.737,-1.328 h 0.114 c 0.058,0 0.106,-0.047 0.106,-0.104 0,-0.057 -0.048,-0.105 -0.106,-0.105 H 21.16 c 0,-0.018 0.002,-0.033 0.004,-0.05 L 21.3,0 h -1.809 l 0.14,2.007 c 0.002,0.017 0.002,0.032 0.004,0.05 h -0.132 c -0.057,0 -0.104,0.047 -0.104,0.105 0,0.057 0.047,0.104 0.104,0.104 h 0.119 c -0.102,0.749 -0.871,1.328 -1.736,1.328 -0.865,0 -1.635,-0.579 -1.736,-1.328 h 0.115 c 0.058,0 0.104,-0.047 0.104,-0.104 0,-0.057 -0.046,-0.105 -0.104,-0.105 h -0.128 c 0,-0.018 0.002,-0.033 0.003,-0.05 L 16.278,0 h -1.81 l 0.14,2.007 c 0.002,0.017 0.002,0.032 0.004,0.05 h -0.131 c -0.058,0 -0.104,0.047 -0.104,0.105 0,0.057 0.046,0.104 0.104,0.104 h 0.118 c -0.102,0.749 -0.871,1.328 -1.736,1.328 -0.864,0 -1.635,-0.579 -1.736,-1.328 h 0.115 c 0.058,0 0.104,-0.047 0.104,-0.104 0,-0.057 -0.046,-0.105 -0.104,-0.105 h -0.127 c 0,-0.018 10e-4,-0.033 0.003,-0.05 L 11.255,0 h -1.81 l 0.141,2.007 c 10e-4,0.017 10e-4,0.032 0.003,0.05 h -0.13 c -0.057,0 -0.105,0.047 -0.105,0.105 0,0.057 0.048,0.104 0.105,0.104 H 9.577 C 9.474,3.015 8.705,3.594 7.84,3.594 6.976,3.594 6.207,3.015 6.103,2.266 H 6.22 C 6.279,2.266 6.325,2.219 6.325,2.162 6.325,2.105 6.277,2.057 6.22,2.057 H 6.092 c 0,-0.018 0.002,-0.033 0.002,-0.05 L 6.232,0 H 4.423 l 0.14,2.007 c 0.001,0.017 0.001,0.032 0.003,0.05 H 4.437 c -0.058,0 -0.104,0.047 -0.104,0.105 0,0.057 0.046,0.104 0.104,0.104 H 4.554 C 4.452,3.015 3.682,3.594 2.818,3.594 1.952,3.594 1.185,3.015 1.081,2.266 h 0.118 c 0.057,0 0.104,-0.047 0.104,-0.104 0,-0.057 -0.047,-0.105 -0.104,-0.105 H 1.068 C 1.07,2.039 1.07,2.024 1.07,2.007 L 1.209,0 Z m 25.416,7.505 c 0.182,0 0.329,-0.148 0.329,-0.328 0,-0.181 -0.147,-0.329 -0.329,-0.329 -0.179,0 -0.326,0.148 -0.326,0.329 0,0.18 0.147,0.328 0.326,0.328 z m -5.02,0 c 0.18,0 0.326,-0.148 0.326,-0.328 0,-0.181 -0.146,-0.329 -0.326,-0.329 -0.181,0 -0.329,0.148 -0.329,0.329 0,0.18 0.148,0.328 0.329,0.328 z m -5.024,0 c 0.182,0 0.329,-0.148 0.329,-0.328 0,-0.181 -0.147,-0.329 -0.329,-0.329 -0.181,0 -0.328,0.148 -0.328,0.329 0,0.18 0.147,0.328 0.328,0.328 z m -5.022,0 c 0.181,0 0.328,-0.148 0.328,-0.328 0,-0.181 -0.147,-0.329 -0.328,-0.329 -0.18,0 -0.326,0.148 -0.326,0.329 0,0.18 0.146,0.328 0.326,0.328 z m -5.021,0 C 5.508,7.505 5.656,7.357 5.656,7.177 5.656,6.996 5.508,6.848 5.329,6.848 5.147,6.848 5,6.996 5,7.177 5,7.357 5.147,7.505 5.329,7.505 Z M 0.875,5.908 H 1.019 C 1.058,5.908 1.093,5.876 1.093,5.834 1.093,5.792 1.058,5.76 1.019,5.76 H 0.875 L 0.879,4.02 H 4.753 L 4.757,5.76 H 4.616 c -0.042,0 -0.074,0.032 -0.074,0.074 0,0.042 0.032,0.074 0.074,0.074 H 4.759 V 5.936 C 4.759,6.81 3.887,7.524 2.818,7.524 1.749,7.524 0.875,6.81 0.875,5.936 Z m 5.023,0 H 6.042 C 6.081,5.908 6.116,5.876 6.116,5.834 6.116,5.792 6.081,5.76 6.042,5.76 H 5.898 L 5.901,4.02 H 9.776 L 9.781,5.76 H 9.638 c -0.04,0 -0.073,0.032 -0.073,0.074 0,0.042 0.033,0.074 0.073,0.074 H 9.781 V 5.936 C 9.781,6.81 8.909,7.524 7.84,7.524 6.77,7.524 5.898,6.81 5.898,5.936 Z m 5.023,0 h 0.142 c 0.041,0 0.074,-0.032 0.074,-0.074 0,-0.042 -0.033,-0.074 -0.074,-0.074 h -0.142 l 0.001,-1.74 h 3.875 l 0.007,1.74 H 14.66 c -0.039,0 -0.075,0.032 -0.075,0.074 0,0.042 0.036,0.074 0.075,0.074 h 0.144 v 0.028 c 0,0.874 -0.872,1.588 -1.943,1.588 -1.069,0 -1.94,-0.714 -1.94,-1.588 z m 5.021,0 h 0.143 c 0.04,0 0.074,-0.032 0.074,-0.074 0,-0.042 -0.034,-0.074 -0.074,-0.074 h -0.143 l 0.003,-1.74 h 3.875 l 0.005,1.74 h -0.142 c -0.041,0 -0.074,0.032 -0.074,0.074 0,0.042 0.033,0.074 0.074,0.074 h 0.142 l 0.002,0.028 c 0,0.874 -0.874,1.588 -1.943,1.588 -1.069,0 -1.942,-0.714 -1.942,-1.588 z m 5.023,0 h 0.143 c 0.04,0 0.073,-0.032 0.073,-0.074 0,-0.042 -0.033,-0.074 -0.073,-0.074 h -0.143 l 0.001,-1.74 h 3.877 l 0.005,1.74 h -0.144 c -0.039,0 -0.072,0.032 -0.072,0.074 0,0.042 0.033,0.074 0.072,0.074 h 0.144 v 0.028 c 0,0.874 -0.872,1.588 -1.943,1.588 -1.069,0 -1.94,-0.714 -1.94,-1.588 z m 5.022,0 h 0.142 c 0.042,0 0.074,-0.032 0.074,-0.074 0,-0.042 -0.032,-0.074 -0.074,-0.074 h -0.142 l 0.002,-1.74 h 3.875 l 0.007,1.74 h -0.144 c -0.04,0 -0.074,0.032 -0.074,0.074 0,0.042 0.034,0.074 0.074,0.074 h 0.144 v 0.028 c 0,0.874 -0.874,1.588 -1.943,1.588 -1.069,0 -1.942,-0.714 -1.942,-1.588 z" /></g></g></g><g
       transform="matrix(16.915085,0,0,16.915085,-10538.068,-20940.25)"
       id="g60"><g
         clip-path="url(#clipPath66)"
         id="g62"><g
           transform="translate(625.46633,1270.0481)"
           id="g68"><path
             id="path70"
             style="fill:none;stroke:#231f20;stroke-width:0.113;stroke-linecap:butt;stroke-linejoin:miter;stroke-miterlimit:2.61299992;stroke-dasharray:none;stroke-opacity:1"
             d="M 0,0 H 30.81" /></g></g></g><g
       transform="matrix(16.915085,0,0,16.915085,-10538.068,-20940.25)"
       id="g72"><g
         clip-path="url(#clipPath78)"
         id="g74"><g
           transform="translate(650.33861,1264.3266)"
           id="g80"><path
             id="path82"
             style="fill:none;stroke:#231f20;stroke-width:0.113;stroke-linecap:butt;stroke-linejoin:miter;stroke-miterlimit:2.61299992;stroke-dasharray:none;stroke-opacity:1"
             d="M 0,0 V 1.755 L 1.15,1.753 V 0" /></g></g></g><g
       transform="matrix(16.915085,0,0,16.915085,-10538.068,-20940.25)"
       id="g84"><g
         clip-path="url(#clipPath90)"
         id="g86"><g
           transform="translate(645.31549,1264.3266)"
           id="g92"><path
             id="path94"
             style="fill:none;stroke:#231f20;stroke-width:0.113;stroke-linecap:butt;stroke-linejoin:miter;stroke-miterlimit:2.61299992;stroke-dasharray:none;stroke-opacity:1"
             d="M 0,0 V 1.755 L 1.15,1.753 V 0" /></g></g></g><g
       transform="matrix(16.915085,0,0,16.915085,-10538.068,-20940.25)"
       id="g96"><g
         clip-path="url(#clipPath102)"
         id="g98"><g
           transform="translate(640.29468,1264.3266)"
           id="g104"><path
             id="path106"
             style="fill:none;stroke:#231f20;stroke-width:0.113;stroke-linecap:butt;stroke-linejoin:miter;stroke-miterlimit:2.61299992;stroke-dasharray:none;stroke-opacity:1"
             d="M 0,0 V 1.755 L 1.15,1.753 V 0" /></g></g></g><g
       transform="matrix(16.915085,0,0,16.915085,-10538.068,-20940.25)"
       id="g108"><g
         clip-path="url(#clipPath114)"
         id="g110"><g
           transform="translate(635.2734,1264.3266)"
           id="g116"><path
             id="path118"
             style="fill:none;stroke:#231f20;stroke-width:0.113;stroke-linecap:butt;stroke-linejoin:miter;stroke-miterlimit:2.61299992;stroke-dasharray:none;stroke-opacity:1"
             d="M 0,0 V 1.755 L 1.148,1.753 V 0" /></g></g></g><g
       transform="matrix(16.915085,0,0,16.915085,-10538.068,-20940.25)"
       id="g120"><g
         clip-path="url(#clipPath126)"
         id="g122"><g
           transform="translate(630.25039,1264.3266)"
           id="g128"><path
             id="path130"
             style="fill:none;stroke:#231f20;stroke-width:0.113;stroke-linecap:butt;stroke-linejoin:miter;stroke-miterlimit:2.61299992;stroke-dasharray:none;stroke-opacity:1"
             d="M 0,0 V 1.755 L 1.15,1.753 V 0" /></g></g></g><g
       transform="matrix(16.915085,0,0,16.915085,-10538.068,-20940.25)"
       id="g132"><g
         clip-path="url(#clipPath138)"
         id="g134"><g
           transform="translate(625.46633,1266.0815)"
           id="g140"><path
             id="path142"
             style="fill:none;stroke:#231f20;stroke-width:0.113;stroke-linecap:butt;stroke-linejoin:miter;stroke-miterlimit:2.61299992;stroke-dasharray:none;stroke-opacity:1"
             d="M 0,0 0.911,-0.002 V -1.755" /></g></g></g><g
       transform="matrix(16.915085,0,0,16.915085,-10538.068,-20940.25)"
       id="g144"><g
         clip-path="url(#clipPath150)"
         id="g146"><g
           transform="translate(656.27648,1266.0815)"
           id="g152"><path
             id="path154"
             style="fill:none;stroke:#231f20;stroke-width:0.113;stroke-linecap:butt;stroke-linejoin:miter;stroke-miterlimit:2.61299992;stroke-dasharray:none;stroke-opacity:1"
             d="M 0,0 -0.911,-0.002 V -1.755" /></g></g></g><g
       transform="matrix(16.915085,0,0,16.915085,-10538.068,-20940.25)"
       id="g156"><g
         clip-path="url(#clipPath162)"
         id="g158"><g
           transform="translate(655.0448,1264.3266)"
           id="g164"><path
             id="path166"
             style="fill:#ffffff;fill-opacity:1;fill-rule:evenodd;stroke:none"
             d="M 0,0 H 1.231 V -0.209 H 0 c -0.057,0 -0.104,0.046 -0.104,0.105 C -0.104,-0.048 -0.057,0 0,0 m -5.021,0 h 1.783 c 0.057,0 0.104,-0.048 0.104,-0.104 0,-0.057 -0.047,-0.105 -0.104,-0.105 h -1.783 c -0.057,0 -0.106,0.046 -0.106,0.105 0,0.056 0.049,0.104 0.106,0.104 m -5.023,0 h 1.783 c 0.057,0 0.106,-0.048 0.106,-0.104 0,-0.057 -0.049,-0.105 -0.106,-0.105 h -1.783 c -0.057,0 -0.104,0.046 -0.104,0.105 0,0.056 0.047,0.104 0.104,0.104 m -5.023,0 h 1.785 c 0.057,0 0.104,-0.048 0.104,-0.104 0,-0.057 -0.047,-0.105 -0.104,-0.105 h -1.785 c -0.057,0 -0.104,0.046 -0.104,0.105 0,0.056 0.047,0.104 0.104,0.104 m -5.021,0 h 1.783 c 0.058,0 0.104,-0.048 0.104,-0.104 0,-0.057 -0.046,-0.105 -0.104,-0.105 h -1.783 c -0.057,0 -0.105,0.046 -0.105,0.105 0,0.056 0.048,0.104 0.105,0.104 m -5.023,0 h 1.783 c 0.06,0 0.106,-0.048 0.106,-0.104 0,-0.057 -0.048,-0.105 -0.106,-0.105 h -1.783 c -0.057,0 -0.104,0.046 -0.104,0.105 0,0.056 0.047,0.104 0.104,0.104 m -4.468,0 h 1.23 c 0.058,0 0.104,-0.048 0.104,-0.104 0,-0.057 -0.046,-0.105 -0.104,-0.105 h -1.23 z" /></g></g></g><g
       transform="matrix(16.915085,0,0,16.915085,-10538.068,-20940.25)"
       id="g168"><g
         clip-path="url(#clipPath174)"
         id="g170"><g
           transform="translate(655.0448,1264.3266)"
           id="g176"><path
             id="path178"
             style="fill:none;stroke:#231f20;stroke-width:0.056;stroke-linecap:butt;stroke-linejoin:miter;stroke-miterlimit:2.61299992;stroke-dasharray:none;stroke-opacity:1"
             d="M 0,0 H 1.231 V -0.209 H 0 c -0.057,0 -0.104,0.046 -0.104,0.105 C -0.104,-0.048 -0.057,0 0,0 Z m -5.021,0 h 1.783 c 0.057,0 0.104,-0.048 0.104,-0.104 0,-0.057 -0.047,-0.105 -0.104,-0.105 h -1.783 c -0.057,0 -0.106,0.046 -0.106,0.105 0,0.056 0.049,0.104 0.106,0.104 z m -5.023,0 h 1.783 c 0.057,0 0.106,-0.048 0.106,-0.104 0,-0.057 -0.049,-0.105 -0.106,-0.105 h -1.783 c -0.057,0 -0.104,0.046 -0.104,0.105 0,0.056 0.047,0.104 0.104,0.104 z m -5.023,0 h 1.785 c 0.057,0 0.104,-0.048 0.104,-0.104 0,-0.057 -0.047,-0.105 -0.104,-0.105 h -1.785 c -0.057,0 -0.104,0.046 -0.104,0.105 0,0.056 0.047,0.104 0.104,0.104 z m -5.021,0 h 1.783 c 0.058,0 0.104,-0.048 0.104,-0.104 0,-0.057 -0.046,-0.105 -0.104,-0.105 h -1.783 c -0.057,0 -0.105,0.046 -0.105,0.105 0,0.056 0.048,0.104 0.105,0.104 z m -5.023,0 h 1.783 c 0.06,0 0.106,-0.048 0.106,-0.104 0,-0.057 -0.048,-0.105 -0.106,-0.105 h -1.783 c -0.057,0 -0.104,0.046 -0.104,0.105 0,0.056 0.047,0.104 0.104,0.104 z m -4.468,0 h 1.23 c 0.058,0 0.104,-0.048 0.104,-0.104 0,-0.057 -0.046,-0.105 -0.104,-0.105 h -1.23 z" /></g></g></g><g
       transform="matrix(16.915085,0,0,16.915085,-10538.068,-20940.25)"
       id="g180"><g
         clip-path="url(#clipPath186)"
         id="g182"><g
           transform="translate(625.46633,1267.9691)"
           id="g188"><path
             id="path190"
             style="fill:#ffffff;fill-opacity:1;fill-rule:evenodd;stroke:none"
             d="m 0,0 h 1.05 c 0.039,0 0.075,-0.033 0.075,-0.075 0,-0.041 -0.036,-0.074 -0.075,-0.074 H 0 Z m 4.647,0 h 1.426 c 0.04,0 0.074,-0.033 0.074,-0.075 0,-0.041 -0.034,-0.074 -0.074,-0.074 H 4.647 c -0.041,0 -0.074,0.033 -0.074,0.074 C 4.573,-0.033 4.606,0 4.647,0 m 5.021,0 h 1.426 c 0.042,0 0.074,-0.033 0.074,-0.075 0,-0.041 -0.032,-0.074 -0.074,-0.074 H 9.668 c -0.039,0 -0.072,0.033 -0.072,0.074 C 9.596,-0.033 9.629,0 9.668,0 m 5.023,0 h 1.426 c 0.04,0 0.074,-0.033 0.074,-0.075 0,-0.041 -0.034,-0.074 -0.074,-0.074 h -1.426 c -0.039,0 -0.074,0.033 -0.074,0.074 0,0.042 0.035,0.075 0.074,0.075 m 5.024,0 h 1.425 c 0.04,0 0.072,-0.033 0.072,-0.075 0,-0.041 -0.032,-0.074 -0.072,-0.074 h -1.425 c -0.042,0 -0.075,0.033 -0.075,0.074 0,0.042 0.033,0.075 0.075,0.075 m 5.02,0 h 1.426 c 0.042,0 0.074,-0.033 0.074,-0.075 0,-0.041 -0.032,-0.074 -0.074,-0.074 h -1.426 c -0.039,0 -0.072,0.033 -0.072,0.074 0,0.042 0.033,0.075 0.072,0.075 m 5.024,0 h 1.051 v -0.149 h -1.051 c -0.04,0 -0.075,0.033 -0.075,0.074 0,0.042 0.035,0.075 0.075,0.075" /></g></g></g><g
       transform="matrix(16.915085,0,0,16.915085,-10538.068,-20940.25)"
       id="g192"><g
         clip-path="url(#clipPath198)"
         id="g194"><g
           transform="translate(625.46633,1267.9691)"
           id="g200"><path
             id="path202"
             style="fill:none;stroke:#231f20;stroke-width:0.056;stroke-linecap:butt;stroke-linejoin:miter;stroke-miterlimit:2.61299992;stroke-dasharray:none;stroke-opacity:1"
             d="m 0,0 h 1.05 c 0.039,0 0.075,-0.033 0.075,-0.075 0,-0.041 -0.036,-0.074 -0.075,-0.074 H 0 Z m 4.647,0 h 1.426 c 0.04,0 0.074,-0.033 0.074,-0.075 0,-0.041 -0.034,-0.074 -0.074,-0.074 H 4.647 c -0.041,0 -0.074,0.033 -0.074,0.074 C 4.573,-0.033 4.606,0 4.647,0 Z m 5.021,0 h 1.426 c 0.042,0 0.074,-0.033 0.074,-0.075 0,-0.041 -0.032,-0.074 -0.074,-0.074 H 9.668 c -0.039,0 -0.072,0.033 -0.072,0.074 C 9.596,-0.033 9.629,0 9.668,0 Z m 5.023,0 h 1.426 c 0.04,0 0.074,-0.033 0.074,-0.075 0,-0.041 -0.034,-0.074 -0.074,-0.074 h -1.426 c -0.039,0 -0.074,0.033 -0.074,0.074 0,0.042 0.035,0.075 0.074,0.075 z m 5.024,0 h 1.425 c 0.04,0 0.072,-0.033 0.072,-0.075 0,-0.041 -0.032,-0.074 -0.072,-0.074 h -1.425 c -0.042,0 -0.075,0.033 -0.075,0.074 0,0.042 0.033,0.075 0.075,0.075 z m 5.02,0 h 1.426 c 0.042,0 0.074,-0.033 0.074,-0.075 0,-0.041 -0.032,-0.074 -0.074,-0.074 h -1.426 c -0.039,0 -0.072,0.033 -0.072,0.074 0,0.042 0.033,0.075 0.072,0.075 z m 5.024,0 h 1.051 v -0.149 h -1.051 c -0.04,0 -0.075,0.033 -0.075,0.074 0,0.042 0.035,0.075 0.075,0.075 z" /></g></g></g><g
       transform="matrix(16.915085,0,0,16.915085,-10538.068,-20940.25)"
       id="g204"><g
         clip-path="url(#clipPath210)"
         id="g206"><g
           transform="translate(640.87049,1243.4497)"
           id="g212"><path
             id="path214"
             style="fill:#fcd314;fill-opacity:1;fill-rule:evenodd;stroke:none"
             d="m 0,0 c -9.591,1.729 -16.91,10.155 -16.91,20.231 v 0.035 20.297 H 16.909 V 20.261 C 16.932,10.351 9.742,1.756 0,0 M 0,0.688 C -9.378,2.44 -16.233,10.711 -16.233,20.252 V 39.887 H 16.233 V 20.248 C 16.233,10.709 9.375,2.439 0,0.688" /></g></g></g><g
       transform="matrix(16.915085,0,0,16.915085,-10538.068,-20940.25)"
       id="g216"><g
         clip-path="url(#clipPath222)"
         id="g218"><g
           transform="translate(640.87049,1244.9378)"
           id="g224"><path
             id="path226"
             style="fill:#ffffff;fill-opacity:1;fill-rule:evenodd;stroke:none"
             d="M 0,0 C -8.928,1.738 -15.444,9.644 -15.444,18.745 V 37.604 H 15.444 V 18.742 18.737 C 15.444,9.469 8.779,1.708 0,0 M 0,-0.805 C -9.378,0.945 -16.233,9.216 -16.233,18.758 V 38.394 H 16.233 V 18.754 C 16.233,9.214 9.375,0.945 0,-0.805" /></g></g></g><g
       transform="matrix(16.915085,0,0,16.915085,-10538.068,-20940.25)"
       id="g228"><g
         clip-path="url(#clipPath234)"
         id="g230"><g
           transform="translate(640.87049,1244.053)"
           id="g236"><path
             id="path238"
             style="fill:#231f20;fill-opacity:1;fill-rule:evenodd;stroke:none"
             d="M 0,0 C -9.399,1.747 -16.338,10.07 -16.31,19.648 V 39.357 H 16.312 V 19.641 C 16.312,10.058 9.421,1.75 0,0 M 16.153,19.637 C 16.26,10.178 9.224,1.891 0,0.162 -9.333,1.91 -16.153,10.144 -16.153,19.641 v 19.558 h 32.306 z" /></g></g></g><g
       transform="matrix(16.915085,0,0,16.915085,-10538.068,-20940.25)"
       id="g240"><g
         clip-path="url(#clipPath246)"
         id="g242"><g
           transform="translate(640.87049,1243.3695)"
           id="g248"><path
             id="path250"
             style="fill:#231f20;fill-opacity:1;fill-rule:evenodd;stroke:none"
             d="m 0,0 c -9.636,1.73 -16.988,10.191 -16.988,20.312 v 0.033 20.379 H 16.988 V 20.343 C 17.011,10.388 9.785,1.757 0,0 m 0,0.162 c -9.548,1.728 -16.829,10.116 -16.829,20.15 v 0.031 20.223 H 16.829 V 20.34 C 16.854,10.475 9.695,1.915 0,0.162" /></g></g></g><g
       transform="matrix(16.915085,0,0,16.915085,-10538.068,-20940.25)"
       id="g252"><g
         clip-path="url(#clipPath258)"
         id="g254"><g
           transform="translate(640.87049,1244.769)"
           id="g260"><path
             id="path262"
             style="fill:#231f20;fill-opacity:1;fill-rule:evenodd;stroke:none"
             d="M 0,0 C -9.02,1.742 -15.602,9.722 -15.602,18.912 V 37.924 H 15.602 V 18.907 18.9 C 15.602,9.547 8.868,1.713 0,0 M -15.287,37.61 H 15.287 V 18.9 C 15.287,9.719 8.691,2.03 0,0.322 -8.691,2.03 -15.287,9.719 -15.287,18.9 v 0.007 z" /></g></g></g><g
       transform="matrix(16.915085,0,0,16.915085,-10538.068,-20940.25)"
       id="g264"><g
         clip-path="url(#clipPath270)"
         id="g266"><g
           transform="translate(625.48172,1262.2634)"
           id="g272"><path
             id="path274"
             style="fill:#231f20;fill-opacity:1;fill-rule:evenodd;stroke:none"
             d="M 0,0 H 30.779 C 30.771,-0.117 30.762,-0.233 30.751,-0.348 H 0.028 C 0.018,-0.233 0.007,-0.117 0,0" /></g></g></g></g></svg>