<?xml version="1.0" encoding="UTF-8" ?>
<!DOCTYPE svg PUBLIC "-//W3C//DTD SVG 1.1//EN" "http://www.w3.org/Graphics/SVG/1.1/DTD/svg11.dtd">
<svg width="400pt" height="480pt" viewBox="0 0 400 480" version="1.1" xmlns="http://www.w3.org/2000/svg">
<g id="#373a3aff">
<path fill="#373a3a" opacity="1.00" d=" M 0.00 0.00 L 400.00 0.00 L 400.00 259.20 C 398.24 279.86 394.88 300.49 388.18 320.16 C 381.24 340.95 371.10 360.62 358.57 378.59 C 341.62 403.54 318.97 424.27 294.02 441.02 C 265.62 459.86 233.23 472.16 200.06 479.45 C 179.86 474.80 159.98 468.47 141.09 459.87 C 113.67 447.46 88.61 429.95 67.40 408.60 C 53.31 395.02 41.89 378.91 31.86 362.17 C 16.60 336.26 6.76 307.24 2.83 277.44 C 1.51 268.03 1.12 258.54 0.00 249.12 L 0.00 0.00 M 2.38 1.75 C 2.44 80.50 2.39 159.25 2.40 238.00 C 2.01 263.70 5.24 289.55 12.77 314.16 C 21.99 344.43 38.15 372.34 58.48 396.49 C 77.46 417.56 99.71 435.81 124.61 449.45 C 147.32 462.07 172.04 470.74 197.24 476.86 C 199.34 477.51 201.54 477.38 203.64 476.79 C 216.88 473.53 230.00 469.71 242.76 464.87 C 274.74 453.00 304.25 434.50 328.70 410.70 C 339.09 400.99 348.31 390.10 356.38 378.40 C 367.92 361.99 377.51 344.17 384.35 325.31 C 394.69 297.13 398.92 266.94 398.46 237.00 C 398.49 158.59 398.40 80.18 398.51 1.77 C 386.01 1.47 373.50 1.71 361.00 1.63 C 241.46 1.71 121.92 1.48 2.38 1.75 Z" />
<path fill="#373a3a" opacity="1.00" d=" M 8.38 7.79 C 136.39 7.55 264.40 7.72 392.41 7.71 C 392.50 87.80 392.46 167.90 392.43 247.99 C 391.76 276.53 386.56 305.15 375.56 331.57 C 368.29 349.24 358.56 365.84 347.13 381.14 C 335.99 396.44 322.16 409.60 307.53 421.53 C 279.19 444.47 245.41 460.10 210.19 469.15 C 205.91 470.03 201.53 472.21 197.12 470.87 C 175.82 465.69 154.94 458.53 135.37 448.61 C 107.82 434.73 83.22 415.31 62.67 392.35 C 42.53 368.28 26.60 340.43 17.79 310.22 C 11.77 289.72 8.77 268.36 8.42 247.02 C 8.37 167.27 8.44 87.53 8.38 7.79 M 10.24 9.54 C 10.28 86.36 10.25 163.18 10.26 240.00 C 10.03 262.36 12.67 284.80 18.63 306.36 C 27.20 337.76 43.53 366.73 64.45 391.53 C 85.05 414.47 109.78 433.82 137.43 447.54 C 157.27 457.39 178.39 464.71 200.01 469.47 C 214.84 466.61 229.30 461.81 243.41 456.42 C 279.47 442.41 311.89 419.46 337.44 390.44 C 348.63 376.90 358.57 362.27 366.56 346.61 C 379.98 320.60 387.60 291.77 389.78 262.63 C 391.01 249.78 390.49 236.87 390.60 224.00 C 390.62 152.51 390.56 81.02 390.63 9.53 C 263.83 9.59 137.04 9.58 10.24 9.54 Z" />
<path fill="#373a3a" opacity="1.00" d=" M 16.56 15.85 C 139.14 15.86 261.72 15.85 384.31 15.85 C 384.35 92.57 384.31 169.28 384.33 246.00 C 384.40 271.59 380.07 297.22 371.20 321.24 C 355.68 363.66 326.04 400.43 288.82 425.84 C 262.13 444.04 231.73 457.15 199.98 463.21 C 145.21 452.08 94.26 421.30 60.30 376.71 C 32.34 340.39 16.73 294.83 16.55 248.99 C 16.54 171.28 16.52 93.56 16.56 15.85 M 20.31 19.46 C 20.18 94.98 20.30 170.49 20.25 246.01 C 19.82 278.55 27.40 311.12 41.87 340.25 C 57.06 370.83 79.81 397.49 107.20 417.82 C 132.23 436.54 161.11 449.95 191.39 457.62 C 195.19 458.46 199.09 460.05 203.02 459.09 C 222.88 454.56 242.24 447.76 260.38 438.46 C 300.32 418.28 334.47 386.21 355.70 346.68 C 371.40 317.71 379.99 284.95 380.61 252.02 C 380.66 174.50 380.65 96.99 380.61 19.47 C 260.51 19.53 140.41 19.54 20.31 19.46 Z" />
<path fill="#373a3a" opacity="1.00" d=" M 94.23 72.05 C 97.82 67.11 102.41 62.07 108.96 61.71 C 116.64 60.65 123.08 65.95 126.90 72.07 C 131.33 68.07 136.79 64.53 143.00 64.78 C 150.68 65.22 157.70 70.77 159.83 78.16 C 161.51 84.32 159.29 91.32 154.17 95.19 C 150.75 98.01 146.15 98.24 141.94 98.69 C 144.73 101.23 147.75 103.78 151.57 104.52 C 158.72 106.50 166.32 104.51 173.42 106.65 C 177.35 107.86 179.47 112.09 179.49 115.99 C 179.66 119.71 177.59 122.96 175.90 126.11 C 179.78 129.07 184.13 132.65 184.28 137.98 C 184.78 143.36 180.78 147.47 177.23 150.91 C 179.74 155.37 181.81 160.72 179.80 165.78 C 178.20 170.59 173.30 172.86 169.05 174.84 C 170.23 178.68 172.05 182.75 170.82 186.81 C 169.70 191.33 166.46 195.34 162.12 197.10 C 159.09 198.28 155.79 198.25 152.59 198.40 C 152.33 205.26 149.19 212.68 142.38 215.29 C 137.77 217.53 132.81 215.39 128.54 213.42 C 126.98 216.39 125.35 219.50 122.54 221.48 C 115.54 226.34 105.55 226.34 98.60 221.39 C 95.86 219.39 94.28 216.31 92.68 213.41 C 88.17 215.61 82.74 217.65 77.97 214.92 C 71.62 212.02 69.19 204.89 68.51 198.43 C 62.76 198.55 56.30 197.28 52.89 192.15 C 48.94 187.16 49.95 180.35 52.27 174.90 C 47.90 172.87 42.91 170.50 41.38 165.51 C 39.24 160.53 41.74 155.36 43.98 150.92 C 40.47 147.50 36.54 143.40 37.16 138.06 C 37.05 132.69 41.53 129.14 45.27 126.06 C 42.55 121.61 40.19 115.95 43.00 110.95 C 45.41 105.65 52.05 105.58 57.02 105.57 C 64.85 105.78 73.76 105.18 79.23 98.79 C 75.23 98.17 70.83 98.04 67.47 95.49 C 62.10 91.56 59.43 84.04 61.63 77.69 C 64.34 68.80 74.59 62.62 83.65 65.49 C 87.77 66.52 91.07 69.35 94.23 72.05 M 101.82 66.80 C 98.75 68.97 97.29 72.51 95.54 75.68 C 95.23 75.73 94.63 75.84 94.32 75.90 C 90.87 71.77 86.56 67.70 80.90 67.24 C 71.30 65.71 61.53 75.04 63.34 84.77 C 64.30 92.91 73.81 98.56 81.38 95.36 C 84.92 92.71 87.55 87.71 85.72 83.35 C 84.16 79.29 77.99 77.56 75.05 81.10 C 73.48 82.71 74.48 84.94 75.06 86.74 C 77.12 86.61 79.34 86.13 80.96 87.79 C 78.95 88.51 76.55 90.29 74.50 88.67 C 71.36 86.76 70.85 82.00 73.47 79.43 C 76.88 75.42 83.62 76.35 86.60 80.40 C 90.15 84.72 88.66 91.26 85.01 95.02 C 81.45 98.46 79.09 103.34 74.28 105.29 C 66.21 109.15 57.01 106.47 48.63 108.71 C 41.80 111.32 43.06 122.62 49.01 125.35 C 63.91 122.78 78.23 113.83 84.89 99.91 C 86.31 97.64 86.62 94.03 89.79 93.57 C 86.06 107.38 75.02 118.63 61.88 123.93 C 57.40 125.91 52.59 126.89 47.89 128.16 C 42.84 129.51 38.58 134.48 39.31 139.88 C 39.66 144.04 43.02 146.91 46.07 149.33 C 58.13 142.50 69.30 133.91 78.36 123.38 C 84.18 116.43 89.29 108.53 91.30 99.58 C 91.90 97.54 91.72 94.66 94.48 94.40 C 93.70 104.76 88.54 114.21 82.26 122.27 C 73.04 133.82 61.28 143.15 48.56 150.60 C 42.16 154.29 40.59 164.58 46.66 169.33 C 49.47 171.34 53.86 173.89 56.78 170.77 C 78.45 153.61 91.60 127.33 96.16 100.39 C 96.73 98.27 96.15 94.82 99.24 94.81 C 96.10 121.88 84.24 148.44 64.35 167.35 C 60.48 171.41 54.39 173.84 52.86 179.71 C 50.51 186.46 55.22 194.42 62.20 195.74 C 65.30 196.24 69.45 196.33 70.81 192.84 C 88.73 162.59 99.09 128.05 102.40 93.14 C 102.91 92.92 103.92 92.49 104.43 92.27 C 103.97 104.94 101.63 117.46 98.65 129.75 C 93.35 150.74 85.85 171.31 75.08 190.14 C 73.66 193.02 70.93 195.55 71.09 198.97 C 70.93 205.08 74.45 211.68 80.54 213.53 C 85.68 214.98 92.87 212.53 93.67 206.64 C 102.47 174.12 105.42 140.34 106.61 106.78 C 106.98 100.98 106.44 95.12 107.20 89.36 C 107.71 89.14 108.75 88.70 109.26 88.48 C 108.98 124.20 106.63 160.13 98.96 195.10 C 97.92 200.49 95.95 205.68 95.07 211.11 C 95.22 216.83 100.42 221.03 105.66 222.21 C 112.67 223.94 121.60 221.99 125.16 215.14 C 127.78 210.88 124.73 206.26 123.96 201.93 C 115.19 166.67 112.74 130.19 112.00 93.98 C 112.07 91.91 111.20 88.72 114.19 88.50 C 114.84 126.16 117.04 164.11 126.06 200.81 C 126.92 203.91 127.46 207.14 128.85 210.06 C 132.33 214.09 138.80 215.21 143.34 212.35 C 147.85 209.56 150.21 204.18 150.26 199.00 C 150.41 196.25 148.41 194.09 147.18 191.81 C 139.24 178.51 133.24 164.12 128.32 149.46 C 122.24 130.98 117.85 111.83 116.74 92.38 C 117.29 92.55 118.40 92.90 118.96 93.07 C 121.49 123.63 130.21 153.64 143.89 181.06 C 146.59 185.92 148.82 191.20 152.49 195.42 C 158.36 197.36 165.27 194.46 167.79 188.77 C 170.24 183.53 168.63 176.56 163.87 173.15 C 143.94 157.99 131.11 135.01 124.94 111.04 C 123.67 105.64 122.25 100.19 122.24 94.61 C 125.18 95.28 124.57 98.73 125.20 100.97 C 130.03 128.68 143.96 155.77 166.97 172.61 C 170.44 171.66 174.27 170.56 176.40 167.40 C 180.42 162.07 178.18 153.65 172.49 150.46 C 163.05 144.91 154.12 138.39 146.43 130.58 C 136.67 120.79 128.06 108.59 126.74 94.45 C 127.25 94.67 128.27 95.10 128.79 95.32 C 130.47 102.29 132.69 109.23 136.81 115.20 C 146.29 129.72 160.26 140.68 175.10 149.34 C 178.20 146.97 181.63 144.09 181.90 139.89 C 182.70 134.27 178.11 129.22 172.86 128.00 C 167.97 126.79 163.04 125.63 158.43 123.53 C 145.67 118.13 135.23 107.04 131.40 93.64 C 133.08 93.78 134.19 94.80 134.68 96.37 C 137.80 103.66 142.48 110.38 148.84 115.19 C 155.82 120.66 164.32 123.84 172.95 125.58 C 175.00 123.09 177.20 120.37 177.28 116.98 C 177.47 113.64 175.99 109.54 172.41 108.64 C 163.99 106.53 154.77 109.14 146.73 105.17 C 142.22 103.25 139.96 98.66 136.58 95.40 C 133.31 92.09 131.46 86.87 133.41 82.42 C 135.48 77.28 142.90 74.84 147.15 78.81 C 150.38 81.25 150.23 86.87 146.55 88.79 C 144.46 90.26 142.21 88.48 140.31 87.61 C 142.16 86.38 144.37 86.57 146.48 86.57 C 146.80 84.71 147.69 82.51 146.06 80.98 C 143.04 77.52 136.87 79.44 135.46 83.54 C 134.01 88.07 136.41 93.25 140.40 95.61 C 147.62 98.10 156.26 93.20 157.75 85.69 C 160.31 75.98 150.75 66.02 141.02 67.18 C 134.80 67.41 130.08 71.98 126.44 76.56 C 124.70 73.67 123.22 70.58 120.93 68.07 C 115.99 63.05 107.38 62.44 101.82 66.80 Z" />
<path fill="#373a3a" opacity="1.00" d=" M 273.29 72.01 C 277.05 67.29 281.43 62.11 287.95 61.75 C 295.65 60.59 302.27 65.80 305.99 72.07 C 309.40 69.29 312.94 66.34 317.35 65.37 C 327.38 62.56 338.55 70.71 339.44 80.97 C 339.97 86.60 337.38 92.50 332.68 95.71 C 329.43 97.92 325.38 98.18 321.63 98.82 C 324.15 101.79 327.48 104.07 331.38 104.69 C 338.93 106.72 347.31 103.91 354.44 107.57 C 360.64 111.88 358.89 120.75 355.10 126.12 C 358.98 129.07 363.24 132.69 363.41 137.99 C 363.95 143.39 359.90 147.51 356.29 150.91 C 358.97 155.35 361.00 160.84 358.91 165.94 C 357.24 170.69 352.37 172.89 348.14 174.87 C 349.28 178.14 350.63 181.51 350.30 185.05 C 349.82 190.10 346.44 194.68 341.90 196.86 C 338.71 198.32 335.13 198.25 331.70 198.43 C 331.32 201.55 330.96 204.77 329.59 207.65 C 327.47 212.20 322.99 215.62 317.98 216.23 C 314.42 216.55 311.12 214.89 307.92 213.60 C 305.78 217.08 303.54 220.83 299.72 222.69 C 293.06 226.22 284.59 225.88 278.26 221.77 C 275.23 219.77 273.48 216.49 271.73 213.43 C 267.43 215.54 262.31 217.57 257.67 215.18 C 250.98 212.45 248.26 205.10 247.63 198.41 C 242.30 198.48 236.37 197.62 232.86 193.14 C 228.13 188.19 228.83 180.63 231.56 174.87 C 227.14 172.95 222.10 170.60 220.53 165.62 C 218.35 160.62 220.86 155.44 223.01 150.94 C 219.66 147.43 215.69 143.42 216.27 138.12 C 216.14 132.74 220.62 129.10 224.44 126.07 C 221.97 121.79 219.37 116.56 221.82 111.67 C 223.86 105.89 230.85 105.51 236.02 105.58 C 243.84 105.76 252.88 105.33 258.28 98.80 C 254.05 98.16 249.34 97.98 245.97 94.99 C 241.62 91.44 239.34 85.62 240.20 80.06 C 241.72 70.09 252.83 62.46 262.65 65.46 C 266.82 66.42 270.15 69.25 273.29 72.01 M 280.89 66.89 C 277.67 69.34 276.06 73.15 274.12 76.57 C 270.47 72.15 265.94 67.69 259.89 67.23 C 250.05 65.76 240.21 75.68 242.62 85.55 C 244.04 93.30 253.14 98.38 260.44 95.42 C 264.28 92.67 267.03 87.03 264.46 82.58 C 262.51 79.02 256.82 77.83 254.15 81.21 C 252.61 82.80 253.70 84.97 254.13 86.77 C 255.89 86.70 257.64 86.54 259.40 86.42 C 259.22 87.02 258.86 88.24 258.68 88.84 C 256.97 88.98 255.01 89.89 253.51 88.60 C 249.85 86.24 250.39 80.23 254.08 78.15 C 258.63 75.06 265.24 77.78 267.13 82.71 C 268.72 86.97 267.21 91.88 264.12 95.07 C 260.59 98.59 258.11 103.43 253.27 105.38 C 245.20 109.15 236.01 106.47 227.65 108.76 C 220.97 111.61 222.25 122.29 228.03 125.43 C 238.45 123.43 248.69 118.87 256.11 111.11 C 260.82 106.35 264.26 100.45 266.61 94.21 C 267.21 94.18 268.42 94.13 269.02 94.10 C 265.27 105.61 257.08 115.65 246.38 121.38 C 240.63 124.61 234.26 126.47 227.87 127.94 C 222.52 129.02 217.81 134.06 218.44 139.73 C 218.75 143.94 222.15 146.83 225.18 149.33 C 237.68 142.36 249.13 133.35 258.36 122.38 C 263.83 115.65 268.60 108.03 270.48 99.47 C 271.05 97.46 270.92 94.69 273.61 94.42 C 272.95 104.10 268.32 112.99 262.65 120.66 C 253.33 133.06 240.94 142.83 227.64 150.65 C 221.09 154.44 219.83 165.26 226.33 169.72 C 229.03 171.50 233.14 173.76 235.86 170.84 C 257.55 153.74 270.68 127.47 275.29 100.57 C 275.89 98.39 275.24 94.87 278.39 94.77 C 277.29 106.15 274.19 117.28 269.95 127.88 C 262.87 145.25 251.95 161.43 236.93 172.89 C 231.87 176.35 229.90 183.67 232.80 189.13 C 235.46 194.55 242.46 197.72 248.15 195.24 C 251.69 190.86 254.04 185.64 256.72 180.71 C 269.93 153.97 278.66 124.82 281.22 95.06 C 281.18 93.52 281.95 92.58 283.52 92.23 C 283.06 107.66 279.76 122.88 275.71 137.72 C 270.23 156.86 262.97 175.64 252.68 192.74 C 246.42 200.38 253.02 214.25 263.01 213.94 C 266.14 213.95 269.17 212.53 271.40 210.38 C 273.36 206.29 273.99 201.71 275.20 197.37 C 283.07 163.51 285.41 128.64 286.09 93.97 C 286.34 91.89 285.32 88.65 288.39 88.48 C 288.11 126.36 285.58 164.54 276.59 201.45 C 275.73 206.06 272.55 211.08 275.47 215.57 C 279.76 222.92 290.06 224.39 297.44 221.32 C 302.34 219.36 306.92 213.84 304.88 208.36 C 300.53 193.34 297.82 177.89 295.76 162.40 C 292.67 138.04 291.23 113.49 291.20 88.94 C 291.77 89.01 292.92 89.13 293.49 89.19 C 293.50 106.26 294.34 123.33 295.72 140.34 C 297.74 162.88 300.83 185.42 306.92 207.25 C 307.70 211.82 312.85 214.04 317.05 213.94 C 325.47 213.78 331.04 203.83 328.89 196.26 C 318.65 179.55 310.96 161.36 305.29 142.62 C 300.46 126.41 296.83 109.73 295.99 92.80 C 296.55 92.78 297.69 92.75 298.25 92.73 C 299.14 108.48 302.34 124.02 306.70 139.15 C 312.16 157.76 319.41 175.96 329.44 192.60 C 331.76 197.80 338.96 196.47 342.77 193.77 C 349.58 189.37 349.85 178.44 343.49 173.55 C 322.62 157.79 309.37 133.59 303.46 108.43 C 302.44 103.85 301.36 99.23 301.39 94.50 C 304.46 95.51 303.76 99.22 304.49 101.73 C 309.43 129.15 323.31 155.84 346.02 172.61 C 349.27 171.74 352.83 170.83 355.04 168.06 C 359.74 162.84 357.59 153.71 351.59 150.44 C 341.93 144.76 332.84 138.03 324.99 130.02 C 315.63 120.32 307.04 108.39 306.05 94.53 C 306.53 94.74 307.49 95.14 307.97 95.35 C 309.63 102.51 311.99 109.60 316.27 115.68 C 325.74 129.97 339.58 140.74 354.21 149.36 C 356.85 147.28 359.76 145.05 360.73 141.66 C 362.48 136.75 359.35 131.26 354.86 129.09 C 350.21 127.07 345.02 126.69 340.36 124.68 C 326.38 119.66 314.69 108.09 310.56 93.71 C 312.13 93.82 313.27 94.71 313.74 96.21 C 316.87 103.51 321.54 110.26 327.88 115.12 C 334.87 120.65 343.41 123.78 352.05 125.62 C 354.14 123.15 356.36 120.41 356.42 117.00 C 356.65 113.65 355.14 109.56 351.57 108.65 C 343.34 106.59 334.40 109.06 326.47 105.44 C 321.65 103.57 319.16 98.79 315.66 95.33 C 312.32 91.87 310.44 86.34 312.85 81.86 C 315.15 77.12 322.11 75.06 326.22 78.74 C 329.55 81.16 329.41 87.00 325.60 88.86 C 323.68 90.13 321.61 88.55 319.74 88.02 C 320.07 87.62 320.73 86.82 321.06 86.41 C 322.89 86.65 325.80 87.49 326.12 84.78 C 327.42 80.04 320.63 77.57 317.33 80.31 C 311.44 84.09 314.55 93.51 320.19 95.83 C 327.23 97.79 335.27 93.12 336.85 85.94 C 339.62 76.11 329.91 65.92 320.03 67.20 C 313.75 67.43 309.28 72.24 305.36 76.57 C 303.54 73.21 302.03 69.47 298.93 67.05 C 293.85 62.94 286.02 62.80 280.89 66.89 Z" />
<path fill="#373a3a" opacity="1.00" d=" M 192.36 245.45 C 197.92 242.50 205.21 242.87 210.30 246.67 C 212.85 248.58 214.61 251.29 216.46 253.85 C 220.47 250.70 224.72 247.29 229.99 246.75 C 239.64 245.43 249.30 253.31 250.17 262.97 C 250.58 268.96 247.46 275.18 242.17 278.15 C 239.02 279.86 235.35 280.07 231.89 280.67 C 234.32 282.77 236.78 285.09 239.96 285.98 C 247.12 287.98 254.66 286.82 261.93 288.05 C 266.96 288.82 269.66 294.34 269.31 299.02 C 268.91 302.26 267.23 305.13 265.78 307.99 C 269.64 310.96 274.10 314.63 273.88 320.03 C 274.47 325.37 270.41 329.34 267.06 332.88 C 269.51 337.30 271.71 342.62 269.57 347.62 C 267.98 352.45 263.02 354.56 258.89 356.73 C 261.16 362.44 262.10 369.68 257.61 374.60 C 254.10 379.36 247.96 380.26 242.46 380.38 C 241.92 383.63 241.50 386.99 239.96 389.96 C 237.66 394.44 233.02 397.67 227.99 398.12 C 224.58 398.09 221.45 396.56 218.34 395.32 C 216.50 398.65 214.55 402.22 211.07 404.09 C 204.83 407.57 196.82 407.61 190.43 404.50 C 186.60 402.68 184.42 398.88 182.51 395.30 C 178.23 397.13 173.37 399.32 168.79 397.16 C 161.95 394.63 158.78 387.23 158.39 380.40 C 155.02 380.09 151.50 380.05 148.36 378.65 C 143.48 376.43 140.11 371.34 139.82 366.01 C 139.89 362.72 141.02 359.60 141.92 356.48 C 137.65 354.66 132.86 352.40 131.28 347.64 C 129.12 342.62 131.28 337.24 133.82 332.82 C 130.15 329.18 125.91 324.72 126.79 319.08 C 127.36 313.98 131.45 310.52 135.53 308.00 C 133.54 305.00 131.35 301.76 131.55 297.99 C 131.41 293.49 134.41 288.69 139.09 288.01 C 146.35 286.81 153.88 287.97 161.04 285.95 C 164.04 285.11 166.36 282.93 168.60 280.89 C 164.62 279.96 160.25 279.62 156.90 277.04 C 151.66 273.05 149.26 265.63 151.44 259.37 C 154.10 251.08 163.16 245.16 171.85 246.93 C 176.66 247.72 180.60 250.80 184.12 253.97 C 186.50 250.82 188.80 247.38 192.36 245.45 M 191.60 248.60 C 188.31 251.00 186.68 254.85 184.88 258.36 C 181.28 254.47 177.44 250.15 171.93 249.23 C 161.56 246.57 150.33 257.30 153.37 267.80 C 155.00 275.39 163.99 280.04 171.11 277.15 C 175.03 274.35 177.77 268.48 174.89 264.05 C 172.75 260.52 166.61 259.73 164.42 263.60 C 163.18 265.21 164.55 267.01 164.97 268.67 C 166.83 268.55 168.69 268.44 170.56 268.47 C 169.39 270.12 167.45 271.96 165.26 270.95 C 161.36 269.62 160.32 264.04 163.25 261.24 C 166.74 257.16 173.59 258.22 176.54 262.40 C 179.91 266.71 178.38 273.06 174.84 276.78 C 171.29 280.25 168.82 285.05 164.06 287.08 C 156.30 290.77 147.49 288.57 139.34 290.25 C 134.93 290.93 133.12 296.10 133.91 300.01 C 134.35 302.91 136.31 305.19 138.10 307.40 C 146.43 305.69 154.65 302.69 161.49 297.54 C 167.67 292.97 172.53 286.70 175.64 279.69 C 176.40 278.27 176.84 276.58 178.11 275.50 C 180.65 275.87 178.49 278.74 178.09 280.10 C 171.70 295.37 156.99 305.91 140.99 309.10 C 135.31 309.84 129.22 313.80 129.09 320.06 C 128.62 324.89 132.33 328.57 135.95 331.12 C 146.51 325.03 156.44 317.72 164.85 308.86 C 172.11 301.02 178.66 291.94 181.09 281.37 C 181.69 279.34 181.45 276.32 184.33 276.35 C 183.27 287.35 177.64 297.31 170.72 305.70 C 162.69 315.39 152.80 323.44 142.14 330.08 C 139.57 331.78 136.44 332.99 134.80 335.76 C 132.27 339.54 131.65 344.83 134.29 348.72 C 136.34 352.17 140.39 353.39 144.00 354.44 C 168.64 336.48 182.81 306.86 186.71 277.11 C 187.27 277.10 188.40 277.07 188.97 277.06 C 185.34 307.16 170.96 336.94 146.50 355.52 C 142.01 359.23 140.79 366.28 143.63 371.34 C 146.44 376.57 153.44 379.52 158.93 376.90 C 162.76 371.83 165.48 366.00 168.39 360.38 C 181.29 333.62 189.68 304.54 192.05 274.89 C 192.61 274.73 193.73 274.39 194.29 274.23 C 193.41 290.34 190.15 306.25 185.69 321.73 C 179.97 341.24 172.22 360.26 161.54 377.60 C 158.82 385.17 164.54 395.47 173.03 395.78 C 177.52 395.90 182.86 393.35 183.45 388.44 C 193.69 350.14 196.28 310.26 196.72 270.76 C 197.34 270.77 198.59 270.77 199.21 270.78 C 198.35 311.53 195.96 352.74 184.84 392.16 C 184.49 395.53 186.56 398.83 189.08 400.94 C 195.35 405.77 204.82 405.86 211.26 401.30 C 214.30 399.05 216.67 395.15 215.73 391.27 C 204.88 352.11 202.31 311.21 201.71 270.75 C 202.32 270.76 203.52 270.78 204.13 270.79 C 204.52 310.34 207.14 350.28 217.42 388.63 C 218.18 393.82 224.16 396.30 228.87 395.69 C 236.85 394.53 241.66 385.00 239.34 377.67 C 228.78 360.63 221.12 341.93 215.42 322.76 C 210.84 306.92 207.31 290.64 206.60 274.13 C 207.12 274.34 208.18 274.77 208.70 274.99 C 211.49 306.81 220.68 338.11 235.52 366.41 C 237.57 370.00 239.34 373.81 241.98 377.03 C 246.87 379.07 252.87 377.21 256.04 373.02 C 260.10 368.20 259.41 360.41 254.97 356.08 C 230.05 337.35 215.34 307.17 211.79 276.59 C 212.31 276.78 213.35 277.17 213.88 277.36 C 215.03 281.70 215.36 286.22 216.54 290.56 C 222.33 314.43 234.83 337.35 254.39 352.66 C 257.25 355.60 261.48 353.13 264.23 351.24 C 270.42 346.60 268.96 336.21 262.57 332.47 C 252.50 326.54 243.00 319.54 234.91 311.08 C 225.75 301.56 217.78 289.79 216.51 276.30 C 217.04 276.51 218.10 276.93 218.63 277.14 C 220.25 284.97 223.20 292.54 227.95 299.03 C 237.44 312.54 250.71 322.97 264.93 331.12 C 268.70 328.36 272.57 324.33 271.71 319.23 C 270.94 313.05 264.75 309.69 259.12 308.93 C 242.87 305.57 228.18 294.40 222.14 278.72 C 221.06 277.41 221.41 274.09 223.47 276.26 C 225.17 279.34 226.38 282.69 228.34 285.64 C 235.72 297.60 249.06 305.16 262.76 307.15 C 266.72 303.84 268.31 297.77 265.74 293.16 C 264.33 290.54 261.10 290.03 258.43 289.73 C 251.02 289.16 243.12 290.28 236.24 286.84 C 231.96 284.93 229.80 280.56 226.56 277.44 C 223.02 273.95 221.00 268.21 223.52 263.58 C 225.94 258.76 233.17 256.77 237.16 260.84 C 240.40 263.49 239.75 269.34 235.75 270.86 C 233.56 272.01 231.34 270.30 230.39 268.37 C 232.24 268.41 234.09 268.55 235.95 268.65 C 236.31 267.02 237.41 265.25 236.46 263.63 C 234.29 259.78 228.20 260.48 226.00 263.96 C 222.95 268.36 225.78 274.41 229.74 277.20 C 237.01 280.01 246.07 275.25 247.53 267.47 C 250.19 257.10 239.27 246.74 229.06 249.20 C 223.82 250.00 219.96 253.87 216.69 257.73 C 216.40 257.70 215.84 257.64 215.55 257.62 C 213.76 254.45 212.37 250.83 209.29 248.65 C 204.23 244.73 196.67 244.69 191.60 248.60 Z" />
</g>
<g id="#f9d122ff">
<path fill="#f9d122" opacity="1.00" d=" M 2.38 1.75 C 121.92 1.48 241.46 1.71 361.00 1.63 C 373.50 1.71 386.01 1.47 398.51 1.77 C 398.40 80.18 398.49 158.59 398.46 237.00 C 398.92 266.94 394.69 297.13 384.35 325.31 C 377.51 344.17 367.92 361.99 356.38 378.40 C 348.31 390.10 339.09 400.99 328.70 410.70 C 304.25 434.50 274.74 453.00 242.76 464.87 C 230.00 469.71 216.88 473.53 203.64 476.79 C 201.54 477.38 199.34 477.51 197.24 476.86 C 172.04 470.74 147.32 462.07 124.61 449.45 C 99.71 435.81 77.46 417.56 58.48 396.49 C 38.15 372.34 21.99 344.43 12.77 314.16 C 5.24 289.55 2.01 263.70 2.40 238.00 C 2.39 159.25 2.44 80.50 2.38 1.75 M 8.38 7.79 C 8.44 87.53 8.37 167.27 8.42 247.02 C 8.77 268.36 11.77 289.72 17.79 310.22 C 26.60 340.43 42.53 368.28 62.67 392.35 C 83.22 415.31 107.82 434.73 135.37 448.61 C 154.94 458.53 175.82 465.69 197.12 470.87 C 201.53 472.21 205.91 470.03 210.19 469.15 C 245.41 460.10 279.19 444.47 307.53 421.53 C 322.16 409.60 335.99 396.44 347.13 381.14 C 358.56 365.84 368.29 349.24 375.56 331.57 C 386.56 305.15 391.76 276.53 392.43 247.99 C 392.46 167.90 392.50 87.80 392.41 7.71 C 264.40 7.72 136.39 7.55 8.38 7.79 Z" />
</g>
<g id="#fefefeff">
<path fill="#fefefe" opacity="1.00" d=" M 10.24 9.54 C 137.04 9.58 263.83 9.59 390.63 9.53 C 390.56 81.02 390.62 152.51 390.60 224.00 C 390.49 236.87 391.01 249.78 389.78 262.63 C 387.60 291.77 379.98 320.60 366.56 346.61 C 358.57 362.27 348.63 376.90 337.44 390.44 C 311.89 419.46 279.47 442.41 243.41 456.42 C 229.30 461.81 214.84 466.61 200.01 469.47 C 178.39 464.71 157.27 457.39 137.43 447.54 C 109.78 433.82 85.05 414.47 64.45 391.53 C 43.53 366.73 27.20 337.76 18.63 306.36 C 12.67 284.80 10.03 262.36 10.26 240.00 C 10.25 163.18 10.28 86.36 10.24 9.54 M 16.56 15.85 C 16.52 93.56 16.54 171.28 16.55 248.99 C 16.73 294.83 32.34 340.39 60.30 376.71 C 94.26 421.30 145.21 452.08 199.98 463.21 C 231.73 457.15 262.13 444.04 288.82 425.84 C 326.04 400.43 355.68 363.66 371.20 321.24 C 380.07 297.22 384.40 271.59 384.33 246.00 C 384.31 169.28 384.35 92.57 384.31 15.85 C 261.72 15.85 139.14 15.86 16.56 15.85 Z" />
<path fill="#fefefe" opacity="1.00" d=" M 101.82 66.80 C 107.38 62.44 115.99 63.05 120.93 68.07 C 123.22 70.58 124.70 73.67 126.44 76.56 C 130.08 71.98 134.80 67.41 141.02 67.18 C 150.75 66.02 160.31 75.98 157.75 85.69 C 156.26 93.20 147.62 98.10 140.40 95.61 C 136.41 93.25 134.01 88.07 135.46 83.54 C 136.87 79.44 143.04 77.52 146.06 80.98 C 147.69 82.51 146.80 84.71 146.48 86.57 C 144.37 86.57 142.16 86.38 140.31 87.61 C 142.21 88.48 144.46 90.26 146.55 88.79 C 150.23 86.87 150.38 81.25 147.15 78.81 C 142.90 74.84 135.48 77.28 133.41 82.42 C 131.46 86.87 133.31 92.09 136.58 95.40 C 139.96 98.66 142.22 103.25 146.73 105.17 C 154.77 109.14 163.99 106.53 172.41 108.64 C 175.99 109.54 177.47 113.64 177.28 116.98 C 177.20 120.37 175.00 123.09 172.95 125.58 C 164.32 123.84 155.82 120.66 148.84 115.19 C 142.48 110.38 137.80 103.66 134.68 96.37 C 134.19 94.80 133.08 93.78 131.40 93.64 C 135.23 107.04 145.67 118.13 158.43 123.53 C 163.04 125.63 167.97 126.79 172.86 128.00 C 178.11 129.22 182.70 134.27 181.90 139.89 C 181.63 144.09 178.20 146.97 175.10 149.34 C 160.26 140.68 146.29 129.72 136.81 115.20 C 132.69 109.23 130.47 102.29 128.79 95.32 C 128.27 95.10 127.25 94.67 126.74 94.45 C 128.06 108.59 136.67 120.79 146.43 130.58 C 154.12 138.39 163.05 144.91 172.49 150.46 C 178.18 153.65 180.42 162.07 176.40 167.40 C 174.27 170.56 170.44 171.66 166.97 172.61 C 143.96 155.77 130.03 128.68 125.20 100.97 C 124.57 98.73 125.18 95.28 122.24 94.61 C 122.25 100.19 123.67 105.64 124.94 111.04 C 131.11 135.01 143.94 157.99 163.87 173.15 C 168.63 176.56 170.24 183.53 167.79 188.77 C 165.27 194.46 158.36 197.36 152.49 195.42 C 148.82 191.20 146.59 185.92 143.89 181.06 C 130.21 153.64 121.49 123.63 118.96 93.07 C 118.40 92.90 117.29 92.55 116.74 92.38 C 117.85 111.83 122.24 130.98 128.32 149.46 C 133.24 164.12 139.24 178.51 147.18 191.81 C 148.41 194.09 150.41 196.25 150.26 199.00 C 150.21 204.18 147.85 209.56 143.34 212.35 C 138.80 215.21 132.33 214.09 128.85 210.06 C 127.46 207.14 126.92 203.91 126.06 200.81 C 117.04 164.11 114.84 126.16 114.19 88.50 C 111.20 88.72 112.07 91.91 112.00 93.98 C 112.74 130.19 115.19 166.67 123.96 201.93 C 124.73 206.26 127.78 210.88 125.16 215.14 C 121.60 221.99 112.67 223.94 105.66 222.21 C 100.42 221.03 95.22 216.83 95.07 211.11 C 95.95 205.68 97.92 200.49 98.96 195.10 C 106.63 160.13 108.98 124.20 109.26 88.48 C 108.75 88.70 107.71 89.14 107.20 89.36 C 106.44 95.12 106.98 100.98 106.61 106.78 C 105.42 140.34 102.47 174.12 93.67 206.64 C 92.87 212.53 85.68 214.98 80.54 213.53 C 74.45 211.68 70.93 205.08 71.09 198.97 C 70.93 195.55 73.66 193.02 75.08 190.14 C 85.85 171.31 93.35 150.74 98.65 129.75 C 101.63 117.46 103.97 104.94 104.43 92.27 C 103.92 92.49 102.91 92.92 102.40 93.14 C 99.09 128.05 88.73 162.59 70.81 192.84 C 69.45 196.33 65.30 196.24 62.20 195.74 C 55.22 194.42 50.51 186.46 52.86 179.71 C 54.39 173.84 60.48 171.41 64.35 167.35 C 84.24 148.44 96.10 121.88 99.24 94.81 C 96.15 94.82 96.73 98.27 96.16 100.39 C 91.60 127.33 78.45 153.61 56.78 170.77 C 53.86 173.89 49.47 171.34 46.66 169.33 C 40.59 164.58 42.16 154.29 48.56 150.60 C 61.28 143.15 73.04 133.82 82.26 122.27 C 88.54 114.21 93.70 104.76 94.48 94.40 C 91.72 94.66 91.90 97.54 91.30 99.58 C 89.29 108.53 84.18 116.43 78.36 123.38 C 69.30 133.91 58.13 142.50 46.07 149.33 C 43.02 146.91 39.66 144.04 39.31 139.88 C 38.58 134.48 42.84 129.51 47.89 128.16 C 52.59 126.89 57.40 125.91 61.88 123.93 C 75.02 118.63 86.06 107.38 89.79 93.57 C 86.62 94.03 86.31 97.64 84.89 99.91 C 78.23 113.83 63.91 122.78 49.01 125.35 C 43.06 122.62 41.80 111.32 48.63 108.71 C 57.01 106.47 66.21 109.15 74.28 105.29 C 79.09 103.34 81.45 98.46 85.01 95.02 C 88.66 91.26 90.15 84.72 86.60 80.40 C 83.62 76.35 76.88 75.42 73.47 79.43 C 70.85 82.00 71.36 86.76 74.50 88.67 C 76.55 90.29 78.95 88.51 80.96 87.79 C 79.34 86.13 77.12 86.61 75.06 86.74 C 74.48 84.94 73.48 82.71 75.05 81.10 C 77.99 77.56 84.16 79.29 85.72 83.35 C 87.55 87.71 84.92 92.71 81.38 95.36 C 73.81 98.56 64.30 92.91 63.34 84.77 C 61.53 75.04 71.30 65.71 80.90 67.24 C 86.56 67.70 90.87 71.77 94.32 75.90 C 94.63 75.84 95.23 75.73 95.54 75.68 C 97.29 72.51 98.75 68.97 101.82 66.80 Z" />
<path fill="#fefefe" opacity="1.00" d=" M 280.89 66.89 C 286.02 62.80 293.85 62.94 298.93 67.05 C 302.03 69.47 303.54 73.21 305.36 76.57 C 309.28 72.24 313.75 67.43 320.03 67.20 C 329.91 65.92 339.62 76.11 336.85 85.94 C 335.27 93.12 327.23 97.79 320.19 95.83 C 314.55 93.51 311.44 84.09 317.33 80.31 C 320.63 77.57 327.42 80.04 326.12 84.78 C 325.80 87.49 322.89 86.65 321.06 86.41 C 320.73 86.82 320.07 87.62 319.74 88.02 C 321.61 88.55 323.68 90.13 325.60 88.86 C 329.41 87.00 329.55 81.16 326.22 78.74 C 322.11 75.06 315.15 77.12 312.85 81.86 C 310.44 86.34 312.32 91.87 315.66 95.33 C 319.16 98.79 321.65 103.57 326.47 105.44 C 334.40 109.06 343.34 106.59 351.57 108.65 C 355.14 109.56 356.65 113.65 356.42 117.00 C 356.36 120.41 354.14 123.15 352.05 125.62 C 343.41 123.78 334.87 120.65 327.88 115.12 C 321.54 110.26 316.87 103.51 313.74 96.21 C 313.27 94.71 312.13 93.82 310.56 93.71 C 314.69 108.09 326.38 119.66 340.36 124.68 C 345.02 126.69 350.21 127.07 354.86 129.09 C 359.35 131.26 362.48 136.75 360.73 141.66 C 359.76 145.05 356.85 147.28 354.21 149.36 C 339.58 140.74 325.74 129.97 316.27 115.68 C 311.99 109.60 309.63 102.51 307.97 95.35 C 307.49 95.14 306.53 94.74 306.05 94.53 C 307.04 108.39 315.63 120.32 324.99 130.02 C 332.84 138.03 341.93 144.76 351.59 150.44 C 357.59 153.71 359.74 162.84 355.04 168.06 C 352.83 170.83 349.27 171.74 346.02 172.61 C 323.31 155.84 309.43 129.15 304.49 101.73 C 303.76 99.22 304.46 95.51 301.39 94.50 C 301.36 99.23 302.44 103.85 303.46 108.43 C 309.37 133.59 322.62 157.79 343.49 173.55 C 349.85 178.44 349.58 189.37 342.77 193.77 C 338.96 196.47 331.76 197.80 329.44 192.60 C 319.41 175.96 312.16 157.76 306.70 139.15 C 302.34 124.02 299.14 108.48 298.25 92.73 C 297.69 92.75 296.55 92.78 295.99 92.80 C 296.83 109.73 300.46 126.41 305.29 142.62 C 310.96 161.36 318.65 179.55 328.89 196.26 C 331.04 203.83 325.47 213.78 317.05 213.94 C 312.85 214.04 307.70 211.82 306.92 207.25 C 300.83 185.42 297.74 162.88 295.72 140.34 C 294.34 123.33 293.50 106.26 293.49 89.19 C 292.92 89.13 291.77 89.01 291.20 88.94 C 291.23 113.49 292.67 138.04 295.76 162.40 C 297.82 177.89 300.53 193.34 304.88 208.36 C 306.92 213.84 302.34 219.36 297.44 221.32 C 290.06 224.39 279.76 222.92 275.47 215.57 C 272.55 211.08 275.73 206.06 276.59 201.45 C 285.58 164.54 288.11 126.36 288.39 88.48 C 285.32 88.65 286.34 91.89 286.09 93.97 C 285.41 128.64 283.07 163.51 275.20 197.37 C 273.99 201.71 273.36 206.29 271.40 210.38 C 269.17 212.53 266.14 213.95 263.01 213.94 C 253.02 214.25 246.42 200.38 252.68 192.74 C 262.97 175.64 270.23 156.86 275.71 137.72 C 279.76 122.88 283.06 107.66 283.52 92.23 C 281.95 92.58 281.18 93.52 281.22 95.06 C 278.66 124.82 269.93 153.97 256.72 180.71 C 254.04 185.64 251.69 190.86 248.15 195.24 C 242.46 197.72 235.46 194.55 232.80 189.13 C 229.90 183.67 231.87 176.35 236.93 172.89 C 251.95 161.43 262.87 145.25 269.95 127.88 C 274.19 117.28 277.29 106.15 278.39 94.77 C 275.24 94.87 275.89 98.39 275.29 100.57 C 270.68 127.47 257.55 153.74 235.86 170.84 C 233.14 173.76 229.03 171.50 226.33 169.72 C 219.83 165.26 221.09 154.44 227.64 150.65 C 240.94 142.83 253.33 133.06 262.65 120.66 C 268.32 112.99 272.95 104.10 273.61 94.42 C 270.92 94.69 271.05 97.46 270.48 99.47 C 268.60 108.03 263.83 115.65 258.36 122.38 C 249.13 133.35 237.68 142.36 225.18 149.33 C 222.15 146.83 218.75 143.94 218.44 139.73 C 217.81 134.06 222.52 129.02 227.87 127.94 C 234.26 126.47 240.63 124.61 246.38 121.38 C 257.08 115.65 265.27 105.61 269.02 94.10 C 268.42 94.13 267.21 94.18 266.61 94.21 C 264.26 100.45 260.82 106.35 256.11 111.11 C 248.69 118.87 238.45 123.43 228.03 125.43 C 222.25 122.29 220.97 111.61 227.65 108.76 C 236.01 106.47 245.20 109.15 253.27 105.38 C 258.11 103.43 260.59 98.59 264.12 95.07 C 267.21 91.88 268.72 86.97 267.13 82.71 C 265.24 77.78 258.63 75.06 254.08 78.15 C 250.39 80.23 249.85 86.24 253.51 88.60 C 255.01 89.89 256.97 88.98 258.68 88.84 C 258.86 88.24 259.22 87.02 259.40 86.42 C 257.64 86.54 255.89 86.70 254.13 86.77 C 253.70 84.97 252.61 82.80 254.15 81.21 C 256.82 77.83 262.51 79.02 264.46 82.58 C 267.03 87.03 264.28 92.67 260.44 95.42 C 253.14 98.38 244.04 93.30 242.62 85.55 C 240.21 75.68 250.05 65.76 259.89 67.23 C 265.94 67.69 270.47 72.15 274.12 76.57 C 276.06 73.15 277.67 69.34 280.89 66.89 Z" />
<path fill="#fefefe" opacity="1.00" d=" M 191.60 248.60 C 196.67 244.69 204.23 244.73 209.29 248.65 C 212.37 250.83 213.76 254.45 215.55 257.62 C 215.84 257.64 216.40 257.70 216.69 257.73 C 219.96 253.87 223.82 250.00 229.06 249.20 C 239.27 246.74 250.19 257.10 247.53 267.47 C 246.07 275.25 237.01 280.01 229.74 277.20 C 225.78 274.41 222.95 268.36 226.00 263.96 C 228.20 260.48 234.29 259.78 236.46 263.63 C 237.41 265.25 236.31 267.02 235.95 268.65 C 234.09 268.55 232.24 268.41 230.39 268.37 C 231.34 270.30 233.56 272.01 235.75 270.86 C 239.75 269.34 240.40 263.49 237.16 260.84 C 233.17 256.77 225.94 258.76 223.52 263.58 C 221.00 268.21 223.02 273.95 226.56 277.44 C 229.80 280.56 231.96 284.93 236.24 286.84 C 243.12 290.28 251.02 289.16 258.43 289.73 C 261.10 290.03 264.33 290.54 265.74 293.16 C 268.31 297.77 266.72 303.84 262.76 307.15 C 249.06 305.16 235.72 297.60 228.34 285.64 C 226.38 282.69 225.17 279.34 223.47 276.26 C 221.41 274.09 221.06 277.41 222.14 278.72 C 228.18 294.40 242.87 305.57 259.12 308.93 C 264.75 309.69 270.94 313.05 271.71 319.23 C 272.57 324.33 268.70 328.36 264.93 331.12 C 250.71 322.97 237.44 312.54 227.95 299.03 C 223.20 292.54 220.25 284.97 218.63 277.14 C 218.10 276.93 217.04 276.51 216.51 276.30 C 217.78 289.79 225.75 301.56 234.91 311.08 C 243.00 319.54 252.50 326.54 262.57 332.47 C 268.96 336.21 270.42 346.60 264.23 351.24 C 261.48 353.13 257.25 355.60 254.39 352.66 C 234.83 337.35 222.33 314.43 216.54 290.56 C 215.36 286.22 215.03 281.70 213.88 277.36 C 213.35 277.17 212.31 276.78 211.79 276.59 C 215.34 307.17 230.05 337.35 254.97 356.08 C 259.41 360.41 260.10 368.20 256.04 373.02 C 252.87 377.21 246.87 379.07 241.98 377.03 C 239.34 373.81 237.57 370.00 235.52 366.41 C 220.68 338.11 211.49 306.81 208.70 274.99 C 208.18 274.77 207.12 274.34 206.60 274.13 C 207.31 290.64 210.84 306.92 215.42 322.76 C 221.12 341.93 228.78 360.63 239.34 377.67 C 241.66 385.00 236.85 394.53 228.87 395.69 C 224.16 396.30 218.18 393.82 217.42 388.63 C 207.14 350.28 204.52 310.34 204.13 270.79 C 203.52 270.78 202.32 270.76 201.71 270.75 C 202.31 311.21 204.88 352.11 215.73 391.27 C 216.67 395.15 214.30 399.05 211.26 401.30 C 204.82 405.86 195.35 405.77 189.08 400.94 C 186.56 398.83 184.49 395.53 184.84 392.16 C 195.96 352.74 198.35 311.53 199.21 270.78 C 198.59 270.77 197.34 270.77 196.72 270.76 C 196.28 310.26 193.69 350.14 183.45 388.44 C 182.86 393.35 177.52 395.90 173.03 395.78 C 164.54 395.47 158.82 385.17 161.54 377.60 C 172.22 360.26 179.97 341.24 185.69 321.73 C 190.15 306.25 193.41 290.34 194.29 274.23 C 193.73 274.39 192.61 274.73 192.05 274.89 C 189.68 304.54 181.29 333.62 168.39 360.38 C 165.48 366.00 162.76 371.83 158.93 376.90 C 153.44 379.52 146.44 376.57 143.63 371.34 C 140.79 366.28 142.01 359.23 146.50 355.52 C 170.96 336.94 185.34 307.16 188.97 277.06 C 188.40 277.07 187.27 277.10 186.71 277.11 C 182.81 306.86 168.64 336.48 144.00 354.44 C 140.39 353.39 136.34 352.17 134.29 348.72 C 131.65 344.83 132.27 339.54 134.80 335.76 C 136.44 332.99 139.57 331.78 142.14 330.08 C 152.80 323.44 162.69 315.39 170.72 305.70 C 177.64 297.31 183.27 287.35 184.33 276.35 C 181.45 276.32 181.69 279.34 181.09 281.37 C 178.66 291.94 172.11 301.02 164.85 308.86 C 156.44 317.72 146.51 325.03 135.95 331.12 C 132.33 328.57 128.62 324.89 129.09 320.06 C 129.22 313.80 135.31 309.84 140.99 309.10 C 156.99 305.91 171.70 295.37 178.09 280.10 C 178.49 278.74 180.65 275.87 178.11 275.50 C 176.84 276.58 176.40 278.27 175.64 279.69 C 172.53 286.70 167.67 292.97 161.49 297.54 C 154.65 302.69 146.43 305.69 138.10 307.40 C 136.31 305.19 134.35 302.91 133.91 300.01 C 133.12 296.10 134.93 290.93 139.34 290.25 C 147.49 288.57 156.30 290.77 164.06 287.08 C 168.82 285.05 171.29 280.25 174.84 276.78 C 178.38 273.06 179.91 266.71 176.54 262.40 C 173.59 258.22 166.74 257.16 163.25 261.24 C 160.32 264.04 161.36 269.62 165.26 270.95 C 167.45 271.96 169.39 270.12 170.56 268.47 C 168.69 268.44 166.83 268.55 164.97 268.67 C 164.55 267.01 163.18 265.21 164.42 263.60 C 166.61 259.73 172.75 260.52 174.89 264.05 C 177.77 268.48 175.03 274.35 171.11 277.15 C 163.99 280.04 155.00 275.39 153.37 267.80 C 150.33 257.30 161.56 246.57 171.93 249.23 C 177.44 250.15 181.28 254.47 184.88 258.36 C 186.68 254.85 188.31 251.00 191.60 248.60 Z" />
</g>
<g id="#ef494dff">
<path fill="#ef494d" opacity="1.00" d=" M 20.31 19.46 C 140.41 19.54 260.51 19.53 380.61 19.47 C 380.65 96.99 380.66 174.50 380.61 252.02 C 379.99 284.95 371.40 317.71 355.70 346.68 C 334.47 386.21 300.32 418.28 260.38 438.46 C 242.24 447.76 222.88 454.56 203.02 459.09 C 199.09 460.05 195.19 458.46 191.39 457.62 C 161.11 449.95 132.23 436.54 107.20 417.82 C 79.81 397.49 57.06 370.83 41.87 340.25 C 27.40 311.12 19.82 278.55 20.25 246.01 C 20.30 170.49 20.18 94.98 20.31 19.46 M 94.23 72.05 C 91.07 69.35 87.77 66.52 83.65 65.49 C 74.59 62.62 64.34 68.80 61.63 77.69 C 59.43 84.04 62.10 91.56 67.47 95.49 C 70.83 98.04 75.23 98.17 79.23 98.79 C 73.76 105.18 64.85 105.78 57.02 105.57 C 52.05 105.58 45.41 105.65 43.00 110.95 C 40.19 115.95 42.55 121.61 45.27 126.06 C 41.53 129.14 37.05 132.69 37.16 138.06 C 36.54 143.40 40.47 147.50 43.98 150.92 C 41.74 155.36 39.24 160.53 41.38 165.51 C 42.91 170.50 47.90 172.87 52.27 174.90 C 49.95 180.35 48.94 187.16 52.89 192.15 C 56.30 197.28 62.76 198.55 68.51 198.43 C 69.19 204.89 71.62 212.02 77.97 214.92 C 82.74 217.65 88.17 215.61 92.68 213.41 C 94.28 216.31 95.86 219.39 98.60 221.39 C 105.55 226.34 115.54 226.34 122.54 221.48 C 125.35 219.50 126.98 216.39 128.54 213.42 C 132.81 215.39 137.77 217.53 142.38 215.29 C 149.19 212.68 152.33 205.26 152.59 198.40 C 155.79 198.25 159.09 198.28 162.12 197.10 C 166.46 195.34 169.70 191.33 170.82 186.81 C 172.05 182.75 170.23 178.68 169.05 174.84 C 173.30 172.86 178.20 170.59 179.80 165.78 C 181.81 160.72 179.74 155.37 177.23 150.91 C 180.78 147.47 184.78 143.36 184.28 137.98 C 184.13 132.65 179.78 129.07 175.90 126.11 C 177.59 122.96 179.66 119.71 179.49 115.99 C 179.47 112.09 177.35 107.86 173.42 106.65 C 166.32 104.51 158.72 106.50 151.57 104.52 C 147.75 103.78 144.73 101.23 141.94 98.69 C 146.15 98.24 150.75 98.01 154.17 95.19 C 159.29 91.32 161.51 84.32 159.83 78.16 C 157.70 70.77 150.68 65.22 143.00 64.78 C 136.79 64.53 131.33 68.07 126.90 72.07 C 123.08 65.95 116.64 60.65 108.96 61.71 C 102.41 62.07 97.82 67.11 94.23 72.05 M 273.29 72.01 C 270.15 69.25 266.82 66.42 262.65 65.46 C 252.83 62.46 241.72 70.09 240.20 80.06 C 239.34 85.62 241.62 91.44 245.97 94.99 C 249.34 97.98 254.05 98.16 258.28 98.80 C 252.88 105.33 243.84 105.76 236.02 105.58 C 230.85 105.51 223.86 105.89 221.82 111.67 C 219.37 116.56 221.97 121.79 224.44 126.07 C 220.62 129.10 216.14 132.74 216.27 138.12 C 215.69 143.42 219.66 147.43 223.01 150.94 C 220.86 155.44 218.35 160.62 220.53 165.62 C 222.10 170.60 227.14 172.95 231.56 174.87 C 228.83 180.63 228.13 188.19 232.86 193.14 C 236.37 197.62 242.30 198.48 247.63 198.41 C 248.26 205.10 250.98 212.45 257.67 215.18 C 262.31 217.57 267.43 215.54 271.73 213.43 C 273.48 216.49 275.23 219.77 278.26 221.77 C 284.59 225.88 293.06 226.22 299.72 222.69 C 303.54 220.83 305.78 217.08 307.92 213.60 C 311.12 214.89 314.42 216.55 317.98 216.23 C 322.99 215.62 327.47 212.20 329.59 207.65 C 330.96 204.77 331.32 201.55 331.70 198.43 C 335.13 198.25 338.71 198.32 341.90 196.86 C 346.44 194.68 349.82 190.10 350.30 185.05 C 350.63 181.51 349.28 178.14 348.14 174.87 C 352.37 172.89 357.24 170.69 358.91 165.94 C 361.00 160.84 358.97 155.35 356.29 150.91 C 359.90 147.51 363.95 143.39 363.41 137.99 C 363.24 132.69 358.98 129.07 355.10 126.12 C 358.89 120.75 360.64 111.88 354.44 107.57 C 347.31 103.91 338.93 106.72 331.38 104.69 C 327.48 104.07 324.15 101.79 321.63 98.82 C 325.38 98.18 329.43 97.92 332.68 95.71 C 337.38 92.50 339.97 86.60 339.44 80.97 C 338.55 70.71 327.38 62.56 317.35 65.37 C 312.94 66.34 309.40 69.29 305.99 72.07 C 302.27 65.80 295.65 60.59 287.95 61.75 C 281.43 62.11 277.05 67.29 273.29 72.01 M 192.36 245.45 C 188.80 247.38 186.50 250.82 184.12 253.97 C 180.60 250.80 176.66 247.72 171.85 246.93 C 163.16 245.16 154.10 251.08 151.44 259.37 C 149.26 265.63 151.66 273.05 156.90 277.04 C 160.25 279.62 164.62 279.96 168.60 280.89 C 166.36 282.93 164.04 285.11 161.04 285.95 C 153.88 287.97 146.35 286.81 139.09 288.01 C 134.41 288.69 131.41 293.49 131.55 297.99 C 131.35 301.76 133.54 305.00 135.53 308.00 C 131.45 310.52 127.36 313.98 126.79 319.08 C 125.91 324.72 130.15 329.18 133.82 332.82 C 131.28 337.24 129.12 342.62 131.28 347.64 C 132.86 352.40 137.65 354.66 141.92 356.48 C 141.02 359.60 139.89 362.72 139.82 366.01 C 140.11 371.34 143.48 376.43 148.36 378.65 C 151.50 380.05 155.02 380.09 158.39 380.40 C 158.78 387.23 161.95 394.63 168.79 397.16 C 173.37 399.32 178.23 397.13 182.51 395.30 C 184.42 398.88 186.60 402.68 190.43 404.50 C 196.82 407.61 204.83 407.57 211.07 404.09 C 214.55 402.22 216.50 398.65 218.34 395.32 C 221.45 396.56 224.58 398.09 227.99 398.12 C 233.02 397.67 237.66 394.44 239.96 389.96 C 241.50 386.99 241.92 383.63 242.46 380.38 C 247.96 380.26 254.10 379.36 257.61 374.60 C 262.10 369.68 261.16 362.44 258.89 356.73 C 263.02 354.56 267.98 352.45 269.57 347.62 C 271.71 342.62 269.51 337.30 267.06 332.88 C 270.41 329.34 274.47 325.37 273.88 320.03 C 274.10 314.63 269.64 310.96 265.78 307.99 C 267.23 305.13 268.91 302.26 269.31 299.02 C 269.66 294.34 266.96 288.82 261.93 288.05 C 254.66 286.82 247.12 287.98 239.96 285.98 C 236.78 285.09 234.32 282.77 231.89 280.67 C 235.35 280.07 239.02 279.86 242.17 278.15 C 247.46 275.18 250.58 268.96 250.17 262.97 C 249.30 253.31 239.64 245.43 229.99 246.75 C 224.72 247.29 220.47 250.70 216.46 253.85 C 214.61 251.29 212.85 248.58 210.30 246.67 C 205.21 242.87 197.92 242.50 192.36 245.45 Z" />
</g>
</svg>
