<?xml version="1.0" encoding="UTF-8" ?>
<!DOCTYPE svg PUBLIC "-//W3C//DTD SVG 1.1//EN" "http://www.w3.org/Graphics/SVG/1.1/DTD/svg11.dtd">
<svg width="400pt" height="480pt" viewBox="0 0 400 480" version="1.1" xmlns="http://www.w3.org/2000/svg">
<g id="#847f73ff">
<path fill="#847f73" opacity="1.00" d=" M 0.00 0.00 L 0.55 0.00 C 0.49 78.33 0.55 156.67 0.52 235.00 C 0.49 239.51 0.72 244.04 0.30 248.54 L 0.00 249.97 L 0.00 0.00 Z" />
<path fill="#847f73" opacity="1.00" d=" M 142.51 19.59 C 142.65 21.05 142.77 22.51 142.80 23.98 C 142.76 65.65 142.80 107.32 142.78 148.99 C 142.75 152.65 143.01 156.34 142.47 159.99 C 142.34 113.19 142.26 66.38 142.51 19.59 Z" />
<path fill="#847f73" opacity="1.00" d=" M 142.55 276.28 L 142.58 275.81 C 143.08 300.88 142.65 325.97 142.79 351.04 C 142.75 380.40 142.88 409.76 142.72 439.12 C 141.86 438.99 141.00 438.85 140.14 438.72 C 140.63 438.54 141.62 438.17 142.11 437.99 C 142.72 433.70 142.27 429.34 142.37 425.03 C 142.50 375.45 142.14 325.85 142.55 276.28 Z" />
</g>
<g id="#383434ff">
<path fill="#383434" opacity="1.00" d=" M 0.55 0.00 L 400.00 0.00 L 400.00 255.65 C 398.63 282.97 393.07 310.20 382.41 335.45 C 374.40 354.61 363.61 372.56 350.94 389.01 C 342.47 400.35 332.26 410.26 321.77 419.71 C 297.37 441.45 268.52 458.02 237.68 468.75 C 225.39 473.06 212.83 476.64 200.13 479.50 C 181.17 475.03 162.44 469.28 144.59 461.42 C 115.38 448.74 88.74 430.30 66.42 407.61 C 53.41 394.96 42.82 380.04 33.34 364.63 C 15.21 334.80 4.47 300.67 1.57 265.92 C 1.15 260.12 0.41 254.35 0.30 248.54 C 0.72 244.04 0.49 239.51 0.52 235.00 C 0.55 156.67 0.49 78.33 0.55 0.00 M 2.40 10.97 C 2.41 89.64 2.39 168.31 2.41 246.97 C 2.79 266.53 5.23 286.09 10.18 305.03 C 18.83 338.79 36.11 369.97 58.50 396.53 C 77.30 417.37 99.27 435.48 123.88 449.06 C 146.43 461.68 170.99 470.41 196.04 476.57 C 197.67 476.86 199.30 477.62 200.98 477.34 C 241.25 468.34 280.26 451.59 312.30 425.26 C 326.64 413.37 340.29 400.41 351.35 385.35 C 364.95 367.26 376.27 347.36 384.07 326.09 C 393.69 300.20 398.13 272.54 398.46 244.97 C 398.40 163.85 398.58 82.73 398.37 1.61 C 266.42 1.63 134.47 1.68 2.52 1.59 C 2.38 4.71 2.38 7.84 2.40 10.97 Z" />
<path fill="#383434" opacity="1.00" d=" M 8.41 21.96 C 8.45 17.19 8.30 12.41 8.53 7.63 C 136.50 7.77 264.48 7.64 392.45 7.70 C 392.46 84.14 392.45 160.58 392.45 237.02 C 392.81 262.04 390.07 287.30 382.66 311.25 C 381.34 314.77 380.74 318.50 379.39 322.01 C 371.37 343.58 360.23 363.97 346.27 382.27 C 337.19 394.70 326.13 405.54 314.57 415.64 C 282.18 443.95 241.91 462.59 199.98 471.43 C 180.62 467.12 161.66 460.85 143.62 452.58 C 116.89 440.34 92.52 423.07 71.92 402.11 C 59.43 389.94 49.25 375.61 40.13 360.79 C 22.34 331.55 11.90 298.01 9.31 263.91 C 8.16 253.65 8.45 243.32 8.41 233.02 C 8.41 162.66 8.41 92.31 8.41 21.96 M 10.26 9.53 C 10.27 86.35 10.26 163.16 10.26 239.98 C 10.05 260.46 12.22 281.01 17.20 300.90 C 25.35 334.35 42.28 365.29 64.43 391.50 C 85.01 414.45 109.73 433.79 137.36 447.51 C 157.24 457.41 178.41 464.69 200.07 469.52 C 216.38 466.18 232.33 460.95 247.75 454.67 C 282.09 440.58 312.90 418.29 337.43 390.47 C 351.81 373.10 364.07 353.87 372.92 333.08 C 384.53 305.96 390.04 276.45 390.58 247.02 C 390.64 167.86 390.55 88.70 390.63 9.54 C 263.84 9.56 137.05 9.57 10.26 9.53 Z" />
<path fill="#383434" opacity="1.00" d=" M 16.56 15.84 C 139.14 15.87 261.73 15.86 384.32 15.84 C 384.34 91.90 384.32 167.95 384.32 244.01 C 384.59 269.74 380.47 295.55 371.72 319.78 C 357.30 360.07 330.19 395.43 295.84 420.81 C 268.09 441.44 235.77 455.74 202.00 463.00 C 199.70 463.64 197.41 462.68 195.18 462.25 C 167.23 455.78 140.37 444.50 116.40 428.73 C 88.51 410.46 64.54 386.11 47.26 357.57 C 27.24 324.75 16.59 286.38 16.55 247.96 C 16.54 170.58 16.53 93.21 16.56 15.84 M 20.38 19.49 C 20.20 66.25 20.39 113.01 20.28 159.77 C 61.01 160.04 101.74 159.60 142.47 159.99 C 143.01 156.34 142.75 152.65 142.78 148.99 C 142.80 107.32 142.76 65.65 142.80 23.98 C 142.77 22.51 142.65 21.05 142.51 19.59 C 101.80 19.38 61.09 19.56 20.38 19.49 M 162.44 19.51 C 162.29 72.96 162.53 126.41 162.32 179.86 C 155.57 179.64 148.81 180.20 142.06 179.81 C 127.05 180.29 112.03 179.40 97.04 180.15 C 76.01 179.57 54.95 179.85 33.92 180.18 C 29.34 180.00 24.74 179.53 20.17 180.24 C 20.25 205.42 20.21 230.61 20.26 255.79 C 67.63 255.93 115.00 255.78 162.37 255.86 C 162.55 320.06 162.17 384.27 162.57 448.45 C 172.33 452.66 182.66 455.50 192.96 458.12 C 196.30 458.82 199.75 460.29 203.19 459.23 C 215.10 456.14 227.20 453.28 238.47 448.27 C 238.23 384.20 238.55 320.12 238.30 256.06 C 239.89 255.94 241.47 255.84 243.07 255.83 C 288.97 255.86 334.88 255.88 380.79 255.84 C 380.79 230.62 380.73 205.40 380.79 180.17 C 375.86 179.50 370.90 180.42 365.96 179.94 C 360.30 180.53 354.65 179.54 349.00 180.04 C 327.35 179.64 305.67 180.32 284.03 179.83 C 268.88 180.38 253.71 179.52 238.55 179.95 C 238.46 178.62 238.40 177.29 238.37 175.96 C 238.39 123.85 238.41 71.73 238.36 19.62 C 213.06 19.33 187.75 19.55 162.44 19.51 M 258.40 19.49 C 258.23 66.24 258.42 113.00 258.31 159.76 C 299.09 159.89 339.87 159.91 380.65 159.78 C 380.52 113.02 380.69 66.26 380.56 19.50 C 339.84 19.49 299.12 19.51 258.40 19.49 M 144.92 19.66 C 145.21 67.29 145.12 114.92 144.94 162.55 C 103.43 162.42 61.91 162.65 20.39 162.43 C 20.14 167.38 20.35 172.33 20.13 177.29 C 66.70 177.52 113.28 177.33 159.86 177.38 C 159.81 124.80 159.81 72.23 159.85 19.65 C 154.87 19.63 149.89 19.63 144.92 19.66 M 240.80 19.68 C 240.79 72.24 240.80 124.81 240.79 177.38 C 287.40 177.45 334.00 177.28 380.60 177.46 C 380.73 172.47 380.65 167.48 380.57 162.50 C 338.93 162.58 297.29 162.53 255.66 162.49 C 255.77 114.92 255.59 67.34 255.75 19.77 C 250.77 19.58 245.78 19.70 240.80 19.68 M 20.20 258.46 C 20.54 263.44 21.21 268.38 21.78 273.34 C 62.86 273.34 103.94 273.32 145.03 273.35 C 145.24 329.16 144.91 384.97 145.20 440.78 C 150.06 442.94 154.83 445.31 159.81 447.19 C 159.83 384.27 159.83 321.35 159.81 258.43 C 113.27 258.50 66.74 258.44 20.20 258.46 M 240.73 258.59 C 240.88 321.58 240.75 384.56 240.79 447.55 C 245.81 445.44 250.78 443.25 255.68 440.89 C 255.63 385.07 255.77 329.25 255.62 273.44 C 296.80 273.16 337.99 273.48 379.18 273.29 C 379.67 268.35 380.34 263.43 380.67 258.47 C 334.02 258.57 287.37 258.29 240.73 258.59 M 22.36 276.37 C 22.26 279.25 23.05 282.07 23.53 284.89 C 30.01 321.41 46.73 355.97 70.93 384.04 C 85.81 401.58 103.66 416.51 123.12 428.74 C 128.69 432.25 134.59 435.18 140.14 438.72 C 141.00 438.85 141.86 438.99 142.72 439.12 C 142.88 409.76 142.75 380.40 142.79 351.04 C 142.65 325.97 143.08 300.88 142.58 275.81 L 142.55 276.28 C 139.10 275.35 135.51 275.76 131.99 275.71 C 96.99 275.69 61.99 275.74 26.98 275.68 C 25.49 275.92 23.54 275.18 22.36 276.37 M 258.30 276.24 C 258.39 330.49 258.30 384.74 258.33 439.00 C 262.20 438.05 265.53 435.78 268.97 433.86 C 282.76 426.17 295.79 417.08 307.61 406.61 C 345.98 373.59 372.05 326.45 378.76 276.19 C 377.19 275.95 375.62 275.71 374.04 275.70 C 337.01 275.73 299.97 275.71 262.94 275.69 C 261.38 275.74 259.84 276.00 258.30 276.24 Z" />
</g>
<g id="#f9d122ff">
<path fill="#f9d122" opacity="1.00" d=" M 2.40 10.97 C 2.38 7.84 2.38 4.71 2.52 1.59 C 134.47 1.68 266.42 1.63 398.37 1.61 C 398.58 82.73 398.40 163.85 398.46 244.97 C 398.13 272.54 393.69 300.20 384.07 326.09 C 376.27 347.36 364.95 367.26 351.35 385.35 C 340.29 400.41 326.64 413.37 312.30 425.26 C 280.26 451.59 241.25 468.34 200.98 477.34 C 199.30 477.62 197.67 476.86 196.04 476.57 C 170.99 470.41 146.43 461.68 123.88 449.06 C 99.27 435.48 77.30 417.37 58.50 396.53 C 36.11 369.97 18.83 338.79 10.18 305.03 C 5.23 286.09 2.79 266.53 2.41 246.97 C 2.39 168.31 2.41 89.64 2.40 10.97 M 8.41 21.96 C 8.41 92.31 8.41 162.66 8.41 233.02 C 8.45 243.32 8.16 253.65 9.31 263.91 C 11.90 298.01 22.34 331.55 40.13 360.79 C 49.25 375.61 59.43 389.94 71.92 402.11 C 92.52 423.07 116.89 440.34 143.62 452.58 C 161.66 460.85 180.62 467.12 199.98 471.43 C 241.91 462.59 282.18 443.95 314.57 415.64 C 326.13 405.54 337.19 394.70 346.27 382.27 C 360.23 363.97 371.37 343.58 379.39 322.01 C 380.79 319.71 380.86 316.79 382.68 314.70 C 382.76 313.55 382.75 312.40 382.66 311.25 C 390.07 287.30 392.81 262.04 392.45 237.02 C 392.45 160.58 392.46 84.14 392.45 7.70 C 264.48 7.64 136.50 7.77 8.53 7.63 C 8.30 12.41 8.45 17.19 8.41 21.96 Z" />
</g>
<g id="#fefefeff">
<path fill="#fefefe" opacity="1.00" d=" M 10.26 9.53 C 137.05 9.57 263.84 9.56 390.63 9.54 C 390.55 88.70 390.64 167.86 390.58 247.02 C 390.04 276.45 384.53 305.96 372.92 333.08 C 364.07 353.87 351.81 373.10 337.43 390.47 C 312.90 418.29 282.09 440.58 247.75 454.67 C 232.33 460.95 216.38 466.18 200.07 469.52 C 178.41 464.69 157.24 457.41 137.36 447.51 C 109.73 433.79 85.01 414.45 64.43 391.50 C 42.28 365.29 25.35 334.35 17.20 300.90 C 12.22 281.01 10.05 260.46 10.26 239.98 C 10.26 163.16 10.27 86.35 10.26 9.53 M 16.56 15.84 C 16.53 93.21 16.54 170.58 16.55 247.96 C 16.59 286.38 27.24 324.75 47.26 357.57 C 64.54 386.11 88.51 410.46 116.40 428.73 C 140.37 444.50 167.23 455.78 195.18 462.25 C 197.41 462.68 199.70 463.64 202.00 463.00 C 235.77 455.74 268.09 441.44 295.84 420.81 C 330.19 395.43 357.30 360.07 371.72 319.78 C 380.47 295.55 384.59 269.74 384.32 244.01 C 384.32 167.95 384.34 91.90 384.32 15.84 C 261.73 15.86 139.14 15.87 16.56 15.84 Z" />
<path fill="#fefefe" opacity="1.00" d=" M 144.92 19.66 C 149.89 19.63 154.87 19.63 159.85 19.65 C 159.81 72.23 159.81 124.80 159.86 177.38 C 113.28 177.33 66.70 177.52 20.13 177.29 C 20.35 172.33 20.14 167.38 20.39 162.43 C 61.91 162.65 103.43 162.42 144.94 162.55 C 145.12 114.92 145.21 67.29 144.92 19.66 Z" />
<path fill="#fefefe" opacity="1.00" d=" M 240.80 19.68 C 245.78 19.70 250.77 19.58 255.75 19.77 C 255.59 67.34 255.77 114.92 255.66 162.49 C 297.29 162.53 338.93 162.58 380.57 162.50 C 380.65 167.48 380.73 172.47 380.60 177.46 C 334.00 177.28 287.40 177.45 240.79 177.38 C 240.80 124.81 240.79 72.24 240.80 19.68 Z" />
<path fill="#fefefe" opacity="1.00" d=" M 20.20 258.46 C 66.74 258.44 113.27 258.50 159.81 258.43 C 159.83 321.35 159.83 384.27 159.81 447.19 C 154.83 445.31 150.06 442.94 145.20 440.78 C 144.91 384.97 145.24 329.16 145.03 273.35 C 103.94 273.32 62.86 273.34 21.78 273.34 C 21.21 268.38 20.54 263.44 20.20 258.46 Z" />
<path fill="#fefefe" opacity="1.00" d=" M 240.73 258.59 C 287.37 258.29 334.02 258.57 380.67 258.47 C 380.34 263.43 379.67 268.35 379.18 273.29 C 337.99 273.48 296.80 273.16 255.62 273.44 C 255.77 329.25 255.63 385.07 255.68 440.89 C 250.78 443.25 245.81 445.44 240.79 447.55 C 240.75 384.56 240.88 321.58 240.73 258.59 Z" />
<path fill="#fefefe" opacity="1.00" d=" M 379.39 322.01 C 380.74 318.50 381.34 314.77 382.66 311.25 C 382.75 312.40 382.76 313.55 382.68 314.70 C 380.86 316.79 380.79 319.71 379.39 322.01 Z" />
</g>
<g id="#0070b8ff">
<path fill="#0070b8" opacity="1.00" d=" M 20.38 19.49 C 61.09 19.56 101.80 19.38 142.51 19.59 C 142.26 66.38 142.34 113.19 142.47 159.99 C 101.74 159.60 61.01 160.04 20.28 159.77 C 20.39 113.01 20.20 66.25 20.38 19.49 Z" />
<path fill="#0070b8" opacity="1.00" d=" M 258.40 19.49 C 299.12 19.51 339.84 19.49 380.56 19.50 C 380.69 66.26 380.52 113.02 380.65 159.78 C 339.87 159.91 299.09 159.89 258.31 159.76 C 258.42 113.00 258.23 66.24 258.40 19.49 Z" />
<path fill="#0070b8" opacity="1.00" d=" M 22.36 276.37 C 23.54 275.18 25.49 275.92 26.98 275.68 C 61.99 275.74 96.99 275.69 131.99 275.71 C 135.51 275.76 139.10 275.35 142.55 276.28 C 142.14 325.85 142.50 375.45 142.37 425.03 C 142.27 429.34 142.72 433.70 142.11 437.99 C 141.62 438.17 140.63 438.54 140.14 438.72 C 134.59 435.18 128.69 432.25 123.12 428.74 C 103.66 416.51 85.81 401.58 70.93 384.04 C 46.73 355.97 30.01 321.41 23.53 284.89 C 23.05 282.07 22.26 279.25 22.36 276.37 Z" />
<path fill="#0070b8" opacity="1.00" d=" M 258.30 276.24 C 259.84 276.00 261.38 275.74 262.94 275.69 C 299.97 275.71 337.01 275.73 374.04 275.70 C 375.62 275.71 377.19 275.95 378.76 276.19 C 372.05 326.45 345.98 373.59 307.61 406.61 C 295.79 417.08 282.76 426.17 268.97 433.86 C 265.53 435.78 262.20 438.05 258.33 439.00 C 258.30 384.74 258.39 330.49 258.30 276.24 Z" />
</g>
<g id="#ef494dff">
<path fill="#ef494d" opacity="1.00" d=" M 162.44 19.51 C 187.75 19.55 213.06 19.33 238.36 19.62 C 238.41 71.73 238.39 123.85 238.37 175.96 C 238.40 177.29 238.46 178.62 238.55 179.95 C 253.71 179.52 268.88 180.38 284.03 179.83 C 305.67 180.32 327.35 179.64 349.00 180.04 C 354.65 179.54 360.30 180.53 365.96 179.94 C 370.90 180.42 375.86 179.50 380.79 180.17 C 380.73 205.40 380.79 230.62 380.79 255.84 C 334.88 255.88 288.97 255.86 243.07 255.83 C 241.47 255.84 239.89 255.94 238.30 256.06 C 238.55 320.12 238.23 384.20 238.47 448.27 C 227.20 453.28 215.10 456.14 203.19 459.23 C 199.75 460.29 196.30 458.82 192.96 458.12 C 182.66 455.50 172.33 452.66 162.57 448.45 C 162.17 384.27 162.55 320.06 162.37 255.86 C 115.00 255.78 67.63 255.93 20.26 255.79 C 20.21 230.61 20.25 205.42 20.17 180.24 C 24.74 179.53 29.34 180.00 33.92 180.18 C 54.95 179.85 76.01 179.57 97.04 180.15 C 112.03 179.40 127.05 180.29 142.06 179.81 C 148.81 180.20 155.57 179.64 162.32 179.86 C 162.53 126.41 162.29 72.96 162.44 19.51 Z" />
</g>
</svg>
