<svg xmlns:dc="http://purl.org/dc/elements/1.1/" xmlns:cc="http://creativecommons.org/ns#" xmlns:rdf="http://www.w3.org/1999/02/22-rdf-syntax-ns#" xmlns:svg="http://www.w3.org/2000/svg" xmlns="http://www.w3.org/2000/svg" xml:space="preserve" id="svg2" version="1.1" viewBox="59.21 176.87 667.36 785.42"><metadata id="metadata8"><rdf:RDF><cc:Work rdf:about=""><dc:format>image/svg+xml</dc:format><dc:type rdf:resource="http://purl.org/dc/dcmitype/StillImage"/></cc:Work></rdf:RDF></metadata><defs id="defs6"/><g transform="matrix(1.3333333,0,0,-1.3333333,0,1122.5197)" id="g10"><g transform="scale(5.01022,5.0636)" id="g12"><path id="path14" style="fill:#ffcc2a;fill-opacity:1;fill-rule:evenodd;stroke:#373535;stroke-width:0.4912;stroke-linecap:butt;stroke-linejoin:miter;stroke-miterlimit:22.92558479;stroke-dasharray:none;stroke-opacity:1" d="m 108.5726,140.0292 0.1536,-55.0207 c 0,-31.0995 -15.2158,-54.3093 -49.9243,-61.2391 -36.0737,7.0302 -49.9014,30.2 -49.9014,61.2388 l 0.0961,55.021 z"/></g><g transform="scale(1.01)" id="g16"><path id="path18" style="fill:none;stroke:#000000;stroke-width:5.61320019;stroke-linecap:butt;stroke-linejoin:miter;stroke-miterlimit:22.92558479;stroke-dasharray:none;stroke-opacity:1" d="m 518.0162,681.8409 0.4898,-269.4277 -1.7076,-27.0437 -3.422,-25.8987 -5.1412,-24.7023 -6.8646,-23.4555 -8.5949,-22.1774 -10.3391,-20.8741 -12.1079,-19.5568 -6.7281,-9.2815 -7.1883,-8.9486 -7.6542,-8.616 -8.1297,-8.2805 -8.6137,-7.9427 -9.1094,-7.6008 -9.6145,-7.2564 -10.1311,-6.9052 -10.6574,-6.5472 -11.196,-6.1815 -11.7436,-5.8085 -12.3004,-5.4247 -12.8659,-5.0323 -13.441,-4.6276 -14.0219,-4.2137 -25.2998,-6.1435 -26.435,6.2663 -14.4766,4.2573 -13.8197,4.6661 -13.1732,5.065 -12.541,5.451 -11.9205,5.8272 -11.314,6.1923 -10.7217,6.5506 -10.1469,6.8989 -9.5862,7.2425 -9.0426,7.5805 -8.5141,7.9146 -8.0016,8.2462 -7.5022,8.5785 -7.018,8.9082 -6.5438,9.2401 -11.7096,19.4777 -9.9258,20.8091 -8.1916,22.1358 -6.4922,23.4399 -4.8234,24.7116 -3.1836,25.9322 -1.5747,27.0944 0.2438,269.4609 z"/></g><path id="path20" style="fill:#007dbb;fill-opacity:1;fill-rule:evenodd;stroke:none" d="m 523.1965,688.6593 0.4946,-272.122 -1.7245,-27.3141 -3.4563,-26.1578 -5.1925,-24.9491 -6.9333,-23.69 -8.6811,-22.3994 -10.4423,-21.0827 -12.2289,-19.7524 -6.7955,-9.3744 -7.2601,-9.038 -7.7306,-8.7021 -8.2112,-8.3633 -8.6998,-8.0223 -9.2007,-7.6768 -9.7106,-7.329 -10.2322,-6.9741 -10.764,-6.6127 -11.308,-6.2433 -11.861,-5.8665 -12.4234,-5.4791 -12.9946,-5.0825 -13.5754,-4.6738 -14.1622,-4.2559 -25.5529,-6.2051 -26.6992,6.3289 -14.6214,4.2999 -13.9578,4.7129 -13.305,5.1157 -12.6666,5.5054 -12.0396,5.8856 -11.427,6.2541 -10.8292,6.616 -10.2481,6.9682 -9.6823,7.3148 -9.1329,7.6561 -8.5992,7.9939 -8.0816,8.3288 -7.5773,8.6641 -7.0883,8.9972 -6.609,9.3325 -11.827,19.6727 -10.025,21.0172 -8.2735,22.3571 -6.5571,23.6744 -4.8716,24.9585 -3.2153,26.1916 -1.5906,27.3653 0.2464,272.1555 z"/><path id="path22" style="fill:#ffcc2a;fill-opacity:1;fill-rule:evenodd;stroke:#373535;stroke-width:0.21600001;stroke-linecap:butt;stroke-linejoin:miter;stroke-miterlimit:22.92558479;stroke-dasharray:none;stroke-opacity:1" d="m 262.4003,343.6719 -115.192,-63.366 61.4296,114.4358 -123.9353,35.4044 126.4816,31.3172 -63.3475,118.6464 110.0956,-65.7451 37.164,119.611 34.7521,-116.941 113.4624,59.0317 -65.7646,-110.9741 119.6016,-33.6759 -117.8155,-33.0417 59.8773,-113.4505 -110.0922,61.4123 -35.428,-123.0752 z"/><path id="path24" style="fill:#ffe71e;fill-opacity:1;fill-rule:evenodd;stroke:#373535;stroke-width:0.21600001;stroke-linecap:butt;stroke-linejoin:miter;stroke-miterlimit:22.92558479;stroke-dasharray:none;stroke-opacity:1" d="m 293.764,430.194 -0.942,-206.0671 35.4303,120.4759 z"/><path id="path26" style="fill:#ffe71e;fill-opacity:1;fill-rule:evenodd;stroke:#373535;stroke-width:0.21600001;stroke-linecap:butt;stroke-linejoin:miter;stroke-miterlimit:22.92558479;stroke-dasharray:none;stroke-opacity:1" d="M 210.3171,462.329 293.7535,430.2111 148.7047,578.3774 Z"/><path id="path28" style="fill:#ffe71e;fill-opacity:1;fill-rule:evenodd;stroke:#373535;stroke-width:0.21600001;stroke-linecap:butt;stroke-linejoin:miter;stroke-miterlimit:22.92558479;stroke-dasharray:none;stroke-opacity:1" d="M 293.7637,430.2111 444.1774,576.0672 329.8479,517.9008 Z"/><path id="path30" style="fill:#ffe71e;fill-opacity:1;fill-rule:evenodd;stroke:#373535;stroke-width:0.21600001;stroke-linecap:butt;stroke-linejoin:miter;stroke-miterlimit:22.92558479;stroke-dasharray:none;stroke-opacity:1" d="m 82.1024,431.0101 126.536,-37.135 85.1083,36.3292 z"/><path id="path32" style="fill:#ffe71e;fill-opacity:1;fill-rule:evenodd;stroke:#373535;stroke-width:0.21600001;stroke-linecap:butt;stroke-linejoin:miter;stroke-miterlimit:22.92558479;stroke-dasharray:none;stroke-opacity:1" d="M 293.7535,430.1974 146.3426,279.4385 263.266,344.5393 Z"/><path id="path34" style="fill:#ffe71e;fill-opacity:1;fill-rule:evenodd;stroke:#373535;stroke-width:0.21600001;stroke-linecap:butt;stroke-linejoin:miter;stroke-miterlimit:22.92558479;stroke-dasharray:none;stroke-opacity:1" d="M 293.7708,430.1974 439.2082,286.6569 378.4663,397.5075 Z"/><path id="path36" style="fill:#ffe71e;fill-opacity:1;fill-rule:evenodd;stroke:#373535;stroke-width:0.21600001;stroke-linecap:butt;stroke-linejoin:miter;stroke-miterlimit:22.92558479;stroke-dasharray:none;stroke-opacity:1" d="m 293.781,430.2077 202.5003,1.2078 -119.6022,34.5424 z"/><path id="path38" style="fill:#ffe71e;fill-opacity:1;fill-rule:evenodd;stroke:#373535;stroke-width:0.21600001;stroke-linecap:butt;stroke-linejoin:miter;stroke-miterlimit:22.92558479;stroke-dasharray:none;stroke-opacity:1" d="M 293.7569,430.2179 295.0968,633.109 257.0652,515.2303 Z"/></g></svg>