<?xml version="1.0" encoding="UTF-8" standalone="no"?>
<!-- Created with Inkscape (http://www.inkscape.org/) -->
<svg xmlns:dc="http://purl.org/dc/elements/1.1/" xmlns:cc="http://creativecommons.org/ns#" xmlns:rdf="http://www.w3.org/1999/02/22-rdf-syntax-ns#" xmlns:svg="http://www.w3.org/2000/svg" xmlns="http://www.w3.org/2000/svg" xmlns:sodipodi="http://sodipodi.sourceforge.net/DTD/sodipodi-0.dtd" xmlns:inkscape="http://www.inkscape.org/namespaces/inkscape" version="1.1" id="svg815" width="250" height="288.71799" viewBox="0 0 250 288.71799" sodipodi:docname="Coat_of_Arm_of_Jesenice.svg" inkscape:version="0.92.4 (5da689c313, 2019-01-14)">
  <metadata id="metadata821">
    <rdf:RDF>
      <cc:Work rdf:about="">
        <dc:format>image/svg+xml</dc:format>
        <dc:type rdf:resource="http://purl.org/dc/dcmitype/StillImage"/>
        <dc:title/>
      </cc:Work>
    </rdf:RDF>
  </metadata>
  <defs id="defs819">
    <inkscape:path-effect effect="spiro" id="path-effect956" is_visible="true"/>
    <inkscape:path-effect effect="spiro" id="path-effect952" is_visible="true"/>
    <inkscape:path-effect is_visible="true" id="path-effect5407" effect="spiro"/>
    <inkscape:path-effect is_visible="true" id="path-effect5407-0" effect="spiro"/>
    <inkscape:path-effect is_visible="true" id="path-effect1070" effect="spiro"/>
  </defs>
  <sodipodi:namedview pagecolor="#ffffff" bordercolor="#666666" borderopacity="1" objecttolerance="10" gridtolerance="10" guidetolerance="10" inkscape:pageopacity="0" inkscape:pageshadow="2" inkscape:window-width="1920" inkscape:window-height="1001" id="namedview817" showgrid="false" inkscape:zoom="1.4142136" inkscape:cx="192.13792" inkscape:cy="164.43991" inkscape:window-x="-9" inkscape:window-y="-9" inkscape:window-maximized="1" inkscape:current-layer="svg815"/>
  <g id="g1015" transform="translate(5.412932e-4)" style="fill:#000066;fill-opacity:1">
    <path sodipodi:nodetypes="cccccsccc" inkscape:connector-curvature="0" id="path1045-64" d="M 249.948,-9.0999998e-7 H 1.0895878e-4 v 0 V 167.6862 v 0 C -0.23710416,240.42283 64.469647,287.91028 124.97382,288.7097 182.97183,289.476 252.15009,237.0879 249.94787,167.6862 v 0 z" style="fill:#000066;fill-opacity:1;stroke:none;stroke-width:1.00246429px;stroke-linecap:butt;stroke-linejoin:miter;stroke-opacity:1"/>
  </g>
  <path style="fill:#b1b1b1;fill-opacity:1;stroke:none;stroke-width:1.31811798px;stroke-linecap:butt;stroke-linejoin:miter;stroke-opacity:1" d="M 164.74819,3.89e-4 93.10746,5.9e-5 v 0 7.8486 l 22.92289,4.983236 0.12456,30.896081 -42.48211,0.124562 -2.74078,-12.956415 -4.73407,0.124562 v 0 37.454454 0 l 4.73408,0.124563 2.74077,-12.956427 42.48212,0.124561 -0.12456,29.50565 v 0 l -42.48212,0.124562 -2.74077,-12.956415 -4.73409,0.124563 v 0 l 1e-5,37.454454 v 0 l 4.73408,0.12456 2.74077,-12.956412 42.48213,0.124563 -0.12456,53.231779 v 0 c 4.30059,-2.0632 8.59989,-2.36324 12.89785,-2.08937 5.88362,0.01 10.98347,2.03949 15.94466,4.31652 5.40165,2.54131 7.57723,4.81438 11.36387,7.22354 3.78663,2.7175 16.45553,16.4178 20.08498,27.04427 4.4033,12.89211 5.20443,28.33214 1.58566,40.34615 -4.30298,14.28551 -12.89543,25.44653 -23.2563,33.12263 -6.46121,4.78693 -17.55835,8.2793 -29.24656,10.04248 -9.75017,1.23458 -15.50287,0.76213 -23.25629,-1.76186 -7.75342,-1.99543 -14.09341,-7.5185 -21.1421,-13.91853 -6.24694,-5.67207 -12.4363,-17.90225 -15.68038,-29.07038 -2.50439,-8.62166 -2.4359,-11.98183 -2.46657,-16.38511 -0.0385,-5.52202 1.61632,-8.73712 2.29039,-11.45197 v 0 c 1.64569,1.26133 2.99381,1.74848 5.46172,2.2023 2.60002,0.36574 3.90408,0.23623 7.39972,-1.40946 3.53967,-2.13022 7.38373,-4.13901 9.42585,-8.10448 2.07508,-4.02948 3.25809,-9.07216 1.76183,-13.47809 -0.79151,-4.97851 -6.44178,-11.82518 -10.83532,-13.2138 -3.80999,-1.20419 -10.35213,-1.87797 -13.2138,-0.44046 -4.27115,1.48157 -10.80728,6.25585 -12.15671,9.07349 -1.74584,3.43426 -2.95239,4.24441 -4.58079,8.98538 -2.38045,6.93063 -3.70117,15.79916 -3.1713,21.75873 0.52582,5.91407 0.20163,11.28528 2.64276,17.61841 2.52583,6.55288 3.43428,11.51204 8.633,19.38025 5.43896,8.23177 9.0575,13.28855 20.34928,21.49447 12.20722,8.87117 26.20607,13.08298 42.98893,14.1828 18.2741,1.19756 41.68089,-5.38698 53.11949,-14.00663 10.60395,-7.99071 20.96459,-17.61708 26.25144,-29.95128 5.11066,-12.15802 6.9913,-30.33006 5.28552,-37.52723 -1.69529,-7.15288 -1.55761,-12.50775 -6.07834,-21.67063 -4.57989,-9.28275 -13.53815,-19.64321 -19.64455,-24.04913 -5.9044,-4.26018 -12.90398,-8.43103 -19.11597,-10.57104 -5.73134,-1.97444 -11.72055,-2.95735 -17.84709,-3.50907 v 0 l -0.12456,-37.414363 42.48214,-0.124562 2.74078,12.956415 4.73407,-0.12456 v 0 l 1e-5,-37.454458 v 0 l -4.73407,-0.124563 -2.74079,12.956428 -42.48212,-0.124561 0.12456,-29.50565 v 0 l 42.48212,-0.124562 2.7408,12.956414 4.73406,-0.124562 v 0 -37.454454 0 l -4.73406,-0.124562 -2.74079,12.956414 -42.48212,-0.124562 0.12456,-30.896066 22.92291,-4.98325 z" id="path825-5-9" inkscape:connector-curvature="0" sodipodi:nodetypes="cccccccccccccccccccccccccccccccsssccsssccccscsccssssssscssssccccccccccccccccccccccccccc"/>
</svg>