<svg xmlns="http://www.w3.org/2000/svg" xml:space="preserve" viewBox="30.82 21.59 741.82 915.64"><path style="fill:#fc0;fill-opacity:1;fill-rule:nonzero;stroke:none" d="M0 0v43.038h-74.103V0s-.833-17.95 12.629-32.073c13.33-13.986 24.21-16.076 24.418-16.116v-.002h.006v.002c.208.04 11.089 2.13 24.42 16.116C.831-17.95 0 0 0 0" transform="matrix(9.91298 0 0 -9.91298 769.025 453.869)"/><path style="fill:#fff;fill-opacity:1;fill-rule:nonzero;stroke:none" d="M0 0v42.184h-72.633V0s-.817-17.592 12.378-31.437c13.067-13.709 23.732-15.756 23.933-15.796v-.001h.007v.001c.204.04 10.869 2.087 23.935 15.796C.815-17.592 0 0 0 0" transform="matrix(9.91298 0 0 -9.91298 761.74 454.376)"/><path style="fill:#354ca1;fill-opacity:1;fill-rule:nonzero;stroke:none" d="M0 0v41.047h-70.672V0s-.794-17.117 12.043-30.588c12.714-13.34 23.091-15.331 23.288-15.37v-.001h.006v.001c.199.039 10.576 2.03 23.291 15.37C.793-17.117 0 0 0 0" transform="matrix(9.91298 0 0 -9.91298 752.022 454.812)"/><path style="fill:none;stroke:#000;stroke-width:1.41700006;stroke-linecap:round;stroke-linejoin:round;stroke-miterlimit:22.9260006;stroke-dasharray:none;stroke-opacity:1" d="M0 0c.128-.266.626-.541 1.393-1.687.828-1.234.316-.731 1.433-1.652.06.176.048.306-.051.484L1.028-.424C.76-.031.662.318 0 0" transform="matrix(9.91298 0 0 -9.91298 664.134 172.4)"/><path style="fill:#fc0;fill-opacity:1;fill-rule:evenodd;stroke:none" d="M0 0c.128-.266.626-.541 1.393-1.687.828-1.234.316-.731 1.433-1.652.06.176.048.306-.051.484L1.028-.424C.76-.031.662.318 0 0" transform="matrix(9.91298 0 0 -9.91298 664.134 172.4)"/><path style="fill:none;stroke:#000;stroke-width:1.41700006;stroke-linecap:round;stroke-linejoin:round;stroke-miterlimit:22.9260006;stroke-dasharray:none;stroke-opacity:1" d="m0 0 1.112-.534-.069 1.21L.015.641Z" transform="matrix(9.91298 0 0 -9.91298 269.991 176.811)"/><path style="fill:#fc0;fill-opacity:1;fill-rule:evenodd;stroke:none" d="m0 0 1.112-.534-.069 1.21L.015.641Z" transform="matrix(9.91298 0 0 -9.91298 269.991 176.811)"/><path style="fill:none;stroke:#000;stroke-width:1.41700006;stroke-linecap:round;stroke-linejoin:round;stroke-miterlimit:22.9260006;stroke-dasharray:none;stroke-opacity:1" d="M0 0c.077.582.1.09-1.481 1.47-1.516 1.324-1.207 1.034-2.684 2.541-.037-.562.388-.683.767-1.187C-3.026 2.329-.6-.061 0 0" transform="matrix(9.91298 0 0 -9.91298 134.489 162.755)"/><path style="fill:#fc0;fill-opacity:1;fill-rule:evenodd;stroke:none" d="M0 0c.077.582.1.09-1.481 1.47-1.516 1.324-1.207 1.034-2.684 2.541-.037-.562.388-.683.767-1.187C-3.026 2.329-.6-.061 0 0" transform="matrix(9.91298 0 0 -9.91298 134.489 162.755)"/><path style="fill:none;stroke:#000;stroke-width:1.41700006;stroke-linecap:round;stroke-linejoin:round;stroke-miterlimit:22.9260006;stroke-dasharray:none;stroke-opacity:1" d="M0 0c.665-.293.643-.137.85.438C.36.333.251.287 0 0" transform="matrix(9.91298 0 0 -9.91298 525.616 164.78)"/><path style="fill:#fc0;fill-opacity:1;fill-rule:evenodd;stroke:none" d="M0 0c.665-.293.643-.137.85.438C.36.333.251.287 0 0" transform="matrix(9.91298 0 0 -9.91298 525.616 164.78)"/><path style="fill:none;stroke:#000;stroke-width:1.41700006;stroke-linecap:round;stroke-linejoin:round;stroke-miterlimit:22.9260006;stroke-dasharray:none;stroke-opacity:1" d="M0 0c.465-.106.998-.4 1.449-.365.613.047.942.495 1.234.885C1.33 1.004.632 1.976 0 0" transform="matrix(9.91298 0 0 -9.91298 409.142 104.8)"/><path style="fill:#fc0;fill-opacity:1;fill-rule:evenodd;stroke:none" d="M0 0c.465-.106.998-.4 1.449-.365.613.047.942.495 1.234.885C1.33 1.004.632 1.976 0 0" transform="matrix(9.91298 0 0 -9.91298 409.142 104.8)"/><path style="fill:none;stroke:#000;stroke-width:1.41700006;stroke-linecap:round;stroke-linejoin:round;stroke-miterlimit:22.9260006;stroke-dasharray:none;stroke-opacity:1" d="M0 0c.189-.4.49-.81.966-1.019.324-.143.426-.149.794-.108.389.044.405.107.805.334-.206.375-.161.244-.454.635C1.445.728.903.535 0 0" transform="matrix(9.91298 0 0 -9.91298 428.348 111.52)"/><path style="fill:#fc0;fill-opacity:1;fill-rule:evenodd;stroke:none" d="M0 0c.189-.4.49-.81.966-1.019.324-.143.426-.149.794-.108.389.044.405.107.805.334-.206.375-.161.244-.454.635C1.445.728.903.535 0 0" transform="matrix(9.91298 0 0 -9.91298 428.348 111.52)"/><path style="fill:none;stroke:#000;stroke-width:1.41700006;stroke-linecap:round;stroke-linejoin:round;stroke-miterlimit:22.9260006;stroke-dasharray:none;stroke-opacity:1" d="M0 0c.417-.829 1.489-.877 1.574-.823L2.639.514C1.245.772 1.643 1.151 0 0" transform="matrix(9.91298 0 0 -9.91298 370.68 204.454)"/><path style="fill:#fc0;fill-opacity:1;fill-rule:evenodd;stroke:none" d="M0 0c.417-.829 1.489-.877 1.574-.823L2.639.514C1.245.772 1.643 1.151 0 0" transform="matrix(9.91298 0 0 -9.91298 370.68 204.454)"/><path style="fill:none;stroke:#000;stroke-width:1.41700006;stroke-linecap:round;stroke-linejoin:round;stroke-miterlimit:22.9260006;stroke-dasharray:none;stroke-opacity:1" d="M0 0c.559 1.175-.014 1.873-.772 2.633C-1.34 1.208-1.774.492 0 0" transform="matrix(9.91298 0 0 -9.91298 351.934 151.406)"/><path style="fill:#fc0;fill-opacity:1;fill-rule:evenodd;stroke:none" d="M0 0c.559 1.175-.014 1.873-.772 2.633C-1.34 1.208-1.774.492 0 0" transform="matrix(9.91298 0 0 -9.91298 351.934 151.406)"/><path style="fill:none;stroke:#000;stroke-width:1.41700006;stroke-linecap:round;stroke-linejoin:round;stroke-miterlimit:22.9260006;stroke-dasharray:none;stroke-opacity:1" d="M0 0c.366.419.743 1.336.63 1.857l-.18.792C-.278 2.284-1.812.679 0 0" transform="matrix(9.91298 0 0 -9.91298 357.607 130.387)"/><path style="fill:#fc0;fill-opacity:1;fill-rule:evenodd;stroke:none" d="M0 0c.366.419.743 1.336.63 1.857l-.18.792C-.278 2.284-1.812.679 0 0" transform="matrix(9.91298 0 0 -9.91298 357.607 130.387)"/><path style="fill:none;stroke:#000;stroke-width:1.41700006;stroke-linecap:round;stroke-linejoin:round;stroke-miterlimit:22.9260006;stroke-dasharray:none;stroke-opacity:1" d="M0 0c.515-.063 1.291.123 2.095.203l.399 1.555C.467 1.472 1.093 1.24 0 0" transform="matrix(9.91298 0 0 -9.91298 391.688 214.816)"/><path style="fill:#fc0;fill-opacity:1;fill-rule:evenodd;stroke:none" d="M0 0c.515-.063 1.291.123 2.095.203l.399 1.555C.467 1.472 1.093 1.24 0 0" transform="matrix(9.91298 0 0 -9.91298 391.688 214.816)"/><path style="fill:none;stroke:#000;stroke-width:1.41700006;stroke-linecap:round;stroke-linejoin:round;stroke-miterlimit:22.9260006;stroke-dasharray:none;stroke-opacity:1" d="M0 0c-.544 1.431-.22 1.518-1.78 2.049C-1.847.05-1.817-.041 0 0" transform="matrix(9.91298 0 0 -9.91298 357 171.876)"/><path style="fill:#fc0;fill-opacity:1;fill-rule:evenodd;stroke:none" d="M0 0c-.544 1.431-.22 1.518-1.78 2.049C-1.847.05-1.817-.041 0 0" transform="matrix(9.91298 0 0 -9.91298 357 171.876)"/><path style="fill:none;stroke:#000;stroke-width:1.41700006;stroke-linecap:round;stroke-linejoin:round;stroke-miterlimit:22.9260006;stroke-dasharray:none;stroke-opacity:1" d="m0 0 .275-1.218c1.504.355 1.249.863 1.592 2.12C1.235.894.213.51 0 0" transform="matrix(9.91298 0 0 -9.91298 366.78 101.717)"/><path style="fill:#fc0;fill-opacity:1;fill-rule:evenodd;stroke:none" d="m0 0 .275-1.218c1.504.355 1.249.863 1.592 2.12C1.235.894.213.51 0 0" transform="matrix(9.91298 0 0 -9.91298 366.78 101.717)"/><path style="fill:none;stroke:#000;stroke-width:1.41700006;stroke-linecap:round;stroke-linejoin:round;stroke-miterlimit:22.9260006;stroke-dasharray:none;stroke-opacity:1" d="M0 0c.669.745.661.89 1.063 1.798l-.865.978C-.555 1.913-.737.896 0 0" transform="matrix(9.91298 0 0 -9.91298 444.462 196.107)"/><path style="fill:#fc0;fill-opacity:1;fill-rule:evenodd;stroke:none" d="M0 0c.669.745.661.89 1.063 1.798l-.865.978C-.555 1.913-.737.896 0 0" transform="matrix(9.91298 0 0 -9.91298 444.462 196.107)"/><path style="fill:none;stroke:#000;stroke-width:1.41700006;stroke-linecap:round;stroke-linejoin:round;stroke-miterlimit:22.9260006;stroke-dasharray:none;stroke-opacity:1" d="m0 0-.01-1.263c1.188.13 2.084 1.152 1.286 2.332C.554.683.383.382 0 0" transform="matrix(9.91298 0 0 -9.91298 421.506 197.431)"/><path style="fill:#fc0;fill-opacity:1;fill-rule:evenodd;stroke:none" d="m0 0-.01-1.263c1.188.13 2.084 1.152 1.286 2.332C.554.683.383.382 0 0" transform="matrix(9.91298 0 0 -9.91298 421.506 197.431)"/><path style="fill:none;stroke:#000;stroke-width:1.41700006;stroke-linecap:round;stroke-linejoin:round;stroke-miterlimit:22.9260006;stroke-dasharray:none;stroke-opacity:1" d="m0 0 .367 1.96-1.344.632c.42-1.168-.717-.53.515-2.037C-.17.198-.352.287 0 0" transform="matrix(9.91298 0 0 -9.91298 457.71 173.672)"/><path style="fill:#fc0;fill-opacity:1;fill-rule:evenodd;stroke:none" d="m0 0 .367 1.96-1.344.632c.42-1.168-.717-.53.515-2.037C-.17.198-.352.287 0 0" transform="matrix(9.91298 0 0 -9.91298 457.71 173.672)"/><path style="fill:none;stroke:#000;stroke-width:1.41700006;stroke-linecap:round;stroke-linejoin:round;stroke-miterlimit:22.9260006;stroke-dasharray:none;stroke-opacity:1" d="m0 0 1.395.393c.147.638.23.507.145 1.239C.089 1.523-.015 1.391 0 0" transform="matrix(9.91298 0 0 -9.91298 173.028 163.083)"/><path style="fill:#fc0;fill-opacity:1;fill-rule:evenodd;stroke:none" d="m0 0 1.395.393c.147.638.23.507.145 1.239C.089 1.523-.015 1.391 0 0" transform="matrix(9.91298 0 0 -9.91298 173.028 163.083)"/><path style="fill:none;stroke:#000;stroke-width:1.41700006;stroke-linecap:round;stroke-linejoin:round;stroke-miterlimit:22.9260006;stroke-dasharray:none;stroke-opacity:1" d="M0 0c1.021.215 1.394.705 1.244 1.858C.276 1.953-.334 1.036 0 0" transform="matrix(9.91298 0 0 -9.91298 462.107 188.812)"/><path style="fill:#fc0;fill-opacity:1;fill-rule:evenodd;stroke:none" d="M0 0c1.021.215 1.394.705 1.244 1.858C.276 1.953-.334 1.036 0 0" transform="matrix(9.91298 0 0 -9.91298 462.107 188.812)"/><path style="fill:none;stroke:#000;stroke-width:1.41700006;stroke-linecap:round;stroke-linejoin:round;stroke-miterlimit:22.9260006;stroke-dasharray:none;stroke-opacity:1" d="M0 0c.472-.957 1.65-.788 2.007.209C1.16.452.311 1.227 0 0" transform="matrix(9.91298 0 0 -9.91298 285.273 162.09)"/><path style="fill:#fc0;fill-opacity:1;fill-rule:evenodd;stroke:none" d="M0 0c.472-.957 1.65-.788 2.007.209C1.16.452.311 1.227 0 0" transform="matrix(9.91298 0 0 -9.91298 285.273 162.09)"/><path style="fill:none;stroke:#000;stroke-width:1.41700006;stroke-linecap:round;stroke-linejoin:round;stroke-miterlimit:22.9260006;stroke-dasharray:none;stroke-opacity:1" d="M0 0c1-.905 1.492-.357 2.202.241-.37.451-.571.469-1.264.562C.567.528.224.384 0 0" transform="matrix(9.91298 0 0 -9.91298 354.2 197.431)"/><path style="fill:#fc0;fill-opacity:1;fill-rule:evenodd;stroke:none" d="M0 0c1-.905 1.492-.357 2.202.241-.37.451-.571.469-1.264.562C.567.528.224.384 0 0" transform="matrix(9.91298 0 0 -9.91298 354.2 197.431)"/><path style="fill:none;stroke:#000;stroke-width:1.41700006;stroke-linecap:round;stroke-linejoin:round;stroke-miterlimit:22.9260006;stroke-dasharray:none;stroke-opacity:1" d="m0 0 1.938-1.852c.011.642-.045 1.104-.367 1.607-.119.186-.198.376-.654.411C.618.188.314.077 0 0" transform="matrix(9.91298 0 0 -9.91298 442.799 128.147)"/><path style="fill:#fc0;fill-opacity:1;fill-rule:evenodd;stroke:none" d="m0 0 1.938-1.852c.011.642-.045 1.104-.367 1.607-.119.186-.198.376-.654.411C.618.188.314.077 0 0" transform="matrix(9.91298 0 0 -9.91298 442.799 128.147)"/><path style="fill:none;stroke:#000;stroke-width:1.41700006;stroke-linecap:round;stroke-linejoin:round;stroke-miterlimit:22.9260006;stroke-dasharray:none;stroke-opacity:1" d="M0 0c.015-1.332-.409-1.601 1.188-.895L1.414.371Z" transform="matrix(9.91298 0 0 -9.91298 194.08 144.327)"/><path style="fill:#fc0;fill-opacity:1;fill-rule:evenodd;stroke:none" d="M0 0c.015-1.332-.409-1.601 1.188-.895L1.414.371Z" transform="matrix(9.91298 0 0 -9.91298 194.08 144.327)"/><path style="fill:none;stroke:#000;stroke-width:1.41700006;stroke-linecap:round;stroke-linejoin:round;stroke-miterlimit:22.9260006;stroke-dasharray:none;stroke-opacity:1" d="m0 0-.014-1.264c.782.191 1.713.845 1.324 1.666C.955.585.434.198 0 0" transform="matrix(9.91298 0 0 -9.91298 530.016 142.68)"/><path style="fill:#fc0;fill-opacity:1;fill-rule:evenodd;stroke:none" d="m0 0-.014-1.264c.782.191 1.713.845 1.324 1.666C.955.585.434.198 0 0" transform="matrix(9.91298 0 0 -9.91298 530.016 142.68)"/><path style="fill:none;stroke:#000;stroke-width:1.41700006;stroke-linecap:round;stroke-linejoin:round;stroke-miterlimit:22.9260006;stroke-dasharray:none;stroke-opacity:1" d="M0 0c.311-.217-.368-.288.403-.108.643.149 1.897 2.062 2.235 2.536-.614-.098-.989-.718-1.389-1.135C.812.836-.054.557 0 0" transform="matrix(9.91298 0 0 -9.91298 101.073 210.452)"/><path style="fill:#fc0;fill-opacity:1;fill-rule:evenodd;stroke:none" d="M0 0c.311-.217-.368-.288.403-.108.643.149 1.897 2.062 2.235 2.536-.614-.098-.989-.718-1.389-1.135C.812.836-.054.557 0 0" transform="matrix(9.91298 0 0 -9.91298 101.073 210.452)"/><path style="fill:none;stroke:#000;stroke-width:1.41700006;stroke-linecap:round;stroke-linejoin:round;stroke-miterlimit:22.9260006;stroke-dasharray:none;stroke-opacity:1" d="M0 0c.858-.697 1.706.033 2.184.584C1.16.98.437 1.018 0 0" transform="matrix(9.91298 0 0 -9.91298 600.914 156.191)"/><path style="fill:#fc0;fill-opacity:1;fill-rule:evenodd;stroke:none" d="M0 0c.858-.697 1.706.033 2.184.584C1.16.98.437 1.018 0 0" transform="matrix(9.91298 0 0 -9.91298 600.914 156.191)"/><path style="fill:none;stroke:#000;stroke-width:1.41700006;stroke-linecap:round;stroke-linejoin:round;stroke-miterlimit:22.9260006;stroke-dasharray:none;stroke-opacity:1" d="m0 0 .009-1.229C1.072-.664 1.272-.9 1.24.619.643.602.324.276 0 0" transform="matrix(9.91298 0 0 -9.91298 480.347 168.412)"/><path style="fill:#fc0;fill-opacity:1;fill-rule:evenodd;stroke:none" d="m0 0 .009-1.229C1.072-.664 1.272-.9 1.24.619.643.602.324.276 0 0" transform="matrix(9.91298 0 0 -9.91298 480.347 168.412)"/><path style="fill:none;stroke:#000;stroke-width:1.41700006;stroke-linecap:round;stroke-linejoin:round;stroke-miterlimit:22.9260006;stroke-dasharray:none;stroke-opacity:1" d="m0 0 .009-1.266c.936.153 1.519.657 1.05 1.654C.774.487.295.177 0 0" transform="matrix(9.91298 0 0 -9.91298 497.42 158.484)"/><path style="fill:#fc0;fill-opacity:1;fill-rule:evenodd;stroke:none" d="m0 0 .009-1.266c.936.153 1.519.657 1.05 1.654C.774.487.295.177 0 0" transform="matrix(9.91298 0 0 -9.91298 497.42 158.484)"/><path style="fill:none;stroke:#000;stroke-width:1.41700006;stroke-linecap:round;stroke-linejoin:round;stroke-miterlimit:22.9260006;stroke-dasharray:none;stroke-opacity:1" d="m0 0 1.079-.441L2.095.45C1.143 1.18.614.794 0 0" transform="matrix(9.91298 0 0 -9.91298 318.935 181.28)"/><path style="fill:#fc0;fill-opacity:1;fill-rule:evenodd;stroke:none" d="m0 0 1.079-.441L2.095.45C1.143 1.18.614.794 0 0" transform="matrix(9.91298 0 0 -9.91298 318.935 181.28)"/><path style="fill:none;stroke:#000;stroke-width:1.41700006;stroke-linecap:round;stroke-linejoin:round;stroke-miterlimit:22.9260006;stroke-dasharray:none;stroke-opacity:1" d="M0 0c1.052.046 1.326.399 1.218 1.525C.161 1.187-.114 1.456 0 0" transform="matrix(9.91298 0 0 -9.91298 212.4 151.344)"/><path style="fill:#fc0;fill-opacity:1;fill-rule:evenodd;stroke:none" d="M0 0c1.052.046 1.326.399 1.218 1.525C.161 1.187-.114 1.456 0 0" transform="matrix(9.91298 0 0 -9.91298 212.4 151.344)"/><path style="fill:none;stroke:#000;stroke-width:1.41700006;stroke-linecap:round;stroke-linejoin:round;stroke-miterlimit:22.9260006;stroke-dasharray:none;stroke-opacity:1" d="m0 0 .243-.77c.622.191.773.385 1.117.784-.232.515-.339.331-.633.864L.014.427Z" transform="matrix(9.91298 0 0 -9.91298 256.055 201.986)"/><path style="fill:#fc0;fill-opacity:1;fill-rule:evenodd;stroke:none" d="m0 0 .243-.77c.622.191.773.385 1.117.784-.232.515-.339.331-.633.864L.014.427Z" transform="matrix(9.91298 0 0 -9.91298 256.055 201.986)"/><path style="fill:none;stroke:#000;stroke-width:1.41700006;stroke-linecap:round;stroke-linejoin:round;stroke-miterlimit:22.9260006;stroke-dasharray:none;stroke-opacity:1" d="m0 0-.135-1.158c1.244.113 1.141.115 1.37 1.313C.802.186.499.067 0 0" transform="matrix(9.91298 0 0 -9.91298 549.519 134.65)"/><path style="fill:#fc0;fill-opacity:1;fill-rule:evenodd;stroke:none" d="m0 0-.135-1.158c1.244.113 1.141.115 1.37 1.313C.802.186.499.067 0 0" transform="matrix(9.91298 0 0 -9.91298 549.519 134.65)"/><path style="fill:none;stroke:#000;stroke-width:1.41700006;stroke-linecap:round;stroke-linejoin:round;stroke-miterlimit:22.9260006;stroke-dasharray:none;stroke-opacity:1" d="m0 0-.103-1.201c1.04.336 1.1-.207 1.279 1.349z" transform="matrix(9.91298 0 0 -9.91298 231.22 134.794)"/><path style="fill:#fc0;fill-opacity:1;fill-rule:evenodd;stroke:none" d="m0 0-.103-1.201c1.04.336 1.1-.207 1.279 1.349z" transform="matrix(9.91298 0 0 -9.91298 231.22 134.794)"/><path style="fill:none;stroke:#000;stroke-width:1.41700006;stroke-linecap:round;stroke-linejoin:round;stroke-miterlimit:22.9260006;stroke-dasharray:none;stroke-opacity:1" d="M0 0c.332-.398.299-.487.996-.583.314.407.339.401.526.823C.93.787.385.595 0 0" transform="matrix(9.91298 0 0 -9.91298 212.303 201.844)"/><path style="fill:#fc0;fill-opacity:1;fill-rule:evenodd;stroke:none" d="M0 0c.332-.398.299-.487.996-.583.314.407.339.401.526.823C.93.787.385.595 0 0" transform="matrix(9.91298 0 0 -9.91298 212.303 201.844)"/><path style="fill:none;stroke:#000;stroke-width:1.41700006;stroke-linecap:round;stroke-linejoin:round;stroke-miterlimit:22.9260006;stroke-dasharray:none;stroke-opacity:1" d="M0 0c.334.362.51.56.577 1.063-.35.261-.611.405-1.077.352C-.719.696-.435.253 0 0" transform="matrix(9.91298 0 0 -9.91298 591.67 197.662)"/><path style="fill:#fc0;fill-opacity:1;fill-rule:evenodd;stroke:none" d="M0 0c.334.362.51.56.577 1.063-.35.261-.611.405-1.077.352C-.719.696-.435.253 0 0" transform="matrix(9.91298 0 0 -9.91298 591.67 197.662)"/><path style="fill:none;stroke:#000;stroke-width:1.41700006;stroke-linecap:round;stroke-linejoin:round;stroke-miterlimit:22.9260006;stroke-dasharray:none;stroke-opacity:1" d="M0 0c.303.286.439.514.562 1.046l-1.108.334C-.875.556-.652.323 0 0" transform="matrix(9.91298 0 0 -9.91298 273.862 197.027)"/><path style="fill:#fc0;fill-opacity:1;fill-rule:evenodd;stroke:none" d="M0 0c.303.286.439.514.562 1.046l-1.108.334C-.875.556-.652.323 0 0" transform="matrix(9.91298 0 0 -9.91298 273.862 197.027)"/><path style="fill:none;stroke:#000;stroke-width:1.41700006;stroke-linecap:round;stroke-linejoin:round;stroke-miterlimit:22.9260006;stroke-dasharray:none;stroke-opacity:1" d="m0 0 .789.011c.295.237.388.463.633.829C.224 1.166.165 1.578 0 0" transform="matrix(9.91298 0 0 -9.91298 564.692 145.603)"/><path style="fill:#fc0;fill-opacity:1;fill-rule:evenodd;stroke:none" d="m0 0 .789.011c.295.237.388.463.633.829C.224 1.166.165 1.578 0 0" transform="matrix(9.91298 0 0 -9.91298 564.692 145.603)"/><path style="fill:none;stroke:#000;stroke-width:1.41700006;stroke-linecap:round;stroke-linejoin:round;stroke-miterlimit:22.9260006;stroke-dasharray:none;stroke-opacity:1" d="m0 0 .746-.032c.378.29.502.413.65.917l-1.21.214z" transform="matrix(9.91298 0 0 -9.91298 245.7 145.34)"/><path style="fill:#fc0;fill-opacity:1;fill-rule:evenodd;stroke:none" d="m0 0 .746-.032c.378.29.502.413.65.917l-1.21.214z" transform="matrix(9.91298 0 0 -9.91298 245.7 145.34)"/><path style="fill:none;stroke:#000;stroke-width:1.41700006;stroke-linecap:round;stroke-linejoin:round;stroke-miterlimit:22.9260006;stroke-dasharray:none;stroke-opacity:1" d="M0 0c-.399.14-.154.141-.532.074-.016-.003-.39-.147-.402-.155l-.223-1.061 1.228.265z" transform="matrix(9.91298 0 0 -9.91298 256.055 201.986)"/><path style="fill:#fc0;fill-opacity:1;fill-rule:evenodd;stroke:none" d="M0 0c-.399.14-.154.141-.532.074-.016-.003-.39-.147-.402-.155l-.223-1.061 1.228.265z" transform="matrix(9.91298 0 0 -9.91298 256.055 201.986)"/><path style="fill:none;stroke:#000;stroke-width:1.41700006;stroke-linecap:round;stroke-linejoin:round;stroke-miterlimit:22.9260006;stroke-dasharray:none;stroke-opacity:1" d="M0 0c.698.125.728.177.949.785C.183 1.978-.39 1.376 0 0" transform="matrix(9.91298 0 0 -9.91298 578.297 208.16)"/><path style="fill:#fc0;fill-opacity:1;fill-rule:evenodd;stroke:none" d="M0 0c.698.125.728.177.949.785C.183 1.978-.39 1.376 0 0" transform="matrix(9.91298 0 0 -9.91298 578.297 208.16)"/><path style="fill:none;stroke:#000;stroke-width:1.41700006;stroke-linecap:round;stroke-linejoin:round;stroke-miterlimit:22.9260006;stroke-dasharray:none;stroke-opacity:1" d="m0 0 1.065.201c-.104.844-.196.859-1.046.964C-.287.599-.241.562 0 0" transform="matrix(9.91298 0 0 -9.91298 520.821 180.936)"/><path style="fill:#fc0;fill-opacity:1;fill-rule:evenodd;stroke:none" d="m0 0 1.065.201c-.104.844-.196.859-1.046.964C-.287.599-.241.562 0 0" transform="matrix(9.91298 0 0 -9.91298 520.821 180.936)"/><path style="fill:none;stroke:#000;stroke-width:1.41700006;stroke-linecap:round;stroke-linejoin:round;stroke-miterlimit:22.9260006;stroke-dasharray:none;stroke-opacity:1" d="m0 0 .48-.773 1.05.506-.604.693C.524.427.773.521.41.361.146.245.387.419 0 0" transform="matrix(9.91298 0 0 -9.91298 522.14 188.599)"/><path style="fill:#fc0;fill-opacity:1;fill-rule:evenodd;stroke:none" d="m0 0 .48-.773 1.05.506-.604.693C.524.427.773.521.41.361.146.245.387.419 0 0" transform="matrix(9.91298 0 0 -9.91298 522.14 188.599)"/><path style="fill:none;stroke:#000;stroke-width:1.41700006;stroke-linecap:round;stroke-linejoin:round;stroke-miterlimit:22.9260006;stroke-dasharray:none;stroke-opacity:1" d="m0 0 1.012-.684.652.948-.827.308Z" transform="matrix(9.91298 0 0 -9.91298 530.119 201.23)"/><path style="fill:#fc0;fill-opacity:1;fill-rule:evenodd;stroke:none" d="m0 0 1.012-.684.652.948-.827.308Z" transform="matrix(9.91298 0 0 -9.91298 530.119 201.23)"/><path style="fill:none;stroke:#000;stroke-width:1.41700006;stroke-linecap:round;stroke-linejoin:round;stroke-miterlimit:22.9260006;stroke-dasharray:none;stroke-opacity:1" d="M0 0c.598-.413.574-.517 1.081-.315l.535.355-.838.768C.541.617.534.589.37.401L.083.079C.066.061.028.026 0 0" transform="matrix(9.91298 0 0 -9.91298 257.153 148.835)"/><path style="fill:#fc0;fill-opacity:1;fill-rule:evenodd;stroke:none" d="M0 0c.598-.413.574-.517 1.081-.315l.535.355-.838.768C.541.617.534.589.37.401L.083.079C.066.061.028.026 0 0" transform="matrix(9.91298 0 0 -9.91298 257.153 148.835)"/><path style="fill:none;stroke:#000;stroke-width:1.41700006;stroke-linecap:round;stroke-linejoin:round;stroke-miterlimit:22.9260006;stroke-dasharray:none;stroke-opacity:1" d="m0 0 .508-.977c.578.265.395.141.909.663l-.621.58z" transform="matrix(9.91298 0 0 -9.91298 203.893 186.668)"/><path style="fill:#fc0;fill-opacity:1;fill-rule:evenodd;stroke:none" d="m0 0 .508-.977c.578.265.395.141.909.663l-.621.58z" transform="matrix(9.91298 0 0 -9.91298 203.893 186.668)"/><path style="fill:none;stroke:#000;stroke-width:1.41700006;stroke-linecap:round;stroke-linejoin:round;stroke-miterlimit:22.9260006;stroke-dasharray:none;stroke-opacity:1" d="m0 0 .203-1.011.996.229c-.064.452-.194.834-.729.89C-.19.177.176.092 0 0" transform="matrix(9.91298 0 0 -9.91298 201.02 170.536)"/><path style="fill:#fc0;fill-opacity:1;fill-rule:evenodd;stroke:none" d="m0 0 .203-1.011.996.229c-.064.452-.194.834-.729.89C-.19.177.176.092 0 0" transform="matrix(9.91298 0 0 -9.91298 201.02 170.536)"/><path style="fill:none;stroke:#000;stroke-width:1.41700006;stroke-linecap:round;stroke-linejoin:round;stroke-miterlimit:22.9260006;stroke-dasharray:none;stroke-opacity:1" d="m0 0 2.111.328c-.025.026-.064.104-.077.077L1.005.897C.504.554.37.485 0 0" transform="matrix(9.91298 0 0 -9.91298 301.533 172.703)"/><path style="fill:#fc0;fill-opacity:1;fill-rule:evenodd;stroke:none" d="m0 0 2.111.328c-.025.026-.064.104-.077.077L1.005.897C.504.554.37.485 0 0" transform="matrix(9.91298 0 0 -9.91298 301.533 172.703)"/><path style="fill:none;stroke:#000;stroke-width:1.41700006;stroke-linecap:round;stroke-linejoin:round;stroke-miterlimit:22.9260006;stroke-dasharray:none;stroke-opacity:1" d="m0 0-.145-1.007L.86-.743.668.251C.483.182.119.058 0 0" transform="matrix(9.91298 0 0 -9.91298 563.972 203.32)"/><path style="fill:#fc0;fill-opacity:1;fill-rule:evenodd;stroke:none" d="m0 0-.145-1.007L.86-.743.668.251C.483.182.119.058 0 0" transform="matrix(9.91298 0 0 -9.91298 563.972 203.32)"/><path style="fill:none;stroke:#000;stroke-width:1.41700006;stroke-linecap:round;stroke-linejoin:round;stroke-miterlimit:22.9260006;stroke-dasharray:none;stroke-opacity:1" d="m0 0 2.142.297C1.482.908.626.918 0 0" transform="matrix(9.91298 0 0 -9.91298 336.698 188.599)"/><path style="fill:#fc0;fill-opacity:1;fill-rule:evenodd;stroke:none" d="m0 0 2.142.297C1.482.908.626.918 0 0" transform="matrix(9.91298 0 0 -9.91298 336.698 188.599)"/><path style="fill:none;stroke:#000;stroke-width:1.41700006;stroke-linecap:round;stroke-linejoin:round;stroke-miterlimit:22.9260006;stroke-dasharray:none;stroke-opacity:1" d="m0 0 1.562-.147L.744.85l-.4-.401L.215.282.145.194Z" transform="matrix(9.91298 0 0 -9.91298 575.463 149.304)"/><path style="fill:#fc0;fill-opacity:1;fill-rule:evenodd;stroke:none" d="m0 0 1.562-.147L.744.85l-.4-.401L.215.282.145.194Z" transform="matrix(9.91298 0 0 -9.91298 575.463 149.304)"/><path style="fill:none;stroke:#000;stroke-width:1.41700006;stroke-linecap:round;stroke-linejoin:round;stroke-miterlimit:22.9260006;stroke-dasharray:none;stroke-opacity:1" d="m0 0 1.406-.546L.861.541C.262.363.213.342 0 0" transform="matrix(9.91298 0 0 -9.91298 266.64 159.142)"/><path style="fill:#fc0;fill-opacity:1;fill-rule:evenodd;stroke:none" d="m0 0 1.406-.546L.861.541C.262.363.213.342 0 0" transform="matrix(9.91298 0 0 -9.91298 266.64 159.142)"/><path style="fill:none;stroke:#000;stroke-width:1.41700006;stroke-linecap:round;stroke-linejoin:round;stroke-miterlimit:22.9260006;stroke-dasharray:none;stroke-opacity:1" d="M0 0c.444.697 1.042 4.761 1.787 6.202l.994 1.719C.825 7.175 1.169 6.909.659 4.664.405 3.549-.248.808-.151.298-.073-.11-.193.202 0 0" transform="matrix(9.91298 0 0 -9.91298 126.486 233.932)"/><path style="fill:#fc0;fill-opacity:1;fill-rule:evenodd;stroke:none" d="M0 0c.444.697 1.042 4.761 1.787 6.202l.994 1.719C.825 7.175 1.169 6.909.659 4.664.405 3.549-.248.808-.151.298-.073-.11-.193.202 0 0" transform="matrix(9.91298 0 0 -9.91298 126.486 233.932)"/><path style="fill:none;stroke:#000;stroke-width:1.41700006;stroke-linecap:round;stroke-linejoin:round;stroke-miterlimit:22.9260006;stroke-dasharray:none;stroke-opacity:1" d="M0 0c3.025-.096 2.266.5 3.896 1.973.332.3.505.348.797.688l2.05 2.412c-.608-.087-3.363-3.15-4.731-4.036C1.466.683.364.531 0 0" transform="matrix(9.91298 0 0 -9.91298 635.193 168.094)"/><path style="fill:#fc0;fill-opacity:1;fill-rule:evenodd;stroke:none" d="M0 0c3.025-.096 2.266.5 3.896 1.973.332.3.505.348.797.688l2.05 2.412c-.608-.087-3.363-3.15-4.731-4.036C1.466.683.364.531 0 0" transform="matrix(9.91298 0 0 -9.91298 635.193 168.094)"/><path style="fill:none;stroke:#000;stroke-width:1.41700006;stroke-linecap:round;stroke-linejoin:round;stroke-miterlimit:22.9260006;stroke-dasharray:none;stroke-opacity:1" d="M0 0c.421.494.151.56.04 1.466a15 15 0 0 1-.278 1.677c-.324 1.383-.438 1.38-1.22 2.418.001-.376.867-2.839 1.093-4.176C-.251.708-.443.39 0 0" transform="matrix(9.91298 0 0 -9.91298 668.22 228.036)"/><path style="fill:#fc0;fill-opacity:1;fill-rule:evenodd;stroke:none" d="M0 0c.421.494.151.56.04 1.466a15 15 0 0 1-.278 1.677c-.324 1.383-.438 1.38-1.22 2.418.001-.376.867-2.839 1.093-4.176C-.251.708-.443.39 0 0" transform="matrix(9.91298 0 0 -9.91298 668.22 228.036)"/><path style="fill:none;stroke:#000;stroke-width:1.41700006;stroke-linecap:round;stroke-linejoin:round;stroke-miterlimit:22.9260006;stroke-dasharray:none;stroke-opacity:1" d="M0 0c1.323-.035 1.93.284 2.384 1.453L.428 1.451C.101.963.153.674 0 0" transform="matrix(9.91298 0 0 -9.91298 387.814 105.055)"/><path style="fill:#fc0;fill-opacity:1;fill-rule:evenodd;stroke:none" d="M0 0c1.323-.035 1.93.284 2.384 1.453L.428 1.451C.101.963.153.674 0 0" transform="matrix(9.91298 0 0 -9.91298 387.814 105.055)"/><path style="fill:none;stroke:#000;stroke-width:1.41700006;stroke-linecap:round;stroke-linejoin:round;stroke-miterlimit:22.9260006;stroke-dasharray:none;stroke-opacity:1" d="m0 0-4.404 1.387c.085-.66.015-.448.807-.759.696-.274 2.25-.995 2.948-.964C.058-.303-.253-.348 0 0" transform="matrix(9.91298 0 0 -9.91298 130.054 166.578)"/><path style="fill:#fc0;fill-opacity:1;fill-rule:evenodd;stroke:none" d="m0 0-4.404 1.387c.085-.66.015-.448.807-.759.696-.274 2.25-.995 2.948-.964C.058-.303-.253-.348 0 0" transform="matrix(9.91298 0 0 -9.91298 130.054 166.578)"/><path style="fill:none;stroke:#000;stroke-width:1.41700006;stroke-linecap:round;stroke-linejoin:round;stroke-miterlimit:22.9260006;stroke-dasharray:none;stroke-opacity:1" d="M0 0c.237-.164 1.79-.354 2.283-.507 1.474-.456 1.131-.682 2.173-.553.103.532-.638.55-1.954.928C1.989.016.123.713 0 0" transform="matrix(9.91298 0 0 -9.91298 665.66 165.035)"/><path style="fill:#fc0;fill-opacity:1;fill-rule:evenodd;stroke:none" d="M0 0c.237-.164 1.79-.354 2.283-.507 1.474-.456 1.131-.682 2.173-.553.103.532-.638.55-1.954.928C1.989.016.123.713 0 0" transform="matrix(9.91298 0 0 -9.91298 665.66 165.035)"/><path style="fill:none;stroke:#000;stroke-width:1.41700006;stroke-linecap:round;stroke-linejoin:round;stroke-miterlimit:22.9260006;stroke-dasharray:none;stroke-opacity:1" d="M0 0c1.04-.547.861-.124 2.605.453C1.911 1.101.496 1.069 0 0" transform="matrix(9.91298 0 0 -9.91298 618.57 162.163)"/><path style="fill:#fc0;fill-opacity:1;fill-rule:evenodd;stroke:none" d="M0 0c1.04-.547.861-.124 2.605.453C1.911 1.101.496 1.069 0 0" transform="matrix(9.91298 0 0 -9.91298 618.57 162.163)"/><path style="fill:none;stroke:#000;stroke-width:1.41700006;stroke-linecap:round;stroke-linejoin:round;stroke-miterlimit:22.9260006;stroke-dasharray:none;stroke-opacity:1" d="M0 0c.109-.731.018-.622.902-.365 1.846.536 1.579.534 3.391 1.49-.531.03-1.346-.437-1.988-.624C1.381.234.888.147 0 0" transform="matrix(9.91298 0 0 -9.91298 87.853 186.52)"/><path style="fill:#fc0;fill-opacity:1;fill-rule:evenodd;stroke:none" d="M0 0c.109-.731.018-.622.902-.365 1.846.536 1.579.534 3.391 1.49-.531.03-1.346-.437-1.988-.624C1.381.234.888.147 0 0" transform="matrix(9.91298 0 0 -9.91298 87.853 186.52)"/><path style="fill:none;stroke:#000;stroke-width:1.41700006;stroke-linecap:round;stroke-linejoin:round;stroke-miterlimit:22.9260006;stroke-dasharray:none;stroke-opacity:1" d="M0 0c-.201-.76-.328-1.133-.759-1.537C.483-1.223 1.076-1.523.848.221z" transform="matrix(9.91298 0 0 -9.91298 159.217 153.867)"/><path style="fill:#fc0;fill-opacity:1;fill-rule:evenodd;stroke:none" d="M0 0c-.201-.76-.328-1.133-.759-1.537C.483-1.223 1.076-1.523.848.221z" transform="matrix(9.91298 0 0 -9.91298 159.217 153.867)"/><path style="fill:none;stroke:#000;stroke-width:1.41700006;stroke-linecap:round;stroke-linejoin:round;stroke-miterlimit:22.9260006;stroke-dasharray:none;stroke-opacity:1" d="M0 0c.17-.06 2.754.271 2.788.282l.725.461C3.101.954 1.269.563.695.451.012.318.179.429 0 0" transform="matrix(9.91298 0 0 -9.91298 674.504 156.203)"/><path style="fill:#fc0;fill-opacity:1;fill-rule:evenodd;stroke:none" d="M0 0c.17-.06 2.754.271 2.788.282l.725.461C3.101.954 1.269.563.695.451.012.318.179.429 0 0" transform="matrix(9.91298 0 0 -9.91298 674.504 156.203)"/><path style="fill:none;stroke:#000;stroke-width:1.41700006;stroke-linecap:round;stroke-linejoin:round;stroke-miterlimit:22.9260006;stroke-dasharray:none;stroke-opacity:1" d="m0 0 .06-1.165c.361.055 1.063.4 1.06.675L1.076.518Z" transform="matrix(9.91298 0 0 -9.91298 513.721 151.344)"/><path style="fill:#fc0;fill-opacity:1;fill-rule:evenodd;stroke:none" d="m0 0 .06-1.165c.361.055 1.063.4 1.06.675L1.076.518Z" transform="matrix(9.91298 0 0 -9.91298 513.721 151.344)"/><path style="fill:none;stroke:#000;stroke-width:1.41700006;stroke-linecap:round;stroke-linejoin:round;stroke-miterlimit:22.9260006;stroke-dasharray:none;stroke-opacity:1" d="m0 0 .852-.366C1.199.838 1.179.925-.13.861Z" transform="matrix(9.91298 0 0 -9.91298 590.055 178.514)"/><path style="fill:#fc0;fill-opacity:1;fill-rule:evenodd;stroke:none" d="m0 0 .852-.366C1.199.838 1.179.925-.13.861Z" transform="matrix(9.91298 0 0 -9.91298 590.055 178.514)"/><path style="fill:none;stroke:#000;stroke-width:1.41700006;stroke-linecap:round;stroke-linejoin:round;stroke-miterlimit:22.9260006;stroke-dasharray:none;stroke-opacity:1" d="m0 0 .553-.751.815.103c.038.46-.101.682-.384 1.08z" transform="matrix(9.91298 0 0 -9.91298 584.752 157.83)"/><path style="fill:#fc0;fill-opacity:1;fill-rule:evenodd;stroke:none" d="m0 0 .553-.751.815.103c.038.46-.101.682-.384 1.08z" transform="matrix(9.91298 0 0 -9.91298 584.752 157.83)"/><path style="fill:none;stroke:#000;stroke-width:1.41700006;stroke-linecap:round;stroke-linejoin:round;stroke-miterlimit:22.9260006;stroke-dasharray:none;stroke-opacity:1" d="m0 0 1.135-.258L1.338.83.474.867Z" transform="matrix(9.91298 0 0 -9.91298 545.14 210.576)"/><path style="fill:#fc0;fill-opacity:1;fill-rule:evenodd;stroke:none" d="m0 0 1.135-.258L1.338.83.474.867Z" transform="matrix(9.91298 0 0 -9.91298 545.14 210.576)"/><path style="fill:none;stroke:#000;stroke-width:1.41700006;stroke-linecap:round;stroke-linejoin:round;stroke-miterlimit:22.9260006;stroke-dasharray:none;stroke-opacity:1" d="m0 0 1.169-.269c.199.583-.011.631-.148 1.154C.23.79.346.689 0 0" transform="matrix(9.91298 0 0 -9.91298 226.773 210.682)"/><path style="fill:#fc0;fill-opacity:1;fill-rule:evenodd;stroke:none" d="m0 0 1.169-.269c.199.583-.011.631-.148 1.154C.23.79.346.689 0 0" transform="matrix(9.91298 0 0 -9.91298 226.773 210.682)"/><path style="fill:none;stroke:#000;stroke-width:1.41700006;stroke-linecap:round;stroke-linejoin:round;stroke-miterlimit:22.9260006;stroke-dasharray:none;stroke-opacity:1" d="m0 0 .986-.396C1.344.957.433.559.29.476-.027.291.076.355 0 0" transform="matrix(9.91298 0 0 -9.91298 203.071 163.56)"/><path style="fill:#fc0;fill-opacity:1;fill-rule:evenodd;stroke:none" d="m0 0 .986-.396C1.344.957.433.559.29.476-.027.291.076.355 0 0" transform="matrix(9.91298 0 0 -9.91298 203.071 163.56)"/><path style="fill:none;stroke:#000;stroke-width:1.41700006;stroke-linecap:round;stroke-linejoin:round;stroke-miterlimit:22.9260006;stroke-dasharray:none;stroke-opacity:1" d="M0 0c.208.229.114.108.302.469l-.86.273A4 4 0 0 1 0 0" transform="matrix(9.91298 0 0 -9.91298 598.857 149.852)"/><path style="fill:#fc0;fill-opacity:1;fill-rule:evenodd;stroke:none" d="M0 0c.208.229.114.108.302.469l-.86.273A4 4 0 0 1 0 0" transform="matrix(9.91298 0 0 -9.91298 598.857 149.852)"/><path style="fill:none;stroke:#000;stroke-width:1.41700006;stroke-linecap:round;stroke-linejoin:round;stroke-miterlimit:22.9260006;stroke-dasharray:none;stroke-opacity:1" d="M0 0c-.196.273-.092.294-.63.261C-.429-.05-.373-.207 0 0" transform="matrix(9.91298 0 0 -9.91298 361.512 179.846)"/><path style="fill:#fc0;fill-opacity:1;fill-rule:evenodd;stroke:none" d="M0 0c-.196.273-.092.294-.63.261C-.429-.05-.373-.207 0 0" transform="matrix(9.91298 0 0 -9.91298 361.512 179.846)"/><path style="fill:none;stroke:#000;stroke-width:1.41700006;stroke-linecap:round;stroke-linejoin:round;stroke-miterlimit:22.9260006;stroke-dasharray:none;stroke-opacity:1" d="M0 0h.459C.426.019.375.097.361.059Z" transform="matrix(9.91298 0 0 -9.91298 281.231 151.782)"/><path style="fill:#fc0;fill-opacity:1;fill-rule:evenodd;stroke:none" d="M0 0h.459C.426.019.375.097.361.059Z" transform="matrix(9.91298 0 0 -9.91298 281.231 151.782)"/><path style="fill:none;stroke:#000;stroke-width:.75;stroke-linecap:round;stroke-linejoin:round;stroke-miterlimit:22.9260006;stroke-dasharray:none;stroke-opacity:1" d="M0 0c.433-.014.963-.12 1.632-.371.825-.309.712-.458 1.568-.943.689-.389.998-.759 1.945-.933 4.004-.738 4.487 3.832 8.33 1.703 1.219-.676 2.076-1.705 3.748-1.771 2.075-.082 2.623.889 3.935 1.718 3.484 2.201 4.897-1.982 8.351-1.714 2.88.224 3.591 4.21 7.84 1.314l.613-.413c.339-.217.579-.335.968-.505 2.412-1.051 3.219-.097 4.659.73l.348.227c4.07 3.172 4.692-2.073 9.281-1.345 1.485.235 2.771 2.463 5.003 2.318.024-.001.047-.013.054-.002.168.262.356.742.429.982a3.5 3.5 0 0 1-.538.099c-3.767.201-3.476-4.634-9.054-1.12-.822.518-1.753 1.317-3.177 1.086-3.369-.549-3.598-4.163-8.031-1.295-4.785 3.098-5.174-.123-7.92-.91-3.454-.99-4.487 3.564-8.432 1.827-1.35-.594-2.137-1.801-3.764-1.955-1.837-.175-2.7.99-4.006 1.69-4.3 2.311-4.78-2.133-8.273-1.677-1.395.182-3.877 2.617-6.144 2.326C-.48.75 0 0 0 0" transform="matrix(9.91298 0 0 -9.91298 112.99 679.288)"/><path style="fill:#fff;fill-opacity:1;fill-rule:evenodd;stroke:none" d="M0 0c.433-.014.963-.12 1.632-.371.825-.309.712-.458 1.568-.943.689-.389.998-.759 1.945-.933 4.004-.738 4.487 3.832 8.33 1.703 1.219-.676 2.076-1.705 3.748-1.771 2.075-.082 2.623.889 3.935 1.718 3.484 2.201 4.897-1.982 8.351-1.714 2.88.224 3.591 4.21 7.84 1.314l.613-.413c.339-.217.579-.335.968-.505 2.412-1.051 3.219-.097 4.659.73l.348.227c4.07 3.172 4.692-2.073 9.281-1.345 1.485.235 2.771 2.463 5.003 2.318.024-.001.047-.013.054-.002.168.262.356.742.429.982a3.5 3.5 0 0 1-.538.099c-3.767.201-3.476-4.634-9.054-1.12-.822.518-1.753 1.317-3.177 1.086-3.369-.549-3.598-4.163-8.031-1.295-4.785 3.098-5.174-.123-7.92-.91-3.454-.99-4.487 3.564-8.432 1.827-1.35-.594-2.137-1.801-3.764-1.955-1.837-.175-2.7.99-4.006 1.69-4.3 2.311-4.78-2.133-8.273-1.677-1.395.182-3.877 2.617-6.144 2.326C-.48.75 0 0 0 0" transform="matrix(9.91298 0 0 -9.91298 112.99 679.288)"/><path style="fill:none;stroke:#000;stroke-width:.75;stroke-linecap:round;stroke-linejoin:round;stroke-miterlimit:22.9260006;stroke-dasharray:none;stroke-opacity:1" d="M0 0c3.906-.737 4.377 3.833 8.126 1.703 1.189-.675 2.025-1.705 3.656-1.771 2.024-.082 2.558.889 3.838 1.719 3.398 2.2 4.776-1.983 8.145-1.714 2.81.223 3.503 4.209 7.647 1.313l.598-.413c.332-.217.565-.335.945-.504 2.353-1.052 3.14-.097 4.545.729l.339.228C41.468 4.189 42.287.056 45.82-.119c0 0 .776.773.95 1.099-.879-.127-2.178.14-3.883 1.241-.802.518-1.711 1.318-3.099 1.086-3.287-.548-3.51-4.162-7.834-1.294-4.668 3.098-5.047-.124-7.725-.911-3.369-.99-4.377 3.565-8.225 1.828-1.317-.595-2.084-1.802-3.672-1.956-1.792-.175-2.633.99-3.907 1.691C4.231 4.975 3.762.531.355.988c-.588.079-1.375.579-2.257 1.097C-1.564 1.411-.857.741-.218.052-.165-.005-.074.014 0 0" transform="matrix(9.91298 0 0 -9.91298 175.209 759.138)"/><path style="fill:#fff;fill-opacity:1;fill-rule:evenodd;stroke:none" d="M0 0c3.906-.737 4.377 3.833 8.126 1.703 1.189-.675 2.025-1.705 3.656-1.771 2.024-.082 2.558.889 3.838 1.719 3.398 2.2 4.776-1.983 8.145-1.714 2.81.223 3.503 4.209 7.647 1.313l.598-.413c.332-.217.565-.335.945-.504 2.353-1.052 3.14-.097 4.545.729l.339.228C41.468 4.189 42.287.056 45.82-.119c0 0 .776.773.95 1.099-.879-.127-2.178.14-3.883 1.241-.802.518-1.711 1.318-3.099 1.086-3.287-.548-3.51-4.162-7.834-1.294-4.668 3.098-5.047-.124-7.725-.911-3.369-.99-4.377 3.565-8.225 1.828-1.317-.595-2.084-1.802-3.672-1.956-1.792-.175-2.633.99-3.907 1.691C4.231 4.975 3.762.531.355.988c-.588.079-1.375.579-2.257 1.097C-1.564 1.411-.857.741-.218.052-.165-.005-.074.014 0 0" transform="matrix(9.91298 0 0 -9.91298 175.209 759.138)"/><path style="fill:none;stroke:#000;stroke-width:.75;stroke-linecap:round;stroke-linejoin:round;stroke-miterlimit:22.9260006;stroke-dasharray:none;stroke-opacity:1" d="m0 0 .328-.808c.907 0 1.47 1.351 4.059.432.873-.309.753-.458 1.658-.943.729-.389 1.055-.759 2.056-.933 4.232-.737 4.742 3.833 8.804 1.703 1.289-.675 2.194-1.705 3.962-1.771 2.193-.082 2.772.889 4.159 1.718 3.682 2.201 5.176-1.982 8.826-1.714 3.044.224 3.795 4.21 8.286 1.314l.648-.413a6.6 6.6 0 0 1 1.024-.505c2.549-1.051 3.402-.096 4.924.73l.368.227c4.301 3.172 4.958-2.073 9.809-1.345 1.774.266 3.278 3.079 6.262 2.131.786-.249 1.312-.628 1.965-1.084.039.267.246.555.165.794-.342.994-2.733 1.534-3.162 1.556-3.982.201-3.674-4.634-9.57-1.12-.869.518-1.853 1.317-3.357 1.086C47.652.507 47.41-3.108 42.725-.24c-5.058 3.099-5.469-.123-8.371-.91-3.65-.99-4.742 3.565-8.912 1.827-1.427-.594-2.258-1.801-3.979-1.955-1.941-.175-2.853.99-4.233 1.691-4.545 2.31-5.053-2.134-8.745-1.677C6.584-1.029 2.771 2.954 0 0" transform="matrix(9.91296 0 0 -9.91298 67.018 568.767)"/><path style="fill:#fc0;fill-opacity:1;fill-rule:evenodd;stroke:none" d="m0 0 .328-.808c.907 0 1.47 1.351 4.059.432.873-.309.753-.458 1.658-.943.729-.389 1.055-.759 2.056-.933 4.232-.737 4.742 3.833 8.804 1.703 1.289-.675 2.194-1.705 3.962-1.771 2.193-.082 2.772.889 4.159 1.718 3.682 2.201 5.176-1.982 8.826-1.714 3.044.224 3.795 4.21 8.286 1.314l.648-.413a6.6 6.6 0 0 1 1.024-.505c2.549-1.051 3.402-.096 4.924.73l.368.227c4.301 3.172 4.958-2.073 9.809-1.345 1.774.266 3.278 3.079 6.262 2.131.786-.249 1.312-.628 1.965-1.084.039.267.246.555.165.794-.342.994-2.733 1.534-3.162 1.556-3.982.201-3.674-4.634-9.57-1.12-.869.518-1.853 1.317-3.357 1.086C47.652.507 47.41-3.108 42.725-.24c-5.058 3.099-5.469-.123-8.371-.91-3.65-.99-4.742 3.565-8.912 1.827-1.427-.594-2.258-1.801-3.979-1.955-1.941-.175-2.853.99-4.233 1.691-4.545 2.31-5.053-2.134-8.745-1.677C6.584-1.029 2.771 2.954 0 0" transform="matrix(9.91298 0 0 -9.91298 67.02 568.767)"/><path style="fill:none;stroke:#000;stroke-width:.75;stroke-linecap:round;stroke-linejoin:round;stroke-miterlimit:22.9260006;stroke-dasharray:none;stroke-opacity:1" d="m0 0-.028-.312c.018-.243.131-.416.143-.545.003-.038.003-.014.065.004.873.253 1.382 1.444 3.944.477.82-.309.708-.458 1.558-.943.685-.389.992-.759 1.933-.933 3.978-.738 4.458 3.833 8.276 1.703 1.211-.675 2.062-1.705 3.724-1.771 2.062-.082 2.605.889 3.91 1.718 3.46 2.201 4.864-1.982 8.296-1.714 2.861.224 3.567 4.21 7.789 1.314l.609-.413c.337-.217.575-.335.962-.505 2.397-1.051 3.199-.097 4.629.73l.345.227c4.044 3.172 4.662-2.073 9.221-1.345 1.668.266 3.081 3.079 5.887 2.131.738-.249 1.232-.628 1.847-1.084 1.02 1.499-2.317 2.323-2.818 2.35-3.743.201-3.453-4.634-8.995-1.12-.817.518-1.742 1.317-3.156 1.085-3.348-.548-3.576-4.162-7.979-1.294-4.755 3.098-5.141-.123-7.869-.91-3.431-.99-4.458 3.564-8.378 1.827-1.341-.594-2.122-1.801-3.739-1.956-1.826-.174-2.683.991-3.98 1.692-4.272 2.31-4.749-2.134-8.22-1.678C6.19-1.029 2.605 2.954 0 0" transform="matrix(9.91298 0 0 -9.91298 87.585 622.88)"/><path style="fill:#fff;fill-opacity:1;fill-rule:evenodd;stroke:none" d="m0 0-.028-.312c.018-.243.131-.416.143-.545.003-.038.003-.014.065.004.873.253 1.382 1.444 3.944.477.82-.309.708-.458 1.558-.943.685-.389.992-.759 1.933-.933 3.978-.738 4.458 3.833 8.276 1.703 1.211-.675 2.062-1.705 3.724-1.771 2.062-.082 2.605.889 3.91 1.718 3.46 2.201 4.864-1.982 8.296-1.714 2.861.224 3.567 4.21 7.789 1.314l.609-.413c.337-.217.575-.335.962-.505 2.397-1.051 3.199-.097 4.629.73l.345.227c4.044 3.172 4.662-2.073 9.221-1.345 1.668.266 3.081 3.079 5.887 2.131.738-.249 1.232-.628 1.847-1.084 1.02 1.499-2.317 2.323-2.818 2.35-3.743.201-3.453-4.634-8.995-1.12-.817.518-1.742 1.317-3.156 1.085-3.348-.548-3.576-4.162-7.979-1.294-4.755 3.098-5.141-.123-7.869-.91-3.431-.99-4.458 3.564-8.378 1.827-1.341-.594-2.122-1.801-3.739-1.956-1.826-.174-2.683.991-3.98 1.692-4.272 2.31-4.749-2.134-8.22-1.678C6.19-1.029 2.605 2.954 0 0" transform="matrix(9.91298 0 0 -9.91298 87.585 622.88)"/><path style="fill:none;stroke:#000;stroke-width:.75;stroke-linecap:round;stroke-linejoin:round;stroke-miterlimit:22.9260006;stroke-dasharray:none;stroke-opacity:1" d="M0 0c1.071.769 1.927 1.224 3.795.174 1.201-.675 2.046-1.705 3.694-1.771 2.045-.082 2.585.89 3.878 1.719 3.434 2.2 4.827-1.983 8.231-1.714 2.838.223 3.539 4.209 7.726 1.313l.605-.412c.334-.218.571-.336.954-.505 2.377-1.052 3.173-.098 4.592.728l.343.229c1.961 1.551 2.91 1.199 4.101.407.239.223.509.454.735.698-.787.517-1.521 1.134-2.867.912-3.321-.548-3.547-4.163-7.915-1.295-4.717 3.098-5.1-.123-7.806-.91-3.404-.99-4.422 3.565-8.311 1.828C10.425.806 9.65-.4 8.045-.555c-1.81-.175-2.661.99-3.947 1.691C1.577 2.51.554 1.619-.72.667-.46.46-.237.228 0 0" transform="matrix(9.91298 0 0 -9.91298 214.894 799.955)"/><path style="fill:#fff;fill-opacity:1;fill-rule:evenodd;stroke:none" d="M0 0c1.071.769 1.927 1.224 3.795.174 1.201-.675 2.046-1.705 3.694-1.771 2.045-.082 2.585.89 3.878 1.719 3.434 2.2 4.827-1.983 8.231-1.714 2.838.223 3.539 4.209 7.726 1.313l.605-.412c.334-.218.571-.336.954-.505 2.377-1.052 3.173-.098 4.592.728l.343.229c1.961 1.551 2.91 1.199 4.101.407.239.223.509.454.735.698-.787.517-1.521 1.134-2.867.912-3.321-.548-3.547-4.163-7.915-1.295-4.717 3.098-5.1-.123-7.806-.91-3.404-.99-4.422 3.565-8.311 1.828C10.425.806 9.65-.4 8.045-.555c-1.81-.175-2.661.99-3.947 1.691C1.577 2.51.554 1.619-.72.667-.46.46-.237.228 0 0" transform="matrix(9.91298 0 0 -9.91298 214.894 799.955)"/><path style="fill:none;stroke:#000;stroke-width:.75;stroke-linecap:round;stroke-linejoin:round;stroke-miterlimit:22.9260006;stroke-dasharray:none;stroke-opacity:1" d="M0 0c.132.085.109.074.238.167.355.254.714.535 1.155.8 3.659 2.2 5.143-1.983 8.77-1.714 3.025.223 3.772 4.21 8.234 1.313l.645-.412c.071-.044.037-.024.101-.061.389.179.671.393 1.054.585-.23.093-.268.12-.525.255q-.328.173-.691.396c-5.026 3.098-5.434-.123-8.318-.911-3.628-.99-4.713 3.565-8.857 1.828C.941 1.883.296 1.293-.463.852-.73.698-.744.659-1.055.557-.666.365-.391.181 0 0" transform="matrix(9.91298 0 0 -9.91298 307.795 868.897)"/><path style="fill:#fff;fill-opacity:1;fill-rule:evenodd;stroke:none" d="M0 0c.132.085.109.074.238.167.355.254.714.535 1.155.8 3.659 2.2 5.143-1.983 8.77-1.714 3.025.223 3.772 4.21 8.234 1.313l.645-.412c.071-.044.037-.024.101-.061.389.179.671.393 1.054.585-.23.093-.268.12-.525.255q-.328.173-.691.396c-5.026 3.098-5.434-.123-8.318-.911-3.628-.99-4.713 3.565-8.857 1.828C.941 1.883.296 1.293-.463.852-.73.698-.744.659-1.055.557-.666.365-.391.181 0 0" transform="matrix(9.91298 0 0 -9.91298 307.795 868.897)"/><path style="fill:#000;fill-opacity:1;fill-rule:evenodd;stroke:none" d="M0 0h-74.813v-43.548c0-.272-.011-.543-.01-.816.005-.749.039-1.5.091-2.247a49 49 0 0 1 1.202-7.818c1.91-8.101 5.744-15.56 11.504-21.605 5.02-5.267 10.919-10.162 17.413-13.511 1.705-.879 3.49-1.674 5.311-2.282a18 18 0 0 1 1.894-.541c.63.132 1.291.34 1.894.541 1.822.608 3.607 1.403 5.312 2.282 6.494 3.349 12.394 8.244 17.413 13.511 5.762 6.045 9.595 13.504 11.506 21.605a49 49 0 0 1 1.202 7.818c.052.747.086 1.498.091 2.247.002.273-.01.544-.01.816Zm-.599-.599h-73.615v-42.949c0-.271-.011-.542-.01-.813.005-.737.038-1.474.09-2.209.18-2.598.589-5.187 1.187-7.721 1.886-7.999 5.671-15.366 11.355-21.33 4.988-5.233 10.808-10.068 17.254-13.392 1.683-.868 3.428-1.646 5.225-2.246a17 17 0 0 1 1.706-.496c.575.128 1.146.31 1.704.496 1.798.6 3.543 1.378 5.226 2.246 6.447 3.324 12.267 8.159 17.255 13.392 5.684 5.964 9.47 13.331 11.356 21.33A48 48 0 0 1-.679-46.57c.052.736.085 1.472.09 2.209.001.271-.01.542-.01.813z" transform="matrix(9.91298 0 0 -9.91298 772.543 21.587)"/><path style="fill:#000;fill-opacity:1;fill-rule:evenodd;stroke:none" d="M0 0c.711.168.772.109.855.845C.182.764.022.716 0 0" transform="matrix(9.91298 0 0 -9.91298 139.848 403.027)"/><path style="fill:#024a9c;fill-opacity:1;fill-rule:evenodd;stroke:none" d="M0 0c.017-.017.051.075.051.051C.047.047-.017.017 0 0" transform="matrix(9.91298 0 0 -9.91298 165.332 396.52)"/><path style="fill:#fff;fill-opacity:1;fill-rule:evenodd;stroke:none" d="m0 0-.017-.159-.194-.145c-.241.016-.171.069-.191-.181l.191.181c.25-.035.196-.096.194.145.22.12.204.106.528.205L.148.514-.218.355l.444.007C.178.302.076.099 0 0m-.557-.32.186.182c-.248.005-.186.066-.186-.182" transform="matrix(9.91298 0 0 -9.91298 366.866 295.121)"/><path style="fill:#000;fill-opacity:1;fill-rule:evenodd;stroke:none" d="m0 0 .3.374-.279-.19Z" transform="matrix(9.91298 0 0 -9.91298 668.184 357.733)"/><path style="fill:#fff;fill-opacity:1;fill-rule:evenodd;stroke:none" d="M0 0c.976.11.769.203 1.349.77l1.74 1.516c-.931-.393-.917-.624-1.647-1.117C.905.807.416.506 0 0" transform="matrix(9.91298 0 0 -9.91298 312.83 324.632)"/><path style="fill:#fff;fill-opacity:1;fill-rule:evenodd;stroke:none" d="M0 0c.748-.369.551-.033.694.058C-.297.346.157.126 0 0" transform="matrix(9.91298 0 0 -9.91298 116.6 433.746)"/><path style="fill:#fff;fill-opacity:1;fill-rule:evenodd;stroke:none" d="M0 0c.074-.759.064-.459.463-.743C.24-.199.421-.462 0 0" transform="matrix(9.91298 0 0 -9.91298 130.069 435.864)"/><path style="fill:#fff;fill-opacity:1;fill-rule:evenodd;stroke:none" d="M0 0c-.276.115-.237.194-.214-.088l.016-.2.169.211zl.21-.003.157.398-.519.087C.028.217-.116.446 0 0m.489.253L.27.077C.55.059.489-.012.489.253" transform="matrix(9.91298 0 0 -9.91298 404.29 329.584)"/><path style="fill:#000;fill-opacity:1;fill-rule:evenodd;stroke:none" d="M0 0c1.276-.207 1.801.525 1.64 1.711C-.522 4.161-2.271.369 0 0" transform="matrix(9.91298 0 0 -9.91298 165.486 408.49)"/><path style="fill:#000;fill-opacity:1;fill-rule:evenodd;stroke:none" d="m0 0 .021.184c-.811-.209-1.208-.472-1.756-.69-.508-.202-1.067-.456-1.56-.662-.541-.228-1.015-.489-1.501-.716-1.475-.691-1.219-.38-1.131-.915l.23-.028c.356.054.82.41 1.211.634C-3.493-1.624-.857-.281 0 0" transform="matrix(9.91298 0 0 -9.91298 668.184 357.733)"/><path style="fill:#000;fill-opacity:1;fill-rule:evenodd;stroke:none" d="m0 0 1.24-.047-.808.222-.404.132C-.522.289-.871.378-1.43.469c-.618.101-.922.3-1.115-.209Z" transform="matrix(9.91298 0 0 -9.91298 637.981 416.682)"/><path style="fill:#fdfdfd;fill-opacity:1;fill-rule:evenodd;stroke:none" d="M0 0c1.145-2.196 2.469-3.719.769-5.982.188 2.572.514 2.984-.238 4.723L-.095-.182zm8.822-7.175c-.448-.195-.504-.14-1.069-.233-1.069-.174-2.384-.068-2.933-.275l3.846.054-1.455-.866-1.34-.046-1.009.462 4.991 1.113-1.263.373-5.373-.031c2.579-.528 3.386-.097 6.142.033-1.198-.611-2.024-.141-3.045-.615Zm17.623.1 2.623-1.009c.257.341 1.591 1.917 1.634 2.125-.643.269-1.324.195-1.922-.16l.096-.233c-1.257.198-.56.156-.857-.052l1.522-.528c-2.655.356-1.751.765-2.328.24l1.909-.747c-2.36.443-1.877.594-2.172.658-.573.125-.501-.29-.505-.294m2.464-1.657.1.493-1.677.503c-1.6.515-.545.49-1.316.646.672-.823 1.068-.861 2.286-1.472l-.096-.131c-.704.029-1.819.702-2.532.99l2.837-1.836-3.501 1.634c.54.339.585.276.785.634l-1.39-.524 4.288-1.981.021.465zm-16.767-.543c1.994-.981 6.099-1.047 8.154-.76-2.118 1.301-2.975 2.256-5.232 2.01-.594-.065-1.455-.367-1.942-.258l3.829.063-1.997-.441 3.785-.237c-.495-.188-.348-.165-.931-.197-3.254-.179-3.56.105-6.241.448 3.257-.63 4.223-.931 7.684-.959-.692-.356-1.005-.272-1.96-.245-.625.017-1.261.063-1.885.107-1.381.099-2.136.349-3.264.469m9.375 2.488.491-.031.139-.135.229-.034.664-.011.175-.007.823.844-1.115 1.526-.419-.435c-.122-.179-.163-.288-.331-.516-.279-.378-.522-.677-.9-.908zm19.629 4.87.734.043c-.17-.227.486-.178-.408-.195a74 74 0 0 0-2.434-.7c.495.824.176.378 2.108.852M39.602 1.23c-.078-.034-1.897-1.485-2.222-1.714.473-.13.76-1.069 1.133-1.766.197-1.224-.231-2.021-.605-2.863-.272.047-.222.112-.191-.151-.31.069-.254.152-.254-.134-.48-.099-.504-.084-.863-.479l2.022-.847c-1.096.734-.646-.133-1.154.745 1.252.177.692.215 1.925-.282 1.212-.489 4.942-1.999 5.846-2.615-1.47.496-5.69 2.11-6.605 2.183 1.707-.847 4.959-2.504 6.661-2.89.995-.225.82.102.874.141l-.837 3.145-.23-.019c-.506-.077-.782.019-1.208.295l1.193-.217c-.705 1.334-2.344 1.521-2.843 3.162l-.824-.096c-.734-.051-1.914-.221-2.422.07.849.361.877.097 2.299.142l.743-.021c.327.463.16.454.525.902l.199.093 1.099 1.499c.227.335.098.084.221.469l-3.757-1.361c-.287-.003-.23.077-.23-.184l-.195.038-.194-.148-.058-.084c-.372-.032-.308.082-.308-.228l-.034.069-.6.089c.533.819 4.956 2.054 5.551 1.755.524 1.454.938 2.078.796 3.43-.103.975-.409.826-.509.893zm-1.574-6.331 3.436-.934.221-.153c.999-.243 3.311-1.024 4.041-1.489L37.99-5.683zm3.756-.546c-.161.081.16-.002-.412.176-.05.016-.35.078-.426.094-.283.061-.564.116-.845.177-1.785.387-1.266.137-1.49.561 1.087.106 1.477-.117 2.861-.533.637-.126 2.011-.444 2.422-.849zm-.368 1.364-2.545.26c.193.509.497.31 1.115.21.56-.092.909-.181 1.458-.163l.404-.133.809-.221zm3.069 6.13.278.19-.3-.373C43.606 1.383 40.97.039 39.977-.53c-.39-.223-.855-.58-1.211-.634l-.23.028c-.088.536-.344.224 1.131.915.486.228.96.489 1.501.716.493.207 1.052.461 1.56.663.548.218.945.481 1.757.689M26.627-3.357c.125-.137.439.02-.099-.602-.317-.366-.161-.011-.512-.54l.034-.481.408-1.023c.478.15.291.23.86.303l.094.306c.445.734.187-.034.613 1.237-1.428 1.641-.782.589-1.167.959l-.173.743c.475-.263-.038-.446.766.251l-.172-.413c-.067-.723-.086-.457.843-1.656l1.395 1c-.013.382-.026.659-.294 1.004-.188.242-.177.144-.267.205l-.055.293.32-.178c.052-.511-.099-.095.124-.52.086-.164.311-.377.347-.416.176.277.154.192.25.623l.022.122.363.517.216.097-.153-.1-.014-.275c-.152-.159-.494-.833-.506-1.376a9 9 0 0 1 .105-.778c.132-.438.194-.407.576-.704.233.442.126.235.213.634l.656.471c-.082.71-.435 1.234-.642 2.137l.133.079c.224-.807.262-1.156.717-1.797 1.485.342 1.155 1.947.171 2.887-.385-.35-.55-.467-.866-.891a.5.5 0 0 0-.188-.081l-.096.024c-.018.004-.066.038-.098.058-.095.445-.257.869-.619 1.246l-.228.189-.988-1.213.174-.773-.505.416c-.534-.444-.287-.142-.692-.807-.364.56-.323-.062.533.955L27.064.774l-.504-.53c-.607-.888-.457-.636.125-2.699-.565.513-.281.504-.86 1.236l-1.25-1.372c.822-.831.722-.798 1.39-1.789.743.622.596.368.662 1.023m.856-2.375.638.026.444.215-.531.693c-.291-.282-.336-.295-.551-.934m1.219.231c.746.024 1.026-.055 1.446.464l.559-.06-.007-.149c.424.069.517-.033.83-.019l.76-.004c.175.219.192-.051.05.343.21.761-.33-.642 1.053 1.14l-.57 1.169c-.412-.254-.753-.61-1.065-.998l.551-1.09c-.55.595-.25.467-.852.991-.331-.364-.372-.435-.721-.821-.217-.188-.047.15-.301-.324-.134-.235-.021-.222-.149.026l-.732 1.452c-.141-.365.052-.28-.571-.68-.317-.203-.026.035-.389-.262l-.318-.286c.024-.04.341-.717.426-.892m3.892.22.059.052.213-.056 1.547-.118-.224.604c.03-.03.064-.044.082-.099.078-.245.456-.275.687-.322l.406.752-.664 1.415c-.034-.026-.087-.021-.102-.078l-.366-.355c-.037-.037-.145-.144-.18-.181l-.259-.289-.287-.103c-.646-.334-.7-.588-.853-1.17l-.079-.022zm4.809.807c.493.044.234-.48.627.434.125.29.137.585.163.884-.146 1.242-.519 1.776-1.072 2.43l-.84-.207-.388-.279c.547-.767.164-.989.869-1.833.289.315.354.485.716 1.014l.174.251.18-.093-.275-.036c-.177-.661-.132-.462-.419-.924-.209-.336-.281-.29-.17-.847l-.129-.34c-.087.507-.363.883-.543 1.327-.321.788-.143.756-.566 1.443l-.949-1.277.822-1.765.824.886c.349-.449.089.135-.684-1.062l.426-.882c.008-.019.023-.068.036-.101.259.103.531.179.826.366.499.318.506.082.372.611m-13.195-2.31-.09.378-.589-.51c-.011-.015-.033-.059-.052-.087zm.229.106c.842.008 1.438.277 2.031.565l-.101.231-.542.954c-.331-.143-.698-.511-1.041-.882l-.152-.2c-.042.036-.131.136-.139.09-.21.247-.138-.029.557.532l.636.552c-.082.96-.563 1.392-1.141 2.145-.605-.259-.665-.395-1.115-.91l.692 1.2c-.153.242-.014.03-.206.301l-1.02 1.702c-1.016-1.921-1.444-2.388-2.854-4.058.023-.034.058-.044.066-.102l.155-.353c.368-.983.338-.976 1.01-1.583.309.688.687.511 1.65 2.56.076-.136.061-.11.12-.285.181-.534.06-.216.366-.609l.783-1.088c.336-.413.163-.124.245-.762m-5.853-.434.303-.054c.855-.264.709-.279 1.69-.203.099.189.131.434.341.527l.361-.016c-.545.611-.797.861-1.121 1.697l-.307.657c-.442-.239-.335-.182-.732-.593l-.91-1.194c.109-.472.149-.467.375-.821m2.334-.108.236-.075c-.454.554-.185.266-.236.075m-5.689.226c.536-.158.402-.328 1.038-.511l.854.468c1.029.451.396.09.809.739.337.528-.354-.431.228.266l1.651 1.905c-.063.509-.256.93-.496 1.336-.37.626-.425.743-.894.985l-.817-.767c-1.069-1.111-.719-1.102.196-3.594-.572.549-.669 1.042-1.01 1.904L15.1-6.178Zm2.344-.434.903.324-.265.449c-.08-.047-.327-.165-.396-.217-.418-.313-.196-.149-.453-.45zm-5.814.742-.071.101c-.331.399-.168.457-.432.301-.359-.21-.287-.557-.343-.743.514-.331.11-.183.84-.194l.205.492.217-.129c.029-.017.08-.043.112-.061.042-.024.173-.097.216-.123.277-.166.26-.178.521-.312l.706.275c.387.713 1.289 1.093 1.904 1.702l1.108 1.32-1.527 2.68-1.491-2.067 1.178-2.377c-.024.032-.061.119-.07.096-.024-.069-.004.431-1.28 2.197-.354-.131-.334-.067-.722-.405a2.7 2.7 0 0 1-.623-.738c-.34-.547-.677-.972-.448-2.015m2.128-.376c.258.129.196.173.196-.113.573-.227.789-.45 1.017.309l-.369.511c-.339-.239-.496-.33-.844-.707m-4.957.873.9-.148c.422-.209.043.008.365-.274.325-.285-.051-.003.269-.234l.283.124c.899 1.203.726 1.128-.521 3.334l-.282-.175-1.472-1.759ZM3.281-3.355c.167-1.636.162-1.349-.298-2.724l.034-.052c.922-.046.417.126 1.336-.019l4.421-.014-.34.629c-.286-.16-.051.001-.296-.19l.041.369C7.28-4.331 7.136-3.818 6.887-3.27l-.056.12-.123.208C5.136-4.13 5.487-4.32 5.686-6.018l-.723.889-.641-.922c-.397.425-.263.12.203.55.545.503.465.896.152 1.553-.524 1.1-.532.964-1.35 1.348zm-.307 1.709.166-.943.374.147c-.237.823-.162.266-.418.625-.219.643.122.12-.122.171M2.529-.299l.401-.855.714-.921L5.158.14c-.178.272-.399.543-.623.904l-.558.981C2.937.676 3.182.176 2.529-.299m-.313 3.618c-.234-.423-.147-.186-.421-.491-.135-.149-.38-.728-.409-.678l-.116.186.737.707c.055.274-.031.221.23.192l.55 1.02c-.358.222-.308.298-.775.304-.889-.112-1.765-.405-2.419-.812.93-.97 2.698-2.422 2.76-3.877.582.293.076-.314.524.513.573 1.059.168.506 1.14 1.976-.292.983-.555 1.036-1.295 1.633Zm.891 1.43-.485-.014c.069-.193.085-.323.165-.48.034.015.303.17.316.188.221.297.188.044.004.306m2.243.143-1.317.02-.901-.675c.195-.653.772-1.224 1.232-1.738.638 1.488 1.343 1.061.986 2.393m.469.021-.277-.021c-.03-.377-.151-.341.142-.31.16.15.072-.043.135.331m2.639-.102-.831-.085-1.431.062c-.597-.647-.398-1.226.372-2.064l.674-.511c.413 1.016.9 1.394 1.616 2.103-.043.052-.091.209-.113.167Zm3.683-.58-2.891.428.012-.575c-.028.028-.07.122-.082.088-.009-.026-.117.117-.168.127-.461.097-1.505-1.892-1.758-2.315.324-.186.144-.015.427-.366.44-.549.562-1.016.846-1.711.672.627.373.572.922 1.091.468.444.501.443.875 1.02l-.9 1.87c.666-1.167-.132-.266 1.24-1.836l.809 1.011c.331.434.541.648.668 1.168m3.141-.442-1.918.323-.686-.02 1.061-2.334c-.028.044-.071.157-.083.13l-.233.524c-.275.629-.598.926-1.082 1.521L10.689 1.83c.837-.496 1.03-1.239 1.481-2.214.032.025.084.104.098.075.114-.241 1.404 1.938 1.77 2.338zm-2.778.466c.125-.229-.075-.416.251.051Zm6.429-1.117c-.382-.237-.246-.192-.554-.685-.304-.487-.329-.805-.519-.689a.2.2 0 0 1-.031.097l.876 1.411-3.011.447-.281-.258c-.299-.358-.429-.469-.744-.864-.145-.181-.177-.217-.308-.381-.145-.18-.262-.294-.348-.494-.237-.548-.03-1.295.319-1.803l.421-.417c-.311-.38-.184-.406-1.213 1.59-.205-.562-.656-1.001-1.057-1.451-.455-.51-.294-1.045-.011-1.589l.753-.976c-.031-.028-.068-.054-.075-.099-.349-.203-1.203 1.842-1.331 2.12l-1.537-1.836c1.065 1.375 2.099 1.908 1.181 3.54-.296.527-.574.672-1.051.971l-.578-.505c-.024-.023-.245-.21-.264-.23-.2-.218-.202-.288-.342-.515-.306-.498-.904-.877-.838-1.269.067-.396.802-.811 1.05-1.84-.493.396-.751 1.123-1.14 1.605l-.727-1.123c-.226.244-.227.092.028.327l.179.173c1.112 1.232.161 2.334-.526 3.589-.371-.232-.608-.488-.843-.902-.039.042-.13.149-.137.104-.164.249.089.231.319.439l.405.398-1.255 2.039c-.49-.383-1.152-1.111-1.366-1.703-.278-.773.42-1.565.966-2.012l.52.649C6.165.711 5.765.566 5.52.14l1.187-2.197c-.508.647-.712 1.463-1.364 1.989L3.947-2.461c.123-.196.053-.082.199-.294.124-.181.212-.29.345-.504l.733-1.273 1.483 2.475.359-.261c.661-.108-.407-.028.139.039l.187.03-.419-.512 1.271-2.375c.491.257.95.802 1.267 1.276l.387.586-.458.687c.036-.029.082-.039.098-.096l.292-.216c.668-.134-.377-.111.213.015l.239.145c-.151-.751.166-.802.494-1.235l.633-1.417c.168.137.196.127.34.302l.715.853c.383.33.578.643.777 1.132.794-.28 1.372 1.087 1.789 1.655l-.302.702.596-.218c.55.624.818 1.545 1.621 1.906l-.849 1.352c.279-.245.235-.259.434-.519l.646-.523.798-1.768c-.305.367-.412.789-1.029 1.458l-.363-.434c-.433-.466-.857-1.171-1.216-1.732l1.352-2.37 1.644 2.028.066.119c.396.173.203-.007.614.363.513.462.823 1.129 1.153 1.737-.222.463-.405.697-.642 1.207-.249.537-.317.738-.62 1.279m2.468-.261-2.155.254L20.28.872l.611.727-.335-.947.836-1.511c-.366.347-.594.858-.864 1.341-.545-.538-.362-.633-1.82-1.982.018-.044.042-.064.053-.131l.252-.456c.668-1.042.484-.773 1.033-2.003.988.702 1.563 1.661 1.637 2.441.033.344-.327.328-.291.79l.563-.752c.522 1.5 1.828 1.193.214 3.366l-.44.564c-.383-.211-.231-.015-.65-.731-.03.039-.104.139-.109.099-.152.281-.105.067.199.381Zm3.099-.689-2.624.508L23.262.008c.027.024.071.099.082.072l1.333 1.319zm2.129-.561-1.478.414-.375-.108c.455-.589.385-.523.699-1.201-.03.035-.078.135-.092.105-.013-.028-.068.083-.086.105l-.509.512L23.262.008c.065-1.036.411-1.894 1.26-2.373l1.255 1.364-.324 1.785c.174-.208.18.203.489-1.039.542.531.607.757 1.036 1.439-.024.025-.064.099-.073.075s-.062.064-.073.079zm2.793-.8-2.453.66c.196-.346-.05-.03.399-.342-.018-.034-.342.399-.062-.522l.995-1.66c.837.214 1.055.734 1.349 1.512-.062.08-.162.255-.228.352m2.203-.865-1.363.539c-.526-.352-.182-.238.452-1.519.524.266.754.458.911.98m1.571-1.647.282.485-.197-.367c-.279-.804-.41-1.154.395-2.133l.827.744c.016.842-.289 1.438-.997 1.773l.046-.041.018.598-.37.125-.917.093-.016-.134c.21-.631.381-.726.581-1.429.245.161.117.037.348.286m.558.894.077-.215.856-1.223.945 1.321zm1.188-4.779.647.088.45-.002-.463.852c-.554-.386-.437-.231-.634-.938m-4.164 4.053-.235-.009M-1.416-5.768c1.178 2.339-.108 3.708-.387 4.755l1.111-2.313c.191-1.143-.058-2.071-.724-2.442m-3.192 4.023c.161-1.187-.364-1.919-1.64-1.712-2.271.369-.522 4.162 1.64 1.712m-4.226-1.161c.022.716.182.765.855.845-.083-.735-.144-.677-.855-.845m19.492-5.988c.491 1.577 1.875.509 3.528 1.183-1.786.157-.684-.123-1.861.31-.35.129-.398-.142-.84-.169-.597-.036-.521.165-1.021.375-2.107-1.596-1.171-1.107-3.526-1.438-1.676-.236-2.408.243-3.855.706-1.379.442-3.263.291-4.233.707-1.313.565-3.455-.22-4.354.362l2.619.219c1.58.147 1.15-.1 2.273-.38 1.617-.403 1.247.37 4.92-.913-.842.677-.752.662-1.729 1.151.36 3.169.595 2.986-.298 6.082C1.826.88.401 2.619-.802 3.543L-6.256.297l-4.728-3.927 2.566-2.337c-.092-.306-.156-.379-.1-.568C-1.847-7.99-1.136-8.519 5.471-8.797c1.422-.059 3.49-.125 5.187-.097" transform="matrix(9.91298 0 0 -9.91298 227.42 374.227)"/><path style="fill:#fdfdfd;fill-opacity:1;fill-rule:evenodd;stroke:none" d="M0 0c-.324-.099-.308-.085-.528-.205.002-.241.056-.18-.194-.145l-.191-.181-2.94-2.625c.756-.166 2.252 1.147 3.385 1.905.146-.265-.32-.368-1.089-.999l-1.171-1.064 1.043-.127c.363.421.934.734 1.536 1.174.464-.455-.49-.204-1.165-1.169l2.101.469c-.378-.283-.399-.259-.678-.73l1.596.239-.356-.474c1.4-.252.654-.128 1.702.322-.024.281-.063.203.213.088-.116.446.028.216-.152.482-.923-.06-.585.039-1.407-.418l.493.449C-.116-2.627-.118-2.394 0 0m16.659-7.416c.008-.009.033-.047.044-.057l.728-.298c-.401.801-.281.361-.605.709-.023.024-.051.104-.074.131-.398.459-.517.292-1.106.551-.559.245-.613.252-1.251.461-1.518.497-1.062.594-1.972-.078l1.89-.011-.549-.458 1.899-.06-.418-.501 1.293-.189zM3.753-3.269c0-.266.061-.194-.219-.176l-.06-.08-.239-.074-.169-.212c-.523-.321-.187-.073-.397-.361l1.409.221.106-.229c.073-.165-.042-.022.1-.211l2.525-.076 2.902-.536-.105-.396 1.962.245-.548-.591 1.838.16c-.421.327-.301.291-.781.414-1.311.335-1.385.56-2.025.205l-.01.092.006.051c.011.225.095-.14.004.168-1.245.309-.833.36-1.706-.154l.541.485c-1.823.339-.97.174-1.91-.138l.489.431c-1.936.238-.875.239-2.198-.436.547.651.311.314.701.678-1.08.335-.659.373-1.723-.167l.546.493z" transform="matrix(9.91298 0 0 -9.91298 371.932 294.67)"/><path style="fill:#fdfdfd;fill-opacity:1;fill-rule:evenodd;stroke:none" d="M0 0c0 .248-.062.187.186.182L.557.32c.076.099.178.302.227.363L.339.675C-.881.458-2.844-1.676-3.815-2.641c.616-.093.586.132 1.866 1.203C-1.264-.865-.741-.456 0 0" transform="matrix(9.91298 0 0 -9.91298 361.342 298.295)"/><path style="fill:#fdfdfd;fill-opacity:1;fill-rule:evenodd;stroke:none" d="m0 0-.272.156-.218.041-.229-.133-.267-.177c-1.332-.399-.952-.23-2.143-.04-.707.114-.488-.138-1.153-.138-.573-.001-.209.193-.952.067 3.342-.319 4.575-.703 7.974.55z" transform="matrix(9.91298 0 0 -9.91298 446.343 447.632)"/><path style="fill:#fdfdfd;fill-opacity:1;fill-rule:evenodd;stroke:none" d="M0 0c-.508.262-.111-.113-.481.395-.034.731.016.338.146.499.175.205-.019.104.266.261.314.173.166.043.419.067.467-.238.182-.096.331-.334.12-.174.158.238.185-.572C.453-.008.513-.117 0 0m-.824.736C-.756-.462-.134-.431.927-.157 1.698 1.53.005 2.172-.824.736" transform="matrix(9.91298 0 0 -9.91298 166.94 402.127)"/><path style="fill:#fdfdfd;fill-opacity:1;fill-rule:evenodd;stroke:none" d="M0 0c-.109-.816.503-1.099 1.392-1.724C.632-.62.54-.065 0 0" transform="matrix(9.91298 0 0 -9.91298 112.046 412.544)"/><path style="fill:#000;fill-opacity:1;fill-rule:evenodd;stroke:none" d="M0 0c.055-.014-.165-.082.133.013.014.004.085.014.096.055.014.051.074.054.112.08C.392.34.123.628.577.074c.272.2.22-.418.234.266l.207-.179L.789.027C.464.039.522.132.522-.149l.267.176.229.134.217-.041.273-.156c.736.474.386.092.955.407l-.664.011L1.235.12l.336.296-.14.134-.267-.347L.94.581.696.875c.379.23.621.53.9.907.169.228.209.338.332.517l.418.435 1.115-1.526-.823-.845.262.003c.019.028.041.072.052.087l.59.51.089-.379.229.106c-.082.639.091.35-.245.763l-.782 1.088c-.307.393-.186.075-.367.609-.059.174-.044.149-.12.285C1.383 1.386 1.005 1.562.696.875c-.672.607-.642.6-1.01 1.583l-.154.353c-.008.058-.044.068-.067.102L1.34 5.132c.216-.818.272-1.41.811-1.895L1.504 5.43l.816 1.54 1.019-1.702c.192-.27.054-.058.206-.3l-.692-1.201c.45.516.51.652 1.115.911.578-.754 1.059-1.185 1.141-2.146l-.635-.552c-.695-.56-.767-.284-.558-.531.008.045.097-.054.139-.091l.152.2c.343.372.71.74 1.041.883l.542-.954.092-.122-.409 1.024-.033.481c.35.528.195.174.512.54.537.622.223.465.098.602-.066-.655.081-.401-.662-1.024-.668.992-.567.959-1.39 1.79l1.25 1.371c.579-.732.295-.723.861-1.235-.583 2.063-.733 1.811-.126 2.698l.504.531 1.162-2c-.855-1.017-.897-.395-.533-.954.405.665.158.363.692.807l.505-.417-.174.773.989 1.214.227-.19c.362-.376.525-.8.62-1.245.031-.021.079-.054.097-.058l.096-.024a.5.5 0 0 1 .188.081c.317.424.481.541.866.891.984-.94 1.314-2.545-.171-2.887-.455.641-.493.99-.717 1.796l-.132-.078c.206-.903.559-1.427.641-2.137l-.655-.471c-.088-.399.019-.192-.214-.634-.382.297-.443.266-.575.703-.024.08-.107.715-.105.778.011.543.353 1.218.505 1.377l.014.275.153.099-.215-.096-.364-.517-.022-.122c-.096-.431-.074-.346-.25-.623-.035.038-.261.251-.346.416-.223.425-.073.009-.125.519l-.319.179.054-.293c.09-.061.079.037.267-.205.268-.345.281-.622.294-1.004L7.545 3.095c-.929 1.2-.909.934-.843 1.657l.173.413c-.805-.697-.292-.514-.766-.251l.172-.744c.386-.37-.26.683 1.167-.958-.426-1.271-.168-.504-.612-1.237l-.095-.306.166-.033c.215.639.26.653.55.935l.532-.693-.445-.215c.798.037.321.073.445.215l.136-.011c-.084.175-.402.852-.426.893l.318.285c.363.298.073.06.389.263.624.4.43.315.571.679l.732-1.451.15-.026c.254.473.083.136.3.324.349.386.391.456.722.821.601-.524.301-.396.852-.992l-.552 1.091c.312.387.653.744 1.065.997l.57-1.168c-1.383-1.782-.842-.38-1.053-1.14.143-.395.125-.125-.049-.343l.284.017.078.023-.059-.052.272-.004-.213.056c.153.581.207.835.853 1.17l.287.103.26.289c.034.036.143.144.179.181l.367.355c.014.056.067.052.102.078l.663-1.415-.406-.752c-.231.047-.609.076-.687.322-.017.055-.051.068-.081.099l.224-.604c.552-.262.1-.088.528-.168.197.707.08.553.634.939l.463-.852-.45.001.302-.154.314.186c-.013.033-.027.082-.036.1l-.426.883c.773 1.197 1.033.613.684 1.062l-.829-.878-.816 1.757.943 1.285c.423-.687.25-.664.571-1.451.18-.444.456-.82.544-1.327l.128.34c-.111.556-.039.51.171.847.287.461.241.263.419.924l-.08-.122c-.362-.529-.427-.699-.715-1.014-.706.844-.323 1.066-.869 1.833l.387.279c-.534.259-.438.078-1.237.234-1.942.379-1.113.119-1.29-.092l1.878-.117-.944-1.322-.857 1.224a.7.7 0 0 1-.074.18c-.01.019-.072.04-.082.098-.01.066-.071.067-.105.102l-.37.124.37-.124-.018-.599-.045.042c.708-.336 1.012-.931.997-1.773l-.827-.744c-.806.978-.675 1.328-.396 2.133l-.085-.119c-.23-.249-.103-.124-.348-.285-.2.703-.371.798-.58 1.429l.015.133-.657.371c-.158-.523-.388-.714-.912-.981-.634 1.281-.978 1.168-.452 1.52l-.168.059-.671.266c.065-.096.165-.271.228-.351-.294-.778-.513-1.298-1.35-1.512l-.995 1.66c-.279.92.044.487.063.522-.449.312-.203-.004-.4.342l-.34.14.203-.289c.012-.015.064-.104.073-.079s.049-.05.074-.075c-.43-.682-.494-.908-1.036-1.439-.31 1.242-.316.831-.489 1.039l.324-1.785-1.256-1.365c-.849.48-1.194 1.338-1.26 2.374l1.526 1.445.509-.511c.018-.022.073-.133.086-.105.014.029.062-.07.092-.105-.314.678-.243.612-.698 1.2l.375.109-.651.146.177-.788-1.333-1.319c-.012.027-.055-.048-.083-.072L1.3 10.065l-.476.181-.232-.81c-.304-.313-.351-.1-.199-.38.005.04.08-.061.11-.099.418.716.267.52.649.731l.44-.564c1.614-2.173.308-1.866-.214-3.366l-.562.752c-.038-.486.327-.434.29-.79-.079-.754-.67-1.755-1.637-2.441-.549 1.229-.365.961-1.033 2.002l-.252.457c-.01.067-.035.087-.052.131C-.41 7.218-.594 7.312-.049 7.85c.27-.482.499-.993.865-1.34l-.837 1.511.335.947-.611-.727-1.034 2.258-.313.008c.303-.541.371-.743.62-1.279.238-.51.42-.744.643-1.207-.33-.608-.641-1.275-1.153-1.737-.412-.371-.219-.19-.615-.363l-.065-.119-1.644-2.028-1.352 2.369c.359.562.783 1.267 1.215 1.733l.363.434c.617-.669 1.354-2.277 1.659-2.645L-3.401 8.62l-.646.523c-.199.259-.936 1.325-1.214 1.571l1.629-2.404c-.803-.361-1.07-1.282-1.621-1.906l-.596.218.302-.702c-.416-.568-.994-1.935-1.789-1.656-.199-.488-.394-.801-.777-1.131l-.714-.853c-.145-.175-.173-.165-.34-.302l-.634 1.416c-.328.434-.645.485-.494 1.236l-.239-.145c-.589-.126.456-.149-.213-.016l-.291.216c-.017.058-.063.068-.099.097l.459-.687-.387-.586c-.318-.474-.777-1.02-1.267-1.277l-1.272 2.376.419.512-.187-.03c-.545-.067.522-.147-.139-.039l-.358.261-1.484-2.475-.733 1.273c-.133.214-.22.322-.345.504-.146.212-.076.097-.199.293l1.396 2.394c.652-.527.856-1.342 1.365-1.989l-1.188 2.197c.245.426.646.571.344.855l-.521-.648c-.546.447-1.244 1.239-.965 2.012.213.591.875 1.32 1.366 1.702l1.254-2.038-.404-.398c-.23-.209-.483-.19-.319-.439.007.045.097-.062.137-.104.234.414.471.67.842.902.687-1.256 1.638-2.357.527-3.589l-.18-.173c-.255-.235-.254-.083-.028-.327l.728 1.123c.388-.482.647-1.209 1.139-1.605-.237.985-.851 1.396-.927 1.788-.081.421.396.802.716 1.321.139.226.141.297.341.515.019.02.24.207.265.23l.577.505c.477-.3.755-.444 1.052-.971.918-1.632-.117-2.165-1.182-3.54l1.537 1.836c.129-.278.982-2.323 1.332-2.12.006.045.043.071.074.098l-.752.977c-.284.544-.445 1.079.01 1.589.401.449.853.889 1.057 1.451 1.029-1.997.902-1.97 1.214-1.591l-.422.418c-.348.507-.556 1.255-.319 1.803.087.2.204.313.348.494.131.164.163.199.309.381.314.395.445.506.744.863l.281.259-.413.07-1.243-1.761c-.367-.4-1.656-2.578-1.771-2.338-.014.029-.065-.049-.097-.075-.452.975-.645 1.719-1.482 2.215l1.652 2.103c.484-.596.808-.892 1.082-1.521l.18-.983c.011.027.278.481.306.437l-1.231 2.226.687.02c-.049.035-.103.082-.146.103-.041.018-.11.054-.151.07-.913.384.15.058-.313.021-.326-.467-.126-.281-.251-.051l-.363-.024c-.126-.52-.336-.734-.668-1.168l-.809-1.012c-1.372 1.571-.574.67-1.24 1.836l.901-1.869c-.375-.577-.407-.577-.875-1.02-.55-.519-.251-.465-.923-1.091-.284.695-.406 1.162-.846 1.711-.282.351-.103.18-.427.366.253.422 1.297 2.412 1.758 2.315.052-.011.159-.153.168-.127.013.034.054-.06.083-.088l-.013.575c-.291.08-.369.151-.792.152l.288-.328c.021.042.07-.116.112-.168-.716-.708-1.203-1.086-1.616-2.103l-.674.512c-.769.837-.968 1.417-.371 2.063l1.43-.061c-.502.312-1.215.278-1.808.187-.062-.374.026-.181-.134-.331-.293-.031-.173-.067-.142.31h-.193c.357-1.332-.347-.905-.985-2.393-.46.514-1.038 1.085-1.232 1.738l.901.675-.927-.163c.185-.262.217-.009-.004-.306a4 4 0 0 0-.315-.188c-.08.157-.097.287-.166.48l-.523-.015-.086-.162c.466-.006.417-.081.775-.303l-.55-1.02c-.262.029-.176.081-.231-.192l.231.192-.021.084.506.673c.739-.597 1.003-.65 1.294-1.633-.972-1.47-.567-.918-1.14-1.976-.448-.827.058-.22-.523-.514.023-.265-.237-.324.176-.168.652.474.407.975 1.448 2.324l.557-.981c.225-.361.445-.632.623-.904l-1.514-2.215-.714.921c-.199-.184-.091.135-.087-.316.004-.393-.038-.099.132-.176.244-.051-.098.471.122-.171.255-.359.181.198.417-.625l-.373-.147c0-.012.03-.471.034-.501.006-.035.042-.159.047-.138.005.023.04-.084.06-.127l.046.755c.817-.384.825-.248 1.35-1.349.313-.656.392-1.049-.153-1.553-.466-.429-.6-.125-.203-.549l.642.922.723-.889c-.199 1.697-.55 1.887 1.021 3.076l.124-.208.055-.12c.25-.549.393-1.061 1.292-2.086l-.041-.37c.245.192.01.031.296.191l.341-.629-4.422.014c-.919.145-.414-.027-1.336.019l-.034.052.034-.052c.682-.337 5.33-.221 5.913-.058l.9-.148-.9.148-.458.867 1.472 1.76.283.174c1.247-2.206 1.42-2.13.52-3.333-.141-.388-.229-.307.166-.307.057.186-.015.533.343.744.264.156.101.098.433-.301l.07-.101c-.229 1.043.109 1.468.449 2.015.215.347.335.488.622.738.388.337.368.273.722.405 1.276-1.767 1.257-2.266 1.281-2.198.008.024.046-.064.069-.096l-1.178 2.378 1.491 2.067 1.404-2.701-.985-1.299c-.615-.61-1.517-.989-1.904-1.702l.157.017.197-.113c0 .286.061.241-.197.113.349.376.505.467.844.707l.369-.511.129-.128-.128.815 1.687 1.916c.341-.862.438-1.356 1.011-1.904-.916 2.491-1.266 2.483-.196 3.594l.816.767c.469-.242.525-.359.895-.985.239-.407.432-.827.495-1.336l-1.651-1.906c-.582-.697.109.262-.228-.266-.413-.648.22-.288-.809-.739 0-.406-.118-.354.242-.284-.119-.306-.117-.195.21-.106l-.21.106c.257.301.034.136.452.45.069.052.317.17.396.217l.265-.45.108-.008.304-.053-.304.053c-.225.355-.265.349-.375.822l.91 1.194c.398.41.29.354.732.593l.307-.657C-.094 1.371.157 1.122.702.511L.341.526C.131.434.099.189 0 0" transform="matrix(9.91298 0 0 -9.91298 431.399 447.272)"/><path style="fill:#000;fill-opacity:1;fill-rule:evenodd;stroke:none" d="m0 0 .91-1.5c.752-1.739.426-2.151.238-4.723 1.7 2.263.375 3.786-.769 5.982zm12.52-9.516c1.129-.12 1.884-.37 3.265-.469.624-.044 1.259-.09 1.884-.107.955-.027 1.268-.111 1.961.245-3.461.027-4.427.329-7.685.959 2.681-.343 2.988-.627 6.242-.448.583.032.435.009.931.197l-3.786.237 1.998.441-3.829-.063c.487-.109 1.348.193 1.942.258 2.257.246 3.114-.709 5.232-2.01-2.055-.287-6.16-.221-8.155.76m-1.483.381c-1.697-.028-3.765.038-5.187.097-6.607.278-7.318.806-13.989 2.262-.057.189.007.262.1.568l-2.566 2.337L-5.877.056l5.454 3.246C.78 2.378 2.205.639 2.66-.94c.892-3.096.658-2.913.298-6.082.977-.489.887-.475 1.729-1.151-3.674 1.283-3.304.51-4.92.913-1.124.28-.693.527-2.274.38l-2.618-.219c.898-.582 3.041.203 4.354-.362.97-.417 2.853-.265 4.233-.707 1.446-.463 2.178-.942 3.855-.706 2.355.331 1.419-.158 3.525 1.438.501-.21.425-.411 1.021-.375.443.027.491.298.84.169 1.178-.433.076-.153 1.861-.31-1.653-.674-3.036.394-3.527-1.183M9.201-7.416l-2.508-.032c1.021.475 1.846.005 3.045.616-2.756-.13-3.563-.561-6.142-.033l5.373.031 1.263-.373L5.241-8.32l.949-.299 1.236.054 1.618.695-3.845-.054c.549.207 1.864.101 2.933.275.565.093.621.038 1.069.233m20.087-1.557-.196-.579-.02-.465-4.289 1.981 1.391.524c-.2-.358-.246-.295-.785-.634L28.89-9.78l-2.837 1.836c.713-.288 1.827-.961 2.532-.99l.096.131c-1.219.611-1.614.649-2.286 1.472.77-.156-.284-.131 1.315-.646l1.677-.503zm-7.811 1.214c0 .281-.058.188.267.177l.23.133-.208.179c-.014-.684.039-.066-.233-.266l-.236.075c-.038-.026-.099-.03-.112-.081-.012-.041-.082-.051-.096-.055-.299-.095-.079-.027-.134-.013-.981-.076-.834-.061-1.689.203l-.304.054-.107.008-.903-.324c-.328-.088-.329-.2-.211.106-.36-.07-.242-.122-.242.285l-.854-.469c-.635.184-.501.354-1.037.512l-.13.128c-.227-.759-.444-.536-1.016-.309l-.196.113-.157-.017-.707-.275c-.26.134-.244.146-.52.312-.043.026-.174.099-.217.123l-.111.061-.217.129-.205-.492c-.73.011-.326-.137-.84.194-.395 0-.308-.081-.166.306l-.284-.124c-.32.231.057-.051-.268.234-.323.282.057.065-.366.274l-.9.148c-.582-.163-5.231-.279-5.912.058l-.034.052c.46 1.375.465 1.088.298 2.724-.019.043-.054.15-.06.128-.004-.022-.041.102-.046.138a22 22 0 0 0-.035.5l-.166.943c-.169.077-.128-.217-.131.176-.004.451-.112.132.087.316l-.401.855c-.413-.155-.152-.097-.176.169C2.67 1.084.902 2.536-.028 3.506c.654.407 1.53.7 2.419.812l.086.162.523.014.486.014.926.163 1.317-.02h.192l.276.021c.594.091 1.306.125 1.809-.187l.831.085c.422 0 .501-.072.792-.152l2.891-.428.363.024.25.051c.463.037-.599.364.314-.02.04-.017.11-.053.15-.071.043-.021.098-.068.146-.103l1.918-.323.412-.07 3.011-.447-.876-1.411a.2.2 0 0 0 .031-.097c.19-.116.215.202.519.689.308.493.171.448.553.685l.313-.007 2.156-.254.475-.181 2.624-.509.651-.146 1.477-.414.341-.14 2.453-.66.671-.267c.045-.015.113-.038.169-.059l1.363-.539.658-.37.917-.093.37-.125c.033-.035.094-.036.105-.102.009-.058.071-.079.082-.098a.7.7 0 0 0 .073-.18l-.076.215c.177.211-.652.472 1.289.093.8-.157.704.024 1.237-.235l.841.207c.553-.654.926-1.189 1.071-2.43-.025-.299-.037-.594-.162-.884-.393-.914-.134-.39-.627-.434l-.098.083.098-.083c.134-.529.127-.293-.372-.611-.296-.187-.568-.263-.826-.366l-.314-.185-.303.154-.646-.088c-.429.079.024-.094-.529.167l-1.548.118-.271.004-.02.03-.284-.018-2.142.232c-.421-.519-.7-.44-1.446-.464l-.137.01c-.124-.142.353-.178-.444-.215l-.638-.027-.165.033c-.569-.073-.382-.153-.86-.304l-.091.122.101-.231c-.594-.288-1.189-.557-2.032-.565l-.228-.106-.731-.219-.262-.003-.175.008c-.569-.314-.22.067-.956-.407l2.74.326c-3.398-1.253-4.631-.869-7.973-.551.743.127.378-.067.951-.067.665.001.446.252 1.153.139 1.191-.19.811-.359 2.143.04m1.049.565-.335-.295.563.261zm-.631.165.225-.378.267.348zM30.814-5.1l-.15.026c.129-.248.016-.261.15-.026m7.042 2.828.08.122.275.036-.18.093zm-3.971.848.045-.041zm-.31-.502.084.118.198.367zM2.595 3.078l.021-.084-.23-.192-.737-.707.116-.186c.028-.05.274.529.409.678.274.305.187.068.421.491m9.472-9.904.07-.101zm-21.509.367c.421-.462.24-.199.463-.743-.399.284-.389-.016-.463.743m47.283.82c0 .286-.056.203.254.134-.03.263-.08.198.191.151.374.842.803 1.639.606 2.863-.373.697-.66 1.636-1.133 1.766.487.344.403.169.745-.197.331.238 2.194 1.557 2.038 1.595-.302.075-2.327-1.155-.866-.069.653.551.113.221.975.591l4.274 2.815c.04-.027.114-.019.195-.064.119-.067.252-.248.314-.829.142-1.352-.272-1.976-.796-3.43-.595.298-5.018-.936-5.551-1.755l.599-.089.034-.069c0 .31-.063.196.308.228l.059.084.193.148.196-.038c0 .261-.057.181.23.184l3.757 1.361c-.123-.385.005-.134-.221-.469l-1.1-1.499-.198-.093c-.365-.448-.198-.439-.525-.902l-.743.021c-1.422-.045-1.45.219-2.299-.143.508-.29 1.688-.12 2.422-.07l.824.097c.498-1.641 2.138-1.828 2.843-3.162l-1.193.217c.426-.276.702-.372 1.207-.295l.231.019.836-3.145c-.053-.039.122-.366-.873-.141-1.702.386-4.954 2.043-6.661 2.89.915-.073 5.135-1.687 6.605-2.183-.904.616-4.635 2.126-5.846 2.615-1.233.497-.673.459-1.926.282.508-.878.058-.011 1.154-.745l-2.021.847c.359.395.383.38.862.479m4.223-.79-.222.153-3.436.934-.037-.582 7.736-1.994c-.731.465-3.042 1.246-4.041 1.489m-.213 1.016c-1.384.416-1.774.639-2.861.533.224-.424-.295-.174 1.49-.561.281-.061.562-.116.844-.177.077-.016.376-.078.427-.094.572-.178.251-.095.412-.176l2.11-.374c-.412.405-1.786.723-2.422.849m-.326 3.255c-1.933-.474-1.613-.028-2.108-.852.64.172 1.707.472 2.434.7.894.017.238-.032.408.195zm-.483 3.287c-.712-.509-.64-.559-.007-.344.546.187 1.422.961 2.138 1.44.864.554.422.187 1.352.976zM31.081-6.2c-.044-.208-1.377-1.784-1.634-2.125l-2.623 1.009c.004.004-.069.419.505.294.295-.064-.188-.215 2.172-.658l-1.909.747c.577.525-.327.116 2.328-.24l-1.522.528c.297.208-.4.25.857.052l-.097.233c.599.355 1.28.429 1.923.16m-41.882-.046c.157.126-.296.346.694.058-.142-.09.055-.427-.694-.058m-.459 2.14c.54-.066.631-.621 1.391-1.724-.888.625-1.5.908-1.391 1.724M31.495.568l-1.293.189.417.502-1.899.059.55.458-1.89.012c.91.672.454.574 1.972.077.638-.208.692-.216 1.25-.461.589-.259.709-.092 1.107-.55.023-.027.051-.107.073-.132.325-.347.205.093.606-.709l-.729.298c-.011.01-.035.048-.044.058zM18.023 3.974l-.016.201c-1.047-.45-.301-.575-1.702-.323l.357.475-1.596-.24c.279.472.3.447.678.731l-2.101-.469c.675.964 1.629.713 1.165 1.168-.602-.439-1.174-.752-1.537-1.174l-1.042.127L13.4 5.535c.769.631 1.235.733 1.089.999-1.133-.758-2.63-2.071-3.385-1.906l2.94 2.626c.02.25-.05.197.191.181l.194.145.017.159-.371-.138-.187-.182c-.741-.456-1.264-.865-1.948-1.438-1.281-1.072-1.251-1.297-1.866-1.203.971.964 2.934 3.099 4.154 3.316l.365.159.364-.469c-.118-2.393-.116-2.627 2.198-3.009l-.493-.448c.822.456.484.357 1.407.418l.518-.087-.156-.398-.21.002-.029-.077.239.075.06.079.219.176 1.039-.193-.546-.494c1.063.54.643.503 1.722.168-.389-.365-.153-.028-.7-.678 1.323.674.262.674 2.198.435l-.49-.43c.94.312.088.476 1.91.137l-.541-.485c.873.514.461.463 1.707.155.091-.309.007.057-.004-.169l-.007-.05.011-.093c.64.356.714.131 2.025-.205.48-.123.36-.087.781-.413l-1.839-.16.549.59-1.963-.244.106.396-2.902.536-2.526.075c-.141.19-.026.046-.099.211l-.106.23-1.409-.222c.21.288-.126.041.397.362m-9.028.788c.416.506.905.807 1.442 1.169.73.493.716.724 1.646 1.116l-1.739-1.515c-.58-.568-.373-.66-1.349-.77m-20.854-9.13c0-.397.293-.612.524-.842l.33-.352-.513-.854c1.224-.819.733.294 1.975-.928.846-.833-.722.642.179-.161.83-.741 1.43-1.511 2.284-1.983L-8.104-7.44c4.431-1.033 5.128-1.098 9.351-1.743 2.736-.418 10.024-.45 10.657-.609 2.599-.652 3.607-.928 6.448-1.062.969-.046 3.853-.142 2.497 1.301l-2.564 1.232c4.421-.323 5.097.351 7.01-.54l2.085-.851 1.894-.799c.794.789.289 1.274.526 1.535.608.664-.242.086.999 1.549.598.705.442.554.866 1.523 1.307-.109.977.049 2.055.007 2.157-.082 4.034-1.14 5.556-1.784 1.57-.664 5.578-2.444 6.897-2.661 1.178-.189.632.939.319 2.101-.168.627-.253 1.378-.533 1.733-2.691 3.527-4.136 1.895-1.104 5.848.745.972 1.234 2.379 1.148 3.29-.306.843-.468 1.321-.867 1.479-.853.337-2.115-.655-3.449-1.723-1.604-1.285-3.6-2.628-5.925-2.999l-2.902.342c-.033 1.484-1.896 2.212-3.104 2.528-.849.222-1.491.488-2.219.682-3.379.9-5.961 1.526-9.486 2.121l-2.43.472c-.2.858-.138 1.424-.512 3.072-2 0-3.579-1.107-4.992-2.347C6.146 2.771 5.351 7.746-3.461 2.254c-.586-.365-.893-.517-1.446-.943C-5.446.897-5.88.607-6.4.244l-2.682-2.268c-1.086-.985-2.777-1.798-2.777-2.344m1.024 1.195-.05-.051c.003.003.067.034.05.051m9.798-2.836c2.028 1.131.36 3.463-.387 4.755.279-1.047 1.565-2.416.387-4.755" transform="matrix(9.91298 0 0 -9.91298 223.666 371.837)"/><path style="fill:#000;fill-opacity:1;fill-rule:evenodd;stroke:#000;stroke-width:.21600001;stroke-linecap:butt;stroke-linejoin:miter;stroke-miterlimit:22.9260006;stroke-dasharray:none;stroke-opacity:1" d="M0 0c.304 0 .551.243.551.545 0 .3-.247.543-.551.543A.546.546 0 0 1-.55.545C-.55.243-.304 0 0 0Z" transform="matrix(9.91298 0 0 -9.91298 168.476 401.52)"/><path style="fill:#000;fill-opacity:1;fill-rule:evenodd;stroke:none" d="M0 0h-70.885v-41.26c0-.26-.012-.52-.01-.78.005-.708.037-1.416.086-2.123a46.4 46.4 0 0 1 1.143-7.418c1.817-7.684 5.461-14.761 10.934-20.49 4.803-5.028 10.407-9.672 16.615-12.866 1.62-.833 3.301-1.581 5.031-2.157.538-.18 1.087-.353 1.642-.477.554.123 1.104.298 1.641.477 1.732.576 3.412 1.323 5.033 2.157 6.208 3.194 11.813 7.838 16.615 12.866 5.474 5.729 9.119 12.806 10.935 20.49a46 46 0 0 1 1.144 7.418Q0-43.103.009-42.04c.002.26-.009.52-.009.78Zm-.361-.36h-70.164v-40.9c0-.259-.011-.519-.009-.778.004-.701.036-1.401.085-2.1a46 46 0 0 1 1.134-7.36c1.801-7.62 5.417-14.643 10.845-20.325 4.783-5.008 10.335-9.612 16.518-12.794 1.606-.826 3.265-1.565 4.981-2.136.503-.168 1.01-.329 1.527-.449.517.119 1.025.282 1.527.449 1.716.571 3.375 1.31 4.982 2.136 6.183 3.181 11.736 7.786 16.519 12.794 5.428 5.682 9.044 12.705 10.845 20.325a46 46 0 0 1 1.135 7.36c.048.699.08 1.399.085 2.1.002.26-.01.519-.01.778z" transform="matrix(9.91298 0 0 -9.91298 753.078 45.867)"/></svg>