<?xml version="1.0" encoding="UTF-8" standalone="no"?>
<svg
   xmlns:dc="http://purl.org/dc/elements/1.1/"
   xmlns:cc="http://creativecommons.org/ns#"
   xmlns:rdf="http://www.w3.org/1999/02/22-rdf-syntax-ns#"
   xmlns:svg="http://www.w3.org/2000/svg"
   xmlns="http://www.w3.org/2000/svg"
   viewBox="0 0 793.70135 1122.52"
   height="1122.52"
   width="793.70135"
   xml:space="preserve"
   id="svg2"
   version="1.1"><metadata
     id="metadata8"><rdf:RDF><cc:Work
         rdf:about=""><dc:format>image/svg+xml</dc:format><dc:type
           rdf:resource="http://purl.org/dc/dcmitype/StillImage" /></cc:Work></rdf:RDF></metadata><defs
     id="defs6"><clipPath
       id="clipPath18"
       clipPathUnits="userSpaceOnUse"><path
         id="path16"
         d="M 0,0 H 595.276 V 841.89 H 0 Z" /></clipPath><clipPath
       id="clipPath26"
       clipPathUnits="userSpaceOnUse"><path
         id="path24"
         d="M -32768,-32768 H 32768 V 32768 H -32768 Z" /></clipPath><linearGradient
       id="linearGradient36"
       spreadMethod="pad"
       gradientTransform="matrix(0,-16.732428,-16.732428,0,476.1062,674.27574)"
       gradientUnits="userSpaceOnUse"
       y2="0"
       x2="1"
       y1="0"
       x1="0"><stop
         id="stop32"
         offset="0"
         style="stop-opacity:1;stop-color:#ffffff" /><stop
         id="stop34"
         offset="1"
         style="stop-opacity:0;stop-color:#ffffff" /></linearGradient><mask
       id="mask38"
       height="1"
       width="1"
       y="0"
       x="0"
       maskUnits="userSpaceOnUse"><g
         id="g48"><g
           id="g46"><g
             id="g44"><g
               id="g42"><path
                 id="path40"
                 style="fill:url(#linearGradient36);stroke:none"
                 d="M -32768,32767 H 32767 V -32768 H -32768 Z" /></g></g></g></g></mask><clipPath
       id="clipPath52"
       clipPathUnits="userSpaceOnUse"><path
         id="path50"
         d="M 32768,32768 H -32768 V -32768 H 32768 Z" /></clipPath><clipPath
       id="clipPath80"
       clipPathUnits="userSpaceOnUse"><path
         id="path78"
         d="m 458.249,695.905 h 88.836 v 104.009 h -88.836 z" /></clipPath><clipPath
       id="clipPath92"
       clipPathUnits="userSpaceOnUse"><path
         id="path90"
         d="m 458.249,695.905 h 88.836 v 104.009 h -88.836 z" /></clipPath><clipPath
       id="clipPath104"
       clipPathUnits="userSpaceOnUse"><path
         id="path102"
         d="m 458.249,695.905 h 88.836 v 104.009 h -88.836 z" /></clipPath><clipPath
       id="clipPath116"
       clipPathUnits="userSpaceOnUse"><path
         id="path114"
         d="m 458.249,695.905 h 88.836 v 104.009 h -88.836 z" /></clipPath><clipPath
       id="clipPath128"
       clipPathUnits="userSpaceOnUse"><path
         id="path126"
         d="m 458.249,695.905 h 88.836 v 104.009 h -88.836 z" /></clipPath><clipPath
       id="clipPath140"
       clipPathUnits="userSpaceOnUse"><path
         id="path138"
         d="m 458.249,695.905 h 88.836 v 104.009 h -88.836 z" /></clipPath><clipPath
       id="clipPath152"
       clipPathUnits="userSpaceOnUse"><path
         id="path150"
         d="m 458.249,695.905 h 88.836 v 104.009 h -88.836 z" /></clipPath><clipPath
       id="clipPath162"
       clipPathUnits="userSpaceOnUse"><path
         id="path160"
         d="m 458.249,695.905 h 88.836 v 104.009 h -88.836 z" /></clipPath><clipPath
       id="clipPath174"
       clipPathUnits="userSpaceOnUse"><path
         id="path172"
         d="m 458.249,695.905 h 88.836 v 104.009 h -88.836 z" /></clipPath><clipPath
       id="clipPath186"
       clipPathUnits="userSpaceOnUse"><path
         id="path184"
         d="m 458.249,695.905 h 88.836 v 104.009 h -88.836 z" /></clipPath><clipPath
       id="clipPath196"
       clipPathUnits="userSpaceOnUse"><path
         id="path194"
         d="m 458.249,695.905 h 88.836 v 104.009 h -88.836 z" /></clipPath><clipPath
       id="clipPath206"
       clipPathUnits="userSpaceOnUse"><path
         id="path204"
         d="m 458.249,695.905 h 88.836 v 104.009 h -88.836 z" /></clipPath><clipPath
       id="clipPath218"
       clipPathUnits="userSpaceOnUse"><path
         id="path216"
         d="m 458.249,695.905 h 88.836 v 104.009 h -88.836 z" /></clipPath><clipPath
       id="clipPath230"
       clipPathUnits="userSpaceOnUse"><path
         id="path228"
         d="m 458.249,695.905 h 88.836 v 104.009 h -88.836 z" /></clipPath><clipPath
       id="clipPath240"
       clipPathUnits="userSpaceOnUse"><path
         id="path238"
         d="m 458.249,695.905 h 88.836 v 104.009 h -88.836 z" /></clipPath><clipPath
       id="clipPath252"
       clipPathUnits="userSpaceOnUse"><path
         id="path250"
         d="m 458.249,695.905 h 88.836 v 104.009 h -88.836 z" /></clipPath><clipPath
       id="clipPath264"
       clipPathUnits="userSpaceOnUse"><path
         id="path262"
         d="m 458.249,695.905 h 88.836 v 104.009 h -88.836 z" /></clipPath><clipPath
       id="clipPath276"
       clipPathUnits="userSpaceOnUse"><path
         id="path274"
         d="m 458.249,695.905 h 88.836 v 104.009 h -88.836 z" /></clipPath><clipPath
       id="clipPath286"
       clipPathUnits="userSpaceOnUse"><path
         id="path284"
         d="m 458.249,695.905 h 88.836 v 104.009 h -88.836 z" /></clipPath><clipPath
       id="clipPath296"
       clipPathUnits="userSpaceOnUse"><path
         id="path294"
         d="m 458.249,695.905 h 88.836 v 104.009 h -88.836 z" /></clipPath><clipPath
       id="clipPath306"
       clipPathUnits="userSpaceOnUse"><path
         id="path304"
         d="m 458.249,695.905 h 88.836 v 104.009 h -88.836 z" /></clipPath><clipPath
       id="clipPath318"
       clipPathUnits="userSpaceOnUse"><path
         id="path316"
         d="m 458.249,695.905 h 88.836 v 104.009 h -88.836 z" /></clipPath><clipPath
       id="clipPath328"
       clipPathUnits="userSpaceOnUse"><path
         id="path326"
         d="m 458.249,695.905 h 88.836 v 104.009 h -88.836 z" /></clipPath><clipPath
       id="clipPath340"
       clipPathUnits="userSpaceOnUse"><path
         id="path338"
         d="m 458.249,695.905 h 88.836 v 104.009 h -88.836 z" /></clipPath><clipPath
       id="clipPath352"
       clipPathUnits="userSpaceOnUse"><path
         id="path350"
         d="m 458.249,695.905 h 88.836 v 104.009 h -88.836 z" /></clipPath><clipPath
       id="clipPath364"
       clipPathUnits="userSpaceOnUse"><path
         id="path362"
         d="m 458.249,695.905 h 88.836 v 104.009 h -88.836 z" /></clipPath><clipPath
       id="clipPath376"
       clipPathUnits="userSpaceOnUse"><path
         id="path374"
         d="m 458.249,695.905 h 88.836 v 104.009 h -88.836 z" /></clipPath><clipPath
       id="clipPath388"
       clipPathUnits="userSpaceOnUse"><path
         id="path386"
         d="m 458.249,695.905 h 88.836 v 104.009 h -88.836 z" /></clipPath><clipPath
       id="clipPath400"
       clipPathUnits="userSpaceOnUse"><path
         id="path398"
         d="m 458.249,695.905 h 88.836 v 104.009 h -88.836 z" /></clipPath><clipPath
       id="clipPath410"
       clipPathUnits="userSpaceOnUse"><path
         id="path408"
         d="m 458.249,695.905 h 88.836 v 104.009 h -88.836 z" /></clipPath><clipPath
       id="clipPath422"
       clipPathUnits="userSpaceOnUse"><path
         id="path420"
         d="m 458.249,695.905 h 88.836 v 104.009 h -88.836 z" /></clipPath><clipPath
       id="clipPath434"
       clipPathUnits="userSpaceOnUse"><path
         id="path432"
         d="m 458.249,695.905 h 88.836 v 104.009 h -88.836 z" /></clipPath><clipPath
       id="clipPath446"
       clipPathUnits="userSpaceOnUse"><path
         id="path444"
         d="m 458.249,695.905 h 88.836 v 104.009 h -88.836 z" /></clipPath><clipPath
       id="clipPath458"
       clipPathUnits="userSpaceOnUse"><path
         id="path456"
         d="m 458.249,695.905 h 88.836 v 104.009 h -88.836 z" /></clipPath><clipPath
       id="clipPath470"
       clipPathUnits="userSpaceOnUse"><path
         id="path468"
         d="m 458.249,695.905 h 88.836 v 104.009 h -88.836 z" /></clipPath><clipPath
       id="clipPath482"
       clipPathUnits="userSpaceOnUse"><path
         id="path480"
         d="m 458.249,695.905 h 88.836 v 104.009 h -88.836 z" /></clipPath><clipPath
       id="clipPath494"
       clipPathUnits="userSpaceOnUse"><path
         id="path492"
         d="m 458.249,695.905 h 88.836 v 104.009 h -88.836 z" /></clipPath><clipPath
       id="clipPath506"
       clipPathUnits="userSpaceOnUse"><path
         id="path504"
         d="m 458.249,695.905 h 88.836 v 104.009 h -88.836 z" /></clipPath><clipPath
       id="clipPath518"
       clipPathUnits="userSpaceOnUse"><path
         id="path516"
         d="m 458.249,695.905 h 88.836 v 104.009 h -88.836 z" /></clipPath><clipPath
       id="clipPath530"
       clipPathUnits="userSpaceOnUse"><path
         id="path528"
         d="m 458.249,695.905 h 88.836 v 104.009 h -88.836 z" /></clipPath><clipPath
       id="clipPath542"
       clipPathUnits="userSpaceOnUse"><path
         id="path540"
         d="m 458.249,695.905 h 88.836 v 104.009 h -88.836 z" /></clipPath><clipPath
       id="clipPath554"
       clipPathUnits="userSpaceOnUse"><path
         id="path552"
         d="m 458.249,695.905 h 88.836 v 104.009 h -88.836 z" /></clipPath><clipPath
       id="clipPath566"
       clipPathUnits="userSpaceOnUse"><path
         id="path564"
         d="m 458.249,695.905 h 88.836 v 104.009 h -88.836 z" /></clipPath><clipPath
       id="clipPath578"
       clipPathUnits="userSpaceOnUse"><path
         id="path576"
         d="m 458.249,695.905 h 88.836 v 104.009 h -88.836 z" /></clipPath><clipPath
       id="clipPath590"
       clipPathUnits="userSpaceOnUse"><path
         id="path588"
         d="m 458.249,695.905 h 88.836 v 104.009 h -88.836 z" /></clipPath><clipPath
       id="clipPath602"
       clipPathUnits="userSpaceOnUse"><path
         id="path600"
         d="m 458.249,695.905 h 88.836 v 104.009 h -88.836 z" /></clipPath><clipPath
       id="clipPath614"
       clipPathUnits="userSpaceOnUse"><path
         id="path612"
         d="m 458.249,695.905 h 88.836 v 104.009 h -88.836 z" /></clipPath><clipPath
       id="clipPath626"
       clipPathUnits="userSpaceOnUse"><path
         id="path624"
         d="m 458.249,695.905 h 88.836 v 104.009 h -88.836 z" /></clipPath><clipPath
       id="clipPath638"
       clipPathUnits="userSpaceOnUse"><path
         id="path636"
         d="m 458.249,695.905 h 88.836 v 104.009 h -88.836 z" /></clipPath><clipPath
       id="clipPath650"
       clipPathUnits="userSpaceOnUse"><path
         id="path648"
         d="m 458.249,695.905 h 88.836 v 104.009 h -88.836 z" /></clipPath><clipPath
       id="clipPath662"
       clipPathUnits="userSpaceOnUse"><path
         id="path660"
         d="m 458.249,695.905 h 88.836 v 104.009 h -88.836 z" /></clipPath><clipPath
       id="clipPath674"
       clipPathUnits="userSpaceOnUse"><path
         id="path672"
         d="m 458.249,695.905 h 88.836 v 104.009 h -88.836 z" /></clipPath><clipPath
       id="clipPath686"
       clipPathUnits="userSpaceOnUse"><path
         id="path684"
         d="M 0,0 H 595.276 V 841.89 H 0 Z" /></clipPath><clipPath
       id="clipPath694"
       clipPathUnits="userSpaceOnUse"><path
         id="path692"
         d="M 32768,32768 H -32768 V -32768 H 32768 Z" /></clipPath><clipPath
       id="clipPath708"
       clipPathUnits="userSpaceOnUse"><path
         id="path706"
         d="M 32768,32768 H -32768 V -32768 H 32768 Z" /></clipPath><clipPath
       id="clipPath722"
       clipPathUnits="userSpaceOnUse"><path
         id="path720"
         d="M 32768,32768 H -32768 V -32768 H 32768 Z" /></clipPath><clipPath
       id="clipPath736"
       clipPathUnits="userSpaceOnUse"><path
         id="path734"
         d="M 0,0 H 595.276 V 841.89 H 0 Z" /></clipPath><clipPath
       id="clipPath744"
       clipPathUnits="userSpaceOnUse"><path
         id="path742"
         d="M 32768,32768 H -32768 V -32768 H 32768 Z" /></clipPath></defs><g
     transform="matrix(1.3333333,0,0,-1.3333333,0,1122.52)"
     id="g10"><g
       id="g12"><g
         clip-path="url(#clipPath18)"
         id="g14"><g
           id="g20"><g
             id="g22" /><g
             id="g72"><g
               id="g70"
               clip-path="url(#clipPath26)"><g
                 id="g68"><g
                   id="g66"><g
                     id="g54" /><g
                     id="g64"
                     mask="url(#mask38)"><g
                       id="g56" /><g
                       id="g62"><g
                         id="g60"
                         clip-path="url(#clipPath52)"><g
                           id="g58" /></g></g></g></g></g></g></g></g></g></g><g
       transform="matrix(6.6651459,0,0,6.6651459,-3054.7372,-4493.1614)"
       id="g74"><g
         clip-path="url(#clipPath80)"
         id="g76"><g
           transform="translate(496.15254,699.07821)"
           id="g82"><path
             id="path84"
             style="fill:#000000;fill-opacity:1;fill-rule:evenodd;stroke:none"
             d="m 0,0 -2.886,1.026 -2.74,1.109 -2.597,1.189 -2.459,1.261 -2.323,1.33 -2.191,1.395 -2.062,1.454 -1.936,1.508 -1.813,1.557 -1.695,1.603 -1.578,1.642 -1.466,1.678 -1.357,1.707 -1.251,1.732 -1.168,1.782 -1.985,3.516 -1.635,3.571 -1.294,3.556 -0.972,3.476 -0.018,0.086 c -0.363,1.64 -0.671,3.292 -0.918,4.953 l -0.008,0.057 -0.007,0.054 c -0.176,1.536 -0.205,3.081 -0.278,4.625 l -0.003,0.075 V 99.551 H 49.232 V 45.941 L 49.228,45.865 C 49.155,44.322 49.121,42.778 48.945,41.243 L 48.936,41.16 48.385,37.864 48.367,37.782 c -0.38,-1.717 -0.824,-3.42 -1.329,-5.105 L 47.012,32.588 45.729,29.06 44.094,25.489 42.108,21.973 40.94,20.191 39.689,18.459 38.332,16.752 36.866,15.074 35.288,13.432 33.593,11.829 31.78,10.272 29.844,8.764 27.782,7.31 25.591,5.915 23.268,4.585 20.809,3.324 18.212,2.135 15.472,1.026 12.586,0 9.552,-0.938 6.293,-1.802 3.034,-0.938 Z" /></g></g></g><g
       transform="matrix(6.6651459,0,0,6.6651459,-3054.7372,-4493.1614)"
       id="g86"><g
         clip-path="url(#clipPath92)"
         id="g88"><g
           transform="translate(496.32183,699.58773)"
           id="g94"><path
             id="path96"
             style="fill:#ffcb05;fill-opacity:1;fill-rule:evenodd;stroke:none"
             d="m 0,0 -2.864,1.018 -2.719,1.101 -2.575,1.178 -2.437,1.25 -2.302,1.318 -2.17,1.381 -2.04,1.439 -1.916,1.492 -1.794,1.542 -1.676,1.585 -1.561,1.624 -1.449,1.658 -1.341,1.688 -1.237,1.712 -1.152,1.757 -1.965,3.481 -1.617,3.531 -1.279,3.516 -0.962,3.442 -0.016,0.071 c -0.36,1.628 -0.665,3.268 -0.911,4.917 l -0.006,0.047 -0.006,0.046 c -0.174,1.524 -0.202,3.056 -0.275,4.588 l -0.003,0.063 v 53.06 H 48.526 V 45.444 L 48.523,45.38 c -0.072,-1.531 -0.106,-3.062 -0.28,-4.586 L 48.234,40.725 47.689,37.457 47.674,37.389 C 47.297,35.684 46.856,33.995 46.355,32.322 L 46.333,32.247 45.062,28.755 43.446,25.224 41.48,21.743 40.329,19.986 39.092,18.274 37.75,16.586 36.301,14.928 34.74,13.304 33.065,11.719 31.27,10.177 29.355,8.685 27.314,7.246 25.145,5.865 22.843,4.547 20.406,3.297 17.83,2.119 15.112,1.018 12.248,0 9.234,-0.932 6.124,-1.757 3.013,-0.932 Z" /></g></g></g><g
       transform="matrix(6.6651459,0,0,6.6651459,-3054.7372,-4493.1614)"
       id="g98"><g
         clip-path="url(#clipPath104)"
         id="g100"><g
           transform="translate(496.66033,700.60652)"
           id="g106"><path
             id="path108"
             style="fill:#000000;fill-opacity:1;fill-rule:evenodd;stroke:none"
             d="m 0,0 -2.821,1.003 -2.675,1.083 -2.533,1.158 -2.393,1.228 -2.258,1.293 -2.127,1.354 -1.999,1.41 -1.876,1.461 -1.754,1.507 -1.639,1.55 -1.525,1.587 -1.417,1.62 -1.31,1.649 -1.208,1.673 -1.119,1.707 -1.926,3.41 -1.579,3.45 -1.25,3.437 -0.944,3.374 -0.009,0.043 c -0.355,1.604 -0.656,3.22 -0.898,4.844 l -0.004,0.028 -0.003,0.027 c -0.172,1.501 -0.198,3.01 -0.27,4.517 l -10e-4,0.038 V 96.413 H 47.114 V 44.45 l -0.002,-0.038 c -0.071,-1.507 -0.103,-3.016 -0.274,-4.515 l -0.005,-0.042 -0.536,-3.212 -0.009,-0.041 c -0.372,-1.679 -0.806,-3.344 -1.3,-4.991 l -0.013,-0.044 -1.245,-3.424 -1.579,-3.45 -1.927,-3.41 -1.118,-1.707 -1.208,-1.673 -1.311,-1.649 -1.416,-1.62 -1.525,-1.587 -1.639,-1.55 L 30.252,9.99 28.377,8.529 26.378,7.119 24.251,5.765 21.993,4.472 19.599,3.245 17.067,2.086 14.392,1.003 11.571,0 8.599,-0.919 5.785,-1.665 2.971,-0.919 Z" /></g></g></g><g
       transform="matrix(6.6651459,0,0,6.6651459,-3054.7372,-4493.1614)"
       id="g110"><g
         clip-path="url(#clipPath116)"
         id="g112"><g
           transform="translate(496.82952,701.11592)"
           id="g118"><path
             id="path120"
             style="fill:#fffffb;fill-opacity:1;fill-rule:evenodd;stroke:none"
             d="m 0,0 -2.8,0.996 -2.653,1.074 -2.511,1.148 -2.371,1.217 -2.237,1.281 -2.106,1.34 -1.978,1.395 -1.855,1.445 -1.735,1.491 -1.62,1.532 -1.508,1.568 -1.4,1.602 -1.295,1.629 -1.193,1.653 -1.102,1.682 -1.906,3.375 -1.561,3.41 -1.236,3.397 -0.934,3.34 -0.006,0.028 c -0.352,1.592 -0.651,3.196 -0.891,4.809 l -0.003,0.018 -0.002,0.018 c -0.17,1.488 -0.196,2.985 -0.266,4.48 l -0.001,0.025 V 95.366 H 46.408 V 43.953 l -0.001,-0.025 c -0.071,-1.495 -0.102,-2.992 -0.272,-4.48 l -0.003,-0.027 -0.531,-3.185 -0.006,-0.027 c -0.369,-1.666 -0.8,-3.318 -1.29,-4.954 l -0.009,-0.029 -1.232,-3.388 -1.561,-3.41 -1.906,-3.375 -1.102,-1.682 -1.194,-1.653 -1.295,-1.629 -1.4,-1.602 -1.507,-1.568 -1.62,-1.532 L 29.743,9.896 27.888,8.451 25.91,7.056 23.804,5.716 21.567,4.435 19.196,3.218 16.685,2.07 14.032,0.995 11.232,0 8.282,-0.912 5.616,-1.619 2.95,-0.912 Z" /></g></g></g><g
       transform="matrix(6.6651459,0,0,6.6651459,-3054.7372,-4493.1614)"
       id="g122"><g
         clip-path="url(#clipPath128)"
         id="g124"><g
           transform="translate(497.02693,701.71034)"
           id="g130"><path
             id="path132"
             style="fill:#000000;fill-opacity:1;fill-rule:evenodd;stroke:none"
             d="m 0,0 -2.775,0.987 -2.628,1.064 -2.485,1.136 -2.346,1.204 -2.212,1.266 -2.08,1.325 -1.954,1.378 -1.832,1.426 -1.713,1.472 -1.598,1.511 -1.487,1.547 -1.38,1.579 -1.277,1.607 -1.177,1.63 -1.083,1.653 -1.883,3.334 -1.539,3.362 -1.219,3.352 -0.922,3.299 -0.003,0.012 c -0.349,1.578 -0.645,3.167 -0.883,4.765 l -10e-4,0.008 -0.001,0.007 c -0.169,1.476 -0.193,2.958 -0.263,4.439 l -10e-4,0.011 V 94.146 H 45.585 V 43.374 l -10e-4,-0.011 c -0.07,-1.481 -0.1,-2.963 -0.268,-4.439 L 45.314,38.913 44.789,35.762 44.786,35.75 c -0.365,-1.653 -0.793,-3.288 -1.278,-4.909 l -0.004,-0.012 -1.217,-3.348 -1.54,-3.362 -1.883,-3.334 -1.083,-1.653 -1.177,-1.63 -1.277,-1.607 -1.38,-1.579 L 32.46,12.769 30.862,11.258 29.149,9.786 27.318,8.36 25.364,6.982 23.283,5.657 21.071,4.391 18.725,3.187 16.24,2.051 13.612,0.987 10.837,0 7.912,-0.904 5.419,-1.566 2.925,-0.904 Z" /></g></g></g><g
       transform="matrix(6.6651459,0,0,6.6651459,-3054.7372,-4493.1614)"
       id="g134"><g
         clip-path="url(#clipPath140)"
         id="g136"><g
           transform="translate(479.70356,711.29365)"
           id="g142"><path
             id="path144"
             style="fill:#005baa;fill-opacity:1;fill-rule:evenodd;stroke:none"
             d="m 0,0 -0.705,0.549 -1.696,1.457 -1.583,1.497 -1.473,1.532 -1.366,1.564 -1.264,1.59 -1.165,1.613 -1.069,1.632 -1.866,3.304 -1.524,3.329 -1.208,3.319 -0.914,3.271 c -0.35,1.58 -0.639,3.134 -0.877,4.735 -0.169,1.476 -0.191,2.925 -0.261,4.409 V 84.116 H 62.461 V 33.801 c -0.07,-1.484 -0.098,-2.933 -0.267,-4.409 L 61.673,26.263 C 61.307,24.608 60.889,23.01 60.403,21.386 L 59.196,18.067 57.672,14.738 55.805,11.434 54.736,9.802 53.571,8.189 52.307,6.599 50.941,5.035 49.468,3.503 47.886,2.006 46.189,0.549 45.308,-0.137 C 39.073,4.845 31.169,7.826 22.569,7.826 14.047,7.826 6.208,4.901 0,0" /></g></g></g><g
       transform="matrix(6.6651459,0,0,6.6651459,-3054.7372,-4493.1614)"
       id="g146"><g
         clip-path="url(#clipPath152)"
         id="g148"><path
           id="path154"
           style="fill:#fffffb;fill-opacity:1;fill-rule:evenodd;stroke:none"
           d="m 492.296,711.173 h 20.315 v 0.726 h -20.315 z m 1.133,1.134 h 18.048 v 0.726 h -18.048 z m 1.134,1.134 h 15.78 v 0.726 h -15.78 z m 1.134,1.133 h 13.513 v 0.726 h -13.513 z m 1.133,1.134 h 11.246 v 0.726 H 496.83 Z m 1.134,1.134 h 8.979 v 0.726 h -8.979 z" /></g></g><g
       transform="matrix(6.6651459,0,0,6.6651459,-3054.7372,-4493.1614)"
       id="g156"><g
         clip-path="url(#clipPath162)"
         id="g158"><g
           transform="translate(524.33327,711.00611)"
           id="g164"><path
             id="path166"
             style="fill:#0db14b;fill-opacity:1;fill-rule:evenodd;stroke:none"
             d="m 0,0 -0.42,-0.327 -1.937,-1.366 -2.063,-1.313 -2.193,-1.256 -2.328,-1.194 -2.467,-1.128 -2.61,-1.057 -2.757,-0.98 -2.908,-0.9 -2.37,-0.628 -2.369,0.628 -2.908,0.9 -2.757,0.98 -2.61,1.057 -2.467,1.128 -2.328,1.194 -2.193,1.256 -2.063,1.313 -1.937,1.366 -0.428,0.334 c 3.998,3.115 8.673,5.402 13.766,6.605 h 3.569 V 5.835 h -1.133 V 4.701 h -1.134 V 3.568 h -1.134 V 2.434 h -1.133 V 1.301 h -1.134 v -1.542 h 21.131 v 1.542 h -1.134 v 1.133 h -1.134 v 1.134 h -1.133 v 1.133 h -1.134 v 1.134 h -1.134 v 0.777 h 3.209 C -8.679,5.408 -4.001,3.119 0,0" /></g></g></g><g
       transform="matrix(6.6651459,0,0,6.6651459,-3054.7372,-4493.1614)"
       id="g168"><g
         clip-path="url(#clipPath174)"
         id="g170"><g
           transform="translate(501.57664,759.17964)"
           id="g176"><path
             id="path178"
             style="fill:#000000;fill-opacity:1;fill-rule:evenodd;stroke:none"
             d="M 0,0 -0.015,0.059 0.015,0.011 C 0.05,0.038 0.087,0.063 0.126,0.086 V 0.2 H -0.861 V 1.356 H 0.126 V 2.343 H 1.282 V 1.356 H 2.269 V 0.2 H 1.282 V 0.086 C 1.321,0.064 1.358,0.039 1.394,0.011 L 1.423,0.059 1.408,0 c 0.266,-0.208 0.436,-0.532 0.436,-0.896 0,-0.418 -0.226,-0.784 -0.562,-0.982 v -0.196 l 3.607,-5.93 0.749,-0.854 -1.154,-0.983 v -3.585 h 0.011 v -3.343 l 0.315,-0.45 6.518,-8.868 c -0.654,0.119 -2.041,0.271 -1.917,-1.149 l 3.952,-5.145 h -0.985 l 0.006,-10.065 -0.588,0.19 c -0.813,0.263 -1.635,0.497 -2.464,0.702 l -0.248,0.061 H 5.289 v 0.015 l -1.538,-0.006 v -0.009 h -1.48 -9.963 l -0.237,-0.058 c -0.829,-0.204 -1.651,-0.438 -2.464,-0.701 l -0.587,-0.19 0.005,10.061 h -0.984 l 3.956,5.151 c 0.078,1.515 -1.349,1.181 -1.899,1.149 l 6.5,8.862 0.326,0.457 v 6.921 l -1.139,0.979 0.735,0.858 3.606,5.93 v 0.196 c -0.336,0.199 -0.561,0.564 -0.561,0.982 0,0.364 0.17,0.687 0.435,0.896" /></g></g></g><g
       transform="matrix(6.6651459,0,0,6.6651459,-3054.7372,-4493.1614)"
       id="g180"><g
         clip-path="url(#clipPath186)"
         id="g182"><path
           id="path188"
           style="fill:#ffffff;fill-opacity:1;fill-rule:evenodd;stroke:none"
           d="m 500.779,749.329 h 3.011 v -3.489 h -3.011 z" /></g></g><g
       transform="matrix(6.6651459,0,0,6.6651459,-3054.7372,-4493.1614)"
       id="g190"><g
         clip-path="url(#clipPath196)"
         id="g192"><path
           id="path198"
           style="fill:#ffffff;fill-opacity:1;fill-rule:evenodd;stroke:none"
           d="m 503.789,741.957 h -3.011 v 3.37 h 3.011 z" /></g></g><g
       transform="matrix(6.6651459,0,0,6.6651459,-3054.7372,-4493.1614)"
       id="g200"><g
         clip-path="url(#clipPath206)"
         id="g202"><g
           transform="translate(502.69383,749.77279)"
           id="g208"><path
             id="path210"
             style="fill:#ffffff;fill-opacity:1;fill-rule:evenodd;stroke:none"
             d="M 0,0 H -0.826 -4.013 L -4.627,0.504 H -0.826 0 3.801 L 3.187,0 Z" /></g></g></g><g
       transform="matrix(6.6651459,0,0,6.6651459,-3054.7372,-4493.1614)"
       id="g212"><g
         clip-path="url(#clipPath218)"
         id="g214"><g
           transform="translate(502.15165,757.13234)"
           id="g220"><path
             id="path222"
             style="fill:#fffffb;fill-opacity:1;fill-rule:evenodd;stroke:none"
             d="M 0,0 H 0.258 V 0.521 L 0.293,0.53 c 0.28,0.074 0.476,0.329 0.476,0.619 0,0.291 -0.196,0.546 -0.476,0.62 L 0.258,1.778 V 2.696 H 1.245 V 2.955 H 0.258 V 3.941 H 0 V 2.955 H -0.987 V 2.696 H 0 V 1.778 L -0.035,1.769 c -0.28,-0.074 -0.476,-0.329 -0.476,-0.62 0,-0.29 0.196,-0.545 0.476,-0.619 L 0,0.521 Z" /></g></g></g><g
       transform="matrix(6.6651459,0,0,6.6651459,-3054.7372,-4493.1614)"
       id="g224"><g
         clip-path="url(#clipPath230)"
         id="g226"><path
           id="path232"
           style="fill:#ffffff;fill-opacity:1;fill-rule:evenodd;stroke:none"
           d="m 498.95,749.329 h 1.348 v -3.489 h -1.348 z" /></g></g><g
       transform="matrix(6.6651459,0,0,6.6651459,-3054.7372,-4493.1614)"
       id="g234"><g
         clip-path="url(#clipPath240)"
         id="g236"><g
           transform="translate(498.94994,745.33377)"
           id="g242"><path
             id="path244"
             style="fill:#ffffff;fill-opacity:1;fill-rule:evenodd;stroke:none"
             d="M 0,0 V -2.763 -3.37 H 1.348 V 0 Z" /></g></g></g><g
       transform="matrix(6.6651459,0,0,6.6651459,-3054.7372,-4493.1614)"
       id="g246"><g
         clip-path="url(#clipPath252)"
         id="g248"><g
           transform="translate(505.62003,745.32589)"
           id="g254"><path
             id="path256"
             style="fill:#ffffff;fill-opacity:1;fill-rule:evenodd;stroke:none"
             d="M 0,0 V -2.762 -3.37 H -1.348 V 0 Z" /></g></g></g><g
       transform="matrix(6.6651459,0,0,6.6651459,-3054.7372,-4493.1614)"
       id="g258"><g
         clip-path="url(#clipPath264)"
         id="g260"><g
           transform="translate(502.28111,758.97414)"
           id="g266"><path
             id="path268"
             style="fill:#ffcb05;fill-opacity:1;fill-rule:evenodd;stroke:none"
             d="m 0,0 c 0.381,0 0.69,-0.309 0.69,-0.69 0,-0.381 -0.309,-0.691 -0.69,-0.691 -0.381,0 -0.69,0.31 -0.69,0.691 C -0.69,-0.309 -0.381,0 0,0" /></g></g></g><g
       transform="matrix(6.6651459,0,0,6.6651459,-3054.7372,-4493.1614)"
       id="g270"><g
         clip-path="url(#clipPath276)"
         id="g272"><path
           id="path278"
           style="fill:#f04e23;fill-opacity:1;fill-rule:evenodd;stroke:none"
           d="m 497.742,729.635 h 1.421 v 2.924 h -1.421 z" /></g></g><g
       transform="matrix(6.6651459,0,0,6.6651459,-3054.7372,-4493.1614)"
       id="g280"><g
         clip-path="url(#clipPath286)"
         id="g282"><path
           id="path288"
           style="fill:#f04e23;fill-opacity:1;fill-rule:evenodd;stroke:none"
           d="m 505.383,729.653 h 1.421 v 2.924 h -1.421 z" /></g></g><g
       transform="matrix(6.6651459,0,0,6.6651459,-3054.7372,-4493.1614)"
       id="g290"><g
         clip-path="url(#clipPath296)"
         id="g292"><path
           id="path298"
           style="fill:#fffffb;fill-opacity:1;fill-rule:evenodd;stroke:none"
           d="m 499.163,729.152 h -1.421 v -11.016 h 1.421 z" /></g></g><g
       transform="matrix(6.6651459,0,0,6.6651459,-3054.7372,-4493.1614)"
       id="g300"><g
         clip-path="url(#clipPath306)"
         id="g302"><g
           transform="translate(506.80323,729.15147)"
           id="g308"><path
             id="path310"
             style="fill:#fffffb;fill-opacity:1;fill-rule:evenodd;stroke:none"
             d="M 0,0 H -1.421 V -11.006 L 0,-11 Z" /></g></g></g><g
       transform="matrix(6.6651459,0,0,6.6651459,-3054.7372,-4493.1614)"
       id="g312"><g
         clip-path="url(#clipPath318)"
         id="g314"><path
           id="path320"
           style="fill:#f04e23;fill-opacity:1;fill-rule:evenodd;stroke:none"
           d="m 504.861,729.152 h -5.177 v -2.693 h 5.177 z" /></g></g><g
       transform="matrix(6.6651459,0,0,6.6651459,-3054.7372,-4493.1614)"
       id="g322"><g
         clip-path="url(#clipPath328)"
         id="g324"><g
           transform="translate(499.62382,748.59835)"
           id="g330"><path
             id="path332"
             style="fill:#000000;fill-opacity:1;fill-rule:evenodd;stroke:none"
             d="M 0,0 V 0 C 0.219,0 0.397,-0.21 0.397,-0.467 V -2.76 h -0.794 v 2.293 C -0.397,-0.21 -0.219,0 0,0" /></g></g></g><g
       transform="matrix(6.6651459,0,0,6.6651459,-3054.7372,-4493.1614)"
       id="g334"><g
         clip-path="url(#clipPath340)"
         id="g336"><g
           transform="translate(499.50255,745.84829)"
           id="g342"><path
             id="path344"
             style="fill:#ffcb05;fill-opacity:1;fill-rule:evenodd;stroke:none"
             d="M 0,0 H 0.243 V 2.212 C 0.243,2.308 0.201,2.453 0.121,2.453 0.042,2.453 0,2.308 0,2.212 Z" /></g></g></g><g
       transform="matrix(6.6651459,0,0,6.6651459,-3054.7372,-4493.1614)"
       id="g346"><g
         clip-path="url(#clipPath352)"
         id="g348"><g
           transform="translate(502.28343,748.59615)"
           id="g354"><path
             id="path356"
             style="fill:#000000;fill-opacity:1;fill-rule:evenodd;stroke:none"
             d="m 0,0 v 0 c 0.463,0 0.841,-0.5 0.841,-1.112 v -1.645 h -1.682 v 1.645 C -0.841,-0.5 -0.463,0 0,0" /></g></g></g><g
       transform="matrix(6.6651459,0,0,6.6651459,-3054.7372,-4493.1614)"
       id="g358"><g
         clip-path="url(#clipPath364)"
         id="g360"><g
           transform="translate(501.74424,745.84829)"
           id="g366"><path
             id="path368"
             style="fill:#ffcb05;fill-opacity:1;fill-rule:evenodd;stroke:none"
             d="M 0,0 H 1.078 V 1.581 C 1.078,1.903 0.905,2.427 0.539,2.427 0.173,2.427 0,1.903 0,1.581 Z" /></g></g></g><g
       transform="matrix(6.6651459,0,0,6.6651459,-3054.7372,-4493.1614)"
       id="g370"><g
         clip-path="url(#clipPath376)"
         id="g372"><g
           transform="translate(504.87842,725.8828)"
           id="g378"><path
             id="path380"
             style="fill:#ffffff;fill-opacity:1;fill-rule:evenodd;stroke:none"
             d="m 0,0 v -7.747 h -0.415 v 4.365 c 0,1.136 -1.083,2.296 -1.945,2.854 l -0.252,0.163 -0.253,-0.163 C -3.727,-1.086 -4.81,-2.245 -4.81,-3.382 V -7.747 H -5.213 V 0 Z m -0.783,-7.747 h -0.3 v 4.255 c 0,0.828 -0.885,1.759 -1.523,2.202 -0.639,-0.443 -1.524,-1.374 -1.524,-2.202 v -4.255 h -0.299 v 4.214 c 0,0.986 0.997,2.037 1.737,2.521 l 0.086,0.056 0.086,-0.056 c 0.739,-0.484 1.737,-1.535 1.737,-2.521 z" /></g></g></g><g
       transform="matrix(6.6651459,0,0,6.6651459,-3054.7372,-4493.1614)"
       id="g382"><g
         clip-path="url(#clipPath388)"
         id="g384"><g
           transform="translate(501.14592,718.13568)"
           id="g390"><path
             id="path392"
             style="fill:#ffcb05;fill-opacity:1;fill-rule:evenodd;stroke:none"
             d="M 0,0 H 2.253 V 4.207 C 2.253,4.79 1.606,5.484 1.126,5.857 0.647,5.484 0,4.79 0,4.207 Z" /></g></g></g><g
       transform="matrix(6.6651459,0,0,6.6651459,-3054.7372,-4493.1614)"
       id="g394"><g
         clip-path="url(#clipPath400)"
         id="g396"><path
           id="path402"
           style="fill:#ffffff;fill-opacity:1;fill-rule:evenodd;stroke:none"
           d="m 504.264,749.329 h 1.348 v -3.489 h -1.348 z" /></g></g><g
       transform="matrix(6.6651459,0,0,6.6651459,-3054.7372,-4493.1614)"
       id="g404"><g
         clip-path="url(#clipPath410)"
         id="g406"><g
           transform="translate(504.93742,748.59835)"
           id="g412"><path
             id="path414"
             style="fill:#000000;fill-opacity:1;fill-rule:evenodd;stroke:none"
             d="M 0,0 V 0 C 0.219,0 0.397,-0.21 0.397,-0.467 V -2.76 h -0.794 v 2.293 C -0.397,-0.21 -0.219,0 0,0" /></g></g></g><g
       transform="matrix(6.6651459,0,0,6.6651459,-3054.7372,-4493.1614)"
       id="g416"><g
         clip-path="url(#clipPath422)"
         id="g418"><g
           transform="translate(504.81614,745.84829)"
           id="g424"><path
             id="path426"
             style="fill:#ffcb05;fill-opacity:1;fill-rule:evenodd;stroke:none"
             d="M 0,0 H 0.243 V 2.212 C 0.243,2.308 0.201,2.453 0.121,2.453 0.041,2.453 0,2.308 0,2.212 Z" /></g></g></g><g
       transform="matrix(6.6651459,0,0,6.6651459,-3054.7372,-4493.1614)"
       id="g428"><g
         clip-path="url(#clipPath434)"
         id="g430"><g
           transform="translate(514.02774,727.24736)"
           id="g436"><path
             id="path438"
             style="fill:#ffffff;fill-opacity:1;fill-rule:evenodd;stroke:none"
             d="M 0,0 -3.012,3.922 V -9.186 c 0.844,-0.207 1.676,-0.445 2.495,-0.71 L -0.523,0 Z" /></g></g></g><g
       transform="matrix(6.6651459,0,0,6.6651459,-3054.7372,-4493.1614)"
       id="g440"><g
         clip-path="url(#clipPath446)"
         id="g442"><g
           transform="translate(490.52914,727.24736)"
           id="g448"><path
             id="path450"
             style="fill:#ffffff;fill-opacity:1;fill-rule:evenodd;stroke:none"
             d="M 0,0 3.012,3.922 V -9.183 C 2.168,-9.39 1.336,-9.627 0.517,-9.892 L 0.523,0 Z" /></g></g></g><g
       transform="matrix(6.6651459,0,0,6.6651459,-3054.7372,-4493.1614)"
       id="g452"><g
         clip-path="url(#clipPath458)"
         id="g454"><g
           transform="translate(499.57814,741.53439)"
           id="g460"><path
             id="path462"
             style="fill:#fffffb;fill-opacity:1;fill-rule:evenodd;stroke:none"
             d="m 0,0 -6.001,-8.224 c 0.272,-0.194 0.45,-0.512 0.45,-0.871 0,-0.039 -0.002,-0.078 -0.007,-0.117 0.004,-0.078 0.003,-0.155 0.003,-0.228 l 0.003,-13.959 h 3.22 v 14.902 h 2.426 v -3.438 h 5.217 v 3.438 h 2.427 v -14.902 h 3.219 l 0.003,13.958 c -0.002,0.087 -0.002,0.167 0,0.243 -0.003,0.034 -0.005,0.068 -0.005,0.103 0,0.358 0.177,0.676 0.448,0.869 L 5.414,0 Z" /></g></g></g><g
       transform="matrix(6.6651459,0,0,6.6651459,-3054.7372,-4493.1614)"
       id="g464"><g
         clip-path="url(#clipPath470)"
         id="g466"><g
           transform="translate(498.40224,741.51151)"
           id="g472"><path
             id="path474"
             style="fill:#f04e23;fill-opacity:1;fill-rule:evenodd;stroke:none"
             d="m 0,0 -5.815,-7.928 c 0.285,0.012 0.403,-0.003 0.638,-0.111 L 0.676,0 Z" /></g></g></g><g
       transform="matrix(6.6651459,0,0,6.6651459,-3054.7372,-4493.1614)"
       id="g476"><g
         clip-path="url(#clipPath482)"
         id="g478"><g
           transform="translate(506.17213,741.51151)"
           id="g484"><path
             id="path486"
             style="fill:#f04e23;fill-opacity:1;fill-rule:evenodd;stroke:none"
             d="M 0,0 5.815,-7.928 C 5.53,-7.916 5.412,-7.931 5.177,-8.039 L -0.676,0 Z" /></g></g></g><g
       transform="matrix(6.6651459,0,0,6.6651459,-3054.7372,-4493.1614)"
       id="g488"><g
         clip-path="url(#clipPath494)"
         id="g490"><g
           transform="translate(502.28343,745.01376)"
           id="g496"><path
             id="path498"
             style="fill:#000000;fill-opacity:1;fill-rule:evenodd;stroke:none"
             d="m 0,0 c 0.758,0 1.373,-0.615 1.373,-1.373 0,-0.758 -0.615,-1.373 -1.373,-1.373 -0.758,0 -1.373,0.615 -1.373,1.373 C -1.373,-0.615 -0.758,0 0,0 m 0,-0.312 c -0.585,0 -1.061,-0.475 -1.061,-1.061 0,-0.585 0.476,-1.061 1.061,-1.061 0.586,0 1.061,0.476 1.061,1.061 0,0.586 -0.475,1.061 -1.061,1.061" /></g></g></g><g
       transform="matrix(6.6651459,0,0,6.6651459,-3054.7372,-4493.1614)"
       id="g500"><g
         clip-path="url(#clipPath506)"
         id="g502"><g
           transform="translate(504.20072,750.69729)"
           id="g508"><path
             id="path510"
             style="fill:#f04e23;fill-opacity:1;fill-rule:evenodd;stroke:none"
             d="M 0,0 H 2.088 L 1.871,0.223 -1.381,5.571 Z" /></g></g></g><g
       transform="matrix(6.6651459,0,0,6.6651459,-3054.7372,-4493.1614)"
       id="g512"><g
         clip-path="url(#clipPath518)"
         id="g514"><g
           transform="translate(500.36094,750.69729)"
           id="g520"><path
             id="path522"
             style="fill:#f04e23;fill-opacity:1;fill-rule:evenodd;stroke:none"
             d="M 0,0 1.381,5.571 -1.871,0.223 -2.088,0 Z" /></g></g></g><g
       transform="matrix(6.6651459,0,0,6.6651459,-3054.7372,-4493.1614)"
       id="g524"><g
         clip-path="url(#clipPath530)"
         id="g526"><g
           transform="translate(502.29933,756.69618)"
           id="g532"><path
             id="path534"
             style="fill:#f04e23;fill-opacity:1;fill-rule:evenodd;stroke:none"
             d="M 0,0 -1.48,-6.007 H 1.443 Z" /></g></g></g><g
       transform="matrix(6.6651459,0,0,6.6651459,-3054.7372,-4493.1614)"
       id="g536"><g
         clip-path="url(#clipPath542)"
         id="g538"><g
           transform="translate(465.20538,795.40915)"
           id="g544"><path
             id="path546"
             style="fill:#000000;fill-opacity:1;fill-rule:evenodd;stroke:none"
             d="m 0,0 c 0.442,-0.65 0.943,-1.262 1.487,-1.827 1.075,-1.117 2.362,-2.097 3.761,-2.772 1.23,-0.594 2.625,-0.986 4.002,-0.893 l 1.132,0.076 C 9.209,-7.602 7.567,-8.163 5.33,-7.721 5.763,-9.949 5.202,-11.592 3.016,-12.764 l 0.076,1.132 c 0.093,1.377 -0.298,2.772 -0.893,4.003 -0.675,1.398 -1.655,2.686 -2.772,3.761 -0.586,0.564 -1.223,1.082 -1.9,1.536 L -2.47,0 Z" /></g></g></g><g
       transform="matrix(6.6651459,0,0,6.6651459,-3054.7372,-4493.1614)"
       id="g548"><g
         clip-path="url(#clipPath554)"
         id="g550"><g
           transform="translate(472.69206,783.67881)"
           id="g556"><path
             id="path558"
             style="fill:#000000;fill-opacity:1;fill-rule:evenodd;stroke:none"
             d="M 0,0 0.38,-0.726 C 0.464,-0.886 0.558,-1.04 0.662,-1.187 0.857,-1.462 1.059,-1.734 1.26,-2.005 1.307,-2.068 1.355,-2.131 1.402,-2.194 L 1.515,-2.345 1.423,-2.51 C 1.273,-2.78 1.168,-3.09 1.121,-3.394 1.069,-3.737 1.087,-4.098 1.215,-4.423 1.425,-4.956 1.844,-5.25 2.39,-5.38 L 2.734,-5.462 2.587,-5.784 C 2.445,-6.093 2.396,-6.423 2.434,-6.761 2.528,-7.616 3.132,-8.314 3.945,-8.567 L 4.284,-8.673 4.113,-8.985 c -0.298,-0.543 -0.428,-1.161 -0.215,-1.76 0.159,-0.446 0.472,-0.779 0.877,-1.011 l 0.29,-0.167 -0.205,-0.264 c -0.358,-0.46 -0.536,-0.99 -0.393,-1.57 0.115,-0.469 0.42,-0.863 0.79,-1.163 l 0.265,-0.216 -0.255,-0.227 C 4.943,-15.651 4.743,-16.01 4.704,-16.444 4.652,-17.026 4.909,-17.58 5.285,-18.01 l 0.221,-0.254 -0.282,-0.182 c -0.508,-0.328 -0.826,-0.792 -0.81,-1.415 0.01,-0.409 0.179,-0.809 0.429,-1.129 l 0.185,-0.236 -0.242,-0.177 c -0.797,-0.585 -0.989,-1.749 -0.492,-2.589 l 0.174,-0.295 -0.319,-0.124 c -0.598,-0.232 -1.037,-0.633 -1.204,-1.269 -0.137,-0.523 -0.04,-1.111 0.167,-1.602 l 0.142,-0.337 -0.36,-0.062 C 2.244,-27.795 1.742,-28.145 1.48,-28.765 1.203,-29.42 1.3,-30.273 1.793,-30.802 l 0.164,-0.175 -2.361,-3.265 h -0.305 l -2.36,3.265 0.163,0.175 c 0.494,0.529 0.59,1.382 0.314,2.037 -0.262,0.62 -0.764,0.97 -1.414,1.084 l -0.36,0.062 0.142,0.337 c 0.207,0.491 0.304,1.079 0.167,1.602 -0.168,0.636 -0.607,1.037 -1.204,1.269 l -0.32,0.124 0.175,0.295 c 0.496,0.84 0.305,2.004 -0.493,2.589 l -0.241,0.177 0.184,0.236 c 0.25,0.32 0.419,0.72 0.43,1.129 0.016,0.623 -0.302,1.087 -0.81,1.415 l -0.283,0.182 0.222,0.254 c 0.376,0.43 0.632,0.984 0.58,1.566 -0.039,0.434 -0.239,0.793 -0.562,1.081 l -0.255,0.227 0.265,0.216 c 0.37,0.3 0.674,0.694 0.79,1.163 0.142,0.58 -0.036,1.11 -0.394,1.57 l -0.205,0.264 0.29,0.167 c 0.406,0.232 0.719,0.565 0.878,1.011 0.213,0.599 0.083,1.217 -0.216,1.76 l -0.171,0.312 0.34,0.106 c 0.813,0.253 1.416,0.951 1.511,1.806 0.037,0.338 -0.011,0.668 -0.153,0.977 l -0.148,0.322 0.345,0.082 c 0.545,0.13 0.965,0.424 1.175,0.957 0.128,0.325 0.146,0.686 0.094,1.029 -0.047,0.304 -0.153,0.614 -0.303,0.884 l -0.092,0.165 0.113,0.151 c 0.048,0.063 0.096,0.126 0.142,0.189 0.202,0.271 0.403,0.543 0.598,0.818 0.083,0.117 0.165,0.236 0.24,0.358 l 0.325,0.526 -0.005,0.27 0.001,0.012 c 0.06,0.893 -0.046,1.577 -0.666,2.246 l -0.155,0.12 c 0.037,0.491 -0.002,1.018 -0.106,1.583 -0.005,0.027 -0.01,0.054 -0.016,0.081 l 0.03,-0.005 C -1.623,3.906 -1.108,3.85 -0.594,3.875 L 1.807,2.374 1.826,2.363 1.888,2.309 2.69,2.138 C 2.866,2.1 3.044,2.074 3.224,2.06 3.561,2.035 3.898,2.016 4.235,1.998 4.314,1.993 4.393,1.99 4.472,1.986 L 4.661,1.977 4.729,1.801 C 4.84,1.513 5.011,1.234 5.216,1.003 5.446,0.745 5.735,0.527 6.067,0.418 6.612,0.239 7.106,0.375 7.554,0.711 L 7.837,0.924 7.99,0.604 C 8.138,0.299 8.361,0.05 8.644,-0.137 9.362,-0.61 10.285,-0.592 11,-0.128 l 0.298,0.193 0.13,-0.33 c 0.229,-0.579 0.618,-1.071 1.217,-1.29 0.443,-0.163 0.902,-0.134 1.339,0.029 l 0.313,0.116 0.072,-0.326 c 0.126,-0.571 0.418,-1.044 0.957,-1.306 0.435,-0.211 0.932,-0.228 1.399,-0.135 l 0.335,0.067 0.013,-0.342 c 0.015,-0.431 0.165,-0.818 0.473,-1.124 0.413,-0.411 1.004,-0.568 1.575,-0.553 l 0.336,0.009 -0.04,-0.334 c -0.072,-0.601 0.082,-1.141 0.571,-1.527 0.322,-0.253 0.738,-0.379 1.144,-0.391 l 0.299,-0.009 -0.018,-0.299 c -0.059,-0.984 0.717,-1.879 1.678,-2.033 l 0.338,-0.054 -0.109,-0.325 c -0.204,-0.608 -0.174,-1.202 0.208,-1.736 0.314,-0.44 0.829,-0.741 1.339,-0.896 l 0.349,-0.105 -0.181,-0.317 c -0.327,-0.571 -0.379,-1.184 -0.07,-1.78 0.327,-0.631 1.046,-1.103 1.767,-1.06 l 0.24,0.014 1.004,-3.901 -0.194,-0.235 -4.021,0.269 -0.03,0.237 c -0.091,0.718 -0.687,1.337 -1.367,1.543 -0.642,0.193 -1.236,0.03 -1.737,-0.397 l -0.278,-0.236 -0.168,0.324 c -0.246,0.474 -0.637,0.924 -1.126,1.152 -0.595,0.277 -1.186,0.196 -1.746,-0.116 l -0.299,-0.166 -0.115,0.322 c -0.33,0.919 -1.347,1.515 -2.307,1.275 l -0.291,-0.073 -0.064,0.293 c -0.086,0.397 -0.287,0.782 -0.594,1.052 -0.468,0.409 -1.029,0.461 -1.606,0.28 l -0.32,-0.101 -0.054,0.332 c -0.09,0.563 -0.354,1.117 -0.834,1.447 -0.359,0.249 -0.763,0.323 -1.191,0.259 l -0.339,-0.051 0.004,0.341 c 0.005,0.477 -0.103,0.963 -0.39,1.351 -0.356,0.482 -0.875,0.681 -1.459,0.7 l -0.334,0.011 0.057,0.329 c 0.079,0.461 0.023,0.915 -0.218,1.322 -0.326,0.548 -0.881,0.841 -1.492,0.958 l -0.349,0.068 0.136,0.328 c 0.323,0.788 0.172,1.699 -0.425,2.318 -0.235,0.243 -0.522,0.417 -0.85,0.506 l -0.341,0.092 0.156,0.317 c 0.249,0.503 0.291,1.013 0.014,1.515 -0.168,0.306 -0.434,0.551 -0.731,0.73 -0.264,0.158 -0.57,0.275 -0.873,0.332 L 2.014,-1.211 1.97,-1.028 C 1.952,-0.95 1.934,-0.874 1.915,-0.797 1.835,-0.469 1.755,-0.141 1.667,0.186 1.63,0.324 1.592,0.463 1.546,0.598 L 1.348,1.184 1.138,1.353 1.129,1.361 c -0.502,0.477 -0.97,0.797 -1.578,0.895 0.225,-0.684 0.34,-1.38 0.447,-2.152 L 0.001,0.082 Z" /></g></g></g><g
       transform="matrix(6.6651459,0,0,6.6651459,-3054.7372,-4493.1614)"
       id="g560"><g
         clip-path="url(#clipPath566)"
         id="g562"><g
           transform="translate(465.04708,795.10788)"
           id="g568"><path
             id="path570"
             style="fill:#b7552f;fill-opacity:1;fill-rule:evenodd;stroke:none"
             d="m 0,0 h -2.011 l -0.002,-1.872 c 0.642,-0.441 1.246,-0.938 1.807,-1.478 1.145,-1.102 2.143,-2.415 2.835,-3.847 0.618,-1.279 1.019,-2.723 0.922,-4.153 l -0.038,-0.564 c 1.609,1.044 2.068,2.44 1.68,4.437 l -0.086,0.44 0.44,-0.087 c 2,-0.395 3.399,0.058 4.445,1.671 L 9.428,-5.492 C 7.998,-5.588 6.554,-5.187 5.275,-4.569 3.842,-3.877 2.529,-2.879 1.428,-1.734 0.908,-1.195 0.429,-0.615 0,0" /></g></g></g><g
       transform="matrix(6.6651459,0,0,6.6651459,-3054.7372,-4493.1614)"
       id="g572"><g
         clip-path="url(#clipPath578)"
         id="g574"><g
           transform="translate(471.40477,782.69713)"
           id="g580"><path
             id="path582"
             style="fill:#ffcb05;fill-opacity:1;fill-rule:evenodd;stroke:none"
             d="m 0,0 c -0.071,-0.115 -0.154,-0.237 -0.25,-0.373 -0.197,-0.277 -0.399,-0.55 -0.602,-0.823 -0.046,-0.063 -0.094,-0.127 -0.143,-0.191 0.171,-0.305 0.285,-0.652 0.336,-0.982 0.06,-0.393 0.037,-0.806 -0.11,-1.179 -0.258,-0.653 -0.778,-0.99 -1.378,-1.133 0.156,-0.34 0.222,-0.721 0.177,-1.13 -0.11,-1 -0.82,-1.773 -1.714,-2.052 0.336,-0.611 0.48,-1.309 0.235,-1.998 -0.187,-0.524 -0.554,-0.906 -1.007,-1.166 0.398,-0.512 0.616,-1.127 0.446,-1.818 -0.13,-0.528 -0.465,-0.975 -0.888,-1.319 0.36,-0.321 0.61,-0.742 0.658,-1.273 0.059,-0.658 -0.219,-1.288 -0.652,-1.783 0.563,-0.364 0.963,-0.909 0.944,-1.666 -0.012,-0.466 -0.198,-0.926 -0.492,-1.301 0.911,-0.668 1.151,-1.99 0.572,-2.972 0.649,-0.251 1.18,-0.708 1.379,-1.466 0.149,-0.566 0.062,-1.214 -0.18,-1.789 0.702,-0.122 1.315,-0.507 1.632,-1.256 0.322,-0.762 0.202,-1.737 -0.369,-2.348 l 2.133,-2.951 h 0.008 l 2.133,2.951 c -0.571,0.611 -0.691,1.586 -0.369,2.348 0.317,0.749 0.93,1.134 1.632,1.256 -0.242,0.575 -0.329,1.223 -0.18,1.789 0.199,0.758 0.73,1.215 1.38,1.466 -0.58,0.982 -0.34,2.304 0.57,2.972 -0.293,0.375 -0.479,0.835 -0.491,1.301 -0.019,0.757 0.381,1.302 0.943,1.666 -0.432,0.495 -0.71,1.125 -0.651,1.783 0.048,0.531 0.299,0.952 0.659,1.273 -0.424,0.344 -0.759,0.791 -0.889,1.319 -0.17,0.691 0.048,1.306 0.446,1.818 -0.453,0.26 -0.82,0.642 -1.007,1.166 -0.245,0.689 -0.101,1.387 0.235,1.998 -0.894,0.279 -1.604,1.052 -1.714,2.052 -0.045,0.409 0.022,0.79 0.178,1.13 -0.601,0.143 -1.121,0.48 -1.378,1.133 -0.147,0.373 -0.171,0.786 -0.111,1.179 0.051,0.33 0.165,0.677 0.336,0.982 C 2.408,-1.323 2.36,-1.259 2.314,-1.196 2.111,-0.923 1.909,-0.65 1.713,-0.373 1.595,-0.208 1.496,-0.042 1.41,0.12 L 0.703,-30.408 Z" /></g></g></g><g
       transform="matrix(6.6651459,0,0,6.6651459,-3054.7372,-4493.1614)"
       id="g584"><g
         clip-path="url(#clipPath590)"
         id="g586"><g
           transform="translate(474.51317,784.37034)"
           id="g592"><path
             id="path594"
             style="fill:#ffcb05;fill-opacity:1;fill-rule:evenodd;stroke:none"
             d="M 0,0 C 0.043,-0.128 0.084,-0.27 0.127,-0.431 0.215,-0.76 0.296,-1.089 0.376,-1.419 0.395,-1.495 0.413,-1.573 0.432,-1.651 0.776,-1.715 1.116,-1.848 1.401,-2.02 1.743,-2.225 2.045,-2.507 2.238,-2.859 2.576,-3.474 2.503,-4.089 2.23,-4.642 c 0.361,-0.097 0.697,-0.289 0.983,-0.585 0.698,-0.724 0.84,-1.764 0.484,-2.63 0.684,-0.132 1.314,-0.467 1.687,-1.095 0.284,-0.479 0.343,-1.006 0.254,-1.52 0.648,-0.021 1.261,-0.246 1.684,-0.818 0.323,-0.438 0.453,-0.981 0.447,-1.526 0.477,0.072 0.961,-0.004 1.4,-0.306 0.544,-0.376 0.851,-0.992 0.956,-1.641 0.639,0.201 1.314,0.16 1.884,-0.339 0.35,-0.306 0.586,-0.743 0.687,-1.209 1.096,0.274 2.267,-0.386 2.651,-1.458 0.609,0.339 1.299,0.455 2.009,0.125 0.532,-0.248 0.974,-0.728 1.262,-1.282 0.542,0.462 1.23,0.688 2.009,0.454 0.792,-0.24 1.466,-0.955 1.572,-1.784 l 3.632,-0.244 0.005,0.006 -0.908,3.526 c -0.835,-0.049 -1.661,0.482 -2.042,1.217 -0.374,0.722 -0.279,1.44 0.075,2.058 -0.596,0.181 -1.15,0.527 -1.491,1.004 -0.455,0.637 -0.468,1.337 -0.247,1.998 -1.125,0.18 -1.989,1.21 -1.921,2.337 -0.476,0.014 -0.949,0.165 -1.315,0.453 -0.595,0.469 -0.759,1.125 -0.68,1.79 -0.657,-0.017 -1.319,0.171 -1.788,0.638 -0.378,0.376 -0.541,0.838 -0.558,1.319 -0.535,-0.106 -1.093,-0.078 -1.583,0.159 -0.64,0.311 -0.974,0.872 -1.114,1.505 -0.489,-0.182 -1.017,-0.221 -1.54,-0.03 -0.686,0.252 -1.132,0.809 -1.387,1.456 C 8.551,-1.573 7.503,-1.625 6.663,-1.071 6.32,-0.845 6.069,-0.55 5.907,-0.213 5.414,-0.583 4.822,-0.768 4.155,-0.549 3.774,-0.424 3.442,-0.179 3.177,0.119 2.956,0.368 2.762,0.678 2.636,1.004 2.556,1.008 2.476,1.012 2.398,1.016 2.059,1.035 1.72,1.053 1.381,1.079 1.179,1.094 0.988,1.124 0.808,1.162 l 23.037,-20.044 z" /></g></g></g><g
       transform="matrix(6.6651459,0,0,6.6651459,-3054.7372,-4493.1614)"
       id="g596"><g
         clip-path="url(#clipPath602)"
         id="g598"><g
           transform="translate(470.99098,786.13945)"
           id="g604"><path
             id="path606"
             style="fill:#b7552f;fill-opacity:1;fill-rule:evenodd;stroke:none"
             d="m 0,0 c 0.618,-0.667 0.85,-1.41 0.777,-2.501 l 0.34,-20.671 0.294,20.775 C 1.27,-1.378 1.138,-0.615 0.878,0.118 1.678,0.111 2.302,-0.197 3.03,-0.889 L 19.152,-13.831 3.355,-0.334 1.297,1.031 1.046,1.187 c -0.409,-0.014 -0.82,0.02 -1.225,0.084 0.035,-0.224 0.061,-0.45 0.074,-0.677 l 0.016,-0.519 z" /></g></g></g><g
       transform="matrix(6.6651459,0,0,6.6651459,-3054.7372,-4493.1614)"
       id="g608"><g
         clip-path="url(#clipPath614)"
         id="g610"><g
           transform="translate(539.69147,795.40915)"
           id="g616"><path
             id="path618"
             style="fill:#000000;fill-opacity:1;fill-rule:evenodd;stroke:none"
             d="m 0,0 c -0.442,-0.65 -0.943,-1.262 -1.487,-1.827 -1.075,-1.117 -2.362,-2.097 -3.761,-2.772 -1.23,-0.594 -2.625,-0.986 -4.001,-0.893 l -1.133,0.076 c 1.173,-2.186 2.815,-2.747 5.052,-2.305 -0.433,-2.228 0.128,-3.871 2.314,-5.043 l -0.076,1.132 c -0.093,1.377 0.298,2.772 0.893,4.003 0.675,1.398 1.655,2.686 2.772,3.761 0.586,0.564 1.223,1.082 1.9,1.536 L 2.47,0 Z" /></g></g></g><g
       transform="matrix(6.6651459,0,0,6.6651459,-3054.7372,-4493.1614)"
       id="g620"><g
         clip-path="url(#clipPath626)"
         id="g622"><g
           transform="translate(532.20472,783.67881)"
           id="g628"><path
             id="path630"
             style="fill:#000000;fill-opacity:1;fill-rule:evenodd;stroke:none"
             d="M 0,0 -0.38,-0.726 C -0.464,-0.886 -0.558,-1.04 -0.662,-1.187 -0.857,-1.462 -1.059,-1.734 -1.26,-2.005 -1.307,-2.068 -1.355,-2.131 -1.402,-2.194 l -0.113,-0.151 0.092,-0.165 c 0.15,-0.27 0.255,-0.58 0.302,-0.884 0.052,-0.343 0.034,-0.704 -0.094,-1.029 -0.21,-0.533 -0.629,-0.827 -1.174,-0.957 l -0.345,-0.082 0.148,-0.322 c 0.141,-0.309 0.19,-0.639 0.153,-0.977 -0.095,-0.855 -0.699,-1.553 -1.512,-1.806 l -0.339,-0.106 0.171,-0.312 c 0.298,-0.543 0.428,-1.161 0.215,-1.76 -0.159,-0.446 -0.472,-0.779 -0.878,-1.011 l -0.289,-0.167 0.205,-0.264 c 0.358,-0.46 0.536,-0.99 0.393,-1.57 -0.115,-0.469 -0.42,-0.863 -0.79,-1.163 l -0.265,-0.216 0.255,-0.227 c 0.324,-0.288 0.524,-0.647 0.563,-1.081 0.052,-0.582 -0.205,-1.136 -0.581,-1.566 l -0.221,-0.254 0.282,-0.182 c 0.508,-0.328 0.826,-0.792 0.81,-1.415 -0.01,-0.409 -0.179,-0.809 -0.43,-1.129 l -0.184,-0.236 0.242,-0.177 c 0.797,-0.585 0.989,-1.749 0.492,-2.589 l -0.174,-0.295 0.319,-0.124 c 0.598,-0.232 1.037,-0.633 1.204,-1.269 0.137,-0.523 0.04,-1.111 -0.167,-1.602 l -0.142,-0.337 0.36,-0.062 c 0.65,-0.114 1.152,-0.464 1.414,-1.084 0.277,-0.655 0.18,-1.508 -0.313,-2.037 l -0.164,-0.175 2.361,-3.265 h 0.305 l 2.36,3.265 -0.163,0.175 c -0.494,0.529 -0.59,1.382 -0.313,2.037 0.261,0.62 0.763,0.97 1.413,1.084 l 0.36,0.062 -0.142,0.337 c -0.207,0.491 -0.304,1.079 -0.166,1.602 0.167,0.636 0.606,1.037 1.203,1.269 l 0.32,0.124 -0.175,0.295 c -0.496,0.84 -0.305,2.004 0.493,2.589 l 0.241,0.177 -0.184,0.236 c -0.25,0.32 -0.419,0.72 -0.43,1.129 -0.016,0.623 0.302,1.087 0.81,1.415 l 0.283,0.182 -0.222,0.254 c -0.376,0.43 -0.632,0.984 -0.58,1.566 0.039,0.434 0.239,0.793 0.562,1.081 l 0.255,0.227 -0.265,0.216 c -0.37,0.3 -0.674,0.694 -0.79,1.163 -0.142,0.58 0.036,1.11 0.394,1.57 l 0.205,0.264 -0.29,0.167 c -0.406,0.232 -0.719,0.565 -0.878,1.011 -0.213,0.599 -0.083,1.217 0.216,1.76 l 0.171,0.312 -0.339,0.106 c -0.814,0.253 -1.417,0.951 -1.512,1.806 -0.038,0.338 0.011,0.668 0.153,0.977 L 3.847,-5.462 3.502,-5.38 C 2.957,-5.25 2.537,-4.956 2.328,-4.423 2.199,-4.098 2.181,-3.737 2.234,-3.394 2.28,-3.09 2.386,-2.78 2.536,-2.51 l 0.092,0.165 -0.113,0.151 C 2.467,-2.131 2.419,-2.068 2.373,-2.005 2.171,-1.734 1.97,-1.462 1.775,-1.187 1.692,-1.07 1.61,-0.951 1.535,-0.829 l -0.325,0.526 0.005,0.27 -0.001,0.012 C 1.154,0.872 1.26,1.556 1.88,2.225 l 0.154,0.12 C 1.998,2.836 2.037,3.363 2.141,3.928 2.146,3.955 2.151,3.982 2.157,4.009 L 2.127,4.004 C 1.623,3.906 1.108,3.85 0.595,3.875 L -1.807,2.374 -1.826,2.363 -1.888,2.309 -2.69,2.138 C -2.866,2.1 -3.044,2.074 -3.224,2.06 -3.561,2.035 -3.898,2.016 -4.235,1.998 -4.315,1.993 -4.393,1.99 -4.472,1.986 L -4.661,1.977 -4.729,1.801 C -4.84,1.513 -5.011,1.234 -5.216,1.003 -5.446,0.745 -5.735,0.527 -6.067,0.418 -6.612,0.239 -7.106,0.375 -7.554,0.711 L -7.837,0.924 -7.99,0.604 C -8.138,0.299 -8.361,0.05 -8.644,-0.137 -9.362,-0.61 -10.285,-0.592 -11,-0.128 l -0.298,0.193 -0.13,-0.33 c -0.229,-0.579 -0.618,-1.071 -1.217,-1.29 -0.443,-0.163 -0.902,-0.134 -1.339,0.029 l -0.313,0.116 -0.072,-0.326 c -0.126,-0.571 -0.418,-1.044 -0.957,-1.306 -0.435,-0.211 -0.932,-0.228 -1.399,-0.135 l -0.335,0.067 -0.013,-0.342 c -0.014,-0.431 -0.164,-0.818 -0.472,-1.124 -0.414,-0.411 -1.005,-0.568 -1.576,-0.553 l -0.336,0.009 0.04,-0.334 c 0.072,-0.601 -0.082,-1.141 -0.571,-1.527 -0.322,-0.253 -0.738,-0.379 -1.144,-0.391 l -0.299,-0.009 0.018,-0.299 c 0.059,-0.984 -0.717,-1.879 -1.677,-2.033 l -0.339,-0.054 0.109,-0.325 c 0.204,-0.608 0.174,-1.202 -0.208,-1.736 -0.314,-0.44 -0.829,-0.741 -1.339,-0.896 l -0.35,-0.105 0.183,-0.317 c 0.326,-0.571 0.378,-1.184 0.069,-1.78 -0.327,-0.631 -1.046,-1.103 -1.767,-1.06 l -0.239,0.014 -1.005,-3.901 0.194,-0.235 4.021,0.269 0.03,0.237 c 0.091,0.718 0.687,1.337 1.367,1.543 0.642,0.193 1.236,0.03 1.737,-0.397 l 0.278,-0.236 0.168,0.324 c 0.246,0.474 0.637,0.924 1.126,1.152 0.595,0.277 1.186,0.196 1.746,-0.116 l 0.299,-0.166 0.115,0.322 c 0.33,0.919 1.347,1.515 2.307,1.275 l 0.291,-0.073 0.064,0.293 c 0.086,0.397 0.287,0.782 0.594,1.052 0.468,0.409 1.029,0.461 1.606,0.28 l 0.32,-0.101 0.054,0.332 c 0.09,0.563 0.354,1.117 0.834,1.447 0.359,0.249 0.763,0.323 1.191,0.259 l 0.339,-0.051 -0.004,0.341 c -0.005,0.477 0.103,0.963 0.39,1.351 0.357,0.482 0.875,0.681 1.459,0.7 l 0.334,0.011 -0.057,0.329 c -0.079,0.461 -0.023,0.915 0.218,1.322 0.326,0.548 0.881,0.841 1.492,0.958 l 0.349,0.068 -0.136,0.328 c -0.323,0.788 -0.172,1.699 0.425,2.318 0.236,0.243 0.522,0.417 0.85,0.506 l 0.341,0.092 -0.157,0.317 c -0.248,0.503 -0.29,1.013 -0.013,1.515 0.168,0.306 0.434,0.551 0.731,0.73 0.264,0.158 0.57,0.275 0.873,0.332 l 0.186,0.034 0.044,0.183 c 0.018,0.078 0.036,0.154 0.055,0.231 0.08,0.328 0.16,0.656 0.248,0.983 0.037,0.138 0.075,0.277 0.121,0.412 l 0.198,0.586 0.21,0.169 0.009,0.008 c 0.502,0.477 0.97,0.797 1.578,0.895 C 0.224,1.572 0.109,0.876 0.002,0.104 L -0.001,0.082 Z" /></g></g></g><g
       transform="matrix(6.6651459,0,0,6.6651459,-3054.7372,-4493.1614)"
       id="g632"><g
         clip-path="url(#clipPath638)"
         id="g634"><g
           transform="translate(539.84979,795.10788)"
           id="g640"><path
             id="path642"
             style="fill:#b7552f;fill-opacity:1;fill-rule:evenodd;stroke:none"
             d="M 0,0 H 2.011 L 2.013,-1.872 C 1.371,-2.313 0.767,-2.81 0.206,-3.35 -0.939,-4.452 -1.937,-5.765 -2.629,-7.197 -3.247,-8.476 -3.648,-9.92 -3.551,-11.35 l 0.038,-0.564 c -1.609,1.044 -2.068,2.44 -1.68,4.437 l 0.086,0.44 -0.44,-0.087 c -2.001,-0.395 -3.399,0.058 -4.445,1.671 l 0.564,-0.039 c 1.43,-0.096 2.874,0.305 4.153,0.923 1.433,0.692 2.746,1.69 3.847,2.835 C -0.909,-1.195 -0.429,-0.615 0,0" /></g></g></g><g
       transform="matrix(6.6651459,0,0,6.6651459,-3054.7372,-4493.1614)"
       id="g644"><g
         clip-path="url(#clipPath650)"
         id="g646"><g
           transform="translate(533.49201,782.69713)"
           id="g652"><path
             id="path654"
             style="fill:#ffcb05;fill-opacity:1;fill-rule:evenodd;stroke:none"
             d="M 0,0 C 0.071,-0.115 0.154,-0.237 0.25,-0.373 0.447,-0.65 0.649,-0.923 0.852,-1.196 0.898,-1.259 0.947,-1.323 0.995,-1.387 0.824,-1.692 0.71,-2.039 0.659,-2.369 0.599,-2.762 0.623,-3.175 0.769,-3.548 1.027,-4.201 1.547,-4.538 2.147,-4.681 1.992,-5.021 1.925,-5.402 1.97,-5.811 c 0.111,-1 0.82,-1.773 1.714,-2.052 -0.336,-0.611 -0.48,-1.309 -0.235,-1.998 0.187,-0.524 0.554,-0.906 1.007,-1.166 -0.398,-0.512 -0.616,-1.127 -0.446,-1.818 0.13,-0.528 0.465,-0.975 0.889,-1.319 -0.361,-0.321 -0.611,-0.742 -0.659,-1.273 -0.059,-0.658 0.219,-1.288 0.651,-1.783 -0.562,-0.364 -0.962,-0.909 -0.943,-1.666 0.013,-0.466 0.198,-0.926 0.491,-1.301 -0.91,-0.668 -1.15,-1.99 -0.57,-2.972 -0.65,-0.251 -1.181,-0.708 -1.38,-1.466 -0.149,-0.566 -0.062,-1.214 0.18,-1.789 -0.702,-0.122 -1.315,-0.507 -1.631,-1.256 -0.323,-0.762 -0.203,-1.737 0.368,-2.348 l -2.133,-2.951 h -0.008 l -2.133,2.951 c 0.571,0.611 0.691,1.586 0.369,2.348 -0.317,0.749 -0.93,1.134 -1.632,1.256 0.242,0.575 0.329,1.223 0.18,1.789 -0.199,0.758 -0.73,1.215 -1.38,1.466 0.58,0.982 0.34,2.304 -0.57,2.972 0.293,0.375 0.479,0.835 0.491,1.301 0.019,0.757 -0.381,1.302 -0.943,1.666 0.432,0.495 0.71,1.125 0.651,1.783 -0.048,0.531 -0.299,0.952 -0.658,1.273 0.423,0.344 0.758,0.791 0.888,1.319 0.17,0.691 -0.048,1.306 -0.446,1.818 0.453,0.26 0.82,0.642 1.007,1.166 0.245,0.689 0.101,1.387 -0.235,1.998 0.894,0.279 1.604,1.052 1.714,2.052 0.045,0.409 -0.022,0.79 -0.177,1.13 0.6,0.143 1.12,0.48 1.377,1.133 0.148,0.373 0.171,0.786 0.111,1.179 -0.051,0.33 -0.165,0.677 -0.336,0.982 0.049,0.064 0.097,0.128 0.143,0.191 0.203,0.273 0.405,0.546 0.601,0.823 0.118,0.165 0.218,0.331 0.303,0.493 l 0.707,-30.528 z" /></g></g></g><g
       transform="matrix(6.6651459,0,0,6.6651459,-3054.7372,-4493.1614)"
       id="g656"><g
         clip-path="url(#clipPath662)"
         id="g658"><g
           transform="translate(530.38362,784.37034)"
           id="g664"><path
             id="path666"
             style="fill:#ffcb05;fill-opacity:1;fill-rule:evenodd;stroke:none"
             d="m 0,0 c -0.043,-0.128 -0.084,-0.27 -0.127,-0.431 -0.088,-0.329 -0.169,-0.658 -0.249,-0.988 -0.019,-0.076 -0.037,-0.154 -0.056,-0.232 -0.344,-0.064 -0.684,-0.197 -0.969,-0.369 -0.342,-0.205 -0.644,-0.487 -0.837,-0.839 -0.338,-0.615 -0.265,-1.23 0.008,-1.783 -0.361,-0.097 -0.697,-0.289 -0.983,-0.585 -0.698,-0.724 -0.84,-1.764 -0.484,-2.63 -0.684,-0.132 -1.314,-0.467 -1.687,-1.095 -0.284,-0.479 -0.343,-1.006 -0.254,-1.52 -0.648,-0.021 -1.261,-0.246 -1.684,-0.818 -0.323,-0.438 -0.453,-0.981 -0.447,-1.526 -0.477,0.072 -0.961,-0.004 -1.4,-0.306 -0.544,-0.376 -0.851,-0.992 -0.956,-1.641 -0.639,0.201 -1.314,0.16 -1.884,-0.339 -0.35,-0.306 -0.586,-0.743 -0.687,-1.209 -1.096,0.274 -2.267,-0.386 -2.651,-1.458 -0.609,0.339 -1.299,0.455 -2.009,0.125 -0.531,-0.248 -0.974,-0.728 -1.262,-1.282 -0.542,0.462 -1.23,0.688 -2.009,0.454 -0.792,-0.24 -1.466,-0.955 -1.572,-1.784 l -3.632,-0.244 -0.005,0.006 0.908,3.526 c 0.835,-0.049 1.661,0.482 2.042,1.217 0.374,0.722 0.279,1.44 -0.075,2.058 0.596,0.181 1.15,0.527 1.491,1.004 0.456,0.637 0.468,1.337 0.247,1.998 1.125,0.18 1.989,1.21 1.921,2.337 0.477,0.014 0.949,0.165 1.315,0.453 0.595,0.469 0.759,1.125 0.68,1.79 0.657,-0.017 1.319,0.171 1.788,0.638 0.378,0.376 0.541,0.838 0.558,1.319 0.535,-0.106 1.093,-0.078 1.583,0.159 0.64,0.311 0.974,0.872 1.114,1.505 0.489,-0.182 1.017,-0.221 1.54,-0.03 0.686,0.252 1.132,0.809 1.387,1.456 0.786,-0.509 1.834,-0.561 2.674,-0.007 0.343,0.226 0.594,0.521 0.756,0.858 0.493,-0.37 1.085,-0.555 1.752,-0.336 0.381,0.125 0.713,0.37 0.978,0.668 0.221,0.249 0.415,0.559 0.541,0.885 0.08,0.004 0.16,0.008 0.238,0.012 0.339,0.019 0.678,0.037 1.017,0.063 0.202,0.015 0.393,0.045 0.573,0.083 l -23.037,-20.044 z" /></g></g></g><g
       transform="matrix(6.6651459,0,0,6.6651459,-3054.7372,-4493.1614)"
       id="g668"><g
         clip-path="url(#clipPath674)"
         id="g670"><g
           transform="translate(533.90577,786.13945)"
           id="g676"><path
             id="path678"
             style="fill:#b7552f;fill-opacity:1;fill-rule:evenodd;stroke:none"
             d="m 0,0 c -0.619,-0.667 -0.85,-1.41 -0.777,-2.501 l -0.34,-20.671 -0.294,20.775 c 0.142,1.019 0.273,1.782 0.533,2.515 -0.8,-0.007 -1.424,-0.315 -2.152,-1.007 l -16.122,-12.942 15.797,13.497 2.058,1.365 0.25,0.156 C -0.636,1.173 -0.226,1.207 0.179,1.271 0.144,1.047 0.118,0.821 0.105,0.594 L 0.089,0.075 Z" /></g></g></g><g
       id="g680"><g
         clip-path="url(#clipPath686)"
         id="g682"><g
           id="g688"><g
             id="g690" /><g
             id="g700"><g
               id="g698"
               clip-path="url(#clipPath694)"><g
                 id="g696" /></g></g></g><g
           id="g702"><g
             id="g704" /><g
             id="g714"><g
               id="g712"
               clip-path="url(#clipPath708)"><g
                 id="g710" /></g></g></g><g
           id="g716"><g
             id="g718" /><g
             id="g728"><g
               id="g726"
               clip-path="url(#clipPath722)"><g
                 id="g724" /></g></g></g></g></g><g
       id="g730"><g
         clip-path="url(#clipPath736)"
         id="g732"><g
           id="g738"><g
             id="g740" /><g
             id="g750"><g
               id="g748"
               clip-path="url(#clipPath744)"><g
                 id="g746" /></g></g></g></g></g></g></svg>