<?xml version="1.0" encoding="UTF-8" standalone="no"?>
<svg
   xmlns:dc="http://purl.org/dc/elements/1.1/"
   xmlns:cc="http://creativecommons.org/ns#"
   xmlns:rdf="http://www.w3.org/1999/02/22-rdf-syntax-ns#"
   xmlns:svg="http://www.w3.org/2000/svg"
   xmlns="http://www.w3.org/2000/svg"
   viewBox="0 0 1092.2841 1587.4"
   height="1587.4"
   width="1092.2841"
   xml:space="preserve"
   id="svg2"
   version="1.1"><metadata
     id="metadata8"><rdf:RDF><cc:Work
         rdf:about=""><dc:format>image/svg+xml</dc:format><dc:type
           rdf:resource="http://purl.org/dc/dcmitype/StillImage" /></cc:Work></rdf:RDF></metadata><defs
     id="defs6"><clipPath
       id="clipPath20"
       clipPathUnits="userSpaceOnUse"><path
         id="path18"
         d="M 32768,32768 H -32768 V -32768 H 32768 Z" /></clipPath><clipPath
       id="clipPath30"
       clipPathUnits="userSpaceOnUse"><path
         id="path28"
         d="M 0,0 H 819.213 V 1190.551 H 0 Z" /></clipPath><clipPath
       id="clipPath42"
       clipPathUnits="userSpaceOnUse"><path
         id="path40"
         d="M 0,0 H 819.213 V 1190.551 H 0 Z" /></clipPath><clipPath
       id="clipPath54"
       clipPathUnits="userSpaceOnUse"><path
         id="path52"
         d="M 0,0 H 819.213 V 1190.551 H 0 Z" /></clipPath><clipPath
       id="clipPath66"
       clipPathUnits="userSpaceOnUse"><path
         id="path64"
         d="M 0,0 H 819.213 V 1190.551 H 0 Z" /></clipPath><clipPath
       id="clipPath78"
       clipPathUnits="userSpaceOnUse"><path
         id="path76"
         d="M 0,0 H 819.213 V 1190.551 H 0 Z" /></clipPath><clipPath
       id="clipPath90"
       clipPathUnits="userSpaceOnUse"><path
         id="path88"
         d="M 0,0 H 819.213 V 1190.551 H 0 Z" /></clipPath></defs><g
     transform="matrix(1.3333333,0,0,-1.3333333,0,1587.4)"
     id="g10"><g
       id="g12"><g
         id="g14"><g
           clip-path="url(#clipPath20)"
           id="g16"><g
             id="g22" /></g></g></g><g
       transform="matrix(22.912872,0,0,22.912872,-14616.897,-22896.587)"
       id="g24"><g
         clip-path="url(#clipPath30)"
         id="g26"><g
           transform="translate(673.26824,1027.5894)"
           id="g32"><path
             id="path34"
             style="fill:#000000;fill-opacity:1;fill-rule:nonzero;stroke:none"
             d="m 0,0 c 0,-9.234 -8.616,-16.618 -17.443,-18.102 -8.5,1.505 -17.445,8.85 -17.445,18.159 L -34.906,0 V 23.06 H 0 Z" /></g></g></g><g
       transform="matrix(22.912872,0,0,22.912872,-14616.896,-22896.587)"
       id="g36"><g
         clip-path="url(#clipPath42)"
         id="g38"><g
           transform="translate(673.04072,1027.6319)"
           id="g44"><path
             id="path46"
             style="fill:#fff200;fill-opacity:1;fill-rule:nonzero;stroke:none"
             d="m 0,0 c 0,-9.116 -8.509,-16.406 -17.223,-17.872 -8.391,1.484 -17.219,8.737 -17.219,17.929 L -34.463,0 V 22.763 H 0 Z" /></g></g></g><g
       transform="matrix(22.912872,0,0,22.912872,-14616.895,-22896.587)"
       id="g48"><g
         clip-path="url(#clipPath54)"
         id="g50"><g
           transform="translate(672.4769,1027.6743)"
           id="g56"><path
             id="path58"
             style="fill:#000000;fill-opacity:1;fill-rule:nonzero;stroke:none"
             d="m 0,0 c 0.055,-8.579 -7.782,-15.705 -16.693,-17.334 -8.079,1.472 -16.641,8.737 -16.603,17.386 L -33.316,0 V 22.184 H 0 Z" /></g></g></g><g
       transform="matrix(22.912872,0,0,22.912872,-14616.896,-22896.587)"
       id="g60"><g
         clip-path="url(#clipPath66)"
         id="g62"><g
           transform="translate(671.77052,1027.8364)"
           id="g68"><path
             id="path70"
             style="fill:#007db7;fill-opacity:1;fill-rule:nonzero;stroke:none"
             d="m 0,0 c 0,-8.244 -7.721,-15.174 -15.993,-16.656 -7.916,1.482 -15.904,8.412 -15.904,16.706 L -31.914,0 V 21.316 H 0 Z" /></g></g></g><g
       transform="matrix(22.912872,0,0,22.912872,-14616.895,-22896.587)"
       id="g72"><g
         clip-path="url(#clipPath78)"
         id="g74"><g
           transform="translate(656.81943,1043.9866)"
           id="g80"><path
             id="path82"
             style="fill:#fff200;fill-opacity:1;fill-rule:nonzero;stroke:none"
             d="M 0,0 C -0.097,-0.527 -0.135,-0.641 -0.249,-0.811 -0.155,-1.3 -0.285,-1.848 -0.437,-2.131 -0.343,-2.301 0.13,-2.283 0.336,-1.622 0.415,-1.094 0.394,-0.51 0.203,0 L 0.433,4.414 0.224,4.471 Z M 0.658,-1.961 1.355,4.132 1.131,4.244 0.452,-1.904 c -0.076,-0.624 -0.491,-0.567 -0.701,-0.661 0.132,-0.397 -0.016,-1.094 -0.112,-1.321 0.188,-0.057 0.625,0.151 0.737,0.624 0.17,0.64 0.188,0.659 0.282,1.301 M 0.528,-3.339 C 0.203,-4.15 -0.039,-3.98 -0.249,-4.15 c 0.114,-0.396 -0.016,-1.019 -0.15,-1.264 0.569,-0.282 0.963,1.227 0.927,2.075 m 0,-2.641 1.618,9.752 -0.203,0.096 -1.434,-8.64 C 0.358,-5.584 0.036,-5.546 -0.249,-5.848 -0.155,-6.224 -0.285,-6.903 -0.474,-7.13 0.13,-7.451 0.452,-6.224 0.528,-5.98 m -2.303,6.02 c 0.17,-0.719 0.112,-0.567 0.246,-0.831 -0.112,-0.397 0.036,-1.095 0.206,-1.304 -0.055,-0.188 -0.604,-0.148 -0.811,0.491 -0.056,0.549 -0.056,1.131 0.132,1.644 L -2.227,4.432 -2.02,4.49 Z m -0.661,-1.983 -0.715,6.093 0.226,0.132 0.698,-6.149 c 0.073,-0.622 0.47,-0.566 0.698,-0.68 -0.173,-0.451 0.018,-1.112 0.093,-1.32 -0.187,-0.056 -0.584,0.132 -0.718,0.641 -0.168,0.661 -0.206,0.661 -0.282,1.283 m 0.114,-1.376 c 0.34,-0.792 0.565,-0.642 0.772,-0.813 -0.073,-0.282 -0.152,-0.809 0.133,-1.319 -0.641,-0.245 -0.925,1.264 -0.905,2.132 m 0,-2.623 -1.624,9.753 0.228,0.094 1.434,-8.64 c 0.13,-0.811 0.489,-0.773 0.755,-1.075 -0.134,-0.34 -0.021,-1.132 0.206,-1.282 -0.585,-0.34 -0.925,0.887 -0.999,1.15 m 1.302,6.075 v 4.469 h 0.264 V 0.133 c 0.132,-0.473 0.451,-0.754 0.451,-1.208 0,-0.283 -0.056,-0.735 -0.188,-0.98 -0.113,0.112 -0.377,0.697 -0.415,0.885 -0.076,-0.264 -0.244,-0.64 -0.379,-0.829 -0.11,0.245 -0.186,0.641 -0.186,0.944 0,0.528 0.321,0.773 0.453,1.188 m 0.112,-1.509 c 0.17,-0.549 0.643,-1.077 0.623,-1.586 0,-0.226 -0.039,-0.565 -0.133,-0.811 -0.226,0.396 -0.396,0.775 -0.47,1.038 -0.077,-0.263 -0.264,-0.66 -0.49,-1.018 -0.077,0.226 -0.133,0.546 -0.133,0.811 0,0.623 0.452,0.981 0.603,1.566 m 0,-1.604 c 0.17,-0.585 0.603,-1.037 0.603,-1.546 0,-0.227 -0.056,-0.509 -0.15,-0.755 -0.095,0.246 -0.395,0.735 -0.471,1.055 -0.058,-0.282 -0.361,-0.847 -0.452,-1.113 -0.115,0.208 -0.151,0.549 -0.151,0.831 0,0.622 0.47,0.887 0.621,1.528 m 0,-1.49 c 0.152,-0.529 0.603,-1.038 0.603,-1.584 0,-0.527 -0.15,-1.226 -0.583,-1.226 -0.453,0 -0.605,0.659 -0.605,1.244 0,0.604 0.455,1.019 0.585,1.566 m 0,-5.528 0.791,0.849 -0.263,0.283 -0.019,1.604 -0.132,0.038 c -0.093,-0.17 -0.583,-0.227 -0.756,0.018 l -0.149,-0.018 v -2.171 z m 1.83,-0.244 -0.81,-0.793 0.264,-0.282 -1.341,-1.358 0.83,-0.83 1.302,1.264 v 1.754 z m -3.076,-3.81 -0.318,-0.302 v -1.528 l 1.546,-1.528 0.791,0.811 -1.47,1.49 0.227,0.264 z m 3.097,-3.697 -0.755,-0.811 0.264,-0.265 -10.245,-10.092 1.188,-0.753 9.754,9.864 v 1.793 z m -1.172,-3.697 -1.018,-1.02 v -10.28 l 0.245,-0.036 0.942,0.206 0.039,10.922 z m -1.037,1.64 -0.83,0.793 -0.376,-0.34 v -1.528 l 0.206,-0.264 0.943,0.962 -0.132,0.151 z m 2.227,4.508 -0.716,-0.754 0.246,-0.303 -1.437,-1.412 0.791,-0.793 1.304,1.358 v 1.696 z m -3.019,3.772 -0.414,-0.395 v -1.414 l 1.526,-1.51 0.829,0.811 -1.412,1.435 0.206,0.224 z m 1.074,1.17 0.719,-0.716 2.811,2.885 -0.075,0.114 C 2.225,-8.13 1.883,-7.865 1.961,-7.506 l -0.133,0.055 z m 1.208,-10.637 0.795,0.773 7.524,-8.148 -0.849,-0.661 z m -2.378,4.412 -0.318,-0.263 v -1.433 l 1.546,-1.547 0.829,0.772 -1.432,1.473 0.169,0.169 z m 3.076,3.793 -0.719,-0.735 0.267,-0.322 -1.416,-1.397 0.811,-0.81 1.284,1.301 0.018,1.735 z m -4.81,5.243 -0.169,-0.076 c 0.018,-0.264 -0.17,-0.509 -0.51,-0.509 l -0.058,-0.113 3.66,-4.056 0.754,0.755 z m -4.903,5.377 c 0.32,-0.435 0.357,-0.548 0.395,-0.736 0.472,-0.246 0.736,-0.793 0.831,-1.095 0.186,-0.056 0.47,0.322 0.168,0.925 -0.339,0.415 -0.753,0.831 -1.244,1.055 l -2.962,3.283 -0.189,-0.112 z M -6.925,-3.092 -10.736,1.717 -11,1.641 -7.132,-3.207 c 0.376,-0.49 0.057,-0.736 -0.021,-0.961 0.359,-0.152 0.719,-0.661 0.849,-0.983 0.171,0.096 0.321,0.53 0.076,0.945 -0.32,0.585 -0.32,0.603 -0.697,1.114 m 0.867,-1.058 c 0.339,-0.811 0.021,-0.831 0,-1.094 0.357,-0.188 0.754,-0.716 0.83,-0.999 0.603,0.207 -0.206,1.508 -0.83,2.093 m 1.867,-1.868 -5.751,8.037 -0.209,-0.076 5.093,-7.13 c 0.473,-0.679 0.209,-0.831 0.227,-1.226 0.322,-0.208 0.755,-0.811 0.755,-1.114 0.64,0.189 0.019,1.284 -0.115,1.509 m -5.884,2.604 c 0.621,-0.359 0.509,-0.321 0.773,-0.415 0.208,-0.358 0.775,-0.679 1.056,-0.697 0.096,-0.17 -0.321,-0.585 -0.924,-0.284 -0.414,0.34 -0.829,0.774 -1.055,1.245 l -3.283,2.962 0.113,0.188 z m 0.925,-1.849 -4.793,3.811 0.057,0.245 4.848,-3.866 c 0.491,-0.378 0.736,-0.058 0.961,0.018 0.191,-0.339 0.698,-0.735 0.982,-0.829 -0.076,-0.17 -0.47,-0.359 -0.943,-0.096 -0.585,0.34 -0.603,0.322 -1.112,0.717 m 1.055,-0.887 c 0.812,-0.337 0.87,-0.055 1.133,-0.037 0.15,-0.264 0.49,-0.566 1.017,-0.829 -0.263,-0.641 -1.547,0.225 -2.15,0.866 m 1.867,-1.867 -8.034,5.754 0.075,0.226 7.13,-5.093 c 0.68,-0.472 0.886,-0.208 1.302,-0.228 0.15,-0.299 0.811,-0.753 1.056,-0.753 -0.189,-0.659 -1.284,-0.019 -1.529,0.094 M 7.939,-3.356 C 7.506,-3.677 7.391,-3.717 7.206,-3.753 6.921,-4.168 6.43,-4.432 6.127,-4.526 6.072,-4.717 6.43,-5.055 7.033,-4.753 c 0.415,0.339 0.831,0.754 1.058,1.245 l 3.28,2.961 -0.112,0.189 z M 7.015,-5.225 11.826,-1.414 11.75,-1.149 6.903,-5.017 C 6.411,-5.394 6.166,-5.073 5.939,-4.999 5.772,-5.357 5.187,-5.714 4.959,-5.81 c 0.095,-0.17 0.507,-0.358 0.943,-0.114 0.585,0.34 0.603,0.322 1.113,0.699 M 5.96,-6.093 C 5.147,-6.433 5.093,-6.15 4.826,-6.13 c -0.188,-0.357 -0.715,-0.699 -1,-0.773 0.209,-0.603 1.549,0.188 2.134,0.81 M 4.092,-7.961 12.126,-2.207 12.05,-1.999 4.92,-7.092 C 4.244,-7.564 4.035,-7.3 3.638,-7.318 3.432,-7.639 2.847,-8.035 2.583,-8.073 2.771,-8.715 3.865,-8.091 4.092,-7.961 m 2.601,5.887 C 6.336,-2.698 6.411,-2.565 6.318,-2.829 5.96,-3.038 5.563,-3.603 5.545,-3.886 5.375,-3.98 4.999,-3.583 5.299,-2.98 c 0.34,0.415 0.773,0.829 1.246,1.055 L 9.507,1.358 9.692,1.244 Z M 4.847,-2.998 8.655,1.792 8.9,1.734 5.035,-3.113 C 4.656,-3.603 4.981,-3.847 5.054,-4.074 4.714,-4.262 4.299,-4.696 4.223,-5.055 c -0.17,0.074 -0.358,0.471 -0.094,0.944 0.339,0.584 0.321,0.603 0.718,1.113 M 3.959,-4.055 C 3.62,-4.865 3.901,-4.923 3.923,-5.187 3.656,-5.339 3.338,-5.64 3.074,-6.168 2.431,-5.904 3.319,-4.659 3.959,-4.055 M 2.092,-5.924 7.845,2.113 8.073,2.037 2.977,-5.093 C 2.507,-5.772 2.771,-5.96 2.753,-6.375 2.449,-6.527 1.943,-7.11 1.961,-7.451 1.3,-7.262 1.977,-6.168 2.092,-5.924 m -11.694,3.15 -3.153,3.151 0.191,0.208 3.168,-3.168 c 0.415,-0.246 0.849,-0.227 1.17,-0.548 0.188,-0.188 0.47,-0.546 0.546,-0.812 -0.149,0 -0.754,0.246 -0.925,0.34 0.152,-0.244 0.284,-0.641 0.341,-0.867 -0.263,0.095 -0.585,0.32 -0.811,0.547 -0.359,0.376 -0.301,0.773 -0.527,1.149 M 7.3,-2.528 10.449,0.623 10.656,0.433 7.488,-2.735 C 7.239,-3.15 7.26,-3.583 6.942,-3.905 6.751,-4.093 6.393,-4.375 6.127,-4.452 c 0,0.15 0.245,0.755 0.339,0.925 -0.242,-0.15 -0.64,-0.283 -0.867,-0.34 0.097,0.264 0.321,0.586 0.549,0.811 0.376,0.358 0.773,0.302 1.152,0.528 M -8.414,-3.791 c 0.508,-0.264 1.167,-0.283 1.507,-0.641 0.151,-0.17 0.377,-0.433 0.491,-0.661 -0.434,0.094 -0.809,0.245 -1.076,0.376 0.133,-0.224 0.285,-0.658 0.377,-1.055 -0.206,0.094 -0.47,0.321 -0.659,0.491 -0.414,0.416 -0.358,0.961 -0.64,1.49 M 6.318,-3.677 C 6.054,-4.187 6.017,-4.885 5.639,-5.225 5.466,-5.394 5.202,-5.602 4.981,-5.714 c 0.091,0.433 0.242,0.811 0.376,1.073 -0.228,-0.131 -0.661,-0.282 -1.058,-0.376 0.094,0.207 0.303,0.471 0.491,0.661 0.412,0.433 1,0.395 1.528,0.679 M -7.301,-4.903 c 0.527,-0.302 1.168,-0.284 1.506,-0.643 0.172,-0.168 0.361,-0.452 0.473,-0.697 -0.245,0.113 -0.849,0.301 -1.112,0.471 0.169,-0.246 0.358,-0.887 0.47,-1.131 -0.244,0.094 -0.489,0.322 -0.698,0.508 -0.413,0.415 -0.3,0.926 -0.639,1.492 M 5.223,-4.772 C 4.92,-5.299 4.92,-5.98 4.544,-6.318 4.375,-6.509 4.092,-6.677 3.847,-6.791 c 0.112,0.246 0.3,0.849 0.47,1.113 -0.246,-0.17 -0.885,-0.358 -1.131,-0.472 0.094,0.246 0.3,0.492 0.509,0.699 0.416,0.434 0.961,0.34 1.528,0.679 M -6.228,-5.98 c 0.491,-0.263 1.17,-0.359 1.529,-0.659 0.359,-0.303 0.753,-0.963 0.454,-1.264 -0.322,-0.34 -0.889,0.038 -1.303,0.452 -0.416,0.415 -0.397,0.982 -0.68,1.471 M 4.129,-5.866 C 3.865,-6.357 3.807,-7.036 3.432,-7.412 3.053,-7.791 2.471,-8.167 2.167,-7.865 c -0.339,0.32 0.019,0.887 0.452,1.302 0.416,0.433 1.019,0.413 1.51,0.697" /></g></g></g><g
       transform="matrix(22.912872,0,0,22.912872,-14616.895,-22896.585)"
       id="g84"><g
         clip-path="url(#clipPath90)"
         id="g86"><g
           transform="translate(656.42691,1041.8585)"
           id="g92"><path
             id="path94"
             style="fill:#000000;fill-opacity:1;fill-rule:nonzero;stroke:none"
             d="m 0,0 c 0.029,-0.035 0.083,-0.056 0.144,-0.056 0.171,0 0.418,0.15 0.552,0.574 0.057,0.407 0.082,1.019 -0.134,1.598 V 2.122 2.131 L 0.784,6.514 0.65,6.551 0.429,2.126 C 0.338,1.613 0.299,1.482 0.183,1.309 0.267,0.849 0.156,0.307 0,0 m 0.144,-0.13 v 0 c -0.1,0 -0.183,0.039 -0.22,0.109 l -0.011,0.018 0.011,0.018 C 0.083,0.311 0.196,0.852 0.108,1.309 L 0.105,1.325 0.114,1.338 C 0.22,1.497 0.256,1.596 0.353,2.135 L 0.584,6.648 0.863,6.571 0.638,2.134 C 0.853,1.543 0.826,0.92 0.768,0.5 0.623,0.033 0.35,-0.13 0.144,-0.13 M 0.083,-1.728 h 0.019 c 0.201,0 0.536,0.209 0.63,0.602 l 0.067,0.25 c 0.109,0.409 0.133,0.506 0.215,1.049 L 1.708,6.237 1.554,6.314 0.881,0.218 C 0.817,-0.3 0.523,-0.373 0.307,-0.428 0.264,-0.437 0.226,-0.447 0.19,-0.459 0.303,-0.855 0.171,-1.482 0.083,-1.728 m 0.019,-0.076 v 0 c -0.032,0 -0.058,0.003 -0.081,0.011 l -0.039,0.012 0.013,0.038 c 0.104,0.245 0.237,0.926 0.116,1.294 l -0.012,0.032 0.03,0.014 c 0.045,0.021 0.101,0.035 0.16,0.048 C 0.505,-0.3 0.75,-0.24 0.808,0.227 L 1.493,6.429 1.79,6.281 1.784,6.254 1.09,0.162 C 1.008,-0.387 0.98,-0.485 0.872,-0.894 l -0.07,-0.25 c -0.1,-0.431 -0.473,-0.66 -0.7,-0.66 m -7.246,-0.035 c 0.053,-0.004 0.12,0.037 0.165,0.111 0.041,0.07 0.161,0.324 -0.06,0.764 -0.417,0.509 -0.819,0.852 -1.225,1.04 l -0.012,0.009 -2.942,3.26 -0.123,-0.074 2.969,-3.286 c 0.308,-0.417 0.363,-0.546 0.402,-0.737 0.531,-0.285 0.769,-0.915 0.826,-1.087 m 0.009,-0.074 v 0 c -0.016,0 -0.034,0.001 -0.05,0.006 l -0.018,0.006 -0.006,0.018 c -0.041,0.131 -0.27,0.791 -0.812,1.074 l -0.016,0.009 -0.004,0.016 c -0.035,0.18 -0.067,0.285 -0.389,0.72 l -3.026,3.351 0.253,0.154 2.976,-3.3 c 0.415,-0.194 0.826,-0.541 1.252,-1.064 0.242,-0.481 0.106,-0.767 0.06,-0.845 -0.057,-0.091 -0.139,-0.145 -0.22,-0.145 m -5.173,4.42 3.124,-3.126 c 0.099,-0.163 0.146,-0.327 0.193,-0.482 0.066,-0.233 0.13,-0.451 0.335,-0.67 0.218,-0.216 0.495,-0.41 0.729,-0.509 -0.069,0.249 -0.19,0.579 -0.317,0.785 l -0.074,0.122 0.125,-0.07 c 0.153,-0.083 0.654,-0.286 0.852,-0.328 -0.095,0.258 -0.356,0.579 -0.52,0.742 -0.18,0.18 -0.4,0.25 -0.633,0.324 -0.173,0.055 -0.35,0.112 -0.528,0.217 l -0.009,0.006 -3.14,3.14 z m -0.759,-0.975 3.266,-2.952 c 0.247,-0.513 0.706,-0.954 1.049,-1.233 0.127,-0.063 0.264,-0.1 0.394,-0.1 0.226,0 0.391,0.11 0.455,0.218 0.021,0.037 0.03,0.073 0.024,0.101 -0.309,0.036 -0.849,0.36 -1.055,0.703 -0.171,0.061 -0.182,0.067 -0.359,0.173 -0.085,0.051 -0.209,0.125 -0.408,0.239 l -3.293,2.974 z m 4.709,-4.359 c -0.142,0 -0.289,0.038 -0.436,0.112 -0.352,0.287 -0.816,0.734 -1.07,1.257 l -3.299,2.975 0.152,0.255 3.353,-3.03 c 0.194,-0.111 0.318,-0.185 0.403,-0.235 0.179,-0.108 0.182,-0.111 0.358,-0.173 l 0.015,-0.004 0.006,-0.013 c 0.169,-0.294 0.594,-0.56 0.88,-0.648 -0.231,0.107 -0.501,0.297 -0.713,0.509 -0.219,0.23 -0.288,0.47 -0.355,0.7 -0.045,0.158 -0.088,0.309 -0.179,0.458 l -3.169,3.168 0.238,0.264 3.193,-3.194 c 0.168,-0.099 0.343,-0.155 0.511,-0.208 0.243,-0.077 0.47,-0.15 0.664,-0.342 0.179,-0.18 0.476,-0.549 0.555,-0.828 l 0.015,-0.048 h -0.052 c -0.136,0 -0.591,0.178 -0.832,0.291 0.122,-0.234 0.229,-0.549 0.284,-0.773 l 0.015,-0.046 c 0.03,-0.054 0.024,-0.124 -0.018,-0.194 -0.075,-0.126 -0.264,-0.253 -0.519,-0.253 m -5.15,3.518 4.774,-3.795 c 0.394,-0.309 0.49,-0.363 0.798,-0.537 0.083,-0.049 0.185,-0.106 0.309,-0.179 0.15,-0.082 0.3,-0.126 0.448,-0.126 0.204,0 0.358,0.084 0.422,0.169 -0.291,0.118 -0.749,0.479 -0.943,0.803 -0.038,-0.015 -0.077,-0.036 -0.118,-0.061 -0.108,-0.06 -0.231,-0.128 -0.385,-0.128 -0.149,0 -0.3,0.062 -0.464,0.188 l -4.802,3.83 z m 6.329,-4.711 c -0.16,0 -0.324,0.046 -0.485,0.137 -0.127,0.072 -0.227,0.13 -0.31,0.177 -0.302,0.171 -0.405,0.229 -0.807,0.543 l -4.81,3.824 0.075,0.327 0.047,-0.038 4.847,-3.866 c 0.149,-0.115 0.285,-0.173 0.419,-0.173 0.136,0 0.242,0.06 0.347,0.12 0.056,0.031 0.108,0.06 0.162,0.077 l 0.029,0.011 0.015,-0.028 c 0.18,-0.325 0.678,-0.718 0.959,-0.812 l 0.04,-0.014 -0.017,-0.038 C -6.722,-3.896 -6.915,-4.02 -7.179,-4.02 m 1.554,0.925 c 0.339,-0.191 0.714,-0.67 0.814,-0.97 0.076,0.036 0.123,0.097 0.143,0.185 0.085,0.406 -0.44,1.224 -0.898,1.706 0.167,-0.467 0.076,-0.633 0.002,-0.77 -0.029,-0.051 -0.052,-0.094 -0.061,-0.151 m 0.765,-1.069 -0.012,0.038 c -0.074,0.282 -0.471,0.799 -0.81,0.976 l -0.023,0.012 0.003,0.024 c 0.006,0.085 0.039,0.146 0.072,0.207 0.078,0.145 0.167,0.307 -0.069,0.871 l -0.07,0.162 0.13,-0.121 c 0.504,-0.473 1.145,-1.426 1.043,-1.901 -0.027,-0.127 -0.103,-0.212 -0.227,-0.254 z m -2.691,0.044 c 0.492,-0.482 1.215,-0.956 1.64,-0.956 0.15,0 0.251,0.056 0.312,0.169 -0.471,0.242 -0.82,0.527 -0.991,0.808 -0.055,-0.007 -0.101,-0.027 -0.153,-0.05 -0.081,-0.035 -0.175,-0.075 -0.319,-0.075 -0.133,0 -0.295,0.035 -0.489,0.104 m 1.64,-1.031 c -0.531,0 -1.398,0.658 -1.818,1.104 l -0.121,0.129 0.162,-0.068 c 0.264,-0.11 0.467,-0.164 0.626,-0.164 0.129,0 0.209,0.036 0.29,0.07 0.06,0.027 0.121,0.054 0.2,0.059 l 0.022,0.001 0.013,-0.021 c 0.162,-0.282 0.518,-0.572 1.001,-0.814 l 0.031,-0.017 -0.012,-0.03 C -5.584,-5.066 -5.72,-5.151 -5.911,-5.151 m 5.402,6.27 0.03,-0.154 c 0.033,-0.165 0.25,-0.653 0.371,-0.824 0.103,0.235 0.158,0.626 0.158,0.912 0,0.256 -0.107,0.46 -0.223,0.678 -0.085,0.158 -0.173,0.321 -0.229,0.518 L -0.403,2.261 V 6.693 H -0.591 V 2.249 C -0.643,2.092 -0.721,1.955 -0.794,1.825 -0.922,1.604 -1.043,1.394 -1.043,1.073 c 0,-0.279 0.064,-0.629 0.158,-0.865 0.118,0.193 0.266,0.522 0.333,0.761 z M -0.9,0.054 -0.888,0.042 -0.894,0.024 V 0.021 c 0.016,0.033 0.036,0.067 0.054,0.1 0.093,0.164 0.188,0.334 0.252,0.523 C -0.67,0.438 -0.776,0.232 -0.863,0.108 Z M -1.796,6.533 -1.57,2.161 -1.573,2.152 C -1.732,1.723 -1.774,1.208 -1.704,0.529 c 0.143,-0.438 0.438,-0.556 0.588,-0.556 0.067,0 0.122,0.021 0.143,0.056 -0.176,0.241 -0.306,0.917 -0.203,1.303 l -0.028,0.05 c -0.069,0.137 -0.071,0.143 -0.128,0.396 -0.019,0.089 -0.047,0.211 -0.087,0.38 l -0.244,4.411 z m 1.3,-7.003 0.035,-0.127 c 0.073,-0.25 0.226,-0.595 0.427,-0.957 0.078,0.238 0.102,0.529 0.102,0.72 0.011,0.3 -0.151,0.607 -0.324,0.931 -0.093,0.173 -0.187,0.352 -0.256,0.532 -0.067,-0.2 -0.166,-0.375 -0.261,-0.544 -0.159,-0.281 -0.308,-0.546 -0.308,-0.899 0,-0.223 0.041,-0.497 0.105,-0.723 0.2,0.33 0.371,0.691 0.442,0.94 z m -2.225,6.727 0.716,-6.066 c 0.053,-0.449 0.086,-0.567 0.168,-0.855 0.029,-0.108 0.067,-0.24 0.114,-0.424 0.122,-0.473 0.463,-0.634 0.632,-0.622 -0.058,0.17 -0.247,0.808 -0.091,1.272 -0.043,0.017 -0.088,0.03 -0.137,0.044 -0.218,0.062 -0.491,0.139 -0.553,0.65 l -0.693,6.092 z m 2.209,-7.239 c -0.073,-0.231 -0.185,-0.409 -0.291,-0.585 -0.153,-0.246 -0.298,-0.478 -0.298,-0.813 0,-0.148 0.013,-0.491 0.113,-0.735 0.035,0.091 0.085,0.202 0.136,0.317 0.117,0.251 0.247,0.536 0.282,0.709 l 0.033,0.169 0.04,-0.169 c 0.045,-0.197 0.179,-0.461 0.298,-0.694 0.05,-0.097 0.097,-0.188 0.134,-0.268 0.073,0.22 0.115,0.456 0.115,0.653 0,0.285 -0.144,0.559 -0.297,0.849 -0.097,0.18 -0.193,0.365 -0.265,0.567 m 0.091,-1.519 c 0.06,-0.15 0.139,-0.3 0.215,-0.449 0.035,-0.063 0.067,-0.13 0.101,-0.195 -0.037,0.086 -0.098,0.204 -0.159,0.327 -0.053,0.103 -0.109,0.211 -0.157,0.317 m -0.113,0.267 c -0.054,-0.173 -0.157,-0.394 -0.248,-0.596 -0.055,-0.12 -0.106,-0.235 -0.144,-0.326 0.035,0.067 0.071,0.132 0.104,0.197 0.107,0.199 0.217,0.403 0.27,0.625 l 0.024,0.092 c -0.004,0.002 -0.004,0.005 -0.006,0.008 m 0.578,-1.032 c 0.03,-0.011 0.061,-0.017 0.088,-0.017 0.082,0 0.159,0.042 0.236,0.121 0.297,0.312 0.504,1.146 0.516,1.772 C 0.674,-1.846 0.496,-1.91 0.335,-1.968 0.282,-1.987 0.232,-2.004 0.188,-2.037 0.285,-2.419 0.174,-2.995 0.044,-3.266 m -1.211,1.024 c -0.041,-0.283 -0.037,-0.677 0.173,-1.058 0.003,0.005 0.006,0.009 0.006,0.014 l -0.032,0.057 c -0.141,0.258 -0.153,0.679 -0.153,0.849 0,0.049 0,0.094 0.006,0.138 m -0.725,0.878 c 0.012,-0.617 0.16,-1.498 0.482,-1.828 0.1,-0.103 0.212,-0.141 0.331,-0.109 -0.258,0.497 -0.19,1.006 -0.12,1.285 -0.044,0.03 -0.093,0.048 -0.144,0.07 -0.154,0.062 -0.329,0.13 -0.549,0.582 m 0.76,-2.432 c -0.078,-0.36 0.031,-0.982 0.21,-1.127 -0.154,0.25 -0.215,0.639 -0.215,1.015 0,0.038 0.002,0.076 0.005,0.112 m -2.378,9.712 1.618,-9.733 c 0.278,-0.965 0.567,-1.168 0.761,-1.168 0.044,0 0.088,0.01 0.135,0.028 -0.209,0.225 -0.296,0.939 -0.183,1.267 -0.07,0.073 -0.146,0.128 -0.223,0.182 -0.212,0.149 -0.432,0.302 -0.528,0.895 l -1.426,8.594 z m 3.486,-10.903 c 0.047,-0.021 0.092,-0.03 0.139,-0.03 0.42,0 0.669,0.846 0.751,1.125 L 0.884,-3.841 2.499,5.878 2.36,5.94 0.938,-2.65 C 0.826,-3.254 0.62,-3.4 0.404,-3.553 0.33,-3.605 0.256,-3.658 0.186,-3.73 0.265,-4.088 0.159,-4.722 -0.024,-4.987 m -0.488,2.516 c -0.061,-0.185 -0.155,-0.356 -0.244,-0.524 -0.157,-0.291 -0.307,-0.568 -0.307,-0.913 0,-0.583 0.15,-1.206 0.567,-1.206 0.375,0 0.546,0.615 0.546,1.188 0,0.32 -0.164,0.637 -0.323,0.943 -0.086,0.167 -0.176,0.34 -0.239,0.512 m 0.016,-2.719 c -0.165,0 -0.292,0.079 -0.388,0.209 l -0.029,-0.015 c -0.072,-0.042 -0.145,-0.065 -0.218,-0.065 -0.318,0 -0.6,0.414 -0.83,1.226 l -0.006,0.012 -1.628,9.786 0.298,0.123 0.008,-0.047 1.434,-8.64 c 0.091,-0.561 0.288,-0.7 0.497,-0.846 0.082,-0.057 0.168,-0.118 0.245,-0.207 0.022,0.101 0.054,0.198 0.093,0.292 -0.159,-0.058 -0.312,-0.018 -0.443,0.118 -0.371,0.378 -0.518,1.428 -0.504,2.052 l 0.003,0.173 0.069,-0.159 c 0.241,-0.565 0.422,-0.635 0.579,-0.698 0.061,-0.025 0.123,-0.049 0.182,-0.098 l 0.021,-0.015 -0.009,-0.024 c -0.004,-0.021 -0.01,-0.045 -0.016,-0.07 0.028,0.112 0.075,0.215 0.127,0.315 l -0.023,-0.006 c -0.024,-0.009 -0.051,-0.012 -0.082,-0.012 -0.245,0 -0.567,0.238 -0.68,0.679 -0.047,0.182 -0.084,0.316 -0.114,0.423 -0.079,0.284 -0.115,0.411 -0.17,0.866 l -0.719,6.116 0.298,0.174 0.702,-6.207 c 0.056,-0.461 0.292,-0.529 0.502,-0.588 0.063,-0.018 0.124,-0.035 0.175,-0.062 L -1.091,-0.4 -1.103,-0.431 c -0.189,-0.503 0.083,-1.262 0.095,-1.294 l 0.009,-0.024 c 0.041,0.075 0.086,0.147 0.13,0.221 0.111,0.179 0.226,0.365 0.296,0.603 -0.097,-0.227 -0.233,-0.485 -0.382,-0.721 l -0.042,-0.067 -0.025,0.076 c -0.081,0.244 -0.136,0.567 -0.136,0.823 0,0.306 0.109,0.555 0.236,0.787 -0.039,-0.047 -0.109,-0.076 -0.194,-0.076 -0.228,0 -0.524,0.191 -0.661,0.617 -0.074,0.694 -0.031,1.22 0.131,1.658 l -0.229,4.417 0.282,0.077 0.249,-4.499 C -1.307,2.005 -1.278,1.884 -1.26,1.795 -1.202,1.546 -1.202,1.546 -1.137,1.417 L -1.097,1.34 -1.101,1.325 C -1.213,0.935 -1.058,0.252 -0.9,0.057 l -0.028,0.055 c -0.112,0.243 -0.191,0.646 -0.191,0.961 0,0.339 0.134,0.57 0.258,0.791 0.073,0.125 0.149,0.253 0.196,0.402 v 4.503 h 0.338 V 2.266 c 0.054,-0.19 0.137,-0.347 0.221,-0.5 0.118,-0.226 0.23,-0.438 0.23,-0.713 0,-0.257 -0.05,-0.735 -0.191,-0.999 L -0.091,0.011 -0.127,0.045 c -0.015,0.017 -0.035,0.043 -0.058,0.076 0.177,-0.33 0.341,-0.64 0.329,-0.955 0,-0.218 -0.033,-0.565 -0.135,-0.824 l -0.027,-0.073 -0.039,0.068 c -0.196,0.341 -0.352,0.672 -0.439,0.932 -0.004,-0.006 -0.007,-0.015 -0.01,-0.023 l 0.027,-0.089 c 0.07,-0.239 0.186,-0.458 0.299,-0.67 0.156,-0.298 0.304,-0.582 0.304,-0.885 0,-0.232 -0.056,-0.518 -0.151,-0.769 l -0.03,-0.077 c 0.002,-0.012 0.008,-0.021 0.013,-0.032 l 0.005,0.008 c 0.131,0.243 0.256,0.858 0.147,1.237 l -0.005,0.024 0.018,0.015 c 0.061,0.049 0.126,0.073 0.188,0.094 0.162,0.059 0.347,0.124 0.575,0.702 L 0.95,-1.034 0.956,-1.209 C 0.984,-1.861 0.762,-2.857 0.423,-3.214 0.33,-3.309 0.232,-3.357 0.132,-3.357 c -0.053,0 -0.103,0.012 -0.155,0.038 l -0.003,10e-4 c 0.058,-0.129 0.103,-0.259 0.131,-0.391 l 0.012,0.017 c 0.08,0.085 0.165,0.142 0.242,0.2 0.206,0.145 0.397,0.282 0.504,0.855 L 2.302,6.051 2.584,5.923 2.575,5.895 0.956,-3.856 0.941,-3.914 C 0.853,-4.205 0.59,-5.093 0.115,-5.093 c -0.071,0 -0.142,0.02 -0.214,0.057 l -0.04,0.022 0.03,0.036 c 0.168,0.205 0.312,0.873 0.217,1.249 l -0.003,0.018 c 0.012,-0.072 0.019,-0.142 0.019,-0.215 0,-0.47 -0.13,-1.264 -0.62,-1.264 m -6.216,3.169 c 0.349,-0.166 0.679,-0.638 0.819,-0.944 0.051,0.047 0.097,0.13 0.124,0.228 0.055,0.207 0.02,0.439 -0.099,0.639 l -0.081,0.152 c -0.241,0.442 -0.273,0.5 -0.614,0.958 l -3.794,4.791 -0.187,-0.053 3.832,-4.805 c 0.311,-0.403 0.167,-0.661 0.061,-0.85 -0.023,-0.041 -0.046,-0.078 -0.061,-0.116 m -1.227,0.278 c 0.084,-0.187 0.134,-0.37 0.181,-0.55 0.085,-0.305 0.163,-0.593 0.404,-0.834 0.159,-0.144 0.385,-0.34 0.576,-0.446 -0.096,0.384 -0.235,0.766 -0.352,0.966 l -0.064,0.109 0.112,-0.058 c 0.179,-0.087 0.534,-0.247 0.986,-0.354 -0.117,0.203 -0.306,0.424 -0.446,0.58 -0.195,0.208 -0.506,0.297 -0.837,0.393 -0.188,0.056 -0.382,0.112 -0.56,0.194 m 1.123,-1.125 c 0.11,-0.214 0.162,-0.417 0.212,-0.614 0.074,-0.286 0.138,-0.535 0.362,-0.759 l 0.015,-0.012 c 0.179,-0.164 0.382,-0.346 0.585,-0.449 -0.033,0.079 -0.069,0.179 -0.107,0.288 -0.099,0.265 -0.217,0.594 -0.325,0.749 l -0.107,0.155 0.159,-0.104 c 0.168,-0.106 0.474,-0.221 0.743,-0.323 0.101,-0.037 0.195,-0.074 0.271,-0.104 -0.115,0.223 -0.276,0.453 -0.42,0.597 -0.185,0.197 -0.474,0.279 -0.776,0.364 -0.203,0.057 -0.412,0.117 -0.612,0.212 m 0.876,-0.876 c 0.089,-0.174 0.18,-0.421 0.26,-0.644 0.053,-0.147 0.105,-0.287 0.143,-0.371 l 0.01,-0.022 c -0.037,0.1 -0.069,0.204 -0.1,0.303 -0.063,0.204 -0.128,0.414 -0.241,0.61 l -0.065,0.112 0.116,-0.062 c 0.206,-0.111 0.45,-0.193 0.685,-0.272 0.075,-0.027 0.154,-0.051 0.229,-0.078 l -0.043,0.018 c -0.085,0.039 -0.218,0.091 -0.359,0.142 -0.218,0.082 -0.458,0.173 -0.635,0.264 m 1.538,-0.521 c 0.305,-0.206 0.71,-0.757 0.752,-1.081 0.088,0.035 0.149,0.096 0.182,0.179 0.095,0.241 -0.036,0.7 -0.362,1.259 l -5.734,8.009 -0.135,-0.048 5.064,-7.091 c 0.347,-0.5 0.306,-0.724 0.262,-0.959 -0.017,-0.083 -0.032,-0.168 -0.029,-0.268 m 0.558,-0.767 c 0.056,-0.106 0.097,-0.215 0.118,-0.32 -0.012,0.089 -0.054,0.201 -0.118,0.32 m -1.902,1.094 c 0.083,-0.17 0.138,-0.346 0.191,-0.518 0.095,-0.308 0.186,-0.599 0.426,-0.84 0.365,-0.364 0.718,-0.573 0.967,-0.573 0.112,0 0.204,0.039 0.282,0.118 0.069,0.07 0.1,0.164 0.095,0.279 -0.014,0.306 -0.286,0.715 -0.547,0.931 -0.2,0.169 -0.503,0.273 -0.826,0.38 -0.199,0.069 -0.403,0.135 -0.588,0.223 m 1.584,-2.007 c -0.37,0 -0.798,0.373 -1.019,0.597 -0.154,0.152 -0.25,0.326 -0.321,0.507 l -0.082,0.03 c -0.246,0.094 -0.484,0.311 -0.693,0.502 l -0.016,0.016 c -0.242,0.24 -0.31,0.508 -0.384,0.795 -0.057,0.224 -0.118,0.457 -0.265,0.703 l -0.052,0.085 c 0.112,-0.237 0.228,-0.585 0.31,-0.925 l 0.018,-0.076 -0.071,0.034 c -0.213,0.097 -0.484,0.33 -0.669,0.495 -0.256,0.257 -0.336,0.554 -0.421,0.869 -0.058,0.207 -0.116,0.423 -0.229,0.632 l -0.056,0.106 0.107,-0.056 c 0.2,-0.103 0.428,-0.17 0.648,-0.234 0.197,-0.057 0.388,-0.112 0.553,-0.19 l 0.01,0.027 c 0.019,0.053 0.047,0.106 0.076,0.16 0.108,0.188 0.228,0.404 -0.051,0.767 l -3.903,4.89 0.344,0.099 3.825,-4.831 c 0.345,-0.464 0.375,-0.521 0.619,-0.967 l 0.082,-0.148 c 0.127,-0.219 0.167,-0.473 0.106,-0.698 -0.039,-0.139 -0.112,-0.251 -0.196,-0.298 l -0.038,-0.02 -0.015,0.039 c -0.118,0.285 -0.439,0.764 -0.78,0.937 0.089,-0.048 0.169,-0.109 0.239,-0.182 0.159,-0.178 0.384,-0.441 0.496,-0.667 l 0.036,-0.072 -0.079,0.018 c -0.418,0.091 -0.765,0.232 -0.979,0.33 0.002,-0.001 0.002,-0.003 0.003,-0.006 l 0.118,-0.067 c 0.225,-0.127 0.47,-0.197 0.707,-0.263 0.314,-0.09 0.609,-0.175 0.809,-0.385 0.17,-0.167 0.362,-0.452 0.479,-0.707 l 0.039,-0.088 c 0.223,-0.08 0.423,-0.169 0.573,-0.297 0.091,-0.075 0.185,-0.174 0.27,-0.285 -0.139,0.188 -0.306,0.361 -0.445,0.452 l -0.015,0.011 -0.003,0.019 c -0.005,0.116 0.012,0.211 0.031,0.304 0.041,0.221 0.079,0.429 -0.25,0.903 l -5.122,7.169 0.281,0.102 0.018,-0.023 5.752,-8.035 c 0.2,-0.344 0.513,-0.968 0.369,-1.328 -0.047,-0.119 -0.14,-0.198 -0.276,-0.239 l -0.037,-0.011 v -0.024 c 0.006,-0.136 -0.033,-0.249 -0.116,-0.333 -0.09,-0.094 -0.202,-0.143 -0.335,-0.143 m -9.665,5.824 8.014,-5.736 c 0.02,-0.009 0.056,-0.027 0.099,-0.048 0.23,-0.119 0.66,-0.334 0.988,-0.334 0.188,0 0.309,0.073 0.368,0.223 -0.292,0.047 -0.868,0.464 -1.029,0.75 -0.103,0.005 -0.194,-0.012 -0.285,-0.027 -0.083,-0.015 -0.17,-0.03 -0.267,-0.03 -0.227,0 -0.459,0.091 -0.747,0.291 l -7.089,5.062 z m 9.101,-6.194 c -0.346,0 -0.785,0.222 -1.022,0.343 -0.042,0.021 -0.077,0.039 -0.103,0.049 l -8.063,5.774 0.099,0.3 0.042,-0.03 7.131,-5.093 c 0.353,-0.244 0.561,-0.275 0.703,-0.275 0.091,0 0.17,0.012 0.255,0.027 0.1,0.018 0.205,0.034 0.323,0.028 l 0.021,-10e-4 0.011,-0.018 c 0.148,-0.296 0.797,-0.734 1.023,-0.734 h 0.05 l -0.016,-0.048 c -0.06,-0.213 -0.213,-0.322 -0.454,-0.322 m 3.72,-0.936 0.491,-0.561 0.741,0.791 -0.25,0.27 -0.018,1.588 -0.081,0.023 c -0.067,-0.083 -0.218,-0.141 -0.386,-0.141 -0.173,0 -0.319,0.059 -0.4,0.164 l -0.097,-0.012 z m 0.491,-0.673 -0.566,0.645 v 2.217 l 0.206,0.024 0.012,-0.019 c 0.067,-0.094 0.196,-0.148 0.354,-0.148 0.156,0 0.297,0.054 0.339,0.127 l 0.014,0.026 0.188,-0.053 0.018,-1.617 0.277,-0.299 z M 9.905,3.438 6.953,0.17 C 6.44,-0.076 5.998,-0.534 5.722,-0.876 5.591,-1.137 5.579,-1.41 5.695,-1.595 c 0.06,-0.094 0.145,-0.151 0.206,-0.136 0.039,0.312 0.433,0.849 0.779,1.055 0.012,0.039 0.021,0.07 0.03,0.094 0.045,0.136 0.045,0.136 0.334,0.638 l 0.009,0.017 2.976,3.292 z M 6.707,-1.64 c -0.03,-0.073 -0.064,-0.149 -0.091,-0.23 0.027,0.08 0.061,0.159 0.091,0.23 M 6.962,-1.292 6.895,-1.417 C 6.81,-1.57 6.607,-2.071 6.565,-2.271 c 0.257,0.097 0.579,0.358 0.742,0.522 0.179,0.179 0.249,0.4 0.322,0.633 0.057,0.173 0.112,0.352 0.218,0.528 l 0.006,0.007 3.141,3.143 -0.152,0.137 -3.125,-3.125 C 7.553,-0.526 7.392,-0.573 7.234,-0.619 7.001,-0.685 6.783,-0.749 6.568,-0.955 6.349,-1.173 6.155,-1.451 6.055,-1.684 6.304,-1.616 6.634,-1.495 6.84,-1.367 Z M 6.552,-2.428 C 6.549,-2.465 6.565,-2.507 6.595,-2.55 6.671,-2.648 6.81,-2.707 6.974,-2.707 c 0.136,0 0.282,0.039 0.436,0.115 0.51,0.418 0.852,0.821 1.04,1.228 l 0.006,0.012 3.262,2.94 -0.076,0.125 -3.286,-2.97 C 7.938,-1.567 7.811,-1.619 7.62,-1.658 7.356,-2.037 6.898,-2.313 6.552,-2.428 m -1.394,0.227 c -0.191,-0.17 -0.367,-0.382 -0.455,-0.585 0.115,0.212 0.309,0.441 0.452,0.583 0,0 0,0.002 0.003,0.002 M 9.063,3.879 5.267,-0.894 C 4.958,-1.292 4.906,-1.385 4.73,-1.693 4.682,-1.778 4.628,-1.876 4.552,-2.002 4.382,-2.307 4.421,-2.548 4.461,-2.665 c 0.036,-0.101 0.085,-0.168 0.13,-0.203 0.103,0.352 0.482,0.749 0.806,0.938 -0.012,0.038 -0.036,0.078 -0.06,0.12 -0.106,0.188 -0.249,0.446 0.06,0.849 L 9.226,3.841 Z M 4.652,-2.938 4.649,-2.953 c 0.078,0.025 0.16,0.049 0.242,0.07 0.176,0.048 0.358,0.097 0.54,0.182 C 5.219,-2.783 4.958,-2.865 4.7,-2.925 Z M 5.837,-2.416 5.779,-2.528 C 5.695,-2.707 5.531,-3.065 5.425,-3.517 c 0.212,0.122 0.436,0.307 0.579,0.446 0.224,0.203 0.324,0.535 0.433,0.887 0.055,0.186 0.112,0.377 0.191,0.552 C 6.446,-1.716 6.261,-1.769 6.086,-1.819 5.761,-1.913 5.452,-1.999 5.21,-2.256 5.028,-2.439 4.855,-2.659 4.761,-2.835 5.146,-2.736 5.528,-2.598 5.728,-2.48 Z M 5.406,-3.698 c 0.079,-0.092 0.249,-0.176 0.458,-0.176 0.14,0 0.282,0.038 0.413,0.112 0.142,0.085 0.254,0.145 0.345,0.197 0.276,0.158 0.382,0.215 0.761,0.499 l 4.793,3.793 -0.055,0.185 -4.805,-3.831 c -0.163,-0.126 -0.315,-0.188 -0.46,-0.188 -0.158,0 -0.279,0.069 -0.388,0.13 -0.04,0.021 -0.079,0.044 -0.116,0.061 C 6.173,-3.247 5.673,-3.576 5.406,-3.698 M 4.524,-3.692 C 4.364,-3.768 4.155,-3.844 3.964,-3.912 3.912,-3.932 3.857,-3.95 3.809,-3.968 c 0.027,0.007 0.055,0.015 0.082,0.024 0.209,0.064 0.421,0.127 0.612,0.239 z M 4.255,-2.077 C 3.782,-2.56 3.209,-3.351 3.288,-3.776 c 0.018,-0.098 0.069,-0.17 0.16,-0.215 0.291,0.568 0.634,0.838 0.828,0.953 -0.009,0.055 -0.028,0.1 -0.052,0.152 -0.067,0.149 -0.142,0.329 0.031,0.809 M 4.112,-3.247 C 3.927,-3.4 3.7,-3.653 3.5,-4.056 L 3.485,-4.082 c 0.012,0.005 0.024,0.009 0.036,0.014 l 0.024,0.06 c 0.079,0.212 0.249,0.445 0.515,0.711 0.019,0.017 0.034,0.035 0.052,0.05 M 4.597,-3.677 4.555,-3.756 C 4.455,-3.944 4.382,-4.165 4.312,-4.382 4.309,-4.384 4.309,-4.386 4.309,-4.388 c 0.012,0.032 0.024,0.068 0.037,0.101 0.078,0.208 0.166,0.437 0.251,0.61 M 4.843,-3.412 4.74,-3.57 C 4.634,-3.738 4.521,-4.044 4.418,-4.314 4.379,-4.415 4.342,-4.508 4.312,-4.585 c 0.164,0.083 0.428,0.233 0.597,0.42 0.213,0.191 0.304,0.498 0.398,0.821 0.06,0.203 0.124,0.412 0.218,0.607 C 5.312,-2.844 5.112,-2.901 4.912,-2.956 4.618,-3.035 4.342,-3.11 4.115,-3.35 3.891,-3.573 3.736,-3.77 3.651,-3.95 c 0.079,0.033 0.176,0.068 0.285,0.108 0.267,0.095 0.598,0.216 0.752,0.322 z M 4.27,-4.799 c 0.048,-0.103 0.145,-0.154 0.291,-0.154 0.424,0 1.17,0.445 1.637,0.888 -0.194,-0.069 -0.355,-0.103 -0.485,-0.103 -0.146,0 -0.24,0.039 -0.319,0.076 C 5.34,-4.07 5.294,-4.05 5.24,-4.042 5.046,-4.385 4.561,-4.705 4.27,-4.799 M 8.253,4.195 2.515,-3.817 C 2.506,-3.841 2.481,-3.885 2.454,-3.938 2.308,-4.217 2.005,-4.796 2.139,-5.102 c 0.03,-0.079 0.09,-0.133 0.175,-0.17 0.031,0.352 0.488,0.882 0.792,1.049 0.006,0.103 -0.012,0.194 -0.028,0.282 -0.045,0.255 -0.085,0.497 0.261,0.997 L 8.405,4.147 Z M 3.039,-4.356 C 2.745,-4.571 2.375,-5.04 2.39,-5.32 l 0.003,-0.035 c 0.04,0.38 0.425,0.784 0.594,0.947 0.019,0.017 0.034,0.033 0.052,0.052 m 1.398,0.53 C 4.267,-3.908 4.088,-3.962 3.915,-4.017 3.588,-4.114 3.285,-4.208 3.039,-4.463 2.678,-4.808 2.463,-5.169 2.463,-5.423 c 0,-0.114 0.043,-0.21 0.121,-0.287 0.067,-0.067 0.152,-0.1 0.252,-0.1 0.303,0 0.694,0.285 0.961,0.55 0.221,0.224 0.333,0.57 0.442,0.901 0.061,0.18 0.119,0.365 0.198,0.533 M 3.024,-5.974 c 0.057,-0.147 0.179,-0.22 0.367,-0.22 0.26,0 0.639,0.14 1.073,0.395 L 12.476,-0.065 12.424,0.07 5.337,-4.996 C 5.046,-5.196 4.815,-5.284 4.588,-5.284 4.494,-5.284 4.409,-5.27 4.327,-5.257 4.236,-5.238 4.148,-5.225 4.052,-5.228 3.839,-5.543 3.303,-5.904 3.024,-5.974 m -3.562,-2.254 0.662,-0.663 2.767,2.837 -0.046,0.067 C 2.7,-6.008 2.527,-5.933 2.421,-5.799 2.326,-5.686 2.29,-5.545 2.308,-5.402 l -0.079,0.035 z m 0.665,-0.769 -0.77,0.769 0.026,0.028 2.816,2.907 c -0.057,0.043 -0.103,0.094 -0.13,0.161 -0.145,0.341 0.155,0.918 0.318,1.23 0.028,0.05 0.049,0.093 0.064,0.121 L 8.223,4.285 8.526,4.185 8.492,4.144 3.4,-2.986 C 3.072,-3.462 3.112,-3.688 3.154,-3.929 c 0.015,-0.097 0.034,-0.196 0.027,-0.315 0.094,0.065 0.195,0.115 0.294,0.159 l -0.024,0.011 c -0.13,0.054 -0.212,0.151 -0.239,0.284 -0.088,0.496 0.597,1.404 1.115,1.889 L 4.455,-1.78 4.385,-1.942 C 4.146,-2.516 4.224,-2.698 4.291,-2.856 c 0.027,-0.063 0.055,-0.121 0.061,-0.2 v -0.018 c 0.085,0.044 0.169,0.079 0.257,0.109 L 4.6,-2.962 c -0.088,0.04 -0.163,0.143 -0.209,0.273 -0.045,0.129 -0.088,0.392 0.097,0.723 0.076,0.126 0.13,0.226 0.176,0.311 0.176,0.303 0.233,0.406 0.546,0.806 L 9.032,3.962 9.36,3.886 9.323,3.841 5.458,-1.008 C 5.179,-1.37 5.297,-1.585 5.404,-1.774 c 0.03,-0.054 0.06,-0.107 0.078,-0.16 l 0.006,-0.02 c 0.116,0.062 0.243,0.108 0.37,0.147 -0.079,0.009 -0.163,0.073 -0.227,0.173 -0.061,0.1 -0.182,0.379 0.027,0.799 0.288,0.353 0.734,0.817 1.255,1.07 L 9.89,3.535 10.142,3.383 7.11,0.018 C 6.825,-0.476 6.825,-0.476 6.783,-0.606 6.774,-0.634 6.761,-0.667 6.746,-0.714 L 6.74,-0.728 6.728,-0.734 c -0.288,-0.165 -0.579,-0.547 -0.7,-0.829 0.109,0.22 0.291,0.465 0.485,0.663 0.233,0.218 0.47,0.287 0.7,0.354 0.158,0.046 0.306,0.088 0.458,0.179 L 10.839,2.802 11.103,2.564 7.907,-0.629 C 7.811,-0.799 7.756,-0.972 7.701,-1.14 7.623,-1.381 7.553,-1.61 7.359,-1.804 7.219,-1.943 6.965,-2.152 6.728,-2.277 c 0.264,0.122 0.613,0.346 0.837,0.673 l 0.009,0.012 0.015,0.003 c 0.179,0.037 0.285,0.067 0.722,0.391 l 3.35,3.026 0.151,-0.255 -3.298,-2.977 C 8.32,-1.817 7.971,-2.228 7.45,-2.654 7.28,-2.741 7.119,-2.783 6.974,-2.783 c -0.188,0 -0.352,0.071 -0.44,0.19 -0.048,0.068 -0.069,0.142 -0.048,0.206 l 0.006,0.016 -0.009,-0.003 v 0.05 c 0,0.017 0.003,0.038 0.009,0.062 C 6.386,-2.603 6.283,-2.921 6.055,-3.124 5.895,-3.286 5.628,-3.501 5.388,-3.621 l -0.069,-0.033 0.018,0.007 c 0.215,0.091 0.797,0.446 0.961,0.793 l 0.015,0.029 0.03,-0.01 c 0.055,-0.018 0.106,-0.046 0.161,-0.077 0.106,-0.059 0.212,-0.119 0.352,-0.119 0.127,0 0.263,0.056 0.415,0.172 l 4.89,3.902 0.1,-0.343 -4.829,-3.825 C 7.044,-3.413 6.941,-3.471 6.659,-3.629 6.568,-3.682 6.456,-3.744 6.313,-3.826 6.167,-3.908 6.019,-3.95 5.864,-3.95 c -0.267,0 -0.476,0.127 -0.545,0.252 l -0.018,0.036 0.014,0.006 0.019,0.076 C 5.397,-3.282 5.488,-3.021 5.57,-2.818 5.491,-2.994 5.434,-3.182 5.382,-3.365 5.282,-3.698 5.188,-4.014 4.964,-4.22 4.752,-4.452 4.397,-4.631 4.255,-4.696 L 4.194,-4.723 C 4.191,-4.732 4.191,-4.738 4.185,-4.746 l 0.024,0.008 C 4.485,-4.665 5,-4.335 5.185,-3.985 l 0.012,0.023 0.025,-0.003 c 0.079,-0.006 0.139,-0.03 0.203,-0.058 0.075,-0.035 0.157,-0.069 0.288,-0.069 0.154,0 0.36,0.052 0.621,0.163 L 6.501,-3.862 6.38,-3.989 c -0.461,-0.491 -1.322,-1.04 -1.819,-1.04 -0.191,0 -0.322,0.084 -0.376,0.242 L 4.179,-4.769 C 4.097,-4.973 3.997,-5.164 3.851,-5.311 3.715,-5.445 3.245,-5.884 2.836,-5.884 c -0.121,0 -0.224,0.041 -0.303,0.121 -0.094,0.09 -0.146,0.203 -0.146,0.34 0,0.012 0,0.024 0.003,0.034 -0.03,-0.13 0.003,-0.259 0.088,-0.362 0.094,-0.121 0.255,-0.186 0.376,-0.157 l 0.024,0.006 0.1,-0.15 c -0.015,0.028 -0.03,0.062 -0.039,0.097 l -0.012,0.041 0.042,0.006 C 3.221,-5.872 3.797,-5.484 4,-5.17 l 0.012,0.017 h 0.015 c 0.115,0.006 0.215,-0.013 0.312,-0.028 0.082,-0.015 0.164,-0.029 0.249,-0.029 0.142,0 0.352,0.032 0.706,0.276 l 7.17,5.122 0.1,-0.281 -0.022,-0.016 -8.036,-5.754 C 4.245,-6.015 3.757,-6.268 3.391,-6.268 c -0.188,0 -0.328,0.072 -0.407,0.205 z m -4.314,2.888 3.617,-4.007 0.7,0.7 -3.634,3.953 -0.123,-0.053 c 0.004,-0.135 -0.044,-0.261 -0.132,-0.356 -0.097,-0.103 -0.233,-0.161 -0.391,-0.167 z m 3.614,-4.115 -3.705,4.103 0.079,0.157 h 0.025 c 0.148,0 0.272,0.05 0.361,0.142 0.078,0.086 0.119,0.203 0.11,0.326 l -0.002,0.027 0.219,0.097 0.018,-0.02 3.703,-4.024 z m 0.054,-0.323 0.777,-0.779 1.265,1.228 v 1.723 L 1.314,-8.167 0.556,-8.906 0.82,-9.19 Z m 0.775,-0.882 -0.881,0.882 0.026,0.026 1.316,1.332 -0.267,0.284 0.864,0.844 0.285,-0.282 v -1.787 z m -2.299,0.237 1.49,-1.474 0.777,0.761 -1.414,1.431 0.211,0.229 -0.69,0.793 -0.374,-0.358 z m 1.49,-1.577 -0.026,0.025 -1.54,1.52 v 1.447 l 0.455,0.434 0.783,-0.903 -0.204,-0.225 1.414,-1.435 z m 0.053,-0.345 0.758,-0.757 1.247,1.263 0.018,1.705 -0.206,0.19 -0.67,-0.685 0.267,-0.322 z m 0.758,-0.864 -0.864,0.864 0.027,0.027 1.39,1.373 -0.264,0.319 0.767,0.788 0.285,-0.264 -0.021,-1.767 z m -2.301,0.239 1.508,-1.49 0.74,0.758 -1.469,1.489 0.227,0.265 -0.724,0.74 -0.282,-0.266 z m 1.509,-1.597 -0.027,0.027 -1.558,1.54 v 1.558 l 0.361,0.34 0.821,-0.843 -0.227,-0.265 1.475,-1.492 z m 0.034,-0.303 0.738,-0.74 1.267,1.318 v 1.669 l -0.151,0.167 -0.667,-0.702 0.245,-0.301 z m 0.739,-0.848 -0.845,0.848 0.027,0.024 1.408,1.391 -0.243,0.302 0.768,0.808 0.224,-0.249 v -1.726 L 1.569,-15.1 Z m -2.282,0.353 1.509,-1.511 0.775,0.723 -1.433,1.471 0.172,0.169 -0.744,0.779 -0.279,-0.23 z m 1.508,-1.616 -1.584,1.584 v 1.468 l 0.361,0.297 0.843,-0.881 -0.17,-0.169 1.435,-1.474 z m -1.508,-0.991 0.173,-0.219 0.891,0.908 -0.134,0.148 0.187,0.224 -0.778,0.743 -0.339,-0.306 z m 0.166,-0.333 -0.242,0.309 v 1.555 l 0.415,0.376 0.882,-0.841 -0.19,-0.229 0.134,-0.151 z m 2.545,0.206 7.421,-7.982 0.792,0.613 -7.473,8.091 z m 7.415,-8.083 -0.024,0.022 -7.494,8.064 0.846,0.825 0.024,-0.028 7.558,-8.179 z m -17.423,0.17 1.125,-0.715 9.72,9.835 v 1.762 l -0.173,0.22 -0.7,-0.752 0.264,-0.266 -0.027,-0.026 z m 1.134,-0.808 -0.024,0.015 -1.231,0.779 0.035,0.033 10.216,10.066 -0.264,0.263 0.809,0.869 0.243,-0.309 v -1.82 l -0.009,-0.011 z m 7.389,-2.996 0.206,-0.033 0.907,0.2 0.036,10.877 -0.168,0.17 -0.981,-0.982 z m 0.209,-0.109 -0.283,0.043 v 10.328 l 0.01,0.012 1.045,1.046 0.247,-0.245 v -0.016 l -0.04,-10.952 z" /></g></g></g></g></svg>