<?xml version="1.0" encoding="UTF-8" standalone="no"?>
<svg
   xmlns:dc="http://purl.org/dc/elements/1.1/"
   xmlns:cc="http://creativecommons.org/ns#"
   xmlns:rdf="http://www.w3.org/1999/02/22-rdf-syntax-ns#"
   xmlns:svg="http://www.w3.org/2000/svg"
   xmlns="http://www.w3.org/2000/svg"
   viewBox="0 0 175.89548 207.87399"
   height="207.87399"
   width="175.89548"
   xml:space="preserve"
   id="svg2"
   version="1.1"><metadata
     id="metadata8"><rdf:RDF><cc:Work
         rdf:about=""><dc:format>image/svg+xml</dc:format><dc:type
           rdf:resource="http://purl.org/dc/dcmitype/StillImage" /></cc:Work></rdf:RDF></metadata><defs
     id="defs6" /><g
     transform="matrix(1.3333333,0,0,-1.3333333,0,207.874)"
     id="g10"><path
       id="path12"
       style="fill:#ffffff;fill-opacity:1;fill-rule:evenodd;stroke:none"
       d="m 109.4978,111.4135 3e-4,5e-4 -6.1639,6.164 -6.164,-6.164 -2e-4,12.3282 -6.1643,6.1642 -6.1639,-6.1639 -3e-4,12.3281 -6.1645,6.1643 -6.1639,-6.164 -3e-4,12.3282 -6.1642,6.1642 -43.1499,-43.1495 c 5.6141,5.347 13.212,8.6298 21.5751,8.6298 8.3631,0 15.9608,-3.2828 21.5748,-8.6298 5.614,-5.347 13.2117,-8.6298 21.5747,-8.6298 8.3628,0 15.9605,3.2828 21.5745,8.6295" /><path
       id="path14"
       style="fill:#37a636;fill-opacity:1;fill-rule:evenodd;stroke:none"
       d="m 109.4981,68.2645 c -5.614,-5.347 -13.2117,-8.6301 -21.5748,-8.6301 -8.363,0 -15.9607,3.2831 -21.5747,8.6301 -5.614,5.347 -13.2117,8.6298 -21.5748,8.6298 -8.3631,0 -15.9608,-3.2828 -21.5751,-8.6298 0,-23.8269 19.323,-43.1495 43.1499,-43.1495 23.8269,0 43.1495,19.3226 43.1495,43.1495" /><path
       id="path16"
       style="fill:#6fbe61;fill-opacity:1;fill-rule:evenodd;stroke:none"
       d="m 109.4981,94.1539 c -5.614,-5.347 -13.2117,-8.6298 -21.5748,-8.6298 -8.363,0 -15.9607,3.2828 -21.5747,8.6298 -5.614,5.347 -13.2117,8.6301 -21.5748,8.6301 -8.3631,0 -15.961,-3.2831 -21.5751,-8.6301 V 68.2645 c 5.6143,5.347 13.212,8.6298 21.5751,8.6298 8.3631,0 15.9608,-3.2828 21.5748,-8.6298 5.614,-5.347 13.2117,-8.6301 21.5747,-8.6301 8.3631,0 15.9608,3.2831 21.5748,8.6301 v -3e-4 3e-4 25.8894" /><path
       id="path18"
       style="fill:#abd99a;fill-opacity:1;fill-rule:evenodd;stroke:none"
       d="m 109.4981,111.4138 c -5.614,-5.347 -13.2117,-8.6298 -21.5748,-8.6298 -8.363,0 -15.9607,3.2828 -21.5747,8.6298 -5.614,5.347 -13.2117,8.6298 -21.5748,8.6298 -8.3631,0 -15.961,-3.2828 -21.5751,-8.6298 V 94.1539 c 5.6141,5.347 13.212,8.6301 21.5751,8.6301 8.3631,0 15.9608,-3.2831 21.5748,-8.6301 5.614,-5.347 13.2117,-8.6298 21.5747,-8.6298 8.3631,0 15.9608,3.2828 21.5748,8.6298 v 17.2599" /><path
       id="path20"
       style="fill:#231f20;fill-opacity:1;fill-rule:nonzero;stroke:none"
       d="m 110.4437,111.8106 v -0.6599 -42.8862 h 0.004 v -3e-4 h -0.004 c 0,-12.1776 -4.9356,-23.2021 -12.914,-31.1805 -7.981,-7.981 -19.0055,-12.9181 -31.1811,-12.9181 v 0 h -3e-4 v 0.0037 c -12.1777,3e-4 -23.2024,4.9357 -31.1808,12.9141 -7.981,7.9809 -12.9181,19.0055 -12.9181,31.1805 v 6e-4 43.1493 0.3928 l 43.4282,43.4277 0.671,0.6712 0.6712,-0.6712 6.1642,-6.164 0.671,-0.6712 6e-4,-9.6435 4.1504,4.1505 0.6713,0.671 0.671,-0.671 6.1642,-6.1642 0.6712,-0.6713 3e-4,-9.6437 4.1505,4.1505 0.6712,0.6712 0.6713,-0.6712 6.1642,-6.1642 0.671,-0.671 2e-4,-9.6437 4.1505,4.1504 0.6713,0.6713 0.6712,-0.6713 5.8896,-5.8895 z m -38.4797,34.6975 -4.2727,-4.2727 4.273,-4.2732 z m 12.3287,-12.3284 -4.2729,-4.273 4.2732,-4.2729 z m 12.3285,-12.3285 -4.273,-4.2729 4.2732,-4.273 z m 11.5089,-10.4114 -4.7959,4.7957 -5.4927,-5.4927 -0.6713,-0.671 -0.6712,0.671 -6.1642,6.1642 -0.671,0.6713 0.671,0.6712 5.4929,5.4927 -4.822,4.8217 -5.4927,-5.4927 -0.6712,-0.6709 -0.671,0.6709 -6.1645,6.1643 -0.6712,0.6712 0.6712,0.6713 5.4927,5.4926 -4.8217,4.8221 -5.493,-5.4927 -0.6712,-0.6713 -0.671,0.6713 -6.1642,6.1642 -0.6713,0.6712 0.6713,0.671 5.4927,5.4927 -4.822,4.822 -35.284,-35.284 c 0.5729,0.2696 1.1548,0.523 1.7456,0.7592 3.704,1.4816 7.7417,2.2966 11.9636,2.2966 4.2222,0 8.2599,-0.815 11.9636,-2.2966 3.841,-1.5364 7.3179,-3.7905 10.2637,-6.5966 2.774,-2.6418 6.0472,-4.7644 9.6633,-6.2107 3.4767,-1.3909 7.276,-2.1557 11.2589,-2.1557 3.983,0 7.7823,0.7648 11.259,2.1555 3.3097,1.324 6.3323,3.2142 8.9478,5.551 z m -74.6152,5.4987 c -3.4881,-1.3949 -6.6572,-3.4194 -9.3668,-5.9321 v -42.7419 -6e-4 c 0,-11.6509 4.7245,-22.2009 12.3616,-29.838 7.6393,-7.6394 18.1899,-12.3653 29.8386,-12.3653 v 0.0037 h 3e-4 v 0 c 11.6515,0 22.2015,4.7245 29.8389,12.3616 7.6393,7.6394 12.365,18.1896 12.365,29.8383 h -0.004 v 3e-4 h 0.004 l 3e-4,41.0389 c -2.5787,-2.1501 -5.4984,-3.9053 -8.6661,-5.1724 -3.7038,-1.4814 -7.7412,-2.2964 -11.9634,-2.2964 -4.2219,0 -8.2596,0.815 -11.9633,2.2967 -3.8412,1.5364 -7.3179,3.7905 -10.264,6.5965 -2.774,2.6419 -6.0471,4.7645 -9.6633,6.2107 -3.4767,1.3909 -7.2759,2.1557 -11.2589,2.1557 -3.983,0 -7.7822,-0.7648 -11.2589,-2.1557" /><path
       id="path22"
       style="fill:#231f20;fill-opacity:1;fill-rule:evenodd;stroke:none"
       d="m 14.1052,104.0502 c 0.0524,3.7497 -2.6734,6.6274 -6.7255,6.6841 C 3.384,110.7901 0.5213,108.1037 0.4674,104.241 0.4133,100.3785 3.2,97.63 7.1955,97.5742 c 3.9954,-0.0559 6.855,2.5741 6.9097,6.476 z M 7.2437,99.5987 c -3.1051,0.0436 -5.0477,2.0786 -5.012,4.6349 0.0357,2.5586 2.0344,4.519 5.1392,4.4756 3.0853,-0.0431 5.008,-2.0976 4.9728,-4.617 -0.0365,-2.6127 -2.0715,-4.5358 -5.1,-4.4935 z M 0.6752,92.1532 0.5978,86.6248 c -0.0419,-2.9942 1.2433,-4.5451 3.6493,-4.5788 1.5894,-0.0221 2.776,0.8889 3.3126,2.6433 0.5862,-1.3717 1.4315,-1.9911 2.7746,-2.0098 2.1603,-0.0303 3.3729,1.3354 3.41,4.0074 l 0.074,5.2823 -1.6115,0.0227 -0.0218,-1.5525 -9.8266,0.1375 0.0219,1.5525 z m 7.5841,-3.534 3.8996,-0.0547 -0.0209,-1.4958 C 12.1144,85.3835 11.3644,84.5399 10.0973,84.5578 8.8475,84.5751 8.2154,85.4748 8.24,87.2365 Z M 2.2757,88.7029 6.7241,88.6408 6.7022,87.0883 C 6.6733,85.0042 5.8073,83.9755 4.4246,83.9948 3.0419,84.0141 2.2243,85.0294 2.2499,86.8649 Z m 15.6415,-16.2817 -3.2437,-1.7708 -0.0255,-1.8181 3.193,-1.8629 0.0159,1.1338 -2.079,1.6214 2.1237,1.5795 z m -8.7877,-6.696 -0.0243,-1.7419 4.2242,-0.0589 0.0226,1.6115 -1.6854,0.0235 c 1.3575,1.0023 1.9442,2.3006 1.9709,4.2148 0.0527,3.7667 -2.6731,6.6274 -6.7252,6.6841 C 2.9166,76.5142 0.0539,73.8275 0,69.965 -0.0428,66.9166 1.6512,64.5233 4.5179,63.612 l 0.9873,1.6152 c -2.3568,0.7713 -3.7701,2.6487 -3.7409,4.7302 0.0357,2.5588 2.0344,4.5192 5.1395,4.4756 3.0849,-0.0431 5.0281,-2.0413 4.9901,-4.7673 -0.0261,-1.8553 -0.9527,-3.1882 -2.7644,-3.9405 z m 6.435,-11.8834 -1.3108,4.8252 -1.5553,-0.4227 0.4067,-1.4981 -9.4836,-2.5764 -0.407,1.4984 -1.6458,-0.447 1.311,-4.8252 1.6455,0.4471 -0.4124,1.5173 9.4839,2.5765 0.4124,-1.5174 z m 0.8691,-8.0696 -7.4387,-10.3403 0.8776,-1.9525 10.5194,4.7271 0.7755,-1.7257 1.4701,0.6607 -2.126,4.731 -1.4701,-0.6607 0.6597,-1.4678 -7.8755,-3.5391 6.9077,9.6242 -1.7155,3.8177 -1.4701,-0.6604 0.6597,-1.4678 -8.964,-4.0283 -0.6597,1.4677 -1.5553,-0.699 2.01,-4.473 1.5554,0.699 -0.6596,1.4678 z m -1.9457,-17.7954 2.9063,-3.6935 1.34,1.0547 -0.9131,1.16 2.9413,1.0372 2.7405,-3.4827 -1.6875,-2.6302 -0.9844,1.2509 -1.3403,-1.0545 3.0447,-3.8693 1.3403,1.0548 -0.8782,1.1154 5.6268,8.7418 0.9963,-1.2665 1.2668,0.9966 -4.0643,5.1648 -1.2665,-0.9967 1.0531,-1.338 -9.8431,-3.3834 -0.9388,1.1928 z m 7.8772,0.0961 4.8705,1.7124 -2.833,-4.3018 z m 15.4973,-19.6138 4.4492,-1.5148 0.5494,1.6143 -1.3978,0.476 1.9023,2.4715 4.195,-1.4284 0.0173,-3.1249 -1.5072,0.5131 -0.5493,-1.6143 4.6607,-1.5866 0.5497,1.6141 -1.344,0.4575 -0.0425,10.3955 1.5259,-0.5193 0.5193,1.5256 -6.2217,2.1183 -0.5193,-1.5256 1.6117,-0.5488 -6.4119,-8.1984 -1.4375,0.4896 z m 6.5539,4.3708 3.1519,4.089 -0.0326,-5.1509 z M 57.119,1.895 57.0643,0.1536 C 57.477,0.0473 57.8772,0.015 58.2559,0.0031 60.639,-0.072 61.5144,1.2274 61.598,3.8786 l 0.3339,10.6195 1.5715,-0.0496 0.0508,1.6109 -4.9975,0.157 -0.0507,-1.6106 1.5516,-0.049 L 59.747,4.6777 C 59.6857,2.7252 59.6523,1.6651 57.9872,1.7175 57.6822,1.7271 57.3987,1.7926 57.119,1.895 Z m 20.5013,1.8705 c 4.0671,0.8051 5.8977,3.6584 5.0955,7.7086 -0.8016,4.0501 -3.5813,5.9904 -7.6484,5.1854 L 69.103,15.4789 69.4159,13.8977 70.9946,14.2104 72.9031,4.57 71.3248,4.2574 71.6559,2.5849 Z m -2.8812,1.1855 -1.9051,9.6233 2.6189,0.5188 c 2.7323,0.5408 4.6009,-0.9029 5.2075,-3.968 C 81.286,7.9654 80.0906,6.0106 77.1168,5.4215 Z m 15.8193,17.4297 c -3.3049,-1.772 -4.5005,-5.5511 -2.5857,-9.1225 1.8884,-3.5218 5.6259,-4.7231 9.0306,-2.8976 3.4044,1.8253 4.4575,5.5948 2.569,9.1168 -1.8881,3.5215 -5.5746,4.7472 -9.0139,2.9033 z m 7.2199,-3.8427 c 1.4675,-2.7371 0.6293,-5.4227 -1.624,-6.6305 -2.2552,-1.2093 -4.9385,-0.4119 -6.4063,2.325 -1.4579,2.719 -0.5927,5.3969 1.6279,6.5874 2.3026,1.2348 4.9712,0.3872 6.4024,-2.2819 z m 13.4453,2.6076 1.3887,1.3989 -5.3952,10.9335 1.1619,1.1699 -1.1438,1.1355 -3.4293,-3.4531 1.1435,-1.1359 1.0802,1.088 4.2211,-8.5683 -8.5975,4.1615 0.9726,0.9794 -1.1435,1.1356 -3.4313,-3.4552 1.1435,-1.1356 1.07,1.0772 z m -5.186,20.9424 3.6964,0.0431 0.8759,1.5933 -1.9443,3.1439 -0.5477,-0.9961 1.0755,-2.4052 -2.6178,-0.3999 z m 14.8875,-9.4794 0.8025,1.4599 -0.731,0.4019 c 1.0593,0.3892 1.8232,1.0276 2.3626,2.0089 1.1948,2.1734 0.595,4.2747 -1.4295,5.3878 -1.6259,0.8938 -3.1453,0.6483 -4.6462,-0.708 l -1.7921,-1.6096 c -0.9051,-0.8192 -1.5919,-1.006 -2.4369,-0.5414 -0.9468,0.5205 -1.1773,1.5568 -0.6115,2.5855 0.4646,0.845 1.3618,1.4553 2.5396,1.6727 l 0.8473,-0.4657 0.748,1.3603 -3.3032,1.8159 -0.7384,-1.3433 0.7631,-0.4195 c -1.0041,-0.3351 -1.8196,-1.0324 -2.3485,-1.9939 -1.0137,-1.8437 -0.4411,-3.9079 1.368,-4.9023 1.4099,-0.775 2.8434,-0.5272 4.2324,0.7421 l 1.8039,1.6674 c 0.8703,0.7965 1.8315,0.9363 2.746,0.4334 1.0607,-0.5831 1.3892,-1.7578 0.7693,-2.8854 -0.5749,-1.0457 -1.6237,-1.6149 -3.0645,-1.6004 l -1.0285,0.5652 -0.8027,-1.4596 z m -9.0938,22.1386 3.5408,1.0576 0.403,1.7734 -2.7354,2.4857 -0.2517,-1.1058 1.6965,-2.018 -2.4057,-1.1035 z m 9.9879,4.7222 0.3861,1.6991 -4.1196,0.936 -0.3572,-1.5718 1.6435,-0.3733 c -1.5363,-0.6982 -2.3802,-1.8459 -2.8043,-3.7128 -0.8345,-3.6734 1.2371,-7.0384 5.1886,-7.9365 3.8967,-0.8852 7.2555,1.1472 8.1116,4.9145 0.6755,2.9727 -0.4842,5.6659 -3.0983,7.1535 l -1.3017,-1.3748 c 2.1447,-1.2442 3.1369,-3.3747 2.6757,-5.4046 -0.5673,-2.4956 -2.9296,-3.9974 -5.9579,-3.3094 -3.0084,0.6837 -4.4938,3.0424 -3.8897,5.701 0.4113,1.8088 1.5948,2.92 3.5232,3.2791 z m -3.6805,12.9337 -0.07,-4.9995 1.6115,-0.0227 0.0218,1.5526 9.8266,-0.1375 -0.0219,-1.5525 1.7051,-0.0238 0.07,4.9994 -1.705,0.0238 -0.0222,-1.5721 -9.8263,0.1375 0.0219,1.5721 z m 2.2481,10.3286 11.1116,6.2277 0.03,2.1404 -11.5316,0.1613 0.0263,1.8922 -1.6114,0.0224 -0.0726,-5.186 1.6115,-0.0227 0.0224,1.6089 8.6335,-0.1207 -10.3281,-5.8031 -0.0587,-4.1851 1.6115,-0.0227 0.0227,1.609 9.8266,-0.1375 -0.0227,-1.6089 1.7051,-0.0238 0.0686,4.9033 -1.7051,0.0241 -0.0224,-1.6092 z m 11.3525,14.8201 0.0658,4.699 -1.7051,0.0241 -0.0207,-1.4763 -2.9384,1.0451 0.0621,4.4311 2.9668,0.9822 -0.0224,-1.5919 1.705,-0.0238 0.0689,4.9229 -1.705,0.0238 -0.0199,-1.4196 -9.8739,-3.2527 0.0224,1.6115 -1.6115,0.0227 -0.0919,-6.5716 1.6115,-0.0227 0.0239,1.7028 9.7786,-3.5649 -0.0212,-1.5179 z m -6.1824,4.8824 -4.8628,1.7342 4.909,1.5602 -0.0462,-3.2944" /><path
       id="path24"
       style="fill:#231f20;fill-opacity:1;fill-rule:evenodd;stroke:none"
       d="m 33.406,19.6566 2.4687,0.5 0.5,-2.4687 -2.4687,-0.4997 -0.5,2.4684" /></g></svg>