<?xml version="1.0" encoding="UTF-8" standalone="no"?>
<svg
   xmlns:dc="http://purl.org/dc/elements/1.1/"
   xmlns:cc="http://creativecommons.org/ns#"
   xmlns:rdf="http://www.w3.org/1999/02/22-rdf-syntax-ns#"
   xmlns:svg="http://www.w3.org/2000/svg"
   xmlns="http://www.w3.org/2000/svg"
   viewBox="0 0 816 1056"
   height="1056"
   width="816"
   xml:space="preserve"
   id="svg2"
   version="1.1"><metadata
     id="metadata8"><rdf:RDF><cc:Work
         rdf:about=""><dc:format>image/svg+xml</dc:format><dc:type
           rdf:resource="http://purl.org/dc/dcmitype/StillImage" /></cc:Work></rdf:RDF></metadata><defs
     id="defs6"><clipPath
       id="clipPath18"
       clipPathUnits="userSpaceOnUse"><path
         id="path16"
         d="m 232.441,593.859 h 130.394 v 153.07 H 232.441 Z" /></clipPath><clipPath
       id="clipPath30"
       clipPathUnits="userSpaceOnUse"><path
         id="path28"
         d="m 232.441,593.859 h 130.394 v 153.07 H 232.441 Z" /></clipPath><clipPath
       id="clipPath42"
       clipPathUnits="userSpaceOnUse"><path
         id="path40"
         d="m 232.441,593.859 h 130.394 v 153.07 H 232.441 Z" /></clipPath><clipPath
       id="clipPath54"
       clipPathUnits="userSpaceOnUse"><path
         id="path52"
         d="m 232.441,593.859 h 130.394 v 153.07 H 232.441 Z" /></clipPath><clipPath
       id="clipPath64"
       clipPathUnits="userSpaceOnUse"><path
         id="path62"
         d="m 232.441,593.859 h 130.394 v 153.07 H 232.441 Z" /></clipPath><clipPath
       id="clipPath74"
       clipPathUnits="userSpaceOnUse"><path
         id="path72"
         d="m 232.441,593.859 h 130.394 v 153.07 H 232.441 Z" /></clipPath><clipPath
       id="clipPath86"
       clipPathUnits="userSpaceOnUse"><path
         id="path84"
         d="m 232.441,593.859 h 130.394 v 153.07 H 232.441 Z" /></clipPath><clipPath
       id="clipPath98"
       clipPathUnits="userSpaceOnUse"><path
         id="path96"
         d="m 232.441,593.859 h 130.394 v 153.07 H 232.441 Z" /></clipPath><clipPath
       id="clipPath110"
       clipPathUnits="userSpaceOnUse"><path
         id="path108"
         d="m 232.441,593.859 h 130.394 v 153.07 H 232.441 Z" /></clipPath><clipPath
       id="clipPath122"
       clipPathUnits="userSpaceOnUse"><path
         id="path120"
         d="m 232.441,593.859 h 130.394 v 153.07 H 232.441 Z" /></clipPath><clipPath
       id="clipPath134"
       clipPathUnits="userSpaceOnUse"><path
         id="path132"
         d="m 232.441,593.859 h 130.394 v 153.07 H 232.441 Z" /></clipPath><clipPath
       id="clipPath146"
       clipPathUnits="userSpaceOnUse"><path
         id="path144"
         d="m 232.441,593.859 h 130.394 v 153.07 H 232.441 Z" /></clipPath><clipPath
       id="clipPath158"
       clipPathUnits="userSpaceOnUse"><path
         id="path156"
         d="m 232.441,593.859 h 130.394 v 153.07 H 232.441 Z" /></clipPath><clipPath
       id="clipPath170"
       clipPathUnits="userSpaceOnUse"><path
         id="path168"
         d="m 232.441,593.859 h 130.394 v 153.07 H 232.441 Z" /></clipPath><clipPath
       id="clipPath182"
       clipPathUnits="userSpaceOnUse"><path
         id="path180"
         d="m 232.441,593.859 h 130.394 v 153.07 H 232.441 Z" /></clipPath><clipPath
       id="clipPath192"
       clipPathUnits="userSpaceOnUse"><path
         id="path190"
         d="m 232.441,593.859 h 130.394 v 153.07 H 232.441 Z" /></clipPath><clipPath
       id="clipPath204"
       clipPathUnits="userSpaceOnUse"><path
         id="path202"
         d="m 232.441,593.859 h 130.394 v 153.07 H 232.441 Z" /></clipPath><clipPath
       id="clipPath216"
       clipPathUnits="userSpaceOnUse"><path
         id="path214"
         d="m 232.441,593.859 h 130.394 v 153.07 H 232.441 Z" /></clipPath><clipPath
       id="clipPath228"
       clipPathUnits="userSpaceOnUse"><path
         id="path226"
         d="m 232.441,593.859 h 130.394 v 153.07 H 232.441 Z" /></clipPath><clipPath
       id="clipPath240"
       clipPathUnits="userSpaceOnUse"><path
         id="path238"
         d="m 232.441,593.859 h 130.394 v 153.07 H 232.441 Z" /></clipPath><clipPath
       id="clipPath252"
       clipPathUnits="userSpaceOnUse"><path
         id="path250"
         d="m 232.441,593.859 h 130.394 v 153.07 H 232.441 Z" /></clipPath><clipPath
       id="clipPath264"
       clipPathUnits="userSpaceOnUse"><path
         id="path262"
         d="m 232.441,593.859 h 130.394 v 153.07 H 232.441 Z" /></clipPath><clipPath
       id="clipPath274"
       clipPathUnits="userSpaceOnUse"><path
         id="path272"
         d="m 232.441,593.859 h 130.394 v 153.07 H 232.441 Z" /></clipPath><clipPath
       id="clipPath284"
       clipPathUnits="userSpaceOnUse"><path
         id="path282"
         d="m 232.441,593.859 h 130.394 v 153.07 H 232.441 Z" /></clipPath><clipPath
       id="clipPath294"
       clipPathUnits="userSpaceOnUse"><path
         id="path292"
         d="m 232.441,593.859 h 130.394 v 153.07 H 232.441 Z" /></clipPath><clipPath
       id="clipPath304"
       clipPathUnits="userSpaceOnUse"><path
         id="path302"
         d="m 232.441,593.859 h 130.394 v 153.07 H 232.441 Z" /></clipPath><clipPath
       id="clipPath316"
       clipPathUnits="userSpaceOnUse"><path
         id="path314"
         d="m 232.441,593.859 h 130.394 v 153.07 H 232.441 Z" /></clipPath><clipPath
       id="clipPath328"
       clipPathUnits="userSpaceOnUse"><path
         id="path326"
         d="m 232.441,593.859 h 130.394 v 153.07 H 232.441 Z" /></clipPath><clipPath
       id="clipPath340"
       clipPathUnits="userSpaceOnUse"><path
         id="path338"
         d="m 232.441,593.859 h 130.394 v 153.07 H 232.441 Z" /></clipPath><clipPath
       id="clipPath352"
       clipPathUnits="userSpaceOnUse"><path
         id="path350"
         d="m 232.441,593.859 h 130.394 v 153.07 H 232.441 Z" /></clipPath><clipPath
       id="clipPath364"
       clipPathUnits="userSpaceOnUse"><path
         id="path362"
         d="m 232.441,593.859 h 130.394 v 153.07 H 232.441 Z" /></clipPath><clipPath
       id="clipPath376"
       clipPathUnits="userSpaceOnUse"><path
         id="path374"
         d="m 232.441,593.859 h 130.394 v 153.07 H 232.441 Z" /></clipPath><clipPath
       id="clipPath388"
       clipPathUnits="userSpaceOnUse"><path
         id="path386"
         d="m 232.441,593.859 h 130.394 v 153.07 H 232.441 Z" /></clipPath><clipPath
       id="clipPath400"
       clipPathUnits="userSpaceOnUse"><path
         id="path398"
         d="m 232.441,593.859 h 130.394 v 153.07 H 232.441 Z" /></clipPath><clipPath
       id="clipPath412"
       clipPathUnits="userSpaceOnUse"><path
         id="path410"
         d="m 232.441,593.859 h 130.394 v 153.07 H 232.441 Z" /></clipPath><clipPath
       id="clipPath424"
       clipPathUnits="userSpaceOnUse"><path
         id="path422"
         d="m 232.441,593.859 h 130.394 v 153.07 H 232.441 Z" /></clipPath><clipPath
       id="clipPath436"
       clipPathUnits="userSpaceOnUse"><path
         id="path434"
         d="m 232.441,593.859 h 130.394 v 153.07 H 232.441 Z" /></clipPath><clipPath
       id="clipPath448"
       clipPathUnits="userSpaceOnUse"><path
         id="path446"
         d="m 232.441,593.859 h 130.394 v 153.07 H 232.441 Z" /></clipPath><clipPath
       id="clipPath460"
       clipPathUnits="userSpaceOnUse"><path
         id="path458"
         d="m 232.441,593.859 h 130.394 v 153.07 H 232.441 Z" /></clipPath><clipPath
       id="clipPath472"
       clipPathUnits="userSpaceOnUse"><path
         id="path470"
         d="m 232.441,593.859 h 130.394 v 153.07 H 232.441 Z" /></clipPath><clipPath
       id="clipPath484"
       clipPathUnits="userSpaceOnUse"><path
         id="path482"
         d="m 232.441,593.859 h 130.394 v 153.07 H 232.441 Z" /></clipPath><clipPath
       id="clipPath496"
       clipPathUnits="userSpaceOnUse"><path
         id="path494"
         d="m 232.441,593.859 h 130.394 v 153.07 H 232.441 Z" /></clipPath><clipPath
       id="clipPath508"
       clipPathUnits="userSpaceOnUse"><path
         id="path506"
         d="m 232.441,593.859 h 130.394 v 153.07 H 232.441 Z" /></clipPath></defs><g
     transform="matrix(1.3333333,0,0,-1.3333333,0,1056)"
     id="g10"><g
       transform="matrix(5.9933014,0,0,5.9933014,-1478.4385,-3591.6909)"
       id="g12"><g
         clip-path="url(#clipPath18)"
         id="g14"><g
           transform="translate(343.73028,725.95575)"
           id="g20"><path
             id="path22"
             style="fill:#336dbf;fill-opacity:1;fill-rule:nonzero;stroke:none"
             d="m 0,0 h -92.045 v -64.991 l 0.009,-4.014 c 0.211,-2.463 0.619,-4.889 1.216,-7.257 10.395,4.025 19.667,8.262 44.495,8.262 25.267,0 34.423,-4.389 45.046,-8.475 0.633,2.466 1.065,4.995 1.279,7.567 z" /></g></g></g><g
       transform="matrix(5.9933014,0,0,5.9933014,-1478.4385,-3591.6909)"
       id="g24"><g
         clip-path="url(#clipPath30)"
         id="g26"><g
           transform="translate(311.91833,716.79313)"
           id="g32"><path
             id="path34"
             style="fill:#fbd23d;fill-opacity:1;fill-rule:nonzero;stroke:none"
             d="m 0,0 c -0.646,-2.362 -1.742,-4.283 -3.88,-4.283 -2.14,0 -3.108,1.147 -3.888,3.392 h -1.201 c -0.993,-3.104 -2.389,-4.984 -5.32,-4.984 -2.936,0 -4.422,1.996 -5.324,4.984 h -1.203 c -0.895,-2.381 -1.738,-3.412 -3.885,-3.412 -2.146,0 -3.223,1.899 -3.886,4.303 h -1.007 l 1.001,-9.017 H 0.024 L 1.022,0 Z" /></g></g></g><g
       transform="matrix(5.9933014,0,0,5.9933014,-1478.4385,-3591.6909)"
       id="g36"><g
         clip-path="url(#clipPath42)"
         id="g38"><g
           transform="translate(283.59912,708.08659)"
           id="g44"><path
             id="path46"
             style="fill:#050606;fill-opacity:1;fill-rule:nonzero;stroke:none"
             d="m 0,0 h 28.066 l 0.931,8.398 H 28.555 C 27.714,5.517 26.366,4.114 24.438,4.114 c -2.35,0 -3.362,1.348 -4.104,3.393 H 19.575 C 18.746,5.01 17.416,2.524 14.029,2.524 10.52,2.524 9.175,5.305 8.476,7.507 H 7.716 C 6.843,5.245 5.931,4.098 3.618,4.098 c -2.533,0 -3.568,2.391 -4.119,4.3 h -0.43 z M 28.616,-0.613 H -0.552 l -1.065,9.624 h 1.582 L 0.03,8.786 C 0.793,6.005 1.932,4.712 3.618,4.712 c 1.852,0 2.663,0.719 3.599,3.213 l 0.076,0.198 h 1.641 l 0.064,-0.22 c 0.997,-3.295 2.55,-4.766 5.031,-4.766 2.488,0 3.944,1.382 5.03,4.774 l 0.067,0.212 h 1.643 L 20.84,7.915 c 0.818,-2.354 1.761,-3.188 3.598,-3.188 1.685,0 2.827,1.294 3.59,4.059 l 0.061,0.225 h 1.597 z" /></g></g></g><g
       transform="matrix(5.9933014,0,0,5.9933014,-1478.4385,-3591.6909)"
       id="g48"><g
         clip-path="url(#clipPath54)"
         id="g50"><path
           id="path56"
           style="fill:#fbd23d;fill-opacity:1;fill-rule:nonzero;stroke:none"
           d="m 311.955,702.686 h -28.55 v 3.503 h 28.55 z" /></g></g><g
       transform="matrix(5.9933014,0,0,5.9933014,-1478.4385,-3591.6909)"
       id="g58"><g
         clip-path="url(#clipPath64)"
         id="g60"><path
           id="path66"
           style="fill:#050606;fill-opacity:1;fill-rule:nonzero;stroke:none"
           d="m 283.712,702.994 h 27.938 v 2.89 h -27.938 z m 28.552,-0.615 h -29.166 v 4.12 h 29.166 z" /></g></g><g
       transform="matrix(5.9933014,0,0,5.9933014,-1478.4384,-3591.6909)"
       id="g68"><g
         clip-path="url(#clipPath74)"
         id="g70"><g
           transform="translate(283.839,719.41901)"
           id="g76"><path
             id="path78"
             style="fill:#fbd23d;fill-opacity:1;fill-rule:nonzero;stroke:none"
             d="m 0,0 c 0,-0.571 -0.421,-1.037 -0.943,-1.037 -0.521,0 -0.946,0.466 -0.946,1.037 0,0.572 0.425,1.035 0.946,1.035 C -0.421,1.035 0,0.572 0,0" /></g></g></g><g
       transform="matrix(5.9933014,0,0,5.9933014,-1478.4384,-3591.6909)"
       id="g80"><g
         clip-path="url(#clipPath86)"
         id="g82"><g
           transform="translate(282.89561,720.15045)"
           id="g88"><path
             id="path90"
             style="fill:#050606;fill-opacity:1;fill-rule:nonzero;stroke:none"
             d="m 0,0 c -0.352,0 -0.638,-0.328 -0.638,-0.732 0,-0.401 0.286,-0.729 0.638,-0.729 0.352,0 0.641,0.328 0.641,0.729 C 0.641,-0.328 0.352,0 0,0 m 0,-2.073 c -0.689,0 -1.255,0.602 -1.255,1.341 0,0.742 0.566,1.344 1.255,1.344 0.689,0 1.255,-0.602 1.255,-1.344 0,-0.739 -0.566,-1.341 -1.255,-1.341" /></g></g></g><g
       transform="matrix(5.9933014,0,0,5.9933014,-1478.4384,-3591.6909)"
       id="g92"><g
         clip-path="url(#clipPath98)"
         id="g94"><g
           transform="translate(313.54936,719.48736)"
           id="g100"><path
             id="path102"
             style="fill:#fbd23d;fill-opacity:1;fill-rule:nonzero;stroke:none"
             d="m 0,0 c 0,-0.573 -0.424,-1.037 -0.944,-1.037 -0.525,0 -0.949,0.464 -0.949,1.037 0,0.575 0.424,1.04 0.949,1.04 C -0.424,1.04 0,0.575 0,0" /></g></g></g><g
       transform="matrix(5.9933014,0,0,5.9933014,-1478.4385,-3591.6909)"
       id="g104"><g
         clip-path="url(#clipPath110)"
         id="g106"><g
           transform="translate(312.60516,720.22015)"
           id="g112"><path
             id="path114"
             style="fill:#050606;fill-opacity:1;fill-rule:nonzero;stroke:none"
             d="m 0,0 c -0.354,0 -0.641,-0.328 -0.641,-0.733 0,-0.401 0.287,-0.73 0.641,-0.73 0.35,0 0.638,0.329 0.638,0.73 C 0.638,-0.328 0.35,0 0,0 m 0,-2.075 c -0.692,0 -1.254,0.603 -1.254,1.342 0,0.743 0.562,1.347 1.254,1.347 0.689,0 1.25,-0.604 1.25,-1.347 0,-0.739 -0.561,-1.342 -1.25,-1.342" /></g></g></g><g
       transform="matrix(5.9933014,0,0,5.9933014,-1478.4385,-3591.6909)"
       id="g116"><g
         clip-path="url(#clipPath122)"
         id="g118"><g
           transform="translate(304.57403,718.45117)"
           id="g124"><path
             id="path126"
             style="fill:#fbd23d;fill-opacity:1;fill-rule:nonzero;stroke:none"
             d="m 0,0 c 0,-0.575 -0.423,-1.039 -0.947,-1.039 -0.521,0 -0.946,0.464 -0.946,1.039 0,0.572 0.425,1.036 0.946,1.036 C -0.423,1.036 0,0.572 0,0" /></g></g></g><g
       transform="matrix(5.9933014,0,0,5.9933014,-1478.4385,-3591.6909)"
       id="g128"><g
         clip-path="url(#clipPath134)"
         id="g130"><g
           transform="translate(303.62764,719.18169)"
           id="g136"><path
             id="path138"
             style="fill:#050606;fill-opacity:1;fill-rule:nonzero;stroke:none"
             d="m 0,0 c -0.353,0 -0.641,-0.329 -0.641,-0.73 0,-0.404 0.288,-0.732 0.641,-0.732 0.353,0 0.639,0.328 0.639,0.732 C 0.639,-0.329 0.353,0 0,0 m 0,-2.076 c -0.689,0 -1.252,0.605 -1.252,1.346 0,0.74 0.563,1.345 1.252,1.345 0.691,0 1.254,-0.605 1.254,-1.345 0,-0.741 -0.563,-1.346 -1.254,-1.346" /></g></g></g><g
       transform="matrix(5.9933014,0,0,5.9933014,-1478.4385,-3591.6909)"
       id="g140"><g
         clip-path="url(#clipPath146)"
         id="g142"><g
           transform="translate(292.57452,718.45117)"
           id="g148"><path
             id="path150"
             style="fill:#fbd23d;fill-opacity:1;fill-rule:nonzero;stroke:none"
             d="m 0,0 c 0,-0.575 -0.423,-1.039 -0.947,-1.039 -0.523,0 -0.947,0.464 -0.947,1.039 0,0.572 0.424,1.036 0.947,1.036 C -0.423,1.036 0,0.572 0,0" /></g></g></g><g
       transform="matrix(5.9933014,0,0,5.9933014,-1478.4386,-3591.6909)"
       id="g152"><g
         clip-path="url(#clipPath158)"
         id="g154"><g
           transform="translate(291.62813,719.18169)"
           id="g160"><path
             id="path162"
             style="fill:#050606;fill-opacity:1;fill-rule:nonzero;stroke:none"
             d="m 0,0 c -0.354,0 -0.639,-0.329 -0.639,-0.73 0,-0.404 0.285,-0.732 0.639,-0.732 0.353,0 0.638,0.328 0.638,0.732 C 0.638,-0.329 0.353,0 0,0 m 0,-2.076 c -0.692,0 -1.256,0.605 -1.256,1.346 0,0.74 0.564,1.345 1.256,1.345 0.688,0 1.253,-0.605 1.253,-1.345 0,-0.741 -0.565,-1.346 -1.253,-1.346" /></g></g></g><g
       transform="matrix(5.9933014,0,0,5.9933014,-1478.4385,-3591.6909)"
       id="g164"><g
         clip-path="url(#clipPath170)"
         id="g166"><g
           transform="translate(297.84224,651.5227)"
           id="g172"><path
             id="path174"
             style="fill:#32aa5e;fill-opacity:1;fill-rule:nonzero;stroke:none"
             d="m 0,0 c -19.821,0 -32.742,-7.802 -39.881,-14.008 2.267,-3.791 5.095,-7.28 8.429,-10.345 8.584,-7.886 19.716,-12.229 31.345,-12.229 11.624,0 22.739,4.343 31.298,12.229 3.373,3.107 6.226,6.651 8.503,10.507 C 32.517,-7.666 19.648,0 0,0" /></g></g></g><g
       transform="matrix(5.9933014,0,0,5.9933014,-1478.4385,-3591.6909)"
       id="g176"><g
         clip-path="url(#clipPath182)"
         id="g178"><path
           id="path184"
           style="fill:#ffffff;fill-opacity:1;fill-rule:nonzero;stroke:none"
           d="m 307.922,671.075 h 2.881 v -4.989 h -2.881 z m -2.443,-4.988 h -2.882 v 4.989 h 2.882 z m -12.716,0 h -2.881 v 4.989 h 2.881 z m -5.324,0 h -2.881 v 4.989 h 2.881 z m -4.769,7.091 -0.02,-7.876 v -7.229 c 3.604,0.341 7.656,0.561 12.275,0.624 v 4.53 c 0,1.58 1.28,2.86 2.862,2.86 1.579,0 2.86,-1.28 2.86,-2.86 v -4.53 c 4.59,-0.063 8.619,-0.278 12.205,-0.615 v 15.096 z" /></g></g><g
       transform="matrix(5.9933014,0,0,5.9933014,-1478.4385,-3591.6909)"
       id="g186"><g
         clip-path="url(#clipPath192)"
         id="g188"><g
           transform="translate(333.59446,691.60953)"
           id="g194"><path
             id="path196"
             style="fill:#ffffff;fill-opacity:1;fill-rule:nonzero;stroke:none"
             d="m 0,0 -9.659,16.729 -9.667,-16.746 c 2.874,0.81 6.202,1.237 9.695,1.237 C -6.168,1.22 -2.862,0.8 0,0" /></g></g></g><g
       transform="matrix(5.9933014,0,0,5.9933014,-1478.4385,-3591.6909)"
       id="g198"><g
         clip-path="url(#clipPath204)"
         id="g200"><g
           transform="translate(323.93585,708.33854)"
           id="g206"><path
             id="path208"
             style="fill:#050606;fill-opacity:1;fill-rule:nonzero;stroke:none"
             d="m 0,0 9.659,-16.729 c -2.862,0.799 -6.168,1.22 -9.632,1.22 -3.493,0 -6.821,-0.427 -9.695,-1.237 z m 0.027,-16.28 c 3.77,0 7.342,-0.506 10.332,-1.464 l 0.95,-0.303 L 0,1.542 l -11.323,-19.613 0.953,0.307 c 3.002,0.97 6.597,1.484 10.397,1.484" /></g></g></g><g
       transform="matrix(5.9933014,0,0,5.9933014,-1478.4385,-3591.6909)"
       id="g210"><g
         clip-path="url(#clipPath216)"
         id="g212"><g
           transform="translate(328.10219,671.84706)"
           id="g218"><path
             id="path220"
             style="fill:#ffffff;fill-opacity:1;fill-rule:nonzero;stroke:none"
             d="M 0,0 V 3.614 C 1.011,3.495 1.976,3.338 2.881,3.144 V -0.404 C 1.959,-0.233 0.997,-0.1 0,0 m -2.61,0.181 c -0.424,0.012 -0.85,0.021 -1.283,0.021 -0.541,0 -1.073,-0.011 -1.599,-0.03 v 3.702 c 0.307,0.011 0.621,0.015 0.936,0.018 h 1.011 C -3.231,3.889 -2.917,3.885 -2.61,3.874 Z m -5.596,-0.189 c -0.996,-0.104 -1.961,-0.241 -2.882,-0.414 v 3.649 c 0.907,0.186 1.871,0.336 2.882,0.449 z m 4.103,8.203 c -3.806,0 -7.463,-0.599 -10.333,-1.689 v -20.349 c 9.004,-0.908 15.194,-2.589 20.61,-4.496 V 6.524 C 4.093,7.308 0.68,8.195 -4.103,8.195" /></g></g></g><g
       transform="matrix(5.9933014,0,0,5.9933014,-1478.4385,-3591.6909)"
       id="g222"><g
         clip-path="url(#clipPath228)"
         id="g224"><g
           transform="translate(334.31104,687.97903)"
           id="g230"><path
             id="path232"
             style="fill:#ffffff;fill-opacity:1;fill-rule:nonzero;stroke:none"
             d="m 0,0 c -1.099,0.399 -2.326,0.734 -3.656,0.994 v -2.249 l -0.447,0.074 c -1.274,0.208 -2.624,0.352 -4.009,0.426 l -0.364,0.019 v 2.048 h -3.657 v -2.048 l -0.364,-0.019 c -1.385,-0.074 -2.733,-0.218 -4.009,-0.426 l -0.448,-0.074 v 2.253 c -1.328,-0.262 -2.554,-0.595 -3.657,-0.995 v -4.331 l -31.44,-0.019 h -0.221 -0.165 l 0.004,4.331 c -1.103,0.401 -2.329,0.734 -3.655,0.994 V -1.27 l -0.448,0.073 c -1.278,0.209 -2.626,0.352 -4.01,0.426 l -0.365,0.019 v 2.048 h -3.656 v -2.048 l -0.364,-0.019 c -1.383,-0.074 -2.733,-0.217 -4.009,-0.426 l -0.447,-0.073 v 2.252 c -1.329,-0.261 -2.556,-0.594 -3.656,-0.993 v -6.136 c 3.007,0.93 6.566,1.421 10.332,1.421 3.622,0 7.313,-0.559 10.679,-1.657 h 0.115 l 30.485,0.073 0.565,0.008 c 3.104,1.026 6.63,1.592 10.591,1.592 3.738,0 7.278,-0.486 10.276,-1.407 v 4.192 0.196 0.036 z" /></g></g></g><g
       transform="matrix(5.9933014,0,0,5.9933014,-1478.4385,-3591.6909)"
       id="g234"><g
         clip-path="url(#clipPath240)"
         id="g236"><g
           transform="translate(334.31227,686.29292)"
           id="g242"><path
             id="path244"
             style="fill:#050606;fill-opacity:1;fill-rule:nonzero;stroke:none"
             d="m 0,0 v -0.233 -4.191 c -2.998,0.921 -6.538,1.407 -10.276,1.407 -3.961,0 -7.488,-0.573 -10.592,-1.6 l -0.563,-0.001 -30.486,-0.072 h -0.115 c -3.365,1.098 -7.057,1.655 -10.679,1.655 -3.766,0 -7.324,-0.489 -10.333,-1.419 V 1.68 c 1.101,0.4 2.328,0.733 3.657,0.995 V 0.423 l 0.447,0.073 c 1.278,0.209 2.626,0.352 4.008,0.426 l 0.365,0.019 v 2.048 h 3.656 V 0.941 l 0.365,-0.019 c 1.384,-0.074 2.732,-0.217 4.01,-0.426 l 0.448,-0.073 v 2.248 c 1.326,-0.26 2.552,-0.593 3.655,-0.994 l -0.004,-4.33 h 0.165 0.221 l 31.44,0.018 v 4.331 c 1.103,0.4 2.329,0.733 3.657,0.994 V 0.438 l 0.448,0.074 c 1.275,0.208 2.624,0.352 4.008,0.425 l 0.365,0.02 v 2.048 h 3.657 V 0.957 l 0.365,-0.02 C -6.727,0.864 -5.377,0.72 -4.103,0.512 L -3.655,0.438 V 2.687 C -2.326,2.427 -1.099,2.092 0,1.692 Z m 0.496,2.329 c -1.328,0.504 -2.84,0.91 -4.493,1.209 L -4.452,3.62 V 1.349 C -5.507,1.507 -6.606,1.624 -7.731,1.693 V 3.782 H -12.93 V 1.693 c -1.124,-0.069 -2.223,-0.186 -3.279,-0.344 v 2.275 l -0.454,-0.082 c -1.652,-0.299 -3.164,-0.707 -4.494,-1.21 l -0.249,-0.094 v -4.096 l -30.284,-0.028 10e-4,1.129 h 10e-4 v 2.976 l -0.249,0.094 c -1.333,0.504 -2.844,0.911 -4.493,1.211 l -0.454,0.082 V 1.335 c -1.057,0.158 -2.157,0.273 -3.282,0.342 v 2.09 h -5.197 V 1.677 C -66.486,1.608 -67.586,1.493 -68.642,1.335 V 3.609 L -69.096,3.526 C -70.749,3.227 -72.261,2.819 -73.591,2.318 L -73.839,2.223 V -5.51 l 0.507,0.168 c 3.033,1.012 6.697,1.544 10.596,1.544 3.582,0 7.38,-0.603 10.696,-1.699 l 31.051,0.153 0.109,0.009 c 3.035,1.01 6.681,1.553 10.577,1.553 3.871,0 7.517,-0.528 10.542,-1.528 l 0.506,-0.167 v 2.499 0.235 4.978 z" /></g></g></g><g
       transform="matrix(5.9933014,0,0,5.9933014,-1478.4385,-3591.6909)"
       id="g246"><g
         clip-path="url(#clipPath252)"
         id="g248"><g
           transform="translate(278.58632,671.41981)"
           id="g254"><path
             id="path256"
             style="fill:#ffffff;fill-opacity:1;fill-rule:nonzero;stroke:none"
             d="M 0,0 C -0.922,0.171 -1.885,0.304 -2.881,0.404 V 4.017 C -1.869,3.898 -0.905,3.741 0,3.548 Z m -5.492,0.584 c -0.423,0.013 -0.85,0.022 -1.282,0.022 -0.542,0 -1.074,-0.011 -1.6,-0.031 v 3.702 c 0.308,0.011 0.621,0.016 0.936,0.019 h 1.011 c 0.314,-0.003 0.628,-0.008 0.935,-0.019 z m -5.596,-0.189 c -0.996,-0.103 -1.961,-0.239 -2.882,-0.413 v 3.649 c 0.907,0.185 1.871,0.336 2.882,0.448 z M 3.293,6.93 C 1.212,7.713 -2.199,8.598 -6.985,8.598 -10.786,8.598 -14.443,8 -17.318,6.911 v -24.838 c 5.415,1.909 11.597,3.591 20.591,4.505 l 0.02,7.306 z" /></g></g></g><g
       transform="matrix(5.9933014,0,0,5.9933014,-1478.4385,-3591.6909)"
       id="g258"><g
         clip-path="url(#clipPath264)"
         id="g260"><path
           id="path266"
           style="fill:#050606;fill-opacity:1;fill-rule:nonzero;stroke:none"
           d="m 284.558,666.087 h 2.881 v 4.989 h -2.881 z" /></g></g><g
       transform="matrix(5.9933014,0,0,5.9933014,-1478.4385,-3591.6909)"
       id="g268"><g
         clip-path="url(#clipPath274)"
         id="g270"><path
           id="path276"
           style="fill:#050606;fill-opacity:1;fill-rule:nonzero;stroke:none"
           d="m 289.883,666.087 h 2.881 v 4.989 h -2.881 z" /></g></g><g
       transform="matrix(5.9933014,0,0,5.9933014,-1478.4385,-3591.6909)"
       id="g278"><g
         clip-path="url(#clipPath284)"
         id="g280"><path
           id="path286"
           style="fill:#050606;fill-opacity:1;fill-rule:nonzero;stroke:none"
           d="m 302.597,666.087 h 2.882 v 4.989 h -2.882 z" /></g></g><g
       transform="matrix(5.9933014,0,0,5.9933014,-1478.4385,-3591.6909)"
       id="g288"><g
         clip-path="url(#clipPath294)"
         id="g290"><path
           id="path296"
           style="fill:#050606;fill-opacity:1;fill-rule:nonzero;stroke:none"
           d="m 307.922,666.087 h 2.881 v 4.989 h -2.881 z" /></g></g><g
       transform="matrix(5.9933014,0,0,5.9933014,-1478.4386,-3591.6909)"
       id="g298"><g
         clip-path="url(#clipPath304)"
         id="g300"><g
           transform="translate(273.60411,712.69829)"
           id="g306"><path
             id="path308"
             style="fill:#ffffff;fill-opacity:1;fill-rule:nonzero;stroke:none"
             d="M 0,0 -1.95,3.379 -3.898,0.006 c 0.65,0.029 1.274,0.045 1.896,0.045 C -1.346,0.051 -0.685,0.034 0,0" /></g></g></g><g
       transform="matrix(5.9933014,0,0,5.9933014,-1478.4386,-3591.6909)"
       id="g310"><g
         clip-path="url(#clipPath316)"
         id="g312"><g
           transform="translate(271.65361,716.07714)"
           id="g318"><path
             id="path320"
             style="fill:#050606;fill-opacity:1;fill-rule:nonzero;stroke:none"
             d="m 0,0 1.95,-3.379 c -0.685,0.034 -1.345,0.051 -2.001,0.051 -0.621,0 -1.247,-0.016 -1.897,-0.046 z M 2.616,-4.189 3.335,-4.236 0,1.542 l -3.331,-5.77 0.718,0.044 c 1.828,0.116 3.409,0.113 5.229,-0.005" /></g></g></g><g
       transform="matrix(5.9933014,0,0,5.9933014,-1478.4384,-3591.6909)"
       id="g322"><g
         clip-path="url(#clipPath328)"
         id="g324"><g
           transform="translate(271.60189,692.82912)"
           id="g330"><path
             id="path332"
             style="fill:#ffffff;fill-opacity:1;fill-rule:nonzero;stroke:none"
             d="M 0,0 C 3.466,0 6.771,-0.421 9.631,-1.221 L 3.49,9.418 v 7.007 c -2.342,0.222 -4.537,0.221 -6.875,0 V 9.693 l -6.31,-10.93 C -6.822,-0.427 -3.493,0 0,0" /></g></g></g><g
       transform="matrix(5.9933014,0,0,5.9933014,-1478.4386,-3591.6909)"
       id="g334"><g
         clip-path="url(#clipPath340)"
         id="g336"><g
           transform="translate(268.2172,709.25396)"
           id="g342"><path
             id="path344"
             style="fill:#050606;fill-opacity:1;fill-rule:nonzero;stroke:none"
             d="m 0,0 c 2.337,0.221 4.532,0.222 6.874,0 v -7.006 l 6.142,-10.64 c -2.86,0.801 -6.167,1.221 -9.631,1.221 -3.494,0 -6.822,-0.426 -9.696,-1.237 L 0,-6.731 Z m 3.385,-17.196 c 3.772,0 7.344,-0.507 10.332,-1.465 l 0.951,-0.303 -7.023,12.163 V 0.696 L 7.299,0.733 c -2.644,0.274 -5.085,0.273 -7.725,0 L -0.77,0.696 v -7.221 l -7.197,-12.462 0.954,0.308 c 3.001,0.971 6.597,1.483 10.398,1.483" /></g></g></g><g
       transform="matrix(5.9933014,0,0,5.9933014,-1478.4385,-3591.6909)"
       id="g346"><g
         clip-path="url(#clipPath352)"
         id="g348"><g
           transform="translate(275.70501,671.82362)"
           id="g354"><path
             id="path356"
             style="fill:#050606;fill-opacity:1;fill-rule:nonzero;stroke:none"
             d="M 0,0 C 0.996,-0.1 1.96,-0.233 2.881,-0.404 V 3.145 C 1.976,3.337 1.011,3.494 0,3.614 Z" /></g></g></g><g
       transform="matrix(5.9933014,0,0,5.9933014,-1478.4385,-3591.6909)"
       id="g358"><g
         clip-path="url(#clipPath364)"
         id="g360"><g
           transform="translate(271.14882,675.71657)"
           id="g366"><path
             id="path368"
             style="fill:#050606;fill-opacity:1;fill-rule:nonzero;stroke:none"
             d="m 0,0 c -0.315,-0.005 -0.628,-0.008 -0.936,-0.02 v -3.702 c 0.525,0.02 1.058,0.032 1.598,0.032 0.434,0 0.86,-0.01 1.284,-0.023 V -0.02 C 1.638,-0.008 1.324,-0.005 1.01,0 Z" /></g></g></g><g
       transform="matrix(5.9933014,0,0,5.9933014,-1478.4385,-3591.6909)"
       id="g370"><g
         clip-path="url(#clipPath376)"
         id="g372"><g
           transform="translate(264.61701,671.4018)"
           id="g378"><path
             id="path380"
             style="fill:#050606;fill-opacity:1;fill-rule:nonzero;stroke:none"
             d="M 0,0 C 0.92,0.173 1.885,0.311 2.882,0.413 V 4.097 C 1.87,3.986 0.907,3.834 0,3.649 Z" /></g></g></g><g
       transform="matrix(5.9933014,0,0,5.9933014,-1478.4385,-3591.6909)"
       id="g382"><g
         clip-path="url(#clipPath388)"
         id="g384"><g
           transform="translate(328.10219,675.46016)"
           id="g390"><path
             id="path392"
             style="fill:#050606;fill-opacity:1;fill-rule:nonzero;stroke:none"
             d="m 0,0 v -3.614 c 0.997,-0.1 1.959,-0.233 2.881,-0.404 v 3.549 C 1.976,-0.275 1.011,-0.118 0,0" /></g></g></g><g
       transform="matrix(5.9933014,0,0,5.9933014,-1478.4385,-3591.6909)"
       id="g394"><g
         clip-path="url(#clipPath400)"
         id="g396"><g
           transform="translate(323.54614,675.73952)"
           id="g402"><path
             id="path404"
             style="fill:#050606;fill-opacity:1;fill-rule:nonzero;stroke:none"
             d="m 0,0 c -0.315,-0.003 -0.628,-0.007 -0.936,-0.019 v -3.702 c 0.525,0.02 1.058,0.031 1.598,0.031 0.434,0 0.859,-0.009 1.284,-0.021 v 3.692 C 1.638,-0.007 1.324,-0.003 1.01,0 Z" /></g></g></g><g
       transform="matrix(5.9933014,0,0,5.9933014,-1478.4385,-3591.6909)"
       id="g406"><g
         clip-path="url(#clipPath412)"
         id="g408"><g
           transform="translate(317.01464,671.4253)"
           id="g414"><path
             id="path416"
             style="fill:#050606;fill-opacity:1;fill-rule:nonzero;stroke:none"
             d="M 0,0 C 0.92,0.173 1.884,0.309 2.882,0.413 V 4.098 C 1.87,3.986 0.907,3.835 0,3.649 Z" /></g></g></g><g
       transform="matrix(5.9933014,0,0,5.9933014,-1478.4386,-3591.6909)"
       id="g418"><g
         clip-path="url(#clipPath424)"
         id="g420"><g
           transform="translate(252.73539,649.81334)"
           id="g426"><path
             id="path428"
             style="fill:#ffffff;fill-opacity:1;fill-rule:nonzero;stroke:none"
             d="m 0,0 c 1.091,-4.359 2.822,-8.523 5.128,-12.373 7.16,6.238 20.151,14.105 40.093,14.105 19.681,0 32.595,-7.663 39.812,-13.858 0.192,0.326 0.38,0.655 0.563,0.986 0.015,0.027 0.031,0.053 0.046,0.081 0.18,0.327 0.357,0.657 0.53,0.99 0.012,0.024 0.025,0.046 0.037,0.07 0.37,0.712 0.721,1.434 1.053,2.164 0.044,0.1 0.09,0.199 0.133,0.299 0.184,0.412 0.362,0.825 0.532,1.243 0.054,0.128 0.104,0.257 0.155,0.386 0.128,0.318 0.25,0.638 0.37,0.959 0.076,0.201 0.151,0.404 0.224,0.606 0.092,0.258 0.18,0.518 0.267,0.777 0.127,0.373 0.248,0.748 0.364,1.124 0.041,0.134 0.082,0.267 0.122,0.4 0.218,0.728 0.415,1.462 0.596,2.201 C 79.535,4.212 70.255,8.499 45.221,8.499 19.856,8.499 10.666,4.098 0,0" /></g></g></g><g
       transform="matrix(5.9933014,0,0,5.9933014,-1478.4385,-3591.6909)"
       id="g430"><g
         clip-path="url(#clipPath436)"
         id="g432"><g
           transform="translate(250.06399,657.00024)"
           id="g438"><path
             id="path440"
             style="fill:#050606;fill-opacity:1;fill-rule:nonzero;stroke:none"
             d="M 0,0 V 70.625 H 95.368 L 95.367,-0.032 C 94.391,-11.897 88.99,-22.911 80.16,-31.047 c -8.87,-8.17 -20.387,-12.67 -32.429,-12.67 -12.05,0 -23.584,4.5 -32.476,12.67 -8.861,8.141 -14.278,19.156 -15.254,31.015 z m 14.722,-31.785 c 9.037,-8.265 20.758,-12.816 33.004,-12.816 4.784,0 9.485,0.699 13.976,2.039 7.017,2.104 13.523,5.783 19.027,10.854 5.609,5.167 9.86,11.476 12.507,18.422 0.083,0.222 0.165,0.445 0.246,0.667 0.026,0.073 0.053,0.146 0.08,0.218 1.358,3.83 2.23,7.844 2.572,11.96 V 71.407 H -0.776 V -0.441 C 0.22,-12.425 5.723,-23.557 14.722,-31.785" /></g></g></g><g
       transform="matrix(5.9933014,0,0,5.9933014,-1478.4385,-3591.6909)"
       id="g442"><g
         clip-path="url(#clipPath448)"
         id="g444"><g
           transform="translate(249.28757,728.40687)"
           id="g450"><path
             id="path452"
             style="fill:#fbd23d;fill-opacity:1;fill-rule:nonzero;stroke:none"
             d="m 0,0 h 96.91 v -71.847 c -0.341,-4.117 -1.213,-8.131 -2.572,-11.96 -0.027,-0.072 -0.054,-0.145 -0.08,-0.219 -0.081,-0.222 -0.163,-0.445 -0.246,-0.666 -2.634,-6.979 -6.902,-13.317 -12.553,-18.5 -5.491,-5.033 -11.98,-8.688 -18.98,-10.777 -4.492,-1.34 -9.192,-2.039 -13.976,-2.039 -12.247,0 -23.968,4.551 -33.005,12.817 C 6.5,-94.963 0.997,-83.831 0,-71.847 Z m -0.713,-72.057 c 2.074,-25.122 23.693,-44.796 49.221,-44.796 25.476,0 47.052,19.674 49.127,44.796 V 0.758 H -0.713 Z" /></g></g></g><g
       transform="matrix(5.9933014,0,0,5.9933014,-1478.4385,-3591.6909)"
       id="g454"><g
         clip-path="url(#clipPath460)"
         id="g456"><g
           transform="translate(346.9224,656.35009)"
           id="g462"><path
             id="path464"
             style="fill:#050606;fill-opacity:1;fill-rule:nonzero;stroke:none"
             d="m 0,0 c -2.075,-25.122 -23.651,-44.797 -49.126,-44.797 -25.529,0 -47.147,19.675 -49.222,44.797 V 72.815 H 0 Z M -99.119,73.586 V -0.016 l 0.002,-0.032 c 2.1,-25.524 24.059,-45.519 49.991,-45.519 12.565,0 24.61,4.688 33.918,13.201 9.287,8.493 14.961,19.971 15.978,32.318 l 0.001,73.634 z" /></g></g></g><g
       transform="matrix(5.9933014,0,0,5.9933014,-1478.4385,-3591.6909)"
       id="g466"><g
         clip-path="url(#clipPath472)"
         id="g468"><g
           transform="translate(250.83518,726.8548)"
           id="g474"><path
             id="path476"
             style="fill:#ffffff;fill-opacity:1;fill-rule:nonzero;stroke:none"
             d="M 0,0 H 93.827 V -69.839 C 92.863,-81.505 87.55,-92.334 78.866,-100.334 70.139,-108.373 58.808,-112.8 46.959,-112.8 c -11.855,0 -23.203,4.427 -31.953,12.466 C 6.292,-92.327 0.963,-81.499 0,-69.839 Z m 14.484,-100.901 c 8.893,-8.171 20.426,-12.67 32.475,-12.67 12.044,0 23.56,4.499 32.429,12.671 8.831,8.135 14.233,19.148 15.208,31.014 L 94.598,0.77 H -0.771 v -70.625 l 0.001,-0.031 c 0.976,-11.86 6.394,-22.875 15.254,-31.015" /></g></g></g><g
       transform="matrix(5.9933014,0,0,5.9933014,-1478.4384,-3591.6909)"
       id="g478"><g
         clip-path="url(#clipPath484)"
         id="g480"><g
           transform="translate(343.72278,657.05334)"
           id="g486"><path
             id="path488"
             style="fill:#050606;fill-opacity:1;fill-rule:nonzero;stroke:none"
             d="m 0,0 c -0.179,-2.136 -0.507,-4.242 -0.977,-6.307 -0.605,0.234 -1.206,0.469 -1.807,0.703 -1.916,0.749 -3.845,1.502 -5.892,2.229 v 25.22 l -0.244,0.097 c -2.115,0.828 -5.707,1.818 -10.803,1.818 -5.139,0 -8.742,-1 -10.86,-1.839 l -0.245,-0.096 v -4.929 h -30.244 v 4.929 l -0.246,0.095 c -2.114,0.829 -5.705,1.816 -10.803,1.816 -5.133,0 -8.738,-1 -10.86,-1.836 l -0.244,-0.097 V -3.455 c -1.923,-0.689 -3.743,-1.4 -5.552,-2.106 -0.746,-0.291 -1.492,-0.582 -2.244,-0.872 -0.487,2.105 -0.825,4.254 -1.007,6.433 V 68.903 H 0 Z m -61.844,8.251 -0.018,-6.957 c -8.983,-0.919 -15.22,-2.599 -20.593,-4.476 v 24.458 c 2.876,1.09 6.532,1.689 10.334,1.689 4.785,0 8.196,-0.885 10.277,-1.669 z M -30.87,1.396 c -3.602,0.337 -7.632,0.554 -12.205,0.616 v 4.162 c 0,1.581 -1.281,2.861 -2.86,2.861 -1.582,0 -2.862,-1.28 -2.862,-2.861 V 2.009 C -53.405,1.941 -57.458,1.718 -61.072,1.372 V 8.25 l 0.02,7.876 h 30.182 z m 21.424,-4.501 c -5.383,1.865 -11.646,3.522 -20.611,4.422 v 19.982 c 2.871,1.09 6.528,1.69 10.334,1.69 4.783,0 8.195,-0.888 10.277,-1.672 z m 7.701,-6.132 c -0.04,-0.133 -0.08,-0.265 -0.121,-0.397 -0.116,-0.374 -0.237,-0.748 -0.362,-1.12 -0.087,-0.259 -0.175,-0.517 -0.266,-0.773 -0.073,-0.202 -0.148,-0.404 -0.223,-0.605 -0.119,-0.32 -0.242,-0.638 -0.369,-0.955 -0.051,-0.127 -0.101,-0.256 -0.153,-0.384 -0.171,-0.416 -0.348,-0.827 -0.53,-1.237 -0.045,-0.1 -0.089,-0.199 -0.135,-0.298 -0.33,-0.727 -0.679,-1.446 -1.048,-2.156 -0.011,-0.023 -0.025,-0.046 -0.036,-0.07 -0.173,-0.331 -0.349,-0.658 -0.528,-0.985 -0.015,-0.027 -0.031,-0.055 -0.047,-0.081 -0.124,-0.224 -0.25,-0.447 -0.378,-0.669 -7.442,6.335 -20.359,13.808 -39.892,13.808 -19.68,0 -32.651,-7.571 -40.123,-14.008 -2.189,3.739 -3.836,7.768 -4.884,11.977 0.786,0.303 1.566,0.607 2.343,0.911 9.928,3.877 19.304,7.539 42.678,7.539 23.349,0 33.214,-3.855 42.754,-7.582 0.635,-0.248 1.271,-0.496 1.909,-0.743 -0.179,-0.729 -0.374,-1.454 -0.589,-2.172 M -14.671,-29.87 c -8.559,-7.886 -19.674,-12.229 -31.297,-12.229 -11.63,0 -22.762,4.343 -31.345,12.229 -3.244,2.981 -6.008,6.36 -8.241,10.032 7.356,6.37 20.188,13.908 39.721,13.908 19.388,0 32.169,-7.441 39.494,-13.709 -2.247,-3.75 -5.04,-7.199 -8.332,-10.231 M -92.888,69.801 V -0.038 c 0.964,-11.659 6.292,-22.488 15.006,-30.494 8.75,-8.04 20.098,-12.466 31.953,-12.466 11.85,0 23.181,4.426 31.907,12.466 8.685,7.999 13.997,18.829 14.961,30.494 v 69.839 z" /></g></g></g><g
       transform="matrix(5.9933014,0,0,5.9933014,-1478.4385,-3591.6909)"
       id="g490"><g
         clip-path="url(#clipPath496)"
         id="g492"><g
           transform="translate(306.01995,636.88242)"
           id="g498"><path
             id="path500"
             style="fill:#fbd23d;fill-opacity:1;fill-rule:nonzero;stroke:none"
             d="M 0,0 H -6.757 V 6.758 H -9.708 V 0 h -6.758 v -2.95 h 6.758 v -11.624 h 2.951 V -2.95 l 6.757,0 z" /></g></g></g><g
       transform="matrix(5.9933014,0,0,5.9933014,-1478.4385,-3591.6909)"
       id="g502"><g
         clip-path="url(#clipPath508)"
         id="g504"><g
           transform="translate(298.94053,634.25412)"
           id="g510"><path
             id="path512"
             style="fill:#050606;fill-opacity:1;fill-rule:nonzero;stroke:none"
             d="M 0,0 V -11.625 H -2.306 V 0 h -6.759 v 2.306 h 6.759 V 9.065 H 0 V 2.306 H 6.757 L 6.757,0 Z M 0.644,2.95 V 9.707 H -2.95 V 2.95 H -9.709 V -0.644 H -2.95 V -12.268 H 0.644 V -0.644 H 7.401 V 2.95 Z" /></g></g></g></g></svg>