<?xml version="1.0" encoding="UTF-8" ?>
<!DOCTYPE svg PUBLIC "-//W3C//DTD SVG 1.1//EN" "http://www.w3.org/Graphics/SVG/1.1/DTD/svg11.dtd">
<svg width="400pt" height="478pt" viewBox="0 0 400 478" version="1.1" xmlns="http://www.w3.org/2000/svg">
<g id="#030000ff">
<path fill="#030000" opacity="1.00" d=" M 0.00 0.00 L 398.97 0.00 L 398.96 1.27 C 398.72 1.27 398.24 1.27 398.00 1.27 C 266.06 1.27 134.12 1.26 2.18 1.27 C 2.21 81.19 2.17 161.11 2.20 241.03 C 2.53 281.22 12.47 321.57 32.63 356.47 C 51.42 389.34 78.63 417.06 110.16 437.88 C 134.31 453.81 160.98 466.09 189.04 473.27 C 194.25 474.42 199.58 476.53 204.97 475.19 C 236.55 469.61 266.11 455.50 292.42 437.47 C 322.95 416.37 349.23 388.88 367.89 356.74 C 387.62 323.00 398.21 284.08 398.71 245.02 C 398.72 199.44 398.54 153.85 398.49 108.26 C 398.97 100.98 398.84 93.68 398.87 86.39 L 400.00 86.28 L 400.00 252.67 C 398.78 272.61 395.60 292.48 389.48 311.53 C 377.69 349.11 355.73 383.17 327.50 410.51 C 297.87 439.10 261.72 461.52 221.99 472.85 C 214.82 475.13 207.25 475.69 200.11 478.00 L 198.96 478.00 L 200.58 477.61 C 155.65 467.91 113.34 446.38 79.08 415.72 C 51.91 391.52 30.15 361.08 16.97 327.09 C 10.55 310.68 6.09 293.52 3.52 276.09 C 1.71 264.58 1.39 252.92 0.00 241.36 L 0.00 0.00 Z" />
<path fill="#030000" opacity="1.00" d=" M 199.62 14.30 C 200.14 14.42 201.19 14.67 201.71 14.79 C 201.59 47.09 201.65 79.39 201.68 111.69 C 201.24 113.48 200.73 115.24 200.22 117.01 L 200.16 116.73 C 199.07 107.19 199.86 97.55 199.62 87.98 C 199.77 82.19 199.14 76.34 200.20 70.61 L 200.08 70.59 C 197.99 70.30 195.86 70.12 193.87 69.36 C 194.74 69.43 196.47 69.57 197.33 69.64 C 197.89 69.63 199.01 69.60 199.58 69.58 C 199.55 60.14 199.68 50.69 199.48 41.25 C 199.74 32.27 199.49 23.28 199.62 14.30 Z" />
<path fill="#030000" opacity="1.00" d=" M 136.36 87.41 C 143.92 88.78 150.48 83.09 158.06 84.41 C 158.73 84.73 159.40 85.06 160.06 85.41 C 154.90 85.01 149.49 85.53 144.90 88.10 C 141.87 88.61 138.76 88.75 135.72 88.21 C 135.48 87.97 134.99 87.49 134.75 87.25 L 136.36 87.41 Z" />
<path fill="#030000" opacity="1.00" d=" M 40.18 191.50 C 42.49 191.41 45.81 190.73 47.67 191.62 C 45.18 191.82 42.66 191.81 40.18 191.50 Z" />
<path fill="#030000" opacity="1.00" d=" M 152.43 250.38 C 153.27 247.14 154.02 243.87 154.60 240.57 C 154.77 244.00 153.89 247.31 152.43 250.38 Z" />
<path fill="#030000" opacity="1.00" d=" M 194.27 395.33 C 195.83 387.77 196.57 380.08 197.20 372.40 C 197.70 380.12 196.78 388.00 194.27 395.33 Z" />
<path fill="#030000" opacity="1.00" d=" M 193.20 388.44 C 193.28 383.80 193.79 379.14 195.85 374.92 C 194.95 379.42 194.08 383.93 193.20 388.44 Z" />
</g>
<g id="#414353ff">
<path fill="#414353" opacity="1.00" d=" M 398.97 0.00 L 400.00 0.00 L 400.00 35.89 L 399.21 34.30 C 398.77 23.30 398.99 12.28 398.96 1.27 L 398.97 0.00 Z" />
</g>
<g id="#635207ff">
<path fill="#635207" opacity="1.00" d=" M 398.00 1.27 C 398.24 1.27 398.72 1.27 398.96 1.27 C 398.99 12.28 398.77 23.30 399.21 34.30 C 398.72 51.66 399.01 69.03 398.87 86.39 C 398.84 93.68 398.97 100.98 398.49 108.26 C 397.78 72.61 398.08 36.93 398.00 1.27 Z" />
</g>
<g id="#ffd827ff">
<path fill="#ffd827" opacity="1.00" d=" M 2.18 1.27 C 134.12 1.26 266.06 1.27 398.00 1.27 C 398.08 36.93 397.78 72.61 398.49 108.26 C 398.54 153.85 398.72 199.44 398.71 245.02 C 398.21 284.08 387.62 323.00 367.89 356.74 C 349.23 388.88 322.95 416.37 292.42 437.47 C 266.11 455.50 236.55 469.61 204.97 475.19 C 199.58 476.53 194.25 474.42 189.04 473.27 C 160.98 466.09 134.31 453.81 110.16 437.88 C 78.63 417.06 51.42 389.34 32.63 356.47 C 12.47 321.57 2.53 281.22 2.20 241.03 C 2.17 161.11 2.21 81.19 2.18 1.27 M 5.00 4.10 C 4.60 9.08 4.91 14.08 4.81 19.06 C 4.82 91.03 4.79 163.01 4.83 234.98 C 4.92 238.81 3.41 242.70 4.58 246.48 C 5.46 249.26 5.71 252.18 5.92 255.08 C 7.49 277.20 11.87 299.16 19.52 319.99 C 30.76 350.99 49.24 379.21 72.58 402.45 C 96.11 425.80 124.27 444.40 154.78 457.33 C 169.39 463.44 184.54 468.49 200.13 471.36 C 216.41 469.71 232.15 464.38 247.21 458.12 C 282.50 442.91 314.24 419.56 339.42 390.55 C 369.92 355.64 389.81 311.40 394.45 265.19 C 396.24 249.86 395.66 234.41 395.72 219.01 C 395.60 147.40 395.38 75.80 395.32 4.19 C 389.22 3.79 383.09 4.07 376.98 3.99 C 253.07 3.93 129.16 4.11 5.26 3.90 L 5.00 5.05 L 5.00 4.10 Z" />
<path fill="#ffd827" opacity="1.00" d=" M 200.08 70.59 L 200.20 70.61 C 199.14 76.34 199.77 82.19 199.62 87.98 C 199.86 97.55 199.07 107.19 200.16 116.73 C 198.30 111.33 197.75 105.63 196.68 100.05 C 199.07 97.15 198.42 93.34 198.45 89.88 C 198.39 84.50 198.51 79.12 198.06 73.75 C 198.76 72.72 199.44 71.67 200.08 70.59 Z" />
<path fill="#ffd827" opacity="1.00" d=" M 154.71 236.55 C 154.68 237.89 154.66 239.23 154.60 240.57 C 154.02 243.87 153.27 247.14 152.43 250.38 C 151.90 251.95 151.39 253.52 150.90 255.10 C 150.18 254.15 149.46 253.21 148.74 252.27 C 149.27 250.95 149.75 249.61 150.22 248.28 C 151.17 247.23 151.78 245.94 151.94 244.54 C 152.76 241.84 153.77 239.21 154.71 236.55 Z" />
<path fill="#ffd827" opacity="1.00" d=" M 195.85 374.92 C 196.50 372.31 196.86 369.64 197.17 366.97 C 197.16 368.77 197.19 370.59 197.20 372.40 C 196.57 380.08 195.83 387.77 194.27 395.33 C 194.12 395.85 193.81 396.89 193.65 397.42 C 193.45 394.64 193.14 391.87 193.11 389.09 L 193.20 388.44 C 194.08 383.93 194.95 379.42 195.85 374.92 Z" />
</g>
<g id="#fffff8ff">
<path fill="#fffff8" opacity="1.00" d=" M 5.00 4.10 L 5.00 5.05 C 4.95 80.38 4.98 155.71 4.99 231.04 C 5.18 235.48 4.24 240.02 5.56 244.35 C 5.69 247.93 5.66 251.51 5.92 255.08 C 5.71 252.18 5.46 249.26 4.58 246.48 C 3.41 242.70 4.92 238.81 4.83 234.98 C 4.79 163.01 4.82 91.03 4.81 19.06 C 4.91 14.08 4.60 9.08 5.00 4.10 Z" />
<path fill="#fffff8" opacity="1.00" d=" M 150.60 44.04 C 150.86 42.83 151.64 41.94 152.93 41.40 C 155.46 42.63 159.12 44.56 158.14 48.02 C 155.86 53.76 146.98 53.33 144.23 48.13 C 146.52 49.51 149.11 51.50 151.90 50.21 C 154.07 49.51 154.68 47.21 155.29 45.29 C 153.66 45.12 151.76 45.49 150.60 44.04 Z" />
</g>
<g id="#5a4a00ff">
<path fill="#5a4a00" opacity="1.00" d=" M 5.00 5.05 L 5.26 3.90 L 5.90 4.90 C 6.00 6.29 6.06 7.68 6.07 9.07 C 6.07 85.04 6.05 161.01 6.09 236.98 C 6.04 239.44 5.80 241.90 5.56 244.35 C 4.24 240.02 5.18 235.48 4.99 231.04 C 4.98 155.71 4.95 80.38 5.00 5.05 Z" />
</g>
<g id="#372a00ff">
<path fill="#372a00" opacity="1.00" d=" M 5.26 3.90 C 129.16 4.11 253.07 3.93 376.98 3.99 C 383.09 4.07 389.22 3.79 395.32 4.19 L 394.41 5.02 C 265.30 4.92 136.18 5.06 7.07 4.97 L 5.90 4.90 L 5.26 3.90 Z" />
</g>
<g id="#060000ff">
<path fill="#060000" opacity="1.00" d=" M 5.90 4.90 L 7.07 4.97 L 7.08 6.03 C 7.11 84.00 7.07 161.97 7.10 239.94 C 7.31 281.28 18.09 322.80 39.76 358.15 C 69.61 407.14 118.12 443.50 172.07 462.10 C 180.24 464.90 188.57 467.22 197.01 469.07 C 202.37 470.50 207.78 468.43 213.06 467.53 C 246.19 459.85 276.84 443.38 303.50 422.50 C 331.00 400.77 354.24 373.40 370.07 342.05 C 384.39 313.90 392.45 282.62 393.79 251.07 C 394.46 236.04 393.82 221.00 393.92 205.97 C 393.80 139.26 393.80 72.55 393.53 5.85 L 394.41 5.02 L 395.32 4.19 C 395.38 75.80 395.60 147.40 395.72 219.01 C 395.66 234.41 396.24 249.86 394.45 265.19 C 389.81 311.40 369.92 355.64 339.42 390.55 C 314.24 419.56 282.50 442.91 247.21 458.12 C 232.15 464.38 216.41 469.71 200.13 471.36 C 184.54 468.49 169.39 463.44 154.78 457.33 C 124.27 444.40 96.11 425.80 72.58 402.45 C 49.24 379.21 30.76 350.99 19.52 319.99 C 11.87 299.16 7.49 277.20 5.92 255.08 C 5.66 251.51 5.69 247.93 5.56 244.35 C 5.80 241.90 6.04 239.44 6.09 236.98 C 6.05 161.01 6.07 85.04 6.07 9.07 C 6.06 7.68 6.00 6.29 5.90 4.90 Z" />
</g>
<g id="#1f212cff">
<path fill="#1f212c" opacity="1.00" d=" M 7.07 4.97 C 136.18 5.06 265.30 4.92 394.41 5.02 L 393.53 5.85 C 367.69 6.25 341.82 5.90 315.97 6.02 C 213.00 6.02 110.04 6.01 7.08 6.03 L 7.07 4.97 Z" />
</g>
<g id="#fffffbff">
<path fill="#fffffb" opacity="1.00" d=" M 7.08 6.03 C 110.04 6.01 213.00 6.02 315.97 6.02 C 341.82 5.90 367.69 6.25 393.53 5.85 C 393.80 72.55 393.80 139.26 393.92 205.97 C 393.82 221.00 394.46 236.04 393.79 251.07 C 392.45 282.62 384.39 313.90 370.07 342.05 C 354.24 373.40 331.00 400.77 303.50 422.50 C 276.84 443.38 246.19 459.85 213.06 467.53 C 207.78 468.43 202.37 470.50 197.01 469.07 C 188.57 467.22 180.24 464.90 172.07 462.10 C 118.12 443.50 69.61 407.14 39.76 358.15 C 18.09 322.80 7.31 281.28 7.10 239.94 C 7.07 161.97 7.11 84.00 7.08 6.03 M 11.61 9.90 C 11.57 84.59 11.61 159.29 11.59 233.99 C 11.51 247.42 12.40 260.87 14.44 274.15 C 19.52 308.23 32.68 341.10 52.85 369.06 C 74.00 398.49 102.31 422.51 134.10 439.78 C 154.78 450.92 176.94 459.67 200.05 464.10 C 218.96 462.06 237.10 455.32 254.24 447.30 C 303.44 423.46 345.21 383.35 368.59 333.70 C 382.08 305.14 389.00 273.61 389.31 242.05 C 389.27 164.67 389.00 87.30 388.81 9.92 C 263.08 9.87 137.34 9.90 11.61 9.90 Z" />
</g>
<g id="#363331ff">
<path fill="#363331" opacity="1.00" d=" M 11.61 9.90 C 137.34 9.90 263.08 9.87 388.81 9.92 C 389.00 87.30 389.27 164.67 389.31 242.05 C 389.00 273.61 382.08 305.14 368.59 333.70 C 345.21 383.35 303.44 423.46 254.24 447.30 C 237.10 455.32 218.96 462.06 200.05 464.10 C 176.94 459.67 154.78 450.92 134.10 439.78 C 102.31 422.51 74.00 398.49 52.85 369.06 C 32.68 341.10 19.52 308.23 14.44 274.15 C 12.40 260.87 11.51 247.42 11.59 233.99 C 11.61 159.29 11.57 84.59 11.61 9.90 M 15.99 14.23 C 16.15 79.17 15.98 144.10 16.09 209.04 C 16.10 231.05 15.25 253.21 19.04 274.99 C 24.18 307.61 36.75 339.10 55.97 365.98 C 75.69 393.72 101.92 416.61 131.43 433.46 C 152.63 445.51 175.56 454.74 199.48 459.66 C 199.49 453.94 199.45 448.23 199.51 442.52 C 200.06 442.38 201.15 442.12 201.70 441.98 C 201.64 447.83 201.71 453.69 201.66 459.54 C 221.24 457.27 239.91 449.92 257.48 441.24 C 276.68 431.44 294.62 419.14 310.58 404.65 C 345.39 373.60 370.96 331.76 380.53 285.94 C 380.59 284.32 381.40 282.30 380.02 281.02 C 374.51 274.75 367.74 269.75 360.63 265.46 C 359.29 264.53 357.68 264.31 356.10 264.32 C 348.07 264.18 340.03 264.39 332.01 264.06 C 323.95 263.85 315.97 265.47 307.94 265.58 C 302.55 263.00 298.76 257.69 293.37 254.92 C 289.98 259.17 286.99 263.73 283.34 267.77 C 278.23 266.31 273.04 265.06 267.78 264.24 C 263.27 263.52 260.45 268.82 255.94 268.27 C 246.32 267.49 236.66 267.76 227.02 267.56 C 225.45 267.71 223.64 267.22 222.27 268.19 L 221.57 266.10 C 221.79 265.94 222.23 265.61 222.45 265.45 C 221.79 259.01 220.94 252.57 220.63 246.11 C 221.64 240.71 223.17 235.41 224.36 230.05 C 224.76 227.58 227.14 226.26 228.76 224.63 C 228.30 221.35 227.46 218.14 227.11 214.86 C 228.02 211.59 230.21 208.83 231.74 205.82 C 238.01 203.51 244.23 201.09 250.51 198.81 C 248.54 195.98 244.39 193.94 244.84 190.03 C 245.12 184.81 244.89 179.55 245.39 174.36 C 247.18 170.96 249.45 167.84 251.39 164.53 C 258.12 162.62 264.90 160.86 271.49 158.52 C 271.57 156.00 271.67 153.48 271.76 150.97 C 275.22 147.01 278.22 142.61 282.00 138.96 C 286.52 136.89 291.07 134.68 295.82 133.23 C 300.75 135.45 305.49 138.09 310.35 140.48 C 312.83 141.45 313.50 144.23 314.74 146.31 C 316.87 150.72 319.51 154.88 321.44 159.38 C 322.40 165.18 323.17 171.05 323.58 176.92 C 322.79 183.35 322.52 189.99 319.89 196.01 C 322.54 194.64 325.16 193.22 327.79 191.79 C 333.27 194.16 339.04 195.90 344.37 198.60 C 348.79 202.85 352.63 207.66 356.96 212.01 C 358.25 213.57 360.23 214.88 360.48 217.04 C 361.71 225.00 362.80 232.98 364.07 240.93 C 364.26 242.56 364.70 244.25 364.22 245.88 C 362.90 251.50 361.22 257.02 360.05 262.68 C 368.21 266.97 375.23 272.99 381.89 279.29 C 384.60 263.70 385.69 247.86 385.36 232.04 C 385.24 159.41 385.14 86.79 384.88 14.17 C 323.83 14.14 262.78 14.19 201.73 14.14 L 201.71 14.79 C 201.19 14.67 200.14 14.42 199.62 14.30 C 138.41 14.11 77.20 14.24 15.99 14.23 M 283.38 140.58 C 279.65 143.87 276.94 148.16 273.61 151.85 C 276.71 157.94 278.39 164.84 282.83 170.17 C 285.11 172.05 288.44 172.40 290.26 174.91 C 287.22 174.34 284.23 173.20 281.77 171.31 C 280.00 169.27 278.83 166.80 277.45 164.50 C 273.34 163.79 269.20 162.85 265.02 162.84 C 260.86 163.93 256.57 164.84 252.63 166.58 C 250.70 169.11 249.21 171.93 247.36 174.52 C 252.77 177.95 258.52 180.82 264.09 184.00 C 266.59 185.49 269.65 186.41 271.29 188.99 C 268.03 188.28 265.29 186.32 262.42 184.75 C 257.40 181.95 252.32 179.25 247.41 176.28 C 247.16 181.28 247.24 186.30 246.62 191.28 C 249.63 194.98 252.93 198.43 256.08 202.00 C 257.77 203.84 259.45 205.98 262.07 206.45 C 267.63 207.96 273.12 209.81 278.78 210.95 C 276.99 204.56 275.02 198.22 273.22 191.84 C 273.64 192.01 274.47 192.35 274.89 192.52 C 276.91 198.82 278.55 205.25 280.50 211.58 C 286.12 211.36 291.91 212.30 297.37 210.52 C 302.54 208.93 308.02 208.45 313.06 206.43 C 306.87 200.23 301.27 193.48 295.22 187.14 C 289.00 187.72 282.89 189.15 276.68 189.74 C 277.76 187.54 280.58 187.98 282.60 187.47 C 286.53 186.64 290.69 186.76 294.50 185.41 C 296.81 180.73 296.59 175.17 298.51 170.31 C 301.52 167.00 305.09 164.24 308.42 161.25 C 309.51 155.17 309.83 148.99 310.63 142.86 C 305.72 140.48 300.97 137.78 295.99 135.56 C 291.60 136.40 287.47 138.72 283.38 140.58 M 311.88 146.45 C 311.21 151.29 310.22 156.14 310.35 161.04 C 311.52 163.57 313.82 165.36 315.59 167.48 C 317.47 169.33 318.89 171.84 321.44 172.86 C 319.83 167.38 320.99 161.17 317.70 156.24 C 315.67 153.03 314.64 149.17 311.88 146.45 M 273.77 156.86 C 274.07 159.87 271.06 160.53 269.14 161.83 C 271.65 162.35 274.19 162.71 276.75 162.83 C 275.99 160.77 275.94 158.01 273.77 156.86 M 300.09 170.82 C 304.96 176.80 309.31 183.18 314.15 189.19 C 317.03 185.26 319.12 180.83 321.80 176.78 C 317.89 172.14 313.80 167.63 309.63 163.23 C 305.67 164.17 303.23 168.36 300.09 170.82 M 299.04 172.75 C 298.34 177.25 297.25 181.68 296.24 186.13 C 302.24 192.31 307.77 198.92 313.74 205.12 C 313.83 200.38 313.61 195.65 313.58 190.91 C 309.76 186.00 305.95 181.09 302.38 175.99 C 301.52 174.67 300.26 173.71 299.04 172.75 M 315.57 190.35 C 314.94 193.94 315.35 197.63 315.61 201.25 C 318.49 195.10 320.65 188.53 320.85 181.68 C 318.90 184.45 316.93 187.25 315.57 190.35 M 319.00 199.11 C 316.85 202.64 315.87 206.90 316.55 211.01 C 317.29 215.11 318.78 219.03 319.69 223.10 C 319.27 222.83 318.42 222.30 318.00 222.03 C 316.63 218.72 316.09 215.14 315.32 211.67 C 309.36 208.48 302.80 211.49 296.82 212.87 C 292.70 216.51 294.89 222.31 296.24 226.75 C 300.39 230.21 306.83 230.43 310.15 234.83 C 305.24 233.66 301.11 230.54 296.32 229.02 C 297.82 235.25 297.41 241.67 297.30 248.02 C 297.48 250.05 296.02 251.58 295.05 253.20 C 299.37 256.40 303.03 260.77 307.91 263.04 C 310.48 260.59 312.82 257.82 314.65 254.78 C 315.56 251.61 316.16 248.30 316.28 245.00 C 315.21 241.78 313.68 238.72 313.00 235.38 C 316.04 232.97 319.80 231.33 322.35 228.37 C 324.83 222.87 326.38 217.00 328.71 211.44 C 332.28 206.77 338.46 204.41 341.18 199.08 C 336.65 197.76 332.48 195.48 327.94 194.23 C 324.78 195.46 321.74 197.11 319.00 199.11 M 234.61 206.97 C 240.12 210.44 245.17 215.47 251.91 216.27 C 254.30 216.68 256.66 217.33 259.09 217.60 C 261.56 216.43 263.67 214.64 265.90 213.07 C 264.73 211.58 263.56 210.11 262.38 208.64 C 257.43 208.26 255.27 203.50 251.89 200.64 C 246.01 202.28 240.37 204.87 234.61 206.97 M 330.19 211.83 C 335.69 218.74 340.70 226.01 346.05 233.04 C 349.54 228.75 352.47 224.05 355.88 219.69 C 356.63 218.57 357.66 217.52 357.87 216.13 C 353.06 210.79 348.27 205.40 343.21 200.28 C 339.03 204.31 334.51 207.96 330.19 211.83 M 232.65 207.97 C 231.51 210.30 230.00 212.50 229.29 215.01 C 229.81 223.00 232.62 230.55 234.26 238.31 C 230.87 235.65 231.42 230.52 229.70 226.83 C 228.09 227.81 226.51 229.08 226.23 231.09 C 224.94 236.35 223.44 241.60 222.58 246.94 C 223.18 253.19 223.90 259.43 224.39 265.70 C 225.80 265.69 227.21 265.68 228.62 265.67 C 232.96 259.45 236.28 252.46 241.38 246.80 C 239.50 253.85 233.52 258.98 230.80 265.73 C 239.88 265.45 248.94 266.71 258.01 266.15 C 260.59 264.89 263.61 263.67 265.28 261.24 C 264.45 254.25 264.45 247.22 264.33 240.20 C 264.64 240.21 265.27 240.24 265.58 240.25 C 265.74 247.54 266.48 254.79 266.65 262.08 C 271.80 262.88 276.79 264.47 281.98 265.01 C 280.18 258.27 278.11 251.60 276.11 244.92 C 275.47 242.93 275.29 240.85 275.21 238.78 C 279.42 246.71 279.99 256.13 283.78 264.27 C 287.55 259.20 291.82 254.45 295.01 248.99 C 296.07 240.25 294.84 231.45 293.15 222.86 C 291.87 219.38 289.12 216.71 287.06 213.69 C 284.66 213.68 282.26 213.79 279.87 213.54 C 277.17 213.24 274.49 211.71 271.76 212.71 C 267.41 213.57 263.80 216.22 260.36 218.85 C 261.82 222.14 263.23 225.45 264.62 228.77 C 271.63 228.72 278.35 226.23 285.36 226.23 C 285.11 226.48 284.61 226.97 284.36 227.22 C 277.95 228.81 271.28 229.25 264.86 230.77 C 258.28 234.47 252.44 239.41 245.88 243.17 C 246.28 241.97 246.72 240.67 247.97 240.11 C 253.18 236.56 258.54 233.24 263.52 229.38 C 261.62 226.19 260.81 222.41 258.65 219.40 C 255.08 217.81 251.02 217.65 247.18 217.17 C 246.32 218.72 245.48 220.28 244.66 221.85 C 242.09 226.22 243.85 231.43 243.58 236.20 C 243.18 235.90 242.38 235.29 241.99 234.99 C 241.61 231.66 241.47 228.27 241.71 224.93 C 242.71 221.96 244.44 219.32 245.94 216.59 C 241.74 213.39 237.29 210.48 232.65 207.97 M 266.27 209.93 C 265.55 211.94 269.50 213.13 269.91 211.00 C 269.39 209.74 267.37 209.08 266.27 209.93 M 289.54 213.63 C 290.42 214.87 291.31 216.11 292.21 217.35 C 292.74 216.08 293.26 214.81 293.79 213.55 C 292.37 213.57 290.95 213.60 289.54 213.63 M 328.95 214.01 C 327.67 219.23 325.58 224.20 323.62 229.18 C 326.30 233.15 328.09 237.94 332.09 240.84 C 340.14 247.18 347.96 253.80 356.01 260.14 C 354.19 253.13 350.39 246.81 347.80 240.06 C 345.27 232.92 339.70 227.58 335.60 221.37 C 333.48 218.85 332.12 215.38 328.95 214.01 M 347.94 233.13 C 346.59 234.51 347.87 236.32 348.35 237.77 C 351.71 245.23 354.85 252.79 358.18 260.27 C 359.75 256.74 360.21 252.89 361.31 249.22 C 361.94 246.89 362.72 244.50 362.21 242.07 C 361.00 234.34 359.86 226.61 358.83 218.86 C 354.50 223.02 351.65 228.44 347.94 233.13 M 315.23 236.10 C 315.01 239.25 317.25 241.90 317.65 244.96 C 317.73 247.34 317.34 249.71 317.14 252.09 C 320.84 247.85 324.24 243.37 327.88 239.08 C 326.22 236.34 324.55 233.60 322.94 230.82 C 320.21 232.27 317.14 233.60 315.23 236.10 M 309.79 263.60 C 315.89 263.50 321.92 262.32 328.03 262.28 C 337.29 262.14 346.55 262.49 355.82 262.33 C 347.25 254.48 337.77 247.66 328.91 240.12 C 322.59 247.99 316.09 255.71 309.79 263.60 Z" />
</g>
<g id="#fff112ff">
<path fill="#fff112" opacity="1.00" d=" M 15.99 14.23 C 77.20 14.24 138.41 14.11 199.62 14.30 C 199.49 23.28 199.74 32.27 199.48 41.25 C 196.21 50.38 199.88 60.33 197.33 69.64 C 196.47 69.57 194.74 69.43 193.87 69.36 C 187.50 65.96 183.27 59.87 179.29 54.06 C 180.89 54.39 182.48 54.36 184.06 53.97 C 185.89 53.14 182.65 52.62 182.06 52.85 C 180.99 52.94 179.96 53.20 178.97 53.63 C 178.81 53.41 178.48 52.97 178.32 52.75 C 182.65 52.85 187.55 53.12 191.07 50.10 C 194.82 47.29 196.05 42.56 197.07 38.23 C 193.07 41.30 188.21 43.50 183.05 42.78 C 170.76 41.33 159.68 33.30 146.97 34.70 C 140.39 35.24 134.81 39.27 130.66 44.16 C 125.46 44.52 119.97 46.62 117.29 51.37 C 112.46 59.66 115.72 71.13 123.80 76.15 C 123.93 71.99 126.83 68.63 130.82 67.63 C 132.91 67.56 134.95 68.02 136.92 68.68 C 128.47 71.16 124.48 80.20 116.26 82.97 C 117.23 80.42 118.05 77.81 118.67 75.16 C 116.43 76.15 114.26 77.30 112.02 78.30 C 110.25 77.97 108.32 77.61 106.64 78.48 C 104.18 75.74 104.84 71.83 104.25 68.47 C 101.35 73.00 100.78 79.13 102.82 84.09 C 105.18 89.42 111.82 90.71 116.99 89.31 C 122.65 88.21 126.64 83.80 130.98 80.39 C 131.74 81.93 132.51 83.47 133.32 84.98 C 133.72 85.78 134.20 86.54 134.75 87.25 C 134.99 87.49 135.48 87.97 135.72 88.21 C 138.07 90.99 142.32 90.02 144.90 88.10 C 149.49 85.53 154.90 85.01 160.06 85.41 C 166.71 88.50 169.91 95.96 170.37 102.92 C 170.75 108.42 169.59 114.56 165.41 118.47 C 161.05 122.14 153.44 123.17 149.34 118.59 C 147.01 116.28 147.30 112.74 146.67 109.79 C 141.55 116.54 143.94 127.37 151.46 131.26 C 159.40 134.96 169.69 131.75 173.92 124.00 C 173.80 129.94 173.55 135.96 171.53 141.61 C 163.89 141.54 154.54 141.64 149.53 148.44 C 143.74 157.51 129.11 154.03 124.74 145.32 C 121.69 138.49 126.18 131.01 123.71 124.07 C 122.48 120.33 119.17 117.58 115.50 116.37 C 110.79 114.62 105.68 114.98 100.83 113.98 C 97.54 113.24 95.90 109.90 95.02 106.95 C 91.53 95.07 90.34 82.63 90.35 70.29 C 94.48 69.69 98.97 69.18 102.17 66.20 C 105.91 63.13 107.41 57.71 105.77 53.16 C 104.04 47.97 99.16 44.25 93.87 43.30 C 93.23 43.20 91.97 43.00 91.34 42.90 C 69.55 41.68 46.73 44.34 25.97 36.02 C 25.99 43.86 29.10 51.73 35.10 56.88 C 43.73 64.41 55.43 66.84 66.53 67.79 C 66.59 67.92 66.71 68.18 66.77 68.30 C 63.91 68.74 61.06 69.26 58.17 69.50 C 51.38 69.18 44.56 68.99 37.82 68.04 C 34.15 67.18 30.60 65.91 26.94 65.05 C 29.43 67.45 32.49 69.15 35.79 70.13 C 38.79 71.37 42.03 71.66 45.25 71.73 L 45.59 71.77 C 50.44 73.30 55.63 73.52 60.51 71.96 C 63.03 71.77 65.56 71.65 68.09 71.57 C 59.80 75.53 51.01 78.30 42.11 80.50 C 37.23 80.98 32.31 81.34 27.40 80.98 C 26.83 80.82 25.68 80.49 25.10 80.32 C 25.69 87.49 28.39 95.35 35.17 98.86 C 44.91 103.97 56.16 101.07 66.33 99.10 C 59.11 104.35 51.16 108.84 42.46 111.08 C 37.68 112.32 32.71 112.20 27.82 112.44 C 33.58 115.72 40.43 114.29 46.38 112.34 C 54.08 109.96 61.12 105.98 68.24 102.31 C 59.60 111.12 49.92 118.92 39.46 125.49 C 35.03 128.29 30.31 130.64 25.37 132.38 C 28.49 138.07 33.50 142.57 39.66 144.72 C 42.49 146.29 45.81 146.34 48.89 145.58 L 50.22 144.60 C 58.87 142.06 66.33 136.88 73.17 131.17 C 61.74 145.85 46.90 158.49 29.16 164.70 C 33.82 165.12 38.37 163.72 42.38 161.42 C 55.02 154.50 65.49 144.40 75.79 134.49 C 63.31 155.03 46.09 172.90 25.52 185.41 C 31.42 188.91 38.10 191.45 45.07 190.98 C 52.71 191.15 59.56 187.01 65.21 182.25 C 74.53 174.37 81.62 164.32 89.17 154.83 C 85.60 161.51 81.27 167.74 76.96 173.95 C 68.46 185.87 59.17 197.50 47.53 206.52 C 42.94 210.18 37.65 212.76 32.22 214.92 C 36.56 214.88 40.85 213.79 44.55 211.51 C 54.80 205.46 62.78 196.39 70.33 187.36 C 78.45 177.60 85.38 166.94 93.05 156.84 C 77.82 184.20 59.98 210.56 37.02 232.07 C 33.98 234.95 30.66 237.53 27.70 240.51 C 33.41 243.19 39.65 245.27 46.05 244.45 C 56.70 243.25 65.69 236.45 73.00 229.05 C 87.84 213.83 98.30 195.13 108.83 176.86 C 102.52 192.15 94.86 206.90 85.76 220.73 C 74.20 238.02 59.42 255.00 38.86 261.30 C 52.50 261.42 63.64 251.94 72.48 242.55 C 89.66 223.64 101.90 200.91 112.92 178.03 C 110.03 187.29 105.96 196.12 101.81 204.86 C 93.18 222.43 82.90 239.29 70.23 254.27 C 60.49 265.67 49.25 276.04 35.91 283.10 C 45.67 286.88 56.72 288.19 66.78 284.78 C 79.03 280.76 88.68 271.57 96.83 261.92 C 113.82 241.04 125.73 216.70 137.98 192.89 C 131.61 210.51 124.12 227.75 115.38 244.33 C 107.88 258.23 99.41 271.93 87.87 282.88 C 82.08 288.45 74.97 292.42 67.35 294.89 L 67.92 295.15 C 69.47 296.58 71.75 296.38 72.96 294.64 C 81.24 292.50 88.17 287.10 93.91 280.96 C 101.56 272.71 107.79 263.27 113.48 253.60 C 124.51 234.85 133.03 214.79 141.69 194.88 C 136.65 211.48 130.55 227.75 123.60 243.64 C 114.18 264.91 102.13 285.60 84.43 301.05 C 96.73 302.57 109.79 300.38 119.98 293.02 C 133.84 283.12 142.19 267.59 148.74 252.27 C 149.46 253.21 150.18 254.15 150.90 255.10 C 146.39 270.09 139.34 284.71 127.97 295.72 C 132.49 295.66 136.90 294.66 141.22 293.40 C 134.45 301.84 126.75 309.46 119.23 317.22 C 117.22 319.33 115.00 321.22 112.77 323.11 C 112.23 323.22 111.16 323.45 110.63 323.56 C 105.95 323.18 101.26 323.19 96.58 323.30 C 91.33 320.96 86.26 314.69 80.04 318.35 C 78.46 317.14 76.26 317.52 75.08 319.08 C 73.15 320.66 71.16 322.26 69.74 324.34 C 67.48 327.07 67.35 330.91 69.57 333.70 C 71.57 337.60 74.58 340.84 78.10 343.42 C 78.27 340.96 78.46 338.51 78.75 336.07 C 80.21 337.99 82.38 339.99 85.03 339.29 C 88.72 338.88 90.82 335.53 93.58 333.49 C 96.42 333.43 99.28 333.83 101.70 335.42 C 97.63 341.57 90.64 344.97 84.28 348.27 C 82.87 347.58 81.77 347.89 80.97 349.20 C 77.28 350.50 73.09 351.80 71.47 355.78 C 71.83 357.05 72.19 358.34 72.54 359.63 C 71.34 362.19 69.89 365.11 71.33 367.91 C 74.14 374.22 81.01 377.83 87.58 378.94 C 86.99 376.55 86.21 374.22 85.22 371.97 C 87.22 371.22 89.69 370.79 90.77 368.70 C 92.29 365.90 92.07 362.47 93.74 359.73 C 97.08 354.08 102.59 350.29 107.41 346.02 C 107.69 349.16 106.82 352.68 108.87 355.37 C 110.63 358.34 108.71 362.24 110.96 365.05 C 114.70 370.11 121.48 371.82 127.51 371.59 C 125.54 369.08 123.45 366.67 121.47 364.17 C 122.70 362.89 123.97 361.66 125.07 360.27 C 127.69 357.52 127.59 352.95 124.97 350.23 C 123.28 346.20 122.36 340.32 126.41 337.36 C 130.39 334.97 135.41 336.29 139.57 337.56 C 143.25 338.54 144.72 342.59 148.00 344.22 C 149.61 344.38 151.23 344.36 152.85 344.16 L 152.12 342.89 L 152.84 343.97 C 154.80 341.82 156.01 339.17 156.95 336.45 C 159.23 339.35 160.50 342.81 161.63 346.28 C 167.26 340.57 164.15 331.10 158.48 326.62 C 155.05 323.69 150.43 322.42 145.99 322.50 C 143.02 323.39 140.64 325.65 137.59 326.31 C 133.67 326.86 129.71 326.26 125.86 325.53 C 135.18 317.92 144.04 309.73 152.24 300.92 C 153.98 306.04 158.05 309.74 162.65 312.32 C 160.76 302.56 164.75 292.98 170.12 285.02 C 174.13 278.84 179.11 273.35 184.56 268.41 C 186.21 280.51 187.17 293.58 182.13 305.04 C 179.81 310.68 174.13 314.28 168.05 314.12 C 168.48 319.76 173.14 324.85 178.97 324.87 C 184.42 325.41 187.72 320.21 190.96 316.76 C 189.94 327.57 189.17 338.69 185.05 348.86 C 182.12 355.42 178.25 362.25 171.57 365.60 C 165.88 368.68 159.26 368.91 152.95 369.21 C 143.53 369.24 134.22 375.91 132.04 385.23 C 130.45 392.37 131.01 400.11 134.25 406.72 C 136.70 411.97 140.48 416.45 144.56 420.51 C 143.30 414.98 141.61 409.14 143.39 403.53 C 144.47 399.52 147.55 396.21 151.40 394.71 C 158.44 391.71 166.90 394.85 173.51 390.51 C 181.84 385.16 185.77 375.42 188.09 366.20 C 188.68 363.84 189.22 361.47 189.76 359.11 L 190.35 359.71 C 189.97 375.14 185.31 391.06 174.67 402.58 C 171.50 406.27 166.05 408.45 161.36 406.43 C 158.28 405.35 156.51 402.46 154.80 399.88 C 147.48 405.20 146.38 416.82 152.46 423.48 C 157.49 429.09 166.20 429.57 172.84 426.83 C 179.20 424.20 183.39 418.23 186.05 412.11 C 189.19 404.71 191.44 396.94 193.11 389.09 C 193.14 391.87 193.45 394.64 193.65 397.42 C 192.50 403.28 190.86 409.07 188.31 414.49 C 186.12 419.38 184.31 425.20 186.80 430.35 C 189.50 435.72 194.78 439.09 199.51 442.52 C 199.45 448.23 199.49 453.94 199.48 459.66 C 175.56 454.74 152.63 445.51 131.43 433.46 C 101.92 416.61 75.69 393.72 55.97 365.98 C 36.75 339.10 24.18 307.61 19.04 274.99 C 15.25 253.21 16.10 231.05 16.09 209.04 C 15.98 144.10 16.15 79.17 15.99 14.23 M 40.18 191.50 C 42.66 191.81 45.18 191.82 47.67 191.62 C 45.81 190.73 42.49 191.41 40.18 191.50 Z" />
</g>
<g id="#fefefeff">
<path fill="#fefefe" opacity="1.00" d=" M 201.71 14.79 L 201.73 14.14 C 262.78 14.19 323.83 14.14 384.88 14.17 C 385.14 86.79 385.24 159.41 385.36 232.04 C 385.69 247.86 384.60 263.70 381.89 279.29 C 375.23 272.99 368.21 266.97 360.05 262.68 C 361.22 257.02 362.90 251.50 364.22 245.88 C 364.70 244.25 364.26 242.56 364.07 240.93 C 362.80 232.98 361.71 225.00 360.48 217.04 C 360.23 214.88 358.25 213.57 356.96 212.01 C 352.63 207.66 348.79 202.85 344.37 198.60 C 339.04 195.90 333.27 194.16 327.79 191.79 C 325.16 193.22 322.54 194.64 319.89 196.01 C 322.52 189.99 322.79 183.35 323.58 176.92 C 323.17 171.05 322.40 165.18 321.44 159.38 C 319.51 154.88 316.87 150.72 314.74 146.31 C 313.50 144.23 312.83 141.45 310.35 140.48 C 305.49 138.09 300.75 135.45 295.82 133.23 C 291.07 134.68 286.52 136.89 282.00 138.96 C 278.22 142.61 275.22 147.01 271.76 150.97 C 271.67 153.48 271.57 156.00 271.49 158.52 C 264.90 160.86 258.12 162.62 251.39 164.53 C 249.45 167.84 247.18 170.96 245.39 174.36 C 244.89 179.55 245.12 184.81 244.84 190.03 C 244.39 193.94 248.54 195.98 250.51 198.81 C 244.23 201.09 238.01 203.51 231.74 205.82 C 230.21 208.83 228.02 211.59 227.11 214.86 C 227.46 218.14 228.30 221.35 228.76 224.63 C 227.14 226.26 224.76 227.58 224.36 230.05 C 223.17 235.41 221.64 240.71 220.63 246.11 C 220.94 252.57 221.79 259.01 222.45 265.45 C 222.23 265.61 221.79 265.94 221.57 266.10 C 214.08 271.20 207.46 277.51 201.82 284.60 C 201.87 230.74 201.82 176.87 201.85 123.01 C 201.88 119.23 201.82 115.46 201.68 111.69 C 201.65 79.39 201.59 47.09 201.71 14.79 Z" />
<path fill="#fefefe" opacity="1.00" d=" M 39.02 49.27 C 48.33 53.19 58.32 55.32 68.42 55.38 C 67.87 56.27 67.08 56.64 66.05 56.51 C 56.65 56.40 47.00 54.48 39.02 49.27 Z" />
<path fill="#fefefe" opacity="1.00" d=" M 37.78 88.61 C 48.76 90.60 59.76 87.89 70.02 84.09 C 69.60 85.92 67.56 86.15 66.10 86.76 C 57.10 89.89 47.01 92.27 37.78 88.61 Z" />
<path fill="#fefefe" opacity="1.00" d=" M 69.56 117.75 C 71.10 116.30 72.67 114.88 74.42 113.70 C 73.93 116.13 71.73 117.47 70.09 119.09 C 62.24 126.07 53.40 132.67 42.90 134.82 C 52.91 131.15 61.81 125.00 69.56 117.75 Z" />
<path fill="#fefefe" opacity="1.00" d=" M 45.13 183.06 C 60.67 172.84 72.30 158.00 84.04 143.88 C 83.75 146.28 82.04 148.09 80.67 149.95 C 74.49 157.94 67.79 165.54 60.38 172.42 C 55.78 176.57 50.94 180.68 45.13 183.06 Z" />
<path fill="#fefefe" opacity="1.00" d=" M 98.45 171.48 C 98.93 170.46 99.71 169.86 100.80 169.68 C 92.46 185.15 82.35 199.66 71.41 213.39 C 64.83 221.05 58.23 229.38 49.01 233.95 C 55.88 228.92 61.69 222.61 67.12 216.09 C 78.66 202.03 89.00 187.01 98.45 171.48 Z" />
<path fill="#fefefe" opacity="1.00" d=" M 123.38 189.36 C 123.75 188.28 124.50 187.47 125.61 187.16 C 121.71 197.64 116.74 207.68 111.64 217.62 C 103.08 233.75 93.48 249.57 80.84 262.87 C 75.08 268.68 68.65 274.20 60.86 277.06 C 72.53 270.46 81.95 260.62 89.90 249.96 C 103.73 231.37 113.89 210.40 123.38 189.36 Z" />
<path fill="#fefefe" opacity="1.00" d=" M 153.56 201.49 C 154.04 200.16 154.68 198.88 155.71 197.89 C 155.59 199.33 155.26 200.75 154.76 202.11 C 148.34 219.93 141.88 237.78 133.64 254.86 C 129.61 263.14 125.24 271.32 119.65 278.67 C 116.49 282.77 112.91 286.75 108.18 289.06 C 116.10 282.81 121.75 274.24 126.71 265.57 C 138.01 245.27 145.46 223.18 153.56 201.49 Z" />
<path fill="#fefefe" opacity="1.00" d=" M 266.27 209.93 C 267.37 209.08 269.39 209.74 269.91 211.00 C 269.50 213.13 265.55 211.94 266.27 209.93 Z" />
<path fill="#fefefe" opacity="1.00" d=" M 289.54 213.63 C 290.95 213.60 292.37 213.57 293.79 213.55 C 293.26 214.81 292.74 216.08 292.21 217.35 C 291.31 216.11 290.42 214.87 289.54 213.63 Z" />
</g>
<g id="#363435ff">
<path fill="#363435" opacity="1.00" d=" M 130.66 44.16 C 134.81 39.27 140.39 35.24 146.97 34.70 C 159.68 33.30 170.76 41.33 183.05 42.78 C 188.21 43.50 193.07 41.30 197.07 38.23 C 196.05 42.56 194.82 47.29 191.07 50.10 C 187.55 53.12 182.65 52.85 178.32 52.75 C 178.48 52.97 178.81 53.41 178.97 53.63 L 179.29 54.06 C 183.27 59.87 187.50 65.96 193.87 69.36 C 195.86 70.12 197.99 70.30 200.08 70.59 C 199.44 71.67 198.76 72.72 198.06 73.75 C 196.00 76.74 192.34 77.23 189.02 77.52 C 192.52 84.67 194.94 92.30 196.68 100.05 C 197.75 105.63 198.30 111.33 200.16 116.73 L 200.22 117.01 C 200.73 115.24 201.24 113.48 201.68 111.69 C 201.82 115.46 201.88 119.23 201.85 123.01 C 201.82 176.87 201.87 230.74 201.82 284.60 C 207.46 277.51 214.08 271.20 221.57 266.10 L 222.27 268.19 C 215.39 273.25 209.02 279.06 203.75 285.80 C 202.58 287.27 201.64 289.02 201.75 290.96 C 201.71 341.30 201.81 391.64 201.70 441.98 C 201.15 442.12 200.06 442.38 199.51 442.52 C 194.78 439.09 189.50 435.72 186.80 430.35 C 184.31 425.20 186.12 419.38 188.31 414.49 C 190.86 409.07 192.50 403.28 193.65 397.42 C 193.81 396.89 194.12 395.85 194.27 395.33 C 196.78 388.00 197.70 380.12 197.20 372.40 C 197.19 370.59 197.16 368.77 197.17 366.97 C 196.86 369.64 196.50 372.31 195.85 374.92 C 193.79 379.14 193.28 383.80 193.20 388.44 L 193.11 389.09 C 191.44 396.94 189.19 404.71 186.05 412.11 C 183.39 418.23 179.20 424.20 172.84 426.83 C 166.20 429.57 157.49 429.09 152.46 423.48 C 146.38 416.82 147.48 405.20 154.80 399.88 C 156.51 402.46 158.28 405.35 161.36 406.43 C 166.05 408.45 171.50 406.27 174.67 402.58 C 185.31 391.06 189.97 375.14 190.35 359.71 L 189.76 359.11 C 189.46 358.82 188.87 358.25 188.57 357.97 C 188.41 360.71 188.31 363.46 188.09 366.20 C 185.77 375.42 181.84 385.16 173.51 390.51 C 166.90 394.85 158.44 391.71 151.40 394.71 C 147.55 396.21 144.47 399.52 143.39 403.53 C 141.61 409.14 143.30 414.98 144.56 420.51 C 140.48 416.45 136.70 411.97 134.25 406.72 C 131.01 400.11 130.45 392.37 132.04 385.23 C 134.22 375.91 143.53 369.24 152.95 369.21 C 159.26 368.91 165.88 368.68 171.57 365.60 C 178.25 362.25 182.12 355.42 185.05 348.86 C 189.17 338.69 189.94 327.57 190.96 316.76 C 187.72 320.21 184.42 325.41 178.97 324.87 C 173.14 324.85 168.48 319.76 168.05 314.12 C 174.13 314.28 179.81 310.68 182.13 305.04 C 187.17 293.58 186.21 280.51 184.56 268.41 C 179.11 273.35 174.13 278.84 170.12 285.02 C 164.75 292.98 160.76 302.56 162.65 312.32 C 158.05 309.74 153.98 306.04 152.24 300.92 C 144.04 309.73 135.18 317.92 125.86 325.53 C 129.71 326.26 133.67 326.86 137.59 326.31 C 140.64 325.65 143.02 323.39 145.99 322.50 C 150.43 322.42 155.05 323.69 158.48 326.62 C 164.15 331.10 167.26 340.57 161.63 346.28 C 160.50 342.81 159.23 339.35 156.95 336.45 C 156.01 339.17 154.80 341.82 152.84 343.97 L 152.12 342.89 C 153.36 340.76 154.50 338.55 155.08 336.13 C 152.33 334.74 148.80 333.88 147.28 330.92 C 145.93 328.73 147.42 326.23 147.61 323.95 C 144.38 324.50 141.74 326.53 138.71 327.61 C 133.39 328.61 127.93 327.65 122.77 326.28 C 133.02 317.69 142.96 308.73 152.10 298.95 C 152.32 294.39 153.59 290.00 155.41 285.85 C 150.83 289.17 145.00 290.87 141.46 295.49 C 134.87 303.49 127.55 310.82 120.38 318.29 C 118.05 320.77 115.42 322.95 112.58 324.82 L 112.77 323.11 C 115.00 321.22 117.22 319.33 119.23 317.22 C 126.75 309.46 134.45 301.84 141.22 293.40 C 136.90 294.66 132.49 295.66 127.97 295.72 C 139.34 284.71 146.39 270.09 150.90 255.10 C 151.39 253.52 151.90 251.95 152.43 250.38 C 153.89 247.31 154.77 244.00 154.60 240.57 C 154.66 239.23 154.68 237.89 154.71 236.55 C 153.77 239.21 152.76 241.84 151.94 244.54 C 149.94 244.47 149.65 246.83 150.22 248.28 C 149.75 249.61 149.27 250.95 148.74 252.27 C 142.19 267.59 133.84 283.12 119.98 293.02 C 109.79 300.38 96.73 302.57 84.43 301.05 C 102.13 285.60 114.18 264.91 123.60 243.64 C 130.55 227.75 136.65 211.48 141.69 194.88 C 133.03 214.79 124.51 234.85 113.48 253.60 C 107.79 263.27 101.56 272.71 93.91 280.96 C 88.17 287.10 81.24 292.50 72.96 294.64 C 71.26 294.42 69.54 294.59 67.92 295.15 L 67.35 294.89 C 74.97 292.42 82.08 288.45 87.87 282.88 C 99.41 271.93 107.88 258.23 115.38 244.33 C 124.12 227.75 131.61 210.51 137.98 192.89 C 125.73 216.70 113.82 241.04 96.83 261.92 C 88.68 271.57 79.03 280.76 66.78 284.78 C 56.72 288.19 45.67 286.88 35.91 283.10 C 49.25 276.04 60.49 265.67 70.23 254.27 C 82.90 239.29 93.18 222.43 101.81 204.86 C 105.96 196.12 110.03 187.29 112.92 178.03 C 101.90 200.91 89.66 223.64 72.48 242.55 C 63.64 251.94 52.50 261.42 38.86 261.30 C 59.42 255.00 74.20 238.02 85.76 220.73 C 94.86 206.90 102.52 192.15 108.83 176.86 C 98.30 195.13 87.84 213.83 73.00 229.05 C 65.69 236.45 56.70 243.25 46.05 244.45 C 39.65 245.27 33.41 243.19 27.70 240.51 C 30.66 237.53 33.98 234.95 37.02 232.07 C 59.98 210.56 77.82 184.20 93.05 156.84 C 85.38 166.94 78.45 177.60 70.33 187.36 C 62.78 196.39 54.80 205.46 44.55 211.51 C 40.85 213.79 36.56 214.88 32.22 214.92 C 37.65 212.76 42.94 210.18 47.53 206.52 C 59.17 197.50 68.46 185.87 76.96 173.95 C 81.27 167.74 85.60 161.51 89.17 154.83 C 81.62 164.32 74.53 174.37 65.21 182.25 C 59.56 187.01 52.71 191.15 45.07 190.98 C 38.10 191.45 31.42 188.91 25.52 185.41 C 46.09 172.90 63.31 155.03 75.79 134.49 C 65.49 144.40 55.02 154.50 42.38 161.42 C 38.37 163.72 33.82 165.12 29.16 164.70 C 46.90 158.49 61.74 145.85 73.17 131.17 C 66.33 136.88 58.87 142.06 50.22 144.60 C 46.71 144.89 43.18 144.95 39.66 144.72 C 33.50 142.57 28.49 138.07 25.37 132.38 C 30.31 130.64 35.03 128.29 39.46 125.49 C 49.92 118.92 59.60 111.12 68.24 102.31 C 61.12 105.98 54.08 109.96 46.38 112.34 C 40.43 114.29 33.58 115.72 27.82 112.44 C 32.71 112.20 37.68 112.32 42.46 111.08 C 51.16 108.84 59.11 104.35 66.33 99.10 C 56.16 101.07 44.91 103.97 35.17 98.86 C 28.39 95.35 25.69 87.49 25.10 80.32 C 25.68 80.49 26.83 80.82 27.40 80.98 C 32.14 82.55 37.53 82.63 42.11 80.50 C 51.01 78.30 59.80 75.53 68.09 71.57 C 67.76 70.75 67.10 69.12 66.77 68.30 C 66.71 68.18 66.59 67.92 66.53 67.79 C 55.43 66.84 43.73 64.41 35.10 56.88 C 29.10 51.73 25.99 43.86 25.97 36.02 C 46.73 44.34 69.55 41.68 91.34 42.90 C 83.21 43.55 75.05 42.96 66.91 43.47 C 75.88 43.81 84.94 44.60 93.87 43.30 C 99.16 44.25 104.04 47.97 105.77 53.16 C 107.41 57.71 105.91 63.13 102.17 66.20 C 98.97 69.18 94.48 69.69 90.35 70.29 C 90.34 82.63 91.53 95.07 95.02 106.95 C 95.90 109.90 97.54 113.24 100.83 113.98 C 105.68 114.98 110.79 114.62 115.50 116.37 C 119.17 117.58 122.48 120.33 123.71 124.07 C 126.18 131.01 121.69 138.49 124.74 145.32 C 129.11 154.03 143.74 157.51 149.53 148.44 C 154.54 141.64 163.89 141.54 171.53 141.61 C 173.55 135.96 173.80 129.94 173.92 124.00 C 169.69 131.75 159.40 134.96 151.46 131.26 C 143.94 127.37 141.55 116.54 146.67 109.79 C 147.30 112.74 147.01 116.28 149.34 118.59 C 153.44 123.17 161.05 122.14 165.41 118.47 C 169.59 114.56 170.75 108.42 170.37 102.92 C 169.91 95.96 166.71 88.50 160.06 85.41 C 159.40 85.06 158.73 84.73 158.06 84.41 C 159.22 81.32 159.38 77.95 157.91 74.93 C 155.45 68.39 150.43 63.10 144.54 59.48 C 141.93 57.72 138.84 56.49 136.80 54.02 C 136.88 51.06 137.98 47.64 135.08 45.63 C 133.63 45.08 132.15 44.59 130.66 44.16 M 150.60 44.04 C 151.76 45.49 153.66 45.12 155.29 45.29 C 154.68 47.21 154.07 49.51 151.90 50.21 C 149.11 51.50 146.52 49.51 144.23 48.13 C 146.98 53.33 155.86 53.76 158.14 48.02 C 159.12 44.56 155.46 42.63 152.93 41.40 C 151.64 41.94 150.86 42.83 150.60 44.04 M 39.02 49.27 C 47.00 54.48 56.65 56.40 66.05 56.51 C 67.08 56.64 67.87 56.27 68.42 55.38 C 58.32 55.32 48.33 53.19 39.02 49.27 M 37.78 88.61 C 47.01 92.27 57.10 89.89 66.10 86.76 C 67.56 86.15 69.60 85.92 70.02 84.09 C 59.76 87.89 48.76 90.60 37.78 88.61 M 69.56 117.75 C 61.81 125.00 52.91 131.15 42.90 134.82 C 53.40 132.67 62.24 126.07 70.09 119.09 C 71.73 117.47 73.93 116.13 74.42 113.70 C 72.67 114.88 71.10 116.30 69.56 117.75 M 45.13 183.06 C 50.94 180.68 55.78 176.57 60.38 172.42 C 67.79 165.54 74.49 157.94 80.67 149.95 C 82.04 148.09 83.75 146.28 84.04 143.88 C 72.30 158.00 60.67 172.84 45.13 183.06 M 98.45 171.48 C 89.00 187.01 78.66 202.03 67.12 216.09 C 61.69 222.61 55.88 228.92 49.01 233.95 C 58.23 229.38 64.83 221.05 71.41 213.39 C 82.35 199.66 92.46 185.15 100.80 169.68 C 99.71 169.86 98.93 170.46 98.45 171.48 M 123.38 189.36 C 113.89 210.40 103.73 231.37 89.90 249.96 C 81.95 260.62 72.53 270.46 60.86 277.06 C 68.65 274.20 75.08 268.68 80.84 262.87 C 93.48 249.57 103.08 233.75 111.64 217.62 C 116.74 207.68 121.71 197.64 125.61 187.16 C 124.50 187.47 123.75 188.28 123.38 189.36 M 153.56 201.49 C 145.46 223.18 138.01 245.27 126.71 265.57 C 121.75 274.24 116.10 282.81 108.18 289.06 C 112.91 286.75 116.49 282.77 119.65 278.67 C 125.24 271.32 129.61 263.14 133.64 254.86 C 141.88 237.78 148.34 219.93 154.76 202.11 C 155.26 200.75 155.59 199.33 155.71 197.89 C 154.68 198.88 154.04 200.16 153.56 201.49 M 148.11 330.26 C 151.52 334.05 157.96 333.88 160.17 338.88 C 160.88 339.85 161.86 343.20 163.23 341.10 C 164.25 332.81 157.40 325.33 149.44 324.05 C 148.70 326.04 148.28 328.13 148.11 330.26 Z" />
</g>
<g id="#262735ff">
<path fill="#262735" opacity="1.00" d=" M 399.21 34.30 L 400.00 35.89 L 400.00 86.28 L 398.87 86.39 C 399.01 69.03 398.72 51.66 399.21 34.30 Z" />
</g>
<g id="#fef62bff">
<path fill="#fef62b" opacity="1.00" d=" M 197.33 69.64 C 199.88 60.33 196.21 50.38 199.48 41.25 C 199.68 50.69 199.55 60.14 199.58 69.58 C 199.01 69.60 197.89 69.63 197.33 69.64 Z" />
</g>
<g id="#353119ff">
<path fill="#353119" opacity="1.00" d=" M 66.91 43.47 C 75.05 42.96 83.21 43.55 91.34 42.90 C 91.97 43.00 93.23 43.20 93.87 43.30 C 84.94 44.60 75.88 43.81 66.91 43.47 Z" />
</g>
<g id="#3e3431ff">
<path fill="#3e3431" opacity="1.00" d=" M 117.29 51.37 C 119.97 46.62 125.46 44.52 130.66 44.16 C 132.15 44.59 133.63 45.08 135.08 45.63 C 129.64 45.69 123.32 46.10 119.58 50.63 C 114.05 57.28 116.00 67.86 122.44 73.21 C 124.16 70.06 126.62 67.12 130.25 66.19 C 136.86 64.36 144.51 64.77 150.32 68.68 C 153.66 70.90 155.73 74.66 155.90 78.66 C 153.07 78.49 150.20 78.01 147.37 78.47 C 143.94 79.26 142.10 82.75 138.97 84.08 C 137.48 84.24 135.97 84.33 134.47 84.34 C 135.10 85.36 135.73 86.38 136.36 87.41 L 134.75 87.25 C 134.20 86.54 133.72 85.78 133.32 84.98 C 133.14 83.54 132.98 82.10 132.86 80.66 C 133.49 81.01 134.76 81.72 135.39 82.07 C 136.64 82.90 138.40 82.97 139.63 82.08 C 141.92 80.39 144.07 78.51 146.21 76.65 C 142.66 76.56 139.03 76.68 135.68 77.97 C 135.16 78.16 134.13 78.55 133.62 78.74 C 132.71 79.26 131.83 79.80 130.98 80.39 C 126.64 83.80 122.65 88.21 116.99 89.31 C 111.82 90.71 105.18 89.42 102.82 84.09 C 100.78 79.13 101.35 73.00 104.25 68.47 C 104.84 71.83 104.18 75.74 106.64 78.48 C 107.97 80.11 110.48 79.19 112.02 78.30 C 114.26 77.30 116.43 76.15 118.67 75.16 C 118.05 77.81 117.23 80.42 116.26 82.97 C 124.48 80.20 128.47 71.16 136.92 68.68 C 139.49 68.18 142.09 67.82 144.67 67.42 C 143.18 67.16 141.68 66.91 140.18 66.67 C 138.63 65.26 136.41 65.27 134.84 66.64 C 133.49 66.95 132.15 67.26 130.82 67.63 C 126.83 68.63 123.93 71.99 123.80 76.15 C 115.72 71.13 112.46 59.66 117.29 51.37 M 123.00 81.00 C 120.46 83.35 116.47 85.48 113.11 83.52 C 114.03 82.08 115.42 80.91 116.00 79.27 C 118.45 78.58 114.69 76.35 115.28 78.86 C 111.87 80.15 107.73 81.76 104.59 78.94 C 104.81 78.04 104.47 76.22 103.28 76.36 C 102.44 77.86 102.61 80.01 103.42 81.51 L 103.72 81.50 C 103.73 84.82 106.96 87.27 109.99 87.93 C 115.16 88.94 120.64 87.01 124.61 83.66 C 127.26 81.24 130.35 79.35 133.02 76.97 L 133.80 77.45 L 134.76 77.01 L 134.90 76.13 C 136.14 76.23 137.31 75.91 138.40 75.19 C 140.33 75.90 142.91 75.76 144.71 74.71 L 145.74 75.28 C 148.45 75.55 151.14 75.96 153.83 76.44 C 151.51 69.77 143.06 67.92 137.06 70.34 C 131.39 72.42 127.28 76.98 123.00 81.00 Z" />
<path fill="#3e3431" opacity="1.00" d=" M 80.04 318.35 C 86.26 314.69 91.33 320.96 96.58 323.30 C 101.07 325.07 106.02 324.52 110.63 323.56 C 111.16 323.45 112.23 323.22 112.77 323.11 L 112.58 324.82 C 112.51 324.87 112.36 324.98 112.28 325.03 C 108.24 325.88 104.07 326.02 99.97 325.73 C 93.30 325.29 89.18 318.27 82.31 318.56 C 82.46 320.91 82.88 323.31 82.48 325.67 C 81.72 327.97 79.64 329.49 78.04 331.21 C 79.22 333.81 80.45 337.86 83.98 337.72 C 89.04 337.91 90.89 331.20 95.99 331.45 C 99.17 330.80 102.09 332.24 103.90 334.83 C 100.52 341.11 94.09 344.67 88.18 348.17 C 84.20 350.54 79.40 350.98 75.42 353.28 C 73.51 354.22 73.46 356.37 73.24 358.20 C 75.60 358.80 78.41 358.82 80.12 360.82 C 82.61 363.25 83.28 366.79 84.03 370.05 C 86.06 369.75 88.70 369.81 89.65 367.56 C 91.02 363.96 91.20 359.84 93.83 356.81 C 99.66 349.33 107.89 344.30 114.73 337.83 C 114.70 339.36 114.80 340.92 114.54 342.44 C 113.35 345.37 110.03 347.15 109.57 350.45 C 109.20 352.30 110.22 353.99 110.80 355.68 C 112.55 355.29 114.29 354.82 116.08 354.65 C 118.54 354.99 120.59 356.88 120.88 359.39 C 120.06 361.48 122.84 362.78 123.27 360.30 C 126.57 354.55 121.65 348.91 122.17 342.99 C 122.10 339.94 123.64 336.77 126.51 335.49 C 130.84 333.51 135.77 334.75 140.09 336.13 C 143.44 337.00 145.15 340.28 147.74 342.29 C 149.17 342.64 150.66 342.67 152.12 342.89 L 152.85 344.16 C 151.23 344.36 149.61 344.38 148.00 344.22 C 144.72 342.59 143.25 338.54 139.57 337.56 C 135.41 336.29 130.39 334.97 126.41 337.36 C 122.36 340.32 123.28 346.20 124.97 350.23 C 126.14 353.47 126.10 357.00 125.07 360.27 C 123.97 361.66 122.70 362.89 121.47 364.17 C 123.45 366.67 125.54 369.08 127.51 371.59 C 121.48 371.82 114.70 370.11 110.96 365.05 C 108.71 362.24 110.63 358.34 108.87 355.37 C 108.27 352.98 107.66 350.27 108.91 347.98 C 110.27 345.59 112.17 343.56 113.64 341.25 C 111.44 342.67 109.38 344.29 107.41 346.02 C 102.59 350.29 97.08 354.08 93.74 359.73 C 92.07 362.47 92.29 365.90 90.77 368.70 C 89.69 370.79 87.22 371.22 85.22 371.97 C 86.21 374.22 86.99 376.55 87.58 378.94 C 81.01 377.83 74.14 374.22 71.33 367.91 C 69.89 365.11 71.34 362.19 72.54 359.63 C 72.19 358.34 71.83 357.05 71.47 355.78 C 73.09 351.80 77.28 350.50 80.97 349.20 C 82.25 349.56 83.35 349.25 84.28 348.27 C 90.64 344.97 97.63 341.57 101.70 335.42 C 101.85 335.08 102.17 334.39 102.33 334.05 C 99.55 332.82 96.49 332.45 93.58 333.49 C 90.82 335.53 88.72 338.88 85.03 339.29 C 82.38 339.99 80.21 337.99 78.75 336.07 C 78.19 335.35 77.65 334.62 77.11 333.90 C 77.26 337.09 77.56 340.27 78.10 343.42 C 74.58 340.84 71.57 337.60 69.57 333.70 C 69.05 330.60 69.06 327.42 69.74 324.34 C 71.16 322.26 73.15 320.66 75.08 319.08 C 76.78 319.43 78.53 319.22 80.04 318.35 M 70.52 330.92 C 71.39 334.18 72.96 337.61 76.05 339.31 C 76.02 335.65 75.07 331.03 78.47 328.50 C 80.60 326.59 83.14 322.66 80.12 320.40 C 74.31 319.17 69.37 325.44 70.52 330.92 M 112.09 363.94 C 114.70 367.85 119.52 369.38 123.98 369.93 C 122.28 367.67 120.02 365.52 119.74 362.55 C 119.39 360.35 119.40 357.61 117.06 356.50 C 115.69 356.30 114.34 356.35 112.99 356.64 C 110.52 358.15 110.96 361.70 112.09 363.94 M 75.08 371.02 C 77.44 373.18 80.22 375.69 83.56 375.77 C 82.43 378.05 87.43 377.12 85.25 375.62 C 83.48 372.73 82.12 369.63 81.47 366.29 C 80.71 363.07 77.74 359.18 74.02 360.64 C 71.07 363.57 72.23 368.46 75.08 371.02 Z" />
</g>
<g id="#f1494dff">
<path fill="#f1494d" opacity="1.00" d=" M 119.58 50.63 C 123.32 46.10 129.64 45.69 135.08 45.63 C 137.98 47.64 136.88 51.06 136.80 54.02 C 138.84 56.49 141.93 57.72 144.54 59.48 C 150.43 63.10 155.45 68.39 157.91 74.93 C 159.38 77.95 159.22 81.32 158.06 84.41 C 150.48 83.09 143.92 88.78 136.36 87.41 C 135.73 86.38 135.10 85.36 134.47 84.34 C 135.97 84.33 137.48 84.24 138.97 84.08 C 142.10 82.75 143.94 79.26 147.37 78.47 C 150.20 78.01 153.07 78.49 155.90 78.66 C 155.73 74.66 153.66 70.90 150.32 68.68 C 144.51 64.77 136.86 64.36 130.25 66.19 C 126.62 67.12 124.16 70.06 122.44 73.21 C 116.00 67.86 114.05 57.28 119.58 50.63 Z" />
<path fill="#f1494d" opacity="1.00" d=" M 232.65 207.97 C 237.29 210.48 241.74 213.39 245.94 216.59 C 244.44 219.32 242.71 221.96 241.71 224.93 C 241.47 228.27 241.61 231.66 241.99 234.99 C 242.38 235.29 243.18 235.90 243.58 236.20 C 243.85 231.43 242.09 226.22 244.66 221.85 C 245.48 220.28 246.32 218.72 247.18 217.17 C 251.02 217.65 255.08 217.81 258.65 219.40 C 260.81 222.41 261.62 226.19 263.52 229.38 C 258.54 233.24 253.18 236.56 247.97 240.11 C 246.72 240.67 246.28 241.97 245.88 243.17 C 252.44 239.41 258.28 234.47 264.86 230.77 C 271.28 229.25 277.95 228.81 284.36 227.22 C 284.61 226.97 285.11 226.48 285.36 226.23 C 278.35 226.23 271.63 228.72 264.62 228.77 C 263.23 225.45 261.82 222.14 260.36 218.85 C 263.80 216.22 267.41 213.57 271.76 212.71 C 274.49 211.71 277.17 213.24 279.87 213.54 C 282.26 213.79 284.66 213.68 287.06 213.69 C 289.12 216.71 291.87 219.38 293.15 222.86 C 294.84 231.45 296.07 240.25 295.01 248.99 C 291.82 254.45 287.55 259.20 283.78 264.27 C 279.99 256.13 279.42 246.71 275.21 238.78 C 275.29 240.85 275.47 242.93 276.11 244.92 C 278.11 251.60 280.18 258.27 281.98 265.01 C 276.79 264.47 271.80 262.88 266.65 262.08 C 266.48 254.79 265.74 247.54 265.58 240.25 C 265.27 240.24 264.64 240.21 264.33 240.20 C 264.45 247.22 264.45 254.25 265.28 261.24 C 263.61 263.67 260.59 264.89 258.01 266.15 C 248.94 266.71 239.88 265.45 230.80 265.73 C 233.52 258.98 239.50 253.85 241.38 246.80 C 236.28 252.46 232.96 259.45 228.62 265.67 C 227.21 265.68 225.80 265.69 224.39 265.70 C 223.90 259.43 223.18 253.19 222.58 246.94 C 223.44 241.60 224.94 236.35 226.23 231.09 C 226.51 229.08 228.09 227.81 229.70 226.83 C 231.42 230.52 230.87 235.65 234.26 238.31 C 232.62 230.55 229.81 223.00 229.29 215.01 C 230.00 212.50 231.51 210.30 232.65 207.97 Z" />
</g>
<g id="#f3e944ff">
<path fill="#f3e944" opacity="1.00" d=" M 178.97 53.63 C 179.96 53.20 180.99 52.94 182.06 52.85 C 182.65 52.62 185.89 53.14 184.06 53.97 C 182.48 54.36 180.89 54.39 179.29 54.06 L 178.97 53.63 Z" />
</g>
<g id="#2f2d3aff">
<path fill="#2f2d3a" opacity="1.00" d=" M 26.94 65.05 C 30.60 65.91 34.15 67.18 37.82 68.04 C 44.42 69.91 51.37 70.41 58.17 69.50 C 61.06 69.26 63.91 68.74 66.77 68.30 C 67.10 69.12 67.76 70.75 68.09 71.57 C 65.56 71.65 63.03 71.77 60.51 71.96 C 55.54 71.87 50.56 71.80 45.59 71.77 L 45.25 71.73 C 42.11 71.10 38.96 70.55 35.79 70.13 C 32.49 69.15 29.43 67.45 26.94 65.05 Z" />
</g>
<g id="#7b7205ff">
<path fill="#7b7205" opacity="1.00" d=" M 134.84 66.64 C 136.41 65.27 138.63 65.26 140.18 66.67 C 138.43 67.17 136.59 67.17 134.84 66.64 Z" />
</g>
<g id="#c7d750ff">
<path fill="#c7d750" opacity="1.00" d=" M 130.82 67.63 C 132.15 67.26 133.49 66.95 134.84 66.64 C 136.59 67.17 138.43 67.17 140.18 66.67 C 141.68 66.91 143.18 67.16 144.67 67.42 C 142.09 67.82 139.49 68.18 136.92 68.68 C 134.95 68.02 132.91 67.56 130.82 67.63 Z" />
</g>
<g id="#a49e34ff">
<path fill="#a49e34" opacity="1.00" d=" M 37.82 68.04 C 44.56 68.99 51.38 69.18 58.17 69.50 C 51.37 70.41 44.42 69.91 37.82 68.04 Z" />
</g>
<g id="#b6b039ff">
<path fill="#b6b039" opacity="1.00" d=" M 35.79 70.13 C 38.96 70.55 42.11 71.10 45.25 71.73 C 42.03 71.66 38.79 71.37 35.79 70.13 Z" />
</g>
<g id="#f94748ff">
<path fill="#f94748" opacity="1.00" d=" M 123.00 81.00 C 127.28 76.98 131.39 72.42 137.06 70.34 C 143.06 67.92 151.51 69.77 153.83 76.44 C 151.14 75.96 148.45 75.55 145.74 75.28 L 144.71 74.71 C 142.75 73.22 140.28 74.04 138.40 75.19 C 137.31 75.91 136.14 76.23 134.90 76.13 C 134.43 76.34 133.49 76.76 133.02 76.97 C 130.35 79.35 127.26 81.24 124.61 83.66 C 120.64 87.01 115.16 88.94 109.99 87.93 C 106.96 87.27 103.73 84.82 103.72 81.50 C 104.00 80.64 104.29 79.79 104.59 78.94 C 107.73 81.76 111.87 80.15 115.28 78.86 L 116.00 79.27 C 115.42 80.91 114.03 82.08 113.11 83.52 C 116.47 85.48 120.46 83.35 123.00 81.00 Z" />
</g>
<g id="#eee43dff">
<path fill="#eee43d" opacity="1.00" d=" M 45.59 71.77 C 50.56 71.80 55.54 71.87 60.51 71.96 C 55.63 73.52 50.44 73.30 45.59 71.77 Z" />
</g>
<g id="#d95071ff">
<path fill="#d95071" opacity="1.00" d=" M 138.40 75.19 C 140.28 74.04 142.75 73.22 144.71 74.71 C 142.91 75.76 140.33 75.90 138.40 75.19 Z" />
</g>
<g id="#fff30fff">
<path fill="#fff30f" opacity="1.00" d=" M 189.02 77.52 C 192.34 77.23 196.00 76.74 198.06 73.75 C 198.51 79.12 198.39 84.50 198.45 89.88 C 198.42 93.34 199.07 97.15 196.68 100.05 C 194.94 92.30 192.52 84.67 189.02 77.52 Z" />
</g>
<g id="#b34d65ff">
<path fill="#b34d65" opacity="1.00" d=" M 103.28 76.36 C 104.47 76.22 104.81 78.04 104.59 78.94 C 104.29 79.79 104.00 80.64 103.72 81.50 L 103.42 81.51 C 102.61 80.01 102.44 77.86 103.28 76.36 Z" />
</g>
<g id="#bd5075ff">
<path fill="#bd5075" opacity="1.00" d=" M 133.02 76.97 C 133.49 76.76 134.43 76.34 134.90 76.13 L 134.76 77.01 L 133.80 77.45 L 133.02 76.97 Z" />
</g>
<g id="#cace30ff">
<path fill="#cace30" opacity="1.00" d=" M 135.68 77.97 C 139.03 76.68 142.66 76.56 146.21 76.65 C 144.07 78.51 141.92 80.39 139.63 82.08 C 140.60 80.72 141.54 79.34 142.43 77.92 C 140.18 77.86 137.93 77.92 135.68 77.97 Z" />
</g>
<g id="#cfcd46ff">
<path fill="#cfcd46" opacity="1.00" d=" M 106.64 78.48 C 108.32 77.61 110.25 77.97 112.02 78.30 C 110.48 79.19 107.97 80.11 106.64 78.48 Z" />
</g>
<g id="#924969ff">
<path fill="#924969" opacity="1.00" d=" M 115.28 78.86 C 114.69 76.35 118.45 78.58 116.00 79.27 L 115.28 78.86 Z" />
</g>
<g id="#fff100ff">
<path fill="#fff100" opacity="1.00" d=" M 133.62 78.74 C 134.13 78.55 135.16 78.16 135.68 77.97 C 137.93 77.92 140.18 77.86 142.43 77.92 C 141.54 79.34 140.60 80.72 139.63 82.08 C 138.40 82.97 136.64 82.90 135.39 82.07 C 134.78 80.97 134.19 79.86 133.62 78.74 Z" />
</g>
<g id="#d0cf34ff">
<path fill="#d0cf34" opacity="1.00" d=" M 130.98 80.39 C 131.83 79.80 132.71 79.26 133.62 78.74 C 134.19 79.86 134.78 80.97 135.39 82.07 C 134.76 81.72 133.49 81.01 132.86 80.66 C 132.98 82.10 133.14 83.54 133.32 84.98 C 132.51 83.47 131.74 81.93 130.98 80.39 Z" />
</g>
<g id="#555004ff">
<path fill="#555004" opacity="1.00" d=" M 27.40 80.98 C 32.31 81.34 37.23 80.98 42.11 80.50 C 37.53 82.63 32.14 82.55 27.40 80.98 Z" />
</g>
<g id="#dbdf33ff">
<path fill="#dbdf33" opacity="1.00" d=" M 135.72 88.21 C 138.76 88.75 141.87 88.61 144.90 88.10 C 142.32 90.02 138.07 90.99 135.72 88.21 Z" />
</g>
<g id="#ef494dff">
<path fill="#ef494d" opacity="1.00" d=" M 283.38 140.58 C 287.47 138.72 291.60 136.40 295.99 135.56 C 300.97 137.78 305.72 140.48 310.63 142.86 C 309.83 148.99 309.51 155.17 308.42 161.25 C 305.09 164.24 301.52 167.00 298.51 170.31 C 296.59 175.17 296.81 180.73 294.50 185.41 C 290.69 186.76 286.53 186.64 282.60 187.47 C 280.58 187.98 277.76 187.54 276.68 189.74 C 282.89 189.15 289.00 187.72 295.22 187.14 C 301.27 193.48 306.87 200.23 313.06 206.43 C 308.02 208.45 302.54 208.93 297.37 210.52 C 291.91 212.30 286.12 211.36 280.50 211.58 C 278.55 205.25 276.91 198.82 274.89 192.52 C 274.47 192.35 273.64 192.01 273.22 191.84 C 275.02 198.22 276.99 204.56 278.78 210.95 C 273.12 209.81 267.63 207.96 262.07 206.45 C 259.45 205.98 257.77 203.84 256.08 202.00 C 252.93 198.43 249.63 194.98 246.62 191.28 C 247.24 186.30 247.16 181.28 247.41 176.28 C 252.32 179.25 257.40 181.95 262.42 184.75 C 265.29 186.32 268.03 188.28 271.29 188.99 C 269.65 186.41 266.59 185.49 264.09 184.00 C 258.52 180.82 252.77 177.95 247.36 174.52 C 249.21 171.93 250.70 169.11 252.63 166.58 C 256.57 164.84 260.86 163.93 265.02 162.84 C 269.20 162.85 273.34 163.79 277.45 164.50 C 278.83 166.80 280.00 169.27 281.77 171.31 C 284.23 173.20 287.22 174.34 290.26 174.91 C 288.44 172.40 285.11 172.05 282.83 170.17 C 278.39 164.84 276.71 157.94 273.61 151.85 C 276.94 148.16 279.65 143.87 283.38 140.58 Z" />
<path fill="#ef494d" opacity="1.00" d=" M 330.19 211.83 C 334.51 207.96 339.03 204.31 343.21 200.28 C 348.27 205.40 353.06 210.79 357.87 216.13 C 357.66 217.52 356.63 218.57 355.88 219.69 C 352.47 224.05 349.54 228.75 346.05 233.04 C 340.70 226.01 335.69 218.74 330.19 211.83 Z" />
</g>
<g id="#f1e848ff">
<path fill="#f1e848" opacity="1.00" d=" M 39.66 144.72 C 43.18 144.95 46.71 144.89 50.22 144.60 L 48.89 145.58 C 45.81 146.34 42.49 146.29 39.66 144.72 Z" />
</g>
<g id="#f5484cff">
<path fill="#f5484c" opacity="1.00" d=" M 311.88 146.45 C 314.64 149.17 315.67 153.03 317.70 156.24 C 320.99 161.17 319.83 167.38 321.44 172.86 C 318.89 171.84 317.47 169.33 315.59 167.48 C 313.82 165.36 311.52 163.57 310.35 161.04 C 310.22 156.14 311.21 151.29 311.88 146.45 Z" />
<path fill="#f5484c" opacity="1.00" d=" M 315.57 190.35 C 316.93 187.25 318.90 184.45 320.85 181.68 C 320.65 188.53 318.49 195.10 315.61 201.25 C 315.35 197.63 314.94 193.94 315.57 190.35 Z" />
</g>
<g id="#bf4f53ff">
<path fill="#bf4f53" opacity="1.00" d=" M 273.77 156.86 C 275.94 158.01 275.99 160.77 276.75 162.83 C 274.19 162.71 271.65 162.35 269.14 161.83 C 271.06 160.53 274.07 159.87 273.77 156.86 Z" />
</g>
<g id="#f1484dff">
<path fill="#f1484d" opacity="1.00" d=" M 300.09 170.82 C 303.23 168.36 305.67 164.17 309.63 163.23 C 313.80 167.63 317.89 172.14 321.80 176.78 C 319.12 180.83 317.03 185.26 314.15 189.19 C 309.31 183.18 304.96 176.80 300.09 170.82 Z" />
<path fill="#f1484d" opacity="1.00" d=" M 319.00 199.11 C 321.74 197.11 324.78 195.46 327.94 194.23 C 332.48 195.48 336.65 197.76 341.18 199.08 C 338.46 204.41 332.28 206.77 328.71 211.44 C 326.38 217.00 324.83 222.87 322.35 228.37 C 319.80 231.33 316.04 232.97 313.00 235.38 C 313.68 238.72 315.21 241.78 316.28 245.00 C 316.16 248.30 315.56 251.61 314.65 254.78 C 312.82 257.82 310.48 260.59 307.91 263.04 C 303.03 260.77 299.37 256.40 295.05 253.20 C 296.02 251.58 297.48 250.05 297.30 248.02 C 297.41 241.67 297.82 235.25 296.32 229.02 C 301.11 230.54 305.24 233.66 310.15 234.83 C 306.83 230.43 300.39 230.21 296.24 226.75 C 294.89 222.31 292.70 216.51 296.82 212.87 C 302.80 211.49 309.36 208.48 315.32 211.67 C 316.09 215.14 316.63 218.72 318.00 222.03 C 318.42 222.30 319.27 222.83 319.69 223.10 C 318.78 219.03 317.29 215.11 316.55 211.01 C 315.87 206.90 316.85 202.64 319.00 199.11 Z" />
<path fill="#f1484d" opacity="1.00" d=" M 328.95 214.01 C 332.12 215.38 333.48 218.85 335.60 221.37 C 339.70 227.58 345.27 232.92 347.80 240.06 C 350.39 246.81 354.19 253.13 356.01 260.14 C 347.96 253.80 340.14 247.18 332.09 240.84 C 328.09 237.94 326.30 233.15 323.62 229.18 C 325.58 224.20 327.67 219.23 328.95 214.01 Z" />
</g>
<g id="#f1484cff">
<path fill="#f1484c" opacity="1.00" d=" M 299.04 172.75 C 300.26 173.71 301.52 174.67 302.38 175.99 C 305.95 181.09 309.76 186.00 313.58 190.91 C 313.61 195.65 313.83 200.38 313.74 205.12 C 307.77 198.92 302.24 192.31 296.24 186.13 C 297.25 181.68 298.34 177.25 299.04 172.75 Z" />
<path fill="#f1484c" opacity="1.00" d=" M 347.94 233.13 C 351.65 228.44 354.50 223.02 358.83 218.86 C 359.86 226.61 361.00 234.34 362.21 242.07 C 362.72 244.50 361.94 246.89 361.31 249.22 C 360.21 252.89 359.75 256.74 358.18 260.27 C 354.85 252.79 351.71 245.23 348.35 237.77 C 347.87 236.32 346.59 234.51 347.94 233.13 Z" />
<path fill="#f1484c" opacity="1.00" d=" M 309.79 263.60 C 316.09 255.71 322.59 247.99 328.91 240.12 C 337.77 247.66 347.25 254.48 355.82 262.33 C 346.55 262.49 337.29 262.14 328.03 262.28 C 321.92 262.32 315.89 263.50 309.79 263.60 Z" />
<path fill="#f1484c" opacity="1.00" d=" M 141.46 295.49 C 145.00 290.87 150.83 289.17 155.41 285.85 C 153.59 290.00 152.32 294.39 152.10 298.95 C 142.96 308.73 133.02 317.69 122.77 326.28 C 127.93 327.65 133.39 328.61 138.71 327.61 C 141.74 326.53 144.38 324.50 147.61 323.95 C 147.42 326.23 145.93 328.73 147.28 330.92 C 148.80 333.88 152.33 334.74 155.08 336.13 C 154.50 338.55 153.36 340.76 152.12 342.89 C 150.66 342.67 149.17 342.64 147.74 342.29 C 145.15 340.28 143.44 337.00 140.09 336.13 C 135.77 334.75 130.84 333.51 126.51 335.49 C 123.64 336.77 122.10 339.94 122.17 342.99 C 121.65 348.91 126.57 354.55 123.27 360.30 C 122.68 360.07 121.48 359.62 120.88 359.39 C 120.59 356.88 118.54 354.99 116.08 354.65 C 114.29 354.82 112.55 355.29 110.80 355.68 C 110.22 353.99 109.20 352.30 109.57 350.45 C 110.03 347.15 113.35 345.37 114.54 342.44 C 114.80 340.92 114.70 339.36 114.73 337.83 C 107.89 344.30 99.66 349.33 93.83 356.81 C 91.20 359.84 91.02 363.96 89.65 367.56 C 88.70 369.81 86.06 369.75 84.03 370.05 C 83.28 366.79 82.61 363.25 80.12 360.82 C 78.41 358.82 75.60 358.80 73.24 358.20 C 73.46 356.37 73.51 354.22 75.42 353.28 C 79.40 350.98 84.20 350.54 88.18 348.17 C 94.09 344.67 100.52 341.11 103.90 334.83 C 102.09 332.24 99.17 330.80 95.99 331.45 C 90.89 331.20 89.04 337.91 83.98 337.72 C 80.45 337.86 79.22 333.81 78.04 331.21 C 79.64 329.49 81.72 327.97 82.48 325.67 C 82.88 323.31 82.46 320.91 82.31 318.56 C 89.18 318.27 93.30 325.29 99.97 325.73 C 104.07 326.02 108.24 325.88 112.28 325.03 C 112.36 324.98 112.51 324.87 112.58 324.82 C 115.42 322.95 118.05 320.77 120.38 318.29 C 127.55 310.82 134.87 303.49 141.46 295.49 Z" />
</g>
<g id="#f2484dff">
<path fill="#f2484d" opacity="1.00" d=" M 234.61 206.97 C 240.37 204.87 246.01 202.28 251.89 200.64 C 255.27 203.50 257.43 208.26 262.38 208.64 C 263.56 210.11 264.73 211.58 265.90 213.07 C 263.67 214.64 261.56 216.43 259.09 217.60 C 256.66 217.33 254.30 216.68 251.91 216.27 C 245.17 215.47 240.12 210.44 234.61 206.97 Z" />
</g>
<g id="#f5474bff">
<path fill="#f5474b" opacity="1.00" d=" M 315.23 236.10 C 317.14 233.60 320.21 232.27 322.94 230.82 C 324.55 233.60 326.22 236.34 327.88 239.08 C 324.24 243.37 320.84 247.85 317.14 252.09 C 317.34 249.71 317.73 247.34 317.65 244.96 C 317.25 241.90 315.01 239.25 315.23 236.10 Z" />
</g>
<g id="#ffffffff">
</g>
<g id="#615c0cff">
<path fill="#615c0c" opacity="1.00" d=" M 150.22 248.28 C 149.65 246.83 149.94 244.47 151.94 244.54 C 151.78 245.94 151.17 247.23 150.22 248.28 Z" />
</g>
<g id="#00a15eff">
<path fill="#00a15e" opacity="1.00" d=" M 293.37 254.92 C 298.76 257.69 302.55 263.00 307.94 265.58 C 315.97 265.47 323.95 263.85 332.01 264.06 C 340.03 264.39 348.07 264.18 356.10 264.32 C 357.68 264.31 359.29 264.53 360.63 265.46 C 367.74 269.75 374.51 274.75 380.02 281.02 C 381.40 282.30 380.59 284.32 380.53 285.94 C 370.96 331.76 345.39 373.60 310.58 404.65 C 294.62 419.14 276.68 431.44 257.48 441.24 C 239.91 449.92 221.24 457.27 201.66 459.54 C 201.71 453.69 201.64 447.83 201.70 441.98 C 201.81 391.64 201.71 341.30 201.75 290.96 C 201.64 289.02 202.58 287.27 203.75 285.80 C 209.02 279.06 215.39 273.25 222.27 268.19 C 223.64 267.22 225.45 267.71 227.02 267.56 C 236.66 267.76 246.32 267.49 255.94 268.27 C 260.45 268.82 263.27 263.52 267.78 264.24 C 273.04 265.06 278.23 266.31 283.34 267.77 C 286.99 263.73 289.98 259.17 293.37 254.92 Z" />
</g>
<g id="#f9ef42ff">
<path fill="#f9ef42" opacity="1.00" d=" M 67.92 295.15 C 69.54 294.59 71.26 294.42 72.96 294.64 C 71.75 296.38 69.47 296.58 67.92 295.15 Z" />
</g>
<g id="#d9d345ff">
<path fill="#d9d345" opacity="1.00" d=" M 75.08 319.08 C 76.26 317.52 78.46 317.14 80.04 318.35 C 78.53 319.22 76.78 319.43 75.08 319.08 Z" />
</g>
<g id="#f54649ff">
<path fill="#f54649" opacity="1.00" d=" M 70.52 330.92 C 69.37 325.44 74.31 319.17 80.12 320.40 C 83.14 322.66 80.60 326.59 78.47 328.50 C 75.07 331.03 76.02 335.65 76.05 339.31 C 72.96 337.61 71.39 334.18 70.52 330.92 Z" />
</g>
<g id="#e8eb39ff">
<path fill="#e8eb39" opacity="1.00" d=" M 96.58 323.30 C 101.26 323.19 105.95 323.18 110.63 323.56 C 106.02 324.52 101.07 325.07 96.58 323.30 Z" />
</g>
<g id="#d9e136ff">
<path fill="#d9e136" opacity="1.00" d=" M 69.57 333.70 C 67.35 330.91 67.48 327.07 69.74 324.34 C 69.06 327.42 69.05 330.60 69.57 333.70 Z" />
</g>
<g id="#f5474aff">
<path fill="#f5474a" opacity="1.00" d=" M 148.11 330.26 C 148.28 328.13 148.70 326.04 149.44 324.05 C 157.40 325.33 164.25 332.81 163.23 341.10 C 161.86 343.20 160.88 339.85 160.17 338.88 C 157.96 333.88 151.52 334.05 148.11 330.26 Z" />
<path fill="#f5474a" opacity="1.00" d=" M 75.08 371.02 C 72.23 368.46 71.07 363.57 74.02 360.64 C 77.74 359.18 80.71 363.07 81.47 366.29 C 82.12 369.63 83.48 372.73 85.25 375.62 C 84.83 375.66 83.99 375.74 83.56 375.77 C 80.22 375.69 77.44 373.18 75.08 371.02 Z" />
</g>
<g id="#c5d23eff">
<path fill="#c5d23e" opacity="1.00" d=" M 93.58 333.49 C 96.49 332.45 99.55 332.82 102.33 334.05 C 102.17 334.39 101.85 335.08 101.70 335.42 C 99.28 333.83 96.42 333.43 93.58 333.49 Z" />
</g>
<g id="#b8b83eff">
<path fill="#b8b83e" opacity="1.00" d=" M 77.11 333.90 C 77.65 334.62 78.19 335.35 78.75 336.07 C 78.46 338.51 78.27 340.96 78.10 343.42 C 77.56 340.27 77.26 337.09 77.11 333.90 Z" />
</g>
<g id="#d1d535ff">
<path fill="#d1d535" opacity="1.00" d=" M 107.41 346.02 C 109.38 344.29 111.44 342.67 113.64 341.25 C 112.17 343.56 110.27 345.59 108.91 347.98 C 107.66 350.27 108.27 352.98 108.87 355.37 C 106.82 352.68 107.69 349.16 107.41 346.02 Z" />
</g>
<g id="#d0db44ff">
<path fill="#d0db44" opacity="1.00" d=" M 80.97 349.20 C 81.77 347.89 82.87 347.58 84.28 348.27 C 83.35 349.25 82.25 349.56 80.97 349.20 Z" />
</g>
<g id="#dadf3bff">
<path fill="#dadf3b" opacity="1.00" d=" M 124.97 350.23 C 127.59 352.95 127.69 357.52 125.07 360.27 C 126.10 357.00 126.14 353.47 124.97 350.23 Z" />
</g>
<g id="#f2484bff">
<path fill="#f2484b" opacity="1.00" d=" M 112.09 363.94 C 110.96 361.70 110.52 358.15 112.99 356.64 C 114.34 356.35 115.69 356.30 117.06 356.50 C 119.40 357.61 119.39 360.35 119.74 362.55 C 120.02 365.52 122.28 367.67 123.98 369.93 C 119.52 369.38 114.70 367.85 112.09 363.94 Z" />
</g>
<g id="#645e0bff">
<path fill="#645e0b" opacity="1.00" d=" M 188.57 357.97 C 188.87 358.25 189.46 358.82 189.76 359.11 C 189.22 361.47 188.68 363.84 188.09 366.20 C 188.31 363.46 188.41 360.71 188.57 357.97 Z" />
</g>
<g id="#ae5568ff">
<path fill="#ae5568" opacity="1.00" d=" M 120.88 359.39 C 121.48 359.62 122.68 360.07 123.27 360.30 C 122.84 362.78 120.06 361.48 120.88 359.39 Z" />
</g>
<g id="#944262ff">
<path fill="#944262" opacity="1.00" d=" M 83.56 375.77 C 83.99 375.74 84.83 375.66 85.25 375.62 C 87.43 377.12 82.43 378.05 83.56 375.77 Z" />
</g>
</svg>
