<svg xmlns="http://www.w3.org/2000/svg" xml:space="preserve" viewBox="17.65 0 1073.31 1304.63"><defs><clipPath id="a" clipPathUnits="userSpaceOnUse"><path d="M575.433 0H841.89v538.582H575.433Z"/></clipPath><clipPath id="b" clipPathUnits="userSpaceOnUse"><path d="M379.57 439.37h82.749v99.212H379.57Z"/></clipPath><clipPath id="c" clipPathUnits="userSpaceOnUse"><path d="M379.57 439.37h82.749v99.212H379.57Z"/></clipPath><clipPath id="d" clipPathUnits="userSpaceOnUse"><path d="M379.57 439.37h82.749v99.212H379.57Z"/></clipPath><clipPath id="e" clipPathUnits="userSpaceOnUse"><path d="M379.57 439.37h82.749v99.212H379.57Z"/></clipPath><clipPath id="f" clipPathUnits="userSpaceOnUse"><path d="M379.57 439.37h82.749v99.212H379.57Z"/></clipPath><clipPath id="g" clipPathUnits="userSpaceOnUse"><path d="M379.57 439.37h82.749v99.212H379.57Z"/></clipPath><clipPath id="h" clipPathUnits="userSpaceOnUse"><path d="M379.57 439.37h82.749v99.212H379.57Z"/></clipPath><clipPath id="i" clipPathUnits="userSpaceOnUse"><path d="M379.57 439.37h82.749v99.212H379.57Z"/></clipPath><clipPath id="j" clipPathUnits="userSpaceOnUse"><path d="M379.57 439.37h82.749v99.212H379.57Z"/></clipPath><clipPath id="k" clipPathUnits="userSpaceOnUse"><path d="M379.57 439.37h82.749v99.212H379.57Z"/></clipPath><clipPath id="l" clipPathUnits="userSpaceOnUse"><path d="M379.57 439.37h82.749v99.212H379.57Z"/></clipPath><clipPath id="m" clipPathUnits="userSpaceOnUse"><path d="M379.57 439.37h82.749v99.212H379.57Z"/></clipPath><clipPath id="n" clipPathUnits="userSpaceOnUse"><path d="M379.57 439.37h82.749v99.212H379.57Z"/></clipPath><clipPath id="o" clipPathUnits="userSpaceOnUse"><path d="M379.57 439.37h82.749v99.212H379.57Z"/></clipPath><clipPath id="p" clipPathUnits="userSpaceOnUse"><path d="M379.57 439.37h82.749v99.212H379.57Z"/></clipPath><clipPath id="q" clipPathUnits="userSpaceOnUse"><path d="M379.57 439.37h82.749v99.212H379.57Z"/></clipPath><clipPath id="r" clipPathUnits="userSpaceOnUse"><path d="M379.57 439.37h82.749v99.212H379.57Z"/></clipPath><clipPath id="s" clipPathUnits="userSpaceOnUse"><path d="M379.57 439.37h82.749v99.212H379.57Z"/></clipPath><clipPath id="t" clipPathUnits="userSpaceOnUse"><path d="M379.57 439.37h82.749v99.212H379.57Z"/></clipPath><clipPath id="u" clipPathUnits="userSpaceOnUse"><path d="M379.57 439.37h82.749v99.212H379.57Z"/></clipPath><clipPath id="v" clipPathUnits="userSpaceOnUse"><path d="M379.57 439.37h82.749v99.212H379.57Z"/></clipPath><clipPath id="w" clipPathUnits="userSpaceOnUse"><path d="M379.57 439.37h82.749v99.212H379.57Z"/></clipPath><clipPath id="x" clipPathUnits="userSpaceOnUse"><path d="M379.57 439.37h82.749v99.212H379.57Z"/></clipPath><clipPath id="y" clipPathUnits="userSpaceOnUse"><path d="M379.57 439.37h82.749v99.212H379.57Z"/></clipPath><clipPath id="z" clipPathUnits="userSpaceOnUse"><path d="M379.57 439.37h82.749v99.212H379.57Z"/></clipPath><clipPath id="A" clipPathUnits="userSpaceOnUse"><path d="M379.57 439.37h82.749v99.212H379.57Z"/></clipPath><clipPath id="B" clipPathUnits="userSpaceOnUse"><path d="M379.57 439.37h82.749v99.212H379.57Z"/></clipPath><clipPath id="C" clipPathUnits="userSpaceOnUse"><path d="M379.57 439.37h82.749v99.212H379.57Z"/></clipPath><clipPath id="D" clipPathUnits="userSpaceOnUse"><path d="M379.57 439.37h82.749v99.212H379.57Z"/></clipPath><clipPath id="E" clipPathUnits="userSpaceOnUse"><path d="M379.57 439.37h82.749v99.212H379.57Z"/></clipPath><clipPath id="F" clipPathUnits="userSpaceOnUse"><path d="M379.57 439.37h82.749v99.212H379.57Z"/></clipPath><clipPath id="G" clipPathUnits="userSpaceOnUse"><path d="M379.57 439.37h82.749v99.212H379.57Z"/></clipPath><clipPath id="H" clipPathUnits="userSpaceOnUse"><path d="M379.57 439.37h82.749v99.212H379.57Z"/></clipPath><clipPath id="I" clipPathUnits="userSpaceOnUse"><path d="M379.57 439.37h82.749v99.212H379.57Z"/></clipPath><clipPath id="J" clipPathUnits="userSpaceOnUse"><path d="M379.57 439.37h82.749v99.212H379.57Z"/></clipPath><clipPath id="K" clipPathUnits="userSpaceOnUse"><path d="M379.57 439.37h82.749v99.212H379.57Z"/></clipPath><clipPath id="L" clipPathUnits="userSpaceOnUse"><path d="M379.57 439.37h82.749v99.212H379.57Z"/></clipPath><clipPath id="M" clipPathUnits="userSpaceOnUse"><path d="M379.57 439.37h82.749v99.212H379.57Z"/></clipPath><clipPath id="N" clipPathUnits="userSpaceOnUse"><path d="M379.57 439.37h82.749v99.212H379.57Z"/></clipPath><clipPath id="O" clipPathUnits="userSpaceOnUse"><path d="M379.57 439.37h82.749v99.212H379.57Z"/></clipPath><clipPath id="P" clipPathUnits="userSpaceOnUse"><path d="M379.57 439.37h82.749v99.212H379.57Z"/></clipPath><clipPath id="Q" clipPathUnits="userSpaceOnUse"><path d="M379.57 439.37h82.749v99.212H379.57Z"/></clipPath><clipPath id="R" clipPathUnits="userSpaceOnUse"><path d="M379.57 439.37h82.749v99.212H379.57Z"/></clipPath><clipPath id="S" clipPathUnits="userSpaceOnUse"><path d="M379.57 439.37h82.749v99.212H379.57Z"/></clipPath><clipPath id="T" clipPathUnits="userSpaceOnUse"><path d="M379.57 439.37h82.749v99.212H379.57Z"/></clipPath><clipPath id="U" clipPathUnits="userSpaceOnUse"><path d="M379.57 439.37h82.749v99.212H379.57Z"/></clipPath><clipPath id="V" clipPathUnits="userSpaceOnUse"><path d="M379.57 439.37h82.749v99.212H379.57Z"/></clipPath><clipPath id="W" clipPathUnits="userSpaceOnUse"><path d="M379.57 439.37h82.749v99.212H379.57Z"/></clipPath><clipPath id="X" clipPathUnits="userSpaceOnUse"><path d="M379.57 439.37h82.749v99.212H379.57Z"/></clipPath><clipPath id="Y" clipPathUnits="userSpaceOnUse"><path d="M379.57 439.37h82.749v99.212H379.57Z"/></clipPath><clipPath id="Z" clipPathUnits="userSpaceOnUse"><path d="M379.57 439.37h82.749v99.212H379.57Z"/></clipPath><clipPath id="aa" clipPathUnits="userSpaceOnUse"><path d="M379.57 439.37h82.749v99.212H379.57Z"/></clipPath><clipPath id="ab" clipPathUnits="userSpaceOnUse"><path d="M379.57 439.37h82.749v99.212H379.57Z"/></clipPath><clipPath id="ac" clipPathUnits="userSpaceOnUse"><path d="M379.57 439.37h82.749v99.212H379.57Z"/></clipPath><clipPath id="ad" clipPathUnits="userSpaceOnUse"><path d="M379.57 439.37h82.749v99.212H379.57Z"/></clipPath><clipPath id="ae" clipPathUnits="userSpaceOnUse"><path d="M379.57 439.37h82.749v99.212H379.57Z"/></clipPath><clipPath id="af" clipPathUnits="userSpaceOnUse"><path d="M379.57 439.37h82.749v99.212H379.57Z"/></clipPath><clipPath id="ag" clipPathUnits="userSpaceOnUse"><path d="M379.57 439.37h82.749v99.212H379.57Z"/></clipPath><clipPath id="ah" clipPathUnits="userSpaceOnUse"><path d="M379.57 439.37h82.749v99.212H379.57Z"/></clipPath><clipPath id="ai" clipPathUnits="userSpaceOnUse"><path d="M379.57 439.37h82.749v99.212H379.57Z"/></clipPath><clipPath id="aj" clipPathUnits="userSpaceOnUse"><path d="M379.57 439.37h82.749v99.212H379.57Z"/></clipPath><clipPath id="ak" clipPathUnits="userSpaceOnUse"><path d="M379.57 439.37h82.749v99.212H379.57Z"/></clipPath><clipPath id="al" clipPathUnits="userSpaceOnUse"><path d="M379.57 439.37h82.749v99.212H379.57Z"/></clipPath><clipPath id="am" clipPathUnits="userSpaceOnUse"><path d="M379.57 439.37h82.749v99.212H379.57Z"/></clipPath><clipPath id="an" clipPathUnits="userSpaceOnUse"><path d="M379.57 439.37h82.749v99.212H379.57Z"/></clipPath><clipPath id="ao" clipPathUnits="userSpaceOnUse"><path d="M379.57 439.37h82.749v99.212H379.57Z"/></clipPath><clipPath id="ap" clipPathUnits="userSpaceOnUse"><path d="M379.57 439.37h82.749v99.212H379.57Z"/></clipPath><clipPath id="aq" clipPathUnits="userSpaceOnUse"><path d="M379.57 439.37h82.749v99.212H379.57Z"/></clipPath><clipPath id="ar" clipPathUnits="userSpaceOnUse"><path d="M379.57 439.37h82.749v99.212H379.57Z"/></clipPath><clipPath id="as" clipPathUnits="userSpaceOnUse"><path d="M379.57 439.37h82.749v99.212H379.57Z"/></clipPath><clipPath id="at" clipPathUnits="userSpaceOnUse"><path d="M379.57 439.37h82.749v99.212H379.57Z"/></clipPath><clipPath id="au" clipPathUnits="userSpaceOnUse"><path d="M379.57 439.37h82.749v99.212H379.57Z"/></clipPath><clipPath id="av" clipPathUnits="userSpaceOnUse"><path d="M379.57 439.37h82.749v99.212H379.57Z"/></clipPath><clipPath id="aw" clipPathUnits="userSpaceOnUse"><path d="M379.57 439.37h82.749v99.212H379.57Z"/></clipPath><clipPath id="ax" clipPathUnits="userSpaceOnUse"><path d="M379.57 439.37h82.749v99.212H379.57Z"/></clipPath><clipPath id="ay" clipPathUnits="userSpaceOnUse"><path d="M379.57 439.37h82.749v99.212H379.57Z"/></clipPath><clipPath id="az" clipPathUnits="userSpaceOnUse"><path d="M379.57 439.37h82.749v99.212H379.57Z"/></clipPath><clipPath id="aA" clipPathUnits="userSpaceOnUse"><path d="M379.57 439.37h82.749v99.212H379.57Z"/></clipPath><clipPath id="aB" clipPathUnits="userSpaceOnUse"><path d="M379.57 439.37h82.749v99.212H379.57Z"/></clipPath><clipPath id="aC" clipPathUnits="userSpaceOnUse"><path d="M379.57 439.37h82.749v99.212H379.57Z"/></clipPath><clipPath id="aD" clipPathUnits="userSpaceOnUse"><path d="M379.57 439.37h82.749v99.212H379.57Z"/></clipPath><clipPath id="aE" clipPathUnits="userSpaceOnUse"><path d="M379.57 439.37h82.749v99.212H379.57Z"/></clipPath><clipPath id="aF" clipPathUnits="userSpaceOnUse"><path d="M379.57 439.37h82.749v99.212H379.57Z"/></clipPath><clipPath id="aG" clipPathUnits="userSpaceOnUse"><path d="M379.57 439.37h82.749v99.212H379.57Z"/></clipPath><clipPath id="aH" clipPathUnits="userSpaceOnUse"><path d="M379.57 439.37h82.749v99.212H379.57Z"/></clipPath><clipPath id="aI" clipPathUnits="userSpaceOnUse"><path d="M379.57 439.37h82.749v99.212H379.57Z"/></clipPath><clipPath id="aJ" clipPathUnits="userSpaceOnUse"><path d="M379.57 439.37h82.749v99.212H379.57Z"/></clipPath><clipPath id="aK" clipPathUnits="userSpaceOnUse"><path d="M379.57 439.37h82.749v99.212H379.57Z"/></clipPath><clipPath id="aL" clipPathUnits="userSpaceOnUse"><path d="M379.57 439.37h82.749v99.212H379.57Z"/></clipPath><clipPath id="aM" clipPathUnits="userSpaceOnUse"><path d="M379.57 439.37h82.749v99.212H379.57Z"/></clipPath><clipPath id="aN" clipPathUnits="userSpaceOnUse"><path d="M379.57 439.37h82.749v99.212H379.57Z"/></clipPath><clipPath id="aO" clipPathUnits="userSpaceOnUse"><path d="M379.57 439.37h82.749v99.212H379.57Z"/></clipPath><clipPath id="aP" clipPathUnits="userSpaceOnUse"><path d="M379.57 439.37h82.749v99.212H379.57Z"/></clipPath><clipPath id="aQ" clipPathUnits="userSpaceOnUse"><path d="M379.57 439.37h82.749v99.212H379.57Z"/></clipPath><clipPath id="aR" clipPathUnits="userSpaceOnUse"><path d="M379.57 439.37h82.749v99.212H379.57Z"/></clipPath><clipPath id="aS" clipPathUnits="userSpaceOnUse"><path d="M379.57 439.37h82.749v99.212H379.57Z"/></clipPath><clipPath id="aT" clipPathUnits="userSpaceOnUse"><path d="M379.57 439.37h82.749v99.212H379.57Z"/></clipPath><clipPath id="aU" clipPathUnits="userSpaceOnUse"><path d="M379.57 439.37h82.749v99.212H379.57Z"/></clipPath><clipPath id="aV" clipPathUnits="userSpaceOnUse"><path d="M379.57 439.37h82.749v99.212H379.57Z"/></clipPath><clipPath id="aW" clipPathUnits="userSpaceOnUse"><path d="M379.57 439.37h82.749v99.212H379.57Z"/></clipPath><clipPath id="aX" clipPathUnits="userSpaceOnUse"><path d="M379.57 439.37h82.749v99.212H379.57Z"/></clipPath><clipPath id="aY" clipPathUnits="userSpaceOnUse"><path d="M379.57 439.37h82.749v99.212H379.57Z"/></clipPath><clipPath id="aZ" clipPathUnits="userSpaceOnUse"><path d="M379.57 439.37h82.749v99.212H379.57Z"/></clipPath><clipPath id="ba" clipPathUnits="userSpaceOnUse"><path d="M379.57 439.37h82.749v99.212H379.57Z"/></clipPath><clipPath id="bb" clipPathUnits="userSpaceOnUse"><path d="M379.57 439.37h82.749v99.212H379.57Z"/></clipPath><clipPath id="bc" clipPathUnits="userSpaceOnUse"><path d="M379.57 439.37h82.749v99.212H379.57Z"/></clipPath><clipPath id="bd" clipPathUnits="userSpaceOnUse"><path d="M379.57 439.37h82.749v99.212H379.57Z"/></clipPath><clipPath id="be" clipPathUnits="userSpaceOnUse"><path d="M379.57 439.37h82.749v99.212H379.57Z"/></clipPath><clipPath id="bf" clipPathUnits="userSpaceOnUse"><path d="M379.57 439.37h82.749v99.212H379.57Z"/></clipPath><clipPath id="bg" clipPathUnits="userSpaceOnUse"><path d="M379.57 439.37h82.749v99.212H379.57Z"/></clipPath><clipPath id="bh" clipPathUnits="userSpaceOnUse"><path d="M379.57 439.37h82.749v99.212H379.57Z"/></clipPath><clipPath id="bi" clipPathUnits="userSpaceOnUse"><path d="M379.57 439.37h82.749v99.212H379.57Z"/></clipPath><clipPath id="bj" clipPathUnits="userSpaceOnUse"><path d="M379.57 439.37h82.749v99.212H379.57Z"/></clipPath><clipPath id="bk" clipPathUnits="userSpaceOnUse"><path d="M379.57 439.37h82.749v99.212H379.57Z"/></clipPath><clipPath id="bl" clipPathUnits="userSpaceOnUse"><path d="M379.57 439.37h82.749v99.212H379.57Z"/></clipPath><clipPath id="bm" clipPathUnits="userSpaceOnUse"><path d="M379.57 439.37h82.749v99.212H379.57Z"/></clipPath><clipPath id="bn" clipPathUnits="userSpaceOnUse"><path d="M379.57 439.37h82.749v99.212H379.57Z"/></clipPath><clipPath id="bo" clipPathUnits="userSpaceOnUse"><path d="M379.57 439.37h82.749v99.212H379.57Z"/></clipPath><clipPath id="bp" clipPathUnits="userSpaceOnUse"><path d="M379.57 439.37h82.749v99.212H379.57Z"/></clipPath><clipPath id="bq" clipPathUnits="userSpaceOnUse"><path d="M379.57 439.37h82.749v99.212H379.57Z"/></clipPath><clipPath id="br" clipPathUnits="userSpaceOnUse"><path d="M379.57 439.37h82.749v99.212H379.57Z"/></clipPath><clipPath id="bs" clipPathUnits="userSpaceOnUse"><path d="M379.57 439.37h82.749v99.212H379.57Z"/></clipPath><clipPath id="bt" clipPathUnits="userSpaceOnUse"><path d="M379.57 439.37h82.749v99.212H379.57Z"/></clipPath><clipPath id="bu" clipPathUnits="userSpaceOnUse"><path d="M379.57 439.37h82.749v99.212H379.57Z"/></clipPath><clipPath id="bv" clipPathUnits="userSpaceOnUse"><path d="M379.57 439.37h82.749v99.212H379.57Z"/></clipPath><clipPath id="bw" clipPathUnits="userSpaceOnUse"><path d="M379.57 439.37h82.749v99.212H379.57Z"/></clipPath><clipPath id="bx" clipPathUnits="userSpaceOnUse"><path d="M379.57 439.37h82.749v99.212H379.57Z"/></clipPath><clipPath id="by" clipPathUnits="userSpaceOnUse"><path d="M379.57 439.37h82.749v99.212H379.57Z"/></clipPath><clipPath id="bz" clipPathUnits="userSpaceOnUse"><path d="M379.57 439.37h82.749v99.212H379.57Z"/></clipPath><clipPath id="bA" clipPathUnits="userSpaceOnUse"><path d="M379.57 439.37h82.749v99.212H379.57Z"/></clipPath><clipPath id="bB" clipPathUnits="userSpaceOnUse"><path d="M379.57 439.37h82.749v99.212H379.57Z"/></clipPath><clipPath id="bC" clipPathUnits="userSpaceOnUse"><path d="M379.57 439.37h82.749v99.212H379.57Z"/></clipPath><clipPath id="bD" clipPathUnits="userSpaceOnUse"><path d="M379.57 439.37h82.749v99.212H379.57Z"/></clipPath><clipPath id="bE" clipPathUnits="userSpaceOnUse"><path d="M379.57 439.37h82.749v99.212H379.57Z"/></clipPath><clipPath id="bF" clipPathUnits="userSpaceOnUse"><path d="M379.57 439.37h82.749v99.212H379.57Z"/></clipPath><clipPath id="bG" clipPathUnits="userSpaceOnUse"><path d="M379.57 439.37h82.749v99.212H379.57Z"/></clipPath><clipPath id="bH" clipPathUnits="userSpaceOnUse"><path d="M379.57 439.37h82.749v99.212H379.57Z"/></clipPath><clipPath id="bI" clipPathUnits="userSpaceOnUse"><path d="M379.57 439.37h82.749v99.212H379.57Z"/></clipPath><clipPath id="bJ" clipPathUnits="userSpaceOnUse"><path d="M379.57 439.37h82.749v99.212H379.57Z"/></clipPath><clipPath id="bK" clipPathUnits="userSpaceOnUse"><path d="M379.57 439.37h82.749v99.212H379.57Z"/></clipPath><clipPath id="bL" clipPathUnits="userSpaceOnUse"><path d="M379.57 439.37h82.749v99.212H379.57Z"/></clipPath><clipPath id="bM" clipPathUnits="userSpaceOnUse"><path d="M379.57 439.37h82.749v99.212H379.57Z"/></clipPath><clipPath id="bN" clipPathUnits="userSpaceOnUse"><path d="M379.57 439.37h82.749v99.212H379.57Z"/></clipPath><clipPath id="bO" clipPathUnits="userSpaceOnUse"><path d="M379.57 439.37h82.749v99.212H379.57Z"/></clipPath><clipPath id="bP" clipPathUnits="userSpaceOnUse"><path d="M379.57 439.37h82.749v99.212H379.57Z"/></clipPath><clipPath id="bQ" clipPathUnits="userSpaceOnUse"><path d="M379.57 439.37h82.749v99.212H379.57Z"/></clipPath><clipPath id="bR" clipPathUnits="userSpaceOnUse"><path d="M379.57 439.37h82.749v99.212H379.57Z"/></clipPath><clipPath id="bS" clipPathUnits="userSpaceOnUse"><path d="M379.57 439.37h82.749v99.212H379.57Z"/></clipPath><clipPath id="bT" clipPathUnits="userSpaceOnUse"><path d="M379.57 439.37h82.749v99.212H379.57Z"/></clipPath><clipPath id="bU" clipPathUnits="userSpaceOnUse"><path d="M379.57 439.37h82.749v99.212H379.57Z"/></clipPath><clipPath id="bV" clipPathUnits="userSpaceOnUse"><path d="M379.57 439.37h82.749v99.212H379.57Z"/></clipPath><clipPath id="bW" clipPathUnits="userSpaceOnUse"><path d="M379.57 439.37h82.749v99.212H379.57Z"/></clipPath><clipPath id="bX" clipPathUnits="userSpaceOnUse"><path d="M379.57 439.37h82.749v99.212H379.57Z"/></clipPath><clipPath id="bY" clipPathUnits="userSpaceOnUse"><path d="M379.57 439.37h82.749v99.212H379.57Z"/></clipPath><clipPath id="bZ" clipPathUnits="userSpaceOnUse"><path d="M379.57 439.37h82.749v99.212H379.57Z"/></clipPath><clipPath id="ca" clipPathUnits="userSpaceOnUse"><path d="M379.57 439.37h82.749v99.212H379.57Z"/></clipPath><clipPath id="cb" clipPathUnits="userSpaceOnUse"><path d="M379.57 439.37h82.749v99.212H379.57Z"/></clipPath><clipPath id="cc" clipPathUnits="userSpaceOnUse"><path d="M379.57 439.37h82.749v99.212H379.57Z"/></clipPath><clipPath id="cd" clipPathUnits="userSpaceOnUse"><path d="M379.57 439.37h82.749v99.212H379.57Z"/></clipPath><clipPath id="ce" clipPathUnits="userSpaceOnUse"><path d="M379.57 439.37h82.749v99.212H379.57Z"/></clipPath><clipPath id="cf" clipPathUnits="userSpaceOnUse"><path d="M379.57 439.37h82.749v99.212H379.57Z"/></clipPath><clipPath id="cg" clipPathUnits="userSpaceOnUse"><path d="M379.57 439.37h82.749v99.212H379.57Z"/></clipPath><clipPath id="ch" clipPathUnits="userSpaceOnUse"><path d="M379.57 439.37h82.749v99.212H379.57Z"/></clipPath><clipPath id="ci" clipPathUnits="userSpaceOnUse"><path d="M379.57 439.37h82.749v99.212H379.57Z"/></clipPath><clipPath id="cj" clipPathUnits="userSpaceOnUse"><path d="M379.57 439.37h82.749v99.212H379.57Z"/></clipPath><clipPath id="ck" clipPathUnits="userSpaceOnUse"><path d="M294.803 0h252.284v334.489H294.803Z"/></clipPath><clipPath id="cl" clipPathUnits="userSpaceOnUse"><path d="M73.701 405.355h119.055V524.41H73.701Z"/></clipPath></defs><g clip-path="url(#a)" transform="matrix(1.33333 0 0 -1.33333 0 1587.4)"/><g clip-path="url(#b)" transform="matrix(13.05065 0 0 -13.05065 -4939.294 7042.096)"><path style="fill:#fcd213;fill-opacity:1;fill-rule:evenodd;stroke:none" d="M0 0h82.2v-50.832c-.265-11.987-3.954-21.859-11.668-31.089-8.479-9.3-17.848-14.062-29.46-16.735-11.89 2.757-21.204 7.741-29.433 16.79C3.968-72.662.264-62.819 0-50.86Z" transform="translate(379.845 538.308)"/></g><g clip-path="url(#c)" transform="matrix(13.05065 0 0 -13.05065 -4939.294 7042.096)"><path style="fill:none;stroke:#231f20;stroke-width:.54900002;stroke-linecap:butt;stroke-linejoin:miter;stroke-miterlimit:4;stroke-dasharray:none;stroke-opacity:1" d="M0 0h82.2v-50.832c-.265-11.987-3.954-21.859-11.668-31.089-8.479-9.3-17.848-14.062-29.46-16.735-11.89 2.757-21.204 7.741-29.433 16.79C3.968-72.662.264-62.819 0-50.86Z" transform="translate(379.845 538.308)"/></g><g clip-path="url(#d)" transform="matrix(13.05065 0 0 -13.05065 -4939.294 7042.096)"><path style="fill:#fff;fill-opacity:1;fill-rule:evenodd;stroke:none" d="M0 0h78.97v-49.203c-.265-11.597-3.815-21.134-11.278-30.059-7.852-8.618-16.888-13.519-28.235-16.136-11.361 2.631-20.369 7.56-28.207 16.192C3.829-70.31.265-60.8 0-49.245Z" transform="translate(381.46 536.679)"/></g><g clip-path="url(#e)" transform="matrix(13.05065 0 0 -13.05065 -4939.294 7042.096)"><path style="fill:none;stroke:#231f20;stroke-width:.54900002;stroke-linecap:butt;stroke-linejoin:miter;stroke-miterlimit:4;stroke-dasharray:none;stroke-opacity:1" d="M0 0h78.97v-49.203c-.265-11.597-3.815-21.134-11.278-30.059-7.852-8.618-16.888-13.519-28.235-16.136-11.361 2.631-20.369 7.56-28.207 16.192C3.829-70.31.265-60.8 0-49.245Z" transform="translate(381.46 536.679)"/></g><g clip-path="url(#f)" transform="matrix(13.05065 0 0 -13.05065 -4939.294 7042.096)"><path style="fill:#009e59;fill-opacity:1;fill-rule:evenodd;stroke:none" d="M0 0h36.77v-47.309c0-8.911-2.59-17.042-7.045-23.878H-.014Z" transform="translate(421.78 534.785)"/></g><g clip-path="url(#g)" transform="matrix(13.05065 0 0 -13.05065 -4939.294 7042.096)"><path style="fill:#231f20;fill-opacity:1;fill-rule:evenodd;stroke:none" d="M0 0c-6.585-10.108-17.264-17.403-29.739-20.23V0Z" transform="translate(451.505 463.599)"/></g><g clip-path="url(#h)" transform="matrix(13.05065 0 0 -13.05065 -4939.294 7042.096)"><path style="fill:none;stroke:#231f20;stroke-width:.54699999;stroke-linecap:butt;stroke-linejoin:miter;stroke-miterlimit:4;stroke-dasharray:none;stroke-opacity:1" d="M0 0c-6.585-10.108-17.264-17.403-29.739-20.23V0Z" transform="translate(451.505 463.599)"/></g><g clip-path="url(#i)" transform="matrix(13.05065 0 0 -13.05065 -4939.294 7042.096)"><path style="fill:#1a68bb;fill-opacity:1;fill-rule:evenodd;stroke:none" d="M0 0h36.77v-91.43C15.844-86.669 0-69.251 0-47.337Z" transform="translate(383.34 534.785)"/></g><g clip-path="url(#j)" transform="matrix(13.05065 0 0 -13.05065 -4939.294 7042.096)"><path style="fill:#fff200;fill-opacity:1;fill-rule:evenodd;stroke:none" d="M0 0h1.671l-.014-91.416c-.292-.07-.571-.126-.849-.195-.265.055-.53.125-.808.181z" transform="translate(420.11 534.785)"/></g><g clip-path="url(#k)" transform="matrix(13.05065 0 0 -13.05065 -4939.294 7042.096)"><path style="fill:none;stroke:#231f20;stroke-width:.54699999;stroke-linecap:butt;stroke-linejoin:miter;stroke-miterlimit:4;stroke-dasharray:none;stroke-opacity:1" d="M0 0h1.671l-.014-91.416c-.292-.07-.571-.126-.849-.195-.265.055-.53.125-.808.181z" transform="translate(420.11 534.785)"/></g><g clip-path="url(#l)" transform="matrix(13.05065 0 0 -13.05065 -4939.294 7042.096)"><path style="fill:none;stroke:#231f20;stroke-width:1.09800005;stroke-linecap:butt;stroke-linejoin:miter;stroke-miterlimit:4;stroke-dasharray:none;stroke-opacity:1" d="M0 0h75.21v-47.309c0-22.36-16.275-39.819-37.633-44.302C16.248-87.114 0-69.53 0-47.337Z" transform="translate(383.34 534.785)"/></g><g clip-path="url(#m)" transform="matrix(13.05065 0 0 -13.05065 -4939.294 7042.096)"><path style="fill:#fff;fill-opacity:1;fill-rule:evenodd;stroke:none" d="M0 0c.07.626-2.019 6.934.668 7.852C3.369 6.934 1.267.626 1.351 0a2.2 2.2 0 0 1-.669.097C.446.097.209.07 0 0" transform="translate(403.485 471.284)"/></g><g clip-path="url(#n)" transform="matrix(13.05065 0 0 -13.05065 -4939.294 7042.096)"><path style="fill:none;stroke:#231f20;stroke-width:.27399999;stroke-linecap:round;stroke-linejoin:round;stroke-miterlimit:4;stroke-dasharray:none;stroke-opacity:1" d="M0 0c.07.626-2.019 6.934.668 7.852C3.369 6.934 1.267.626 1.351 0a2.2 2.2 0 0 1-.669.097C.446.097.209.07 0 0" transform="translate(403.485 471.284)"/></g><g clip-path="url(#o)" transform="matrix(13.05065 0 0 -13.05065 -4939.294 7042.096)"><path style="fill:#231f20;fill-opacity:1;fill-rule:evenodd;stroke:none" d="m0 0 .042-2.214.042-2.074H-.07l.042 2.074z" transform="translate(404.154 475.67)"/></g><g clip-path="url(#p)" transform="matrix(13.05065 0 0 -13.05065 -4939.294 7042.096)"><path style="fill:none;stroke:#231f20;stroke-width:.123;stroke-linecap:round;stroke-linejoin:round;stroke-miterlimit:4;stroke-dasharray:none;stroke-opacity:1" d="m0 0 .042-2.214.042-2.074H-.07l.042 2.074z" transform="translate(404.154 475.67)"/></g><g clip-path="url(#q)" transform="matrix(13.05065 0 0 -13.05065 -4939.294 7042.096)"><path style="fill:#fff;fill-opacity:1;fill-rule:evenodd;stroke:none" d="M0 0c-.265.557-5.444 4.734-3.676 6.961C-.919 7.643.738 1.211 1.142.724A2.1 2.1 0 0 1 .515.446 2.7 2.7 0 0 1 0 0" transform="translate(402.344 470.56)"/></g><g clip-path="url(#r)" transform="matrix(13.05065 0 0 -13.05065 -4939.294 7042.096)"><path style="fill:none;stroke:#231f20;stroke-width:.27399999;stroke-linecap:round;stroke-linejoin:round;stroke-miterlimit:4;stroke-dasharray:none;stroke-opacity:1" d="M0 0c-.265.557-5.444 4.734-3.676 6.961C-.919 7.643.738 1.211 1.142.724A2.1 2.1 0 0 1 .515.446 2.7 2.7 0 0 1 0 0" transform="translate(402.344 470.56)"/></g><g clip-path="url(#s)" transform="matrix(13.05065 0 0 -13.05065 -4939.294 7042.096)"><path style="fill:#231f20;fill-opacity:1;fill-rule:evenodd;stroke:none" d="m0 0 1.225-1.852 1.142-1.712a.2.2 0 0 0-.056-.042c-.014-.014-.042-.028-.056-.042L1.156-1.893z" transform="translate(400.548 474.611)"/></g><g clip-path="url(#t)" transform="matrix(13.05065 0 0 -13.05065 -4939.294 7042.096)"><path style="fill:none;stroke:#231f20;stroke-width:.123;stroke-linecap:round;stroke-linejoin:round;stroke-miterlimit:4;stroke-dasharray:none;stroke-opacity:1" d="m0 0 1.225-1.852 1.142-1.712a.2.2 0 0 0-.056-.042c-.014-.014-.042-.028-.056-.042L1.156-1.893z" transform="translate(400.548 474.611)"/></g><g clip-path="url(#u)" transform="matrix(13.05065 0 0 -13.05065 -4939.294 7042.096)"><path style="fill:#fff;fill-opacity:1;fill-rule:evenodd;stroke:none" d="M0 0c-.529.334-7.128 1.044-6.85 3.884C-4.901 5.945-.028 1.42.571 1.239A2.2 2.2 0 0 1 .195.668 3 3 0 0 1 0 0" transform="translate(401.773 469.321)"/></g><g clip-path="url(#v)" transform="matrix(13.05065 0 0 -13.05065 -4939.294 7042.096)"><path style="fill:none;stroke:#231f20;stroke-width:.27399999;stroke-linecap:round;stroke-linejoin:round;stroke-miterlimit:4;stroke-dasharray:none;stroke-opacity:1" d="M0 0c-.529.334-7.128 1.044-6.85 3.884C-4.901 5.945-.028 1.42.571 1.239A2.2 2.2 0 0 1 .195.668 3 3 0 0 1 0 0" transform="translate(401.773 469.321)"/></g><g clip-path="url(#w)" transform="matrix(13.05065 0 0 -13.05065 -4939.294 7042.096)"><path style="fill:#231f20;fill-opacity:1;fill-rule:evenodd;stroke:none" d="m0 0 2.019-.877 1.893-.835a.1.1 0 0 0-.028-.056.1.1 0 0 0-.027-.07l-1.866.891z" transform="translate(398.083 471.757)"/></g><g clip-path="url(#x)" transform="matrix(13.05065 0 0 -13.05065 -4939.294 7042.096)"><path style="fill:none;stroke:#231f20;stroke-width:.123;stroke-linecap:round;stroke-linejoin:round;stroke-miterlimit:4;stroke-dasharray:none;stroke-opacity:1" d="m0 0 2.019-.877 1.893-.835a.1.1 0 0 0-.028-.056.1.1 0 0 0-.027-.07l-1.866.891z" transform="translate(398.083 471.757)"/></g><g clip-path="url(#y)" transform="matrix(13.05065 0 0 -13.05065 -4939.294 7042.096)"><path style="fill:#fff;fill-opacity:1;fill-rule:evenodd;stroke:none" d="M0 0c-.613-.014-6.571-2.98-7.866-.446.529 2.799 7.072 1.615 7.671 1.783a2.8 2.8 0 0 1 0-.683C-.153.432-.097.209 0 0" transform="translate(401.968 467.984)"/></g><g clip-path="url(#z)" transform="matrix(13.05065 0 0 -13.05065 -4939.294 7042.096)"><path style="fill:none;stroke:#231f20;stroke-width:.27399999;stroke-linecap:round;stroke-linejoin:round;stroke-miterlimit:4;stroke-dasharray:none;stroke-opacity:1" d="M0 0c-.613-.014-6.571-2.98-7.866-.446.529 2.799 7.072 1.615 7.671 1.783a2.8 2.8 0 0 1 0-.683C-.153.432-.097.209 0 0" transform="translate(401.968 467.984)"/></g><g clip-path="url(#A)" transform="matrix(13.05065 0 0 -13.05065 -4939.294 7042.096)"><path style="fill:#231f20;fill-opacity:1;fill-rule:evenodd;stroke:none" d="m0 0 2.186.362 2.046.32v-.07c.014-.014.014-.041.014-.069L2.2.278Z" transform="translate(397.54 468.026)"/></g><g clip-path="url(#B)" transform="matrix(13.05065 0 0 -13.05065 -4939.294 7042.096)"><path style="fill:none;stroke:#231f20;stroke-width:.123;stroke-linecap:round;stroke-linejoin:round;stroke-miterlimit:4;stroke-dasharray:none;stroke-opacity:1" d="m0 0 2.186.362 2.046.32v-.07c.014-.014.014-.041.014-.069L2.2.278Z" transform="translate(397.54 468.026)"/></g><g clip-path="url(#C)" transform="matrix(13.05065 0 0 -13.05065 -4939.294 7042.096)"><path style="fill:#fff;fill-opacity:1;fill-rule:evenodd;stroke:none" d="M0 0c-.515-.334-3.912-6.056-6.377-4.623C-7.449-1.977-1.295.571-.891 1.03A2.3 2.3 0 0 1-.515.459C-.362.278-.195.125 0 0" transform="translate(402.859 466.954)"/></g><g clip-path="url(#D)" transform="matrix(13.05065 0 0 -13.05065 -4939.294 7042.096)"><path style="fill:none;stroke:#231f20;stroke-width:.27399999;stroke-linecap:round;stroke-linejoin:round;stroke-miterlimit:4;stroke-dasharray:none;stroke-opacity:1" d="M0 0c-.515-.334-3.912-6.056-6.377-4.623C-7.449-1.977-1.295.571-.891 1.03A2.3 2.3 0 0 1-.515.459C-.362.278-.195.125 0 0" transform="translate(402.859 466.954)"/></g><g clip-path="url(#E)" transform="matrix(13.05065 0 0 -13.05065 -4939.294 7042.096)"><path style="fill:#231f20;fill-opacity:1;fill-rule:evenodd;stroke:none" d="m0 0 1.657 1.49 1.531 1.378a.1.1 0 0 1 .056-.056.2.2 0 0 1 .042-.055L1.699 1.42Z" transform="translate(399.1 464.601)"/></g><g clip-path="url(#F)" transform="matrix(13.05065 0 0 -13.05065 -4939.294 7042.096)"><path style="fill:none;stroke:#231f20;stroke-width:.123;stroke-linecap:round;stroke-linejoin:round;stroke-miterlimit:4;stroke-dasharray:none;stroke-opacity:1" d="m0 0 1.657 1.49 1.531 1.378a.1.1 0 0 1 .056-.056.2.2 0 0 1 .042-.055L1.699 1.42Z" transform="translate(399.1 464.601)"/></g><g clip-path="url(#G)" transform="matrix(13.05065 0 0 -13.05065 -4939.294 7042.096)"><path style="fill:#fff;fill-opacity:1;fill-rule:evenodd;stroke:none" d="M0 0c-.251-.571-.014-7.212-2.854-7.337-2.325 1.643 1.462 7.1 1.559 7.713.195-.112.39-.209.613-.279A2.4 2.4 0 0 1 0 0" transform="translate(404.154 466.578)"/></g><g clip-path="url(#H)" transform="matrix(13.05065 0 0 -13.05065 -4939.294 7042.096)"><path style="fill:none;stroke:#231f20;stroke-width:.27399999;stroke-linecap:round;stroke-linejoin:round;stroke-miterlimit:4;stroke-dasharray:none;stroke-opacity:1" d="M0 0c-.251-.571-.014-7.212-2.854-7.337-2.325 1.643 1.462 7.1 1.559 7.713.195-.112.39-.209.613-.279A2.4 2.4 0 0 1 0 0" transform="translate(404.154 466.578)"/></g><g clip-path="url(#I)" transform="matrix(13.05065 0 0 -13.05065 -4939.294 7042.096)"><path style="fill:#231f20;fill-opacity:1;fill-rule:evenodd;stroke:none" d="m0 0 .585 2.13.557 2.005a.1.1 0 0 1 .055-.028c.028-.014.056-.014.084-.014L.668 2.116Z" transform="translate(402.274 462.568)"/></g><g clip-path="url(#J)" transform="matrix(13.05065 0 0 -13.05065 -4939.294 7042.096)"><path style="fill:none;stroke:#231f20;stroke-width:.123;stroke-linecap:round;stroke-linejoin:round;stroke-miterlimit:4;stroke-dasharray:none;stroke-opacity:1" d="m0 0 .585 2.13.557 2.005a.1.1 0 0 1 .055-.028c.028-.014.056-.014.084-.014L.668 2.116Z" transform="translate(402.274 462.568)"/></g><g clip-path="url(#K)" transform="matrix(13.05065 0 0 -13.05065 -4939.294 7042.096)"><path style="fill:#fff;fill-opacity:1;fill-rule:evenodd;stroke:none" d="M0 0c.097-.613 3.884-6.07 1.559-7.713-2.84.125-2.617 6.766-2.854 7.337.209 0 .446.028.668.098.223.069.432.166.627.278" transform="translate(405.462 466.954)"/></g><g clip-path="url(#L)" transform="matrix(13.05065 0 0 -13.05065 -4939.294 7042.096)"><path style="fill:none;stroke:#231f20;stroke-width:.27399999;stroke-linecap:round;stroke-linejoin:round;stroke-miterlimit:4;stroke-dasharray:none;stroke-opacity:1" d="M0 0c.097-.613 3.884-6.07 1.559-7.713-2.84.125-2.617 6.766-2.854 7.337.209 0 .446.028.668.098.223.069.432.166.627.278" transform="translate(405.462 466.954)"/></g><g clip-path="url(#M)" transform="matrix(13.05065 0 0 -13.05065 -4939.294 7042.096)"><path style="fill:#231f20;fill-opacity:1;fill-rule:evenodd;stroke:none" d="m0 0-.668 2.116-.613 1.963c.028.014.042.014.07.028.028 0 .041.014.069.014l.543-1.991Z" transform="translate(406.047 462.568)"/></g><g clip-path="url(#N)" transform="matrix(13.05065 0 0 -13.05065 -4939.294 7042.096)"><path style="fill:none;stroke:#231f20;stroke-width:.123;stroke-linecap:round;stroke-linejoin:round;stroke-miterlimit:4;stroke-dasharray:none;stroke-opacity:1" d="m0 0-.668 2.116-.613 1.963c.028.014.042.014.07.028.028 0 .041.014.069.014l.543-1.991Z" transform="translate(406.047 462.568)"/></g><g clip-path="url(#O)" transform="matrix(13.05065 0 0 -13.05065 -4939.294 7042.096)"><path style="fill:#fff;fill-opacity:1;fill-rule:evenodd;stroke:none" d="M0 0c.418-.459 6.558-3.021 5.499-5.653C3.035-7.087-.362-1.365-.877-1.03c.181.125.362.278.515.445.153.181.278.376.362.585" transform="translate(406.34 467.984)"/></g><g clip-path="url(#P)" transform="matrix(13.05065 0 0 -13.05065 -4939.294 7042.096)"><path style="fill:none;stroke:#231f20;stroke-width:.27399999;stroke-linecap:round;stroke-linejoin:round;stroke-miterlimit:4;stroke-dasharray:none;stroke-opacity:1" d="M0 0c.418-.459 6.558-3.021 5.499-5.653C3.035-7.087-.362-1.365-.877-1.03c.181.125.362.278.515.445.153.181.278.376.362.585" transform="translate(406.34 467.984)"/></g><g clip-path="url(#Q)" transform="matrix(13.05065 0 0 -13.05065 -4939.294 7042.096)"><path style="fill:#231f20;fill-opacity:1;fill-rule:evenodd;stroke:none" d="m0 0-1.699 1.42-1.587 1.337c.014.014.042.028.056.041.014.028.028.042.042.07l1.545-1.392z" transform="translate(409.208 464.601)"/></g><g clip-path="url(#R)" transform="matrix(13.05065 0 0 -13.05065 -4939.294 7042.096)"><path style="fill:none;stroke:#231f20;stroke-width:.123;stroke-linecap:round;stroke-linejoin:round;stroke-miterlimit:4;stroke-dasharray:none;stroke-opacity:1" d="m0 0-1.699 1.42-1.587 1.337c.014.014.042.028.056.041.014.028.028.042.042.07l1.545-1.392z" transform="translate(409.208 464.601)"/></g><g clip-path="url(#S)" transform="matrix(13.05065 0 0 -13.05065 -4939.294 7042.096)"><path style="fill:#fff;fill-opacity:1;fill-rule:evenodd;stroke:none" d="M0 0c.599-.167 7.142 1.016 7.671-1.782-1.294-2.534-7.239.431-7.852.445.084.209.153.418.181.655.042.236.042.459 0 .682" transform="translate(406.534 469.321)"/></g><g clip-path="url(#T)" transform="matrix(13.05065 0 0 -13.05065 -4939.294 7042.096)"><path style="fill:none;stroke:#231f20;stroke-width:.27399999;stroke-linecap:round;stroke-linejoin:round;stroke-miterlimit:4;stroke-dasharray:none;stroke-opacity:1" d="M0 0c.599-.167 7.142 1.016 7.671-1.782-1.294-2.534-7.239.431-7.852.445.084.209.153.418.181.655.042.236.042.459 0 .682" transform="translate(406.534 469.321)"/></g><g clip-path="url(#U)" transform="matrix(13.05065 0 0 -13.05065 -4939.294 7042.096)"><path style="fill:#231f20;fill-opacity:1;fill-rule:evenodd;stroke:none" d="m0 0-2.2.278-2.046.265v.069c.014.028.014.042.014.07l2.046-.32z" transform="translate(410.78 468.026)"/></g><g clip-path="url(#V)" transform="matrix(13.05065 0 0 -13.05065 -4939.294 7042.096)"><path style="fill:none;stroke:#231f20;stroke-width:.123;stroke-linecap:round;stroke-linejoin:round;stroke-miterlimit:4;stroke-dasharray:none;stroke-opacity:1" d="m0 0-2.2.278-2.046.265v.069c.014.028.014.042.014.07l2.046-.32z" transform="translate(410.78 468.026)"/></g><g clip-path="url(#W)" transform="matrix(13.05065 0 0 -13.05065 -4939.294 7042.096)"><path style="fill:#fff;fill-opacity:1;fill-rule:evenodd;stroke:none" d="M0 0c.599.181 5.458 4.706 7.421 2.645.278-2.84-6.335-3.55-6.864-3.884a2.2 2.2 0 0 1-.181.654A2.4 2.4 0 0 1 0 0" transform="translate(405.978 470.56)"/></g><g clip-path="url(#X)" transform="matrix(13.05065 0 0 -13.05065 -4939.294 7042.096)"><path style="fill:none;stroke:#231f20;stroke-width:.27399999;stroke-linecap:round;stroke-linejoin:round;stroke-miterlimit:4;stroke-dasharray:none;stroke-opacity:1" d="M0 0c.599.181 5.458 4.706 7.421 2.645.278-2.84-6.335-3.55-6.864-3.884a2.2 2.2 0 0 1-.181.654A2.4 2.4 0 0 1 0 0" transform="translate(405.978 470.56)"/></g><g clip-path="url(#Y)" transform="matrix(13.05065 0 0 -13.05065 -4939.294 7042.096)"><path style="fill:#231f20;fill-opacity:1;fill-rule:evenodd;stroke:none" d="m0 0-1.991-.947-1.866-.891a.1.1 0 0 0-.027.056.3.3 0 0 1-.042.07l1.893.835z" transform="translate(410.238 471.757)"/></g><g clip-path="url(#Z)" transform="matrix(13.05065 0 0 -13.05065 -4939.294 7042.096)"><path style="fill:none;stroke:#231f20;stroke-width:.123;stroke-linecap:round;stroke-linejoin:round;stroke-miterlimit:4;stroke-dasharray:none;stroke-opacity:1" d="m0 0-1.991-.947-1.866-.891a.1.1 0 0 0-.027.056.3.3 0 0 1-.042.07l1.893.835z" transform="translate(410.238 471.757)"/></g><g clip-path="url(#aa)" transform="matrix(13.05065 0 0 -13.05065 -4939.294 7042.096)"><path style="fill:#fff;fill-opacity:1;fill-rule:evenodd;stroke:none" d="M0 0c.404.487 2.047 6.919 4.817 6.237C6.585 4.01 1.406-.167 1.142-.724c-.154.167-.321.32-.515.446A2.1 2.1 0 0 1 0 0" transform="translate(404.836 471.284)"/></g><g clip-path="url(#ab)" transform="matrix(13.05065 0 0 -13.05065 -4939.294 7042.096)"><path style="fill:none;stroke:#231f20;stroke-width:.27399999;stroke-linecap:round;stroke-linejoin:round;stroke-miterlimit:4;stroke-dasharray:none;stroke-opacity:1" d="M0 0c.404.487 2.047 6.919 4.817 6.237C6.585 4.01 1.406-.167 1.142-.724c-.154.167-.321.32-.515.446A2.1 2.1 0 0 1 0 0" transform="translate(404.836 471.284)"/></g><g clip-path="url(#ac)" transform="matrix(13.05065 0 0 -13.05065 -4939.294 7042.096)"><path style="fill:#231f20;fill-opacity:1;fill-rule:evenodd;stroke:none" d="m0 0-1.17-1.893-1.085-1.755c-.014.014-.042.028-.056.042-.028.014-.042.028-.07.042l1.156 1.712z" transform="translate(407.774 474.611)"/></g><g clip-path="url(#ad)" transform="matrix(13.05065 0 0 -13.05065 -4939.294 7042.096)"><path style="fill:none;stroke:#231f20;stroke-width:.123;stroke-linecap:round;stroke-linejoin:round;stroke-miterlimit:4;stroke-dasharray:none;stroke-opacity:1" d="m0 0-1.17-1.893-1.085-1.755c-.014.014-.042.028-.056.042-.028.014-.042.028-.07.042l1.156 1.712z" transform="translate(407.774 474.611)"/></g><g clip-path="url(#ae)" transform="matrix(13.05065 0 0 -13.05065 -4939.294 7042.096)"><path style="fill:#fcd213;fill-opacity:1;fill-rule:evenodd;stroke:none" d="M0 0a2.397 2.397 0 0 1-2.395 2.408c-1.322.015-2.408-1.071-2.408-2.394a2.397 2.397 0 0 1 2.394-2.409A2.407 2.407 0 0 1 0 0" transform="translate(406.562 468.973)"/></g><g clip-path="url(#af)" transform="matrix(13.05065 0 0 -13.05065 -4939.294 7042.096)"><path style="fill:none;stroke:#231f20;stroke-width:.273;stroke-linecap:butt;stroke-linejoin:miter;stroke-miterlimit:4;stroke-dasharray:none;stroke-opacity:1" d="M0 0a2.397 2.397 0 0 1-2.395 2.408c-1.322.015-2.408-1.071-2.408-2.394a2.397 2.397 0 0 1 2.394-2.409A2.407 2.407 0 0 1 0 0Z" transform="translate(406.562 468.973)"/></g><g clip-path="url(#ag)" transform="matrix(13.05065 0 0 -13.05065 -4939.294 7042.096)"><path style="fill:#fff;fill-opacity:1;fill-rule:evenodd;stroke:none" d="M0 0c.07.627-2.019 6.934.668 7.852 2.701-.918.599-7.24.683-7.852a2.2 2.2 0 0 1-.669.097C.446.097.209.07 0 0" transform="translate(403.485 497.459)"/></g><g clip-path="url(#ah)" transform="matrix(13.05065 0 0 -13.05065 -4939.294 7042.096)"><path style="fill:none;stroke:#231f20;stroke-width:.27399999;stroke-linecap:round;stroke-linejoin:round;stroke-miterlimit:4;stroke-dasharray:none;stroke-opacity:1" d="M0 0c.07.627-2.019 6.934.668 7.852 2.701-.918.599-7.24.683-7.852a2.2 2.2 0 0 1-.669.097C.446.097.209.07 0 0" transform="translate(403.485 497.459)"/></g><g clip-path="url(#ai)" transform="matrix(13.05065 0 0 -13.05065 -4939.294 7042.096)"><path style="fill:#231f20;fill-opacity:1;fill-rule:evenodd;stroke:none" d="m0 0 .042-2.214.042-2.074H-.07l.042 2.074z" transform="translate(404.154 501.844)"/></g><g clip-path="url(#aj)" transform="matrix(13.05065 0 0 -13.05065 -4939.294 7042.096)"><path style="fill:none;stroke:#231f20;stroke-width:.123;stroke-linecap:round;stroke-linejoin:round;stroke-miterlimit:4;stroke-dasharray:none;stroke-opacity:1" d="m0 0 .042-2.214.042-2.074H-.07l.042 2.074z" transform="translate(404.154 501.844)"/></g><g clip-path="url(#ak)" transform="matrix(13.05065 0 0 -13.05065 -4939.294 7042.096)"><path style="fill:#fff;fill-opacity:1;fill-rule:evenodd;stroke:none" d="M0 0c-.265.557-5.444 4.734-3.676 6.961C-.919 7.644.738 1.197 1.142.724A2.1 2.1 0 0 1 .515.446 2.7 2.7 0 0 1 0 0" transform="translate(402.344 496.735)"/></g><g clip-path="url(#al)" transform="matrix(13.05065 0 0 -13.05065 -4939.294 7042.096)"><path style="fill:none;stroke:#231f20;stroke-width:.27399999;stroke-linecap:round;stroke-linejoin:round;stroke-miterlimit:4;stroke-dasharray:none;stroke-opacity:1" d="M0 0c-.265.557-5.444 4.734-3.676 6.961C-.919 7.644.738 1.197 1.142.724A2.1 2.1 0 0 1 .515.446 2.7 2.7 0 0 1 0 0" transform="translate(402.344 496.735)"/></g><g clip-path="url(#am)" transform="matrix(13.05065 0 0 -13.05065 -4939.294 7042.096)"><path style="fill:#231f20;fill-opacity:1;fill-rule:evenodd;stroke:none" d="m0 0 1.225-1.852 1.142-1.712a.2.2 0 0 0-.056-.042c-.014-.014-.042-.028-.056-.042L1.156-1.893z" transform="translate(400.548 500.786)"/></g><g clip-path="url(#an)" transform="matrix(13.05065 0 0 -13.05065 -4939.294 7042.096)"><path style="fill:none;stroke:#231f20;stroke-width:.123;stroke-linecap:round;stroke-linejoin:round;stroke-miterlimit:4;stroke-dasharray:none;stroke-opacity:1" d="m0 0 1.225-1.852 1.142-1.712a.2.2 0 0 0-.056-.042c-.014-.014-.042-.028-.056-.042L1.156-1.893z" transform="translate(400.548 500.786)"/></g><g clip-path="url(#ao)" transform="matrix(13.05065 0 0 -13.05065 -4939.294 7042.096)"><path style="fill:#fff;fill-opacity:1;fill-rule:evenodd;stroke:none" d="M0 0c-.529.334-7.128 1.044-6.85 3.871C-4.901 5.945-.028 1.42.571 1.225A2.2 2.2 0 0 1 .195.668 3 3 0 0 1 0 0" transform="translate(401.773 495.496)"/></g><g clip-path="url(#ap)" transform="matrix(13.05065 0 0 -13.05065 -4939.294 7042.096)"><path style="fill:none;stroke:#231f20;stroke-width:.27399999;stroke-linecap:round;stroke-linejoin:round;stroke-miterlimit:4;stroke-dasharray:none;stroke-opacity:1" d="M0 0c-.529.334-7.128 1.044-6.85 3.871C-4.901 5.945-.028 1.42.571 1.225A2.2 2.2 0 0 1 .195.668 3 3 0 0 1 0 0" transform="translate(401.773 495.496)"/></g><g clip-path="url(#aq)" transform="matrix(13.05065 0 0 -13.05065 -4939.294 7042.096)"><path style="fill:#231f20;fill-opacity:1;fill-rule:evenodd;stroke:none" d="m0 0 2.019-.891 1.893-.821a.1.1 0 0 0-.028-.056c0-.028-.014-.056-.027-.084l-1.866.891z" transform="translate(398.083 497.932)"/></g><g clip-path="url(#ar)" transform="matrix(13.05065 0 0 -13.05065 -4939.294 7042.096)"><path style="fill:none;stroke:#231f20;stroke-width:.123;stroke-linecap:round;stroke-linejoin:round;stroke-miterlimit:4;stroke-dasharray:none;stroke-opacity:1" d="m0 0 2.019-.891 1.893-.821a.1.1 0 0 0-.028-.056c0-.028-.014-.056-.027-.084l-1.866.891z" transform="translate(398.083 497.932)"/></g><g clip-path="url(#as)" transform="matrix(13.05065 0 0 -13.05065 -4939.294 7042.096)"><path style="fill:#fff;fill-opacity:1;fill-rule:evenodd;stroke:none" d="M0 0c-.613-.014-6.571-2.979-7.866-.446.529 2.799 7.072 1.615 7.671 1.783a2.8 2.8 0 0 1 0-.683A2.6 2.6 0 0 1 0 0" transform="translate(401.968 494.16)"/></g><g clip-path="url(#at)" transform="matrix(13.05065 0 0 -13.05065 -4939.294 7042.096)"><path style="fill:none;stroke:#231f20;stroke-width:.27399999;stroke-linecap:round;stroke-linejoin:round;stroke-miterlimit:4;stroke-dasharray:none;stroke-opacity:1" d="M0 0c-.613-.014-6.571-2.979-7.866-.446.529 2.799 7.072 1.615 7.671 1.783a2.8 2.8 0 0 1 0-.683A2.6 2.6 0 0 1 0 0" transform="translate(401.968 494.16)"/></g><g clip-path="url(#au)" transform="matrix(13.05065 0 0 -13.05065 -4939.294 7042.096)"><path style="fill:#231f20;fill-opacity:1;fill-rule:evenodd;stroke:none" d="m0 0 2.186.362 2.046.32V.613c.014-.028.014-.056.014-.07L2.2.278Z" transform="translate(397.54 494.2)"/></g><g clip-path="url(#av)" transform="matrix(13.05065 0 0 -13.05065 -4939.294 7042.096)"><path style="fill:none;stroke:#231f20;stroke-width:.123;stroke-linecap:round;stroke-linejoin:round;stroke-miterlimit:4;stroke-dasharray:none;stroke-opacity:1" d="m0 0 2.186.362 2.046.32V.613c.014-.028.014-.056.014-.07L2.2.278Z" transform="translate(397.54 494.2)"/></g><g clip-path="url(#aw)" transform="matrix(13.05065 0 0 -13.05065 -4939.294 7042.096)"><path style="fill:#fff;fill-opacity:1;fill-rule:evenodd;stroke:none" d="M0 0c-.515-.334-3.912-6.042-6.377-4.608C-7.449-1.991-1.295.557-.891 1.03A2.3 2.3 0 0 1-.515.459C-.362.278-.195.125 0 0" transform="translate(402.859 493.129)"/></g><g clip-path="url(#ax)" transform="matrix(13.05065 0 0 -13.05065 -4939.294 7042.096)"><path style="fill:none;stroke:#231f20;stroke-width:.27399999;stroke-linecap:round;stroke-linejoin:round;stroke-miterlimit:4;stroke-dasharray:none;stroke-opacity:1" d="M0 0c-.515-.334-3.912-6.042-6.377-4.608C-7.449-1.991-1.295.557-.891 1.03A2.3 2.3 0 0 1-.515.459C-.362.278-.195.125 0 0" transform="translate(402.859 493.129)"/></g><g clip-path="url(#ay)" transform="matrix(13.05065 0 0 -13.05065 -4939.294 7042.096)"><path style="fill:#231f20;fill-opacity:1;fill-rule:evenodd;stroke:none" d="m0 0 1.657 1.476 1.531 1.378a.2.2 0 0 1 .056-.042c.014-.027.028-.041.042-.069L1.699 1.42Z" transform="translate(399.1 490.776)"/></g><g clip-path="url(#az)" transform="matrix(13.05065 0 0 -13.05065 -4939.294 7042.096)"><path style="fill:none;stroke:#231f20;stroke-width:.123;stroke-linecap:round;stroke-linejoin:round;stroke-miterlimit:4;stroke-dasharray:none;stroke-opacity:1" d="m0 0 1.657 1.476 1.531 1.378a.2.2 0 0 1 .056-.042c.014-.027.028-.041.042-.069L1.699 1.42Z" transform="translate(399.1 490.776)"/></g><g clip-path="url(#aA)" transform="matrix(13.05065 0 0 -13.05065 -4939.294 7042.096)"><path style="fill:#fff;fill-opacity:1;fill-rule:evenodd;stroke:none" d="M0 0c-.251-.571-.014-7.198-2.854-7.323C-5.179-5.68-1.392-.237-1.295.376A2.4 2.4 0 0 1 0 0" transform="translate(404.154 492.753)"/></g><g clip-path="url(#aB)" transform="matrix(13.05065 0 0 -13.05065 -4939.294 7042.096)"><path style="fill:none;stroke:#231f20;stroke-width:.27399999;stroke-linecap:round;stroke-linejoin:round;stroke-miterlimit:4;stroke-dasharray:none;stroke-opacity:1" d="M0 0c-.251-.571-.014-7.198-2.854-7.323C-5.179-5.68-1.392-.237-1.295.376A2.4 2.4 0 0 1 0 0" transform="translate(404.154 492.753)"/></g><g clip-path="url(#aC)" transform="matrix(13.05065 0 0 -13.05065 -4939.294 7042.096)"><path style="fill:#231f20;fill-opacity:1;fill-rule:evenodd;stroke:none" d="m0 0 .585 2.116.557 1.991c.014 0 .041-.014.055-.014.028-.014.056-.014.084-.028L.668 2.102Z" transform="translate(402.274 488.757)"/></g><g clip-path="url(#aD)" transform="matrix(13.05065 0 0 -13.05065 -4939.294 7042.096)"><path style="fill:none;stroke:#231f20;stroke-width:.123;stroke-linecap:round;stroke-linejoin:round;stroke-miterlimit:4;stroke-dasharray:none;stroke-opacity:1" d="m0 0 .585 2.116.557 1.991c.014 0 .041-.014.055-.014.028-.014.056-.014.084-.028L.668 2.102Z" transform="translate(402.274 488.757)"/></g><g clip-path="url(#aE)" transform="matrix(13.05065 0 0 -13.05065 -4939.294 7042.096)"><path style="fill:#fff;fill-opacity:1;fill-rule:evenodd;stroke:none" d="M0 0c.097-.613 3.884-6.07 1.559-7.699-2.84.125-2.617 6.752-2.854 7.323.209 0 .446.028.668.097.223.056.432.154.627.279" transform="translate(405.462 493.129)"/></g><g clip-path="url(#aF)" transform="matrix(13.05065 0 0 -13.05065 -4939.294 7042.096)"><path style="fill:none;stroke:#231f20;stroke-width:.27399999;stroke-linecap:round;stroke-linejoin:round;stroke-miterlimit:4;stroke-dasharray:none;stroke-opacity:1" d="M0 0c.097-.613 3.884-6.07 1.559-7.699-2.84.125-2.617 6.752-2.854 7.323.209 0 .446.028.668.097.223.056.432.154.627.279" transform="translate(405.462 493.129)"/></g><g clip-path="url(#aG)" transform="matrix(13.05065 0 0 -13.05065 -4939.294 7042.096)"><path style="fill:#231f20;fill-opacity:1;fill-rule:evenodd;stroke:none" d="m0 0-.668 2.102-.613 1.963c.028.014.042.014.07.028.028 0 .041.014.069.014l.543-1.991z" transform="translate(406.047 488.757)"/></g><g clip-path="url(#aH)" transform="matrix(13.05065 0 0 -13.05065 -4939.294 7042.096)"><path style="fill:none;stroke:#231f20;stroke-width:.123;stroke-linecap:round;stroke-linejoin:round;stroke-miterlimit:4;stroke-dasharray:none;stroke-opacity:1" d="m0 0-.668 2.102-.613 1.963c.028.014.042.014.07.028.028 0 .041.014.069.014l.543-1.991z" transform="translate(406.047 488.757)"/></g><g clip-path="url(#aI)" transform="matrix(13.05065 0 0 -13.05065 -4939.294 7042.096)"><path style="fill:#fff;fill-opacity:1;fill-rule:evenodd;stroke:none" d="M0 0c.418-.473 6.558-3.021 5.499-5.639C3.035-7.073-.362-1.364-.877-1.03c.181.125.362.264.515.445S-.084-.209 0 0" transform="translate(406.34 494.16)"/></g><g clip-path="url(#aJ)" transform="matrix(13.05065 0 0 -13.05065 -4939.294 7042.096)"><path style="fill:none;stroke:#231f20;stroke-width:.27399999;stroke-linecap:round;stroke-linejoin:round;stroke-miterlimit:4;stroke-dasharray:none;stroke-opacity:1" d="M0 0c.418-.473 6.558-3.021 5.499-5.639C3.035-7.073-.362-1.364-.877-1.03c.181.125.362.264.515.445S-.084-.209 0 0" transform="translate(406.34 494.16)"/></g><g clip-path="url(#aK)" transform="matrix(13.05065 0 0 -13.05065 -4939.294 7042.096)"><path style="fill:#231f20;fill-opacity:1;fill-rule:evenodd;stroke:none" d="m0 0-1.699 1.42-1.587 1.323c.014.028.042.042.056.055a.2.2 0 0 0 .042.056l1.545-1.378z" transform="translate(409.208 490.776)"/></g><g clip-path="url(#aL)" transform="matrix(13.05065 0 0 -13.05065 -4939.294 7042.096)"><path style="fill:none;stroke:#231f20;stroke-width:.123;stroke-linecap:round;stroke-linejoin:round;stroke-miterlimit:4;stroke-dasharray:none;stroke-opacity:1" d="m0 0-1.699 1.42-1.587 1.323c.014.028.042.042.056.055a.2.2 0 0 0 .042.056l1.545-1.378z" transform="translate(409.208 490.776)"/></g><g clip-path="url(#aM)" transform="matrix(13.05065 0 0 -13.05065 -4939.294 7042.096)"><path style="fill:#fff;fill-opacity:1;fill-rule:evenodd;stroke:none" d="M0 0c.599-.167 7.142 1.016 7.671-1.782-1.294-2.534-7.239.431-7.852.445.084.195.153.418.181.655.042.223.042.459 0 .682" transform="translate(406.534 495.496)"/></g><g clip-path="url(#aN)" transform="matrix(13.05065 0 0 -13.05065 -4939.294 7042.096)"><path style="fill:none;stroke:#231f20;stroke-width:.27399999;stroke-linecap:round;stroke-linejoin:round;stroke-miterlimit:4;stroke-dasharray:none;stroke-opacity:1" d="M0 0c.599-.167 7.142 1.016 7.671-1.782-1.294-2.534-7.239.431-7.852.445.084.195.153.418.181.655.042.223.042.459 0 .682" transform="translate(406.534 495.496)"/></g><g clip-path="url(#aO)" transform="matrix(13.05065 0 0 -13.05065 -4939.294 7042.096)"><path style="fill:#231f20;fill-opacity:1;fill-rule:evenodd;stroke:none" d="m0 0-2.2.278-2.046.265v.07c.014.014.014.041.014.069l2.046-.334z" transform="translate(410.78 494.2)"/></g><g clip-path="url(#aP)" transform="matrix(13.05065 0 0 -13.05065 -4939.294 7042.096)"><path style="fill:none;stroke:#231f20;stroke-width:.123;stroke-linecap:round;stroke-linejoin:round;stroke-miterlimit:4;stroke-dasharray:none;stroke-opacity:1" d="m0 0-2.2.278-2.046.265v.07c.014.014.014.041.014.069l2.046-.334z" transform="translate(410.78 494.2)"/></g><g clip-path="url(#aQ)" transform="matrix(13.05065 0 0 -13.05065 -4939.294 7042.096)"><path style="fill:#fff;fill-opacity:1;fill-rule:evenodd;stroke:none" d="M0 0c.599.195 5.458 4.72 7.421 2.645C7.699-.181 1.086-.891.557-1.225A2.2 2.2 0 0 1 0 0" transform="translate(405.978 496.72)"/></g><g clip-path="url(#aR)" transform="matrix(13.05065 0 0 -13.05065 -4939.294 7042.096)"><path style="fill:none;stroke:#231f20;stroke-width:.27399999;stroke-linecap:round;stroke-linejoin:round;stroke-miterlimit:4;stroke-dasharray:none;stroke-opacity:1" d="M0 0c.599.195 5.458 4.72 7.421 2.645C7.699-.181 1.086-.891.557-1.225A2.2 2.2 0 0 1 0 0" transform="translate(405.978 496.72)"/></g><g clip-path="url(#aS)" transform="matrix(13.05065 0 0 -13.05065 -4939.294 7042.096)"><path style="fill:#231f20;fill-opacity:1;fill-rule:evenodd;stroke:none" d="m0 0-1.991-.961-1.866-.891c-.014.028-.027.042-.027.07-.014.028-.028.042-.042.07l1.893.821z" transform="translate(410.238 497.932)"/></g><g clip-path="url(#aT)" transform="matrix(13.05065 0 0 -13.05065 -4939.294 7042.096)"><path style="fill:none;stroke:#231f20;stroke-width:.123;stroke-linecap:round;stroke-linejoin:round;stroke-miterlimit:4;stroke-dasharray:none;stroke-opacity:1" d="m0 0-1.991-.961-1.866-.891c-.014.028-.027.042-.027.07-.014.028-.028.042-.042.07l1.893.821z" transform="translate(410.238 497.932)"/></g><g clip-path="url(#aU)" transform="matrix(13.05065 0 0 -13.05065 -4939.294 7042.096)"><path style="fill:#fff;fill-opacity:1;fill-rule:evenodd;stroke:none" d="M0 0c.404.473 2.047 6.92 4.817 6.237C6.585 4.01 1.406-.167 1.142-.724c-.154.167-.321.32-.515.446A2.1 2.1 0 0 1 0 0" transform="translate(404.836 497.459)"/></g><g clip-path="url(#aV)" transform="matrix(13.05065 0 0 -13.05065 -4939.294 7042.096)"><path style="fill:none;stroke:#231f20;stroke-width:.27399999;stroke-linecap:round;stroke-linejoin:round;stroke-miterlimit:4;stroke-dasharray:none;stroke-opacity:1" d="M0 0c.404.473 2.047 6.92 4.817 6.237C6.585 4.01 1.406-.167 1.142-.724c-.154.167-.321.32-.515.446A2.1 2.1 0 0 1 0 0" transform="translate(404.836 497.459)"/></g><g clip-path="url(#aW)" transform="matrix(13.05065 0 0 -13.05065 -4939.294 7042.096)"><path style="fill:#231f20;fill-opacity:1;fill-rule:evenodd;stroke:none" d="m0 0-1.17-1.88-1.085-1.754c-.014.014-.042.028-.056.042-.028.014-.042.028-.07.042l1.156 1.712z" transform="translate(407.774 500.772)"/></g><g clip-path="url(#aX)" transform="matrix(13.05065 0 0 -13.05065 -4939.294 7042.096)"><path style="fill:none;stroke:#231f20;stroke-width:.123;stroke-linecap:round;stroke-linejoin:round;stroke-miterlimit:4;stroke-dasharray:none;stroke-opacity:1" d="m0 0-1.17-1.88-1.085-1.754c-.014.014-.042.028-.056.042-.028.014-.042.028-.07.042l1.156 1.712z" transform="translate(407.774 500.772)"/></g><g clip-path="url(#aY)" transform="matrix(13.05065 0 0 -13.05065 -4939.294 7042.096)"><path style="fill:#fcd213;fill-opacity:1;fill-rule:evenodd;stroke:none" d="M0 0a2.407 2.407 0 0 1-2.395 2.409A2.406 2.406 0 0 1-4.803.014a2.397 2.397 0 0 1 2.394-2.409A2.407 2.407 0 0 1 0 0" transform="translate(406.562 495.148)"/></g><g clip-path="url(#aZ)" transform="matrix(13.05065 0 0 -13.05065 -4939.294 7042.096)"><path style="fill:none;stroke:#231f20;stroke-width:.273;stroke-linecap:butt;stroke-linejoin:miter;stroke-miterlimit:4;stroke-dasharray:none;stroke-opacity:1" d="M0 0a2.407 2.407 0 0 1-2.395 2.409A2.406 2.406 0 0 1-4.803.014a2.397 2.397 0 0 1 2.394-2.409A2.407 2.407 0 0 1 0 0Z" transform="translate(406.562 495.148)"/></g><g clip-path="url(#ba)" transform="matrix(13.05065 0 0 -13.05065 -4939.294 7042.096)"><path style="fill:#fff;fill-opacity:1;fill-rule:evenodd;stroke:none" d="M0 0c.07.613-2.019 6.92.668 7.839C3.369 6.92 1.267.613 1.351 0a2.7 2.7 0 0 1-.669.097A2.7 2.7 0 0 1 0 0" transform="translate(403.485 523.425)"/></g><g clip-path="url(#bb)" transform="matrix(13.05065 0 0 -13.05065 -4939.294 7042.096)"><path style="fill:none;stroke:#231f20;stroke-width:.27399999;stroke-linecap:round;stroke-linejoin:round;stroke-miterlimit:4;stroke-dasharray:none;stroke-opacity:1" d="M0 0c.07.613-2.019 6.92.668 7.839C3.369 6.92 1.267.613 1.351 0a2.7 2.7 0 0 1-.669.097A2.7 2.7 0 0 1 0 0" transform="translate(403.485 523.425)"/></g><g clip-path="url(#bc)" transform="matrix(13.05065 0 0 -13.05065 -4939.294 7042.096)"><path style="fill:#231f20;fill-opacity:1;fill-rule:evenodd;stroke:none" d="m0 0 .042-2.214.042-2.06H-.07l.042 2.06z" transform="translate(404.154 527.796)"/></g><g clip-path="url(#bd)" transform="matrix(13.05065 0 0 -13.05065 -4939.294 7042.096)"><path style="fill:none;stroke:#231f20;stroke-width:.123;stroke-linecap:round;stroke-linejoin:round;stroke-miterlimit:4;stroke-dasharray:none;stroke-opacity:1" d="m0 0 .042-2.214.042-2.06H-.07l.042 2.06z" transform="translate(404.154 527.796)"/></g><g clip-path="url(#be)" transform="matrix(13.05065 0 0 -13.05065 -4939.294 7042.096)"><path style="fill:#fff;fill-opacity:1;fill-rule:evenodd;stroke:none" d="M0 0c-.265.571-5.444 4.748-3.676 6.975C-.919 7.657.738 1.211 1.142.738A2.5 2.5 0 0 1 .515.459 2.7 2.7 0 0 1 0 0" transform="translate(402.344 522.687)"/></g><g clip-path="url(#bf)" transform="matrix(13.05065 0 0 -13.05065 -4939.294 7042.096)"><path style="fill:none;stroke:#231f20;stroke-width:.27399999;stroke-linecap:round;stroke-linejoin:round;stroke-miterlimit:4;stroke-dasharray:none;stroke-opacity:1" d="M0 0c-.265.571-5.444 4.748-3.676 6.975C-.919 7.657.738 1.211 1.142.738A2.5 2.5 0 0 1 .515.459 2.7 2.7 0 0 1 0 0" transform="translate(402.344 522.687)"/></g><g clip-path="url(#bg)" transform="matrix(13.05065 0 0 -13.05065 -4939.294 7042.096)"><path style="fill:#231f20;fill-opacity:1;fill-rule:evenodd;stroke:none" d="m0 0 1.225-1.838 1.142-1.726c-.014-.014-.028-.028-.056-.028-.014-.014-.042-.028-.056-.056L1.156-1.88Z" transform="translate(400.548 526.738)"/></g><g clip-path="url(#bh)" transform="matrix(13.05065 0 0 -13.05065 -4939.294 7042.096)"><path style="fill:none;stroke:#231f20;stroke-width:.123;stroke-linecap:round;stroke-linejoin:round;stroke-miterlimit:4;stroke-dasharray:none;stroke-opacity:1" d="m0 0 1.225-1.838 1.142-1.726c-.014-.014-.028-.028-.056-.028-.014-.014-.042-.028-.056-.056L1.156-1.88Z" transform="translate(400.548 526.738)"/></g><g clip-path="url(#bi)" transform="matrix(13.05065 0 0 -13.05065 -4939.294 7042.096)"><path style="fill:#fff;fill-opacity:1;fill-rule:evenodd;stroke:none" d="M0 0c-.529.32-7.128 1.044-6.85 3.87C-4.901 5.945-.028 1.406.571 1.225A2.2 2.2 0 0 1 .195.654 2.7 2.7 0 0 1 0 0" transform="translate(401.773 521.462)"/></g><g clip-path="url(#bj)" transform="matrix(13.05065 0 0 -13.05065 -4939.294 7042.096)"><path style="fill:none;stroke:#231f20;stroke-width:.27399999;stroke-linecap:round;stroke-linejoin:round;stroke-miterlimit:4;stroke-dasharray:none;stroke-opacity:1" d="M0 0c-.529.32-7.128 1.044-6.85 3.87C-4.901 5.945-.028 1.406.571 1.225A2.2 2.2 0 0 1 .195.654 2.7 2.7 0 0 1 0 0" transform="translate(401.773 521.462)"/></g><g clip-path="url(#bk)" transform="matrix(13.05065 0 0 -13.05065 -4939.294 7042.096)"><path style="fill:#231f20;fill-opacity:1;fill-rule:evenodd;stroke:none" d="m0 0 2.019-.891 1.893-.821c0-.028-.014-.042-.028-.07 0-.028-.014-.042-.027-.07l-1.866.891z" transform="translate(398.083 523.898)"/></g><g clip-path="url(#bl)" transform="matrix(13.05065 0 0 -13.05065 -4939.294 7042.096)"><path style="fill:none;stroke:#231f20;stroke-width:.123;stroke-linecap:round;stroke-linejoin:round;stroke-miterlimit:4;stroke-dasharray:none;stroke-opacity:1" d="m0 0 2.019-.891 1.893-.821c0-.028-.014-.042-.028-.07 0-.028-.014-.042-.027-.07l-1.866.891z" transform="translate(398.083 523.898)"/></g><g clip-path="url(#bm)" transform="matrix(13.05065 0 0 -13.05065 -4939.294 7042.096)"><path style="fill:#fff;fill-opacity:1;fill-rule:evenodd;stroke:none" d="M0 0c-.613 0-6.571-2.979-7.866-.445.529 2.798 7.072 1.628 7.671 1.782a2.7 2.7 0 0 1 0-.669C-.153.432-.097.209 0 0" transform="translate(401.968 520.11)"/></g><g clip-path="url(#bn)" transform="matrix(13.05065 0 0 -13.05065 -4939.294 7042.096)"><path style="fill:none;stroke:#231f20;stroke-width:.27399999;stroke-linecap:round;stroke-linejoin:round;stroke-miterlimit:4;stroke-dasharray:none;stroke-opacity:1" d="M0 0c-.613 0-6.571-2.979-7.866-.445.529 2.798 7.072 1.628 7.671 1.782a2.7 2.7 0 0 1 0-.669C-.153.432-.097.209 0 0" transform="translate(401.968 520.11)"/></g><g clip-path="url(#bo)" transform="matrix(13.05065 0 0 -13.05065 -4939.294 7042.096)"><path style="fill:#231f20;fill-opacity:1;fill-rule:evenodd;stroke:none" d="m0 0 2.186.348 2.046.334V.613c.014-.028.014-.056.014-.084L2.2.278Z" transform="translate(397.54 520.167)"/></g><g clip-path="url(#bp)" transform="matrix(13.05065 0 0 -13.05065 -4939.294 7042.096)"><path style="fill:none;stroke:#231f20;stroke-width:.123;stroke-linecap:round;stroke-linejoin:round;stroke-miterlimit:4;stroke-dasharray:none;stroke-opacity:1" d="m0 0 2.186.348 2.046.334V.613c.014-.028.014-.056.014-.084L2.2.278Z" transform="translate(397.54 520.167)"/></g><g clip-path="url(#bq)" transform="matrix(13.05065 0 0 -13.05065 -4939.294 7042.096)"><path style="fill:#fff;fill-opacity:1;fill-rule:evenodd;stroke:none" d="M0 0c-.515-.348-3.912-6.07-6.377-4.636C-7.449-1.991-1.295.557-.891 1.016A3 3 0 0 1-.515.445C-.362.264-.195.125 0 0" transform="translate(402.859 519.095)"/></g><g clip-path="url(#br)" transform="matrix(13.05065 0 0 -13.05065 -4939.294 7042.096)"><path style="fill:none;stroke:#231f20;stroke-width:.27399999;stroke-linecap:round;stroke-linejoin:round;stroke-miterlimit:4;stroke-dasharray:none;stroke-opacity:1" d="M0 0c-.515-.348-3.912-6.07-6.377-4.636C-7.449-1.991-1.295.557-.891 1.016A3 3 0 0 1-.515.445C-.362.264-.195.125 0 0" transform="translate(402.859 519.095)"/></g><g clip-path="url(#bs)" transform="matrix(13.05065 0 0 -13.05065 -4939.294 7042.096)"><path style="fill:#231f20;fill-opacity:1;fill-rule:evenodd;stroke:none" d="m0 0 1.657 1.476 1.531 1.378c.014-.014.028-.042.056-.056.014-.014.028-.041.042-.055L1.699 1.42Z" transform="translate(399.1 516.742)"/></g><g clip-path="url(#bt)" transform="matrix(13.05065 0 0 -13.05065 -4939.294 7042.096)"><path style="fill:none;stroke:#231f20;stroke-width:.123;stroke-linecap:round;stroke-linejoin:round;stroke-miterlimit:4;stroke-dasharray:none;stroke-opacity:1" d="m0 0 1.657 1.476 1.531 1.378c.014-.014.028-.042.056-.056.014-.014.028-.041.042-.055L1.699 1.42Z" transform="translate(399.1 516.742)"/></g><g clip-path="url(#bu)" transform="matrix(13.05065 0 0 -13.05065 -4939.294 7042.096)"><path style="fill:#fff;fill-opacity:1;fill-rule:evenodd;stroke:none" d="M0 0c-.251-.571-.014-7.212-2.854-7.337C-5.179-5.694-1.392-.223-1.295.39c.195-.125.39-.223.613-.293C-.446.042-.223 0 0 0" transform="translate(404.154 518.705)"/></g><g clip-path="url(#bv)" transform="matrix(13.05065 0 0 -13.05065 -4939.294 7042.096)"><path style="fill:none;stroke:#231f20;stroke-width:.27399999;stroke-linecap:round;stroke-linejoin:round;stroke-miterlimit:4;stroke-dasharray:none;stroke-opacity:1" d="M0 0c-.251-.571-.014-7.212-2.854-7.337C-5.179-5.694-1.392-.223-1.295.39c.195-.125.39-.223.613-.293C-.446.042-.223 0 0 0" transform="translate(404.154 518.705)"/></g><g clip-path="url(#bw)" transform="matrix(13.05065 0 0 -13.05065 -4939.294 7042.096)"><path style="fill:#231f20;fill-opacity:1;fill-rule:evenodd;stroke:none" d="m0 0 .585 2.144.557 1.991c.014-.014.041-.014.055-.028.028 0 .056-.014.084-.014L.668 2.116Z" transform="translate(402.274 514.695)"/></g><g clip-path="url(#bx)" transform="matrix(13.05065 0 0 -13.05065 -4939.294 7042.096)"><path style="fill:none;stroke:#231f20;stroke-width:.123;stroke-linecap:round;stroke-linejoin:round;stroke-miterlimit:4;stroke-dasharray:none;stroke-opacity:1" d="m0 0 .585 2.144.557 1.991c.014-.014.041-.014.055-.028.028 0 .056-.014.084-.014L.668 2.116Z" transform="translate(402.274 514.695)"/></g><g clip-path="url(#by)" transform="matrix(13.05065 0 0 -13.05065 -4939.294 7042.096)"><path style="fill:#fff;fill-opacity:1;fill-rule:evenodd;stroke:none" d="M0 0c.097-.613 3.884-6.084 1.559-7.727-2.84.125-2.617 6.766-2.854 7.337.209 0 .446.042.668.097A2.6 2.6 0 0 1 0 0" transform="translate(405.462 519.095)"/></g><g clip-path="url(#bz)" transform="matrix(13.05065 0 0 -13.05065 -4939.294 7042.096)"><path style="fill:none;stroke:#231f20;stroke-width:.27399999;stroke-linecap:round;stroke-linejoin:round;stroke-miterlimit:4;stroke-dasharray:none;stroke-opacity:1" d="M0 0c.097-.613 3.884-6.084 1.559-7.727-2.84.125-2.617 6.766-2.854 7.337.209 0 .446.042.668.097A2.6 2.6 0 0 1 0 0" transform="translate(405.462 519.095)"/></g><g clip-path="url(#bA)" transform="matrix(13.05065 0 0 -13.05065 -4939.294 7042.096)"><path style="fill:#231f20;fill-opacity:1;fill-rule:evenodd;stroke:none" d="m0 0-.668 2.116-.613 1.977c.028 0 .042.014.07.014.028.014.041.014.069.028l.543-1.991z" transform="translate(406.047 514.695)"/></g><g clip-path="url(#bB)" transform="matrix(13.05065 0 0 -13.05065 -4939.294 7042.096)"><path style="fill:none;stroke:#231f20;stroke-width:.123;stroke-linecap:round;stroke-linejoin:round;stroke-miterlimit:4;stroke-dasharray:none;stroke-opacity:1" d="m0 0-.668 2.116-.613 1.977c.028 0 .042.014.07.014.028.014.041.014.069.028l.543-1.991z" transform="translate(406.047 514.695)"/></g><g clip-path="url(#bC)" transform="matrix(13.05065 0 0 -13.05065 -4939.294 7042.096)"><path style="fill:#fff;fill-opacity:1;fill-rule:evenodd;stroke:none" d="M0 0c.418-.459 6.558-3.007 5.499-5.653C3.035-7.087-.362-1.364-.877-1.016c.181.111.362.264.515.445.153.167.278.362.362.571" transform="translate(406.34 520.11)"/></g><g clip-path="url(#bD)" transform="matrix(13.05065 0 0 -13.05065 -4939.294 7042.096)"><path style="fill:none;stroke:#231f20;stroke-width:.27399999;stroke-linecap:round;stroke-linejoin:round;stroke-miterlimit:4;stroke-dasharray:none;stroke-opacity:1" d="M0 0c.418-.459 6.558-3.007 5.499-5.653C3.035-7.087-.362-1.364-.877-1.016c.181.111.362.264.515.445.153.167.278.362.362.571" transform="translate(406.34 520.11)"/></g><g clip-path="url(#bE)" transform="matrix(13.05065 0 0 -13.05065 -4939.294 7042.096)"><path style="fill:#231f20;fill-opacity:1;fill-rule:evenodd;stroke:none" d="m0 0-1.699 1.42-1.587 1.323c.014.014.042.028.056.055.014.014.028.042.042.056l1.545-1.378z" transform="translate(409.208 516.742)"/></g><g clip-path="url(#bF)" transform="matrix(13.05065 0 0 -13.05065 -4939.294 7042.096)"><path style="fill:none;stroke:#231f20;stroke-width:.123;stroke-linecap:round;stroke-linejoin:round;stroke-miterlimit:4;stroke-dasharray:none;stroke-opacity:1" d="m0 0-1.699 1.42-1.587 1.323c.014.014.042.028.056.055.014.014.028.042.042.056l1.545-1.378z" transform="translate(409.208 516.742)"/></g><g clip-path="url(#bG)" transform="matrix(13.05065 0 0 -13.05065 -4939.294 7042.096)"><path style="fill:#fff;fill-opacity:1;fill-rule:evenodd;stroke:none" d="M0 0c.599-.153 7.142 1.016 7.671-1.782-1.294-2.534-7.239.445-7.852.445.084.209.153.432.181.655.042.236.042.459 0 .682" transform="translate(406.534 521.447)"/></g><g clip-path="url(#bH)" transform="matrix(13.05065 0 0 -13.05065 -4939.294 7042.096)"><path style="fill:none;stroke:#231f20;stroke-width:.27399999;stroke-linecap:round;stroke-linejoin:round;stroke-miterlimit:4;stroke-dasharray:none;stroke-opacity:1" d="M0 0c.599-.153 7.142 1.016 7.671-1.782-1.294-2.534-7.239.445-7.852.445.084.209.153.432.181.655.042.236.042.459 0 .682" transform="translate(406.534 521.447)"/></g><g clip-path="url(#bI)" transform="matrix(13.05065 0 0 -13.05065 -4939.294 7042.096)"><path style="fill:#231f20;fill-opacity:1;fill-rule:evenodd;stroke:none" d="m0 0-2.2.278-2.046.251v.07a.2.2 0 0 1 .014.083l2.046-.334z" transform="translate(410.78 520.167)"/></g><g clip-path="url(#bJ)" transform="matrix(13.05065 0 0 -13.05065 -4939.294 7042.096)"><path style="fill:none;stroke:#231f20;stroke-width:.123;stroke-linecap:round;stroke-linejoin:round;stroke-miterlimit:4;stroke-dasharray:none;stroke-opacity:1" d="m0 0-2.2.278-2.046.251v.07a.2.2 0 0 1 .014.083l2.046-.334z" transform="translate(410.78 520.167)"/></g><g clip-path="url(#bK)" transform="matrix(13.05065 0 0 -13.05065 -4939.294 7042.096)"><path style="fill:#fff;fill-opacity:1;fill-rule:evenodd;stroke:none" d="M0 0c.599.181 5.458 4.72 7.421 2.645.278-2.826-6.335-3.55-6.864-3.87a2.3 2.3 0 0 1-.181.654A2.3 2.3 0 0 1 0 0" transform="translate(405.978 522.687)"/></g><g clip-path="url(#bL)" transform="matrix(13.05065 0 0 -13.05065 -4939.294 7042.096)"><path style="fill:none;stroke:#231f20;stroke-width:.27399999;stroke-linecap:round;stroke-linejoin:round;stroke-miterlimit:4;stroke-dasharray:none;stroke-opacity:1" d="M0 0c.599.181 5.458 4.72 7.421 2.645.278-2.826-6.335-3.55-6.864-3.87a2.3 2.3 0 0 1-.181.654A2.3 2.3 0 0 1 0 0" transform="translate(405.978 522.687)"/></g><g clip-path="url(#bM)" transform="matrix(13.05065 0 0 -13.05065 -4939.294 7042.096)"><path style="fill:#231f20;fill-opacity:1;fill-rule:evenodd;stroke:none" d="m0 0-1.991-.961-1.866-.891a.1.1 0 0 0-.027.07c-.014.014-.028.042-.042.07l1.893.821z" transform="translate(410.238 523.898)"/></g><g clip-path="url(#bN)" transform="matrix(13.05065 0 0 -13.05065 -4939.294 7042.096)"><path style="fill:none;stroke:#231f20;stroke-width:.123;stroke-linecap:round;stroke-linejoin:round;stroke-miterlimit:4;stroke-dasharray:none;stroke-opacity:1" d="m0 0-1.991-.961-1.866-.891a.1.1 0 0 0-.027.07c-.014.014-.028.042-.042.07l1.893.821z" transform="translate(410.238 523.898)"/></g><g clip-path="url(#bO)" transform="matrix(13.05065 0 0 -13.05065 -4939.294 7042.096)"><path style="fill:#fff;fill-opacity:1;fill-rule:evenodd;stroke:none" d="M0 0c.404.473 2.047 6.92 4.817 6.237C6.585 3.996 1.406-.181 1.142-.738c-.154.167-.321.32-.515.446A2.6 2.6 0 0 1 0 0" transform="translate(404.836 523.425)"/></g><g clip-path="url(#bP)" transform="matrix(13.05065 0 0 -13.05065 -4939.294 7042.096)"><path style="fill:none;stroke:#231f20;stroke-width:.27399999;stroke-linecap:round;stroke-linejoin:round;stroke-miterlimit:4;stroke-dasharray:none;stroke-opacity:1" d="M0 0c.404.473 2.047 6.92 4.817 6.237C6.585 3.996 1.406-.181 1.142-.738c-.154.167-.321.32-.515.446A2.6 2.6 0 0 1 0 0" transform="translate(404.836 523.425)"/></g><g clip-path="url(#bQ)" transform="matrix(13.05065 0 0 -13.05065 -4939.294 7042.096)"><path style="fill:#231f20;fill-opacity:1;fill-rule:evenodd;stroke:none" d="m0 0-1.17-1.88-1.085-1.768c-.014.014-.042.028-.056.042-.028.014-.042.028-.07.042l1.156 1.726z" transform="translate(407.774 526.738)"/></g><g clip-path="url(#bR)" transform="matrix(13.05065 0 0 -13.05065 -4939.294 7042.096)"><path style="fill:none;stroke:#231f20;stroke-width:.123;stroke-linecap:round;stroke-linejoin:round;stroke-miterlimit:4;stroke-dasharray:none;stroke-opacity:1" d="m0 0-1.17-1.88-1.085-1.768c-.014.014-.042.028-.056.042-.028.014-.042.028-.07.042l1.156 1.726z" transform="translate(407.774 526.738)"/></g><g clip-path="url(#bS)" transform="matrix(13.05065 0 0 -13.05065 -4939.294 7042.096)"><path style="fill:#fcd213;fill-opacity:1;fill-rule:evenodd;stroke:none" d="M0 0a2.407 2.407 0 0 1-2.395 2.409A2.41 2.41 0 0 1-4.803 0a2.397 2.397 0 0 1 2.394-2.409A2.42 2.42 0 0 1 0 0" transform="translate(406.562 521.113)"/></g><g clip-path="url(#bT)" transform="matrix(13.05065 0 0 -13.05065 -4939.294 7042.096)"><path style="fill:none;stroke:#231f20;stroke-width:.273;stroke-linecap:butt;stroke-linejoin:miter;stroke-miterlimit:4;stroke-dasharray:none;stroke-opacity:1" d="M0 0a2.407 2.407 0 0 1-2.395 2.409A2.41 2.41 0 0 1-4.803 0a2.397 2.397 0 0 1 2.394-2.409A2.42 2.42 0 0 1 0 0Z" transform="translate(406.562 521.113)"/></g><g clip-path="url(#bU)" transform="matrix(13.05065 0 0 -13.05065 -4939.294 7042.096)"><path style="fill:#ee293d;fill-opacity:1;fill-rule:evenodd;stroke:none" d="M0 0c-1.476-2.757-2.924-5.569-4.205-8.521L1.81-1.545c-.446-.098-.738.167-.863.584C.348-.988.056-.613 0 0" transform="translate(426.639 511.075)"/></g><g clip-path="url(#bV)" transform="matrix(13.05065 0 0 -13.05065 -4939.294 7042.096)"><path style="fill:none;stroke:#231f20;stroke-width:.33199999;stroke-linecap:round;stroke-linejoin:round;stroke-miterlimit:4;stroke-dasharray:none;stroke-opacity:1" d="M0 0c-1.476-2.757-2.924-5.569-4.205-8.521L1.81-1.545c-.446-.098-.738.167-.863.584C.348-.988.056-.613 0 0" transform="translate(426.639 511.075)"/></g><g clip-path="url(#bW)" transform="matrix(13.05065 0 0 -13.05065 -4939.294 7042.096)"><path style="fill:none;stroke:#231f20;stroke-width:.255;stroke-linecap:round;stroke-linejoin:round;stroke-miterlimit:4;stroke-dasharray:none;stroke-opacity:1" d="m0 0 5.151 7.56" transform="translate(422.434 502.554)"/></g><g clip-path="url(#bX)" transform="matrix(13.05065 0 0 -13.05065 -4939.294 7042.096)"><path style="fill:#fff;fill-opacity:1;fill-rule:evenodd;stroke:none" d="M0 0c-2.172 1.671-6.042 3.369-9.843 3.425-2.493 0-2.005 3.314-1.616 5.277.766 4.26.975 4.037 1.434 8.256.182 2.325-1.072 3.773-2.603 3.982-1.754.125-3.592-1.003-3.773-3.397-.014-.14-.028-.265-.042-.39.056-.613.348-.989.947-.961.125-.418.418-.682.863-.585.279.251.64.404 1.016.376 1.448-.139 1.086-2.005.502-4.497-.961-3.982-4.734-10.247-1.518-13.728.543-.584.891-.96 1.281-2.185.209-.251.153 1.559.083 2.06.641-3.077 1.852-2.102 2.2-4.288.265-.153.126 1.058.07 2.172 1.601-2.882 2.172-4.275 2.868-6.279l-.098 2.032c.098-.222.209-2.673.265-2.937.042.668.39 1.49.473 2.144.042-.098.181-1.128.39-1.921.084.612.223 1.253.362 1.67.251-1.016.223-1.517.46-2.158.028.599.403 1.629.696 2.492l.724.293c.529-.446.821-.599 1.183-.738l.613-.321c.39-.222.835-.473 1.253-.528l.793-.39c.39-.14.794-.209 1.184-.265l.891-.209a4 4 0 0 1 1.239-.097l.891-.209c.473-.292 1.142-.39 1.824-.404.237-.25.501-.529.821-.835l.432.877c.014.014.028.014.056.014.696-.501 2.715-1.768 4.761-3.049l.237.668 1.893-1.364C9.398-8.576 3.216-1.893 0 0" transform="translate(443.082 493.922)"/></g><g clip-path="url(#bY)" transform="matrix(13.05065 0 0 -13.05065 -4939.294 7042.096)"><path style="fill:none;stroke:#231f20;stroke-width:.27399999;stroke-linecap:round;stroke-linejoin:round;stroke-miterlimit:4;stroke-dasharray:none;stroke-opacity:1" d="M0 0c-2.172 1.671-6.042 3.369-9.843 3.425-2.493 0-2.005 3.314-1.616 5.277.766 4.26.975 4.037 1.434 8.256.182 2.325-1.072 3.773-2.603 3.982-1.754.125-3.592-1.003-3.773-3.397-.014-.14-.028-.265-.042-.39.056-.613.348-.989.947-.961.125-.418.418-.682.863-.585.279.251.64.404 1.016.376 1.448-.139 1.086-2.005.502-4.497-.961-3.982-4.734-10.247-1.518-13.728.543-.584.891-.96 1.281-2.185.209-.251.153 1.559.083 2.06.641-3.077 1.852-2.102 2.2-4.288.265-.153.126 1.058.07 2.172 1.601-2.882 2.172-4.275 2.868-6.279l-.098 2.032c.098-.222.209-2.673.265-2.937.042.668.39 1.49.473 2.144.042-.098.181-1.128.39-1.921.084.612.223 1.253.362 1.67.251-1.016.223-1.517.46-2.158.028.599.403 1.629.696 2.492l.724.293c.529-.446.821-.599 1.183-.738l.613-.321c.39-.222.835-.473 1.253-.528l.793-.39c.39-.14.794-.209 1.184-.265l.891-.209a4 4 0 0 1 1.239-.097l.891-.209c.473-.292 1.142-.39 1.824-.404.237-.25.501-.529.821-.835l.432.877c.014.014.028.014.056.014.696-.501 2.715-1.768 4.761-3.049l.237.668 1.893-1.364C9.398-8.576 3.216-1.893 0 0" transform="translate(443.082 493.922)"/></g><g clip-path="url(#bZ)" transform="matrix(13.05065 0 0 -13.05065 -4939.294 7042.096)"><path style="fill:#fff;fill-opacity:1;fill-rule:evenodd;stroke:none" d="M0 0c-.153-.042-.306-.111-.459-.167a7.8 7.8 0 0 1-1.727-1.016C-1.768-.181-.807-.014 0 0" transform="translate(430.314 513.762)"/></g><g clip-path="url(#ca)" transform="matrix(13.05065 0 0 -13.05065 -4939.294 7042.096)"><path style="fill:none;stroke:#231f20;stroke-width:.152;stroke-linecap:round;stroke-linejoin:round;stroke-miterlimit:4;stroke-dasharray:none;stroke-opacity:1" d="M0 0c-.153-.042-.306-.111-.459-.167a7.8 7.8 0 0 1-1.727-1.016C-1.768-.181-.807-.014 0 0" transform="translate(430.314 513.762)"/></g><g clip-path="url(#cb)" transform="matrix(13.05065 0 0 -13.05065 -4939.294 7042.096)"><path style="fill:#ee293d;fill-opacity:1;fill-rule:evenodd;stroke:none" d="M0 0c-.613-.237-1.518-.459-2.144-.919-.334.014-.654-.097-1.016-.32.125.571.487.975.946.905l.209.167C-1.49.014-.738.125-.223.306-.571.251-1.128.153-1.476.097c-.278.07-.222-.111-.487.015-.084.083-.223-.126-.306-.028-.279-.084-.543-.153-.808-.223.181.432.515.863.961.821.014 0 .042 0 .055-.014C-1.128.599-.459.71.278.738c.265.07.237.265.251.529l-.236 10.86c-.39.654-.362 1.364-.14 2.116l-.585 5.096c.098.362.209.724.251 1.044.042-.098.181-1.128.39-1.921.084.612.223 1.253.362 1.67.07-.278.111-.515.153-.724.084-1.823.237-4.176.348-5.151.543-.404.376-1.545.07-1.977l-.14-10.971c-.013-.279.098-.71.641-.724C2.269.487 2.659.474 3.564.279c.376.097 1.044-.335.891-.933-.459.515-.752.348-.877.362C2.826-.334 2.437-.056 1.81 0c-.111.014-.167-.028-.32-.028-.14-.111-.237-.292-.474-.403-.181-.112-.584.014-.751.097-.864-.543-1.629-.863-1.95-1.072l-.208-.237c-.168-.139-.683-.334-.836-.473.139.571.418 1.114.641 1.044.069.153.306.07.376.223C-1.434-.571-.599-.223 0 0" transform="translate(435.772 464.016)"/></g><g clip-path="url(#cc)" transform="matrix(13.05065 0 0 -13.05065 -4939.294 7042.096)"><path style="fill:none;stroke:#231f20;stroke-width:.27500001;stroke-linecap:round;stroke-linejoin:round;stroke-miterlimit:4;stroke-dasharray:none;stroke-opacity:1" d="M0 0c-.613-.237-1.518-.459-2.144-.919-.334.014-.654-.097-1.016-.32.125.571.487.975.946.905l.209.167C-1.49.014-.738.125-.223.306-.571.251-1.128.153-1.476.097c-.278.07-.222-.111-.487.015-.084.083-.223-.126-.306-.028-.279-.084-.543-.153-.808-.223.181.432.515.863.961.821.014 0 .042 0 .055-.014C-1.128.599-.459.71.278.738c.265.07.237.265.251.529l-.236 10.86c-.39.654-.362 1.364-.14 2.116l-.585 5.096c.098.362.209.724.251 1.044.042-.098.181-1.128.39-1.921.084.612.223 1.253.362 1.67.07-.278.111-.515.153-.724.084-1.823.237-4.176.348-5.151.543-.404.376-1.545.07-1.977l-.14-10.971c-.013-.279.098-.71.641-.724C2.269.487 2.659.474 3.564.279c.376.097 1.044-.335.891-.933-.459.515-.752.348-.877.362C2.826-.334 2.437-.056 1.81 0c-.111.014-.167-.028-.32-.028-.14-.111-.237-.292-.474-.403-.181-.112-.584.014-.751.097-.864-.543-1.629-.863-1.95-1.072l-.208-.237c-.168-.139-.683-.334-.836-.473.139.571.418 1.114.641 1.044.069.153.306.07.376.223C-1.434-.571-.599-.223 0 0" transform="translate(435.772 464.016)"/></g><g clip-path="url(#cd)" transform="matrix(13.05065 0 0 -13.05065 -4939.294 7042.096)"><path style="fill:#1a68bb;fill-opacity:1;fill-rule:evenodd;stroke:none" d="M0 0v.014zm-1.893-1.169c.501.389 1.058.71 1.601.96-.794-.598-.627-2.158-1.713-2.367-.069.585-.028 1.045.112 1.407" transform="translate(430.022 513.748)"/></g><g clip-path="url(#ce)" transform="matrix(13.05065 0 0 -13.05065 -4939.294 7042.096)"><path style="fill:none;stroke:#231f20;stroke-width:.13;stroke-linecap:round;stroke-linejoin:round;stroke-miterlimit:4;stroke-dasharray:none;stroke-opacity:1" d="M0 0v.014zm-1.893-1.169c.501.389 1.058.71 1.601.96-.794-.598-.627-2.158-1.713-2.367-.069.585-.028 1.045.112 1.407" transform="translate(430.022 513.748)"/></g><g clip-path="url(#cf)" transform="matrix(13.05065 0 0 -13.05065 -4939.294 7042.096)"><path style="fill:#231f20;fill-opacity:1;fill-rule:evenodd;stroke:none" d="M0 0c-.167-.264-.432-.362-.599-.223-.167.14-.181.474-.028.738.168.265.432.362.599.223S.153.265 0 0" transform="translate(428.783 511.84)"/></g><g clip-path="url(#cg)" transform="matrix(13.05065 0 0 -13.05065 -4939.294 7042.096)"><path style="fill:#fff;fill-opacity:1;fill-rule:evenodd;stroke:none" d="M0 0c-.069-.069-.056-.209.014-.292.07-.084.181-.084.251 0C.334-.223.32-.083.251 0 .181.084.056.084 0 0" transform="translate(428.31 512.147)"/></g><g clip-path="url(#ch)" transform="matrix(13.05065 0 0 -13.05065 -4939.294 7042.096)"><path style="fill:none;stroke:#231f20;stroke-width:.175;stroke-linecap:butt;stroke-linejoin:miter;stroke-miterlimit:4;stroke-dasharray:none;stroke-opacity:1" d="m0 0 .195-.571" transform="translate(433.684 462.944)"/></g><g clip-path="url(#ci)" transform="matrix(13.05065 0 0 -13.05065 -4939.294 7042.096)"><path style="fill:none;stroke:#231f20;stroke-width:.18000001;stroke-linecap:butt;stroke-linejoin:miter;stroke-miterlimit:4;stroke-dasharray:none;stroke-opacity:1" d="m0 0-.07.585m-.167.417.209.585m5.639-.96-.014.57" transform="translate(433.74 463.098)"/></g><g clip-path="url(#cj)" transform="matrix(13.05065 0 0 -13.05065 -4939.294 7042.096)"><path style="fill:#231f20;fill-opacity:1;fill-rule:evenodd;stroke:none" d="M0 0v-.209c-.042.028-.084.056-.111.084-1.991 1.281-4.233 2.311-6.642 2.241-.863-.069-1.573-.25-2.144-.933-.25-.389-.055-.584.223-.167.682.836 1.768.877 2.771.808C-3.829 1.601-2.061.78-.306-.32l.195.195zm-7.351-5.193c1.253-2.033 2.617-3.843 3.55-4.038-.487 1.796-.974 3.077-.905 4.901.627-1.977 2.061-5.792 2.562-5.68-.111.626-.933 4.385-.863 4.678 1.142-2.994 2.297-5.695 2.965-5.542-.292 1.142-1.155 3.23-1.239 4.999.223-.878.724-2.019 1.281-3.049v4.97c-.64-.111-1.476-.125-2.492.028-2.186.376-3.829.891-5.806 2.826-.682.752-.877.139-.794-.431.098-.53.237-.822.363-1.142.125-.306.292-.627.598-1.184l.404-.96c.111-.418.237-.85.348-1.281.139-.502.334-1.49.529-1.949-.07.64-.139 1.239-.251 1.796-.083.348-.153.71-.25 1.058M0-.209V0l.794.835c3.216-1.893 9.397-8.576 13.212-15.997l-1.893 1.365-.237-.669c-2.088 1.309-4.149 2.604-4.803 3.077l-.446-.919c-1.698 1.657-1.865 2.298-3.118 3.871l.139-.084.181-.097.39-.209.404-.195c.208-.083.417-.181.626-.264s.418-.168.64-.237c.209-.084.418-.153.641-.223l.835-.251c.543-.153 1.086-.292 1.629-.431l.627-.139-.571.863-.738 1.086-.362.501-.334.473-.334.446-.321.432-.306.403-.306.376-.292.362-.293.348-.292.334-.279.321-.264.292-.279.278-.264.265-.279.265-.264.25-.265.251-.264.236-.265.223-.543.46c-.278.209-.557.431-.835.64-.293.223-.585.446-.891.654-.251.195-.515.404-.78.599m0-8.715c.821-1.546 1.768-2.883 2.116-2.841.07.265-1.322 3.787-1.448 5.026.877-1.364 3.175-5.861 3.718-5.652.041.348-1.072 2.77-1.476 4.692l.71-.474.348-.209.376-.194.39-.195c.209-.084.404-.181.612-.265.209-.083.418-.153.627-.237.209-.069.431-.139.64-.208.404-.14.808-.251 1.226-.362.389-.112.779-.209 1.169-.307l-.919 1.379-.362.487-.334.473-.32.446-.32.431-.321.39-.292.39-.292.362-.293.348-.278.32-.279.307-.278.306-.265.278-.264.251-.265.264-.264.251-.265.237-.264.237-.529.445-.543.446c-.279.209-.557.431-.85.64a8 8 0 0 1-.39.292C2.13-2.409 1.796-3.62 0-3.954Z" transform="translate(442.288 493.087)"/></g><g clip-path="url(#ck)" transform="matrix(1.33333 0 0 -1.33333 0 1587.4)"/><g clip-path="url(#cl)" transform="matrix(1.33333 0 0 -1.33333 0 1587.4)"/></svg>