<?xml version="1.0" encoding="UTF-8" standalone="no"?>
<svg
   xmlns:dc="http://purl.org/dc/elements/1.1/"
   xmlns:cc="http://creativecommons.org/ns#"
   xmlns:rdf="http://www.w3.org/1999/02/22-rdf-syntax-ns#"
   xmlns:svg="http://www.w3.org/2000/svg"
   xmlns="http://www.w3.org/2000/svg"
   viewBox="0 0 816 1056"
   height="1056"
   width="816"
   xml:space="preserve"
   id="svg2"
   version="1.1"><metadata
     id="metadata8"><rdf:RDF><cc:Work
         rdf:about=""><dc:format>image/svg+xml</dc:format><dc:type
           rdf:resource="http://purl.org/dc/dcmitype/StillImage" /></cc:Work></rdf:RDF></metadata><defs
     id="defs6"><clipPath
       id="clipPath18"
       clipPathUnits="userSpaceOnUse"><path
         id="path16"
         d="M 54.929,703.032 H 138.12 V 850.456 H 54.929 Z" /></clipPath><clipPath
       id="clipPath30"
       clipPathUnits="userSpaceOnUse"><path
         id="path28"
         d="M 54.929,703.032 H 138.12 V 850.456 H 54.929 Z" /></clipPath><clipPath
       id="clipPath42"
       clipPathUnits="userSpaceOnUse"><path
         id="path40"
         d="M 54.929,703.032 H 138.12 V 850.456 H 54.929 Z" /></clipPath><clipPath
       id="clipPath54"
       clipPathUnits="userSpaceOnUse"><path
         id="path52"
         d="M 54.929,703.032 H 138.12 V 850.456 H 54.929 Z" /></clipPath><clipPath
       id="clipPath66"
       clipPathUnits="userSpaceOnUse"><path
         id="path64"
         d="M 54.929,703.032 H 138.12 V 850.456 H 54.929 Z" /></clipPath><clipPath
       id="clipPath78"
       clipPathUnits="userSpaceOnUse"><path
         id="path76"
         d="M 54.929,703.032 H 138.12 V 850.456 H 54.929 Z" /></clipPath><clipPath
       id="clipPath90"
       clipPathUnits="userSpaceOnUse"><path
         id="path88"
         d="M 54.929,703.032 H 138.12 V 850.456 H 54.929 Z" /></clipPath><clipPath
       id="clipPath102"
       clipPathUnits="userSpaceOnUse"><path
         id="path100"
         d="M 54.929,703.032 H 138.12 V 850.456 H 54.929 Z" /></clipPath><clipPath
       id="clipPath114"
       clipPathUnits="userSpaceOnUse"><path
         id="path112"
         d="M 54.929,703.032 H 138.12 V 850.456 H 54.929 Z" /></clipPath><clipPath
       id="clipPath126"
       clipPathUnits="userSpaceOnUse"><path
         id="path124"
         d="M 54.929,703.032 H 138.12 V 850.456 H 54.929 Z" /></clipPath><clipPath
       id="clipPath138"
       clipPathUnits="userSpaceOnUse"><path
         id="path136"
         d="M 54.929,703.032 H 138.12 V 850.456 H 54.929 Z" /></clipPath><clipPath
       id="clipPath150"
       clipPathUnits="userSpaceOnUse"><path
         id="path148"
         d="M 54.929,703.032 H 138.12 V 850.456 H 54.929 Z" /></clipPath><clipPath
       id="clipPath162"
       clipPathUnits="userSpaceOnUse"><path
         id="path160"
         d="M 54.929,703.032 H 138.12 V 850.456 H 54.929 Z" /></clipPath><clipPath
       id="clipPath174"
       clipPathUnits="userSpaceOnUse"><path
         id="path172"
         d="M 54.929,703.032 H 138.12 V 850.456 H 54.929 Z" /></clipPath><clipPath
       id="clipPath186"
       clipPathUnits="userSpaceOnUse"><path
         id="path184"
         d="M 54.929,703.032 H 138.12 V 850.456 H 54.929 Z" /></clipPath><clipPath
       id="clipPath198"
       clipPathUnits="userSpaceOnUse"><path
         id="path196"
         d="M 54.929,703.032 H 138.12 V 850.456 H 54.929 Z" /></clipPath><clipPath
       id="clipPath210"
       clipPathUnits="userSpaceOnUse"><path
         id="path208"
         d="M 54.929,703.032 H 138.12 V 850.456 H 54.929 Z" /></clipPath><clipPath
       id="clipPath222"
       clipPathUnits="userSpaceOnUse"><path
         id="path220"
         d="M 54.929,703.032 H 138.12 V 850.456 H 54.929 Z" /></clipPath><clipPath
       id="clipPath234"
       clipPathUnits="userSpaceOnUse"><path
         id="path232"
         d="M 54.929,703.032 H 138.12 V 850.456 H 54.929 Z" /></clipPath><clipPath
       id="clipPath246"
       clipPathUnits="userSpaceOnUse"><path
         id="path244"
         d="M 54.929,703.032 H 138.12 V 850.456 H 54.929 Z" /></clipPath><clipPath
       id="clipPath258"
       clipPathUnits="userSpaceOnUse"><path
         id="path256"
         d="M 54.929,703.032 H 138.12 V 850.456 H 54.929 Z" /></clipPath><clipPath
       id="clipPath270"
       clipPathUnits="userSpaceOnUse"><path
         id="path268"
         d="M 54.929,703.032 H 138.12 V 850.456 H 54.929 Z" /></clipPath><clipPath
       id="clipPath282"
       clipPathUnits="userSpaceOnUse"><path
         id="path280"
         d="M 54.929,703.032 H 138.12 V 850.456 H 54.929 Z" /></clipPath><clipPath
       id="clipPath294"
       clipPathUnits="userSpaceOnUse"><path
         id="path292"
         d="M 54.929,703.032 H 138.12 V 850.456 H 54.929 Z" /></clipPath><clipPath
       id="clipPath306"
       clipPathUnits="userSpaceOnUse"><path
         id="path304"
         d="M 54.929,703.032 H 138.12 V 850.456 H 54.929 Z" /></clipPath><clipPath
       id="clipPath318"
       clipPathUnits="userSpaceOnUse"><path
         id="path316"
         d="M 54.929,703.032 H 138.12 V 850.456 H 54.929 Z" /></clipPath><clipPath
       id="clipPath330"
       clipPathUnits="userSpaceOnUse"><path
         id="path328"
         d="M 54.929,703.032 H 138.12 V 850.456 H 54.929 Z" /></clipPath><clipPath
       id="clipPath342"
       clipPathUnits="userSpaceOnUse"><path
         id="path340"
         d="M 54.929,703.032 H 138.12 V 850.456 H 54.929 Z" /></clipPath><clipPath
       id="clipPath354"
       clipPathUnits="userSpaceOnUse"><path
         id="path352"
         d="M 54.929,703.032 H 138.12 V 850.456 H 54.929 Z" /></clipPath><clipPath
       id="clipPath366"
       clipPathUnits="userSpaceOnUse"><path
         id="path364"
         d="M 54.929,703.032 H 138.12 V 850.456 H 54.929 Z" /></clipPath><clipPath
       id="clipPath378"
       clipPathUnits="userSpaceOnUse"><path
         id="path376"
         d="M 54.929,703.032 H 138.12 V 850.456 H 54.929 Z" /></clipPath></defs><g
     transform="matrix(1.3333333,0,0,-1.3333333,0,1056)"
     id="g10"><g
       transform="matrix(7.2380981,0,0,7.2380981,-392.93262,-5197.9077)"
       id="g12"><g
         clip-path="url(#clipPath18)"
         id="g14"><g
           transform="translate(57.611233,824.12015)"
           id="g20"><path
             id="path22"
             style="fill:#f5f014;fill-opacity:1;fill-rule:nonzero;stroke:none"
             d="M 0,0 H 77.829 V -48.872 C 77.581,-60.39 74.074,-69.848 66.718,-78.715 58.982,-87.276 50.081,-92.139 38.875,-94.732 27.689,-92.139 18.81,-87.238 11.092,-78.677 3.773,-69.829 0.247,-60.39 0,-48.911 Z m -1.601,1.602 h 81.029 v -50.474 c -0.265,-11.899 -3.887,-21.701 -11.491,-30.872 -8.345,-9.23 -17.588,-13.959 -29.062,-16.61 -11.719,2.728 -20.905,7.685 -29.003,16.667 -7.566,9.134 -11.206,18.916 -11.473,30.795 z" /></g></g></g><g
       transform="matrix(7.2380981,0,0,7.2380981,-392.93262,-5197.9077)"
       id="g24"><g
         clip-path="url(#clipPath30)"
         id="g26"><g
           transform="translate(57.611233,824.12015)"
           id="g32"><path
             id="path34"
             style="fill:none;stroke:#100f0d;stroke-width:0.456;stroke-linecap:butt;stroke-linejoin:miter;stroke-miterlimit:10;stroke-dasharray:none;stroke-opacity:1"
             d="M 0,0 H 77.829 V -48.872 C 77.581,-60.39 74.074,-69.848 66.718,-78.715 58.982,-87.276 50.081,-92.139 38.875,-94.732 27.689,-92.139 18.81,-87.238 11.092,-78.677 3.773,-69.829 0.247,-60.39 0,-48.911 Z m -1.601,1.602 h 81.029 v -50.474 c -0.265,-11.899 -3.887,-21.701 -11.491,-30.872 -8.345,-9.23 -17.588,-13.959 -29.062,-16.61 -11.719,2.728 -20.905,7.685 -29.003,16.667 -7.566,9.134 -11.206,18.916 -11.473,30.795 z" /></g></g></g><g
       transform="matrix(7.2380981,0,0,7.2380981,-392.93262,-5197.9077)"
       id="g36"><g
         clip-path="url(#clipPath42)"
         id="g38"><g
           transform="translate(59.27113,822.38633)"
           id="g44"><path
             id="path46"
             style="fill:#247e3b;fill-opacity:1;fill-rule:nonzero;stroke:none"
             d="M 0,0 H 74.473 V -47.172 C 74.473,-69.456 58.372,-86.878 37.198,-91.34 16.082,-86.859 0,-69.323 0,-47.211 Z" /></g></g></g><g
       transform="matrix(7.2380981,0,0,7.2380981,-392.93262,-5197.9077)"
       id="g48"><g
         clip-path="url(#clipPath54)"
         id="g50"><g
           transform="translate(59.270733,822.38645)"
           id="g56"><path
             id="path58"
             style="fill:#ffffff;fill-opacity:1;fill-rule:nonzero;stroke:none"
             d="M 0,0 H 74.473 V -47.173 C 74.473,-69.456 58.372,-86.879 37.198,-91.34 16.082,-86.859 0,-69.323 0,-47.212 Z m -1.856,1.895 h 78.204 v -49.068 c -0.267,-11.562 -3.77,-21.058 -11.16,-29.96 -7.792,-8.596 -16.733,-13.477 -27.99,-16.081 -11.237,2.621 -20.159,7.523 -27.913,16.118 -7.352,8.884 -10.873,18.361 -11.141,29.884 z" /></g></g></g><g
       transform="matrix(7.2380981,0,0,7.2380981,-392.93262,-5197.9077)"
       id="g60"><g
         clip-path="url(#clipPath66)"
         id="g62"><g
           transform="translate(57.414731,824.28092)"
           id="g68"><path
             id="path70"
             style="fill:none;stroke:#100f0d;stroke-width:0.456;stroke-linecap:butt;stroke-linejoin:miter;stroke-miterlimit:7.66099977;stroke-dasharray:none;stroke-opacity:1"
             d="M 0,0 H 78.204 V -49.068 C 77.936,-60.63 74.433,-70.126 67.043,-79.028 59.251,-87.623 50.311,-92.505 39.054,-95.108 27.817,-92.487 18.896,-87.585 11.143,-78.989 3.791,-70.107 0.268,-60.63 0,-49.105 Z m 1.858,-1.896 h 74.471 v -47.171 c 0,-22.284 -16.101,-39.705 -37.275,-44.166 -21.116,4.48 -37.196,22.016 -37.196,44.128 z" /></g></g></g><g
       transform="matrix(7.2380981,0,0,7.2380981,-392.93262,-5197.9077)"
       id="g72"><g
         clip-path="url(#clipPath78)"
         id="g74"><g
           transform="translate(59.272228,822.38535)"
           id="g80"><path
             id="path82"
             style="fill:none;stroke:#100f0d;stroke-width:0.76599997;stroke-linecap:butt;stroke-linejoin:miter;stroke-miterlimit:7.66099977;stroke-dasharray:none;stroke-opacity:1"
             d="m 0,0 h 74.471 v -47.171 c 0,-22.284 -16.1,-39.705 -37.275,-44.166 C 16.08,-86.857 0,-69.321 0,-47.209 Z" /></g></g></g><g
       transform="matrix(7.2380981,0,0,7.2380981,-392.93262,-5197.9077)"
       id="g84"><g
         clip-path="url(#clipPath90)"
         id="g86"><g
           transform="translate(61.081236,820.52121)"
           id="g92"><path
             id="path94"
             style="fill:#247e3b;fill-opacity:1;fill-rule:nonzero;stroke:none"
             d="M 0,0 H 70.819 V -45.195 C 70.593,-55.847 67.403,-64.594 60.709,-72.793 53.668,-80.712 45.57,-85.208 35.375,-87.606 25.196,-85.208 17.116,-80.676 10.092,-72.758 3.434,-64.577 0.224,-55.847 0,-45.232 Z m -1.457,1.482 h 73.732 v -46.677 c -0.242,-11.006 -3.538,-20.07 -10.457,-28.55 -7.594,-8.535 -16.005,-12.909 -26.443,-15.36 -10.666,2.522 -19.023,7.106 -26.392,15.412 -6.885,8.447 -10.197,17.492 -10.44,28.479 z" /></g></g></g><g
       transform="matrix(7.2380981,0,0,7.2380981,-392.93262,-5197.9077)"
       id="g96"><g
         clip-path="url(#clipPath102)"
         id="g98"><g
           transform="translate(77.132942,774.58223)"
           id="g104"><path
             id="path106"
             style="fill:#f5f014;fill-opacity:1;fill-rule:nonzero;stroke:none"
             d="m 0,0 c 2.241,0 4.059,-1.819 4.059,-4.04 0,-2.221 -1.818,-4.039 -4.059,-4.039 -2.241,0 -4.059,1.818 -4.059,4.039 C -4.059,-1.819 -2.241,0 0,0" /></g></g></g><g
       transform="matrix(7.2380981,0,0,7.2380981,-392.93262,-5197.9077)"
       id="g108"><g
         clip-path="url(#clipPath114)"
         id="g110"><g
           transform="translate(77.132942,774.58149)"
           id="g116"><path
             id="path118"
             style="fill:none;stroke:#100f0d;stroke-width:0.54299998;stroke-linecap:butt;stroke-linejoin:miter;stroke-miterlimit:7.66099977;stroke-dasharray:none;stroke-opacity:1"
             d="M 0,0 C 2.239,0 4.057,-1.818 4.057,-4.039 4.057,-6.26 2.239,-8.077 0,-8.077 c -2.239,0 -4.057,1.817 -4.057,4.038 C -4.057,-1.818 -2.239,0 0,0 Z" /></g></g></g><g
       transform="matrix(7.2380981,0,0,7.2380981,-392.93262,-5197.9077)"
       id="g120"><g
         clip-path="url(#clipPath126)"
         id="g122"><g
           transform="translate(96.526444,820.68235)"
           id="g128"><path
             id="path130"
             style="fill:#f5f014;fill-opacity:1;fill-rule:nonzero;stroke:none"
             d="m 0,0 c 2.241,0 4.059,-1.818 4.059,-4.04 0,-2.239 -1.818,-4.039 -4.059,-4.039 -2.241,0 -4.059,1.8 -4.059,4.039 C -4.059,-1.818 -2.241,0 0,0" /></g></g></g><g
       transform="matrix(7.2380981,0,0,7.2380981,-392.93262,-5197.9077)"
       id="g132"><g
         clip-path="url(#clipPath138)"
         id="g134"><g
           transform="translate(96.526444,820.68173)"
           id="g140"><path
             id="path142"
             style="fill:none;stroke:#100f0d;stroke-width:0.54299998;stroke-linecap:butt;stroke-linejoin:miter;stroke-miterlimit:7.66099977;stroke-dasharray:none;stroke-opacity:1"
             d="m 0,0 c 2.239,0 4.057,-1.818 4.057,-4.039 0,-2.239 -1.818,-4.038 -4.057,-4.038 -2.239,0 -4.057,1.799 -4.057,4.038 C -4.057,-1.818 -2.239,0 0,0 Z" /></g></g></g><g
       transform="matrix(7.2380981,0,0,7.2380981,-392.93262,-5197.9077)"
       id="g144"><g
         clip-path="url(#clipPath150)"
         id="g146"><g
           transform="translate(83.814447,808.20041)"
           id="g152"><path
             id="path154"
             style="fill:#f5f014;fill-opacity:1;fill-rule:nonzero;stroke:none"
             d="m 0,0 c 2.241,0 4.059,-1.801 4.059,-4.02 0,-2.241 -1.818,-4.04 -4.059,-4.04 -2.241,0 -4.059,1.799 -4.059,4.04 C -4.059,-1.801 -2.241,0 0,0" /></g></g></g><g
       transform="matrix(7.2380981,0,0,7.2380981,-392.93262,-5197.9077)"
       id="g156"><g
         clip-path="url(#clipPath162)"
         id="g158"><g
           transform="translate(83.814447,808.19931)"
           id="g164"><path
             id="path166"
             style="fill:none;stroke:#100f0d;stroke-width:0.54299998;stroke-linecap:butt;stroke-linejoin:miter;stroke-miterlimit:7.66099977;stroke-dasharray:none;stroke-opacity:1"
             d="m 0,0 c 2.239,0 4.057,-1.799 4.057,-4.019 0,-2.241 -1.818,-4.04 -4.057,-4.04 -2.239,0 -4.057,1.799 -4.057,4.04 C -4.057,-1.799 -2.239,0 0,0 Z" /></g></g></g><g
       transform="matrix(7.2380981,0,0,7.2380981,-392.93262,-5197.9077)"
       id="g168"><g
         clip-path="url(#clipPath174)"
         id="g170"><g
           transform="translate(109.29595,808.21932)"
           id="g176"><path
             id="path178"
             style="fill:#f5f014;fill-opacity:1;fill-rule:nonzero;stroke:none"
             d="m 0,0 c 2.258,0 4.078,-1.819 4.078,-4.04 0,-2.221 -1.82,-4.039 -4.078,-4.039 -2.221,0 -4.04,1.818 -4.04,4.039 C -4.04,-1.819 -2.221,0 0,0" /></g></g></g><g
       transform="matrix(7.2380981,0,0,7.2380981,-392.93262,-5197.9077)"
       id="g180"><g
         clip-path="url(#clipPath186)"
         id="g182"><g
           transform="translate(109.29595,808.21865)"
           id="g188"><path
             id="path190"
             style="fill:none;stroke:#100f0d;stroke-width:0.54299998;stroke-linecap:butt;stroke-linejoin:miter;stroke-miterlimit:7.66099977;stroke-dasharray:none;stroke-opacity:1"
             d="M 0,0 C 2.258,0 4.077,-1.818 4.077,-4.039 4.077,-6.26 2.258,-8.077 0,-8.077 c -2.22,0 -4.039,1.817 -4.039,4.038 C -4.039,-1.818 -2.22,0 0,0 Z" /></g></g></g><g
       transform="matrix(7.2380981,0,0,7.2380981,-392.93262,-5197.9077)"
       id="g192"><g
         clip-path="url(#clipPath198)"
         id="g194"><g
           transform="translate(113.64185,796.06271)"
           id="g200"><path
             id="path202"
             style="fill:#f5f014;fill-opacity:1;fill-rule:nonzero;stroke:none"
             d="m 0,0 c 2.241,0 4.059,-1.8 4.059,-4.04 0,-2.221 -1.818,-4.039 -4.059,-4.039 -2.241,0 -4.059,1.818 -4.059,4.039 C -4.059,-1.8 -2.241,0 0,0" /></g></g></g><g
       transform="matrix(7.2380981,0,0,7.2380981,-392.93262,-5197.9077)"
       id="g204"><g
         clip-path="url(#clipPath210)"
         id="g206"><g
           transform="translate(113.64185,796.06185)"
           id="g212"><path
             id="path214"
             style="fill:none;stroke:#100f0d;stroke-width:0.54299998;stroke-linecap:butt;stroke-linejoin:miter;stroke-miterlimit:7.66099977;stroke-dasharray:none;stroke-opacity:1"
             d="M 0,0 C 2.239,0 4.057,-1.799 4.057,-4.039 4.057,-6.26 2.239,-8.077 0,-8.077 c -2.239,0 -4.057,1.817 -4.057,4.038 C -4.057,-1.799 -2.239,0 0,0 Z" /></g></g></g><g
       transform="matrix(7.2380981,0,0,7.2380981,-392.93262,-5197.9077)"
       id="g216"><g
         clip-path="url(#clipPath222)"
         id="g218"><g
           transform="translate(79.602531,796.12002)"
           id="g224"><path
             id="path226"
             style="fill:#f5f014;fill-opacity:1;fill-rule:nonzero;stroke:none"
             d="m 0,0 c 2.241,0 4.059,-1.8 4.059,-4.02 0,-2.241 -1.818,-4.04 -4.059,-4.04 -2.241,0 -4.059,1.799 -4.059,4.04 C -4.059,-1.8 -2.241,0 0,0" /></g></g></g><g
       transform="matrix(7.2380981,0,0,7.2380981,-392.93262,-5197.9077)"
       id="g228"><g
         clip-path="url(#clipPath234)"
         id="g230"><g
           transform="translate(79.602531,796.11935)"
           id="g236"><path
             id="path238"
             style="fill:none;stroke:#100f0d;stroke-width:0.54299998;stroke-linecap:butt;stroke-linejoin:miter;stroke-miterlimit:7.66099977;stroke-dasharray:none;stroke-opacity:1"
             d="m 0,0 c 2.239,0 4.057,-1.799 4.057,-4.02 0,-2.24 -1.818,-4.039 -4.057,-4.039 -2.239,0 -4.057,1.799 -4.057,4.039 C -4.057,-1.799 -2.239,0 0,0 Z" /></g></g></g><g
       transform="matrix(7.2380981,0,0,7.2380981,-392.93262,-5197.9077)"
       id="g240"><g
         clip-path="url(#clipPath246)"
         id="g242"><g
           transform="translate(109.20025,784.1736)"
           id="g248"><path
             id="path250"
             style="fill:#f5f014;fill-opacity:1;fill-rule:nonzero;stroke:none"
             d="m 0,0 c 2.241,0 4.059,-1.818 4.059,-4.04 0,-2.221 -1.818,-4.039 -4.059,-4.039 -2.241,0 -4.059,1.818 -4.059,4.039 C -4.059,-1.818 -2.241,0 0,0" /></g></g></g><g
       transform="matrix(7.2380981,0,0,7.2380981,-392.93262,-5197.9077)"
       id="g252"><g
         clip-path="url(#clipPath258)"
         id="g254"><g
           transform="translate(109.20025,784.17268)"
           id="g260"><path
             id="path262"
             style="fill:none;stroke:#100f0d;stroke-width:0.54299998;stroke-linecap:butt;stroke-linejoin:miter;stroke-miterlimit:7.66099977;stroke-dasharray:none;stroke-opacity:1"
             d="M 0,0 C 2.239,0 4.057,-1.818 4.057,-4.039 4.057,-6.26 2.239,-8.077 0,-8.077 c -2.239,0 -4.057,1.817 -4.057,4.038 C -4.057,-1.818 -2.239,0 0,0 Z" /></g></g></g><g
       transform="matrix(7.2380981,0,0,7.2380981,-392.93262,-5197.9077)"
       id="g264"><g
         clip-path="url(#clipPath270)"
         id="g266"><g
           transform="translate(83.833534,784.1736)"
           id="g272"><path
             id="path274"
             style="fill:#f5f014;fill-opacity:1;fill-rule:nonzero;stroke:none"
             d="m 0,0 c 2.241,0 4.059,-1.801 4.059,-4.04 0,-2.221 -1.818,-4.039 -4.059,-4.039 -2.241,0 -4.059,1.818 -4.059,4.039 C -4.059,-1.801 -2.241,0 0,0" /></g></g></g><g
       transform="matrix(7.2380981,0,0,7.2380981,-392.93262,-5197.9077)"
       id="g276"><g
         clip-path="url(#clipPath282)"
         id="g278"><g
           transform="translate(83.833534,784.17268)"
           id="g284"><path
             id="path286"
             style="fill:none;stroke:#100f0d;stroke-width:0.54299998;stroke-linecap:butt;stroke-linejoin:miter;stroke-miterlimit:7.66099977;stroke-dasharray:none;stroke-opacity:1"
             d="M 0,0 C 2.239,0 4.057,-1.799 4.057,-4.039 4.057,-6.26 2.239,-8.077 0,-8.077 c -2.239,0 -4.057,1.817 -4.057,4.038 C -4.057,-1.799 -2.239,0 0,0 Z" /></g></g></g><g
       transform="matrix(7.2380981,0,0,7.2380981,-392.93262,-5197.9077)"
       id="g288"><g
         clip-path="url(#clipPath294)"
         id="g290"><g
           transform="translate(115.88176,774.58223)"
           id="g296"><path
             id="path298"
             style="fill:#f5f014;fill-opacity:1;fill-rule:nonzero;stroke:none"
             d="m 0,0 c 2.241,0 4.059,-1.819 4.059,-4.04 0,-2.221 -1.818,-4.039 -4.059,-4.039 -2.241,0 -4.059,1.818 -4.059,4.039 C -4.059,-1.819 -2.241,0 0,0" /></g></g></g><g
       transform="matrix(7.2380981,0,0,7.2380981,-392.93262,-5197.9077)"
       id="g300"><g
         clip-path="url(#clipPath306)"
         id="g302"><g
           transform="translate(115.88176,774.58149)"
           id="g308"><path
             id="path310"
             style="fill:none;stroke:#100f0d;stroke-width:0.54299998;stroke-linecap:butt;stroke-linejoin:miter;stroke-miterlimit:7.66099977;stroke-dasharray:none;stroke-opacity:1"
             d="M 0,0 C 2.239,0 4.057,-1.818 4.057,-4.039 4.057,-6.26 2.239,-8.077 0,-8.077 c -2.239,0 -4.057,1.817 -4.057,4.038 C -4.057,-1.818 -2.239,0 0,0 Z" /></g></g></g><g
       transform="matrix(7.2380981,0,0,7.2380981,-392.93262,-5197.9077)"
       id="g312"><g
         clip-path="url(#clipPath318)"
         id="g314"><g
           transform="translate(98.881144,813.35013)"
           id="g320"><path
             id="path322"
             style="fill:#ffffff;fill-opacity:1;fill-rule:nonzero;stroke:none"
             d="m 0,0 v -6.547 h 7.352 c -0.575,-0.69 -0.977,-1.59 -0.977,-2.566 0,-0.957 0.346,-1.856 0.939,-2.564 H 0 v -6.913 h 11.774 c -0.67,-0.727 -1.072,-1.684 -1.072,-2.737 0,-0.92 0.305,-1.743 0.824,-2.431 L 0,-23.72 v -6.796 h 7.332 c -0.65,-0.71 -1.051,-1.666 -1.051,-2.7 0,-0.882 0.266,-1.685 0.745,-2.336 L 0,-35.514 v -14.664 c -1.473,0.345 -3.158,0.326 -4.92,-0.018 v 14.798 l -6.72,0.02 c 0.42,0.631 0.651,1.357 0.651,2.162 0,0.977 -0.363,1.896 -0.957,2.584 h 7.026 v 6.912 l -11.162,-0.038 c 0.536,0.688 0.862,1.55 0.862,2.508 0,1.013 -0.383,1.952 -1.014,2.66 H -4.92 v 7.026 l -6.892,-0.019 c 0.498,0.69 0.785,1.513 0.785,2.393 0,0.958 -0.325,1.838 -0.881,2.527 h 6.988 v 6.835 c 0.708,-0.574 1.589,-0.919 2.565,-0.919 0.882,0 1.705,0.268 2.355,0.747" /></g></g></g><g
       transform="matrix(7.2380981,0,0,7.2380981,-392.93262,-5197.9077)"
       id="g324"><g
         clip-path="url(#clipPath330)"
         id="g326"><g
           transform="translate(98.880946,813.34835)"
           id="g332"><path
             id="path334"
             style="fill:none;stroke:#100f0d;stroke-width:0.58200002;stroke-linecap:butt;stroke-linejoin:miter;stroke-miterlimit:7.66099977;stroke-dasharray:none;stroke-opacity:1"
             d="m 0,0 v -6.547 h 7.351 c -0.574,-0.69 -0.976,-1.59 -0.976,-2.565 0,-0.958 0.345,-1.857 0.937,-2.565 H 0 v -6.912 h 11.773 c -0.67,-0.726 -1.072,-1.684 -1.072,-2.737 0,-0.92 0.305,-1.743 0.824,-2.431 L 0,-23.719 v -6.796 h 7.331 c -0.65,-0.708 -1.052,-1.665 -1.052,-2.698 0,-0.882 0.267,-1.686 0.746,-2.337 L 0,-35.511 v -14.664 c -1.473,0.344 -3.158,0.326 -4.919,-0.019 v 14.797 l -6.718,0.02 c 0.42,0.632 0.649,1.359 0.649,2.164 0,0.975 -0.363,1.894 -0.956,2.583 h 7.025 v 6.911 l -11.16,-0.038 c 0.536,0.688 0.862,1.55 0.862,2.508 0,1.013 -0.383,1.952 -1.016,2.66 h 11.314 v 7.026 l -6.892,-0.019 c 0.498,0.689 0.785,1.512 0.785,2.394 0,0.956 -0.325,1.836 -0.88,2.527 h 6.987 v 6.833 c 0.708,-0.574 1.59,-0.918 2.564,-0.918 0.882,0 1.705,0.267 2.355,0.746 z" /></g></g></g><g
       transform="matrix(7.2380981,0,0,7.2380981,-392.93262,-5197.9077)"
       id="g336"><g
         clip-path="url(#clipPath342)"
         id="g338"><g
           transform="translate(96.392347,753.33173)"
           id="g344"><path
             id="path346"
             style="fill:#ffffff;fill-opacity:1;fill-rule:nonzero;stroke:none"
             d="m 0,0 c 10.415,0.268 16.579,5.859 18.992,13.191 -0.728,0.039 -1.417,0.287 -1.973,0.67 -0.937,-0.402 -2.067,-0.576 -2.775,-0.69 C 13.688,9.744 11.792,8.519 8.557,9.516 6.605,7.409 5.57,8.749 4.46,9.304 3.274,9.956 1.627,10.281 0,10.262 -1.627,10.281 -3.255,9.956 -4.442,9.304 -5.57,8.749 -6.586,7.409 -8.557,9.516 c -3.235,-0.997 -5.113,0.228 -5.667,3.655 -0.728,0.114 -1.839,0.288 -2.776,0.69 -0.575,-0.383 -1.244,-0.631 -1.973,-0.67 C -16.56,5.859 -10.396,0.268 0,0" /></g></g></g><g
       transform="matrix(7.2380981,0,0,7.2380981,-392.93262,-5197.9077)"
       id="g348"><g
         clip-path="url(#clipPath354)"
         id="g350"><g
           transform="translate(96.392347,753.33252)"
           id="g356"><path
             id="path358"
             style="fill:none;stroke:#100f0d;stroke-width:0.53799999;stroke-linecap:butt;stroke-linejoin:miter;stroke-miterlimit:7.66099977;stroke-dasharray:none;stroke-opacity:1"
             d="m 0,0 c 10.414,0.268 16.579,5.858 18.991,13.189 -0.728,0.038 -1.418,0.287 -1.972,0.67 C 16.08,13.458 14.952,13.284 14.244,13.169 13.687,9.743 11.792,8.518 8.557,9.515 6.605,7.408 5.57,8.748 4.46,9.302 3.274,9.955 1.627,10.28 0,10.261 -1.627,10.28 -3.255,9.955 -4.442,9.302 -5.57,8.748 -6.586,7.408 -8.557,9.515 c -3.235,-0.997 -5.112,0.228 -5.667,3.654 -0.728,0.115 -1.838,0.289 -2.776,0.69 -0.573,-0.383 -1.244,-0.632 -1.972,-0.67 C -16.559,5.858 -10.395,0.268 0,0 Z" /></g></g></g><g
       transform="matrix(7.2380981,0,0,7.2380981,-392.93262,-5197.9077)"
       id="g360"><g
         clip-path="url(#clipPath366)"
         id="g362"><g
           transform="translate(101.12114,753.82971)"
           id="g368"><path
             id="path370"
             style="fill:#f5f014;fill-opacity:1;fill-rule:nonzero;stroke:none"
             d="m 0,0 c 3.886,-1.724 6.586,-5.59 6.586,-10.07 0,-6.088 -4.978,-11.027 -11.085,-11.027 -6.107,0 -11.085,4.939 -11.085,11.027 0,4.423 2.642,8.251 6.451,10.012 1.379,-0.267 2.834,-0.44 4.405,-0.479 C -3.044,-0.498 -1.473,-0.306 0,0" /></g></g></g><g
       transform="matrix(7.2380981,0,0,7.2380981,-392.93262,-5197.9077)"
       id="g372"><g
         clip-path="url(#clipPath378)"
         id="g374"><g
           transform="translate(101.12065,753.82849)"
           id="g380"><path
             id="path382"
             style="fill:none;stroke:#100f0d;stroke-width:0.62;stroke-linecap:butt;stroke-linejoin:miter;stroke-miterlimit:7.66099977;stroke-dasharray:none;stroke-opacity:1"
             d="m 0,0 c 3.886,-1.724 6.584,-5.59 6.584,-10.07 0,-6.086 -4.976,-11.026 -11.083,-11.026 -6.105,0 -11.084,4.94 -11.084,11.026 0,4.423 2.642,8.252 6.452,10.012 1.377,-0.267 2.833,-0.44 4.403,-0.479 C -3.043,-0.498 -1.473,-0.306 0,0 Z" /></g></g></g></g></svg>